<svg width="36" height="36" viewBox="0 0 36 36" fill="none" xmlns="http://www.w3.org/2000/svg">
<g id="Frame" clip-path="url(#clip0_1593_6234)">
<path id="Vector" d="M4.24293 4.37138V28.8L0 33.0429V0H36V36H0L20.8286 15.1714L11.5714 31.7571H31.6286V4.37138H4.24293ZM42.1548 3.09363H43.8531V9.38907H47.6174V10.8169H42.1548V3.09363ZM48.5669 3.09363H54.3431V4.52146H50.2651V6.17645H54.0078V7.49611H50.2651V9.38907H54.4296V10.8169H48.5669V3.09363ZM57.528 7.83144H59.5291L58.5556 4.99741H58.534L57.528 7.83144ZM57.6901 3.09363H59.4318L62.3199 10.8169H60.5567L59.9726 9.09701H57.0845L56.4788 10.8169H54.7695L57.6901 3.09363ZM64.6841 6.58749H66.5446C66.934 6.58749 67.226 6.50096 67.4207 6.32789C67.6154 6.15482 67.7128 5.87358 67.7128 5.48417C67.7128 5.10913 67.6154 4.8387 67.4207 4.6729C67.226 4.49983 66.934 4.4133 66.5446 4.4133H64.6841V6.58749ZM62.9858 3.09363H67.1503C67.4965 3.09363 67.8066 3.15127 68.0806 3.2667C68.3618 3.37487 68.5998 3.52631 68.7945 3.72101C68.994 3.91211 69.1491 4.14476 69.2488 4.40248C69.357 4.65482 69.411 4.92896 69.411 5.22456C69.411 5.67887 69.3137 6.07183 69.119 6.40361C68.9316 6.73538 68.6214 6.98772 68.1887 7.16079V7.18242C68.3978 7.24006 68.5709 7.33031 68.7079 7.45285C68.8464 7.57001 68.9604 7.71338 69.0433 7.8747C69.1298 8.03341 69.1912 8.21003 69.2272 8.40473C69.2704 8.59944 69.2993 8.79414 69.3137 8.98884C69.321 9.11138 69.3281 9.25572 69.3353 9.42152C69.3426 9.58732 69.3534 9.75684 69.3678 9.92992C69.3884 10.0971 69.4173 10.2632 69.4543 10.4275C69.4976 10.5789 69.5589 10.7087 69.6382 10.8169H67.9399C67.8461 10.5718 67.7885 10.2796 67.7669 9.94073C67.7466 9.61512 67.7141 9.29039 67.6695 8.96721C67.6119 8.56327 67.4892 8.26766 67.3018 8.08022C67.1143 7.89262 66.8077 7.79899 66.3823 7.79899H64.6841V10.8169H62.9858V3.09363ZM70.7922 3.09363H72.4797L75.7031 8.27493H75.7247V3.09363H77.3148V10.8169H75.6166L72.404 5.64642H72.3823V10.8169H70.7922V3.09363ZM43.3122 19.4082C43.3122 19.6678 43.359 19.8877 43.4529 20.0681C43.5467 20.2484 43.6692 20.3961 43.8206 20.5115C43.9793 20.6197 44.1632 20.7027 44.3723 20.7603C44.5814 20.8109 44.7977 20.8361 45.0213 20.8361C45.1727 20.8361 45.335 20.8252 45.5081 20.8036C45.6766 20.7762 45.8405 20.7252 45.9948 20.6522C46.1411 20.584 46.2704 20.4843 46.3734 20.3601C46.4743 20.2303 46.5248 20.0681 46.5248 19.8734C46.5248 19.6643 46.4564 19.4948 46.3193 19.365C46.1895 19.2352 46.0165 19.127 45.8001 19.0404C45.5838 18.9539 45.3385 18.8782 45.0646 18.8133C44.7854 18.747 44.5078 18.6749 44.2317 18.597C43.946 18.5257 43.6643 18.439 43.3879 18.3374C43.114 18.2292 42.8687 18.0921 42.6524 17.9263C42.4352 17.7595 42.2547 17.5495 42.1224 17.3097C41.9926 17.0574 41.9277 16.7545 41.9277 16.4011C41.9277 16.0044 42.0107 15.662 42.1765 15.3735C42.3447 15.0831 42.5734 14.8323 42.8471 14.638C43.1211 14.4433 43.4312 14.2991 43.7774 14.2053C44.1157 14.1126 44.4649 14.0653 44.8158 14.0647C45.2196 14.0647 45.6054 14.1115 45.9732 14.2053C46.3482 14.2918 46.6798 14.436 46.9683 14.638C47.2555 14.8383 47.4894 15.1056 47.6498 15.4168C47.8229 15.7269 47.9094 16.1055 47.9094 16.5526H46.2652C46.2509 16.3219 46.2003 16.1307 46.1138 15.9793C46.0345 15.8278 45.9264 15.7088 45.7893 15.6223C45.6522 15.5358 45.4937 15.4744 45.3134 15.4384C45.1403 15.4024 44.9491 15.3843 44.7401 15.3843C44.603 15.3843 44.4661 15.3987 44.329 15.4276C44.1919 15.4563 44.0659 15.507 43.9504 15.579C43.8423 15.6512 43.7522 15.7413 43.68 15.8495C43.6078 15.9576 43.5718 16.0945 43.5718 16.2605C43.5718 16.4119 43.6007 16.5345 43.6584 16.6283C43.716 16.7221 43.8279 16.8086 43.9937 16.8879C44.1668 16.9672 44.4012 17.0466 44.6968 17.1259C44.9997 17.2051 45.3926 17.3062 45.8758 17.4287C46.02 17.4576 46.2184 17.5117 46.4708 17.591C46.7304 17.6632 46.9864 17.7821 47.2388 17.9479C47.4911 18.1137 47.7074 18.3374 47.8878 18.6186C48.0752 18.8926 48.169 19.246 48.169 19.6786C48.169 20.0321 48.1006 20.3601 47.9635 20.663C47.8264 20.9659 47.6209 21.229 47.3469 21.4526C47.0801 21.669 46.7447 21.8385 46.341 21.961C45.9443 22.0835 45.4829 22.1449 44.9564 22.1449C44.531 22.1449 44.1162 22.0908 43.7125 21.9826C43.3158 21.8817 42.9625 21.7195 42.6524 21.4959C42.3495 21.2723 42.108 20.9875 41.9277 20.6414C41.7473 20.2952 41.6608 19.8842 41.6681 19.4082H43.3122ZM49.1796 14.2486H50.8778V17.2124H54.0039V14.2486H55.7021V21.9718H54.0039V18.6402H50.8778V21.9718H49.1796V14.2486ZM59.1441 18.9864H61.1452L60.1717 16.1523H60.1501L59.1441 18.9864ZM59.3064 14.2486H61.0479L63.936 21.9718H62.1728L61.5887 20.2519H58.7006L58.0949 21.9718H56.3858L59.3064 14.2486ZM69.7509 16.8446C69.7243 16.6561 69.658 16.4755 69.5562 16.3146C69.456 16.1496 69.3279 16.0032 69.1776 15.8819C69.023 15.7576 68.8471 15.6623 68.6584 15.6007C68.4685 15.5281 68.2668 15.4915 68.0635 15.4925C67.6812 15.4925 67.3567 15.5682 67.09 15.7197C66.8271 15.8603 66.6039 16.0649 66.441 16.3146C66.275 16.5597 66.1525 16.8411 66.0732 17.1583C66.0004 17.4813 65.9641 17.8115 65.965 18.1426C65.965 18.4672 66.001 18.7844 66.0732 19.0945C66.1525 19.3974 66.275 19.6714 66.441 19.9166C66.6068 20.1619 66.8231 20.3601 67.09 20.5115C67.3567 20.6557 67.6812 20.7279 68.0635 20.7279C68.5827 20.7279 68.9865 20.5692 69.275 20.2519C69.5706 19.9347 69.7509 19.5164 69.8157 18.9972H71.46C71.4167 19.4804 71.3049 19.9166 71.1247 20.306C70.9443 20.6954 70.7064 21.0272 70.4108 21.3012C70.115 21.5752 69.7689 21.7844 69.3723 21.9286C68.9757 22.0727 68.5394 22.1449 68.0635 22.1449C67.4721 22.1449 66.9385 22.044 66.4626 21.842C65.9938 21.633 65.5972 21.348 65.2727 20.9875C64.9482 20.627 64.6994 20.2051 64.5264 19.7219C64.3533 19.2316 64.2668 18.7051 64.2668 18.1426C64.2668 17.5658 64.3533 17.0321 64.5264 16.5417C64.6994 16.0442 64.9482 15.6115 65.2727 15.2437C65.5972 14.8759 65.9938 14.5874 66.4626 14.3784C66.9385 14.1693 67.4721 14.0647 68.0635 14.0647C68.4889 14.0647 68.8891 14.126 69.264 14.2486C69.6463 14.3711 69.9852 14.5514 70.281 14.7894C70.5838 15.0201 70.8326 15.3086 71.0273 15.6548C71.222 16.0009 71.3446 16.3976 71.3951 16.8446H69.7509ZM72.6196 14.2486H74.3179V17.4504L77.3358 14.2486H79.4559L76.438 17.2989L79.7479 21.9718H77.617L75.2914 18.4996L74.3179 19.4839V21.9718H72.6196V14.2486ZM42.2522 25.4035H47.5849V26.2688H43.2798V28.7243H47.2929V29.5896H43.2798V32.2614H47.6174V33.1268H42.2522V25.4035ZM49.8925 32.2614H51.6015C51.717 32.2614 51.8611 32.2541 52.0342 32.2398C52.2073 32.2181 52.3912 32.1749 52.5859 32.11C52.7889 32.0335 52.9815 31.9317 53.1592 31.8071C53.3539 31.6773 53.5269 31.5007 53.6784 31.2771C53.8298 31.0535 53.9523 30.7759 54.0461 30.4442C54.147 30.1053 54.1976 29.6978 54.1976 29.2219C54.1976 28.7603 54.1508 28.3492 54.057 27.9887C53.9704 27.621 53.8225 27.3108 53.6135 27.0585C53.4115 26.7989 53.1483 26.6042 52.8238 26.4744C52.4993 26.3373 52.0991 26.2688 51.6232 26.2688H49.8925V32.2614ZM48.8648 25.4035H51.515C52.7048 25.4035 53.6207 25.7064 54.2625 26.3121C54.9042 26.9179 55.2252 27.8408 55.2252 29.0812C55.2252 29.7303 55.153 30.3071 55.0088 30.8119C54.8647 31.3095 54.6411 31.7314 54.3382 32.0775C54.0353 32.4164 53.6495 32.676 53.1808 32.8563C52.7121 33.0367 52.1567 33.1268 51.515 33.1268H48.8648V25.4035ZM62.6468 30.336C62.6468 31.3239 62.3834 32.0667 61.8571 32.5643C61.3307 33.0546 60.5807 33.2998 59.6072 33.2998C58.6121 33.2998 57.8332 33.0654 57.2708 32.5967C56.7154 32.1208 56.4379 31.3672 56.4379 30.336V25.4035H57.4655V30.336C57.4655 31.0283 57.6494 31.5548 58.0171 31.9153C58.3849 32.2687 58.9149 32.4453 59.6072 32.4453C60.2633 32.4453 60.7609 32.2687 61.0998 31.9153C61.4461 31.5548 61.6192 31.0283 61.6192 30.336V25.4035H62.6468V30.336Z" fill="white"/>
</g>
<defs>
<clipPath id="clip0_1593_6234">
<rect width="36" height="36" fill="white"/>
</clipPath>
</defs>
</svg>
