<svg width="52" height="52" viewBox="0 0 52 52" fill="none" xmlns="http://www.w3.org/2000/svg">
<g id="Frame" clip-path="url(#clip0_1593_6223)">
<path id="Vector" d="M6.43429 6.6171V41.36L0.399902 47.3944V0.400024H51.5999V51.6H0.399902L30.0228 21.9771L16.857 45.5656H45.3828V6.6171H6.43429ZM60.3534 4.79986H62.7687V13.7534H68.1224V15.7841H60.3534V4.79986ZM69.4728 4.79986H77.6879V6.83055H71.8881V9.18431H77.211V11.0612H71.8881V13.7534H77.8109V15.7841H69.4728V4.79986ZM82.2175 11.5381H85.0635L83.679 7.50745H83.6482L82.2175 11.5381ZM82.448 4.79986H84.9251L89.0326 15.7841H86.525L85.6943 13.338H81.5868L80.7253 15.7841H78.2943L82.448 4.79986ZM92.395 9.7689H95.0411C95.5949 9.7689 96.0103 9.64583 96.2872 9.39969C96.5641 9.15354 96.7025 8.75356 96.7025 8.19973C96.7025 7.66634 96.5641 7.28174 96.2872 7.04593C96.0103 6.79978 95.5949 6.67671 95.0411 6.67671H92.395V9.7689ZM89.9797 4.79986H95.9026C96.3949 4.79986 96.8359 4.88183 97.2256 5.046C97.6256 5.19984 97.964 5.41522 98.2409 5.69213C98.5248 5.96392 98.7454 6.2948 98.8871 6.66133C99.0409 7.02021 99.1178 7.4101 99.1178 7.83051C99.1178 8.47664 98.9794 9.03552 98.7025 9.50737C98.4359 9.97923 97.9948 10.3381 97.3794 10.5843V10.615C97.6768 10.697 97.9229 10.8254 98.1179 10.9996C98.3148 11.1663 98.4769 11.3702 98.5948 11.5996C98.7178 11.8253 98.8051 12.0765 98.8563 12.3534C98.9178 12.6303 98.9589 12.9072 98.9794 13.1842C98.9897 13.3584 98.9998 13.5637 99.0101 13.7995C99.0205 14.0353 99.0359 14.2764 99.0563 14.5226C99.0856 14.7603 99.1267 14.9965 99.1794 15.2302C99.2409 15.4456 99.3282 15.6302 99.4409 15.7841H97.0256C96.8922 15.4355 96.8102 15.0199 96.7795 14.538C96.7506 14.0749 96.7044 13.613 96.641 13.1534C96.559 12.5789 96.3845 12.1585 96.1179 11.8919C95.8514 11.6251 95.4153 11.4919 94.8103 11.4919H92.395V15.7841H89.9797V4.79986ZM101.082 4.79986H103.482L108.067 12.1688H108.097V4.79986H110.359V15.7841H107.943L103.374 8.43049H103.344V15.7841H101.082V4.79986ZM61.9995 28.0028C61.9995 28.3721 62.0661 28.6848 62.1995 28.9413C62.3329 29.1977 62.5072 29.4078 62.7226 29.572C62.9483 29.7258 63.2098 29.8439 63.5072 29.9258C63.8045 29.9977 64.1122 30.0335 64.4302 30.0335C64.6456 30.0335 64.8763 30.0181 65.1225 29.9874C65.3622 29.9484 65.5952 29.8759 65.8148 29.772C66.0228 29.6751 66.2067 29.5332 66.3532 29.3566C66.4967 29.172 66.5686 28.9413 66.5686 28.6643C66.5686 28.367 66.4712 28.1259 66.2763 27.9413C66.0917 27.7567 65.8455 27.6028 65.5378 27.4798C65.2302 27.3567 64.8814 27.249 64.4917 27.1567C64.0948 27.0625 63.6998 26.9599 63.3072 26.849C62.9008 26.7476 62.5003 26.6244 62.1072 26.4798C61.7176 26.326 61.3688 26.131 61.0611 25.8952C60.7522 25.6579 60.4955 25.3594 60.3073 25.0183C60.1227 24.6595 60.0304 24.2287 60.0304 23.7261C60.0304 23.1619 60.1484 22.6749 60.3842 22.2646C60.6235 21.8516 60.9488 21.4948 61.338 21.2185C61.7276 20.9416 62.1687 20.7365 62.661 20.6031C63.1423 20.4713 63.6389 20.404 64.1379 20.4031C64.7122 20.4031 65.2609 20.4697 65.784 20.6031C66.3174 20.7262 66.789 20.9312 67.1993 21.2185C67.6077 21.5034 67.9403 21.8836 68.1685 22.3261C68.4147 22.7672 68.5377 23.3057 68.5377 23.9414H66.1994C66.1789 23.6133 66.107 23.3415 65.984 23.1261C65.8712 22.9107 65.7174 22.7415 65.5225 22.6184C65.3275 22.4953 65.102 22.4081 64.8456 22.3569C64.5994 22.3057 64.3276 22.28 64.0302 22.28C63.8353 22.28 63.6406 22.3004 63.4456 22.3415C63.2507 22.3824 63.0714 22.4545 62.9072 22.5569C62.7533 22.6595 62.6252 22.7876 62.5226 22.9415C62.4199 23.0953 62.3687 23.29 62.3687 23.5261C62.3687 23.7415 62.4098 23.9157 62.4918 24.0491C62.5738 24.1825 62.7329 24.3056 62.9687 24.4184C63.2149 24.5311 63.5483 24.6441 63.9687 24.7568C64.3994 24.8695 64.9583 25.0133 65.6455 25.1876C65.8506 25.2287 66.1328 25.3056 66.4917 25.4183C66.8609 25.521 67.225 25.6902 67.5839 25.926C67.9428 26.1618 68.2505 26.4798 68.507 26.8798C68.7735 27.2694 68.9069 27.7721 68.9069 28.3874C68.9069 28.8901 68.8096 29.3566 68.6146 29.7874C68.4197 30.2181 68.1274 30.5924 67.7378 30.9104C67.3582 31.2181 66.8813 31.4592 66.307 31.6335C65.7429 31.8077 65.0867 31.895 64.3379 31.895C63.7329 31.895 63.143 31.8181 62.5687 31.6642C62.0046 31.5207 61.5022 31.29 61.0611 30.972C60.6303 30.6539 60.2868 30.2489 60.0304 29.7566C59.7739 29.2643 59.6508 28.6797 59.6611 28.0028H61.9995ZM70.3442 20.6646H72.7594V24.8799H77.2054V20.6646H79.6207V31.6489H77.2054V26.9106H72.7594V31.6489H70.3442V20.6646ZM84.516 27.4029H87.362L85.9775 23.3722H85.9467L84.516 27.4029ZM84.7467 20.6646H87.2236L91.3311 31.6489H88.8235L87.9928 29.2028H83.8852L83.0237 31.6489H80.593L84.7467 20.6646ZM99.6012 24.3568C99.5634 24.0888 99.469 23.8318 99.3243 23.603C99.1817 23.3683 98.9995 23.1601 98.7859 22.9876C98.5659 22.8108 98.3157 22.6753 98.0474 22.5877C97.7773 22.4845 97.4904 22.4323 97.2013 22.4338C96.6576 22.4338 96.1961 22.5415 95.8168 22.7569C95.4428 22.9568 95.1254 23.2478 94.8937 23.603C94.6577 23.9515 94.4834 24.3518 94.3707 24.803C94.2672 25.2624 94.2156 25.732 94.2168 26.2029C94.2168 26.6644 94.268 27.1156 94.3707 27.5567C94.4834 27.9874 94.6577 28.3771 94.8937 28.7259C95.1295 29.0747 95.4372 29.3566 95.8168 29.572C96.1961 29.777 96.6576 29.8797 97.2013 29.8797C97.9398 29.8797 98.514 29.654 98.9243 29.2028C99.3447 28.7516 99.6012 28.1567 99.6933 27.4182H102.032C101.97 28.1055 101.811 28.7259 101.555 29.2797C101.299 29.8335 100.96 30.3054 100.54 30.695C100.119 31.0847 99.6267 31.3823 99.0628 31.5873C98.4986 31.7924 97.8782 31.895 97.2013 31.895C96.3602 31.895 95.6014 31.7515 94.9245 31.4642C94.2577 31.1669 93.6938 30.7616 93.2322 30.2489C92.7707 29.7362 92.4169 29.1362 92.1707 28.449C91.9246 27.7516 91.8015 27.0029 91.8015 26.2029C91.8015 25.3825 91.9246 24.6234 92.1707 23.9261C92.4169 23.2184 92.7707 22.603 93.2322 22.08C93.6938 21.5569 94.2577 21.1466 94.9245 20.8493C95.6014 20.5519 96.3602 20.4031 97.2013 20.4031C97.8063 20.4031 98.3756 20.4904 98.9087 20.6646C99.4524 20.8389 99.9344 21.0954 100.355 21.4338C100.786 21.762 101.14 22.1723 101.417 22.6646C101.693 23.1569 101.868 23.721 101.94 24.3568H99.6012ZM103.681 20.6646H106.096V25.2183L110.389 20.6646H113.404L109.112 25.0029L113.819 31.6489H110.789L107.481 26.7106L106.096 28.1105V31.6489H103.681V20.6646ZM60.4919 36.5294H68.0762V37.7602H61.9534V41.2523H67.6608V42.4831H61.9534V46.2829H68.1224V47.5136H60.4919V36.5294ZM71.3581 46.2829H73.7887C73.9529 46.2829 74.158 46.2726 74.4041 46.2521C74.6502 46.2214 74.9118 46.1598 75.1887 46.0675C75.4775 45.9587 75.7514 45.814 76.004 45.6368C76.2809 45.4522 76.5271 45.201 76.7425 44.883C76.9578 44.565 77.1321 44.1703 77.2655 43.6984C77.409 43.2164 77.4809 42.6369 77.4809 41.96C77.4809 41.3035 77.4143 40.7189 77.2809 40.2062C77.1578 39.6832 76.9475 39.2421 76.6502 38.8832C76.3629 38.514 75.9886 38.2371 75.5271 38.0525C75.0656 37.8575 74.4964 37.7602 73.8195 37.7602H71.3581V46.2829ZM69.8966 36.5294H73.6657C75.3579 36.5294 76.6605 36.9602 77.5732 37.8217C78.4859 38.6832 78.9424 39.9959 78.9424 41.76C78.9424 42.6831 78.8397 43.5035 78.6347 44.2215C78.4297 44.9291 78.1116 45.5291 77.6809 46.0214C77.2501 46.5033 76.7014 46.8726 76.0348 47.129C75.3682 47.3855 74.5784 47.5136 73.6657 47.5136H69.8966V36.5294ZM89.4975 43.5446C89.4975 44.9496 89.123 46.006 88.3745 46.7137C87.6257 47.411 86.5592 47.7598 85.1746 47.7598C83.7593 47.7598 82.6516 47.4264 81.8517 46.7598C81.0618 46.0829 80.6671 45.0111 80.6671 43.5446V36.5294H82.1286V43.5446C82.1286 44.5291 82.3901 45.2779 82.9132 45.7906C83.4362 46.2933 84.19 46.5444 85.1746 46.5444C86.1077 46.5444 86.8154 46.2933 87.2974 45.7906C87.7899 45.2779 88.036 44.5291 88.036 43.5446V36.5294H89.4975V43.5446Z" fill="white"/>
</g>
<defs>
<clipPath id="clip0_1593_6223">
<rect width="51.2" height="51.2" fill="white" transform="translate(0.399902 0.400024)"/>
</clipPath>
</defs>
</svg>
