<svg xmlns="http://www.w3.org/2000/svg" width="79" height="20" viewBox="0 0 79 20" fill="none">
  <g clip-path="url(#clip0_829_52633)">
    <path d="M6.06289 12.4117C5.74499 12.3011 5.57913 12.3011 5.3027 12.4808C5.34416 12.4808 5.55149 12.384 5.60677 12.4117C5.60677 12.4946 5.78646 12.4531 5.8141 12.4117C5.88321 12.4393 6.03525 12.4531 6.06289 12.4117ZM3.79613 5.66666L3.5888 5.61138C3.67173 5.69431 3.78231 5.79106 3.79613 5.90163V5.66666ZM3.10504 2.40474C2.87008 2.32181 2.71804 2.32181 2.51071 2.46003C2.53836 2.46003 2.70422 2.39092 2.7595 2.40474C2.7595 2.47385 2.89772 2.44621 2.89772 2.40474C2.96683 2.43238 3.09122 2.44621 3.11887 2.40474H3.10504ZM6.74015 16.5029C6.82308 16.572 6.91983 16.6826 6.91983 16.7793V16.4891L6.65722 16.4199L6.74015 16.5029ZM9.31099 2.41856C9.03455 2.34945 8.89634 2.34945 8.68901 2.48767C8.71666 2.48767 8.88252 2.41856 8.9378 2.43238C8.9378 2.50149 9.07602 2.47385 9.07602 2.43238C9.14513 2.46003 9.26952 2.47385 9.29717 2.43238L9.31099 2.41856Z" fill="#404040"/>
    <mask id="mask0_829_52633" style="mask-type:luminance" maskUnits="userSpaceOnUse" x="0" y="0" width="14" height="20">
      <path d="M13.6511 0.400829C13.6511 0.400829 11.1908 0 7.26543 0C3.34006 0 0.865979 0.400829 0.865979 0.400829C0.29929 2.88874 -0.00478756 15.7429 7.26543 20C14.5633 15.7153 14.2039 2.76434 13.6511 0.414651V0.400829Z" fill="white"/>
      <path d="M10.8038 10.5598L10.5964 10.4492L10.6794 10.6703L10.5135 10.5736L10.555 10.6841C10.2923 10.9468 9.10368 9.37108 7.29304 11.0573C7.11336 11.2232 7.09954 11.2785 6.87839 11.0573C5.42711 9.57841 3.74086 10.7809 3.74086 10.7809L3.64411 10.7118L3.6994 10.5736L3.56118 10.6703L3.65793 10.4077L3.42296 10.5321L3.50589 10.3386L3.36768 10.3939L4.33519 7.98891C5.64826 6.82789 7.16864 7.93363 7.16864 7.93363C7.16864 7.93363 8.7996 6.7726 9.93298 7.97509L10.859 10.3939L10.7208 10.3386L10.8176 10.5598H10.8038Z" fill="black"/>
      <path d="M3.22944 5.47289C1.2944 4.49155 4.12785 2.50123 2.40014 2.79148C2.38631 2.7362 2.42778 2.54269 2.31721 2.58416C2.38631 2.72237 2.31721 2.95734 2.26192 3.10938C2.42778 3.19231 2.27574 3.38582 2.23428 3.49639C2.23428 3.49639 2.19281 3.41346 2.16517 3.41346C2.09606 3.55168 1.99931 3.49639 1.88873 3.55168C1.90255 3.46875 1.8058 3.41346 1.90255 3.27524C1.84727 3.27524 1.8058 3.23378 1.79198 3.21995C1.97166 3.06792 1.90255 2.94352 2.17899 3.06792L2.2481 2.76384C2.19281 2.75002 2.16517 2.70855 2.15135 2.62562C2.15135 2.62562 1.79198 2.52887 1.66759 2.7362C1.66759 2.7362 1.34969 2.21097 2.57982 2.32154C2.8839 2.03129 3.83759 2.4183 4.00345 2.07275C4.00345 2.07275 3.72702 2.58416 3.49205 2.76384C3.25708 2.94352 2.71803 3.85575 3.36765 3.92486C2.89772 2.77766 3.94817 4.45009 4.40428 3.19231C4.32135 2.7362 6.11817 3.08174 6.82308 2.44594C6.82308 2.44594 6.75397 2.90206 6.54665 3.42728L6.07671 3.35817L6.50518 3.55168C6.40549 3.79727 6.27548 4.02943 6.11817 4.24276L5.70352 4.02161L6.02142 4.33951C5.82792 4.57448 5.57913 4.75416 5.26123 4.85092L4.95715 4.2704L5.10919 4.87856C4.94897 4.90438 4.78565 4.90438 4.62543 4.87856C4.95715 5.25174 5.24741 5.69404 5.27505 6.12251C5.27505 6.12251 5.0539 5.61111 4.61161 5.542L4.69454 5.79079C4.69454 5.79079 4.25224 5.542 4.01727 5.61111C3.82377 6.02576 3.96199 6.55098 3.96199 6.55098C4.27989 6.62009 4.57014 6.78595 4.57014 6.78595C3.94817 6.73067 3.42294 6.63391 3.02211 6.92417C3.04976 6.59245 3.76848 6.44041 3.76848 6.44041C3.82377 5.97047 3.42294 5.61111 3.22944 5.47289Z" fill="black"/>
      <path d="M9.44926 5.47289C7.51422 4.49155 10.3477 2.50123 8.61995 2.79148C8.60613 2.7362 8.6476 2.54269 8.53702 2.58416C8.60613 2.72237 8.53702 2.95734 8.48174 3.10938C8.6476 3.19231 8.49556 3.38582 8.45409 3.49639C8.45409 3.49639 8.41263 3.41346 8.38499 3.41346C8.31588 3.55168 8.21912 3.49639 8.10855 3.55168C8.12237 3.46875 8.02562 3.41346 8.12237 3.27524C8.06709 3.27524 8.02562 3.23378 8.0118 3.21995C8.19148 3.06792 8.12237 2.94352 8.39881 3.06792L8.46792 2.76384C8.41263 2.75002 8.38498 2.70855 8.37116 2.62562C8.37116 2.62562 8.0118 2.52887 7.8874 2.7362C7.8874 2.7362 7.5695 2.21097 8.79964 2.32154C9.10371 2.03129 10.0574 2.4183 10.2233 2.07275C10.2233 2.07275 9.94684 2.58416 9.71187 2.76384C9.4769 2.94352 8.93785 3.85575 9.58747 3.92486C9.11754 2.77766 10.168 4.45009 10.6241 3.19231C10.5412 2.7362 12.338 3.08174 13.0429 2.44594C13.0429 2.44594 12.9738 2.90206 12.7665 3.42728L12.2965 3.35817L12.725 3.55168C12.6253 3.79727 12.4953 4.02943 12.338 4.24276L11.9233 4.02161L12.2412 4.33951C12.0477 4.57448 11.7989 4.75416 11.481 4.85092L11.177 4.2704L11.329 4.87856C11.1688 4.90438 11.0055 4.90438 10.8452 4.87856C11.177 5.25174 11.4672 5.69404 11.4949 6.12251C11.4949 6.12251 11.2737 5.61111 10.8314 5.542L10.9144 5.79079C10.9144 5.79079 10.4721 5.542 10.2371 5.61111C10.0436 6.02576 10.1818 6.55098 10.1818 6.55098C10.4997 6.62009 10.79 6.78595 10.79 6.78595C10.168 6.73067 9.64276 6.63391 9.24193 6.92417C9.26957 6.59245 9.9883 6.44041 9.9883 6.44041C10.0436 5.97047 9.64276 5.61111 9.44926 5.47289Z" fill="black"/>
      <path d="M6.25538 16.2122C3.82207 14.9782 7.38513 12.4753 5.21253 12.8403C5.19515 12.7708 5.24729 12.5275 5.10824 12.5796C5.19515 12.7534 5.10824 13.0489 5.03872 13.2401C5.24729 13.3444 5.0561 13.5877 5.00396 13.7267C5.00396 13.7267 4.95182 13.6225 4.91706 13.6225C4.83015 13.7963 4.70849 13.7267 4.56944 13.7963C4.58682 13.692 4.46516 13.6225 4.58682 13.4487C4.5173 13.4487 4.46516 13.3965 4.44777 13.3791C4.67373 13.1879 4.58682 13.0315 4.93444 13.1879L5.02134 12.8056C4.95182 12.7882 4.91706 12.736 4.89968 12.6318C4.89968 12.6318 4.44777 12.5101 4.29135 12.7708C4.29135 12.7708 3.89159 12.1103 5.43848 12.2494C5.82086 11.8844 7.02013 12.371 7.2287 11.9365C7.2287 11.9365 6.88108 12.5796 6.58561 12.8056C6.29014 13.0315 5.61229 14.1786 6.42918 14.2655C5.83824 12.8229 7.15918 14.926 7.73274 13.3444C7.62846 12.7708 9.88796 13.2053 10.7744 12.4058C10.7744 12.4058 10.6875 12.9794 10.4268 13.6398L9.83582 13.5529L10.3746 13.7963C10.2493 14.1051 10.0858 14.397 9.88796 14.6653L9.36654 14.3872L9.7663 14.787C9.52296 15.0824 9.21011 15.3084 8.81035 15.4301L8.42798 14.7001L8.61916 15.4648C8.41769 15.4973 8.21231 15.4973 8.01084 15.4648C8.42798 15.9341 8.79297 16.4903 8.82773 17.0291C8.82773 17.0291 8.54964 16.386 7.99346 16.2991L8.09774 16.612C8.09774 16.612 7.54155 16.2991 7.24608 16.386C7.00275 16.9074 7.17656 17.5679 7.17656 17.5679C7.57632 17.6548 7.94131 17.8634 7.94131 17.8634C7.15918 17.7938 6.49871 17.6722 5.99466 18.0372C6.02943 17.62 6.93323 17.4289 6.93323 17.4289C7.00275 16.8379 6.49871 16.386 6.25538 16.2122Z" fill="black"/>
    </mask>
    <g mask="url(#mask0_829_52633)">
      <path d="M13.6511 0.400829C13.6511 0.400829 11.1908 0 7.26543 0C3.34006 0 0.865979 0.400829 0.865979 0.400829C0.29929 2.88874 -0.00478756 15.7429 7.26543 20C14.5633 15.7153 14.2039 2.76434 13.6511 0.414651V0.400829Z" fill="#404040"/>
    </g>
    <path d="M9.83623 5.68077C9.89152 5.74988 9.97445 5.83281 9.97445 5.91574V5.68077L9.76712 5.62549L9.83623 5.68077ZM4.70838 8.65244H4.76366C4.80513 8.65244 4.84659 8.59715 4.87424 8.51422H4.9157L4.87424 8.65244L4.86042 8.8183H4.81895C4.81895 8.74919 4.81895 8.69391 4.74984 8.70773H4.70838L4.63927 8.92887C4.61163 9.0118 4.63927 9.0118 4.73602 8.99798V9.03945L4.50105 9.08091L4.26608 9.1362L4.29373 9.09474C4.4043 9.06709 4.41812 9.02563 4.44576 8.9427L4.57016 8.56951C4.5978 8.45894 4.5978 8.41747 4.50105 8.43129L4.51487 8.38983C4.7231 8.37272 4.92786 8.32618 5.12303 8.25161L5.10921 8.45894H5.05392C5.05392 8.33454 5.01245 8.36219 4.87424 8.38983C4.79131 8.40365 4.77749 8.40365 4.74984 8.5004L4.70838 8.66626V8.65244ZM5.30271 8.44511C5.31653 8.34836 5.33035 8.3069 5.2336 8.32072L5.24742 8.27925L5.41328 8.26543L5.59297 8.23779V8.27925C5.49621 8.29308 5.46857 8.33454 5.45475 8.41747L5.37182 8.79066C5.34418 8.91505 5.34418 8.9427 5.44093 8.9427V8.98416H5.24742L5.0401 9.0118L5.05392 8.95652C5.15067 8.95652 5.17832 8.91505 5.19214 8.80448L5.30271 8.43129V8.44511ZM5.745 8.80448L5.70354 8.88741C5.6759 8.95652 5.745 8.95652 5.77265 8.97034V9.0118H5.63443L5.53768 8.99798V8.9427C5.62061 8.9427 5.6759 8.84594 5.70354 8.76301C5.78714 8.58364 5.87007 8.40396 5.95233 8.22397L6.03526 8.23779L6.14583 8.84594L6.17348 8.98416C6.17348 9.02563 6.22876 9.05327 6.24259 9.06709V9.10856C6.13423 9.07593 6.02324 9.05281 5.91087 9.03945V8.98416C5.95233 8.98416 6.00762 8.98416 6.00762 8.9427V8.83212L5.9938 8.79066L5.8694 8.77684L5.77265 8.76301L5.745 8.80448ZM5.88322 8.70773H5.97997L5.92469 8.43129L5.78647 8.70773H5.8694H5.88322ZM6.79545 8.76301L6.75399 8.74919C6.75399 8.63862 6.75399 8.54187 6.6987 8.51422C6.62959 8.48658 6.61577 8.51422 6.61577 8.61098L6.57431 9.02563C6.56049 9.1362 6.57431 9.17767 6.64342 9.23295V9.27442L6.47755 9.19149L6.29787 9.1362V9.08091C6.40845 9.10856 6.40845 9.08091 6.42227 8.97034L6.46373 8.55569C6.47756 8.47276 6.49138 8.43129 6.42227 8.41747C6.33934 8.37601 6.33934 8.45894 6.31169 8.55569H6.27023L6.29787 8.3069C6.29787 8.3069 6.44991 8.33454 6.57431 8.38983C6.71252 8.44512 6.80928 8.52805 6.80928 8.52805L6.79545 8.76301ZM7.74915 9.27442C7.83208 9.21913 7.83208 9.17766 7.83208 9.08091L7.80444 8.66626C7.80444 8.55569 7.80444 8.5004 7.70769 8.52805V8.48658C7.81596 8.42483 7.93224 8.37832 8.05323 8.34836V8.40365C7.95648 8.43129 7.9703 8.48658 7.9703 8.59715L7.99794 8.92887C7.99794 9.06709 8.01176 9.1362 8.13616 9.09474C8.27438 9.05327 8.32966 8.98416 8.34348 8.83212H8.38495V9.08091C8.19145 9.12238 7.98412 9.21913 7.92883 9.21913L7.74915 9.31588V9.27442ZM8.31584 8.33454H8.70285V8.36218C8.61992 8.36218 8.61992 8.43129 8.61992 8.54187L8.64756 8.73537C8.66138 8.90123 8.71667 8.98416 8.85489 8.98416C9.02075 8.98416 9.00693 8.90123 8.9931 8.74919L8.96546 8.56951C8.96546 8.52805 8.96546 8.47276 8.93782 8.43129C8.93031 8.41542 8.91863 8.40189 8.90402 8.39215C8.88941 8.38241 8.87243 8.37683 8.85489 8.37601V8.33454H8.97928L9.08986 8.36218V8.40365C9.06221 8.40365 9.03457 8.41747 9.02075 8.45894V8.59715L9.03457 8.72155C9.06221 8.9427 9.08986 9.05327 8.82724 9.06709C8.64756 9.06709 8.4817 9.0118 8.45406 8.74919L8.44024 8.54187C8.42641 8.43129 8.42641 8.37601 8.32966 8.37601V8.33454H8.31584ZM9.79476 9.08091C9.83623 9.1362 9.86387 9.17767 9.91916 9.17767V9.21913L9.73948 9.19149C9.69801 9.19149 9.6289 9.19149 9.57362 9.16384V9.12238H9.6289V9.09474L9.58744 8.98416L9.49069 8.83212L9.4354 8.91505C9.42158 8.9427 9.38011 8.98416 9.39393 9.02563C9.39393 9.06709 9.4354 9.08091 9.46304 9.09474V9.1362L9.32482 9.10856L9.21425 9.09474V9.03945C9.26954 9.03945 9.311 8.99798 9.33865 8.95652L9.44922 8.77684L9.311 8.56951C9.311 8.52805 9.28336 8.51422 9.25572 8.48658C9.24189 8.44512 9.21425 8.44512 9.18661 8.43129V8.38983L9.35247 8.41747L9.49069 8.44511L9.50451 8.5004C9.47686 8.5004 9.4354 8.48658 9.44922 8.52805L9.47686 8.58333L9.53215 8.68008L9.57362 8.6248L9.61508 8.55569C9.64272 8.52805 9.58744 8.5004 9.54597 8.5004V8.44511L9.65655 8.45894H9.7533V8.51422C9.71183 8.51422 9.68419 8.54187 9.65655 8.59715L9.55979 8.73537L9.79476 9.06709V9.08091Z" fill="#404040"/>
    <path d="M23.2571 15.7706C23.1189 15.7706 22.7319 16.904 20.2163 16.904C19.2903 16.904 19.387 16.6275 19.387 15.9917V10.6842C19.387 9.71668 20.1749 9.99311 20.1749 9.74432C20.1749 9.61993 20.1196 9.60611 19.9675 9.60611C19.8017 9.60611 19.5529 9.64757 18.9171 9.64757C18.3919 9.64757 18.0463 9.59229 17.8114 9.59229C17.6731 9.59229 17.604 9.61993 17.604 9.7305C17.604 9.95165 18.5163 9.88254 18.5163 10.4492V15.9917C18.5163 16.5031 18.5024 16.821 18.2122 16.9454C17.8666 17.1251 17.7561 17.0975 17.7284 17.2219C17.7284 17.3186 17.7975 17.3324 17.8943 17.3324L19.235 17.291C20.0643 17.2772 20.8936 17.3324 21.7229 17.3324C22.2067 17.3324 22.4416 17.3601 22.7872 16.9731C23.0636 16.6828 23.34 16.2958 23.34 15.9088C23.34 15.8812 23.34 15.7706 23.2571 15.7706Z" fill="#404040"/>
    <path d="M25.4548 16.4064V10.5322C25.4548 9.71668 26.2288 9.97929 26.2288 9.70286C26.2288 9.61993 26.2011 9.59229 26.0214 9.59229C25.6897 9.59229 25.3442 9.64757 25.0125 9.64757C24.5978 9.64757 24.2108 9.59229 23.81 9.59229C23.727 9.59229 23.6994 9.61993 23.6994 9.7305C23.6994 9.96547 24.5702 9.7305 24.584 10.5322V16.1299C24.584 17.2219 23.727 16.8625 23.727 17.1804C23.727 17.2772 23.7685 17.3324 23.962 17.3324C24.1141 17.3324 24.349 17.291 25.0125 17.291C25.4824 17.291 25.9523 17.3324 26.2011 17.3324C26.3946 17.3324 26.4223 17.3048 26.4223 17.2357C26.4223 16.904 25.4548 17.1528 25.4548 16.4064ZM34.1901 9.59229C34.0519 9.59229 33.8722 9.64757 33.3608 9.64757C33.112 9.64757 32.877 9.59229 32.6282 9.59229C32.5176 9.59229 32.4624 9.63375 32.4624 9.7305C32.4624 9.99311 33.1534 9.78579 33.1534 10.2834C33.2087 10.5183 33.0843 10.8639 33.0152 11.0297L31.1078 15.7291C31.0525 15.8535 31.0249 16.0332 30.9143 16.0332C30.7899 16.0332 30.7208 15.7706 30.472 15.2039L28.5646 10.698C28.5232 10.5874 28.4679 10.4216 28.4679 10.2695C28.4679 9.86872 28.924 9.8549 28.9102 9.71668C28.9102 9.64757 28.8273 9.60611 28.772 9.60611L27.9012 9.64757L26.8922 9.60611C26.7955 9.60611 26.7402 9.66139 26.7402 9.74432C26.7402 9.99311 27.293 9.78579 27.5695 10.4354L30.2785 16.821C30.3753 17.056 30.5135 17.5121 30.6932 17.5121C30.8452 17.5121 30.9281 17.1528 31.0387 16.8763L33.7754 10.4492C34.0795 9.71668 34.3974 9.97929 34.3974 9.74432C34.3974 9.64757 34.3283 9.60611 34.2039 9.60611L34.1901 9.59229ZM40.5204 15.7706C40.3822 15.7706 40.009 16.904 37.4796 16.904C36.5674 16.904 36.6503 16.6275 36.6503 15.9917V13.9876C36.6503 13.8217 36.6227 13.6282 36.8577 13.6282H38.4748C39.387 13.6282 39.0277 14.5957 39.3594 14.5957C39.4285 14.5957 39.4838 14.5543 39.4838 14.4575L39.4561 13.5868L39.47 12.481C39.47 12.3981 39.4423 12.2737 39.3594 12.2737C39.083 12.2737 39.387 13.1583 38.2537 13.1583H37.0788C36.6365 13.1583 36.6642 13.1583 36.6642 12.7851V10.7533C36.6642 10.0208 36.6365 10.0622 37.687 10.0622C38.1154 10.0622 39.2626 9.99311 39.5391 10.3663C39.7188 10.6151 39.5391 11.1403 39.8155 11.1403C39.8708 11.1403 40.0228 11.0574 40.0228 9.84108C40.0228 9.70286 39.9952 9.60611 39.9123 9.60611L38.3504 9.64757C37.8943 9.64757 37.3276 9.60611 35.2543 9.60611C34.9364 9.60611 34.8673 9.64757 34.8673 9.74432C34.8673 9.86872 35.1161 9.88254 35.1991 9.91018C35.7934 9.99311 35.7934 10.5183 35.7934 11.0159V15.9917C35.7934 16.5031 35.7657 16.821 35.4893 16.9593C35.1299 17.1251 35.0194 17.0975 35.0056 17.2357C35.0056 17.3186 35.0747 17.3463 35.1714 17.3463C35.5999 17.3463 36.056 17.3048 36.4983 17.291C37.3276 17.2772 38.1569 17.3463 38.9862 17.3463C39.47 17.3463 39.7188 17.3601 40.0643 16.9731C40.3269 16.6966 40.6172 16.2958 40.6172 15.9088C40.6172 15.8812 40.6033 15.7706 40.5204 15.7706Z" fill="#404040"/>
    <path d="M58.7236 9.49512C56.4845 9.49512 54.7153 11.1537 54.7153 13.4205C54.7153 15.6872 56.1666 17.415 58.5163 17.415C60.866 17.415 62.6628 15.8255 62.6628 13.3652C62.6628 11.1123 60.9351 9.49512 58.7098 9.49512H58.7236ZM59 17.0971C56.83 17.0971 55.5031 15.1344 55.5031 13.1026C55.5031 11.3749 56.5536 9.85448 58.3919 9.85448C60.5204 9.85448 61.8611 11.7895 61.8611 13.7798C61.8611 15.7702 60.5895 17.0971 59 17.0971Z" fill="#404040"/>
    <path d="M67.5004 9.49512C65.2612 9.49512 63.4921 11.1537 63.4921 13.4205C63.4921 15.6872 64.9433 17.415 67.293 17.415C69.6427 17.415 71.4395 15.8255 71.4395 13.3652C71.4395 11.1123 69.7118 9.49512 67.4865 9.49512H67.5004ZM67.7768 17.0971C65.6068 17.0971 64.2799 15.1344 64.2799 13.1026C64.2799 11.3749 65.3304 9.85448 67.1686 9.85448C69.2972 9.85448 70.6379 11.7895 70.6379 13.7798C70.6379 15.7702 69.3663 17.0971 67.7768 17.0971Z" fill="#404040"/>
    <path d="M77.5073 15.7706C77.369 15.7706 76.982 16.904 74.4665 16.904C73.5404 16.904 73.6372 16.6275 73.6372 15.9917V10.6842C73.6372 9.71668 74.425 9.99311 74.425 9.74432C74.425 9.61993 74.3697 9.60611 74.2177 9.60611C74.0518 9.60611 73.803 9.64757 73.1672 9.64757C72.642 9.64757 72.2965 9.59229 72.0615 9.59229C71.9233 9.59229 71.8542 9.61993 71.8542 9.7305C71.8542 9.95165 72.7664 9.88254 72.7664 10.4492V15.9917C72.7664 16.5031 72.7526 16.821 72.4623 16.9454C72.1168 17.1251 72.0062 17.0975 71.9786 17.2219C71.9786 17.3186 72.0477 17.3324 72.1444 17.3324L73.4851 17.291C74.3145 17.2772 75.1438 17.3324 75.9731 17.3324C76.4568 17.3324 76.6918 17.3601 77.0373 16.9731C77.3138 16.6828 77.5902 16.2958 77.5902 15.9088C77.5902 15.8812 77.5902 15.7706 77.5073 15.7706Z" fill="#404040"/>
    <path d="M15.1438 7.83724H79.0138V8.0031H15.1438V7.83724ZM28.7996 2.41914H29.2834V6.24775H28.7996V2.41914ZM39.4285 5.8331H37.3967V4.50621H39.387V4.09156H37.3967V2.84761H39.4285V2.41914H36.9268V6.26157H39.4285V5.8331ZM33.4022 6.26157L34.9364 2.41914H34.3836L33.0982 5.73634L31.7989 2.41914H31.2599L32.8079 6.26157H33.4022ZM23.7132 3.19315L25.9523 6.26157H26.4085V2.41914H25.9385V5.41845L23.727 2.41914H23.2433V6.26157H23.7132V3.19315ZM19.2903 6.33068C20.3269 6.33068 20.8521 5.72252 20.8521 4.76883V2.41914H20.3822V4.76883C20.3822 5.45991 19.9952 5.9022 19.2903 5.9022C18.5854 5.9022 18.2122 5.45991 18.2122 4.755V2.41914H17.7284V4.76883C17.7284 5.7087 18.2537 6.33068 19.2903 6.33068ZM73.6234 4.50621H75.6137V4.09156H73.6234V2.84761H75.6552V2.41914H73.1534V6.26157H73.6234V4.50621ZM60.7139 6.26157H61.1977V4.63061L62.7042 2.41914H62.1514L60.9489 4.20214L59.774 2.41914H59.2073L60.7139 4.63061V6.26157ZM55.5308 6.26157H56.0007V2.84761H57.217V2.41914H54.3145V2.84761H55.5308V6.26157ZM42.2896 4.72736H43.0636L44.0311 6.24775H44.584L43.575 4.69972C44.1002 4.65825 44.5702 4.28507 44.5702 3.59398C44.5702 2.9029 44.0726 2.43296 43.3677 2.43296H41.792V6.27539H42.2758V4.755L42.2896 4.72736ZM42.2896 2.84761H43.2986C43.7547 2.84761 44.0726 3.13786 44.0726 3.58016C44.0726 4.02245 43.7547 4.31271 43.2986 4.31271H42.2896V2.84761ZM69.0208 6.31686C70.1541 6.31686 70.9281 5.47373 70.9281 4.34035C70.9281 3.20697 70.1541 2.36385 69.0208 2.36385C67.8874 2.36385 67.1134 3.20697 67.1134 4.34035C67.1134 5.47373 67.8874 6.33068 69.0208 6.33068V6.31686ZM69.0208 2.7785C69.8777 2.7785 70.4306 3.44194 70.4306 4.34035C70.4306 5.23876 69.8777 5.9022 69.0208 5.9022C68.1638 5.9022 67.6109 5.22494 67.6109 4.34035C67.6109 3.45576 68.1638 2.7785 69.0208 2.7785ZM51.6054 2.41914H52.0892V6.24775H51.6054V2.41914ZM48.0532 5.9022C47.5004 5.9022 47.0857 5.62577 46.8507 5.34934L46.5743 5.7087C46.8784 6.06806 47.376 6.31686 48.0394 6.31686C49.0622 6.31686 49.4492 5.75017 49.4492 5.21112C49.4492 3.77366 47.1825 4.25742 47.1825 3.40048C47.1825 3.04111 47.5142 2.79232 47.9703 2.79232C48.385 2.79232 48.7858 2.93054 49.076 3.24844L49.3525 2.9029C49.1781 2.72089 48.9674 2.57761 48.734 2.48236C48.5007 2.38711 48.2499 2.34202 47.9979 2.35003C47.2516 2.35003 46.6849 2.79232 46.6849 3.42812C46.6849 4.79647 48.9516 4.25742 48.9516 5.22494C48.9516 5.52902 48.7305 5.9022 48.0532 5.9022ZM50.3062 10.3113C50.3062 9.97961 50.555 9.97961 50.9005 9.97961C52.1583 9.97961 53.1811 10.6707 53.1811 11.9976C53.1811 12.9927 52.5176 13.518 51.3981 13.518C51.0111 13.518 50.7761 13.4627 50.707 13.4627C50.6379 13.4627 50.5826 13.4765 50.5826 13.5594C50.5826 13.7529 51.2184 13.8082 51.329 13.8082C53.651 13.8082 53.9827 12.1496 53.9827 11.7073C53.9827 10.0764 52.4485 9.5926 51.0525 9.5926C50.5273 9.5926 50.3615 9.64789 49.8086 9.64789C49.1728 9.64789 48.7858 9.5926 48.7029 9.5926C48.6061 9.5926 48.5646 9.67553 48.5646 9.75846C48.5646 10.1593 49.4492 9.48202 49.4492 10.7951V16.0473C49.4492 17.2498 48.5923 16.9043 48.5923 17.2084C48.5923 17.3051 48.7029 17.3466 48.772 17.3466C49.0899 17.3466 49.4492 17.2913 49.9606 17.2913C50.6103 17.2913 50.7761 17.3328 51.1493 17.3328C51.4257 17.3328 51.4534 17.2775 51.4534 17.1945C51.4534 16.8352 50.32 17.4019 50.32 15.8262V10.2975L50.3062 10.3113ZM45.0539 13.3797C45.8279 13.0757 46.4361 12.3431 46.4361 11.4862C46.4361 9.38527 44.0311 9.60642 43.8514 9.60642C43.2847 9.60642 42.6628 9.64789 42.027 9.64789C41.4741 9.64789 41.5294 9.5926 41.3359 9.5926C41.1977 9.5926 41.1147 9.66171 41.1147 9.73082C41.1147 10.104 42.0408 9.64789 42.0408 10.6983V16.2685C42.0408 17.0978 41.253 16.9457 41.253 17.2222C41.253 17.2775 41.2944 17.3328 41.3635 17.3328L42.6075 17.2913C43.5197 17.2913 43.7685 17.3328 43.8514 17.3328C43.9482 17.3328 44.0449 17.3604 44.0449 17.2498C44.0449 16.8766 42.9116 17.2222 42.9116 16.2823V13.9603C42.9116 13.8497 42.8425 13.6562 43.188 13.6562C44.432 13.6562 44.2523 13.6147 44.6531 14.2367L45.8694 16.1441C46.2841 16.7661 46.6987 17.3189 47.5004 17.3189C47.5971 17.3189 48.2191 17.3189 48.2191 17.1807C48.2191 16.9319 47.6662 17.3328 46.8922 16.1303L45.0678 13.3659L45.0539 13.3797ZM42.9254 10.3666C42.9254 9.93814 43.1604 9.95196 43.5474 9.95196C44.6255 9.95196 45.6344 10.4081 45.6344 11.7488C45.6344 13.0895 44.584 13.2968 44.114 13.2968C43.6026 13.2968 42.9254 13.3521 42.9254 13.1448V10.3666Z" fill="#404040"/>
  </g>
  <defs>
    <clipPath id="clip0_829_52633">
      <rect width="78.3967" height="20" fill="white" transform="translate(0.603333)"/>
    </clipPath>
  </defs>
</svg>