<svg xmlns="http://www.w3.org/2000/svg" width="100" height="100" fill="none"><path fill="#062F6B" d="M35.874 54.28c0-.308-.015-.89-.092-1.044-.03-.061-.123-.092-.245-.107l-.123-.016c-.03-.03-.016-.107.015-.122.184.015.384.015.568.015.214 0 .352 0 .521-.015.046.03.03.092.015.122l-.122.016c-.123.015-.215.061-.246.123-.076.168-.076.736-.076 1.027v.568c0 .429-.077.89-.353 1.196-.215.23-.583.368-.951.368-.353 0-.69-.061-.936-.276-.26-.215-.383-.583-.383-1.181v-1.181c0-.522-.015-.614-.307-.629l-.123-.015c-.03-.016-.015-.108.016-.123.245.015.414.015.613.015.2 0 .368 0 .614-.015.03.015.046.107.015.123l-.122.015c-.292.03-.307.108-.307.629v1.089c0 .813.245 1.334 1.012 1.334.72 0 .997-.567.997-1.334zM42.423 55.475c0 .154 0 .752.015.875-.015.03-.046.061-.092.061-.06-.092-.199-.26-.644-.752l-1.165-1.319c-.138-.153-.476-.567-.583-.674h-.016c-.015.06-.03.168-.03.322v1.089c0 .23 0 .89.092 1.043.03.06.123.092.26.092l.154.015c.03.046.03.092-.015.123-.23-.016-.4-.016-.583-.016-.215 0-.353 0-.522.016-.03-.031-.046-.092-.015-.123l.138-.015c.123-.016.2-.046.215-.108.076-.184.061-.797.061-1.027v-1.442c0-.138 0-.245-.107-.368-.077-.077-.184-.108-.307-.123l-.077-.015c-.03-.03-.03-.108.016-.123.214.015.475.015.567.015.077 0 .169 0 .23-.015.108.26.69.92.86 1.104l.49.553c.353.383.598.659.828.904h.015c.016-.03.016-.107.016-.214v-1.074c0-.23 0-.89-.108-1.043-.03-.046-.107-.077-.306-.107l-.092-.016c-.031-.03-.031-.107.015-.122.23.015.399.015.598.015.215 0 .353 0 .522-.015.046.03.046.092.015.122l-.077.016c-.153.03-.26.061-.276.107-.092.184-.077.798-.077 1.028v1.211zM46.15 53.773c0-.537-.015-.614-.307-.644l-.122-.016c-.031-.015-.016-.107.015-.122.245.015.414.015.629.015.2 0 .368 0 .613-.015.03.015.046.107.016.122l-.123.016c-.291.03-.307.107-.307.644v1.78c0 .536.016.597.307.628l.123.015c.03.016.015.108-.016.123-.245-.015-.414-.015-.613-.015-.215 0-.384 0-.63.015-.03-.015-.045-.092-.014-.123l.122-.015c.292-.03.307-.107.307-.629zM50.215 53.543c-.108-.276-.184-.384-.4-.414l-.091-.016c-.03-.03-.03-.107.015-.122.154.015.307.015.522.015.214 0 .398 0 .613-.015.03.015.046.092.015.122l-.076.016c-.184.03-.23.061-.23.092.015.046.092.322.245.705.23.583.46 1.15.706 1.733.153-.337.368-.843.475-1.12.138-.337.383-.904.46-1.119.046-.107.046-.153.046-.2 0-.03-.046-.076-.23-.091l-.092-.016c-.03-.03-.03-.107.015-.122.139.015.338.015.522.015.169 0 .322 0 .49-.015.031.015.031.107.016.122l-.153.016a.35.35 0 0 0-.261.169c-.138.23-.338.644-.568 1.15l-.276.613c-.199.46-.43 1.043-.521 1.304-.015.015-.03.015-.046.015-.03 0-.046 0-.077-.015a5 5 0 0 0-.23-.66zM56.242 53.773c0-.522-.015-.598-.307-.63l-.076-.014c-.031-.016-.016-.108.015-.123.215.015.383.015.583.015h.935c.322 0 .614 0 .675-.015.031.092.062.445.077.675-.015.03-.107.046-.123.015-.076-.23-.122-.414-.383-.475-.107-.031-.26-.031-.491-.031h-.368c-.153 0-.153.015-.153.2v.996c0 .138.015.138.168.138h.292c.214 0 .368-.015.43-.03.06-.016.091-.046.122-.17l.046-.198c.03-.031.107-.031.123 0 0 .122-.016.322-.016.506s.016.368.016.475c-.016.03-.108.03-.123 0l-.046-.2c-.015-.091-.061-.168-.154-.183a2 2 0 0 0-.383-.031h-.291c-.154 0-.17 0-.17.138v.705c0 .261.016.43.093.522.061.061.169.107.613.107.384 0 .537-.015.645-.076.092-.046.23-.23.352-.491.031-.03.108-.015.123.03-.03.17-.153.568-.23.69-.445-.015-.89-.015-1.35-.015h-.445c-.214 0-.383 0-.674.016-.031-.016-.046-.092-.016-.123l.17-.015c.29-.031.306-.108.306-.63v-1.778zM61.672 53.773c0-.476-.016-.568-.215-.583l-.154-.015c-.03-.031-.03-.108 0-.123.277-.03.63-.046 1.12-.046.307 0 .614.03.844.153.245.123.414.353.414.706 0 .475-.368.736-.629.843-.03.031 0 .077.03.123.4.644.66 1.043 1.013 1.334a.56.56 0 0 0 .353.138c.03.016.03.046 0 .077a.7.7 0 0 1-.215.03c-.43 0-.69-.122-1.043-.628-.138-.184-.337-.537-.49-.752-.078-.107-.154-.153-.354-.153-.23 0-.23 0-.23.107v.63c0 .52.016.582.307.628l.108.015c.03.031.015.108-.016.123-.23-.015-.399-.015-.598-.015-.215 0-.399 0-.629.015-.03-.015-.046-.092-.015-.123l.122-.015c.292-.03.307-.107.307-.629v-1.84zm.414.72c0 .093 0 .139.015.17.015.015.092.03.337.03.184 0 .369-.015.522-.138.138-.107.245-.276.245-.614 0-.398-.245-.766-.797-.766-.307 0-.322.015-.322.153zM67.73 56.411c-.414 0-.69-.138-.782-.184-.062-.107-.123-.46-.138-.705.03-.031.107-.047.122-.016.077.26.276.752.86.752.413 0 .628-.276.628-.583 0-.215-.046-.46-.414-.706l-.476-.306c-.245-.17-.536-.445-.536-.86 0-.475.368-.858 1.027-.858.154 0 .338.03.46.061.062.016.138.03.17.03.045.123.091.4.091.614-.015.031-.107.046-.123.016-.061-.246-.199-.568-.674-.568-.491 0-.599.322-.599.552 0 .292.246.507.43.614l.399.245c.322.2.628.491.628.966 0 .553-.414.936-1.073.936M72.208 53.773c0-.537-.015-.614-.306-.644l-.123-.016c-.03-.015-.015-.107.015-.122.246.015.414.015.63.015.198 0 .367 0 .628-.015.03.015.046.107.015.122l-.122.016c-.292.03-.307.107-.307.644v1.78c0 .536.015.597.307.628l.122.015c.03.016.016.108-.015.123-.246-.015-.414-.015-.629-.015s-.383 0-.629.015c-.03-.015-.046-.092-.015-.123l.123-.015c.291-.03.306-.107.306-.629zM77.776 55.567c0 .522.015.599.307.63l.153.014c.03.016.015.108-.015.123-.292-.015-.46-.015-.66-.015s-.383 0-.69.015c-.03-.015-.046-.107 0-.123l.184-.015c.291-.03.307-.107.307-.629v-2.239c0-.153 0-.153-.154-.153h-.276c-.214 0-.49.015-.613.122-.123.108-.169.215-.23.353-.046.03-.108 0-.123-.03.077-.23.153-.553.184-.752.015-.015.077-.015.092 0 .03.153.2.153.43.153h2.024c.276 0 .322-.015.384-.138.03-.015.076 0 .092.016-.062.199-.092.613-.077.767-.015.046-.108.046-.138.015-.015-.123-.046-.307-.123-.368-.123-.092-.307-.123-.583-.123h-.337c-.154 0-.138 0-.138.169zM83.481 55.567c0 .537.031.614.307.629l.2.015c.03.031.015.108-.016.123-.306-.015-.475-.015-.675-.015-.214 0-.383 0-.66.015-.03-.015-.045-.092-.014-.123l.153-.015c.291-.03.307-.107.307-.629v-.26c0-.277-.016-.338-.154-.614l-.598-1.15c-.169-.338-.245-.353-.399-.384l-.138-.03c-.03-.031-.03-.108.016-.123.153.015.337.015.582.015.23 0 .415 0 .537-.015.046.015.046.092.016.123l-.062.015c-.168.03-.214.046-.214.092s.138.337.153.383c.184.368.368.767.567 1.12.154-.26.323-.552.476-.844.138-.26.322-.598.322-.66 0-.03-.092-.06-.215-.076l-.092-.015c-.03-.03-.03-.108.016-.123.184.015.322.015.475.015s.291 0 .46-.015c.046.03.046.092.016.123l-.139.03c-.26.047-.414.369-.66.798l-.321.552c-.215.384-.23.43-.23.813v.23zM11.794 57.96c.43-.23.951-.568 1.503-.982v-5.061l-1.503-.997zM11.794 47.408l1.503.997v-2.562c-.506-.03-.997-.03-1.503-.046zM16.303 46.104c-.506-.061-.997-.123-1.503-.153v3.45l1.503.997zM14.8 52.914v2.76a16 16 0 0 0 1.503-1.748zM17.822 46.335v5.076c.66-1.365 1.18-2.945 1.488-4.8l-.046-.016c-.491-.092-.967-.184-1.442-.26M13.297 48.405v3.512l1.503.997v-3.512zM16.304 50.414v3.512a17 17 0 0 0 1.503-2.5v-.015zM8.481 52.147a2.3 2.3 0 0 0 1.135-.705 4 4 0 0 0-.583-.17 4 4 0 0 1-.552.875M6.089 51.442c.306.337.69.583 1.135.705a3.3 3.3 0 0 1-.553-.874 4.5 4.5 0 0 0-.582.169M7.638 47.776c-.169.184-.353.43-.522.751.154.016.338.031.522.046zM9.187 50.859c.276.061.506.138.69.215.184-.292.291-.63.322-.997h-.874a3 3 0 0 1-.138.782M7.224 47.577a2.3 2.3 0 0 0-1.135.705c.168.062.352.123.582.169a4.5 4.5 0 0 1 .553-.874M9.616 48.282a2.3 2.3 0 0 0-1.135-.705c.184.214.399.506.552.874.23-.046.43-.108.583-.169M9.34 49.647h.874a2.5 2.5 0 0 0-.322-.997 4 4 0 0 1-.69.215q.093.368.138.782M8.067 51.948c.169-.184.353-.43.522-.752l-.522-.046zM7.638 50.077H6.81c.015.245.06.49.138.69.214-.03.444-.062.69-.062zM8.067 50.706c.246.015.476.03.69.06.062-.214.123-.444.138-.69h-.828zM8.589 48.543a2.8 2.8 0 0 0-.522-.751v.797c.184-.015.368-.03.522-.046M8.895 49.647a2.4 2.4 0 0 0-.138-.69c-.214.03-.444.061-.69.061v.63zM7.116 51.196c.154.323.353.568.522.752v-.798c-.184 0-.353.016-.522.046M6.518 48.865a4 4 0 0 1-.69-.215 2.4 2.4 0 0 0-.322.997h.874a3.2 3.2 0 0 1 .138-.782M7.638 49.018a9 9 0 0 1-.69-.061 2.5 2.5 0 0 0-.138.69h.828zM6.38 50.077h-.874c.03.368.153.69.322.997a4 4 0 0 1 .69-.215 4 4 0 0 1-.138-.782"/><path fill="#062F6B" d="M3.559 46.626c1.104 6.84 5.383 10.169 7.515 11.35V45.813c-2.515.03-5.03.291-7.47.813zm4.294.43a2.81 2.81 0 0 1 2.807 2.806 2.81 2.81 0 0 1-2.807 2.807 2.81 2.81 0 0 1-2.807-2.807c.016-1.549 1.273-2.807 2.807-2.807"/><path fill="#062F6B" d="M19.249 41.396a37.6 37.6 0 0 0-7.807-.829 37.6 37.6 0 0 0-7.822.829h-.016a.4.4 0 0 0-.306.398v1.411c0 .936.061 1.81.153 2.639a39 39 0 0 1 7.99-.829c2.685 0 5.369.276 7.976.828.108-.828.154-1.702.154-2.638v-1.41a.41.41 0 0 0-.323-.4m-1.764 3.496c-1.963-.368-4.203-.49-6.059-.49-1.84 0-4.095.107-6.058.49-.077.016-.138-.046-.092-.138l1.288-2.837c.016-.03.844-.445.844-.445 1.058-.214 2.807-.122 4.018.322 1.212-.444 2.96-.552 4.019-.322 0 0 .828.414.843.445l1.289 2.837c.046.093-.016.154-.092.139"/><path fill="#062F6B" d="m15.123 41.963.537 1.457c-1.258-.168-2.3-.092-3.85.414v.139c1.457-.062 3.298-.139 4.8.184l-.812-1.871zM7.193 43.42l.537-1.457-.675.307-.813 1.871c1.488-.322 3.344-.245 4.801-.184v-.138c-1.534-.49-2.592-.567-3.85-.399M24.617 44.018c0-1.273-.108-1.41-.798-1.472l-.291-.015c-.077-.046-.046-.261.03-.292.66.016 1.058.03 1.534.03.46 0 .859-.014 1.319-.03.077.03.092.246.03.292l-.168.015c-.675.092-.706.245-.706 1.472v4.264c0 .905-.046 1.703-.26 2.224-.384.92-1.197 1.657-2.27 1.657-.138 0-.491-.016-.491-.246 0-.2.169-.537.414-.537.138 0 .276.016.43.077.153.046.322.077.475.077.245 0 .383-.138.46-.307.26-.537.291-2.27.291-2.883zM26.411 46.733c0-1.932 1.457-3.42 3.451-3.42 2.24 0 3.374 1.626 3.374 3.328 0 1.963-1.487 3.39-3.374 3.39-2.147-.016-3.45-1.55-3.45-3.298m5.859.2c0-1.596-.706-3.329-2.561-3.329-1.013 0-2.316.69-2.316 2.822 0 1.442.705 3.298 2.607 3.298 1.166 0 2.27-.874 2.27-2.791M35.445 46.733c-.46 0-.491.016-.491.307v1.365c0 1.012.046 1.15.598 1.212l.276.03c.062.031.046.215-.015.246-.522-.016-.859-.03-1.227-.03-.414 0-.752.014-1.12.03-.061-.03-.076-.184-.015-.246l.169-.03c.537-.092.567-.2.567-1.212v-3.497c0-1.012-.061-1.18-.567-1.227l-.246-.015c-.061-.046-.046-.215.016-.246.475.016.813.031 1.227.031.383 0 .705-.015 1.12-.03.06.03.076.199.015.245l-.184.015c-.568.062-.583.2-.583 1.227v1.12c0 .306.015.306.49.306h2.777c.46 0 .49-.015.49-.306v-1.12c0-1.012-.015-1.166-.598-1.227l-.184-.015c-.061-.046-.046-.215.015-.246.445.016.783.031 1.181.031.384 0 .706-.015 1.15-.03.062.03.078.199.016.245l-.2.015c-.567.062-.582.2-.582 1.227v3.497c0 1.012.015 1.15.583 1.212l.23.03c.061.031.046.215-.016.246-.46-.016-.797-.03-1.18-.03-.4 0-.752.014-1.181.03-.062-.03-.077-.184-.016-.246l.184-.03c.598-.092.598-.2.598-1.212V47.04c0-.291-.015-.307-.49-.307zM46.948 48.22c0 .292 0 1.443.03 1.703-.015.062-.076.108-.184.108-.122-.17-.398-.506-1.242-1.473l-2.254-2.561c-.261-.307-.92-1.104-1.12-1.304h-.015c-.046.123-.046.338-.046.63v2.116c0 .46.015 1.717.168 2.009.062.107.246.169.491.184l.307.03c.061.077.046.2-.016.246-.429-.015-.782-.03-1.135-.03-.414 0-.674.015-1.012.03-.061-.046-.077-.184-.015-.245l.26-.031c.23-.03.384-.092.43-.2.138-.352.123-1.533.123-1.993v-2.807c0-.276-.016-.476-.215-.706-.138-.138-.368-.199-.598-.23l-.169-.015c-.061-.061-.061-.2.016-.245.414.03.92.03 1.088.03.154 0 .322-.015.445-.03.2.49 1.335 1.779 1.657 2.132l.935 1.058c.675.751 1.15 1.288 1.595 1.764h.016c.046-.047.046-.2.046-.415v-2.07c0-.46-.016-1.718-.2-2.01-.061-.091-.214-.137-.598-.199l-.169-.015c-.06-.061-.06-.215.016-.245.445.015.782.03 1.15.03.414 0 .675-.015.997-.03.077.046.077.184.015.245l-.138.015c-.306.046-.506.123-.536.2-.17.352-.139 1.549-.139 1.993v2.332zM49.51 50.015c-.814 0-1.335-.245-1.52-.352-.122-.215-.245-.905-.26-1.365.046-.062.2-.093.23-.031.138.49.537 1.442 1.672 1.442.813 0 1.212-.537 1.212-1.12 0-.43-.093-.905-.798-1.365l-.92-.598c-.491-.322-1.043-.874-1.043-1.672 0-.92.72-1.672 1.978-1.672.307 0 .644.062.905.123.123.046.26.061.338.061.092.23.168.782.168 1.181-.03.062-.2.092-.245.03-.123-.46-.383-1.103-1.32-1.103-.95 0-1.15.629-1.15 1.073 0 .568.46.967.829 1.197l.782.49c.613.384 1.212.936 1.212 1.871 0 1.09-.813 1.81-2.07 1.81M57.331 46.15c-.552 0-.567.016-.567.368v1.626c0 1.212.061 1.365.705 1.442l.338.03c.061.047.046.246-.03.292-.63-.015-1.013-.03-1.458-.03-.49 0-.89.015-1.334.03-.077-.03-.092-.215-.016-.291l.2-.031c.644-.123.675-.23.675-1.442v-4.14c0-1.213-.077-1.412-.675-1.443l-.307-.03c-.077-.046-.046-.261.03-.292.568.016.952.03 1.442.03.445 0 .844-.014 1.335-.03.077.03.092.246.015.292l-.215.03c-.66.077-.69.246-.69 1.442v1.32c0 .352.03.367.568.367h3.297c.552 0 .568-.015.568-.368v-1.319c0-1.212-.016-1.38-.706-1.442l-.215-.03c-.076-.046-.045-.261.031-.292.522.03.92.03 1.396.03.445 0 .843-.014 1.35-.03.06.03.092.246.015.292l-.245.03c-.66.077-.69.246-.69 1.442v4.141c0 1.212.03 1.35.69 1.442l.276.03c.076.047.046.246-.031.292-.552-.015-.936-.03-1.396-.03-.475 0-.89.015-1.395.03-.077-.03-.093-.215-.031-.291l.214-.031c.706-.123.706-.23.706-1.442v-1.626c0-.337-.015-.368-.567-.368z"/><path fill="#062F6B" d="M63.037 46.733c0-1.932 1.457-3.42 3.45-3.42 2.24 0 3.375 1.626 3.375 3.328 0 1.963-1.488 3.39-3.374 3.39-2.147-.016-3.451-1.55-3.451-3.298m5.843.2c0-1.596-.705-3.329-2.56-3.329-1.013 0-2.317.69-2.317 2.822 0 1.442.706 3.298 2.608 3.298 1.165 0 2.27-.874 2.27-2.791M71.61 48.405c0 1.012.016 1.15.645 1.212l.26.03c.062.046.046.215-.015.246-.552-.016-.874-.03-1.258-.03-.414 0-.751.014-1.18.03-.062-.03-.077-.184-.016-.246l.2-.03c.567-.077.582-.2.582-1.212v-3.574c0-.828-.015-.997-.46-1.043l-.353-.045c-.06-.062-.06-.2.016-.246.521-.061 1.12-.077 1.917-.077.813 0 1.411.108 1.871.384.445.276.782.782.782 1.457 0 .89-.552 1.334-.966 1.549-.43.2-.936.291-1.334.291-.062-.03-.062-.168-.016-.199 1.043-.2 1.427-.782 1.427-1.626 0-.935-.552-1.549-1.565-1.549-.521 0-.521.03-.521.353v4.325zM75.66 44.923c0-1.012-.016-1.18-.583-1.227l-.246-.015c-.061-.046-.03-.215.016-.245.475.015.782.03 1.227.03.383 0 .705-.015 1.12-.03.06.03.076.199.014.245l-.183.015c-.568.062-.583.2-.583 1.227v1.12c0 .184.015.368.122.368.092 0 .2-.061.276-.107.138-.123.384-.369.491-.46l1.043-1.043c.184-.17.66-.675.752-.813a.3.3 0 0 0 .061-.154c0-.03-.046-.061-.169-.092l-.26-.061c-.062-.061-.062-.2.015-.245.337.015.72.03 1.074.03.337 0 .674-.015.966-.03.061.046.076.184.015.245a2.4 2.4 0 0 0-.905.276c-.276.153-.813.614-1.365 1.12l-.874.828c-.138.138-.23.23-.23.307 0 .061.061.153.184.306.92 1.059 1.672 1.933 2.423 2.73.23.23.414.353.736.4l.184.03c.062.046.047.215-.015.245a14 14 0 0 0-.981-.03c-.4 0-.737.015-1.181.03-.062-.015-.092-.184-.031-.245l.23-.046c.138-.015.23-.046.23-.092 0-.062-.061-.138-.138-.23-.184-.23-.43-.491-.797-.905l-.783-.874c-.552-.614-.705-.813-.935-.813-.154 0-.169.122-.169.46v1.258c0 1.012.015 1.15.567 1.211l.261.03c.062.047.046.216-.015.246-.476-.015-.813-.03-1.181-.03-.399 0-.721.015-1.12.03-.061-.03-.076-.168-.015-.245l.2-.03c.52-.078.536-.2.536-1.213v-3.512zM82.316 44.939c0-1.028-.015-1.197-.598-1.243l-.246-.015c-.06-.046-.046-.215.016-.245.49.015.813.03 1.227.03.383 0 .72-.015 1.196-.03.061.03.077.199.015.245l-.245.015c-.567.046-.598.215-.598 1.243v3.45c0 1.028.015 1.166.598 1.227l.245.031c.062.046.046.215-.015.246-.49-.016-.813-.031-1.196-.031-.414 0-.706.015-1.181.03-.062-.03-.077-.183-.016-.245l.2-.03c.567-.062.598-.2.598-1.227zM90.706 48.22c0 .292 0 1.443.03 1.703-.015.062-.076.108-.184.108-.123-.17-.399-.506-1.242-1.473l-2.255-2.561c-.26-.307-.92-1.104-1.12-1.304h-.015c-.046.123-.046.338-.046.63v2.116c0 .46.016 1.717.169 2.009.061.107.245.169.49.184l.308.03c.06.077.046.2-.016.246-.43-.015-.782-.03-1.135-.03-.414 0-.675.015-1.012.03-.061-.046-.077-.184-.015-.245l.26-.031c.23-.03.384-.092.43-.2.138-.352.123-1.533.123-1.993v-2.807c0-.276-.016-.476-.215-.706-.138-.138-.368-.199-.598-.23l-.169-.015c-.061-.061-.061-.2.015-.245.414.03.92.03 1.09.03.153 0 .321-.015.444-.03.2.49 1.334 1.779 1.656 2.132l.936 1.058c.675.751 1.15 1.288 1.595 1.764h.016c.046-.047.046-.2.046-.415v-2.07c0-.46-.016-1.718-.2-2.01-.061-.091-.215-.137-.598-.199l-.169-.015c-.061-.061-.061-.215.016-.245.444.015.782.03 1.15.03.414 0 .675-.015.997-.03.076.046.076.184.015.245l-.138.015c-.307.046-.506.123-.537.2-.168.352-.138 1.549-.138 1.993v2.332zM93.252 50.015c-.813 0-1.335-.245-1.519-.352-.123-.215-.245-.905-.26-1.365.045-.062.199-.093.23-.031.153.49.536 1.442 1.671 1.442.813 0 1.212-.537 1.212-1.12 0-.43-.092-.905-.798-1.365l-.92-.598c-.49-.322-1.043-.874-1.043-1.672 0-.92.721-1.672 1.979-1.672.306 0 .644.062.905.123.122.046.26.061.337.061.092.23.169.782.169 1.181-.046.062-.2.092-.246.03-.122-.46-.383-1.103-1.319-1.103-.95 0-1.15.629-1.15 1.073 0 .568.46.967.828 1.197l.782.49c.614.384 1.212.936 1.212 1.871 0 1.09-.797 1.81-2.07 1.81"/></svg>