<svg xmlns="http://www.w3.org/2000/svg" width="80" height="100" fill="none"><path fill="#2258A5" d="M70.062 18.712H8.712v61.35h61.35z"/><path fill="#fff" d="M40.552 74.49c.54-.6 1.105-1.25 1.51-1.643.785-.786 1.607-.786 1.607-.786s-.933-.454-1.914.528c-.258.27-.86.933-1.46 1.607-.221-.245-.442-.49-.638-.711.22-.246.43-.467.6-.638.786-.786 1.608-.786 1.608-.786s-.932-.454-1.914.528c-.123.123-.319.344-.564.601-.233-.27-.442-.478-.565-.601-.981-.982-1.914-.528-1.914-.528s.81-.012 1.608.786c.171.171.38.392.6.638-.196.22-.416.466-.637.711-.602-.674-1.203-1.35-1.46-1.607-.982-.982-1.914-.528-1.914-.528s.81-.012 1.607.786c.405.405.97 1.043 1.51 1.644-.504.564-.983 1.104-1.265 1.374-.662.663-1.423.712-1.423.712s.822.478 1.95-.663c.21-.209.578-.638 1.007-1.116.233.257.442.503.626.711-.135.147-.258.27-.344.368-.662.663-1.423.712-1.423.712s.822.478 1.95-.663c.025-.036.062-.061.099-.098l.098.098c1.117 1.154 1.951.663 1.951.663s-.773-.05-1.423-.712c-.098-.098-.209-.22-.344-.368.184-.196.393-.442.626-.711.417.478.797.895 1.006 1.116 1.117 1.153 1.951.663 1.951.663s-.76-.05-1.423-.712c-.307-.27-.786-.81-1.289-1.374m-1.165.713c-.197-.221-.418-.454-.638-.712.208-.246.43-.479.638-.712l.638.712c-.221.245-.442.49-.638.712M18.749 40.552c.123.393.478.626.92.626.135 0 .258-.025.393-.061.012.024.037.049.061.086.074.098.147.171.233.233.025.024.061.024.098.024.05 0 .11-.024.135-.073.05-.074.037-.184-.037-.234a.7.7 0 0 1-.159-.16c-.012-.011-.012-.024-.025-.036.172-.11.32-.245.405-.417a.84.84 0 0 0 .062-.663.41.41 0 0 0-.332-.294c-.012 0-.024 0-.036.012-.013-.049-.025-.11-.037-.16-.16-.515-.626-.92-.982-.895a.2.2 0 0 0-.196-.05.2.2 0 0 0-.135.148.6.6 0 0 0-.221.245c-.147.283-.172.7-.074 1.043.013.05.037.11.062.16-.012 0-.025.012-.025.012a.47.47 0 0 0-.11.454m1.791-.478a.52.52 0 0 1-.061.331.9.9 0 0 1-.515.393.9.9 0 0 1-.307.049c-.27 0-.479-.123-.577-.32.11.025.22.038.282.038.16 0 .332-.025.491-.074.307-.098.552-.245.687-.417m-1.35-1.006a.28.28 0 0 1 .11-.123c.038-.012.062-.025.075-.05h.085c.135-.036.516.246.65.663.05.135.062.282.062.417a1.2 1.2 0 0 1-.393.197c-.134.037-.27.061-.392.061h-.037a1.3 1.3 0 0 1-.196-.368c-.099-.319-.05-.638.037-.797M22.589 43.3c.22 0 .344-.159.368-.245v-.036h.16c.368-.013.748-.16.969-.393a.6.6 0 0 0 .16-.294.22.22 0 0 0 .098-.172.2.2 0 0 0-.11-.172c-.087-.344-.614-.65-1.167-.638-.06 0-.11 0-.171.012v-.037c-.037-.086-.148-.22-.38-.22a.91.91 0 0 0-.688.355c-.098.123-.16.27-.196.442-.012 0-.025-.012-.037-.012-.073-.025-.135-.062-.196-.098a.174.174 0 0 0-.233.036c-.05.074-.037.184.037.233a1.1 1.1 0 0 0 .392.172c.012.626.405 1.068.933 1.068zm.515-1.607c.442-.012.835.258.835.393 0 .037.012.061.024.086-.012.025-.024.05-.024.086 0 .024-.025.073-.086.147-.135.135-.417.282-.736.295-.148 0-.283-.013-.418-.062a1.8 1.8 0 0 1-.086-.43c0-.171.025-.318.062-.429.147-.049.282-.086.43-.086m-1.14.528c0-.22.048-.417.159-.552a.5.5 0 0 1 .343-.209c-.11.184-.172.479-.172.761.013.282.086.565.21.749-.308-.037-.529-.344-.54-.749M20.798 51.362a.6.6 0 0 0 0-.331c.024-.05.049-.123 0-.197a.22.22 0 0 0-.184-.098c-.246-.258-.86-.258-1.325.025a.6.6 0 0 0-.135.098c-.013-.012-.013-.025-.025-.025a.36.36 0 0 0-.22-.073.5.5 0 0 0-.222.061.86.86 0 0 0-.417.638c-.024.16 0 .32.05.479-.013 0-.025 0-.038.012a.7.7 0 0 1-.22.012.165.165 0 0 0-.184.147.165.165 0 0 0 .147.184c.037 0 .073.013.11.013.074 0 .147-.013.221-.025.037-.012.074-.012.11-.024.221.355.565.576.92.576.16 0 .308-.037.442-.122.197-.11.221-.307.197-.393 0-.012-.012-.025-.012-.025l.147-.073c.306-.221.564-.552.638-.859m-1.338-.331c.38-.233.847-.184.92-.074.013.037.037.05.062.074 0 .024.012.061.024.086s.025.073 0 .16c-.049.183-.22.453-.49.625a1.2 1.2 0 0 1-.393.147 1.32 1.32 0 0 1-.442-.736c.086-.11.197-.209.32-.282m-.724 1.03a.88.88 0 0 1-.134-.564.53.53 0 0 1 .196-.356c0 .221.086.503.233.749.147.245.356.453.552.552-.294.122-.65-.05-.847-.38M14.982 51.706c.037.036.086.073.123.11 0 .012-.013.012-.025.025-.037.086-.05.27.11.43s.369.232.602.232c.294 0 .6-.147.834-.392.024.012.061.024.098.049.098.049.209.073.32.086h.011c.086 0 .16-.062.16-.148.012-.098-.061-.171-.147-.184a.7.7 0 0 1-.221-.061c-.012-.012-.025-.012-.037-.012.098-.184.16-.368.147-.565a.89.89 0 0 0-.27-.613.4.4 0 0 0-.282-.123.27.27 0 0 0-.147.037c-.012 0-.012.012-.025.024-.037-.036-.073-.085-.11-.122-.393-.368-.994-.503-1.288-.295a.21.21 0 0 0-.197.05c-.061.06-.049.134-.037.196a.66.66 0 0 0-.073.33c.012.332.196.7.454.946m1.669-.417c.012.196-.086.417-.258.588-.172.185-.393.295-.59.295a.54.54 0 0 1-.306-.098c.209-.05.466-.209.663-.417.196-.209.343-.467.38-.687.062.098.11.208.11.319m-1.755-.688c.024-.024.037-.049.049-.073.025-.012.05-.025.074-.05.098-.097.564-.048.883.258.11.099.196.221.258.332-.05.11-.123.233-.246.368a1.6 1.6 0 0 1-.355.27 1.2 1.2 0 0 1-.344-.233c-.233-.221-.344-.516-.344-.712-.012-.086.013-.147.025-.16M22.221 60.687a.7.7 0 0 0-.16-.294c0-.05-.012-.136-.098-.172-.073-.05-.147-.025-.208 0-.344-.11-.884.196-1.154.662l-.073.148c-.012 0-.025-.013-.037-.013h-.05a.39.39 0 0 0-.343.209c-.22.38-.11.834.221 1.153l-.024.025c-.062.049-.123.086-.184.123-.086.036-.123.134-.086.22.024.062.086.099.16.099.024 0 .036 0 .06-.013a1 1 0 0 0 .283-.172.2.2 0 0 0 .073-.073 1.3 1.3 0 0 0 .626.172c.344 0 .626-.16.785-.442.11-.196.05-.368-.012-.442-.012-.012-.012-.012-.024-.012a1 1 0 0 0 .085-.135c.184-.32.246-.724.16-1.043m-1.325.368c.22-.38.65-.577.773-.503.037.012.061.025.086.025a.15.15 0 0 0 .061.06c.025.013.061.062.074.148.049.184.037.503-.135.785-.074.123-.16.233-.258.32a1.3 1.3 0 0 1-.417-.148 1.4 1.4 0 0 1-.344-.282c.037-.147.086-.282.16-.405m-.147 1.24c-.307-.172-.528-.504-.393-.835.098.196.307.393.564.54.246.135.54.22.749.209-.184.257-.577.282-.92.085M19.448 63.018a.166.166 0 0 0-.221-.086.6.6 0 0 1-.221.05h-.037c0-.172-.024-.332-.098-.479a.85.85 0 0 0-.589-.49.4.4 0 0 0-.417.134c-.012.012-.012.025-.012.037-.05-.025-.11-.037-.16-.05-.515-.122-1.104.05-1.276.369-.05.025-.123.049-.147.147-.025.086.024.147.061.197 0 .098.025.208.098.319.172.27.503.515.86.6.048.013.11.025.159.038v.036a.41.41 0 0 0 .306.32c.074.012.148.024.221.024.442 0 .822-.344.957-.859h.099a1 1 0 0 0 .319-.086.163.163 0 0 0 .098-.22m-2.724-.012c-.05-.074-.05-.135-.05-.16.013-.036.013-.06 0-.085.013-.025.038-.05.038-.074.036-.135.478-.307.895-.209a1.2 1.2 0 0 1 .38.172c.013.11 0 .27-.036.43a1.6 1.6 0 0 1-.172.404c-.135.013-.282 0-.417-.036a1.12 1.12 0 0 1-.638-.442m1.89.233c-.087.368-.344.614-.639.614h-.061c.16-.16.307-.43.368-.687.074-.27.061-.577 0-.786.16.062.245.184.282.282.086.16.098.369.05.577M27.534 70.368h.012c.614 0 1.08-.393 1.092-.92a.41.41 0 0 0-.233-.38h-.037c.013-.05.013-.111.013-.16 0-.368-.135-.749-.369-.982a.54.54 0 0 0-.282-.172.18.18 0 0 0-.172-.11c-.085 0-.134.05-.171.098-.344.074-.675.601-.687 1.141 0 .062 0 .11.012.172h-.037a.39.39 0 0 0-.233.368c0 .27.11.516.331.687.123.099.27.172.43.209 0 .012-.013.024-.013.037a.6.6 0 0 1-.11.196c-.061.074-.05.172.025.233a.2.2 0 0 0 .11.037c.049 0 .098-.025.135-.061a.9.9 0 0 0 .16-.295.2.2 0 0 1 .024-.098m-.074-2.307a.2.2 0 0 0 .086-.024c.025.012.05.024.086.024.025 0 .074.025.135.086.135.135.27.43.27.749 0 .147-.037.282-.074.417a1.4 1.4 0 0 1-.858-.013 1.2 1.2 0 0 1-.074-.417c.012-.454.294-.822.43-.822m-.687 1.436c.184.123.466.196.773.196.282 0 .552-.073.736-.184-.049.331-.404.515-.748.515h-.012c-.221 0-.417-.06-.552-.184a.55.55 0 0 1-.197-.343M26.565 71.46a.6.6 0 0 1-.16.148c-.012.012-.024.012-.037.024-.184-.331-.49-.54-.834-.54a.8.8 0 0 0-.233.037.41.41 0 0 0-.307.32v.036l-.16.037c-.515.147-.944.589-.932.944-.037.037-.086.111-.05.197a.18.18 0 0 0 .148.135c.05.086.135.172.245.233.185.098.418.16.65.16.136 0 .27-.013.393-.05.05-.012.11-.036.16-.049 0 .013 0 .025.012.025.05.061.16.147.307.147.037 0 .074 0 .123-.012a.88.88 0 0 0 .527-.405c.147-.245.172-.577.086-.883.025-.013.05-.037.086-.062a.9.9 0 0 0 .245-.233.174.174 0 0 0-.036-.233c-.074-.062-.184-.05-.233.024m-1.375 1.362c-.306.086-.626.025-.785-.073a.4.4 0 0 1-.123-.11.2.2 0 0 0-.037-.074v-.086c-.036-.135.258-.503.688-.626.135-.037.282-.05.417-.037.061.098.135.233.184.405s.049.32.049.442c-.123.049-.245.11-.393.16m.92-.16a.53.53 0 0 1-.245.222 1.56 1.56 0 0 0-.012-.786 1.7 1.7 0 0 0-.38-.687c.306-.037.6.209.699.59.061.257.049.49-.061.662"/><path fill="#fff" d="M36.613 74.835c.11 0 .221-.013.246-.086v-.062c0-.073.012-.16-1.092-.368.012-.405-.013-1.215-.504-1.534a.6.6 0 0 0-.306-.098c-.282 0-.43.233-.528.393a.4.4 0 0 1-.061.086c-.05-.037-.074-.135-.11-.43l-.025-.184c-.05-.306-.135-.957-.798-1.14a.8.8 0 0 0-.233-.038c-.466 0-.601.442-.687.712-.025.098-.074.258-.123.282-.086-.073-.086-.503-.086-.687v-.135c0-.871-.417-1.374-1.116-1.374-.074 0-.147 0-.221.012a.7.7 0 0 0-.49.233c-.222.27-.173.65-.123.994.012.11.036.282.024.368-.024.013-.049.013-.074.013-.11 0-.245-.123-.38-.393-.258-.466-.675-.736-1.141-.736-.454 0-.884.257-1.19.711-.307.454-.344.982-.123 1.4.22.416.687.662 1.227.662h.27c.331 0 .454.086.528.233-.062.049-.209.123-.307.172-.307.147-.663.319-.749.65-.049.184 0 .392.148.601.405.516.846.626 1.165.626.368 0 .749-.16 1.055-.442.037-.037.086-.073.123-.123.172-.171.417-.392.552-.392a.08.08 0 0 1 .062.024c.012.05-.05.184-.086.258-.086.209-.197.479-.074.736.074.172.246.307.491.393q.221.074.442.074c.54 0 .87-.369 1.03-.54l.025-.025c.049-.061.098-.11.147-.16.16-.171.246-.27.331-.27.013.037.013.074.013.099.024.196.098.675.675.613.466-.049.846-.466 1.104-1.239.478.086.785.11.97.11m-2.073.662h-.086c-.025-.025-.037-.135-.05-.196-.024-.172-.073-.454-.355-.503-.062-.013-.11-.013-.16-.013-.319 0-.503.209-.711.442-.05.05-.086.098-.135.16l-.025.036c-.135.148-.343.368-.663.368a.8.8 0 0 1-.282-.049c-.11-.036-.184-.086-.196-.122-.024-.062.037-.221.086-.344.086-.22.245-.589-.074-.834a.58.58 0 0 0-.368-.123c-.331 0-.626.27-.896.528-.036.037-.085.073-.122.11-.221.197-.479.32-.724.32-.282 0-.552-.148-.76-.43-.038-.05-.087-.135-.074-.184.024-.11.294-.246.478-.332.307-.147.724-.343.577-.748-.221-.601-.822-.601-1.006-.601h-.172c-.405.024-.736-.123-.884-.405-.135-.258-.098-.59.099-.884.208-.306.49-.49.773-.49.282 0 .527.171.699.478.147.282.405.65.822.65a1 1 0 0 0 .307-.061c.331-.135.282-.528.245-.871-.024-.221-.061-.516.012-.614.013-.012.037-.049.148-.049.061-.012.11-.012.16-.012.17 0 .613 0 .613.883v.123c0 .38 0 .81.22 1.03.11.111.258.16.405.148.368-.025.467-.38.553-.638.11-.38.16-.38.306-.343.32.085.393.392.442.723l.025.184c.049.38.11.773.564.872.024 0 .05.012.074.012.233 0 .355-.196.441-.344.037-.049.086-.147.099-.16 0 0 .012 0 .036.025.11.074.27.295.27 1.019-.122-.025-.245-.037-.392-.062-1.84-.319-4.172-1.251-4.945-1.546-.233-.098-.233-.098-.258-.098a.1.1 0 0 0-.061.025c0 .012-.012.012-.012.024s0 .013-.013.025v.037c.05.16 3.068 1.595 5.203 1.975.135.025.27.037.392.061-.208.614-.454.773-.625.798M21.644 40.479l.037.049v.024h.073c.037 0 .074 0 .32-.257.306.171.723.355 1.116.355a.9.9 0 0 0 .454-.11.54.54 0 0 0 .258-.319c.049-.209-.062-.405-.135-.54-.013-.024-.037-.049-.05-.086.074-.024.221.037.393.086l.209.074c.147.049.368.122.601.122.294 0 .552-.11.736-.319a.65.65 0 0 0 .209-.478c-.012-.27-.221-.479-.38-.638a1.3 1.3 0 0 1-.185-.209c0-.012.013-.012.037-.012.147 0 .405.135.614.233l.085.05c.872.416 1.559.171 1.792-.565.074-.197.074-.38-.012-.54-.148-.307-.491-.43-.81-.528-.11-.037-.258-.086-.32-.135.013-.098.075-.233.516-.233.515-.012.933-.245 1.141-.626.221-.405.197-.908-.073-1.398-.258-.454-.687-.724-1.154-.724-.527 0-.981.331-1.214.883-.184.405-.32.49-.479.49-.012-.073-.012-.232-.012-.343 0-.33 0-.699-.221-.92a.62.62 0 0 0-.442-.172c-.049 0-.11 0-.184.013-.478.098-.834.33-1.043.674-.196.332-.233.749-.11 1.178.012.062.037.135.061.197.098.343.184.625.05.675-.038-.013-.136-.123-.197-.184-.16-.172-.344-.405-.638-.405-.184 0-.356.085-.54.257-.577.59-.344 1.227-.233 1.497l.012.037c.025.061.05.123.062.172.098.258.122.343.085.417a.2.2 0 0 0-.098-.025 1 1 0 0 0-.343-.073c-.135 0-.38.049-.516.392-.171.442.037.97.626 1.559-.147.306-.11.368-.098.405m-.025-1.767c.025-.062.05-.062.05-.074.049 0 .11.025.183.05a.8.8 0 0 0 .295.06c.16 0 .258-.073.319-.147.27-.331.135-.662.012-.969-.024-.05-.037-.11-.061-.16l-.012-.036c-.123-.307-.209-.638.122-.97.11-.11.172-.122.197-.122.073 0 .171.122.27.22.135.16.306.356.564.356a.5.5 0 0 0 .196-.037c.552-.233.356-.858.233-1.276a1 1 0 0 1-.049-.184c-.085-.294-.073-.576.05-.785.134-.22.38-.38.711-.442.037 0 .061-.012.086-.012.061 0 .086.012.086.025.074.073.074.368.074.564 0 .344-.013.81.417.847.576.061.846-.368 1.03-.785.16-.369.442-.59.749-.59.282 0 .552.172.712.467.183.331.22.662.073.908-.123.22-.38.356-.712.368-.797 0-.993.405-1.018.748-.024.356.356.491.663.59.196.073.466.159.515.27.012.012.024.048-.012.171-.123.393-.356.442-.516.442s-.368-.05-.576-.16L26.184 38c-.27-.135-.565-.294-.835-.294-.22 0-.404.11-.503.306-.147.332.123.602.307.773.086.086.221.209.221.283 0 .024-.025.073-.074.122a.45.45 0 0 1-.368.16c-.16 0-.319-.05-.441-.098l-.21-.074c-.195-.061-.355-.123-.514-.123a.56.56 0 0 0-.467.233c-.184.221-.037.467.05.614.024.049.073.123.085.16 0 0-.012.012-.024.012a.5.5 0 0 1-.197.037c-.257 0-.564-.135-.785-.246.172-.209.405-.49.712-.846 1.104-1.362 2.871-2.896 3.656-3.51l.025-.012c.307-.209.307-.209.307-.258v-.036l-.05-.062h-.036c-.037 0-.05 0-.344.233-.675.479-2.712 1.914-3.89 3.362-.306.38-.54.675-.699.896-.552-.49-.54-.797-.49-.92M24.257 70.748c.491 0 .945-.368 1.19-.576.185.122.307.184.38.184.062 0 .087-.037.1-.05v-.012c.011-.012.024-.024.024-.036.012-.05.024-.074-.258-.356.172-.282.662-1.08.343-1.62-.135-.233-.319-.282-.441-.282-.16 0-.295.073-.405.135l-.074.037c-.012-.062.012-.148.098-.393l.074-.184c.098-.258.331-.871-.147-1.337-.147-.16-.307-.246-.479-.246-.27 0-.466.197-.625.356-.074.061-.185.172-.221.172-.05-.086.184-.503.257-.638l.05-.086c.245-.454.294-.859.171-1.203-.098-.282-.331-.49-.662-.613a.7.7 0 0 0-.307-.061c-.479 0-.663.478-.81.834-.037.11-.098.258-.147.319-.098-.025-.221-.098-.233-.503.024-.405-.099-.76-.332-1.006-.38-.393-1.043-.466-1.644-.148-.466.246-.76.675-.76 1.154 0 .503.306.957.822 1.227.429.196.49.331.478.478-.049.013-.196.013-.344 0-.085 0-.183-.012-.27-.012-.233 0-.515.025-.699.233-.122.135-.172.332-.135.565.11.797.638 1.288 1.362 1.288.147 0 .295-.024.442-.061.061-.013.135-.037.196-.05.184-.049.38-.098.528-.098.135 0 .147.037.16.074-.013.037-.123.135-.197.184-.172.135-.393.307-.417.589q-.037.276.22.589c.246.27.553.405.896.405.246 0 .454-.074.602-.123l.049-.012c.061-.025.122-.037.184-.061.135-.05.257-.099.343-.099.025 0 .05 0 .074.025a1 1 0 0 1-.037.098c-.073.172-.258.65.295.871.085.025.196.05.306.05m-.65-1.558c-.16 0-.319.061-.503.123-.05.024-.11.037-.172.061l-.049.012c-.11.037-.27.086-.442.086a.7.7 0 0 1-.515-.233c-.074-.086-.11-.172-.11-.208.012-.074.135-.172.233-.258.196-.16.49-.393.343-.749-.049-.147-.208-.392-.625-.392-.209 0-.43.061-.65.11-.062.012-.123.037-.197.05-.11.024-.22.048-.32.048-.478 0-.784-.306-.858-.859a.3.3 0 0 1 .012-.171c.025-.025.086-.062.332-.062.086 0 .16 0 .245.013.086 0 .172.012.245.012.38 0 .59-.135.614-.38.098-.602-.356-.884-.749-1.056-.343-.172-.54-.466-.54-.773 0-.294.172-.552.491-.711.405-.209.822-.184 1.043.049.135.147.209.368.197.65.012.613.245.957.723 1.018h.037c.332 0 .467-.343.577-.638.086-.233.196-.515.344-.515.024 0 .073.012.122.025.209.073.332.184.38.33.074.197.025.467-.147.786l-.049.086c-.184.331-.392.7-.294 1.018a.53.53 0 0 0 .27.32.45.45 0 0 0 .22.049c.234 0 .406-.172.565-.32.086-.085.22-.208.282-.208.012 0 .05.025.11.086.234.233.148.515.038.822l-.074.184c-.123.331-.258.687.061.994.074.061.16.098.258.098.135 0 .245-.061.356-.123a1 1 0 0 0 .147-.086s.012.013.024.037c.05.086.11.344-.282 1.019-.196-.184-.454-.43-.797-.737-.945-.834-2.098-2.16-3.436-3.938-.147-.197-.147-.197-.196-.197h-.025c-.024.013-.049.037-.049.062-.024.16 1.804 2.97 3.411 4.392.32.295.59.528.822.724-.306.258-.576.393-.785.393a.4.4 0 0 1-.135-.025c-.049-.024-.061-.036-.061-.036-.012-.037.037-.135.061-.197.062-.16.16-.417-.037-.613a.73.73 0 0 0-.466-.172M16.97 59.828l.208.037c.27.05.343.074.392.135a.3.3 0 0 1-.073.061c-.147.123-.515.442-.172.896.196.258.503.38.933.38.27 0 .527-.049.687-.086.184.38.233.38.282.38.024 0 .061-.011.073-.036l.037-.012c.025-.037.05-.074-.061-.466.331-.184 1.055-.639 1.067-1.227 0-.16-.036-.295-.134-.38-.16-.16-.38-.16-.54-.16h-.099c.013-.062.074-.123.295-.307l.147-.123c.233-.196.724-.601.552-1.251-.086-.32-.306-.503-.613-.503-.147 0-.295.036-.417.073-.098.025-.197.05-.258.05-.025 0-.025 0-.037-.013.012-.11.38-.319.528-.417l.11-.062c.442-.27.687-.588.749-.932.049-.307-.062-.601-.295-.884-.184-.245-.38-.294-.527-.294-.307 0-.577.22-.81.405-.086.074-.221.172-.282.209-.086-.062-.148-.172.085-.565.258-.43.283-.896.074-1.276-.22-.405-.687-.663-1.251-.687h-.062c-.527 0-.97.245-1.178.662-.233.43-.171.97.16 1.448.258.368.22.54.147.663-.074-.025-.209-.11-.307-.172-.233-.147-.49-.307-.76-.307-.184 0-.442.074-.602.467-.16.441-.147.859.037 1.214.184.356.515.614.957.737.05.012.11.024.172.049.356.098.638.184.626.319a1 1 0 0 1-.258.061c-.22.037-.503.086-.662.32-.111.159-.136.355-.074.613.184.81.847.944 1.141.993zm-.688-1.116c-.037-.16-.012-.221 0-.234.037-.06.209-.085.331-.098.233-.037.626-.098.663-.503.05-.576-.552-.736-.994-.859-.049-.012-.11-.024-.16-.049-.306-.086-.54-.257-.65-.49-.11-.234-.122-.504-.012-.798.061-.147.123-.147.147-.147.123 0 .332.135.491.233.209.135.405.258.601.258a.45.45 0 0 0 .344-.172c.405-.552.012-1.105-.11-1.289-.221-.319-.27-.662-.123-.932.135-.246.405-.393.736-.393h.037c.38.013.687.172.834.43.123.22.098.503-.074.785-.122.209-.49.847.086 1.252a.4.4 0 0 0 .234.073c.208 0 .404-.147.613-.319.16-.123.368-.294.503-.294.012 0 .061 0 .135.098.147.171.22.343.196.49-.037.197-.208.406-.515.59l-.11.06c-.332.197-.7.418-.761.75a.55.55 0 0 0 .098.404.5.5 0 0 0 .43.209c.134 0 .257-.037.392-.074.11-.024.22-.061.295-.061.049 0 .098 0 .134.135.086.307-.134.527-.38.736l-.147.123c-.282.233-.577.478-.442.92.098.27.38.27.552.27.05 0 .135 0 .172.012v.025c0 .122-.11.38-.712.748a61 61 0 0 0-.343-.994c-.577-1.644-.896-3.901-1.03-4.87-.074-.529-.074-.529-.16-.529l-.074.037c-.073.11.098 3.362.834 5.497.16.43.283.761.38 1.006-.134.025-.306.062-.478.062-.257 0-.441-.062-.527-.184-.037-.05-.037-.062-.037-.062.012-.036.098-.098.135-.135.123-.11.343-.294.245-.552-.135-.405-.478-.466-.797-.515l-.197-.037-.036-.012c-.332-.05-.65-.147-.749-.601M16.528 48.074l.024.024c.05.05.11.086.16.123.22.172.282.233.282.319-.025.012-.074.012-.098.024-.184.037-.663.123-.59.688.062.466.492.81 1.277 1.042-.012.307.037.356.049.38s.061.05.086.038h.024c.062 0 .086 0 .184-.368.356 0 1.215-.037 1.534-.553a.5.5 0 0 0 .074-.404c-.05-.21-.246-.32-.38-.405a.3.3 0 0 1-.074-.05c.037-.036.135-.073.38-.122l.197-.037c.282-.049.932-.172 1.08-.834.159-.663-.43-.81-.7-.871-.086-.025-.22-.062-.258-.086.086-.086.479-.11.687-.11h.098c.504-.038.872-.185 1.093-.467.184-.233.257-.54.196-.908-.037-.22-.184-.601-.749-.601-.16 0-.33.036-.49.061a1.7 1.7 0 0 1-.32.037h-.024c-.037-.098-.037-.258.32-.454.44-.245.698-.638.698-1.08.013-.466-.27-.92-.748-1.202-.564-.344-1.24-.27-1.644.16-.258.281-.38.686-.344 1.128s-.024.589-.171.663c-.05-.062-.123-.197-.185-.295-.171-.319-.392-.724-.797-.724-.16 0-.307.062-.466.184-.369.307-.577.675-.59 1.068-.012.392.16.797.491 1.116l.148.148c.257.245.454.453.355.564a.8.8 0 0 1-.245-.074c-.135-.049-.294-.11-.454-.11-.208 0-.49.098-.638.564-.22.798.295 1.24.528 1.424m-.05-1.289c.062-.208.123-.208.16-.208.074 0 .184.037.282.073.135.05.283.099.417.099a.5.5 0 0 0 .405-.197c.368-.466-.098-.92-.417-1.227-.049-.049-.098-.086-.135-.135-.233-.22-.356-.49-.343-.736.012-.245.16-.49.405-.7.085-.073.135-.073.147-.073.11 0 .258.294.356.466.16.282.306.577.6.577a.34.34 0 0 0 .16-.037c.602-.233.553-.859.528-1.19-.024-.307.05-.565.22-.748.246-.258.651-.295 1.02-.074.33.196.515.49.515.773 0 .258-.16.49-.454.65-.712.405-.626.884-.516 1.154.05.11.184.245.467.245.122 0 .257-.025.404-.05a2.4 2.4 0 0 1 .405-.048c.197 0 .233.061.246.184.037.22 0 .392-.086.515-.123.16-.38.258-.724.27h-.098c-.38.012-.81.037-1.03.27a.49.49 0 0 0-.136.393c.037.368.393.466.638.527.38.099.38.135.344.282-.074.32-.368.393-.687.454l-.197.037c-.355.074-.724.135-.81.577-.049.282.197.43.344.515.05.025.11.062.147.099 0 0 0 .012-.012.024-.061.11-.294.282-1.006.307.049-.27.123-.626.209-1.105.294-1.68 1.128-3.803 1.484-4.699.197-.515.197-.515.147-.564-.012-.013-.036-.013-.049-.013-.196 0-1.656 3.142-2.012 5.203-.086.49-.147.859-.184 1.129-.675-.209-.81-.467-.822-.602-.012-.06 0-.073 0-.073.024-.025.135-.05.196-.061.16-.037.442-.086.491-.369.086-.417-.196-.638-.454-.858-.049-.037-.098-.074-.147-.123l-.037-.025c-.27-.208-.503-.454-.38-.908M58.392 40.982c-.012.012-.012.012-.024.037a1 1 0 0 1-.16.16.175.175 0 0 0-.049.232.17.17 0 0 0 .135.074c.037 0 .062-.012.098-.025a.8.8 0 0 0 .233-.233c.025-.036.05-.061.062-.086.135.037.27.062.392.062.454 0 .81-.246.92-.626a.38.38 0 0 0-.11-.43c-.012-.012-.012-.012-.024-.012.024-.049.036-.098.061-.16.11-.343.086-.76-.061-1.042a.6.6 0 0 0-.221-.246.2.2 0 0 0-.135-.147c-.086-.024-.147.012-.196.05-.356-.025-.823.38-.982.895-.012.049-.037.11-.037.16-.012 0-.024-.013-.037-.013-.098 0-.27.074-.33.295a.88.88 0 0 0 .11.76c.098.099.22.209.355.295m.258-1.436c.135-.417.515-.7.65-.662.037.012.062.012.086 0 .025.024.05.036.074.049.024.012.061.049.11.123.086.171.135.49.05.785-.05.135-.111.258-.197.368h-.037c-.123 0-.27-.025-.393-.062a1.2 1.2 0 0 1-.392-.196 1.2 1.2 0 0 1 .049-.405m-.43.528a1.6 1.6 0 0 0 1.154.478c.061 0 .172 0 .282-.036-.098.208-.307.319-.577.319a1 1 0 0 1-.306-.05.9.9 0 0 1-.479-.33.63.63 0 0 1-.073-.381M57.142 42.233c.024 0 .06-.012.098-.024q.165-.055.294-.148c.074-.049.086-.159.037-.233a.174.174 0 0 0-.233-.037.6.6 0 0 1-.197.099c-.012 0-.024.012-.036.012-.098-.454-.442-.785-.884-.785a.4.4 0 0 0-.368.22v.037c-.049-.012-.11-.012-.172-.012-.54-.012-1.067.295-1.165.638a.18.18 0 0 0-.11.172c0 .086.048.135.097.172a.6.6 0 0 0 .16.294c.22.233.601.393.97.393h.159v.037a.42.42 0 0 0 .368.245h.024c.54-.012.933-.454.958-1.08m-1.498.467c-.319-.013-.6-.16-.736-.295-.061-.061-.086-.11-.086-.135 0-.037 0-.061-.024-.086.012-.024.024-.049.024-.086 0-.135.393-.405.835-.405.147 0 .282.037.417.086.037.11.061.258.061.43s-.036.331-.086.43a.9.9 0 0 1-.404.06m.626.27c.123-.185.197-.48.209-.749 0-.282-.062-.577-.172-.76.307.048.515.367.503.772-.012.393-.233.7-.54.736M58.957 52.687a.8.8 0 0 0 .442.123c.356 0 .7-.22.92-.577.025.013.061.013.098.025.074.012.148.024.221.024.037 0 .074 0 .11-.012.087-.012.16-.098.148-.184s-.098-.16-.184-.147a.7.7 0 0 1-.221-.013c-.012 0-.025 0-.037-.012.05-.16.074-.319.05-.478a.86.86 0 0 0-.418-.638.38.38 0 0 0-.22-.062.36.36 0 0 0-.222.074c-.012.012-.012.024-.024.024-.05-.036-.086-.06-.135-.098-.454-.282-1.068-.282-1.325-.024a.2.2 0 0 0-.184.098c-.05.074-.025.147 0 .196a.5.5 0 0 0 0 .331c.073.32.33.639.638.823l.147.073c0 .013-.012.013-.012.025a.43.43 0 0 0 .208.43m1.215-1.19a.88.88 0 0 1-.135.565c-.196.343-.552.503-.834.38.196-.098.404-.307.552-.552.147-.246.233-.528.233-.749.123.11.172.246.184.356m-1.877-.22c-.025-.087-.013-.136 0-.16a.2.2 0 0 0 .024-.086.15.15 0 0 0 .061-.062c.074-.122.54-.16.92.062.123.073.234.172.32.27-.025.11-.074.257-.16.405a1.6 1.6 0 0 1-.282.33 1.2 1.2 0 0 1-.393-.146c-.27-.16-.441-.43-.49-.614M62.528 50.614l-.025-.025a.27.27 0 0 0-.147-.037.4.4 0 0 0-.282.123.82.82 0 0 0-.27.614c0 .183.049.38.147.564-.012 0-.024.012-.037.012-.061.037-.135.05-.208.061-.086.013-.16.086-.148.185a.17.17 0 0 0 .172.147h.013a1 1 0 0 0 .319-.086c.036-.012.073-.037.098-.05.233.246.54.394.834.394.22 0 .43-.086.589-.234.16-.16.147-.343.11-.43 0-.011-.012-.011-.012-.024.05-.037.086-.073.123-.11.27-.246.442-.626.454-.945a.66.66 0 0 0-.074-.331c.013-.05.025-.135-.037-.197-.06-.06-.135-.06-.196-.06-.294-.197-.896-.074-1.288.294a.7.7 0 0 0-.135.135m-.147 1.276a.79.79 0 0 1-.246-.59.48.48 0 0 1 .11-.318c.037.208.185.466.381.687.196.208.442.368.663.417-.27.172-.65.086-.908-.196m1.374-1.424c.024.025.049.05.073.05.013.024.025.049.05.085.024.025.036.074.036.16 0 .184-.11.49-.343.711-.11.099-.221.172-.344.234a1.6 1.6 0 0 1-.356-.27 1.2 1.2 0 0 1-.245-.368 1.1 1.1 0 0 1 .258-.332c.306-.306.785-.368.87-.27M58.663 61.227a.39.39 0 0 0-.344-.209h-.049c-.012 0-.024.013-.037.013l-.073-.148c-.27-.466-.81-.76-1.154-.662-.049-.025-.122-.05-.196 0a.21.21 0 0 0-.098.172.53.53 0 0 0-.16.294c-.085.307-.024.712.16 1.03.024.05.061.099.086.136-.013.012-.025.012-.025.012-.061.073-.123.245-.012.442.16.282.454.441.785.441.209 0 .43-.061.626-.171l.074.073a.8.8 0 0 0 .282.172.1.1 0 0 0 .061.012.16.16 0 0 0 .147-.098.166.166 0 0 0-.085-.22.4.4 0 0 1-.184-.123c-.013-.013-.025-.013-.025-.025.343-.307.442-.76.22-1.141m-1.792-.454a.4.4 0 0 1 .074-.147c.037-.013.05-.037.061-.062a.2.2 0 0 0 .086-.024c.123-.074.552.122.773.503.074.123.123.258.148.392a1.5 1.5 0 0 1-.344.283 1.1 1.1 0 0 1-.417.147 1.3 1.3 0 0 1-.258-.32c-.147-.27-.172-.588-.123-.772m1.142 1.521a.93.93 0 0 1-.467.135.55.55 0 0 1-.454-.208c.221.012.503-.074.749-.221.245-.147.454-.344.564-.54.135.331-.086.663-.392.834M62.344 62.516c-.16-.32-.749-.503-1.276-.368-.05.012-.11.024-.16.049 0-.013-.012-.025-.012-.025a.41.41 0 0 0-.417-.135.9.9 0 0 0-.59.49 1.2 1.2 0 0 0-.098.467h-.036a.6.6 0 0 1-.209-.049.167.167 0 0 0-.22.086.166.166 0 0 0 .085.22c.098.05.209.074.32.087.048 0 .073.012.11.012.135.515.515.859.957.859.073 0 .147-.012.22-.025.221-.049.295-.22.307-.319v-.037c.05-.012.11-.012.16-.036.356-.086.687-.32.859-.602a.7.7 0 0 0 .098-.319c.037-.036.086-.098.061-.184a.25.25 0 0 0-.16-.171m-2.184.724a.9.9 0 0 1 .036-.577.53.53 0 0 1 .283-.282 1.54 1.54 0 0 0 0 .785c.061.258.208.528.368.687-.307.024-.59-.22-.687-.614m1.89-.234c-.099.16-.344.368-.651.454a1.2 1.2 0 0 1-.417.037 1.408 1.408 0 0 1-.209-.834 1.3 1.3 0 0 1 .38-.172c.43-.11.872.074.896.196.012.037.025.062.037.086a.1.1 0 0 0 0 .086c.012.012 0 .074-.037.147M51.595 70.356c0-.012-.012-.025-.012-.037.454-.123.76-.466.76-.908 0-.22-.146-.344-.232-.368h-.037c0-.05.012-.11 0-.172-.012-.54-.331-1.055-.675-1.141a.22.22 0 0 0-.172-.098.2.2 0 0 0-.171.11.74.74 0 0 0-.295.172c-.22.233-.368.614-.368.982 0 .061 0 .11.012.16h-.037a.41.41 0 0 0-.233.38c0 .527.479.92 1.092.92h.013c.012.024.012.061.036.098.037.11.086.209.16.294a.2.2 0 0 0 .135.062.2.2 0 0 0 .11-.037c.074-.061.086-.16.025-.233a.46.46 0 0 1-.11-.184m-.6-2.209c.06-.061.11-.086.134-.086a.2.2 0 0 0 .086-.024c.024.012.05.012.086.012h.012c.135 0 .43.38.43.822 0 .147-.025.282-.074.417-.11.037-.258.074-.442.074a1.3 1.3 0 0 1-.417-.061 1.5 1.5 0 0 1-.086-.418c0-.306.135-.6.27-.736m-.516 1.374c.184.11.466.184.76.184.295 0 .577-.085.749-.196-.037.307-.343.528-.748.528h-.013c-.343 0-.687-.184-.748-.516M53.926 71.522c-.049-.013-.11-.025-.16-.037v-.037a.38.38 0 0 0-.294-.319.8.8 0 0 0-.233-.037c-.343 0-.65.209-.834.54-.012 0-.025-.012-.037-.024a.6.6 0 0 1-.16-.148c-.048-.073-.159-.085-.233-.036a.174.174 0 0 0-.036.233c.061.086.147.16.245.233.037.024.061.049.086.061-.086.32-.05.638.086.896a.87.87 0 0 0 .527.405.4.4 0 0 0 .123.012.37.37 0 0 0 .307-.147c0-.012.012-.012.012-.025a.6.6 0 0 0 .16.05c.122.036.257.048.392.048.233 0 .466-.049.65-.16a.65.65 0 0 0 .246-.232.2.2 0 0 0 .147-.135c.025-.086-.012-.147-.049-.197.012-.355-.417-.81-.945-.944m-1.018 1.374a.48.48 0 0 1-.245-.22.8.8 0 0 1-.05-.639c.099-.356.356-.601.639-.601h.06c-.17.16-.306.43-.38.687-.085.27-.085.564-.024.773m1.62-.344c-.013.025-.037.05-.05.074-.012.025-.036.074-.122.11-.16.099-.479.16-.785.074a1.1 1.1 0 0 1-.38-.184c-.013-.11 0-.27.048-.43q.074-.257.184-.404c.135-.013.282 0 .417.037.43.122.724.49.688.613q-.02.075 0 .11M49.963 70.675c-.466 0-.87.27-1.14.736-.148.258-.27.392-.381.392-.025 0-.05 0-.074-.012-.012-.073.012-.245.025-.368.036-.343.086-.724-.123-.994a.67.67 0 0 0-.479-.233c-.846-.11-1.337.393-1.35 1.362v.135c0 .184 0 .614-.097.687-.037-.024-.086-.184-.11-.282-.074-.27-.21-.712-.688-.712a.8.8 0 0 0-.233.037c-.65.184-.748.834-.798 1.141l-.024.184c-.037.295-.062.393-.11.43-.025-.025-.037-.062-.062-.086-.098-.16-.245-.393-.528-.393a.6.6 0 0 0-.306.098c-.491.32-.516 1.13-.503 1.534-1.105.209-1.092.295-1.092.368v.062c.024.086.122.086.245.086.184 0 .49-.025.92-.086.258.773.626 1.19 1.105 1.239h.086c.49 0 .564-.442.588-.626 0-.024.013-.073.025-.098.086 0 .172.098.331.27.05.049.098.11.148.16l.024.024c.16.172.49.54 1.03.54q.222 0 .442-.074c.258-.086.418-.208.491-.392.123-.258.012-.528-.073-.737a1.5 1.5 0 0 1-.086-.245c.037-.025.049-.025.073-.025.135 0 .38.234.553.393l.122.123c.32.282.687.441 1.055.441.307 0 .761-.11 1.166-.638.147-.208.196-.404.147-.6-.086-.332-.441-.504-.748-.651-.098-.05-.246-.123-.307-.172.061-.147.196-.233.528-.233h.135c.613.05 1.116-.209 1.362-.663.233-.43.184-.944-.123-1.398-.282-.467-.712-.724-1.166-.724m.871 1.877c-.135.258-.417.405-.785.405h-.258c-.196 0-.785 0-1.006.601-.147.405.27.601.577.749.184.085.454.22.479.33.012.05-.037.136-.062.173-.22.282-.478.43-.76.43-.246 0-.504-.111-.724-.32-.037-.037-.086-.073-.123-.11-.27-.258-.565-.528-.896-.528a.58.58 0 0 0-.368.123c-.319.245-.172.613-.074.834.05.123.11.282.086.344-.012.037-.098.086-.196.122a.8.8 0 0 1-.282.05c-.32 0-.528-.221-.663-.369l-.024-.036a2 2 0 0 1-.135-.148c-.197-.22-.393-.441-.712-.441-.049 0-.11.012-.16.024-.282.062-.33.344-.355.503-.013.062-.025.172-.05.197 0 0-.036.012-.085 0-.172-.025-.43-.184-.65-.81.122-.025.257-.037.392-.062 2.135-.38 5.154-1.816 5.203-1.975V72.6c0-.012 0-.012-.013-.025 0-.012-.012-.012-.012-.024a.1.1 0 0 0-.061-.025c-.025 0-.025 0-.258.099-.773.306-3.104 1.227-4.945 1.546-.135.024-.27.049-.392.061 0-.724.16-.957.27-1.018.012-.013.024-.013.024-.013.037.025.086.11.11.16.099.16.234.392.528.331.454-.098.503-.49.552-.871l.025-.184c.049-.331.123-.638.441-.724.148-.037.197-.037.307.331.074.258.184.602.552.638a.5.5 0 0 0 .418-.147c.233-.233.233-.663.22-1.03v-.136c0-.883.454-.883.614-.883.049 0 .11 0 .172.012.098.013.135.037.135.05.085.098.049.404.012.613-.05.343-.086.736.233.871a.9.9 0 0 0 .307.061c.417 0 .675-.368.822-.65.172-.307.417-.479.7-.479.282 0 .564.172.772.491.197.307.233.638.098.896M58.687 66.245c-.086 0-.184 0-.27.012a1.5 1.5 0 0 1-.343 0c-.012-.147.049-.282.49-.49.504-.27.81-.724.81-1.215 0-.479-.282-.908-.76-1.153-.602-.307-1.264-.246-1.645.147-.233.245-.355.601-.33.994-.013.441-.148.503-.234.527-.05-.061-.098-.208-.147-.319-.135-.356-.332-.834-.81-.834a.8.8 0 0 0-.294.061q-.516.203-.663.626c-.123.331-.061.736.172 1.203l.049.085c.073.135.294.528.245.638-.049-.024-.147-.122-.208-.171-.16-.16-.369-.356-.626-.356-.172 0-.331.086-.466.233-.491.478-.258 1.092-.16 1.35l.074.184c.098.245.122.343.098.392l-.074-.037c-.11-.06-.245-.135-.405-.135-.122 0-.306.05-.441.283-.32.54.16 1.35.343 1.632-.282.282-.282.306-.258.355 0 .013.013.025.025.037.012.013.012.025.024.025a.2.2 0 0 0 .074.024c.074 0 .197-.061.38-.184.246.221.7.577 1.19.577.111 0 .222-.025.332-.061.54-.221.356-.7.282-.871-.012-.037-.024-.074-.037-.099a.2.2 0 0 1 .074-.024c.074 0 .196.049.344.098.06.025.122.037.184.061l.049.013c.135.049.355.122.6.122.345 0 .651-.135.909-.417.16-.196.233-.393.22-.577-.036-.282-.245-.454-.429-.589-.061-.049-.184-.147-.184-.184.012-.036.025-.073.16-.073.147 0 .331.049.527.098.062.012.135.037.184.049.16.037.307.061.454.061.724 0 1.24-.49 1.362-1.288.037-.233-.012-.43-.135-.564-.22-.221-.515-.246-.736-.246m.344.736c-.098.675-.528.994-1.19.823-.062-.013-.123-.037-.184-.05a2.5 2.5 0 0 0-.65-.11c-.418 0-.565.245-.626.393-.148.368.147.6.343.76.098.086.233.184.233.258 0 .05-.037.123-.098.196a.7.7 0 0 1-.528.246c-.171 0-.319-.05-.441-.086l-.05-.012c-.06-.025-.122-.037-.171-.062-.184-.061-.344-.123-.503-.123a.63.63 0 0 0-.454.185c-.209.196-.11.454-.05.613.025.061.062.16.062.184 0 0-.024.025-.061.037-.233.086-.54-.037-.933-.368.233-.184.503-.43.822-.724 1.608-1.423 3.436-4.233 3.411-4.393 0-.024-.024-.049-.049-.061h-.024c-.05 0-.05 0-.197.196-1.337 1.767-2.49 3.092-3.435 3.939-.344.307-.601.552-.798.736-.392-.675-.331-.932-.27-1.03.013-.013.013-.025.013-.025.036.012.11.049.16.073.097.05.22.123.355.123a.35.35 0 0 0 .258-.11c.306-.307.184-.65.049-.982l-.074-.184c-.11-.307-.196-.589.05-.834.048-.062.085-.074.11-.074.06 0 .196.123.282.209.16.147.331.319.564.319a.5.5 0 0 0 .221-.05.54.54 0 0 0 .27-.318c.098-.32-.11-.687-.294-1.019l-.05-.073c-.171-.32-.22-.602-.147-.786.05-.147.184-.245.393-.33.049-.013.086-.025.11-.025.135 0 .246.282.344.515.122.294.245.638.576.638h.05c.466-.061.699-.405.711-1.03-.012-.27.05-.492.197-.639.22-.233.638-.258 1.042-.049.307.16.491.417.491.712 0 .306-.196.601-.527.773-.405.184-.86.466-.761 1.055.037.258.245.393.613.393.074 0 .16 0 .246-.013.086 0 .16-.012.245-.012.233 0 .307.037.332.061.012-.012.024.05.012.135M63.178 55.043c-.27 0-.528.172-.761.307-.098.061-.22.147-.307.172-.073-.123-.11-.295.148-.663.319-.466.38-1.006.159-1.448-.22-.417-.663-.663-1.19-.663h-.061c-.565.025-1.031.283-1.252.688-.209.38-.184.846.074 1.276.22.392.171.503.086.564a2 2 0 0 1-.283-.208c-.233-.197-.503-.405-.81-.405a.6.6 0 0 0-.515.282c-.245.294-.356.589-.307.896.05.343.307.662.749.944l.11.062c.148.098.516.306.528.417h-.025c-.061 0-.171-.025-.257-.05a1.7 1.7 0 0 0-.418-.073c-.306 0-.527.172-.613.503-.184.65.307 1.056.552 1.252l.147.123c.209.171.283.245.295.294h-.098c-.16 0-.38 0-.54.16-.098.098-.135.22-.135.392.012.601.736 1.043 1.067 1.227-.11.38-.073.43-.061.466l.074.037h.012l.024.012c.05 0 .11 0 .283-.38.16.037.417.086.687.086.43 0 .736-.123.932-.38.344-.454-.037-.773-.172-.896-.024-.012-.049-.05-.073-.062.037-.06.123-.085.393-.134.06-.013.135-.025.208-.037l.037-.013c.282-.049.957-.184 1.141-.993.061-.258.037-.454-.074-.614-.16-.233-.441-.282-.662-.319a2 2 0 0 1-.246-.049c-.012-.147.258-.233.626-.331.062-.013.11-.037.16-.05.441-.122.773-.392.957-.736.184-.355.196-.773.024-1.227-.171-.343-.43-.429-.613-.429m-3.583 6.466.012-.012s.013 0 .013.012zm3.706-5.018c-.123.233-.344.405-.65.49-.05.013-.111.025-.16.05-.442.122-1.043.282-.994.859.037.392.43.454.662.503.123.024.283.049.332.098.012.012.037.074 0 .233-.099.454-.43.552-.749.614l-.037.012-.196.037c-.331.06-.663.11-.797.515-.099.27.122.454.245.564.049.037.135.11.135.135 0 0 0 .025-.037.074-.098.123-.27.184-.527.184-.172 0-.344-.025-.48-.061.1-.258.234-.577.381-1.007.736-2.134.92-5.386.835-5.496l-.074-.037c-.086 0-.086 0-.16.515-.134.97-.466 3.227-1.03 4.871-.147.417-.27.736-.344.994-.613-.368-.711-.626-.711-.748v-.025c.036-.012.122-.012.171-.012.172 0 .454-.012.553-.282.147-.43-.148-.675-.442-.908l-.147-.123c-.258-.209-.479-.43-.38-.736.036-.135.073-.135.134-.135.086 0 .184.024.295.061.122.037.257.074.392.074.233 0 .356-.11.417-.197a.49.49 0 0 0 .099-.404c-.062-.32-.43-.553-.761-.749l-.11-.061c-.307-.197-.491-.393-.516-.59-.024-.146.037-.318.197-.502.06-.086.11-.086.122-.086.123 0 .344.172.503.294.221.172.405.32.614.32a.38.38 0 0 0 .233-.074c.589-.405.22-1.043.098-1.252-.172-.282-.184-.564-.061-.785.135-.258.454-.417.834-.43h.05c.343 0 .613.148.735.393.135.27.099.601-.122.92-.123.184-.516.736-.11 1.3.085.1.195.16.33.16.197 0 .393-.122.602-.257.16-.098.368-.233.49-.233.025 0 .074 0 .136.135.122.282.122.564 0 .785M59.877 42.405c-.405-.43-1.08-.503-1.644-.16-.478.295-.76.749-.748 1.203.012.43.257.822.711 1.08.368.208.356.368.32.454h-.025c-.086 0-.197-.025-.32-.037-.146-.025-.318-.062-.49-.062-.564 0-.712.38-.748.602-.062.368 0 .675.196.908.22.27.589.43 1.092.466h.098c.209.012.601.024.687.11-.049.037-.184.062-.258.086-.282.074-.858.221-.699.871.147.663.81.786 1.08.835l.196.037c.258.049.344.073.38.122-.024.013-.049.037-.073.05-.135.085-.331.196-.38.404a.5.5 0 0 0 .073.405c.32.516 1.178.552 1.534.552.086.368.123.368.184.368h.025a.2.2 0 0 0 .085-.036c.025-.025.062-.086.05-.38.785-.234 1.214-.577 1.263-1.044.074-.564-.405-.65-.589-.687a.3.3 0 0 1-.098-.024c0-.074.061-.148.282-.32.05-.036.099-.085.16-.122l.024-.025c.221-.184.749-.625.516-1.423-.135-.466-.418-.564-.638-.564-.16 0-.32.061-.454.11-.086.037-.197.074-.258.062-.086-.099.123-.307.368-.553l.135-.135c.331-.33.503-.724.49-1.116-.011-.393-.22-.76-.588-1.068a.73.73 0 0 0-.466-.184c-.405 0-.626.405-.798.724-.049.098-.123.233-.184.295-.147-.074-.209-.209-.172-.663.062-.454-.061-.859-.319-1.141m.356 2.27c.05.025.11.037.172.037.294 0 .454-.295.601-.577.098-.172.245-.466.356-.466.012 0 .061.012.147.073.258.209.405.454.405.7.012.258-.11.515-.343.748l-.135.135c-.307.307-.786.761-.418 1.227a.47.47 0 0 0 .405.197c.148 0 .282-.05.417-.099a1 1 0 0 1 .283-.073c.024 0 .086 0 .147.208.135.454-.11.688-.356.908l-.025.025c-.049.049-.098.086-.147.123-.27.208-.54.429-.454.846.05.282.332.332.491.368a1 1 0 0 1 .184.05s.012.024 0 .085c-.012.135-.147.38-.822.602a29 29 0 0 0-.184-1.13c-.356-2.06-1.816-5.202-2.012-5.202a.1.1 0 0 0-.062.025c-.049.049-.049.049.16.564.356.908 1.19 3.019 1.485 4.7.086.478.16.834.208 1.104-.711-.025-.932-.197-1.006-.307 0-.012-.012-.012-.012-.024a.8.8 0 0 1 .147-.099c.147-.086.393-.233.344-.515-.086-.442-.454-.503-.81-.577l-.197-.036c-.319-.062-.613-.135-.687-.454-.037-.148-.049-.184.344-.283.245-.061.613-.16.638-.527a.47.47 0 0 0-.135-.38c-.22-.246-.65-.258-1.03-.27h-.087c-.355-.025-.613-.111-.736-.27-.098-.123-.123-.295-.086-.516.025-.123.05-.184.246-.184.122 0 .257.025.405.05.147.024.282.048.404.048.283 0 .405-.135.467-.257.11-.258.184-.737-.516-1.142-.282-.159-.441-.392-.454-.65 0-.282.184-.577.516-.773.368-.22.773-.196 1.018.074.16.184.246.442.221.748-.037.32-.086.933.503 1.166M50.503 34.479c-.27.49-.307.993-.074 1.398.21.38.626.601 1.154.626.442 0 .503.135.515.233a2 2 0 0 1-.319.135c-.307.11-.662.233-.81.528-.073.16-.073.343-.012.54.245.76.92.993 1.804.576l.086-.049c.208-.11.466-.233.613-.233.025 0 .037 0 .037.012-.025.05-.123.148-.184.209-.172.16-.38.356-.38.638 0 .16.06.319.196.466q.294.331.736.331c.233 0 .454-.073.601-.122l.209-.074c.172-.061.319-.11.393-.086-.013.025-.037.062-.05.086-.085.135-.196.332-.135.54a.54.54 0 0 0 .258.32c.123.073.282.11.442.11.392 0 .81-.197 1.116-.356.234.257.27.257.307.257.025 0 .05-.012.074-.024h.024l.025-.05c.012-.036.049-.097-.135-.392.589-.589.81-1.117.626-1.558-.135-.344-.38-.393-.516-.393-.122 0-.233.037-.343.074a.2.2 0 0 1-.086.024c-.037-.073-.012-.16.086-.417a.7.7 0 0 0 .061-.172l.012-.036c.099-.27.344-.92-.245-1.51-.184-.171-.356-.257-.54-.257-.294 0-.49.22-.638.392-.061.062-.147.172-.196.184-.123-.049-.05-.33.061-.675.025-.073.037-.134.061-.196.135-.441.099-.846-.098-1.19-.208-.343-.564-.577-1.055-.675-.307-.049-.515.062-.613.16-.221.233-.221.6-.221.92 0 .11 0 .27-.013.343-.159 0-.294-.085-.478-.478-.233-.552-.687-.883-1.215-.883-.466 0-.895.282-1.14.723m.43.245c.16-.295.429-.466.711-.466.32 0 .601.22.761.589.172.38.43.785.932.785h.099c.417-.037.417-.503.417-.847 0-.196 0-.49.073-.564.013-.012.025-.025.086-.025.025 0 .062 0 .074.013.331.073.589.22.712.441.122.209.147.479.049.785-.013.062-.037.123-.05.185-.122.417-.318 1.055.222 1.276a.6.6 0 0 0 .208.049c.258 0 .43-.197.565-.356.085-.098.196-.221.257-.221.025 0 .086.012.184.11.332.332.246.663.123.97l-.012.037c-.025.061-.05.11-.062.16-.122.306-.245.637.013.968.049.062.159.148.319.148.098 0 .196-.037.294-.062a.6.6 0 0 1 .184-.049s.012.013.037.074c.049.135.061.43-.454.957-.16-.233-.393-.515-.7-.896-1.177-1.435-3.227-2.883-3.89-3.362-.294-.233-.306-.233-.343-.233h-.036l-.05.05v.036c0 .05 0 .05.307.258l.025.012c.785.626 2.54 2.16 3.656 3.51.295.367.528.637.712.846-.209.11-.528.245-.785.245a.4.4 0 0 1-.197-.037c-.012-.012-.024-.012-.024-.012a.7.7 0 0 1 .086-.16c.086-.147.233-.392.049-.613a.6.6 0 0 0-.466-.233c-.16 0-.32.05-.516.123l-.209.073c-.122.037-.282.098-.441.098a.43.43 0 0 1-.368-.171q-.074-.075-.074-.11c0-.074.135-.197.221-.283.184-.172.454-.43.294-.773a.53.53 0 0 0-.503-.307c-.27 0-.564.16-.834.295l-.086.037c-.22.098-.417.16-.589.16s-.392-.05-.527-.455c-.037-.098-.013-.147-.013-.16.05-.11.32-.208.516-.27.306-.11.675-.232.662-.588-.024-.344-.22-.736-1.006-.749-.343-.012-.589-.135-.724-.368-.11-.258-.074-.589.11-.92M27.325 58.675l1.117-2.945h-.639l-.588 1.534c-.086.22-.172.49-.246.76h-.012a7 7 0 0 0-.245-.773l-.577-1.521h-.675l1.129 2.945zM30.957 58.184H29.84v-.785h1.068v-.467H29.84v-.724h1.117v-.478h-1.73v2.945h1.73zM33.153 58.675v-2.43h.81v-.515h-2.245v.515h.822v2.43zM36.577 56.209v-.479h-1.73v2.945h1.73v-.491H35.46v-.785h1.068v-.467H35.46v-.724zM39.546 57.3l-.994-1.57h-.81v2.945h.601v-1.546c0-.27 0-.454-.012-.614.074.172.184.38.307.565l1.018 1.595h.81V55.73h-.589v1.3c0 .381 0 .663.012.847-.122-.208-.233-.392-.343-.577M42.258 58.221c-.246 0-.479-.05-.65-.11l-.025.552c.16.037.405.073.601.073.749 0 1.276-.392 1.276-.994 0-.92-1.313-.699-1.313-1.202 0-.22.16-.368.54-.368.172 0 .405.037.565.086l.024-.516a4 4 0 0 0-.564-.049c-.773 0-1.203.369-1.203.92 0 .958 1.3.688 1.3 1.203 0 .282-.269.405-.551.405M44.54 55.73v2.945h.614v-1.387l1.092 1.387h.81l-1.264-1.534 1.202-1.411h-.748l-1.093 1.313V55.73zM48.368 58.098h1.227l.209.577h.674l-1.116-2.945h-.724l-1.116 2.945h.613zm.466-1.276c.062-.147.11-.319.148-.454.036.135.098.307.16.466l.306.822h-.933zM52.332 55.718c-.344 0-.712.012-.97.012v2.945h.614v-.97c.073.013.184.013.258.013.748 0 1.263-.405 1.263-1.055.013-.59-.417-.945-1.165-.945m-.086 1.509c-.074 0-.197 0-.258-.025v-.993h.295c.38 0 .576.208.576.503 0 .343-.233.515-.613.515M27.337 63.644c.847 0 1.546-.577 1.546-1.546 0-.994-.6-1.497-1.447-1.497-.81 0-1.534.589-1.534 1.546 0 .884.466 1.497 1.435 1.497m.05-2.515c.503 0 .834.343.834 1.006 0 .662-.38.97-.859.97-.577 0-.822-.443-.822-1.007.012-.626.405-.97.847-.97M31.03 63.632c.295 0 .553-.05.798-.135l-.049-.54a1.4 1.4 0 0 1-.613.135c-.59 0-.92-.331-.92-.97 0-.588.306-1.006.895-1.006.209 0 .417.037.626.099l.061-.54a2.3 2.3 0 0 0-.638-.074c-1.104 0-1.583.736-1.583 1.57-.024.909.467 1.46 1.424 1.46M35.411 63.595V60.65h-.613v1.166H33.41V60.65h-.613v2.945h.613v-1.251h1.387v1.251zM38.638 62.209l1.092 1.386h.81l-1.264-1.534 1.202-1.41h-.748l-1.092 1.312V60.65h-.614v2.945h.614zM42.38 63.644c.847 0 1.546-.577 1.546-1.546 0-.994-.6-1.497-1.447-1.497-.822 0-1.534.589-1.534 1.546 0 .884.478 1.497 1.435 1.497m.062-2.515c.503 0 .834.343.834 1.006 0 .662-.38.97-.859.97-.577 0-.81-.443-.81-1.007-.012-.626.38-.97.835-.97M45.705 62l1.019 1.595h.81V60.65h-.602v1.301c0 .38 0 .663.012.847-.098-.209-.208-.393-.319-.577l-.993-1.57h-.822v2.944h.6V62.05c0-.27-.011-.454-.011-.613h.012c.073.171.184.38.294.564M49.325 63.141c-.245 0-.478-.05-.65-.11l-.025.552c.16.037.405.073.602.073.748 0 1.276-.392 1.276-.994 0-.92-1.313-.699-1.313-1.202 0-.22.16-.368.54-.368.171 0 .404.037.564.086l.024-.528a4 4 0 0 0-.564-.049c-.773 0-1.202.368-1.202.92 0 .957 1.3.687 1.3 1.203 0 .294-.27.417-.552.417M52.565 63.595v-2.43h.81v-.515h-2.246v.516h.822v2.43zM29.718 52.295l-.074-.012c-1.546-.197-1.558-.504-1.595-1.78V48.27l2.59 2.81c.98 1.08 1.533 1.669 2.956 1.669.27 0 .565-.025.908-.062l.074-.012v-.343h-.086c-.859-.037-1.338-.528-2.27-1.497-.123-.135-.27-.282-.417-.43l-2.516-2.797 1.019-1.043.22-.233c.847-.896 1.817-1.914 3.105-2.05l.074-.012v-.343h-3.4v.343l.074.013c.344.036.516.11.565.245.098.245-.209.76-.92 1.558l-1.976 2.11v-2.122c.037-1.288.05-1.595 1.252-1.791l.073-.013v-.343h-4.147v.343l.074.013c1.435.196 1.448.503 1.484 1.779v4.405c-.037 1.288-.049 1.595-1.484 1.791l-.074.012v.344h4.49zM41.043 52.295l-.074-.012c-1.62-.197-1.68-.565-1.68-2.086V44.49h.674c1.485 0 2.086.454 2.491 1.89l.025.073.319-.073-.16-2.454h-7.95l-.16 2.454.319.073.024-.073c.405-1.436 1.006-1.89 2.491-1.89h.675v5.706c0 1.521-.061 1.89-1.68 2.086l-.075.012v.343h4.773zM53.816 44.307l.074-.012v-.344h-4.491v.344l.073.012c1.596.233 1.596.442 1.596 1.78v1.73H46.54v-1.73c0-1.35 0-1.547 1.595-1.78l.074-.012v-.344h-4.491v.344l.073.012c1.436.196 1.448.503 1.485 1.78v4.404c-.037 1.288-.049 1.595-1.485 1.791l-.073.013v.343h4.49v-.343l-.073-.013c-1.595-.233-1.595-.441-1.595-1.779v-1.987h4.528v1.987c0 1.35 0 1.546-1.596 1.78l-.073.012v.343h4.49v-.343l-.073-.013c-1.436-.196-1.448-.49-1.485-1.779v-4.405c.037-1.288.05-1.595 1.485-1.791M29.006 32.589a.94.94 0 0 0 .062.945c.331.503.883.417.895.417.38.478 1.019 1.067 1.546.908 0 0 3.301-1.534 7.865-1.534 4.577 0 7.878 1.534 7.878 1.534.527.147 1.165-.43 1.546-.908.024 0 .576.086.895-.417a.97.97 0 0 0 .062-.957c.27-.442.7-.835.7-.835a.97.97 0 0 0 .318-.724.985.985 0 0 0-.981-.981c-.05 0-.086 0-.123.012-.012-.024-.012-.049-.025-.086a.82.82 0 0 0 .454-.724.82.82 0 0 0-.822-.822.96.96 0 0 0-.417.11.5.5 0 0 1-.074-.085.7.7 0 0 0 .21-.479.673.673 0 0 0-1.228-.38 1 1 0 0 0-.123-.074.615.615 0 0 0-.49-.982c-.27 0-.491.172-.577.406-.061-.025-.135-.05-.196-.086a.6.6 0 0 0 .073-.283.563.563 0 0 0-.564-.564.566.566 0 0 0-.552.479c-.037-.013-.086-.025-.123-.037a.766.766 0 0 0-.97-.528c-.024-.024-.06-.049-.085-.074v-.036a.66.66 0 0 0-1.043-.54c-.025-.012-.05-.025-.074-.025v-.012a.59.59 0 0 0-.601-.589.58.58 0 0 0-.515.307c-.05-.012-.099-.012-.135-.025v-.024a.54.54 0 0 0-1.068-.11c-.049 0-.11-.013-.16-.013a1.4 1.4 0 0 0 .099-.503c0-.49-.282-.92-.687-1.141 0 0-.148-.074-.368-.123v-.981h.552c.012-.025.049-.099.049-.233 0-.136-.037-.21-.05-.234h-.551v-.552c-.025-.024-.099-.061-.234-.061s-.208.037-.233.061v.552h-.552c-.024.025-.061.099-.061.233 0 .135.037.209.061.234h.552v.981c-.208.037-.368.123-.368.123-.405.22-.687.638-.687 1.141 0 .172.037.343.098.503-.049 0-.11.012-.16.012a.54.54 0 0 0-1.067.11v.025c-.049.013-.098.013-.135.025a.58.58 0 0 0-.515-.307.6.6 0 0 0-.601.589v.012a.2.2 0 0 1-.074.025.66.66 0 0 0-1.043.54v.037c-.024.024-.061.049-.086.073a.7.7 0 0 0-.233-.037.79.79 0 0 0-.748.565c-.05.012-.086.024-.123.037a.556.556 0 0 0-.552-.479.57.57 0 0 0-.491.847c-.061.024-.135.049-.196.086a.614.614 0 0 0-1.19.208c0 .135.049.258.122.368-.037.025-.073.05-.122.074a.7.7 0 0 0-.553-.295.673.673 0 0 0-.675.675c0 .197.074.368.21.491-.025.025-.05.05-.075.086a.8.8 0 0 0-.417-.11.82.82 0 0 0-.822.822c0 .319.184.588.454.724-.012.024-.012.049-.024.085-.037 0-.086-.012-.123-.012a.984.984 0 0 0-.982.982c0 .282.123.54.32.724.024 0 .441.392.723.834m.847 1.018a.6.6 0 0 1-.601-.6.66.66 0 0 1 .098-.344c.11-.16.294-.27.503-.27.208 0 .393.11.503.27.061.098.11.208.11.343a.62.62 0 0 1-.613.601m9.534-1.975a.602.602 0 0 1 0-1.203.602.602 0 0 1 0 1.203m0-4.663c.331 0 .6.27.6.602 0 .33-.269.588-.6.588a.594.594 0 1 1 0-1.19m-.467-.662a.466.466 0 1 1 .933 0 .466.466 0 0 1-.933 0m.467 2.073c.405 0 .736.332.736.737a.78.78 0 0 1-.184.49.96.96 0 0 0-.552-.184.93.93 0 0 0-.553.184.738.738 0 0 1 .552-1.227m9.533 5.227a.6.6 0 0 1-.6-.6c0-.16.06-.308.171-.418a.599.599 0 0 1 1.03.417c0 .331-.27.601-.6.601m.884-3.227c.356 0 .65.295.65.65 0 .234-.233.516-.43.651a.94.94 0 0 0-.71-.331h-.075a.7.7 0 0 1-.085-.32c0-.355.294-.65.65-.65m-.528-1.62a.492.492 0 0 1 0 .982c-.27 0-.49-.22-.49-.49s.22-.491.49-.491m-.957-1.128c.197 0 .344.16.344.343s-.16.344-.344.344a.343.343 0 1 1 0-.687m-1.165-.773c.16 0 .282.123.282.282 0 .16-.123.282-.282.282a.28.28 0 0 1-.283-.282c0-.16.123-.282.283-.282m-1.252-.515a.22.22 0 0 1 .22.22.22.22 0 0 1-.22.221.22.22 0 0 1-.22-.22c0-.111.097-.221.22-.221m-.736.687c1.89.6 2.871 1.521 3.325 2.43.368.834.307 1.03.331 1.57.012.184.062.306.098.417-.429.233-.478.564-.49.589-.013-.012-.037-.025-.05-.037a.88.88 0 0 0-.576-.209c-.687.013-1.117.675-.835 1.326a.924.924 0 0 0 1.203.454c.049.06.098.11.147.16a.94.94 0 0 1-1.178.44 1.49 1.49 0 0 1-.895-.98c-.332.294-.81.44-1.277.343a.93.93 0 0 1-.736-1.105c.013-.049.05-.233.074-.306.061.356.343.65.712.724a.916.916 0 0 0 1.067-.724.907.907 0 0 0-.724-1.068c-.049-.012-.11 0-.172 0 .013-.037.037-.086.037-.086a.7.7 0 0 0 0-.319c.454-.122.786-.527.786-1.018 0-.393-.221-.736-.528-.92a.85.85 0 0 0 .442-.761.88.88 0 0 0-.798-.871s.025-.025.037-.05m-.663 2.883c-.073-.012-.147-.024-.22-.012a.717.717 0 0 1 .675-.982c.404 0 .723.32.723.724a.72.72 0 0 1-.564.7.98.98 0 0 0-.614-.43m1.08-1.939a.55.55 0 0 1-.552.553.55.55 0 0 1-.552-.552.55.55 0 0 1 .552-.553.55.55 0 0 1 .552.553m-1.104-1.766a.44.44 0 0 1 .441.441.44.44 0 0 1-.441.442.44.44 0 0 1-.442-.442c0-.233.196-.441.442-.441m-.295 4.699a.602.602 0 0 1 0 1.203.602.602 0 0 1 0-1.203m-.675-5.423a.32.32 0 0 1 .32.331.317.317 0 0 1-.32.319.317.317 0 0 1-.319-.319.31.31 0 0 1 .32-.331m-1.055-.516a.26.26 0 0 1 .258.258.26.26 0 0 1-.258.258.26.26 0 0 1-.258-.258.26.26 0 0 1 .258-.258m-1.19-.282c.11 0 .209.098.209.209s-.099.208-.209.208a.215.215 0 0 1-.209-.208c0-.11.086-.209.209-.209m2.368 5.178.135.233a.92.92 0 0 0-.331.54v.098c-.05-.024-.098-.049-.148-.061a.907.907 0 0 0-1.067.724c-.098.49.22.97.724 1.067a.895.895 0 0 0 .932-.405c-.012.074-.036.258-.049.307a.93.93 0 0 1-1.104.736 1.42 1.42 0 0 1-1.018-.797c-.27.356-.675.589-1.154.589a.945.945 0 0 1-.944-.945c0-.05.012-.233.012-.307a.93.93 0 0 0 .846.577.906.906 0 0 0 .908-.908.906.906 0 0 0-.908-.908c-.049 0-.11.024-.16.037.013-.05.013-.098.013-.098a1 1 0 0 0-.037-.258l.332-.209s-.062-3.08-.614-4.466c.013-.012.037-.024.05-.037 4.502.258 4.11 3.387 3.582 4.491m-3.3-5.669v.062c0 .184-.05.355-.148.503h-.306c.012-.037.012-.074.012-.123a.53.53 0 0 0-.258-.442zm-.712-.846c.27.061.503.257.626.49h-.626zm-.233 1.067c.11 0 .208.098.208.209s-.098.208-.208.208a.215.215 0 0 1-.209-.208c0-.11.098-.209.209-.209m0 .614c.172 0 .319.135.319.319a.307.307 0 0 1-.32.306.304.304 0 0 1-.306-.306.307.307 0 0 1 .307-.32m-.233-1.681v.49h-.614a.95.95 0 0 1 .614-.49m-.712.846h.7a.49.49 0 0 0-.258.442c0 .037 0 .086.012.123h-.307a.9.9 0 0 1-.147-.503zm-.92.491c.11 0 .208.098.208.209s-.098.208-.208.208a.215.215 0 0 1-.209-.208c-.012-.11.086-.209.209-.209m-1.203.282a.26.26 0 0 1 .258.258c0 .147-.11.258-.258.258a.26.26 0 0 1-.258-.258.26.26 0 0 1 .258-.258m-1.055.516a.32.32 0 0 1 .319.331.317.317 0 0 1-.319.319.327.327 0 0 1-.331-.319c.012-.184.16-.331.331-.331m3.472-.11c.013.012.037.024.05.036-.553 1.374-.614 4.466-.614 4.466l.331.209a1 1 0 0 0-.037.258s.013.049.013.098c-.05-.012-.11-.037-.16-.037a.906.906 0 0 0-.908.908.908.908 0 0 0 1.755.331c.012.074.012.258.012.307a.943.943 0 0 1-.932.945c-.479 0-.884-.233-1.154-.59a1.41 1.41 0 0 1-1.018.798.94.94 0 0 1-1.105-.736c-.012-.049-.036-.233-.049-.307a.9.9 0 0 0 .933.405.926.926 0 0 0 .724-1.067.916.916 0 0 0-1.068-.724.8.8 0 0 0-.147.061v-.098a.95.95 0 0 0-.331-.54l.135-.233c-.552-1.104-.945-4.233 3.57-4.49m-3.546 6.122a.602.602 0 0 1-1.202 0c0-.331.27-.601.601-.601a.61.61 0 0 1 .601.601m-1.521-1.141a.72.72 0 0 1-.564-.7c0-.404.319-.723.723-.723a.717.717 0 0 1 .675.981c-.073 0-.147 0-.22.012a.85.85 0 0 0-.614.43m.626-4.147a.44.44 0 0 1 .441.441.44.44 0 0 1-.441.442.44.44 0 0 1-.442-.442c0-.233.196-.441.442-.441m-.553 1.214a.55.55 0 0 1 .553.553.55.55 0 0 1-.553.552.55.55 0 0 1-.552-.552.55.55 0 0 1 .553-.553m-.87-1.08a.22.22 0 0 1 .22.221.22.22 0 0 1-.22.221.22.22 0 0 1-.221-.22c0-.111.098-.221.22-.221m-1.252.516c.16 0 .282.123.282.282 0 .16-.123.282-.282.282a.28.28 0 0 1-.282-.282c0-.147.122-.282.282-.282m1.988.172c.012.024.024.049.049.073a.88.88 0 0 0-.798.872c0 .33.184.613.442.76a1.06 1.06 0 0 0-.528.92c0 .491.331.896.785 1.019a1.4 1.4 0 0 0 0 .319s.013.049.037.086c-.061 0-.11-.012-.172 0a.916.916 0 0 0-.723 1.067c.098.491.576.81 1.067.724a.89.89 0 0 0 .712-.724c.024.074.061.258.073.307a.946.946 0 0 1-.736 1.104 1.47 1.47 0 0 1-1.276-.343c-.123.43-.442.797-.896.981a.95.95 0 0 1-1.178-.441.6.6 0 0 0 .148-.16.923.923 0 0 0 1.202-.454c.282-.65-.147-1.325-.834-1.325a.93.93 0 0 0-.59.209c-.011.012-.036.024-.048.036 0-.024-.062-.355-.491-.589.037-.11.086-.233.098-.417.025-.527-.037-.724.331-1.57.454-.945 1.436-1.853 3.326-2.454m-3.154.6c.184 0 .344.16.344.345s-.16.343-.344.343a.343.343 0 0 1-.343-.343c0-.197.147-.344.343-.344m-1.448 1.62c0-.27.221-.49.491-.49s.49.22.49.49-.22.491-.49.491-.49-.22-.49-.49m-.037 1.13c.356 0 .65.294.65.65 0 .122-.036.22-.085.319h-.074a.96.96 0 0 0-.711.331c-.197-.123-.43-.405-.43-.65 0-.356.295-.65.65-.65M46.061 37.399c.086 0 .172-.05.197-.135.036-.11-.013-.233-.123-.27a19.2 19.2 0 0 0-6.675-1.19h-.147c-2.307 0-4.54.405-6.675 1.19a.2.2 0 0 0-.123.27.2.2 0 0 0 .27.122 18.7 18.7 0 0 1 6.528-1.165h.147c2.258 0 4.442.393 6.527 1.166.025.012.05.012.074.012"/><path fill="#fff" d="m47.337 36.16-.306-.823-.05-.122-.392.061a20.2 20.2 0 0 0-6.822-1.325l-.38-.221-.38.22c-2.357.038-4.651.492-6.823 1.326l-.393-.061-.049.122-.306.822.895.491.282-.343a19.1 19.1 0 0 1 6.332-1.215l.454.258.454-.258a19.1 19.1 0 0 1 6.331 1.215l.282.343zm-15.092.085c-.122-.061-.282-.16-.404-.233l.159-.441c.147.024.442.073.712.122-.184.209-.369.43-.467.552M36 35.178l-.712.147a.365.365 0 0 1-.43-.282.364.364 0 0 1 .283-.43l.712-.147a.365.365 0 0 1 .43.282.365.365 0 0 1-.283.43m3.386-.197-.748-.429.749-.43.748.43zm4.54.062a.365.365 0 0 1-.43.282l-.71-.147a.365.365 0 0 1-.283-.43.365.365 0 0 1 .43-.282l.711.147c.197.037.32.233.282.43m2.148.65c.27-.049.564-.098.711-.122.05.134.11.306.16.441-.123.074-.282.16-.405.233-.11-.122-.295-.343-.466-.552"/></svg>