<svg xmlns="http://www.w3.org/2000/svg" width="251" height="100" fill="none"><g clip-path="url(#a)"><mask id="b" width="705" height="498" x="-203" y="-122" maskUnits="userSpaceOnUse" style="mask-type:luminance"><path fill="#fff" d="M-202.011 375.91h703.886v-497.698h-703.886z"/></mask><g mask="url(#b)"><path fill="#E69F0A" d="M39.969 55.8c-1.089-1.257-2.485-.882-2.485-.882s.481.41.789 1.244c.305.835.305 1.31.305 1.31s-.613-.188-1.815.246c-1.254.458-1.212 1.852-1.212 1.852s1.093-.943 2.522-.33c1.227.526 1.707 2.175 1.707 2.175s.072-.63.284-1.024c.235-.437.552-.746.822-1.542.25-.742.167-1.794-.918-3.049"/><path fill="#E69F0A" d="M36.638 55.609c-.227-1.061-.014-1.448-.014-1.448s.986-.726 2.32-.164a2.32 2.32 0 0 1 1.317 1.46s.74-.612.821-1.543c.085-.931-.364-1.562-.891-2.024-.531-.46-1.614-.918-1.614-.918s.781-.423 1.004-.86a3 3 0 0 0 .193-.511c.081-.263.153-.52.326-.775.28-.42.972-.811.972-.811s-1.094-.445-2.211.037c-1.12.481-1.4.95-2.65 1.458q-.118.048-.233.088h-.007c-1.334.447-2.26.008-2.26.008s.476.514.476 1.87-.102 2.443.492 3.674c.733 1.523 2.452 1.78 2.452 1.78s-.267-.257-.493-1.321m9.453 8.827c-.648-.742-1.018-2.082-1.802-3.47-1.232-2.178-2.767-2.66-2.767-2.66s.443 1.075-.023 1.967c-.63 1.197-1.154.716-1.154.716s.017.883.807 1.333c1.196.686 1.947-.198 1.947-.198s-.085 1.19 1.092 2.072c1.05.786 1.867.776 2.378.934.31.1.61.233.61.233s-.439-.182-1.088-.927M33.2 36.15c.507-.448.957-.44.957-.44s-.368-.221-.7-1.067c-.33-.846-.109-1.453-.109-1.453s-.665.586-.959 1.71c-.293 1.123.24 2.265.24 2.265s.075-.572.571-1.015"/><path fill="#E69F0A" d="M34.47 34.015c.287.824.33 1.364.35 1.822.013.351.202.645.202.645s-1.166.13-1.53.719c-.585.956.036 1.913.036 1.913s.167-.7.941-.846c.426-.082 1.178-.058 1.97.644.993.886 2.3.939 2.3.939s-.316-.83-.077-1.693.5-1.159 1.052-2.028c.553-.86.496-1.194.439-1.782-.054-.581-.386-1.196-.386-1.196s-.183.624-.696.902a6.5 6.5 0 0 0-1.306.903c-.425.366-.5.862-.5.862s-.11-1.122-.661-1.785c-.554-.66-1.243-1.356-1.893-1.525-.996-.258-1.402-.074-1.402-.074s.773.48 1.16 1.58m5.61 2.855c-.058.59 0 1.305-.127 2.17-.13.867-.922 1.363-.922 1.363s1.345.386 2.098-.828c.574-.922.112-2.042-.24-2.614-.349-.57-.295-1.468-.295-1.468s-.46.788-.514 1.377M31.5 40.437c.5-.777 1.49-.544 1.49-.544s-1.234-1.996-2.448-.388c-1.416 1.875 1.4 3.258 1.4 3.258s-1.082-1.341-.442-2.326m6.644 3.977c-1.38-.059-2.007 2.805-1.61 4.363 1.515-3.127 4.597-2.525 4.597-2.525s-1.625-1.78-2.987-1.838"/><path fill="#E69F0A" d="M34.578 48.316c.535.627 1.27.828 1.27.828s-.515-1.989.077-3.682c.589-1.691 1.928-2.393 2.759-2.594.827-.204 1.104-.204 1.618-.441.4-.188.543-.457.754-.847-.532.074-.904.055-1.473-.165-.57-.221-1.102-.517-2.151-1.231-1.051-.72-1.456-.743-2.447-.83-.848-.072-1.214.33-1.214.33s.651.29.94.754c.44.719.163 1.419.163 1.419s-.443-.222-1.03-.313c-.59-.093-.941-.012-1.289-.077a.57.57 0 0 1-.423-.31s-.184.643.221 1.604c.404.954.955 1.029.955 1.029s-1.472.235-1.84 1.672c-.496 1.951 1.033 3.146 1.033 3.146s.093-.976.569-1.177c.477-.2 1.067-.571 1.067-.571s-.092.828.44 1.456"/><path fill="#18468B" d="M58.67 51.655v-7.766H42.608v7.765s-.534 9.544 8.03 13.815c8.567-4.27 8.032-13.814 8.032-13.814M39.18 63.95c.089-.21.302-.36.546-.36.102 0 .188.029.275.071.256.139.74.45 1.18.55.514.12.82.027.85-.117.035-.148-.523-.719-1.133-.82-.612-.1-1.53-.123-2.777.097-1.248.218-1.707-.028-1.793-.22-.087-.192.02-.258.09-.401-.176.012-.304.084-.386.24-.225.436-.368.954-.357 1.95.011.998.052 1.802.63 1.932.58.127 1.003-.275 1.42-.336.418-.067.57.136.57.136zm22.91 0a.6.6 0 0 0-.55-.36c-.1 0-.184.029-.274.071-.255.139-.737.45-1.18.55-.516.12-.82.027-.852-.117-.034-.148.524-.719 1.135-.82.61-.1 1.53-.123 2.779.097 1.245.218 1.706-.028 1.792-.22s-.023-.258-.09-.401a.44.44 0 0 1 .387.24c.223.436.368.954.355 1.95-.009.998-.051 1.802-.63 1.932-.578.127-1.001-.275-1.419-.336-.416-.067-.57.136-.57.136z"/><path fill="#18468B" d="M62.816 67.788c-2.883 1.995-7.267 3.263-12.178 3.263-4.903 0-9.288-1.267-12.162-3.255a.25.25 0 0 1-.105-.205q-.001-.046.014-.086l1.11-3.414a.25.25 0 0 1 .231-.151c.066 0 .126.027.177.072 1.714 1.807 5.873 3.08 10.735 3.08 4.887 0 9.068-1.288 10.776-3.11a.25.25 0 0 1 .172-.061c.104 0 .171.067.214.163 0 0 1.122 3.417 1.127 3.417q.02.043.02.088c0 .09-.059.158-.132.2m-13.45-37.794c.07.1.181.1.253 0l.715-.844c.067-.096.026-.179-.094-.179h-1.516c-.121 0-.16.083-.092.177zm3 .063c.097 0 .24-.077.322-.171l.65-.763c.08-.096.07-.173-.025-.173h-1.345a.5.5 0 0 0-.32.173l-.652.763c-.083.094-.07.17.025.17zm6.229 0c.093 0 .237-.077.317-.171l.653-.763c.077-.096.069-.173-.027-.173h-.608a.5.5 0 0 0-.321.173l-.653.763c-.079.094-.069.17.027.17zm1.41 0c-.191 0-.09-.153.049-.337l.452-.51a.97.97 0 0 1 .596-.25h.623c.189 0 .183.147-.006.334a2.82 2.82 0 0 1-1.714.762m-3.388 0c.095 0 .239-.077.318-.171l.651-.763c.084-.096.072-.173-.025-.173h-.608c-.095 0-.237.077-.319.173l-.651.763c-.082.094-.072.17.023.17zm-1.998 0c.095 0 .238-.077.32-.171l.65-.763c.083-.096.069-.173-.025-.173h-.84c-.094 0-.238.077-.32.173l-.651.763c-.08.094-.07.17.024.17zm-7.684.025c-.097 0-.24-.077-.32-.172l-.654-.762c-.081-.094-.07-.172.025-.172h1.346c.099 0 .24.078.321.172l.65.762c.083.095.073.172-.022.172zm-4.25 0c-.095 0-.24-.077-.323-.172l-.651-.762c-.08-.094-.067-.172.026-.172h.611c.094 0 .238.078.32.172l.65.762c.083.095.07.172-.024.172zm1.998 0c-.094 0-.24-.077-.32-.172l-.652-.762c-.081-.094-.07-.172.025-.172h.84c.093 0 .239.078.319.172l.652.762c.082.095.071.172-.028.172zm-3.413 0c.19 0 .09-.15-.046-.335l-.456-.512a.97.97 0 0 0-.595-.248h-.62c-.189 0-.185.143.006.335.746.73 1.711.76 1.711.76"/><path fill="#18468B" d="M55.59 37.037a3 3 0 0 0-.023-.363c-.199-2.142-.733-4.068-1.814-5.833-.056-.165-.216-.22-.382-.112-.102 0-.112.092-.07.192 0 0 .373.49.52.743.223.381.367.807.354 1.269.002.166-.015.324-.049.487-.219 1.034-1.077 1.888-2.025 2.335a4 4 0 0 1-.827.203c-.599.074-1.259.032-1.718-.355a1.7 1.7 0 0 1-.38-.407 1.77 1.77 0 0 1-.25-1.054c.006-.126.038-.299.143-.383l.024-.036c.37-.507.483.462 1.405.612.147.029.305.033.462.003a1 1 0 0 0 .396-.284 1.06 1.06 0 0 0 .26-.479q.04-.18.012-.36a.94.94 0 0 0-.328-.531c-.478-.404-1.255-.695-1.506-1.295a.8.8 0 0 1-.01-.46c.043-.144.14-.299.231-.447.024-.036.428-.514.434-.514l.74-.848c.058-.223-.217-.168-.273-.115-.554.546-.835 1.257-1.495 1.635-.827.267-1.598.535-2.206 1.295-.94.654-1.877 1.356-2.87 1.842-.111.219-.06.493-.006.714.493.332 1.15.34 1.75.509.273.385.323.99.208 1.429.38.112 1.308-.65 1.602-1.304.44.059.818.5.87.94.032.36-.05.686-.19.972-.442.882-1.463 1.402-1.463 1.402.414.17.719.49.86.53.147.039.607-.957.803-1.002.246-.058 1.111.623 1.3.623.156 0 .727-.807.972-.793.279.018.859.96 1.05.989.13.014 1.001-.83 1.279-.8.2.021.57.763.719.822.159.055.448-.38 1.502-.578 0 0 .01-.686-.01-1.193"/><path fill="#18468B" d="M50.33 30.423c-.073.048-.108.091-.164.155a1.1 1.1 0 0 0-.21.4.6.6 0 0 0 .005.344c.222.526 1.016.856 1.452 1.224.193.158.334.377.388.633.023.142.02.291-.01.434-.05.212-.156.406-.305.562-.13.154-.291.267-.472.331a1.5 1.5 0 0 1-.547.007c-.475-.08-.852-.39-1.182-.743a1 1 0 0 0-.077.1l-.026.026c-.052.036-.075.196-.078.253-.031.337.063.69.224.95q.136.209.338.363c.398.343 1 .389 1.587.316.27-.032.537-.103.779-.189.911-.434 1.716-1.246 1.917-2.21.033-.148.048-.3.048-.446.011-.423-.12-.814-.327-1.176a3.5 3.5 0 0 0-.574-.737c-.122-.124-.24-.205-.331-.296.112-.22.387-.162.497-.326-.877-.116-2.66-.075-2.66-.075a.5.5 0 0 0-.272.1m-.144 4.87c-.026.01-.054.02-.088.008.034-.012.047-.057.04-.096.008-.017.033-.01.055.009.024.046.01.064-.007.078m.61.137c-.043.039-.088.075-.16.075.053-.043.051-.14.008-.213.007-.032.058-.032.112-.016.027.006.038.01.042.025.03.049.019.092-.003.13m.553.04c.06-.104-.005-.256-.124-.344-.008-.056.068-.09.173-.104.046-.006.067 0 .086.014.075.06.083.138.072.215-.04.087-.091.178-.207.22m.796-.242c.014-.158-.11-.344-.255-.425-.036-.072.026-.142.12-.188.044-.018.06-.02.086-.01.096.063.137.163.156.27 0 .127-.018.26-.107.353m.247-.865c-.077-.054-.071-.163-.025-.258.025-.042.04-.056.07-.056.121.01.223.093.308.19.089.14.165.287.149.432a.66.66 0 0 0-.502-.308m.325-.603c-.115-.011-.175-.133-.178-.264-.002-.063.009-.083.036-.1.139-.064.299-.032.452.023.173.097.342.208.413.378-.201-.13-.524-.134-.723-.037m.983-.781c-.285-.136-.71-.083-.95.082-.157.003-.256-.142-.283-.315-.015-.082-.007-.109.03-.14.17-.105.383-.093.592-.049.245.096.49.214.611.422m-.194-.815c-.387-.142-.825-.147-1.124.11-.202.02-.371-.114-.497-.254a.17.17 0 0 1 .015-.192c.212-.166.494-.181.77-.15.326.098.66.223.837.486m-2.773-1.075c.275-.216.662-.268 1.044-.265.463.072.931.175 1.202.45-.546-.114-1.15-.064-1.537.258-.275.055-.522-.078-.71-.224-.057-.054-.056-.166.001-.219"/></g><path fill="#fff" d="m56.257 55.247-3.469-.264 1.323 3.217-2.652-2.25-.821 3.379-.822-3.379-2.653 2.25 1.325-3.217-3.469.264 2.96-1.827-2.96-1.826 3.47.263-1.326-3.217 2.653 2.254.822-3.383.82 3.383 2.653-2.254-1.323 3.217 3.469-.263-2.96 1.826z"/><mask id="c" width="705" height="498" x="-203" y="-122" maskUnits="userSpaceOnUse" style="mask-type:luminance"><path fill="#fff" d="M-202.011 375.91h703.886v-497.698h-703.886z"/></mask><g mask="url(#c)"><path fill="#fff" d="M57.868 51.692s.158 2.333-1.18 5.052c.942-2.744.814-5.075.814-5.075v-6.645h-13.73v6.645s-.126 2.33.817 5.075c-1.34-2.72-1.18-5.052-1.18-5.052v-6.994h14.459z"/><path fill="#E69F0A" d="M59.864 60.273c-.469-.893-.022-1.967-.022-1.967s-1.535.482-2.768 2.66c-.782 1.388-1.154 2.728-1.802 3.47-.648.744-1.088.926-1.088.926s.298-.131.61-.232c.512-.158 1.329-.149 2.377-.934 1.177-.883 1.092-2.072 1.092-2.072s.75.884 1.95.197c.788-.45.808-1.332.808-1.332s-.525.48-1.157-.716m5.529-10.675h-.007a4 4 0 0 1-.236-.089c-1.248-.507-1.531-.976-2.649-1.457-1.117-.482-2.21-.038-2.21-.038s.69.392.973.811c.173.255.243.513.324.775.052.168.107.338.194.511.222.437 1.003.86 1.003.86s-1.082.458-1.61.919c-.53.462-.982 1.092-.897 2.024s.824 1.544.824 1.544.245-1.007 1.316-1.462c1.334-.561 2.321.165 2.321.165s.212.386-.013 1.447c-.227 1.065-.493 1.321-.493 1.321s1.72-.256 2.45-1.779c.596-1.231.494-2.318.494-3.674s.474-1.869.474-1.869-.925.439-2.258-.01"/><path fill="#E69F0A" d="M64.6 57.717c-1.203-.434-1.815-.245-1.815-.245s0-.476.306-1.31.786-1.244.786-1.244-1.395-.376-2.482.881c-1.087 1.255-1.17 2.308-.92 3.05.272.795.59 1.104.824 1.542.211.393.286 1.023.286 1.023s.48-1.65 1.704-2.175c1.43-.612 2.523.33 2.523.33s.043-1.394-1.212-1.852m3.415-24.527s.222.606-.11 1.452c-.33.846-.698 1.067-.698 1.067s.449-.007.957.44c.495.444.57 1.017.57 1.017s.534-1.142.238-2.266c-.294-1.124-.957-1.71-.957-1.71"/><path fill="#E69F0A" d="M62.701 38.158c.24.863-.078 1.693-.078 1.693s1.308-.054 2.302-.94c.791-.702 1.544-.725 1.969-.644.773.147.94.847.94.847s.625-.957.035-1.914c-.364-.587-1.528-.719-1.528-.719s.19-.293.203-.644c.02-.459.063-.999.35-1.822.386-1.101 1.16-1.58 1.16-1.58s-.407-.184-1.398.073c-.656.17-1.346.866-1.897 1.526-.552.662-.662 1.785-.662 1.785s-.075-.497-.5-.863a6.6 6.6 0 0 0-1.305-.903c-.515-.277-.698-.9-.698-.9s-.33.613-.386 1.194c-.056.588-.111.923.441 1.783.553.869.813 1.163 1.052 2.028m-.367 2.245s-.793-.497-.923-1.363c-.127-.866-.072-1.58-.127-2.17-.058-.59-.513-1.377-.513-1.377s.05.897-.297 1.468c-.35.572-.812 1.692-.238 2.613.754 1.214 2.098.829 2.098.829m2.496 8.374c.398-1.559-.23-4.422-1.609-4.364-1.364.058-2.988 1.839-2.988 1.839s3.084-.602 4.598 2.525m5.99-9.272c-1.216-1.608-2.446.388-2.446.388s.99-.233 1.487.543c.644.986-.439 2.326-.439 2.326s2.814-1.383 1.398-3.258"/><path fill="#E69F0A" d="M68.054 43.79s.554-.075.955-1.03c.406-.96.222-1.603.222-1.603s-.111.258-.424.31c-.347.065-.698-.016-1.286.077-.59.092-1.034.312-1.034.312s-.272-.7.169-1.418c.286-.464.938-.755.938-.755s-.369-.4-1.216-.328c-.99.086-1.399.11-2.446.83-1.048.712-1.581 1.008-2.155 1.23-.57.22-.938.238-1.471.165.214.39.354.659.755.847.516.237.792.237 1.618.44.83.202 2.173.903 2.762 2.595.59 1.693.073 3.682.073 3.682s.737-.202 1.27-.829c.534-.626.441-1.455.441-1.455s.589.37 1.069.57c.477.202.566 1.178.566 1.178s1.53-1.195 1.034-3.146c-.365-1.438-1.84-1.673-1.84-1.673m-10.587-4.577c-.16-.195-1.82.694-1.82.694s-.028-.89-.245-1.056c-.66.051-1.16.38-1.606.816h.002c-.174-.49-.44-.93-.566-.938-.242-.016-1.242.89-1.242.89s-.595-1.064-.918-1.094c-.14-.013-.66.56-.934.92-.326-.334-1.027-.855-1.283-.8-.153.032-.478.721-.69 1.219-.18-.18-1.1-.89-1.562-.965-.222.325-.229 1.208-.229 1.208s-.938-.864-1.584-.95c-.167.219.132 1.458.806 2.04-.022-.175-.322-.773-.264-1.156.331-.164 1.12.305 1.12.305s.143-.624.476-.785c.493.058 1.313.614 1.313.614s.387-.71.719-.926c.494-.105 1.204.505 1.204.505s.521-.616.908-.613c.38.168.872.754.872.754s.738-.496 1.184-.633c.265.135.582.77.582.77s.93-.613 1.42-.554c.166.165.328.691.328.691s1.017-.378 1.453-.358c-.064.538-.336.93-.56 1.366.514-.267 1.402-1.616 1.116-1.964"/><path fill="#E69F0A" d="M50.917 41.407c.382.056.587-1.536.146-1.603-.374-.056-.517 1.547-.146 1.602m1.476.028c.4.161.975-1.321.566-1.48-.355-.14-.91 1.335-.566 1.48m-3.385-1.307c-.004.548.305 1.394.59 1.322.2-.053.123-1.261-.316-1.538-.163-.059-.274.106-.274.216m4.899 1.347c.327.21 1.255-1.102.848-1.344-.29-.177-1.227 1.105-.848 1.344m-6.822-1.253c-.06.547.487 1.38.759 1.268.172-.072-.1-1.207-.594-1.376-.107-.056-.165.052-.165.108m8.222 1.166c.265.205.939-.694.774-.87-.199-.215-.982.711-.774.87m-8.892.144c.25-.135-.188-.994-.429-.882-.195.09.207 1.004.43.882"/><path fill="#18468B" d="M49.87 41.838c-.11 0-.17.069-.135.153l.4.97c.034.084.154.156.262.156h1.61c.109 0 .17-.072.138-.156l-.402-.97c-.037-.084-.153-.154-.262-.154zm2.571.178c-.08 0-.123.05-.098.112l.288.699c.026.06.112.107.19.107h1.16c.077 0 .123-.046.096-.107l-.287-.699c-.026-.061-.108-.112-.19-.112zm1.937.077c-.056 0-.087.035-.069.077l.204.491c.018.04.076.077.132.077h.81c.056 0 .088-.037.07-.077l-.202-.49c-.017-.042-.079-.078-.133-.078zm1.453.047c-.04 0-.062.022-.049.053l.142.343c.012.029.054.055.093.055h.567c.038 0 .06-.026.047-.056l-.14-.341c-.012-.032-.054-.054-.092-.054zm-6.35.795c.08 0 .124-.048.1-.109l-.289-.697c-.022-.062-.109-.112-.188-.112h-1.158c-.08 0-.122.05-.1.112l.29.697c.026.061.109.109.19.109zm-1.934-.075c.053 0 .083-.035.067-.077l-.202-.49c-.017-.044-.077-.079-.133-.079h-.81c-.055 0-.085.035-.07.079l.2.49c.022.042.079.077.136.077zm-1.453-.045c.037 0 .063-.026.047-.054l-.14-.344c-.01-.03-.054-.055-.094-.055h-.566c-.04 0-.062.026-.05.055l.142.343a.11.11 0 0 0 .093.055z"/></g><path fill="#A6700E" d="m50.63 53.417.526-1.644-.514-3.122z"/><path fill="#E69F0A" d="m50.09 51.78.54 1.637.013-4.765z"/><path fill="#A6700E" d="m50.121 55.07.515 3.114-.007-4.767z"/><path fill="#E69F0A" d="m50.635 58.184.553-3.126-.558-1.64z"/><path fill="#A6700E" d="m47.84 49.56 2.25 2.22.54 1.637z"/><path fill="#E69F0A" d="M49.232 52.416 47.84 49.56l2.79 3.857z"/><path fill="#A6700E" d="m53.439 57.277-2.25-2.22-.56-1.64z"/><path fill="#E69F0A" d="m52.048 54.422 1.39 2.854-2.808-3.859z"/><path fill="#A6700E" d="m46.107 51.94 3.126.476 1.397 1z"/><path fill="#E69F0A" d="m48.91 53.417-2.804-1.477 4.524 1.477z"/><path fill="#A6700E" d="m55.171 54.898-3.123-.476-1.418-1.005z"/><path fill="#E69F0A" d="m52.366 53.417 2.804 1.48-4.54-1.48z"/><path fill="#A6700E" d="m46.103 54.89 2.808-1.473h1.719z"/><path fill="#E69F0A" d="m49.25 54.448-3.147.442 4.527-1.473z"/><path fill="#A6700E" d="m55.172 51.949-2.805 1.468H50.63z"/><path fill="#E69F0A" d="m52.025 52.393 3.147-.444-4.542 1.468z"/><path fill="#A6700E" d="m47.833 57.272 1.417-2.824 1.38-1.031z"/><path fill="#E69F0A" d="m50.121 55.07-2.288 2.202 2.797-3.855z"/><path fill="#A6700E" d="m53.444 49.566-1.419 2.827-1.395 1.024z"/><path fill="#E69F0A" d="m51.156 51.773 2.287-2.208-2.813 3.851z"/><mask id="d" width="705" height="498" x="-203" y="-122" maskUnits="userSpaceOnUse" style="mask-type:luminance"><path fill="#fff" d="M-202.011 375.91h703.886v-497.698h-703.886z"/></mask><g mask="url(#d)"><path fill="#18468B" d="M77.392 32.762h-.025l-.27 4.581c-.049.849-.036 1.26 1.006 1.273v.502h-2.72v-.502c.955-.012.979-.296 1.04-1.363l.27-4.658c.037-.656 0-.939-.821-.978v-.502h2.586l2.39 5.405 2.292-5.405h2.635v.502c-.883.052-.944.052-.883.978l.294 4.748c.062 1.08.099 1.196 1.078 1.273v.502h-3.86v-.502h.209c.514 0 .943 0 .943-.836 0-.205-.012-.412-.025-.605l-.281-4.567h-.025l-2.744 6.51h-.295zm12.77 3.385-.514 1.505c-.22.656-.21.965.968.965h.159v.501h-3.247v-.502h.184c.587 0 .894-.282 1.2-1.183l2.096-6.137-.134-.374h1.813l2.451 6.537c.318.849.588 1.106 1.225 1.157v.502h-3.982v-.502h.428c.748 0 .858-.346.613-.978l-.575-1.491zm1.275-3.72-1.03 3.012h2.157zm6.19 4.324h.478c.404 1.274 1.127 1.93 2.095 1.93.809 0 1.422-.54 1.422-1.261 0-1.917-3.935-1.853-3.935-4.4 0-1.235 1.03-2.097 2.489-2.097.944 0 1.678.334 1.862.334.086 0 .159-.026.27-.142h.258l.232 2.084h-.49c-.27-1.041-1.054-1.724-1.998-1.724-.686 0-1.2.387-1.2.888 0 1.184 2.034 1.403 3.407 2.844.502.527.698 1.08.698 1.699 0 1.337-1.152 2.393-2.611 2.393-.98 0-1.875-.413-2.095-.413-.11 0-.196.065-.257.207h-.32zm7.328 0h.478c.405 1.274 1.128 1.93 2.096 1.93.809 0 1.422-.54 1.422-1.261 0-1.917-3.935-1.853-3.935-4.4 0-1.235 1.029-2.097 2.488-2.097.944 0 1.679.334 1.864.334.085 0 .159-.026.268-.142h.259l.232 2.084h-.491c-.268-1.041-1.053-1.724-1.997-1.724-.686 0-1.201.387-1.201.888 0 1.184 2.035 1.403 3.407 2.844.503.527.699 1.08.699 1.699 0 1.337-1.153 2.393-2.611 2.393-.98 0-1.875-.413-2.095-.413-.111 0-.196.065-.257.207h-.319zm12.673-4.928h-2.684v2.895h1.985c.675 0 .92-.245.92-.927h.49v2.561h-.49c0-.695-.16-.926-1.103-.926h-1.802v2.316c0 .553.098.669.453.669h2.047c.797 0 1.176-.232 1.41-1.313h.465l-.147 2.02h-7.378v-.5h.503c.711 0 .956-.297.956-.928v-5.134c0-.694-.221-.939-1.066-.939h-.123v-.502h6.753l.122 1.866h-.465c-.123-.875-.283-1.158-.846-1.158m8.162 5.841c0 .618.184.953 1.067.953h.184v.501h-4.179v-.501h.306c.735 0 .931-.348.931-.927v-1.789l-2.634-3.68c-.356-.488-.503-.604-1.116-.604h-.085v-.502h3.995v.502h-.147c-.711 0-.809.309-.551.656l1.96 2.715 1.422-2.342c.318-.527.416-1.029-.442-1.029h-.147v-.502h2.893v.502c-.711.052-.919.193-1.361.9l-2.096 3.384zm15.701-6.549h3.173v.502h-.085c-.98 0-1.127.45-1.127 1.068v3.203c0 2.87-1.986 3.41-3.444 3.41-2.206 0-3.603-1.003-3.603-2.971v-3.835c0-.643-.172-.875-.858-.875h-.208v-.502h3.836v.502h-.209c-.514 0-.87.245-.87.875v3.835c0 1.569 1.103 2.109 2.218 2.109 1.606 0 2.402-.952 2.402-2.367v-3.127c0-.913-.245-1.325-1.005-1.325h-.22zm6.201 6.46c0 .785.234 1.042 1.214 1.042v.5h-2.966v-.5h.074c.747 0 .931-.283.931-.81V31.9c-.27-.193-.6-.283-.981-.283v-.502h2.525l5 5.481v-3.885c0-.926-.184-1.094-1.164-1.094h-.123v-.502h3.162v.502h-.123c-.759 0-1.004.168-1.004.657v6.883h-.674l-5.871-6.446zm8.874-6.46h3.898v.502h-.209c-.662 0-.932.296-.932.966v5.095c0 .63.208.939.956.939h.185v.501h-3.898v-.501h.171c.65 0 .895-.322.895-.888v-5.146c0-.67-.221-.966-.906-.966h-.16zm6.532 1.583c-.404-.927-.576-1.081-1.274-1.081h-.086v-.502h4.252v.502h-.208c-1.029 0-1.188.36-.845 1.12l1.924 4.297 1.875-4.683c.171-.438-.11-.734-.809-.734h-.245v-.502h3.112v.502h-.085c-.723 0-.993.348-1.397 1.364l-2.549 6.318h-.773zm14.254-.875h-2.684v2.895h1.985c.675 0 .92-.245.92-.927h.49v2.561h-.49c0-.695-.16-.926-1.104-.926h-1.801v2.316c0 .553.098.669.453.669h2.047c.797 0 1.177-.232 1.41-1.313h.466l-.148 2.02h-7.378v-.5h.503c.711 0 .956-.297.956-.928v-5.134c0-.694-.221-.939-1.066-.939h-.123v-.502h6.753l.122 1.866h-.466c-.122-.875-.281-1.158-.845-1.158m6.104 5.854c0 .656.27.94.968.94h.367v.501h-4.289v-.501h.196c.748 0 1.066-.193 1.066-.94v-5.082c0-.618-.159-.978-.98-.978h-.257v-.502c.613-.038 1.078-.064 1.58-.102.687-.052 1.569-.09 2.011-.09 1.801 0 2.781.243 3.394.887.405.425.588.914.588 1.467 0 .978-.674 1.75-1.813 2.072.808.707 1.237 1.724 2.107 2.637.503.528.847.682 1.618.76v.501c-.27.013-.392.013-.76.013-1.519 0-2.144-.232-2.72-.836-.613-.644-1.324-1.995-2.108-2.703h-.968zm0-2.496h.477c1.483 0 2.341-.476 2.341-1.852 0-1.364-.992-1.853-2.181-1.853h-.637zm7.513 1.57h.477c.405 1.274 1.128 1.93 2.096 1.93.81 0 1.422-.54 1.422-1.261 0-1.917-3.934-1.853-3.934-4.4 0-1.235 1.029-2.097 2.488-2.097.943 0 1.679.334 1.863.334.086 0 .159-.026.269-.142h.257l.234 2.084h-.491c-.269-1.041-1.054-1.724-1.997-1.724-.687 0-1.201.387-1.201.888 0 1.184 2.034 1.403 3.407 2.844.502.527.698 1.08.698 1.699 0 1.337-1.152 2.393-2.61 2.393-.981 0-1.875-.413-2.096-.413-.111 0-.196.065-.258.207h-.318zm6.9-5.636h3.898v.502h-.209c-.661 0-.932.296-.932.966v5.095c0 .63.209.939.956.939h.185v.501h-3.898v-.501h.171c.65 0 .896-.322.896-.888v-5.146c0-.67-.221-.966-.907-.966h-.16zm10.172 6.537c0 .669.196.965 1.066.965h.295v.501h-4.412v-.502h.417c.674 0 .943-.282.943-.964v-5.868h-1.446c-.944 0-1.091.155-1.324 1.52h-.503l.221-2.408h.393c.098.09.159.155.233.18.085.027.183.04.355.04h5.833c.331 0 .392-.027.589-.22h.392l.221 2.407h-.503c-.233-1.35-.38-1.519-1.323-1.519h-1.447zm9.683.012c0 .618.183.953 1.066.953h.183v.501h-4.178v-.501h.306c.735 0 .931-.348.931-.927v-1.789l-2.635-3.68c-.355-.488-.503-.604-1.115-.604h-.086v-.502h3.996v.502h-.147c-.712 0-.81.309-.551.656l1.96 2.715 1.422-2.342c.318-.527.416-1.029-.442-1.029h-.147v-.502h2.892v.502c-.711.052-.919.193-1.359.9l-2.096 3.384zm-139.07 12.59c0 .462.136.667.736.667h.203v.345h-3.045v-.345h.288c.465 0 .651-.196.651-.666v-4.047h-.998c-.652 0-.753.105-.913 1.046h-.347l.152-1.66h.27c.068.062.11.108.16.125.06.018.128.027.246.027h4.027c.228 0 .27-.019.405-.152h.271l.152 1.66h-.347c-.16-.932-.261-1.046-.912-1.046h-.999zm7.23-4.02h-1.852v1.997h1.37c.465 0 .634-.169.634-.64h.338v1.768h-.338c0-.48-.11-.64-.76-.64h-1.244v1.598c0 .382.068.462.312.462h1.413c.55 0 .811-.16.973-.907h.32l-.1 1.395h-5.092v-.346h.347c.49 0 .66-.204.66-.638V46.74c0-.48-.153-.648-.737-.648h-.084v-.346h4.66l.084 1.287h-.32c-.085-.604-.195-.8-.584-.8m7.846 4.038c0 .498.22.649.668.649h.119v.345h-2.758v-.345h.153c.431 0 .65-.151.65-.666v-3.489c0-.47-.16-.673-.659-.673h-.144v-.347h2.758v.346h-.144c-.55 0-.643.221-.643.71v1.597c.338-.043.737-.275 1.116-.674.28-.292.821-1.012.821-1.34 0-.188-.152-.292-.508-.292h-.093v-.347h2.258v.346c-.507.035-.693.08-.922.32-.38.4-.77 1.25-1.395 1.748.245.134.634.595.897.95l.736.986c.431.584.761.825 1.285.825v.345h-2.884v-.345c.355 0 .592-.054.592-.24s-.778-1.11-1.311-1.668c-.27-.285-.39-.32-.592-.32zm9.124-4.526h2.191v.346h-.059c-.677 0-.778.31-.778.737v2.21c0 1.98-1.371 2.351-2.377 2.351-1.523 0-2.488-.691-2.488-2.05v-2.644c0-.445-.118-.604-.592-.604h-.143v-.346h2.647v.346h-.143c-.356 0-.601.167-.601.604v2.644c0 1.084.761 1.456 1.531 1.456 1.108 0 1.658-.657 1.658-1.633v-2.158c0-.63-.17-.913-.694-.913h-.152zm4.363 4.455c0 .541.16.72.836.72v.345h-2.045v-.345h.05c.516 0 .643-.196.643-.56v-4.074a1.14 1.14 0 0 0-.678-.195v-.346h1.744l3.45 3.781v-2.681c0-.638-.126-.754-.803-.754h-.085v-.346h2.183v.346h-.085c-.524 0-.693.116-.693.453v4.749h-.466l-4.051-4.448zm10.19-3.967h-1.852v1.997h1.369c.466 0 .635-.169.635-.64h.338v1.768h-.338c0-.48-.11-.64-.762-.64h-1.242v1.598c0 .382.067.462.312.462h1.413c.55 0 .811-.16.973-.907h.321l-.101 1.395h-5.093v-.346h.347c.491 0 .661-.204.661-.638V46.74c0-.48-.153-.648-.737-.648h-.084v-.346h4.66l.084 1.287h-.321c-.085-.604-.194-.8-.583-.8m3.584 3.967c0 .541.16.72.838.72v.345h-2.048v-.345h.051c.516 0 .643-.196.643-.56v-4.074a1.14 1.14 0 0 0-.677-.195v-.346h1.743l3.451 3.781v-2.681c0-.638-.128-.754-.804-.754h-.084v-.346h2.182v.346h-.085c-.525 0-.693.116-.693.453v4.749h-.465l-4.052-4.448zm12.591-1.25c-.448.008-.6.15-.6.558v1.323c-.609.292-1.48.56-2.207.56-2.14 0-3.172-1.253-3.172-2.956 0-1.625 1.277-2.823 3.079-2.823.87 0 1.547.31 1.834.31.128 0 .195-.035.255-.114h.211v1.623h-.338c-.229-.906-.872-1.439-1.75-1.439-1.203 0-2.031.995-2.031 2.434 0 1.456.871 2.538 2.047 2.538.321 0 .677-.089.905-.231v-1.225c0-.444-.177-.54-1.04-.558v-.337h2.807zm2.807.266-.356 1.038c-.152.453-.144.666.668.666h.11v.346h-2.242v-.346h.128c.405 0 .616-.196.829-.817l1.445-4.235-.092-.257h1.252l1.691 4.51c.22.586.407.764.846.799v.346h-2.749v-.346h.296c.515 0 .592-.24.423-.675l-.398-1.03zm.878-2.566-.71 2.077h1.489zm9.877 3.621c0 .498.22.649.668.649h.119v.345h-2.758v-.345h.153c.431 0 .651-.151.651-.666v-3.489c0-.47-.161-.673-.661-.673h-.143v-.347h2.758v.346h-.144c-.55 0-.643.221-.643.71v1.597c.338-.043.736-.275 1.117-.674.279-.292.819-1.012.819-1.34 0-.188-.152-.292-.506-.292h-.093v-.347h2.258v.346c-.508.035-.694.08-.923.32-.38.4-.769 1.25-1.395 1.748.246.134.634.595.897.95l.736.986c.431.584.761.825 1.286.825v.345h-2.886v-.345c.356 0 .593-.054.593-.24s-.778-1.11-1.311-1.668c-.271-.285-.39-.32-.592-.32zm5.031-4.526h2.689v.346h-.143c-.457 0-.643.204-.643.666v3.514c0 .436.143.648.659.648h.127v.347h-2.689v-.347h.118c.448 0 .617-.221.617-.611v-3.551c0-.462-.153-.666-.626-.666h-.109zm9.275 4.509c0 .515.186.666.736.666h.254v.345h-2.876v-.345h.127c.465 0 .592-.108.592-.507v-3.806c0-.41-.127-.516-.592-.516h-.186v-.346c.33-.019.787-.07 1.37-.098a36 36 0 0 1 1.345-.044c1.632 0 2.326.826 2.326 1.74 0 1.03-.828 1.687-2.131 1.687a5.4 5.4 0 0 1-.965-.09zm0-1.678c.179.045.364.062.61.062.786 0 1.226-.479 1.226-1.348 0-.817-.457-1.297-1.235-1.297-.203 0-.397.018-.601.062zm8.338-2.831h2.192v.346h-.06c-.676 0-.778.31-.778.737v2.21c0 1.98-1.371 2.351-2.377 2.351-1.522 0-2.487-.691-2.487-2.05v-2.644c0-.445-.118-.604-.591-.604h-.145v-.346h2.649v.346h-.145c-.355 0-.6.167-.6.604v2.644c0 1.084.761 1.456 1.531 1.456 1.107 0 1.657-.657 1.657-1.633v-2.158c0-.63-.168-.913-.693-.913h-.153zm5.074 4.526c0 .453.186.649.668.649h.253v.346h-2.959v-.346h.134c.516 0 .737-.133.737-.65v-3.505c0-.425-.11-.674-.677-.674h-.178v-.346c.423-.028.745-.044 1.092-.071a22 22 0 0 1 1.387-.062c1.243 0 1.92.168 2.342.612.28.293.406.63.406 1.012 0 .674-.465 1.207-1.252 1.429.559.489.855 1.19 1.456 1.82.346.364.583.47 1.116.523v.347c-.186.008-.271.008-.524.008-1.049 0-1.481-.16-1.878-.576-.423-.445-.914-1.377-1.455-1.865h-.668zm0-1.72h.329c1.024 0 1.617-.33 1.617-1.28 0-.941-.686-1.279-1.507-1.279h-.439zm9.124-2.318h-1.853v1.997h1.371c.464 0 .634-.169.634-.64h.339v1.768h-.339c0-.48-.11-.64-.762-.64h-1.243v1.598c0 .382.068.462.314.462h1.413c.548 0 .812-.16.972-.907h.321l-.102 1.395h-5.091v-.346h.346c.491 0 .66-.204.66-.638V46.74c0-.48-.152-.648-.736-.648h-.084v-.346h4.66l.085 1.287h-.322c-.085-.604-.194-.8-.583-.8m6.452 4.687c.448 0 .634-.204.634-.683v-1.581h-2.791v1.597c0 .471.177.667.65.667h.128v.346h-2.715v-.346h.143c.432 0 .627-.204.627-.65v-3.53c0-.445-.186-.649-.635-.649h-.135v-.346h2.715v.346h-.119c-.44 0-.659.15-.659.648v1.393h2.791v-1.367c0-.497-.186-.674-.677-.674h-.076v-.346h2.707v.346h-.153c-.431 0-.634.168-.634.648v3.514c0 .463.16.667.652.667h.135v.346h-2.707v-.346zm7.77-5.175h2.191v.346h-.06c-.677 0-.777.31-.777.737v2.21c0 1.98-1.371 2.351-2.378 2.351-1.522 0-2.486-.691-2.486-2.05v-2.644c0-.445-.118-.604-.592-.604h-.145v-.346h2.649v.346h-.144c-.355 0-.601.167-.601.604v2.644c0 1.084.761 1.456 1.531 1.456 1.108 0 1.658-.657 1.658-1.633v-2.158c0-.63-.169-.913-.694-.913h-.152zm5.073 4.526c0 .453.186.649.669.649h.253v.346h-2.96v-.346h.135c.516 0 .736-.133.736-.65v-3.505c0-.425-.11-.674-.677-.674h-.178v-.346c.424-.028.745-.044 1.091-.071a23 23 0 0 1 1.388-.062c1.244 0 1.92.168 2.342.612.28.293.407.63.407 1.012 0 .674-.466 1.207-1.252 1.429.558.489.854 1.19 1.456 1.82.346.364.582.47 1.115.523v.347c-.186.008-.271.008-.524.008-1.049 0-1.48-.16-1.878-.576-.422-.445-.913-1.377-1.454-1.865h-.669zm0-1.72h.329c1.025 0 1.617-.33 1.617-1.28 0-.941-.686-1.279-1.506-1.279h-.44zm8.794-2.975c1.768 0 3.02 1.164 3.02 2.822 0 1.58-1.16 2.992-3.18 2.992-1.946 0-3.08-1.304-3.08-2.797 0-1.757 1.355-3.017 3.24-3.017m.034 5.432c1.175 0 1.725-1.065 1.725-2.29 0-1.429-.676-2.76-1.962-2.76-1.074 0-1.777.87-1.777 2.21 0 1.695.821 2.84 2.014 2.84m6.037-1.792-.356 1.038c-.152.453-.144.666.669.666h.109v.346h-2.241v-.346h.128c.404 0 .617-.196.828-.817l1.446-4.235-.092-.257h1.251l1.692 4.51c.22.586.405.764.846.799v.346h-2.75v-.346h.297c.515 0 .592-.24.423-.675l-.397-1.03zm.879-2.566-.71 2.077h1.489z"/></g><path stroke="#18468B" stroke-width=".177" d="M166.893 44.414h4.128"/><mask id="e" width="705" height="498" x="-203" y="-122" maskUnits="userSpaceOnUse" style="mask-type:luminance"><path fill="#fff" d="M-202.011 375.91h703.886v-497.698h-703.886z"/></mask><g mask="url(#e)"><path fill="#18468B" d="M76.775 61.8v4.38c0 .755.167 1.067.314 1.275.44.587 1.128.695 1.615.695 1.911 0 1.911-1.499 1.911-2.007V61.8h.95v4.36c0 .383-.01 1.179-.578 1.882-.695.872-1.772.98-2.283.98-.665 0-1.84-.187-2.497-1.127-.215-.314-.413-.726-.413-1.78V61.8z"/></g><path fill="#18468B" d="M82.88 61.8h1.362l3.478 5.851V61.8h.902v7.076h-1.254L83.77 62.87v6.007h-.89zm7.5 0h.976v7.076h-.977zm5.592 7.076h-1.079l-2.517-7.077h1.087l2.01 6.048 2.116-6.048h.989zM99.52 61.8h4.437v.834H100.5v2.207h3.291v.819H100.5v2.353h3.536v.863h-4.515z"/><mask id="f" width="705" height="498" x="-203" y="-122" maskUnits="userSpaceOnUse" style="mask-type:luminance"><path fill="#fff" d="M-202.011 375.91h703.886v-497.698h-703.886z"/></mask><g mask="url(#f)"><path fill="#18468B" d="M105.488 61.8h2.528c.364 0 1.106 0 1.627.334.527.334.782.872.782 1.442 0 .499-.186.939-.498 1.255a1.8 1.8 0 0 1-.834.46c.676.175.98.478 1.077 1.36.098.834.166 1.441.442 2.225h-1.049c-.157-.47-.255-1.334-.324-1.874-.117-1.028-.361-1.322-1.548-1.322h-1.234v3.196h-.969zm.95 3.048h1.547c.109 0 .668 0 .933-.156.135-.08.478-.334.478-.92 0-1.148-1.016-1.148-1.411-1.148h-1.547zm6.193 1.96c.018.49.077 1.4 1.705 1.4 1.471 0 1.656-.91 1.656-1.264 0-.79-.637-.95-1.628-1.193-1.076-.267-1.558-.384-1.919-.629-.578-.392-.736-.92-.736-1.39 0-1.44 1.363-2.07 2.695-2.07.471 0 1.422.082 1.99.699.39.43.41.91.43 1.205h-1.017c-.05-.883-.796-1.077-1.492-1.077-.978 0-1.567.44-1.567 1.146 0 .625.412.84 1.274 1.047 1.686.43 1.873.471 2.283.744.657.431.706 1.118.706 1.412 0 1.254-.98 2.204-2.794 2.204-.538 0-1.636-.088-2.192-.804-.404-.52-.413-1.087-.413-1.43z"/></g><path fill="#18468B" d="M118.346 61.8h.976v7.076h-.977zm4.436 7.076v-6.242h-2.369v-.835h5.711v.835h-2.371v6.242zm6.595-2.781-2.761-4.295h1.213l2.088 3.47 2.116-3.47h1.097l-2.763 4.343v2.733h-.99z"/><mask id="g" width="705" height="498" x="-203" y="-122" maskUnits="userSpaceOnUse" style="mask-type:luminance"><path fill="#fff" d="M-202.011 375.91h703.886v-497.698h-703.886z"/></mask><g mask="url(#g)"><path fill="#18468B" d="M137.118 62.565c.736-.793 1.708-.95 2.361-.95 1.961 0 3.196 1.254 3.196 3.656 0 1.88-.755 3.772-3.274 3.772-2.41 0-3.193-1.715-3.193-3.656 0-.804.138-1.99.91-2.822m.746 4.998c.4.499 1.01.645 1.566.645.579 0 1.157-.156 1.57-.645.576-.704.637-1.825.637-2.302 0-1.607-.53-2.823-2.148-2.823-1.791 0-2.251 1.44-2.251 2.89 0 .776.136 1.627.626 2.235"/></g><path fill="#18468B" d="M143.951 61.8h4.212v.834h-3.213v2.206h3.027v.82h-3.027v3.216h-.999zm8.171 0h1.362l3.478 5.851V61.8h.903v7.077h-1.256l-3.595-6.007v6.007h-.892zm7.144 0h4.439v.834h-3.459v2.206h3.291v.82h-3.291v2.352h3.538v.864h-4.518zm6.399 0 1.529 5.822 1.686-5.823h1.214l1.596 5.872 1.607-5.872h.96l-2.096 7.077h-1.089l-1.636-6.047-1.751 6.047h-1.06l-2.009-7.077zm11.738 6.094 4.088-5.23h-3.979V61.8h5.144v.97l-4.123 5.242h4.192v.863h-5.322zm6.391-6.095h4.437v.835h-3.459v2.206h3.292v.82h-3.292v2.352h3.538v.864h-4.516zm8.312 0h1.044l2.865 7.077h-1.073l-.763-1.844h-3.282l-.765 1.844h-1.009zm-.895 4.442h2.675l-1.305-3.471zm5.723-4.442h.969v6.203h3.295v.874h-4.264zm7.81 0h1.047l2.861 7.077h-1.066l-.764-1.844h-3.284l-.763 1.844h-1.009zm-.89 4.442h2.675l-1.308-3.471zm5.595-4.442h1.36l3.482 5.852V61.8h.899v7.077h-1.254l-3.597-6.007v6.007h-.89z"/><mask id="h" width="705" height="498" x="-203" y="-122" maskUnits="userSpaceOnUse" style="mask-type:luminance"><path fill="#fff" d="M-202.011 375.91h703.886v-497.698h-703.886z"/></mask><g mask="url(#h)"><path fill="#18468B" d="M216.681 61.8h2.046c.95 0 2.065 0 2.854.923.624.736.869 1.703.869 2.674 0 1.527-.634 2.468-1.173 2.9-.7.579-1.57.579-2.609.579h-1.987zm.976 6.272h.963c.675 0 1.381-.04 1.849-.391.905-.678.935-1.834.935-2.244 0-.265-.02-1.471-.69-2.207-.451-.497-1.017-.616-1.879-.616h-1.178z"/></g><path fill="#18468B" d="M75.786 57.022h146.657v-.648H75.786z"/></g><defs><clipPath id="a"><path fill="#fff" d="M.556 0h250v100h-250z"/></clipPath></defs></svg>