<svg xmlns="http://www.w3.org/2000/svg" width="100" height="100" fill="none"><path fill="#CF4037" fill-rule="evenodd" d="M31.964 57.751c0-.485.459-.296.459-.485 0-.081-.189-.054-.216-.054-.216 0-.432.027-.647.027-.189 0-.35-.027-.54-.027-.026 0-.134 0-.134.054 0 .216.54.054.54.459v2.29c0 1.053.35 2.077 2.129 2.077 1.996 0 1.914-1.698 1.914-2.021v-2.13c0-.62.404-.486.404-.675 0-.026-.054-.054-.08-.054-.135 0-.27.028-.378.028-.27 0-.54-.028-.809-.028-.026 0-.08.028-.08.054 0 .27.647-.026.647.674v2.211c0 .81-.297 1.646-1.564 1.646-.944 0-1.645-.486-1.645-1.59zm7.496 3.317c0 .944-.593.648-.593.89 0 .027 0 .08.08.08.055 0 .405-.026.648-.026.324 0 .54.027.702.027.053 0 .053-.054.053-.108 0-.162-.593.054-.593-.539v-2.804c0-.135.027-.162.054-.162.054 0 .135.135.135.135l2.939 3.317c.135.162.216.189.27.189.053 0 .053-.109.053-.297v-3.964c0-.486.405-.377.405-.54 0-.053-.027-.053-.08-.053-.163 0-.459.027-.675.027-.215 0-.431-.027-.62-.027-.054 0-.08 0-.08.054 0 .216.754-.027.754.863v2.858c0 .054 0 .08-.027.08l-.08-.08-3.263-3.64c-.027-.028-.081-.135-.162-.135-.108 0-.216.027-.324.027s-.215-.027-.323-.027c-.027 0-.081.027-.081.054 0 .243.81-.135.81 1.267v2.534zm7.927.216c0 .674-.54.458-.54.647 0 .054.028.108.163.108.08 0 .215-.027.647-.027.297 0 .594.027.728.027s.162-.027.162-.081c0-.189-.62-.054-.62-.512V57.78c0-.512.486-.35.486-.512 0-.054-.027-.054-.135-.054-.19 0-.404.027-.62.027-.243 0-.512-.027-.755-.027-.054 0-.054 0-.054.054 0 .162.54.027.54.512v3.505zm6.256.431c.054.135.135.432.242.432.109 0 .162-.243.244-.405l1.698-4.017c.189-.459.378-.296.378-.431 0-.054-.054-.081-.109-.081-.107 0-.215.027-.539.027-.135 0-.296-.027-.458-.027-.054 0-.08 0-.08.08 0 .162.43.027.43.324.027.162-.053.378-.107.486l-1.187 2.912c-.026.08-.054.188-.107.188-.081 0-.135-.135-.27-.512l-1.214-2.804a.7.7 0 0 1-.054-.27c0-.242.297-.242.27-.35 0-.027-.054-.055-.08-.055-.109 0-.35.028-.54.028-.216 0-.432-.028-.62-.028-.081 0-.108.028-.108.081 0 .162.351.027.54.432zm6.47-3.801c0-.46-.026-.432.648-.432.27 0 .97-.027 1.16.188.108.162 0 .486.161.486.028 0 .135-.054.135-.809 0-.08-.027-.135-.08-.135-.19 0-.837.028-.972.028-.27 0-.646-.028-1.913-.028-.216 0-.244.028-.244.081 0 .081.135.081.19.108.377.054.377.378.377.674v3.127c0 .297-.027.513-.189.594-.215.108-.296.081-.296.162 0 .054.027.08.108.08.27 0 .54-.026.809-.026.539-.027 1.052.027 1.564.027.296 0 .459 0 .675-.243.16-.161.35-.404.35-.647 0-.028-.027-.081-.054-.081-.108 0-.323.701-1.914.701-.567 0-.513-.161-.513-.566v-1.267c0-.108-.026-.215.135-.215h.998c.567 0 .351.593.54.593q.08 0 .08-.081v-1.24c0-.055-.027-.108-.08-.108-.162 0 .027.539-.674.539h-.729c-.295 0-.27 0-.27-.243v-1.267zm7.66 1.644c.485-.188.862-.647.862-1.186 0-1.322-1.51-1.16-1.618-1.16-.35 0-.754.028-1.133.028-.35 0-.323-.027-.431-.027-.081 0-.135.027-.135.08 0 .217.566-.053.566.594v3.478c0 .513-.485.432-.485.593 0 .028.027.081.054.081.27 0 .54-.026.782-.026.567 0 .727.026.782.026.054 0 .135 0 .135-.054 0-.243-.728-.027-.728-.62v-1.428c0-.081-.027-.19.19-.19.754 0 .646-.026.915.35l.755 1.187c.244.404.513.755 1.026.755.054 0 .43 0 .43-.08 0-.162-.323.08-.834-.675zm-1.35-1.888c0-.27.162-.242.404-.242.675 0 1.295.27 1.295 1.106 0 .862-.647.97-.944.97-.323 0-.755.027-.755-.08zm6.31 4.045c.027.108.647.378 1.159.378 1.537 0 1.941-.863 1.941-1.457 0-1.86-2.75-1.132-2.75-2.399 0-.648.567-.89 1.106-.89.594 0 1.105.297 1.295.89.026.054.08.188.133.188.081 0 .081-.026.081-.08l-.107-.944c0-.08-.028-.08-.081-.08s-.08.054-.135.054c-.08 0-.323-.244-1.133-.244-.809 0-1.536.432-1.536 1.294 0 1.78 2.778 1.052 2.778 2.347 0 .727-.621 1.078-1.268 1.078-.944 0-1.375-.702-1.456-1.025-.028-.135-.028-.216-.109-.216-.08 0-.107.081-.08.216zm6.795-.431c0 .674-.539.458-.539.647 0 .054.027.108.135.108.107 0 .242-.027.674-.027.27 0 .566.027.728.027.108 0 .135-.027.135-.081 0-.189-.594-.054-.594-.512V57.78c0-.512.486-.35.486-.512 0-.054-.027-.054-.135-.054-.216 0-.432.027-.62.027-.27 0-.512-.027-.755-.027-.054 0-.081 0-.081.054 0 .162.539.027.566.512zm5.986.162c0 .404-.54.323-.54.485 0 .081 0 .108.081.108.028 0 .162-.027.917-.027.216 0 .405.027.567.027.054 0 .054-.081.054-.081 0-.216-.54 0-.54-.566v-3.478c0-.378-.053-.35.27-.35h.971c.702 0 .324.538.567.538.107 0 .08-.08.08-.162l-.027-.539c0-.161-.054-.188-.188-.188s-.782.027-2.022.027c-.864 0-1.403-.027-1.914-.027-.136 0-.136.162-.136.242l-.08.675c0 .027.026.08.08.08.08 0 .08-.08.108-.161.135-.379.135-.486.567-.486h1.105c.108.026.081.27.081.323v3.56m6.821-1.995c.054.08.135.215.135.35v1.645c0 .486-.511.323-.511.512 0 .08.026.08.107.08.054 0 .297-.026.62-.026.243 0 .648.027.728.027.108 0 .162 0 .162-.081 0-.216-.567-.027-.567-.62v-1.672c0-.08.055-.135.19-.296l.943-1.483c.108-.162.188-.377.378-.486.054-.026.161-.054.161-.107q0-.081-.08-.081c-.189 0-.378.027-.594.027-.161 0-.323-.027-.485-.027-.081 0-.135 0-.135.08 0 .162.511.027.511.378a.54.54 0 0 1-.16.35l-.702 1.16c-.054.08-.081.136-.135.136-.028 0-.081-.055-.135-.136l-.809-1.32c-.054-.055-.136-.162-.136-.271 0-.188.325-.215.325-.323 0-.054-.081-.054-.135-.054s-.244.027-.46.027c-.485 0-.593-.027-.78-.027-.055 0-.11.054-.11.08 0 .136.352.055.513.324zM79.501 38.904c.674 0 1.241.566 1.241 1.24 0 .702-.567 1.268-1.242 1.268-.7 0-1.24-.566-1.24-1.267a1.24 1.24 0 0 1 1.24-1.24m11.864 13.293c-.054.54-.323.89-1.348 1.186-.81.27-.701.702.107.729 2.211-.325 2.912-.27 4.908-.055.782 0 .647-.511.161-.727-1.159-.458-1.348-.458-1.59-1.618l-.081-11.648c0-.674.243-1.456-.458-1.268-1.322.512-1.43.567-2.643.998-.647.27-.404.566.054.728.648.27.701.647.755 1.132zm-6.821-.08c-.055.565-.325.916-1.35 1.213-.808.243-.727.674.11.727 2.21-.323 2.911-.27 4.906-.054.755-.026.647-.511.162-.755-1.186-.458-1.348-.458-1.59-1.618L86.7 40.01c0-.675.244-1.457-.458-1.295-1.348.54-1.456.593-2.642.997-.647.27-.405.593.053.728.648.27.702.674.729 1.133zm-6.229-4.584c-.054-.594-.135-1.052-.81-1.24-.485-.055-.727-.486-.026-.756 1.375-.432 1.563-.513 2.642-1.375.324-.19.7-.027.512.566-.054.432-.054.647-.08 1.133v6.066c.054.999.835 1.16 1.32 1.35.486.188.54.78-.053.78-2.13-.295-2.616-.323-4.692.109-.701 0-.836-.539.027-.836.835-.297 1.133-.458 1.16-1.186zm-19.063-1.106c.485-5.177 3.801-7.334 8.466-7.712 4.934.027 5.635.35 5.554 3.101.027.998-.62 1.214-1.078.108-.54-1.024-.97-1.617-2.211-2.13-4.261-.943-7.388 1.78-7.577 6.418-.296 6.526 7.01 8.44 8.52 5.986.325-.62.325-2.319.297-3.721-.27-.917-1.159-.809-1.995-.863-.944.081-1.267-.97-.027-.97 1.213 0 3.505.134 6.471-.162.89.054.944.836-.135.97-.459.081-1.43.081-1.564.836-.108 3.99.81 4.368-2.184 5.447-3.829.89-7.954.486-10.273-1.753-1.051-.944-2.345-3.047-2.264-5.555m-9.87 2.642c.432-4.287 3.992-5.312 5.825-5.312 2.184.055 2.885.783 2.912 1.51 0 .729-.512 1.106-1.078.944-1.187-.296-.945-1.564-2.536-1.671-1.805.27-2.912 2.291-2.588 4.718.296 2.4 2.643 4.207 5.5 2.723.702-.135.755.432.19.81-5.258 3.235-8.44-1.35-8.224-3.722m-16.204-7.226c-.108-1.456-.566-1.024-1.699-1.456-.916-.189-.997-.836-.08-.89 1.617.135 2.426.162 3.774-.054.62.108.89.351 1.105.944 1.133 2.4 2.778 5.986 3.91 8.386.216.431.324.512.567-.054l3.343-8.52c.377-.729.782-.89 1.942-.783 2.021.027 2.507-.027 3.505-.135.836.027.782.674-.054.917-1.295 0-1.969.459-2.184 1.43l.188 9.787c.216 1.457.971 1.51 2.346 1.86.593.27.458.702-.054.837-2.858-.325-3.829-.297-6.66-.028-.81.081-.863-.62.027-.809 1.025-.243 1.294-.431 1.537-.97l-.216-9.438c-.027-.377-.27-.377-.405.054l-3.99 9.95c-.378.862-.54.862-.944.188l-4.718-10.192c-.135-.35-.324-.242-.324-.027l.027 9.006c.135 1.052.863 1.106 2.345 1.565.405.135.432.485.081.701-2.858-.243-3.343-.243-5.986.107-.432 0-.62-.62.027-.7 1.402-.405 1.806-.433 1.995-1.241z" clip-rule="evenodd"/><path fill="#fff" fill-rule="evenodd" d="M4.947 48.989C4.03 45.78 4.57 42.787 4.57 39.2c3.208-1.618 6.417-1.753 9.868-1.753 2.993 0 7.226.378 9.76 1.753.27 3.37.432 6.363-.458 10.219-.863 3.856-3.397 9.195-9.195 13.131-6.31-4.152-8.358-9.14-9.598-13.562" clip-rule="evenodd"/><path fill="#CF4037" fill-rule="evenodd" d="M5.217 49.016c-.863-3.1-.351-5.986-.351-9.491 3.128-1.537 6.202-1.699 9.545-1.699 2.912 0 7.011.378 9.491 1.699.243 3.29.378 6.174-.458 9.922-.836 3.72-3.29 8.898-8.898 12.7-6.12-3.99-8.116-8.844-9.33-13.131" clip-rule="evenodd"/><path fill="#fff" fill-rule="evenodd" d="m8.156 44.459-2.993 3.262c.674 3.155 2.534 9.734 9.383 14.183 6.768-4.664 8.575-11.055 8.98-14.237l-2.913-3.236-3.262 3.29-2.966-3.262-2.993 3.235zm1.375-3.317c-.027 0-.108-.054 0-.081.08 0 .216 0 .404.216.054-.027.243-.297.405-.216 0 .027-.593 1.348-.647 1.456-.27-.135-1.807-.243-1.645-.243.135 0-1.402.054-1.618.243-.08-.135-.674-1.483-.674-1.483.189-.08.378.19.432.216.162-.215.323-.215.35-.215.162.026.054.053.054.107-.755.594.324 1.268.566.594.944.108.674-.674.458-.782-.188-.027-.081-.08 0-.08.054-.028.189-.028.189.053 0-.432.027-.7.243-.836.242.162.27.404.242.836.027-.08.135-.054.216-.054.027.054.189.054.027.108-.243.081-.485.89.458.755.216.674 1.349-.082.54-.594m-.62.782.27.324-.54-.081zm-.863-.377.35.62h-.674zm-.836.377-.27.324.54-.081z" clip-rule="evenodd"/><path fill="#fff" fill-rule="evenodd" d="M6.808 43.245c-.108-.161-.216-.485-.297-.566.27-.215 1.24-.242 1.591-.242.512 0 1.24.08 1.483.242 0 0-.108.378-.216.62-.404-.162-.97-.215-1.32-.215-.433 0-.918.053-1.241.161m2.426-.512c.081 0 .162.108.162.162 0 .108-.081.189-.162.189-.08 0-.189-.081-.189-.189 0-.054.108-.162.19-.162m-.566-.108c.081 0 .162.081.162.162s-.08.19-.162.19c-.08 0-.189-.109-.189-.19 0-.08.108-.162.19-.162m-.62-.054c.108 0 .188.081.188.162a.184.184 0 0 1-.188.19c-.054 0-.162-.082-.162-.19 0-.08.108-.162.162-.162m-.593.054c.108 0 .189.081.189.162s-.081.19-.19.19c-.08 0-.161-.109-.161-.19 0-.08.08-.162.162-.162m-.54.108c.081 0 .189.108.189.162 0 .108-.108.189-.189.189-.08 0-.189-.081-.189-.189 0-.054.108-.162.19-.162" clip-rule="evenodd"/><path fill="#fff" fill-rule="evenodd" d="M8.075 43.191c.673 0 1.294.135 1.294.216 0 .054-.54.108-1.24.108-.674 0-1.268-.054-1.268-.108 0-.081.54-.216 1.214-.216m14.263-2.05c-.027 0-.108-.053 0-.08.054 0 .216 0 .378.216.08-.027.242-.297.431-.216 0 .027-.593 1.348-.673 1.456-.243-.135-1.78-.243-1.645-.243s-1.375.054-1.618.243c-.081-.135-.674-1.483-.674-1.483.189-.08.378.19.459.216.135-.215.296-.215.323-.215.162.026.054.053.054.107-.728.594.323 1.268.566.594.943.108.674-.674.458-.782-.188-.027-.054-.08 0-.08.08-.028.189-.028.189.053 0-.432.027-.7.242-.836.243.162.27.404.243.836.027-.08.135-.054.243-.054.026.054.161.054.026.108-.27.081-.512.89.432.755.216.674 1.348-.082.566-.594m-.647.783.297.324-.54-.081zm-.863-.377.351.62h-.647zm-.835.377-.27.324.539-.081z" clip-rule="evenodd"/><path fill="#fff" fill-rule="evenodd" d="M19.615 43.245c-.108-.161-.243-.485-.297-.566.243-.215 1.214-.242 1.564-.242.54 0 1.24.08 1.484.242 0 0-.108.378-.19.62-.43-.162-.97-.215-1.347-.215-.405 0-.89.053-1.214.161m2.4-.512c.081 0 .189.108.189.162 0 .108-.108.189-.189.189-.08 0-.162-.081-.162-.189 0-.054.081-.162.162-.162m-.567-.108c.081 0 .19.081.19.162s-.109.19-.19.19c-.08 0-.161-.109-.161-.19 0-.08.08-.162.162-.162m-.593-.054c.081 0 .162.081.162.162 0 .108-.08.19-.162.19-.08 0-.188-.082-.188-.19 0-.08.107-.162.188-.162m-.62.054c.108 0 .189.081.189.162s-.081.19-.189.19c-.054 0-.162-.109-.162-.19 0-.08.108-.162.162-.162m-.539.108c.081 0 .189.108.189.162 0 .108-.108.189-.189.189-.08 0-.162-.081-.162-.189 0-.054.081-.162.162-.162" clip-rule="evenodd"/><path fill="#fff" fill-rule="evenodd" d="M20.856 43.191c.673 0 1.294.135 1.294.216 0 .054-.54.108-1.24.108-.674 0-1.268-.054-1.268-.108 0-.08.54-.216 1.213-.216" clip-rule="evenodd"/><path fill="#CF4037" fill-rule="evenodd" d="M7.75 50.5c.055-.11.136-.405.19-.486-.054-.109-.135-.217-.243-.217.054-.108.216-.243.189-.323-.027-.108-.108-.081-.297-.162.054-.135.216-.216.27-.216.108-.027.108-.162.296-.243.162-.108.35-.108.54-.108.296.027 1.051.243.863 1.16.431.916 2.049-.324 2.588-.324-.108.215-.216.431-.35.62.161.108.35 0 .539 0-.19.512-.486.728-.728.917.243.836 1.186.512 2.05.404-.109.27-.46.323-.62.54.295.296.62.7.808 1.105-.378-.242-1.16-.512-1.429-.62-.485-.188-1.537-.188-2.049 0 .108.216.296.297.458.431-.243.486-.782.189-1.078.108-.27.19-.756.19-.863.08 0 0 0-.107.135-.241.108-.135-.297-.162-.432-.379 0-.161.243 0 .324-.188-.243-.511-1.322-.619-1.16-1.859m.73-1.457c.053 0 .08.054.08.108s-.027.108-.08.108a.116.116 0 0 1-.109-.108c0-.054.054-.108.108-.108m6.524 1.591c.027-.08.135-.378.216-.486-.081-.108-.19-.215-.243-.215.027-.108.216-.243.162-.324-.027-.081-.108-.054-.27-.162.054-.135.162-.216.27-.216s.108-.162.243-.27c.188-.053.377-.053.593-.08.27.026 1.052.242.836 1.159.459.917 2.05-.324 2.616-.324-.108.216-.27.432-.351.62.135.109.35 0 .512 0-.162.513-.485.729-.728.944.243.782 1.214.486 2.05.378-.082.296-.432.323-.62.539.296.296.62.701.835 1.133-.378-.27-1.186-.54-1.429-.648-.54-.188-1.563-.188-2.076 0 .108.216.324.325.458.404-.27.54-.755.244-1.051.136-.297.189-.755.189-.89.108 0 0 0-.162.162-.27.08-.135-.297-.162-.432-.378 0-.189.189 0 .324-.189-.27-.512-1.321-.62-1.187-1.859m.701-1.43c.081 0 .108.028.108.082s-.027.108-.108.108c-.054 0-.08-.054-.08-.108q0-.081.08-.081m-4.18 6.606c.054-.107.135-.404.216-.511-.08-.08-.162-.216-.242-.216.026-.108.188-.216.161-.297-.027-.108-.08-.08-.296-.188a.7.7 0 0 1 .296-.216c.108 0 .108-.135.27-.243.162-.08.378-.08.566-.107.27.026 1.025.242.836 1.186.431.89 2.076-.324 2.616-.324-.108.19-.243.405-.35.62.161.108.35 0 .511 0-.161.485-.458.701-.7.917.242.81 1.186.513 2.048.404-.108.27-.458.297-.62.513.297.323.62.701.81 1.133-.378-.244-1.16-.513-1.43-.62-.512-.19-1.536-.19-2.076 0 .108.188.297.296.486.404-.27.511-.782.216-1.106.107-.243.216-.728.216-.863.109 0 0 0-.135.162-.244.108-.161-.296-.188-.432-.377 0-.19.216 0 .324-.19-.27-.538-1.348-.645-1.187-1.86m.756-1.456c.027 0 .08.028.08.109 0 .026-.053.08-.08.08-.081 0-.135-.054-.135-.08 0-.081.054-.109.135-.109" clip-rule="evenodd"/><path fill="#fff" fill-rule="evenodd" d="M12.254 39.174s.458.188.863.027c.458-.19.89-.297 1.213-.135v3.91c-.27-.108-.647-.054-1.078.054-.405.08-.647.108-.998.027zm1.294 2.885c0-.135.108-.162.162-.162s.135.027.135.162c0 .162-.08.216-.135.216-.054 0-.162-.054-.162-.216m-.108 0c0 .27.19.296.27.296.054 0 .242-.026.242-.296 0-.243-.188-.27-.242-.27-.08 0-.27.027-.27.27m-.215.135-.19-.378h-.134v.54h.108v-.378l.216.377h.107v-.539h-.107zm-.54.216h.108v-.54h-.107zm1.348-1.753h-.162l-.08.404-.108-.404h-.162v.54h.108v-.432l.108.431h.107l.108-.431v.431h.081zm-.97.324c0-.162.08-.19.134-.19s.135.028.135.19c0 .134-.08.188-.135.188-.053 0-.134-.054-.134-.188m-.108 0c0 .242.162.27.242.27.055 0 .243-.028.243-.27s-.188-.27-.242-.27c-.081 0-.243.027-.243.27m-.404-.135h.107c.055 0 .108.027.108.189 0 .08-.027.162-.107.162h-.108zm-.108.458h.216c.188 0 .215-.189.215-.27 0-.108-.027-.27-.189-.27h-.242zm.997-1.268-.215-.377h-.108v.512h.08v-.35l.216.35h.108v-.512h-.08zm-.593.162h.108v-.512h-.108zm-.701-1.024-.377.296v3.937l.377-.35z" clip-rule="evenodd"/><path fill="#fff" fill-rule="evenodd" d="m11.876 43.46.378-.296c.27.081.836-.027 1.105-.08.459-.055.648-.163.971 0-.189.08-.297.241-.297.377zm4.988 0-.35-.296c-.296.081-.836-.027-1.105-.08-.485-.055-.647-.163-.917 0 .135.08.242.241.216.377zm-.242-4.34.35.35v3.883l-.35-.323z" clip-rule="evenodd"/><path fill="#fff" fill-rule="evenodd" d="M16.487 39.174s-.458.188-.835.027c-.486-.19-.89-.297-1.16-.135v3.91c.243-.108.566-.054.998.054.432.08.674.108.998.027zm-1.563 3.154h.215c.19 0 .216-.161.216-.27 0-.107-.027-.242-.216-.242h-.215zm.107-.43h.108c.054 0 .108.026.108.161 0 .108-.027.189-.108.189h-.108zm.459.242c0 .27.188.297.27.297.053 0 .242-.027.242-.297 0-.243-.188-.27-.243-.27-.08 0-.27.027-.27.27m.134 0c0-.135.054-.162.135-.162.054 0 .135.027.135.162 0 .162-.08.189-.135.189-.08 0-.135-.027-.135-.189m-.431-1.051h.243v-.108h-.243v-.108h.27v-.081h-.378v.512h.108zm.405.215h.107v-.512h-.107zm-.486-1.456c0-.08-.081-.189-.216-.189-.162 0-.243.108-.243.27 0 .189.081.297.243.297.108 0 .189-.081.216-.189h-.108c-.027.054-.054.08-.108.08-.108 0-.135-.08-.135-.188 0-.134.081-.162.135-.162.081 0 .081.054.108.081zm.08.162c0 .243.19.27.27.27.055 0 .243-.027.243-.27s-.188-.27-.242-.27c-.081 0-.27.027-.27.27m.136 0c0-.162.08-.189.135-.189.054 0 .135.027.135.189 0 .135-.081.189-.135.189s-.135-.055-.135-.189m.782.108-.19-.378h-.134v.54h.108v-.378l.216.377h.108v-.539h-.108zm-1.699 3.047c-.162.162-.243.162-.189.297h.324c.027-.136 0-.217-.135-.297" clip-rule="evenodd"/></svg>