<svg xmlns="http://www.w3.org/2000/svg" width="149" height="100" fill="none"><path fill="#62003C" d="M132.342 28.46a3.48 3.48 0 0 0-3.493 3.493 3.48 3.48 0 0 0 3.493 3.493 3.48 3.48 0 0 0 3.493-3.493 3.48 3.48 0 0 0-3.493-3.493M124.903 40.62c1.165 0 2.135-.97 2.135-2.134s-.97-2.134-2.135-2.134-2.134.97-2.134 2.134c-.065 1.164.841 2.07 2.005 2.135zM46.572 44.243h-2.329v13.002h2.329zM66.494 49.87c.324-2.263 1.876-3.816 3.817-3.816 2.458 0 3.557 1.94 3.751 3.816zm3.881-5.886c-3.557 0-6.274 2.911-6.274 6.792s2.846 6.792 6.533 6.792c2.07.065 4.01-.841 5.304-2.458l.13-.194-1.488-1.358-.13.129c-.97 1.1-2.328 1.682-3.816 1.682-2.2 0-4.01-1.617-4.204-3.817h9.896v-.776c.13-4.01-2.264-6.792-5.95-6.792M22.057 57.245h2.264V44.243h-2.264v7.439c.13 1.94-1.358 3.557-3.234 3.687H18.5c-2.07 0-3.234-1.359-3.234-3.558v-7.568h-2.329v8.02c0 3.17 2.005 5.24 5.045 5.24 1.617.065 3.105-.711 4.075-2.005zM37.71 49.677v7.568h2.33v-8.021c0-3.17-2.006-5.24-5.046-5.24a4.8 4.8 0 0 0-4.075 1.941v-1.682H28.59v13.002h2.329V49.87c-.13-1.94 1.358-3.558 3.234-3.687h.324c2.005-.065 3.234 1.293 3.234 3.493M57.115 57.374l5.692-13.13h-2.522l-4.075 10.09-4.075-10.09h-2.588l5.628 13.13zM82.148 52.005c0-3.363 1.876-5.562 4.786-5.562h.388v-2.458h-.194a5.35 5.35 0 0 0-4.916 2.846v-2.588h-2.328v13.002h2.328zM114.166 57.503c.841 0 1.681-.194 2.393-.582l.129-.065v-2.07l-.323.13c-.518.259-1.164.388-1.747.388-1.293 0-1.875-.582-1.875-1.876v-7.115h4.01v-2.07h-4.01v-4.269l-2.329 1.294v3.04h-2.458v2.07h2.458v7.309c0 2.458 1.358 3.816 3.752 3.816M124.968 45.99c2.458 0 3.557 1.94 3.751 3.816h-7.567c.323-2.2 1.875-3.816 3.816-3.816m.323 11.578a6.5 6.5 0 0 0 5.304-2.458l.13-.194-1.488-1.358-.129.13c-.971 1.099-2.329 1.68-3.817 1.68-2.199 0-4.01-1.616-4.204-3.815h9.896v-.777c0-4.14-2.458-6.856-6.08-6.856s-6.274 2.91-6.274 6.792c.129 3.945 2.911 6.856 6.662 6.856M95.02 49.677c-1.617-.518-3.105-.906-3.105-2.006 0-.97.905-1.617 2.2-1.617a7.3 7.3 0 0 1 3.621 1.164l.194.13 1.1-1.811-.194-.13a8.4 8.4 0 0 0-4.657-1.423c-2.652 0-4.528 1.553-4.528 3.817v.064c0 2.523 2.523 3.234 4.334 3.752 1.681.453 2.975.906 2.975 2.07 0 1.035-.97 1.746-2.393 1.746-1.552-.064-3.04-.582-4.204-1.552l-.195-.13-1.229 1.682.13.13a8.6 8.6 0 0 0 5.368 1.875c2.782 0 4.658-1.617 4.658-4.01v-.065c.13-2.457-2.394-3.234-4.075-3.687M105.24 44.243h-2.329v13.002h2.329zM25.55 67.27l1.294-3.234 1.293 3.234zm.324-5.821-4.27 9.96h2.2l.905-2.198h4.205l.905 2.199h2.264l-4.204-9.961zM114.748 67.27l1.294-3.234 1.293 3.234zm.323-5.821-4.269 9.96h2.199l.906-2.198h4.204l.906 2.199h2.264l-4.205-9.961zM126.262 65.524l-2.394-4.01h-2.522l3.816 6.015v3.881h2.199v-3.945l3.752-5.951h-2.458zM18.629 65.007c0 .84-.647 1.487-1.747 1.487h-1.681v-3.04h1.681c1.035.065 1.747.582 1.747 1.553m-1.617-3.493h-4.01v9.896H15.2v-2.975h1.617c2.199 0 4.01-1.165 4.01-3.493 0-2.005-1.423-3.428-3.816-3.428M95.084 69.599c-1.617-.065-2.91-1.423-2.846-3.04v-.065c-.064-1.617 1.23-3.04 2.846-3.105.97.065 1.876.453 2.523 1.1l1.358-1.617a5.31 5.31 0 0 0-7.503 0c-.97.97-1.488 2.199-1.552 3.557-.065 2.782 2.134 5.046 4.916 5.11h.194a5.16 5.16 0 0 0 4.075-1.746l-1.359-1.423a3.45 3.45 0 0 1-2.652 1.229M72.833 65.524c-1.746-.453-2.134-.647-2.134-1.294 0-.453.453-.84 1.294-.84a4.9 4.9 0 0 1 2.587.97l1.164-1.618a5.82 5.82 0 0 0-3.687-1.293c-2.005 0-3.493 1.164-3.493 2.975 0 1.94 1.294 2.523 3.3 3.04 1.681.453 2.004.712 2.004 1.23 0 .581-.517.905-1.423.905-1.1 0-2.199-.453-2.975-1.23l-1.294 1.553c1.165 1.035 2.652 1.553 4.205 1.553 2.134 0 3.622-1.1 3.622-3.04v-.065c0-1.617-1.164-2.329-3.17-2.846M104.011 61.514h-2.135v9.896h7.115v-1.94h-4.98zM81.824 67.27l1.294-3.234 1.293 3.234zm.323-5.821-4.269 9.96h2.2l.905-2.198h4.205l.905 2.199h2.264l-4.204-9.961zM65.847 66.042h-4.333v2.07h4.333zM40.816 64.942c0 .84-.583 1.423-1.682 1.423h-2.2v-2.846h2.135c1.1 0 1.747.453 1.747 1.423m2.199-.13c0-2.07-1.423-3.298-3.752-3.298h-4.528v9.896h2.2v-3.17h1.746l2.135 3.17h2.522l-2.458-3.493c1.359-.453 2.2-1.681 2.135-3.105M48.383 61.514h-2.199v9.896h2.2zM55.887 65.524c-1.747-.453-2.135-.647-2.135-1.294 0-.453.453-.84 1.294-.84a4.9 4.9 0 0 1 2.587.97l1.164-1.618a5.82 5.82 0 0 0-3.686-1.293c-2.006 0-3.493 1.164-3.493 2.975 0 1.94 1.293 2.523 3.298 3.04 1.682.453 2.006.712 2.006 1.23 0 .581-.518.905-1.423.905-1.1 0-2.2-.453-2.976-1.23l-1.294 1.553c1.165 1.035 2.653 1.553 4.205 1.553 2.134 0 3.622-1.1 3.622-3.04v-.065c0-1.617-1.164-2.329-3.17-2.846"/></svg>