<svg xmlns="http://www.w3.org/2000/svg" width="101" height="100" fill="none"><path fill="#2D67AF" fill-rule="evenodd" d="M18.226 56.027s-1.589-.006-2.367-.384c-1.406-.68-1.676-2.77-1.856-4.497-.02-.19-1.33-.605-1.954-1.176-1.015-.926-.86-3.822-.86-4.008s-1.64-.99-1.64-2.784c0-.757.012-4.993.012-4.993-1.07-1.328-1.586-1.412-2.581-1.05-1.06.323-1.394 1.098-2.497 1.254l-.014 12.866c0 3.89.714 7.7 4.7 10.692 3.697 2.77 6.559 2.702 9.054 7.243.042.074-.003-14.234.003-13.163m15.333-13.57c-.102-.041-.121-.069-.121-.197 0-.319.025-.666.032-.759.006-.087.025-.15.076-.15.058 0 .064.052.064.097 0 .076.025.198.058.296.14.429.516.585.91.585.574 0 .854-.353.854-.66 0-.284-.096-.556-.625-.928l-.292-.208c-.702-.498-.944-.903-.944-1.372 0-.638.587-1.096 1.473-1.096.414 0 .682.059.848.099.057.011.088.029.088.07 0 .075-.025.243-.025.694 0 .128-.019.175-.07.175q-.066 0-.064-.105a.66.66 0 0 0-.165-.382c-.096-.11-.281-.285-.696-.285-.471 0-.758.25-.758.597 0 .267.147.47.676.834l.179.122c.764.54 1.045.927 1.045 1.478 0 .336-.14.735-.599 1.008-.32.185-.676.237-1.014.237-.369 0-.656-.04-.93-.15m5.207-2.63c0-.88 0-1.044-.013-1.229-.013-.196-.077-.295-.217-.324a1 1 0 0 0-.229-.022c-.064 0-.102-.012-.102-.058 0-.035.052-.047.153-.047.242 0 .644.017.829.017.16 0 .535-.017.778-.017.083 0 .133.011.133.047 0 .046-.038.058-.101.058q-.096 0-.192.017c-.172.029-.223.127-.236.33-.012.185-.012.348-.012 1.228v1.02c0 .563 0 1.02.025 1.27.02.156.064.26.255.283.09.011.23.023.325.023q.103.001.102.047c0 .04-.051.058-.12.058-.422 0-.823-.018-.995-.018-.147 0-.549.018-.803.018q-.126.001-.128-.058c0-.03.025-.047.102-.047.096 0 .172-.011.23-.023.127-.023.165-.121.184-.29.032-.243.032-.7.032-1.263zm4.385 1.912c.012.451.095.602.223.643.108.035.229.04.331.04.07 0 .109.012.109.047 0 .047-.058.058-.147.058-.415 0-.67-.017-.79-.017-.058 0-.358.017-.69.017-.082 0-.14-.005-.14-.058 0-.034.039-.046.102-.046.083 0 .198-.007.287-.029.166-.047.192-.215.198-.718l.057-3.43c0-.117.02-.198.083-.198.07 0 .127.076.236.18a79 79 0 0 0 1.976 1.86c.434.394 1.294 1.228 1.402 1.322h.032l-.063-2.603c-.007-.353-.064-.464-.217-.521-.096-.034-.249-.034-.337-.034-.077 0-.103-.018-.103-.053 0-.046.071-.053.166-.053.332 0 .637.018.772.018.07 0 .312-.018.624-.018.083 0 .147.007.147.053q0 .053-.115.053c-.064 0-.115 0-.191.017-.179.045-.23.168-.236.492l-.07 3.656c0 .128-.026.18-.083.18-.07 0-.147-.064-.217-.127-.402-.348-1.218-1.107-1.88-1.704-.695-.626-1.403-1.35-1.518-1.46h-.018zm10.663.4c0 .156-.006.167-.082.208-.415.197-1.04.26-1.537.26-1.561 0-2.945-.67-2.945-2.27a2.13 2.13 0 0 1 1.11-1.896c.611-.336 1.179-.376 1.714-.376.44 0 1.001.07 1.129.093.133.023.357.058.503.064.076.006.09.03.09.069 0 .063-.045.226-.045.95 0 .092-.018.122-.07.122-.045 0-.057-.03-.064-.076a.77.77 0 0 0-.217-.48c-.19-.186-.701-.453-1.421-.453-.35 0-.816.023-1.262.36-.357.272-.587.706-.587 1.42 0 1.245.874 2.178 2.219 2.178.166 0 .389 0 .542-.064.095-.04.121-.116.121-.215v-.544c0-.29 0-.51-.007-.684-.006-.197-.064-.29-.273-.33a1.5 1.5 0 0 0-.25-.017c-.057 0-.096-.012-.096-.047 0-.047.046-.058.135-.058.331 0 .733.018.924.018.198 0 .535-.018.746-.018.082 0 .127.011.127.058 0 .035-.038.047-.083.047-.05 0-.095.005-.172.017-.171.029-.235.128-.242.33q-.009.262-.007.696zm3.309-1.414c-.026 0-.033-.018-.026-.04l.586-1.426c.007-.023.02-.053.038-.053.02 0 .026.03.033.053l.573 1.431c.006.017 0 .035-.032.035zm1.294.29q.045-.002.063.04l.51 1.23c.032.068-.012.12-.057.132-.064.006-.09.017-.09.052 0 .04.077.04.192.047.51.011.975.011 1.204.011.236 0 .294-.011.294-.058 0-.04-.032-.046-.083-.046q-.135 0-.27-.024c-.132-.029-.317-.11-.56-.631-.408-.88-1.427-3.245-1.58-3.563-.064-.134-.102-.186-.16-.186-.064 0-.102.064-.179.232l-1.599 3.639c-.128.29-.249.487-.542.521q-.099.01-.198.012c-.052 0-.076.011-.076.046 0 .047.038.058.121.058.332 0 .682-.017.752-.017.198 0 .472.017.676.017.07 0 .108-.011.108-.058 0-.034-.02-.046-.095-.046h-.097c-.197 0-.254-.076-.254-.18 0-.07.032-.209.095-.354l.344-.83c.013-.033.026-.045.057-.045zm3.933-1.188c0-.88 0-1.044-.013-1.229-.013-.196-.064-.29-.273-.33a1.5 1.5 0 0 0-.25-.017c-.07 0-.108-.011-.108-.052s.045-.053.14-.053c.338 0 .74.017.919.017.26 0 .63-.017.923-.017.798 0 1.085.244 1.187.33.14.122.318.383.318.69 0 .823-.663 1.402-1.567 1.402-.032 0-.104 0-.135-.006-.032-.005-.076-.011-.076-.053 0-.046.045-.063.178-.063.357 0 .854-.365.854-.956 0-.19-.019-.58-.376-.869a1 1 0 0 0-.637-.226c-.096 0-.192.006-.25.023-.031.012-.05.046-.05.11v2.318c0 .533 0 .991.032 1.24.018.162.056.29.248.313.09.011.23.023.326.023.07 0 .1.017.1.047 0 .04-.05.057-.12.057-.42 0-.822-.017-.987-.017-.147 0-.548.017-.804.017q-.125.001-.126-.057c0-.03.025-.047.1-.047.097 0 .173-.011.23-.023.128-.023.16-.15.185-.318.032-.244.032-.702.032-1.235zm7.463 2.492c-1.224 0-1.957-.957-1.957-2.162 0-1.443.835-1.814 1.568-1.814 1.045 0 1.867.806 1.867 2.104 0 1.674-1.033 1.871-1.478 1.871m-.269.289c1.62 0 2.64-1.048 2.64-2.376s-.988-2.167-2.576-2.167c-1.912 0-2.632 1.28-2.632 2.271 0 1.026.74 2.272 2.568 2.272m5.872-4.085c0-.046.012-.07.057-.082a1.6 1.6 0 0 1 .337-.023c.377 0 .976.238.976 1.061 0 .475-.185.742-.376.869-.116.075-.198.098-.453.098-.16 0-.35-.017-.485-.058-.044-.017-.056-.04-.056-.104zm-.753 2.323c0 .534 0 .992-.031 1.235-.027.168-.058.295-.185.318a1 1 0 0 1-.23.023c-.076 0-.101.017-.101.047q.001.058.127.057c.256 0 .657-.017.778-.017.096 0 .568.017.937.017q.126.001.127-.057 0-.046-.076-.047c-.076 0-.216-.011-.313-.023-.19-.023-.228-.15-.248-.318-.032-.244-.032-.702-.032-1.24v-.083c0-.034.02-.045.051-.045l.554.011c.045 0 .083.006.116.04.083.088.375.482.63.8.357.446.599.72.874.852.166.081.325.11.681.11h.606c.076 0 .12-.01.12-.057q0-.046-.075-.047-.074 0-.178-.017c-.096-.017-.357-.058-.715-.395-.376-.358-.815-.874-1.383-1.523.643-.476.841-.87.841-1.298a.98.98 0 0 0-.434-.794c-.343-.214-.77-.25-1.172-.25-.197 0-.682.018-.899.018-.133 0-.534-.017-.873-.017-.097 0-.14.011-.14.053 0 .04.038.052.107.052q.125-.002.249.017c.21.04.261.133.273.33.013.185.013.348.013 1.229zm5.96-1.02c0-.88 0-1.043-.013-1.228-.013-.196-.064-.29-.273-.33a1.5 1.5 0 0 0-.25-.017c-.07 0-.106-.011-.106-.052s.043-.053.14-.053c.337 0 .74.017.917.017.204 0 1.473 0 1.594-.006.12-.011.223-.023.274-.034.032-.006.07-.023.101-.023.032 0 .04.023.04.052 0 .04-.033.11-.052.377-.007.057-.02.313-.032.382-.007.03-.02.064-.064.064-.045 0-.057-.03-.057-.081a.6.6 0 0 0-.039-.21c-.044-.103-.108-.173-.426-.208-.11-.011-.778-.023-.906-.023q-.046 0-.045.057v1.467c0 .04.007.064.045.064.14 0 .874 0 1.02-.011.153-.012.249-.03.307-.088.044-.045.07-.075.102-.075.025 0 .044.012.044.047 0 .034-.032.127-.052.422a7 7 0 0 0-.025.389c0 .046 0 .11-.058.11-.044 0-.056-.023-.056-.053-.007-.057-.007-.132-.026-.208-.032-.115-.12-.203-.358-.226a23 23 0 0 0-.904-.017c-.032 0-.039.022-.039.057v.458c0 .197-.006.73 0 .898.013.4.116.487.766.487.166 0 .433 0 .598-.07.166-.069.244-.19.288-.428.012-.064.026-.087.07-.087.051 0 .051.047.051.105a4 4 0 0 1-.083.643c-.044.15-.101.15-.343.15-.964 0-1.39-.034-1.766-.034-.146 0-.549.018-.803.018q-.126.001-.127-.058c0-.03.025-.047.102-.047.095 0 .17-.011.228-.023.127-.023.16-.15.185-.318.032-.244.032-.702.032-1.235zm-46.478 7.398q.031-.151.109-.152c.051 0 .089.03.172.18l1.74 3.27 1.733-3.31c.045-.093.083-.14.14-.14q.087 0 .116.18l.58 3.582c.057.365.121.533.313.586.184.052.312.057.394.057.058 0 .102.006.102.04 0 .047-.075.064-.166.064a38 38 0 0 1-1.293-.034c-.147-.011-.186-.03-.186-.064 0-.03.026-.046.07-.063.039-.012.058-.087.032-.25l-.381-2.55h-.026l-1.39 2.632c-.146.272-.179.324-.236.324s-.12-.116-.223-.29a51 51 0 0 1-.734-1.315c-.056-.122-.439-.853-.662-1.286h-.026l-.331 2.306a2 2 0 0 0-.02.272c0 .11.083.162.191.185.115.023.204.029.269.029.05 0 .096.012.096.04 0 .054-.058.064-.153.064-.269 0-.555-.017-.67-.017-.121 0-.428.017-.63.017-.065 0-.116-.01-.116-.063 0-.03.038-.041.102-.041.05 0 .095 0 .191-.017.178-.035.229-.26.261-.458zm8.005 2.555c-.025 0-.032-.017-.025-.04l.586-1.427c.006-.023.019-.052.038-.052s.025.03.032.052l.573 1.431c.007.019 0 .036-.031.036zm1.294.29q.047-.002.063.04l.51 1.23c.032.069-.012.12-.057.133-.063.005-.09.017-.09.052 0 .04.077.04.192.047.51.01.975.01 1.205.01.236 0 .292-.01.292-.057 0-.04-.031-.047-.083-.047a1.5 1.5 0 0 1-.267-.023c-.134-.029-.319-.11-.561-.632-.409-.88-1.428-3.245-1.582-3.563-.062-.134-.1-.186-.159-.186-.064 0-.1.063-.178.232l-1.6 3.639c-.127.29-.249.487-.542.522-.05.006-.14.011-.198.011-.05 0-.076.012-.076.047 0 .047.038.057.121.057.332 0 .682-.016.752-.016.198 0 .472.017.676.017.07 0 .109-.011.109-.058 0-.034-.02-.047-.097-.047h-.095c-.198 0-.255-.075-.255-.18 0-.069.032-.207.096-.353l.345-.829c.013-.034.025-.046.057-.046zm4.29.724c.012.452.096.603.223.643.108.035.23.04.332.04.07 0 .108.012.108.047 0 .047-.057.057-.147.057-.414 0-.669-.016-.79-.016-.057 0-.357.016-.688.016-.083 0-.14-.005-.14-.057 0-.034.038-.047.101-.047.083 0 .198-.005.287-.028.166-.047.192-.215.198-.72l.057-3.43c0-.115.02-.197.083-.197.07 0 .128.075.236.18.077.075 1.045 1.02 1.975 1.86.434.394 1.295 1.23 1.404 1.32h.032l-.063-2.6c-.008-.354-.064-.464-.218-.522-.096-.034-.249-.034-.337-.034-.077 0-.103-.018-.103-.053 0-.046.071-.052.166-.052.332 0 .638.018.771.018.071 0 .314-.018.626-.018.082 0 .145.006.145.052q0 .053-.114.053c-.064 0-.115 0-.19.018-.18.045-.23.167-.237.492l-.07 3.657c0 .126-.025.18-.083.18-.07 0-.147-.064-.217-.128-.402-.348-1.218-1.107-1.88-1.704-.695-.626-1.403-1.35-1.518-1.46h-.019zm7.208-1.014c-.025 0-.032-.017-.025-.04l.587-1.427c.006-.023.018-.052.037-.052s.026.03.032.052l.573 1.431c.007.019 0 .036-.032.036zm1.294.29c.032 0 .05.011.064.04l.51 1.23a.092.092 0 0 1-.058.133c-.063.005-.09.017-.09.052 0 .04.076.04.192.047.51.01.975.01 1.205.01.236 0 .293-.01.293-.057 0-.04-.032-.047-.083-.047-.077 0-.172-.005-.268-.023-.134-.029-.32-.11-.56-.632-.41-.88-1.43-3.245-1.583-3.563-.062-.134-.1-.186-.158-.186-.064 0-.102.063-.18.232l-1.6 3.639c-.126.29-.248.487-.541.522-.051.006-.14.011-.198.011-.051 0-.076.012-.076.047 0 .047.039.057.122.057.33 0 .681-.016.75-.016.198 0 .472.017.677.017.07 0 .109-.011.109-.058 0-.034-.02-.047-.097-.047h-.095c-.198 0-.256-.075-.256-.18 0-.069.033-.207.097-.353l.344-.829c.012-.034.025-.046.057-.046zm7.802 1.124c0 .157-.007.168-.083.208-.414.197-1.04.262-1.536.262-1.562 0-2.946-.673-2.946-2.272a2.13 2.13 0 0 1 1.11-1.895c.612-.336 1.18-.377 1.715-.377.44 0 1 .07 1.128.093.134.023.357.058.504.064.076.006.09.03.09.07 0 .063-.045.226-.045.95 0 .093-.02.121-.07.121-.045 0-.058-.029-.064-.075-.02-.134-.05-.319-.217-.48-.191-.186-.702-.453-1.421-.453-.351 0-.816.023-1.262.36-.358.272-.587.706-.587 1.42 0 1.245.873 2.178 2.218 2.178.165 0 .388 0 .541-.064.097-.04.121-.116.121-.214v-.545c0-.29 0-.51-.007-.684-.005-.197-.063-.29-.273-.33a1.5 1.5 0 0 0-.25-.017c-.056 0-.095-.012-.095-.046 0-.046.045-.058.135-.058.332 0 .733.017.924.017.198 0 .535-.017.746-.017.083 0 .128.012.128.058 0 .034-.039.046-.083.046-.052 0-.096.006-.172.017-.173.03-.237.128-.243.33q-.007.261-.006.696zm2.925-2.312c0-.88 0-1.044-.011-1.23-.013-.196-.064-.288-.275-.329a1.4 1.4 0 0 0-.248-.018c-.07 0-.109-.011-.109-.052s.045-.053.14-.053c.339 0 .74.018.919.018.203 0 1.472 0 1.593-.006.12-.012.223-.022.274-.035.032-.005.07-.022.102-.022s.038.022.038.052c0 .04-.032.11-.052.376-.006.059-.019.314-.031.383-.007.03-.02.064-.064.064-.045 0-.058-.029-.058-.081a.6.6 0 0 0-.037-.209c-.045-.105-.108-.174-.428-.209-.108-.01-.777-.023-.904-.023q-.046-.001-.045.058v1.467c0 .04.006.063.045.063.14 0 .873 0 1.02-.011.152-.011.248-.03.305-.087.045-.047.07-.076.103-.076.025 0 .044.011.044.046s-.032.127-.05.423a6 6 0 0 0-.027.389c0 .046 0 .11-.057.11-.044 0-.057-.023-.057-.053-.007-.057-.007-.133-.026-.209-.031-.116-.12-.202-.357-.226a23 23 0 0 0-.904-.017c-.033 0-.039.023-.039.058v.459c0 .196-.006.73 0 .897.013.4.115.487.764.487.166 0 .435 0 .6-.07.166-.07.242-.191.287-.428.013-.064.026-.088.071-.088.05 0 .05.047.05.105 0 .133-.05.527-.082.643-.045.15-.102.15-.345.15-.962 0-1.389-.034-1.764-.034-.147 0-.549.016-.804.016-.083 0-.128-.016-.128-.057 0-.029.027-.047.102-.047q.144-.002.23-.023c.127-.023.16-.15.184-.318.032-.244.032-.701.032-1.234v-1.02m5.411-1.657q.031-.151.11-.152c.05 0 .089.03.17.18l1.741 3.27 1.734-3.31c.044-.093.082-.14.14-.14q.087 0 .115.18l.58 3.582c.058.365.12.533.313.586.185.052.312.057.395.057.058 0 .102.006.102.04 0 .047-.077.064-.165.064-.16 0-1.04-.017-1.295-.034-.147-.011-.184-.03-.184-.064 0-.03.026-.046.07-.063.038-.012.057-.087.032-.25l-.382-2.55h-.026l-1.39 2.632c-.146.272-.178.324-.235.324-.058 0-.121-.116-.224-.29a46 46 0 0 1-.732-1.315c-.058-.122-.44-.853-.664-1.286h-.025l-.332 2.306q-.018.135-.018.272c0 .11.082.162.19.185.115.023.205.029.268.029.052 0 .095.012.095.04 0 .054-.057.064-.152.064-.267 0-.554-.017-.67-.017-.12 0-.426.017-.63.017-.065 0-.115-.01-.115-.063 0-.03.038-.041.102-.041.05 0 .095 0 .191-.017.179-.035.229-.26.262-.458zm7.56 1.657c0-.88 0-1.044-.012-1.23-.013-.196-.063-.288-.274-.329a1.4 1.4 0 0 0-.248-.018c-.072 0-.109-.011-.109-.052s.045-.053.14-.053c.337 0 .74.018.918.018.205 0 1.473 0 1.594-.006.12-.012.223-.022.273-.035.033-.005.07-.022.103-.022.031 0 .038.022.038.052 0 .04-.032.11-.052.376-.006.059-.019.314-.031.383-.008.03-.02.064-.064.064-.045 0-.058-.029-.058-.081a.6.6 0 0 0-.038-.209c-.045-.105-.109-.174-.427-.209-.108-.01-.777-.023-.904-.023-.033 0-.045.018-.045.058v1.467c0 .04.007.063.045.063.14 0 .873 0 1.019-.011.153-.011.249-.03.306-.087.045-.047.071-.076.102-.076.026 0 .045.011.045.046s-.032.127-.05.423a6 6 0 0 0-.026.389c0 .046 0 .11-.058.11-.045 0-.057-.023-.057-.053-.007-.057-.007-.133-.026-.209-.032-.116-.121-.202-.357-.226a23 23 0 0 0-.905-.017c-.031 0-.038.023-.038.058v.459c0 .196-.006.73 0 .897.012.4.116.487.765.487.165 0 .434 0 .599-.07s.242-.191.287-.428c.013-.064.026-.088.07-.088.052 0 .052.047.052.105 0 .133-.052.527-.083.643-.045.15-.103.15-.345.15-.962 0-1.39-.034-1.765-.034-.147 0-.55.016-.803.016-.083 0-.128-.016-.128-.057 0-.029.025-.047.102-.047a1 1 0 0 0 .229-.023c.128-.023.16-.15.185-.318.032-.244.032-.701.032-1.234zm5.533 1.912c.013.452.096.603.223.643.108.035.23.04.331.04.07 0 .109.012.109.047 0 .047-.057.057-.146.057-.414 0-.67-.016-.79-.016-.058 0-.358.016-.69.016-.082 0-.14-.005-.14-.057 0-.034.039-.047.102-.047.084 0 .198-.005.288-.028.165-.047.19-.215.197-.72l.058-3.43c0-.115.019-.197.083-.197.07 0 .127.075.236.18.075.075 1.044 1.02 1.975 1.86.434.394 1.295 1.23 1.402 1.32h.032l-.064-2.6c-.006-.354-.063-.464-.216-.522-.096-.034-.249-.034-.338-.034-.076 0-.102-.018-.102-.053 0-.046.071-.052.166-.052.332 0 .638.018.771.018.07 0 .312-.018.624-.018.083 0 .147.006.147.052q0 .053-.116.053c-.062 0-.114 0-.19.018-.179.045-.229.167-.236.492l-.07 3.657c0 .126-.026.18-.082.18-.071 0-.147-.064-.218-.128-.401-.348-1.217-1.107-1.88-1.704-.695-.626-1.402-1.35-1.517-1.46h-.019zm7.673-3.268-.95.023c-.37.011-.522.04-.618.168a.6.6 0 0 0-.109.202c-.011.047-.031.07-.07.07-.044 0-.057-.03-.057-.093 0-.093.121-.62.135-.667.018-.074.037-.11.075-.11.052 0 .116.058.275.07.184.018.426.03.638.03h2.523c.204 0 .345-.019.44-.03.097-.017.147-.029.173-.029.044 0 .05.035.05.122 0 .122-.018.522-.018.673-.007.057-.019.092-.057.092-.051 0-.064-.03-.07-.116l-.008-.064c-.012-.15-.184-.313-.751-.324l-.804-.017V49.9c0 .533 0 .99.032 1.24.019.162.057.29.249.313.089.012.228.023.325.023q.103.002.102.047c0 .04-.052.057-.121.057-.421 0-.823-.017-1.002-.017-.145 0-.548.017-.802.017q-.126.001-.128-.057c0-.03.026-.047.103-.047.095 0 .17-.011.228-.023.128-.023.165-.15.184-.319.033-.243.033-.7.033-1.233zM33.635 58.297c0-.88 0-1.043-.011-1.228-.014-.197-.064-.29-.276-.33a1.5 1.5 0 0 0-.248-.018c-.07 0-.108-.011-.108-.052s.044-.053.14-.053c.338 0 .74.018.93.018.153 0 .555-.018.785-.018.095 0 .14.012.14.053s-.038.052-.102.052c-.07 0-.108.006-.184.018-.173.029-.224.127-.237.33-.012.185-.012.348-.012 1.228v.811c0 .841.184 1.194.497 1.426.287.215.58.237.797.237.28 0 .624-.081.88-.312.35-.32.369-.84.369-1.438v-.724c0-.88 0-1.044-.013-1.228-.013-.197-.064-.29-.274-.33a1.4 1.4 0 0 0-.23-.018c-.07 0-.108-.012-.108-.053s.045-.052.134-.052c.325 0 .727.017.733.017.077 0 .478-.017.727-.017.089 0 .134.011.134.052s-.038.053-.115.053c-.07 0-.109.006-.185.017-.172.03-.223.127-.236.33-.012.185-.012.349-.012 1.229v.62c0 .643-.07 1.327-.606 1.744-.452.353-.911.417-1.326.417-.337 0-.95-.017-1.415-.4-.325-.267-.568-.695-.568-1.535zm7.209 1.913c.012.452.096.603.223.643.108.035.23.04.331.04.07 0 .109.012.109.047 0 .046-.058.058-.147.058-.414 0-.67-.018-.79-.018-.057 0-.357.018-.688.018-.083 0-.14-.006-.14-.057 0-.036.037-.048.1-.048.083 0 .198-.005.288-.028.165-.047.191-.216.198-.719l.057-3.43c0-.117.02-.198.083-.198.07 0 .127.075.236.18.076.075 1.045 1.02 1.976 1.86.433.394 1.294 1.229 1.402 1.321h.032l-.063-2.601c-.007-.354-.064-.464-.217-.522-.096-.035-.248-.035-.338-.035-.076 0-.102-.017-.102-.052 0-.046.07-.053.165-.053.332 0 .638.018.772.018.07 0 .313-.018.625-.018.082 0 .146.007.146.053q0 .052-.115.052c-.064 0-.115 0-.191.018-.179.046-.23.167-.236.492l-.07 3.657c0 .127-.025.18-.083.18-.07 0-.147-.065-.217-.127-.401-.349-1.217-1.108-1.88-1.705-.696-.625-1.403-1.35-1.517-1.46h-.02zm6.825-1.913c0-.88 0-1.043-.012-1.228-.013-.197-.076-.296-.217-.325a1 1 0 0 0-.229-.023c-.064 0-.102-.011-.102-.057 0-.035.051-.047.153-.047.242 0 .644.018.829.018.16 0 .535-.018.778-.018.083 0 .133.011.133.047 0 .046-.038.057-.102.057-.063 0-.114.006-.19.018-.173.029-.224.127-.237.33-.013.185-.013.348-.013 1.228v1.02c0 .562 0 1.02.026 1.27.02.155.064.26.255.283.09.011.229.023.325.023q.103.002.102.047c0 .04-.051.058-.12.058-.422 0-.823-.018-.995-.018-.147 0-.549.018-.804.018q-.126 0-.127-.057c0-.03.025-.048.102-.048.096 0 .172-.011.23-.023.127-.023.164-.121.184-.29.032-.243.032-.701.032-1.263zm3.442-1.112c-.147-.319-.255-.382-.485-.44-.096-.024-.197-.024-.248-.024-.058 0-.077-.017-.077-.052 0-.046.07-.053.167-.053.337 0 .7.018.922.018.16 0 .466-.018.786-.018.076 0 .146.012.146.053s-.039.052-.096.052c-.102 0-.197.006-.248.041a.13.13 0 0 0-.064.121c0 .075.056.238.147.447l1.096 2.63h.024c.275-.638 1.103-2.504 1.257-2.886q.046-.102.056-.214a.11.11 0 0 0-.082-.11 1 1 0 0 0-.255-.03c-.057 0-.108-.005-.108-.046 0-.046.057-.058.178-.058.32 0 .587.018.67.018.108 0 .408-.018.6-.018.082 0 .134.012.134.053s-.039.052-.103.052c-.063 0-.197 0-.312.07-.083.053-.18.15-.352.522-.248.544-.42.857-.765 1.57-.408.846-.706 1.477-.847 1.766-.166.337-.204.43-.293.43-.083 0-.121-.081-.243-.354zm6.348 1.112c0-.88 0-1.043-.012-1.228-.013-.197-.064-.29-.275-.33a1.5 1.5 0 0 0-.248-.018c-.071 0-.11-.011-.11-.052s.046-.053.141-.053c.338 0 .74.018.918.018.204 0 1.473 0 1.594-.006.12-.012.223-.024.273-.035.033-.006.072-.023.103-.023.032 0 .038.023.038.053 0 .04-.032.11-.052.377-.006.057-.018.313-.032.382-.006.029-.019.063-.063.063-.045 0-.058-.028-.058-.08 0-.041-.006-.14-.038-.21-.045-.103-.109-.173-.427-.208-.108-.01-.777-.023-.904-.023-.033 0-.045.018-.045.058v1.466c0 .04.006.064.044.064.14 0 .873 0 1.02-.011.153-.012.248-.03.306-.088.045-.046.07-.075.102-.075.026 0 .045.011.045.046s-.032.128-.051.423a6 6 0 0 0-.026.388c0 .047 0 .11-.057.11-.045 0-.058-.023-.058-.052-.006-.058-.006-.133-.025-.208-.032-.117-.121-.203-.357-.226a23 23 0 0 0-.905-.018c-.032 0-.038.023-.038.057v.459c0 .197-.006.73 0 .898.012.4.115.486.766.486.165 0 .432 0 .598-.07.166-.069.243-.19.287-.428.013-.064.027-.087.07-.087.052 0 .052.046.052.104 0 .134-.052.528-.083.644-.044.15-.102.15-.344.15-.963 0-1.39-.035-1.765-.035-.147 0-.549.018-.804.018q-.126.001-.128-.058c0-.029.026-.047.103-.047.095 0 .172-.011.23-.023.126-.023.159-.15.184-.318.031-.244.031-.702.031-1.235zm5.926-1.303c0-.047.013-.07.058-.081.064-.019.178-.024.338-.024.376 0 .975.237.975 1.061 0 .475-.184.741-.376.87-.115.075-.198.098-.453.098-.16 0-.35-.018-.484-.059-.045-.017-.058-.04-.058-.104zm-.751 2.323c0 .533 0 .991-.032 1.235-.025.168-.056.295-.184.318a1 1 0 0 1-.23.023c-.076 0-.102.018-.102.047 0 .04.046.058.128.058.255 0 .656-.018.778-.018.095 0 .566.018.936.018q.126 0 .128-.057 0-.047-.076-.048c-.077 0-.217-.011-.313-.023-.19-.023-.23-.15-.249-.318-.032-.244-.032-.702-.032-1.24v-.082c0-.034.02-.046.052-.046l.554.011c.045 0 .083.006.115.04.083.087.377.482.632.8.357.447.599.719.874.853.165.08.324.11.68.11h.606c.076 0 .12-.012.12-.057q0-.047-.075-.048-.074 0-.18-.016c-.095-.019-.356-.059-.713-.395-.376-.36-.816-.875-1.383-1.524.644-.475.84-.87.84-1.298a.98.98 0 0 0-.432-.794c-.344-.214-.77-.25-1.173-.25-.198 0-.682.019-.899.019-.134 0-.535-.018-.872-.018-.097 0-.141.011-.141.052s.038.053.108.053c.09 0 .198.006.249.017.21.04.261.134.274.33.012.185.012.349.012 1.229zm5.515 1.611c-.103-.04-.121-.07-.121-.197 0-.319.025-.667.031-.76.007-.087.027-.15.077-.15.057 0 .064.052.064.098 0 .076.025.197.056.296.141.429.517.585.912.585.573 0 .854-.353.854-.66 0-.285-.096-.557-.625-.928l-.292-.208c-.702-.498-.945-.904-.945-1.373 0-.638.588-1.095 1.473-1.095.415 0 .683.057.849.099.056.01.09.029.09.069 0 .076-.026.243-.026.695 0 .128-.02.175-.07.175-.046 0-.064-.035-.064-.105a.67.67 0 0 0-.166-.383c-.097-.11-.28-.283-.695-.283-.472 0-.76.25-.76.596 0 .267.149.47.677.834l.178.122c.766.54 1.046.927 1.046 1.478 0 .336-.14.736-.6 1.008-.318.185-.675.237-1.013.237-.37 0-.657-.04-.93-.15m5.205-2.63c0-.88 0-1.044-.012-1.229-.013-.197-.077-.296-.217-.325a1 1 0 0 0-.229-.023c-.063 0-.102-.011-.102-.057 0-.035.051-.047.153-.047.243 0 .644.018.828.018.16 0 .536-.018.778-.018.084 0 .134.011.134.047 0 .046-.037.057-.1.057-.065 0-.117.006-.192.018-.172.029-.223.127-.236.33-.013.185-.013.348-.013 1.228v1.02c0 .562 0 1.02.026 1.27.02.155.063.26.254.283.09.011.23.023.326.023q.103.002.102.047c0 .04-.052.058-.12.058-.422 0-.823-.018-.996-.018-.146 0-.548.018-.803.018q-.126 0-.127-.057c0-.03.026-.048.101-.048.097 0 .173-.011.23-.023.127-.023.165-.121.184-.29.032-.243.032-.701.032-1.263v-1.02zm4.877-1.356-.95.023c-.37.011-.523.04-.618.167a.7.7 0 0 0-.109.203c-.013.047-.031.07-.07.07-.044 0-.057-.03-.057-.092 0-.093.121-.62.134-.667.019-.076.038-.11.076-.11.051 0 .115.057.274.07.185.017.427.029.638.029h2.524c.204 0 .344-.018.44-.03.095-.017.147-.029.172-.029.045 0 .05.035.05.122 0 .122-.018.522-.018.673-.007.057-.02.092-.057.092-.052 0-.064-.03-.07-.116l-.007-.064c-.012-.15-.184-.313-.753-.325l-.802-.016v2.375c0 .533 0 .991.032 1.24.018.163.056.29.248.313.09.012.229.024.324.024.072 0 .103.018.103.047 0 .04-.051.058-.122.058-.42 0-.822-.019-1-.019-.147 0-.548.019-.803.019q-.126 0-.127-.058c0-.03.024-.047.102-.047.094 0 .171-.012.229-.024.127-.022.165-.15.184-.318.032-.243.032-.701.032-1.234zm5.57 2.555c0-.313-.064-.44-.147-.609a42 42 0 0 0-1.121-1.668c-.16-.215-.32-.36-.44-.423a.7.7 0 0 0-.268-.076c-.051 0-.097-.011-.097-.052 0-.034.046-.053.122-.053.114 0 .593.018.803.018.134 0 .396-.018.682-.018q.096 0 .096.053c0 .035-.045.04-.141.064a.11.11 0 0 0-.09.104c0 .046.033.116.077.196.09.175.981 1.571 1.084 1.734.063-.14.867-1.415.956-1.594a.7.7 0 0 0 .09-.3c0-.058-.025-.123-.134-.146-.057-.011-.115-.023-.115-.058 0-.04.032-.052.108-.052.21 0 .415.018.6.018.14 0 .56-.018.68-.018.07 0 .116.011.116.047 0 .04-.051.057-.12.057a.7.7 0 0 0-.282.07c-.133.058-.203.128-.343.284-.21.232-1.103 1.593-1.218 1.843-.096.208-.096.388-.096.58v.474c0 .093 0 .336.02.58.012.168.07.295.26.318.09.011.23.023.32.023q.103.002.101.047c0 .04-.052.058-.135.058-.4 0-.802-.018-.974-.018-.16 0-.562.018-.797.018-.089 0-.14-.012-.14-.057 0-.03.031-.048.102-.048.09 0 .165-.011.223-.023.127-.023.184-.15.198-.318.019-.244.019-.487.019-.58v-.475" clip-rule="evenodd"/><path fill="#A98C57" fill-rule="evenodd" d="m13.934 38.067-2.811-.007 3.439 1.831zm.572 6.644 2.58.31 1.25 3.204zm.079-4.812-.08 4.627-2.657 1.052z" clip-rule="evenodd"/><path fill="#2D67AF" fill-rule="evenodd" d="m14.546 51.695 3.765-1.216 3.538 1.11-3.429-3.295zm8.362-13.635 2.814-.007-3.442 1.83zm-.636 6.678-2.58.31-1.248 3.203zm-.08-4.81.08 4.625 2.658 1.051z" clip-rule="evenodd"/><path fill="#A98C57" fill-rule="evenodd" d="M28.157 30.81c-2.519 2.612-4.249 1.466-5.14 1.255-.468-.209-1.055-.332-1.692-.332-1.54 0-2.788.722-2.788 1.612 0 .322.165.62.446.87.288-.292.734-.529 1.266-.668a5.66 5.66 0 0 1 2.561.12q.146.046.314.093v.002q.199.067.356.097c.047.01.087.022.136.03 2.85.696 4.563-.88 4.563-.88z" clip-rule="evenodd"/></svg>