<svg xmlns="http://www.w3.org/2000/svg" width="91" height="100" fill="none"><g fill="#004084" clip-path="url(#a)"><path d="M28.681 68.497h1.074v2.163h2.148v-2.163h1.074v5.354h-1.074v-2.347h-2.148v2.347h-1.074zM35.937 69.809c1.174 0 2.071.79 2.071 2.094 0 1.135-.76 2.04-2.07 2.04-1.305 0-2.065-.905-2.065-2.04 0-1.304.898-2.094 2.064-2.094m0 3.337c.79 0 .997-.706.997-1.366 0-.606-.322-1.174-.997-1.174-.667 0-.99.583-.99 1.174 0 .652.208 1.365.99 1.365M41.375 70.752a1.55 1.55 0 0 0-.698-.145c-.636 0-1.043.506-1.043 1.25 0 .728.345 1.289 1.066 1.289.292 0 .614-.108.79-.185l.046.852c-.299.092-.606.13-1.028.13-1.296 0-1.948-.882-1.948-2.086 0-1.143.675-2.048 1.91-2.048.415 0 .714.046.997.13zM42.219 68.098h1.028v2.34h.015c.26-.384.706-.63 1.243-.63.936 0 1.342.66 1.342 1.55v2.493H44.82v-2.11c0-.483-.007-1.134-.667-1.134-.744 0-.905.805-.905 1.311v1.933h-1.028zM49.252 70.73c-.314-.108-.544-.17-.92-.17-.276 0-.606.1-.606.438 0 .629 1.787.23 1.787 1.657 0 .92-.82 1.288-1.657 1.288-.39 0-.79-.068-1.166-.168l.062-.844c.322.161.66.26 1.012.26.261 0 .675-.099.675-.482 0-.775-1.787-.246-1.787-1.672 0-.852.744-1.228 1.55-1.228.483 0 .797.077 1.12.146zM52.873 70.752a1.55 1.55 0 0 0-.698-.145c-.637 0-1.044.506-1.044 1.25 0 .728.346 1.289 1.066 1.289.292 0 .614-.108.79-.185l.046.852c-.299.092-.605.13-1.027.13-1.297 0-1.949-.882-1.949-2.086 0-1.143.675-2.048 1.91-2.048.415 0 .714.046.998.13zM53.716 68.098h1.028v2.34h.015c.261-.384.706-.63 1.243-.63.936 0 1.342.66 1.342 1.55v2.493h-1.028v-2.11c0-.483-.007-1.134-.667-1.134-.744 0-.905.805-.905 1.311v1.933h-1.028zM62.03 73.851h-.973v-.537h-.016c-.314.384-.76.63-1.296.63-.936 0-1.343-.66-1.343-1.55V69.9h1.028v2.11c0 .483.008 1.135.668 1.135.744 0 .905-.805.905-1.311V69.9h1.028zM63.112 68.098h1.028v5.753h-1.028zM68.39 73.629c-.377.207-.806.314-1.358.314-1.304 0-2.064-.751-2.064-2.048 0-1.143.606-2.086 1.833-2.086 1.466 0 1.88 1.005 1.88 2.385h-2.73c.045.637.49.998 1.127.998.498 0 .928-.184 1.311-.4zm-.691-2.14c-.03-.499-.26-.929-.836-.929-.575 0-.867.4-.913.928zM71.71 68.497h1.872c.69 0 1.726.2 1.726 1.373 0 .637-.43 1.082-1.067 1.197v.015c.73.07 1.228.56 1.228 1.22 0 1.35-1.212 1.55-1.887 1.55H71.71zm1.074 2.163h.437c.453 0 1.013-.1 1.013-.652 0-.62-.545-.667-1.036-.667h-.414zm0 2.348h.506c.499 0 1.105-.123 1.105-.745 0-.698-.568-.805-1.105-.805h-.506zM79.473 73.629c-.376.207-.806.314-1.358.314-1.304 0-2.064-.751-2.064-2.048 0-1.143.606-2.086 1.834-2.086 1.465 0 1.88 1.005 1.88 2.385h-2.732c.046.637.491.998 1.128.998.499 0 .928-.184 1.312-.4zm-.69-2.14c-.031-.499-.261-.929-.837-.929-.575 0-.867.4-.913.928zM80.592 69.9h.913v.898h.015c.046-.368.468-.99 1.082-.99.1 0 .207 0 .314.031v1.036c-.092-.054-.276-.084-.46-.084-.837 0-.837 1.043-.837 1.61v1.45h-1.027zM83.576 68.098h1.027v5.753h-1.027zM85.708 68.198h1.028v.982h-1.028zm0 1.703h1.028v3.95h-1.028zM87.817 69.9h.974v.538h.016c.322-.453.76-.63 1.296-.63.936 0 1.343.66 1.343 1.55v2.493h-1.028v-2.11c0-.483-.008-1.134-.667-1.134-.745 0-.906.805-.906 1.311v1.933h-1.027z"/><path fill-rule="evenodd" d="m40.594 36.585-.946-6.013c-.448-.099-1.292-.25-3.379-.25-3.626 0-11.181.695-17.043 6.56-4.025 4.025-6.409 9.738-6.409 15.8 0 1.293.35 4.969 1.391 7.256l.3-.099c-.398-1.343-.596-2.783-.596-4.523 0-11.132 9.042-19.924 19.776-19.924 3.082 0 5.716.745 6.906 1.193m15.404 10.981c0 2.832-1.79 3.726-4.374 3.726h-1.89l.845-6.66h1.292c2.235-.05 4.124.35 4.124 2.931zm11.997 13.367.972-7.654h6.807l-.973 7.654h3.627l2.367-18.685-4.226.1c.197 1.29.197 2.733.05 4.074l-.496 4.124h-6.807l1.042-8.298-4.223.1c.198 1.29.25 2.733.049 4.074l-1.82 14.511zm-19.48 0 .873-6.905h2.236l2.831 5.316c.225.428.579 1.033.958 1.592h4.49a12.8 12.8 0 0 1-1.92-2.535l-2.733-5.018c2.982-1.09 4.473-3.33 4.473-6.26 0-1.59-.547-2.733-1.44-3.527-1.59-1.44-3.68-1.59-5.663-1.59-2.038 0-4.026.047-6.014.15.198 1.64.198 2.385.198 2.93 0 .597-.049.947-.099 1.49l-1.819 14.362h3.627zm-10.716 0c1.83-1.1 2.797-2.916 2.797-5.02 0-1.44-.398-2.634-1.44-3.527-1.144-1.044-2.535-1.74-3.827-2.586-1.144-.694-1.939-1.44-1.939-2.731 0-1.788 1.59-2.684 3.927-2.684 1.786 0 3.428.696 4.12 1.045l-.445-3.33c-.896-.299-2.535-.597-4.173-.597-3.876 0-7.005 2.486-7.005 6.113 0 1.39.497 2.782 1.391 3.778 1.395 1.488 3.379 2.037 4.869 3.328.497.499.745.993.745 1.838 0 2.138-1.89 2.634-3.926 2.634-1.688 0-3.478-.644-5.017-1.44l.646 3.18h9.28zm-25.218 0c-1.277-3.044-2.049-6.558-2.049-9.84 0-6.658 2.684-12.671 7.404-17.392 2.435-2.387 5.12-3.975 7.902-5.166L18.533 26c-.35.298-1.193.893-1.638 1.292-6.013 5.12-8.944 13.019-8.944 20.92 0 4.287 1.415 8.93 3.478 12.724l1.156-.003zm-3.716 0c-2.189-3.995-3.7-8.914-3.7-14.013 0-4.82 1.293-10.038 3.033-13.219L1.39 37.228c-.596 2.186-.894 4.57-.894 6.856 0 6.01 1.974 11.966 5.259 16.85h3.111" clip-rule="evenodd"/><path fill-rule="evenodd" d="m74.795 60.884-.118.94h3.626l.12-.94zm-10.436 0-.116.94h3.626l.12-.94zm-8.95 0c.37.544.761 1.044 1.08 1.29l3.779-.947a5 5 0 0 1-.364-.345h-4.49zm-10.526 0-.12.94h3.628l.118-.94zm-16.367 0 .05.247c1.292.499 2.534.894 4.571.894 1.905 0 3.466-.42 4.66-1.14zm-17.095 0c1.309 2.413 2.883 4.485 4.522 5.91l.198-.2c-1.397-1.46-2.62-3.458-3.566-5.712h-1.154zm-5.673 0a29.5 29.5 0 0 0 3.984 4.77c4.026 3.876 9.24 6.856 13.565 8.346l.1-.298c-1.79-.846-6.013-2.682-10.385-7.108-1.495-1.53-2.927-3.479-4.153-5.713H5.748" clip-rule="evenodd"/></g><defs><clipPath id="a"><path fill="#fff" d="M0 0h91v100H0z"/></clipPath></defs></svg>