<svg xmlns="http://www.w3.org/2000/svg" width="100" height="100" fill="none"><path fill="#231F20" d="M49.97 29.632v.767h2.867v16.457a5.02 5.02 0 0 1-1.994 4.08 6.34 6.34 0 0 1-4.033 1.441 4.54 4.54 0 0 1-3.098-1.058c-.89-.767-1.335-1.887-1.335-3.298V30.4h3.267v-.767H34.816v.767h2.439v16.457a5.79 5.79 0 0 0 2.576 4.954c1.534 1.073 3.42 1.625 5.614 1.625s4.064-.552 5.583-1.625a5.77 5.77 0 0 0 2.576-4.954V30.399h2.362v-.767zM72.746 30.552c-.261 0-1.258-.46-1.856-.66a9.5 9.5 0 0 0-3.13-.536c-.245 0-.49 0-.735.03-2.684.185-5.031 1.442-6.979 3.743-1.978 2.3-3.037 5.245-3.021 8.282-.031 2.991.997 5.905 2.914 8.221 1.886 2.347 4.233 3.604 6.948 3.804 0 0 .429.03.66.03 1.38-.061 2.76-.306 4.079-.72.583-.2 1.595-.66 1.856-.66.521 0 .95.153.95.95v.108h.645v-7.668h-.798v.536c-.03 1.764-.414 3.497-1.441 4.786-1.15 1.441-3.022 1.978-5.338 2.009-.184 0-.521-.03-.521-.03-1.565-.108-2.608-.798-3.206-1.841-.475-.782-.798-2.3-.966-4.479a67 67 0 0 1-.169-5.046c0-1.518.046-2.883.123-4.08.153-2.53.43-4.233.813-5.06.629-1.274 1.779-2.072 3.497-2.225.23-.015.475-.03.736-.03 1.564 0 2.975.429 4.248 1.901 1.135 1.32 1.519 3.114 1.519 5v.246h.797V29.6h-.66c0 .89-.429.951-.965.951M92.945 30.552c-.261 0-1.258-.46-1.856-.66a9.5 9.5 0 0 0-3.129-.536c-.245 0-.49 0-.736.03-2.684.185-5.03 1.442-6.979 3.743a12.67 12.67 0 0 0-3.021 8.282c-.03 2.991.997 5.905 2.899 8.221 1.886 2.347 4.233 3.604 6.947 3.804 0 0 .43.03.66.03 1.38-.061 2.76-.306 4.08-.72.582-.2 1.595-.66 1.855-.66.522 0 .951.153.951.95v.108h.645v-7.668h-.783v.536c-.03 1.764-.414 3.497-1.441 4.786-1.181 1.441-3.037 1.978-5.338 2.009-.184 0-.521-.03-.521-.03-1.565-.108-2.608-.798-3.206-1.841-.475-.782-.797-2.3-.966-4.479a67 67 0 0 1-.169-5.046c0-1.518.046-2.883.123-4.08.153-2.53.43-4.233.813-5.06.629-1.274 1.779-2.072 3.497-2.225.23-.015.475-.03.736-.03 1.564 0 2.975.429 4.248 1.901 1.135 1.32 1.519 3.114 1.519 5v.246h.797V29.6h-.66c-.014.89-.444.951-.965.951M5.736 70.26a2.24 2.24 0 0 1-2.24-2.27 2.24 2.24 0 0 1 2.27-2.238 2.28 2.28 0 0 1 1.703.69l-.337.368a1.87 1.87 0 0 0-1.365-.598c-.997 0-1.81.813-1.81 1.81 0 .996.813 1.81 1.81 1.81.536 0 1.043-.23 1.41-.63l.323.323a2.4 2.4 0 0 1-1.764.736M9.632 70.26c-.92 0-1.672-.751-1.672-1.671s.751-1.672 1.672-1.672 1.672.751 1.672 1.672-.752 1.672-1.672 1.672m0-2.944c-.66 0-1.181.537-1.181 1.18v.062c-.03.675.49 1.227 1.165 1.258h.031c.66 0 1.196-.522 1.196-1.181v-.062a1.196 1.196 0 0 0-1.165-1.257zM12.607 65.644h-.475v4.54h.475zM13.804 67.577l-.139-.4a2.6 2.6 0 0 1 1.166-.275c.874 0 1.365.445 1.365 1.288v1.963h-.46v-.49a1.38 1.38 0 0 1-1.166.552c-.598 0-1.196-.338-1.196-1.013s.552-1.043 1.38-1.043c.338 0 .675.046.997.138v-.107c0-.583-.352-.874-.966-.874a2.5 2.5 0 0 0-.982.26m.06 1.64c0 .415.369.645.814.645.598 0 1.073-.368 1.073-.874v-.307a3.3 3.3 0 0 0-.95-.138c-.599 0-.936.26-.936.675m.768-2.745.598-.905.506.23-.72.69zM17.132 65.736h.552v.537h-.552zm.015 1.227h.476v3.221h-.476zM19.678 70.246a2.2 2.2 0 0 1-1.334-.476l.245-.337c.322.245.706.398 1.104.414.384 0 .66-.2.66-.506 0-.322-.384-.445-.798-.552-.506-.139-1.058-.323-1.058-.905 0-.552.46-.92 1.09-.92.413 0 .812.107 1.165.306l-.215.368a1.9 1.9 0 0 0-.95-.306c-.384 0-.63.199-.63.46 0 .306.399.429.828.552.507.153 1.028.337 1.028.92 0 .614-.506.966-1.15.966M22.27 69.264c-.03.26.153.506.414.537h.153c.17 0 .322-.03.46-.108v.415a1.3 1.3 0 0 1-.582.138.83.83 0 0 1-.905-.752v-2.101h-.46v-.43h.444v-.966h.476v.966h1.012v.43h-1.027v1.87zM25.307 69.847c.383 0 .767-.169 1.012-.46l.307.276a1.63 1.63 0 0 1-1.32.598c-.889 0-1.61-.706-1.61-1.595v-.092c0-.936.66-1.687 1.55-1.687.95 0 1.502.767 1.502 1.702v.154h-2.546c0 .628.507 1.12 1.105 1.104m.95-1.442c-.045-.583-.383-1.104-1.027-1.104-.552 0-.982.46-1.043 1.104zM29.831 70.184h-.475v-3.22h.475v.551a1.21 1.21 0 0 1 1.105-.629c.782 0 1.227.522 1.227 1.289v1.994h-.476v-1.887c0-.598-.322-.966-.89-.966a.943.943 0 0 0-.966.92v1.9480000000000002M33.282 67.577l-.138-.4a2.6 2.6 0 0 1 1.166-.275c.874 0 1.365.445 1.365 1.288v1.963h-.46v-.49a1.38 1.38 0 0 1-1.166.552c-.598 0-1.197-.338-1.197-1.013s.553-1.043 1.38-1.043c.338 0 .676.046.998.139v-.108c0-.583-.353-.874-.951-.874-.338 0-.675.077-.982.23m.062 1.672c0 .414.368.644.813.644.598 0 1.073-.368 1.073-.874v-.307a3.3 3.3 0 0 0-.95-.138c-.599 0-.936.26-.936.675M38.957 70.184h-.476v-4.54h.476v1.902a1.21 1.21 0 0 1 1.104-.629c.782 0 1.227.522 1.227 1.288V70.2h-.49v-1.886c0-.598-.323-.966-.89-.966a.943.943 0 0 0-.966.92v.092zM44.356 70.26a2.26 2.26 0 0 1-2.285-2.223 2.26 2.26 0 0 1 2.223-2.285 2.26 2.26 0 0 1 2.286 2.224v.03a2.17 2.17 0 0 1-2.117 2.255zm0-4.064c-.951 0-1.718.767-1.703 1.718v.077a1.743 1.743 0 0 0 1.657 1.81h.061c.951 0 1.718-.767 1.703-1.718v-.077a1.743 1.743 0 0 0-1.657-1.81zM48.006 65.644h-.475v4.54h.475zM49.494 65.644h-.475v4.54h.475zM51.55 70.246a2.2 2.2 0 0 1-1.335-.476l.245-.337c.322.245.706.398 1.105.414.383 0 .659-.2.659-.506 0-.322-.383-.445-.797-.552-.507-.139-1.059-.323-1.059-.905 0-.552.46-.92 1.09-.92.413.015.812.137 1.15.352l-.215.368a1.9 1.9 0 0 0-.951-.306c-.384 0-.629.199-.629.46 0 .306.399.43.828.552.491.153 1.028.337 1.028.92.03.598-.476.95-1.12.936M54.908 70.26a1.679 1.679 0 1 1 .046-3.358c.476 0 .936.214 1.242.567l-.322.338a1.36 1.36 0 0 0-.981-.491 1.186 1.186 0 0 0-1.15 1.227v.03c-.031.66.49 1.227 1.15 1.258h.03c.384-.015.737-.184.982-.475l.307.276a1.63 1.63 0 0 1-1.304.628M58.313 70.26c-.92 0-1.672-.751-1.672-1.671s.752-1.672 1.672-1.672 1.672.751 1.672 1.672-.752 1.672-1.672 1.672m0-2.944c-.66 0-1.181.537-1.181 1.18v.062c-.03.675.49 1.227 1.166 1.258h.03c.66 0 1.181-.537 1.181-1.181v-.062a1.196 1.196 0 0 0-1.165-1.257zM60.767 65.736h.552v.537h-.552zm.03 1.227h.476v3.221h-.49zM62.76 65.644h-.475v4.54h.476zM65.2 69.847c.383 0 .75-.169 1.012-.46l.306.276a1.63 1.63 0 0 1-1.319.598c-.89 0-1.61-.706-1.61-1.595v-.092c0-.936.66-1.687 1.549-1.687.95 0 1.503.767 1.503 1.702v.154h-2.546c0 .628.506 1.12 1.104 1.104m.95-1.442c-.046-.583-.383-1.104-1.027-1.104-.553 0-.982.46-1.043 1.104zM71.304 70.26a2.24 2.24 0 0 1-2.24-2.27 2.24 2.24 0 0 1 2.27-2.238 2.28 2.28 0 0 1 1.703.69l-.337.368a1.87 1.87 0 0 0-1.365-.598c-.997 0-1.81.813-1.81 1.81 0 .996.813 1.81 1.81 1.81.536 0 1.043-.23 1.41-.63l.323.323a2.35 2.35 0 0 1-1.764.736M75.215 70.26c-.92 0-1.672-.751-1.672-1.671s.751-1.672 1.672-1.672 1.671.751 1.671 1.672c-.015.92-.751 1.672-1.671 1.672m0-2.944c-.66 0-1.181.537-1.181 1.18v.062c-.03.675.49 1.227 1.165 1.258h.031c.66 0 1.181-.537 1.181-1.181v-.062a1.196 1.196 0 0 0-1.166-1.257zM78.16 70.184h-.476v-3.22h.475v.827a1.36 1.36 0 0 1 1.32-.89v.522h-.046c-.706 0-1.274.507-1.274 1.473zM81.457 70.26a1.679 1.679 0 1 1 .046-3.358c.475 0 .936.214 1.242.567l-.306.338a1.36 1.36 0 0 0-.982-.491 1.186 1.186 0 0 0-1.15 1.227v.03c-.031.66.49 1.227 1.15 1.258h.03c.384-.015.737-.184.982-.475l.307.276a1.7 1.7 0 0 1-1.319.628M83.697 67.577l-.139-.4a2.6 2.6 0 0 1 1.166-.275c.874 0 1.365.445 1.365 1.288v1.963h-.46v-.49a1.38 1.38 0 0 1-1.166.552c-.598 0-1.196-.338-1.196-1.013s.552-1.043 1.38-1.043c.338 0 .675.046.997.139v-.108c0-.583-.352-.874-.95-.874-.338 0-.675.077-.982.23m.061 1.672c0 .414.368.644.813.644.598 0 1.074-.368 1.074-.874v-.307a3.3 3.3 0 0 0-.951-.138c-.598 0-.936.26-.936.675M87.024 65.736h.553v.537h-.553zm.031 1.227h.475v3.221h-.475zM89.923 71.196a2.6 2.6 0 0 1-1.457-.445l.215-.368c.353.276.798.415 1.242.415.706 0 1.166-.4 1.166-1.15v-.384c-.276.43-.751.675-1.258.675-.843 0-1.518-.69-1.518-1.519 0-.828.69-1.518 1.518-1.518.507 0 .967.23 1.258.644v-.583h.475v2.654c0 1.042-.644 1.564-1.64 1.564m0-3.896a1.05 1.05 0 0 0-1.105 1.013v.076a1.07 1.07 0 0 0 1.058 1.105h.046c.599.092 1.181-.323 1.273-.92.092-.599-.322-1.182-.92-1.274zM93.037 70.184h-.476v-4.54h.476v1.902a1.21 1.21 0 0 1 1.104-.629c.782 0 1.227.522 1.227 1.288V70.2h-.49v-1.886c0-.598-.323-.966-.89-.966a.943.943 0 0 0-.966.92v.092zM5.568 63.16c-1.105 0-1.78-.614-1.78-1.826v-2.346h.905v2.316c0 .66.338 1.012.89 1.012s.89-.337.89-.982v-2.346h.89v2.316c0 1.257-.691 1.856-1.795 1.856M9.923 63.098V61.35c0-.414-.199-.644-.536-.644-.338 0-.553.214-.553.644v1.748h-.89V59.97h.89v.444c.2-.306.537-.49.905-.506.675 0 1.059.445 1.059 1.166v2.04h-.875zM11.534 58.819h.935v.782h-.935zm.03 1.135h.89v3.129h-.89zM14.923 63.114h-.813l-1.227-3.16h.936l.705 2.101.706-2.1h.936zM19.371 61.84h-2.193a.723.723 0 0 0 .767.614c.291 0 .567-.107.767-.322l.506.445a1.67 1.67 0 0 1-2.347.168 1.65 1.65 0 0 1-.567-1.196c-.03-.859.629-1.595 1.488-1.626h.06c1.044 0 1.52.813 1.52 1.703zm-1.518-1.227a.7.7 0 0 0-.675.66h1.334a.655.655 0 0 0-.66-.66M21.825 60.828c-.598 0-.95.353-.95 1.104v1.15h-.89v-3.128h.89v.644a.98.98 0 0 1 .996-.69v.936zM23.45 63.144a2.16 2.16 0 0 1-1.349-.475l.399-.583c.276.215.629.353.981.368.261 0 .368-.092.368-.23 0-.2-.306-.26-.644-.368-.444-.123-.935-.338-.935-.936 0-.644.506-.997 1.15-.997a2.1 2.1 0 0 1 1.166.368l-.353.568a1.9 1.9 0 0 0-.844-.276c-.214 0-.322.092-.322.215 0 .168.307.26.645.368.444.153.95.352.95.935 0 .69-.521 1.013-1.196 1.013M25.246 58.819h.935v.782h-.935zm.015 1.135h.89v3.129h-.89zM27.975 63.144c-.552 0-.92-.215-.92-.936v-1.487h-.368v-.767h.368v-.798h.89v.798h.736v.767h-.736v1.334c0 .2.092.307.276.307.153 0 .306-.03.445-.108v.706c-.2.138-.445.2-.69.184M31.09 63.175c-.246.644-.492.874-1.029.874-.276 0-.552-.077-.797-.215l.291-.644a.8.8 0 0 0 .384.123.285.285 0 0 0 .306-.215l-1.226-3.144h.95l.706 2.132.69-2.132h.92zM36.488 63.16a2.07 2.07 0 0 1-2.102-2.04v-.077a2.076 2.076 0 0 1 2.04-2.117h.092c.599-.03 1.197.2 1.61.63l-.567.659a1.5 1.5 0 0 0-1.043-.46 1.23 1.23 0 0 0-1.196 1.242v.03a1.217 1.217 0 0 0 1.135 1.29h.046c.414 0 .797-.185 1.074-.476l.567.582a2.1 2.1 0 0 1-1.672.737M40.169 63.16a1.63 1.63 0 0 1-1.688-1.565v-.061a1.69 1.69 0 0 1 1.795-1.595c.859.046 1.549.736 1.595 1.595 0 .905-.751 1.64-1.656 1.626q-.024.023-.046 0m.843-1.61a.825.825 0 0 0-.797-.86h-.031c-.445 0-.813.353-.813.782v.062a.825.825 0 0 0 .798.859h.03a.805.805 0 0 0 .813-.798zM43.39 58.819h-.89v4.264h.89zM45.077 58.819h-.89v4.264h.89zM48.758 61.84H46.58a.723.723 0 0 0 .767.614c.29 0 .567-.107.766-.322l.507.445a1.67 1.67 0 0 1-2.347.168 1.65 1.65 0 0 1-.568-1.196 1.55 1.55 0 0 1 1.488-1.626h.061c1.043 0 1.519.813 1.519 1.703-.016.077-.016.123-.016.215m-1.504-1.227a.7.7 0 0 0-.674.66h1.334a.675.675 0 0 0-.66-.66M50.752 64.049a3.1 3.1 0 0 1-1.38-.322l.306-.66c.322.184.69.276 1.058.276.614 0 .89-.29.89-.858v-.154c-.23.322-.613.522-1.028.506a1.39 1.39 0 0 1-1.395-1.38v-.077a1.377 1.377 0 0 1 1.303-1.457h.077c.399-.015.767.169 1.012.476v-.414h.89v2.423c.015 1.166-.568 1.641-1.733 1.641m.874-2.669a.78.78 0 0 0-.828-.705.785.785 0 0 0-.706.705c0 .4.307.721.706.721h.061a.72.72 0 0 0 .767-.675zM56.166 61.84h-2.178a.723.723 0 0 0 .766.614c.292 0 .568-.107.767-.322l.506.445a1.67 1.67 0 0 1-2.346.168 1.65 1.65 0 0 1-.568-1.196c-.03-.859.63-1.595 1.488-1.626h.061c1.043 0 1.519.813 1.519 1.703 0 .077 0 .123-.015.215m-1.504-1.227a.7.7 0 0 0-.674.66h1.334a.655.655 0 0 0-.66-.66M60.49 63.16a2.07 2.07 0 0 1-2.1-2.04v-.077a2.075 2.075 0 0 1 2.04-2.117h.091c.598-.03 1.197.2 1.61.63l-.567.659a1.54 1.54 0 0 0-1.058-.476 1.23 1.23 0 0 0-1.196 1.243v.03a1.217 1.217 0 0 0 1.135 1.289h.046c.414 0 .797-.184 1.073-.476l.568.583c-.384.506-.997.767-1.641.752M64.187 63.16a1.63 1.63 0 0 1-1.687-1.565v-.061c0-.905.752-1.641 1.656-1.626h.046a1.63 1.63 0 0 1 1.688 1.565v.061c0 .905-.752 1.641-1.657 1.626zm.828-1.626a.825.825 0 0 0-.797-.859h-.03c-.446 0-.814.353-.814.782v.062a.825.825 0 0 0 .798.858h.03c.445 0 .813-.352.813-.782zM68.313 60.828c-.599 0-.951.353-.951 1.104v1.15h-.89v-3.128h.89v.644a.98.98 0 0 1 .997-.69v.936zM70.844 63.098l-.813-1.288-.307.337v.951h-.89v-4.28h.89v2.286l1.043-1.15h1.058l-1.196 1.242 1.242 1.902zM72.684 63.098h-.368v-.935h.95v.797c0 .767-.383 1.09-1.088 1.09l-.077-.369c.414-.046.614-.245.583-.583M76.702 59.003h-.905v4.095h.905zM79.417 60.828c-.598 0-.95.353-.95 1.104v1.15h-.89v-3.128h.89v.644a.98.98 0 0 1 .996-.69v.936zM82.837 61.84H80.66a.723.723 0 0 0 .767.614c.292 0 .568-.107.767-.322l.506.445a1.67 1.67 0 0 1-2.346.168 1.65 1.65 0 0 1-.568-1.196c-.03-.859.629-1.595 1.488-1.626h.061c1.043 0 1.519.813 1.519 1.703 0 .077 0 .123-.016.215m-1.518-1.227a.7.7 0 0 0-.675.66h1.334a.665.665 0 0 0-.659-.66M84.356 58.819h-.89v4.264h.89zM86.963 63.098v-.337c-.245.26-.582.398-.935.398-.598 0-1.074-.337-1.074-.966 0-.69.522-.997 1.258-.997.26 0 .521.046.767.123v-.046c0-.368-.23-.568-.675-.568-.292 0-.598.062-.86.169l-.214-.675c.384-.168.798-.26 1.212-.245.966 0 1.38.506 1.38 1.35v1.81h-.859zm.016-1.273a1.4 1.4 0 0 0-.552-.123c-.384 0-.614.154-.614.43 0 .245.2.383.49.383.415 0 .691-.23.691-.552zM90.552 63.098V61.35c0-.414-.2-.644-.537-.644s-.552.214-.552.644v1.748h-.89V59.97h.89v.444c.2-.306.552-.506.92-.506.675 0 1.059.445 1.059 1.166v2.024zM94.432 63.098v-.444a1.13 1.13 0 0 1-.981.506c-.736 0-1.427-.568-1.427-1.626 0-1.043.69-1.626 1.427-1.626.383 0 .736.169.981.476v-1.55h.89v4.264zm0-1.58a.783.783 0 0 0-.675-.858.783.783 0 0 0-.858.675v.184a.783.783 0 0 0 .674.858.783.783 0 0 0 .86-.674z"/><path fill="#E82C2E" d="M5.537 38.711H16.35v1.09a1.26 1.26 0 0 0-1.089-.246c-.736.23-.966-.092-.966-.092a.98.98 0 0 1-.675.552l-.015.307h-1.366l-.107.859h1.38l-.046.46h-1.395l-.138.95h1.457l-.062.63h2.761a.38.38 0 0 0 .246.214v11.61c-1.197-.904-4.157-.858-4.157-.858-.874.015-1.748-.03-2.623-.107a6 6 0 0 1-2.546-.767l-.06-.046a6 6 0 0 1-1.197-1.043 5.87 5.87 0 0 1-1.473-2.914v-.016A8 8 0 0 1 4.08 47.3c-.03-.92.061-1.84.276-2.73.43-1.58.598-2.346.598-2.346.246-1.028.43-2.086.537-3.144 0-.108.015-.23.03-.338z"/><path fill="#003660" d="M16.917 38.712h10.828c0 .107.016.23.03.337.108 1.058.277 2.117.522 3.144 0 0 .17.782.598 2.347.215.89.307 1.81.277 2.73a8 8 0 0 1-.2 1.994v.015a6.05 6.05 0 0 1-1.472 2.93 6 6 0 0 1-1.197 1.042l-.06.047a6 6 0 0 1-2.547.766 25 25 0 0 1-2.623.123s-2.96-.03-4.156.859V43.405a.38.38 0 0 0 .245-.215h2.777l-.062-.613h1.457l-.122-.951H19.8l-.046-.476h1.38l-.107-.859h-1.334l-.03-.322a1.06 1.06 0 0 1-.675-.552s-.23.322-.967.092c-.383-.092-.797 0-1.104.26v-1.073z"/><path fill="#fff" d="M16.749 42.362v-2.148c.521-.49.92-.49 1.227-.398q.367.114.736.046l.138 2.147a1.05 1.05 0 0 1-.86 0 1.32 1.32 0 0 0-1.226.322"/><path fill="#FFCB05" d="M13.42 42.316H12.3l.047-.43h1.12zM13.574 40.567l-.03.368h-1.06l.047-.368zM18.972 39.923c.107.123.246.2.399.261l.215 2.47a1.04 1.04 0 0 1-.46-.43z"/><path fill="#fff" d="M14.54 39.862c.245.046.506.03.736-.046.307-.092.705-.092 1.227.398v2.148a1.37 1.37 0 0 0-1.227-.338 1.05 1.05 0 0 1-.859 0z"/><path fill="#FFCB05" d="M13.865 40.184a.86.86 0 0 0 .399-.26l-.138 2.3a1.13 1.13 0 0 1-.46.43zM16.104 42.945H13.62c.337-.092.613-.337.767-.66l.153.047c.245.045.506.03.736-.047.307-.091.706-.091 1.227.4-.153.015-.291.107-.399.26M16.626 43.206c-.154 0-.276-.062-.276-.138s.122-.138.276-.138c.153 0 .276.061.276.138 0 .076-.123.138-.276.138"/><path fill="#231F20" d="m20.322 40.675.016.153h.291l-.015-.153zM20.506 42.01l.016.168h.291l-.03-.169z"/><path fill="#231F20" d="M28.45 39.34s-.168-1.61-.199-2.469v-.061c-.092-4.11 1.672-6.38 1.672-6.38L26.81 27.3s-1.703.952-4.51.936a9.5 9.5 0 0 1-3.22-.46 7.2 7.2 0 0 0-2.424-.322 6.5 6.5 0 0 0-2.423.322 9.2 9.2 0 0 1-3.22.46c-2.808.016-4.51-.935-4.51-.935L3.374 30.43s1.764 2.27 1.672 6.38v.061c0 .875-.184 2.485-.184 2.485a30.6 30.6 0 0 1-1.09 5.138s-1.196 4.908 1.29 7.837c1.334 1.58 2.56 2.454 6.15 2.5 4.217.031 4.846.553 5.444 1.503h.03c.6-.95 1.228-1.472 5.446-1.503 3.589-.03 4.816-.904 6.15-2.5 2.5-2.929 1.288-7.837 1.288-7.837a28.3 28.3 0 0 1-1.12-5.153M4.157 30.523l2.439-2.439c2.853 1.196 6.227.66 6.227.66a5.5 5.5 0 0 0 1.212-.277 7.8 7.8 0 0 1 2.592-.398h.03a7.8 7.8 0 0 1 2.592.398c.384.139.798.23 1.212.276 0 0 3.374.522 6.212-.705l2.438 2.439v.015c-.107.169-.997 1.595-1.38 4.08a14.5 14.5 0 0 0-.03 3.558H5.566a14.5 14.5 0 0 0-.03-3.558c-.384-2.47-1.289-3.896-1.38-4.05m15.46 12.423h-2.484a.5.5 0 0 0-.384-.245c.522-.491.92-.491 1.227-.4q.369.117.736.047l.154-.046a1.3 1.3 0 0 0 .751.644m-.03-.291a1.04 1.04 0 0 1-.46-.43l-.139-2.3c.108.107.246.199.4.26zm-.736-.645a1.05 1.05 0 0 1-.86 0 1.32 1.32 0 0 0-1.226.322v-2.116c.521-.49.92-.49 1.227-.399q.367.115.736.046zm-4.464.276.154.047c.245.045.506.03.736-.047.307-.092.705-.092 1.227.4a.53.53 0 0 0-.384.245h-2.5c.338-.092.614-.338.767-.645m-.506-2.116a.86.86 0 0 0 .399-.26l-.138 2.3a1.13 1.13 0 0 1-.46.43zm1.38 1.84a1.05 1.05 0 0 1-.858 0l.138-2.162c.245.046.506.03.751-.046.307-.092.706-.092 1.227.399v2.147a1.38 1.38 0 0 0-1.227-.338zm1.09 13.053c-1.197-.905-4.157-.86-4.157-.86-.874.016-1.748-.03-2.623-.107a6 6 0 0 1-2.546-.767l-.061-.046a6 6 0 0 1-1.196-1.043 6.07 6.07 0 0 1-1.488-2.929v-.015a8 8 0 0 1-.2-1.994c-.03-.92.062-1.84.277-2.73.43-1.58.598-2.347.598-2.347.245-1.027.43-2.086.537-3.144 0-.107.015-.23.03-.337H16.35v1.088c-.306-.245-.705-.337-1.088-.245-.737.23-.967-.092-.967-.092a.98.98 0 0 1-.675.552l-.015.307H12.24l-.107.859h1.38l-.046.46H12.07l-.138.95h1.457l-.061.63h2.76a.38.38 0 0 0 .246.214zm-2.777-14.494-.03.368h-1.074l.046-.368zm-.107 1.319-.046.444h-1.135l.061-.429zm3.16 1.319c-.154 0-.277-.062-.277-.138s.123-.138.277-.138c.153 0 .276.061.276.138 0 .076-.123.138-.276.138m12.346 6.073v.016a5.9 5.9 0 0 1-1.488 2.93 6 6 0 0 1-1.196 1.042l-.061.046a6 6 0 0 1-2.546.767c-.875.092-1.749.123-2.623.123 0 0-2.96-.031-4.156.858v-11.64a.38.38 0 0 0 .245-.215h2.776l-.061-.614h1.457l-.123-.95h-1.41l-.047-.476h1.38l-.107-.86h-1.334l-.031-.321a1.06 1.06 0 0 1-.675-.552s-.23.322-.966.092c-.384-.092-.798 0-1.104.26v-1.073h10.843c0 .107.015.23.03.337.108 1.059.277 2.117.522 3.144 0 0 .169.783.598 2.347.215.89.307 1.81.277 2.73 0 .69-.062 1.365-.2 2.01m-8.62-8.313h-.644l-.03-.368h1.104l.03.368zm-.567.936h1.166l.046.445h-1.181z"/><path fill="#FFCB05" d="M17.132 42.945a.5.5 0 0 0-.384-.246c.522-.49.92-.49 1.227-.398q.369.114.737.046l.153-.046a1.3 1.3 0 0 0 .752.644zM19.724 40.951l-.03-.368h1.104l.03.368zm.905-.123-.015-.168h-.277l.016.168zM19.785 41.887h1.166l.046.444h-1.181zm.721.122.015.17h.276l-.015-.185zM5.567 38.175H27.7a14.5 14.5 0 0 1 .03-3.558c.384-2.5 1.274-3.912 1.381-4.08v-.016l-2.454-2.438c-2.837 1.211-6.211.69-6.211.69a5.5 5.5 0 0 1-1.212-.276 7.9 7.9 0 0 0-2.607-.399h-.031a7.8 7.8 0 0 0-2.592.399c-.383.138-.798.23-1.212.276 0 0-3.374.521-6.211-.706l-2.44 2.439h-.06l.06.015c.108.154.998 1.58 1.381 4.08.184 1.181.184 2.377.046 3.574"/><path fill="#231F20" d="m10.966 35.123-.291-3.574.169-.49h.076L11.273 30h-.767l-.092.26h-.521V30h-1.15v.26H8.22L8.129 30h-.767l.353 1.058h.076l.154.491-.292 3.574a.364.364 0 0 0-.306.368.36.36 0 0 0 .26.337l-.092 1.258H9.11v-.89c0-.092.123-.153.2-.153.092 0 .215.077.215.153v.875h1.595l-.108-1.273a.345.345 0 0 0 .246-.338c.015-.153-.123-.307-.292-.337M7.9 30.798l-.169-.537h.215l.092.26h.966v-.26h.629v.26h.966l.092-.26h.215l-.169.537H7.9m2.669.276-.092.291H8.143l-.092-.291zm-2.362.552h2.224l.276 3.497H7.914zm2.699 3.988H9.709c.061.092.138.168.199.245h.828l.092.981H9.77v-.628a.47.47 0 0 0-.475-.415.47.47 0 0 0-.476.415v.628H7.761l.076-.996h.829a1.6 1.6 0 0 0 .2-.246H7.683a.105.105 0 0 1-.107-.107c0-.062.046-.108.107-.108h3.206c.061 0 .107.062.107.108.015.061-.03.107-.092.123q0-.024 0 0M8.942 33.19h.767v-1.058a.367.367 0 0 0-.384-.322c-.2-.015-.353.138-.383.322zm.23-1.043c.03-.076.123-.107.2-.076.03.015.06.046.076.076v.828h-.276zm-.86 2.684h.768v-1.073a.367.367 0 0 0-.384-.322c-.199-.016-.352.138-.383.322zm.231-1.043a.15.15 0 0 1 .138-.107c.061 0 .123.03.138.107v.829h-.276zm1.78-.03a.36.36 0 0 0-.384-.322c-.2 0-.368.138-.384.322v1.073h.767zm-.23.859h-.277v-.829c.03-.076.123-.107.2-.076.03.015.06.046.076.076z"/><path fill="#E82C2E" d="m7.899 30.798-.169-.537h.215l.092.26h.966v-.26h.629v.26h.966l.092-.26h.215l-.169.537H7.9m2.669.276-.093.291h-2.33l-.093-.291zm-2.363.552h2.224l.277 3.497H7.914zm2.7 3.988H9.709c.06.092.138.168.199.245h.828l.092.981H9.77v-.628a.48.48 0 0 0-.476-.414.47.47 0 0 0-.475.414v.628H7.761l.076-.996h.829a1.6 1.6 0 0 0 .199-.246H7.684a.105.105 0 0 1-.107-.107c0-.062.046-.108.107-.108h3.206c.06 0 .107.062.107.108.015.061-.03.107-.092.123q0-.024 0 0M8.942 33.19h.767v-1.058a.367.367 0 0 0-.384-.322c-.2-.015-.353.138-.383.322zm-.644 1.641h.766v-1.058a.367.367 0 0 0-.383-.322c-.2 0-.353.138-.383.322zm2.024-1.073a.36.36 0 0 0-.383-.322c-.2 0-.368.138-.384.322v1.073h.767z"/><path fill="#231F20" d="M22.27 35.123a.364.364 0 0 0-.307.368c0 .153.092.291.245.337l-.107 1.273h1.595v-.89c0-.091.123-.153.215-.153s.2.077.2.154v.89h1.594l-.107-1.274a.36.36 0 0 0 .26-.337.364.364 0 0 0-.306-.368l-.276-3.574.153-.49h.092L25.874 30h-.782l-.092.26h-.522V30h-1.15v.26h-.521l-.092-.26h-.767l.352 1.058h.077l.154.491zm3.021-4.325h-2.776l-.169-.537h.215l.092.26h.966v-.26h.63v.26h.966l.092-.26h.214l-.168.537zm-.092.26-.092.292h-2.331l-.092-.292zm.123 4.065h-2.776l.276-3.497h2.224zm-2.99.475a.105.105 0 0 1-.108-.107c0-.062.046-.108.107-.108h3.206c.061 0 .107.062.107.108a.105.105 0 0 1-.107.107H24.34c.062.092.123.169.2.246h.828l.077.996h-1.059v-.628a.47.47 0 0 0-.475-.415.47.47 0 0 0-.476.415v.628h-1.058l.092-.996h.828c.077-.077.139-.17.2-.246zm1.978-3.466a.36.36 0 0 0-.384-.322c-.2 0-.368.138-.383.322v1.074h.767zm-.246.859h-.276v-.828c.03-.077.123-.108.2-.077.03.015.061.046.076.077zm.875.782a.35.35 0 0 0-.384-.322.37.37 0 0 0-.399.322v1.074h.767zm-.23.844h-.277v-.829a.15.15 0 0 1 .139-.107c.06 0 .122.046.137.107zm-1.78.214h.752v-1.073a.367.367 0 0 0-.384-.322c-.199 0-.352.138-.383.322zm.23-1.043c.031-.076.123-.107.2-.076.03.015.061.046.076.076v.829h-.276z"/><path fill="#E82C2E" d="M25.292 30.798h-2.777l-.168-.537h.214l.093.26h.966v-.26h.629v.26h.966l.092-.26h.215l-.169.537zm-.092.26-.092.292h-2.332l-.092-.292zm.122 4.065h-2.776l.276-3.497h2.224zm-2.99.475a.105.105 0 0 1-.108-.107c0-.062.046-.108.107-.108h3.206c.061 0 .107.062.107.108a.105.105 0 0 1-.107.107h-1.196c.061.092.122.169.2.246h.827l.077.996h-1.058v-.628a.48.48 0 0 0-.476-.414.467.467 0 0 0-.475.414v.628h-1.058l.091-.996h.829c.076-.077.138-.17.2-.246zm1.978-3.466a.36.36 0 0 0-.383-.322c-.2 0-.369.138-.384.322v1.074h.767zm.629 1.641a.35.35 0 0 0-.384-.322c-.199 0-.368.138-.383.322v1.074h.767zm-2.025 1.058h.767v-1.073a.367.367 0 0 0-.383-.322c-.2 0-.353.138-.384.322z"/><path fill="#231F20" d="M18.36 34.28a.2.2 0 0 0-.154.06l-.184.185a.2.2 0 0 1-.154.061h-.751l-.123-2.101a2.24 2.24 0 0 0 1.135-1.258c.03.015.077.015.107.015a.773.773 0 0 0 .798-.751v-.092a.6.6 0 0 0-.061-.276l.23-.108-.108-.23-2.178 1.09-.076-1.488a.105.105 0 0 0-.108-.108.105.105 0 0 0-.107.108l-.015.276c-.108-.046-.384-.154-.767.153-.23.2-.552.26-.828.138.03.061.26.828.95.767.2-.03.384-.03.583 0l-.015.353-2.47 1.242.108.23.215-.107c.122.276.414.46.72.445a.94.94 0 0 0 .645-.322.53.53 0 0 0 .368.092h.138l.153-.016-.123 1.948h-.644a.3.3 0 0 1-.199-.077c-.107-.076-.2-.214-.445-.214h-2.224c-.43 0-.414.72-.03.72.444 0 .414.384.613.384h.291l.813 1.166c.092.122.23.199.384.184h1.135l.506.69c.015.03.046.03.061.03.046 0 .108-.03.108-.076a.2.2 0 0 0-.016-.046l-.444-.598h.552l.506.69c.015.03.046.03.061.03.046 0 .108-.03.108-.076 0-.016-.016-.046-.031-.046l-.445-.598h.552l.522.705c.015.03.046.03.076.03.046 0 .108-.03.108-.076 0-.015-.016-.046-.016-.061l-.43-.583h.553l.506.69c.015.03.046.03.062.03.046 0 .107-.03.107-.076a.1.1 0 0 0-.03-.061l-.446-.598h.062c.245 0 .46-.2.475-.445v-.736c0-.261.062-.476.476-.476h.552v-.797zm-2.286-3.774a.9.9 0 0 1-.414-.015.54.54 0 0 1-.292-.26h.062c.23-.016.444-.123.613-.277a.404.404 0 0 1 .552-.03l-.03.613a1.2 1.2 0 0 0-.476 0m-.598 1.61a.7.7 0 0 0 .092.246.526.526 0 0 1-.706.215.6.6 0 0 1-.245-.277l4.156-2.07v.061c0 .43-.091.767-.766.767a.6.6 0 0 1-.292-.061c.062.046.123.092.184.123a1.69 1.69 0 0 1-1.165 1.15c-.4.23-.905.153-1.258-.154m1.396 2.47h-.322l.076-1.994.123-.03h.03zm-1.994 1.886a.3.3 0 0 1-.169-.061l-.751-1.043c-.016-.03.046-.077.076-.046l.798.782c.092.092.23.154.368.154h.43l.153.214zm1.135 0-.154-.215h.553l.153.215zm.782 0-.138-.215h.552l.154.215zm.782 0-.153-.215h.552l.153.215zm1.227-.23c0 .123-.107.23-.23.246h-.215l-.153-.215a.4.4 0 0 0 .337-.276v-.016l.307-.644a.6.6 0 0 0-.046.246zm1.012-1.472h-.997c-.137 0-.567.368-.567.368a.12.12 0 0 1-.077.03h-2.776c-.015 0-.03-.015-.061-.015l-.72-.368c-.032-.015-.062-.03-.108-.03h-1.703c-.122 0-.138-.23 0-.23h2.194c.03 0 .076.015.107.03l.291.215a.45.45 0 0 0 .246.061h2.346c.062 0 .108-.03.154-.077 0 0 .276-.245.322-.245h1.365zm-1.794 1.273s-.123-.169-.153-.2c-.016-.03 0-.046.015-.046s.03.016.046.016c.03.046.03.061.061.061s.046-.03.046-.061c0-.169-.153-.246-.306-.246-.154 0-.276.077-.276.246.015.03.046.061.076.046.062 0 .03-.077.077-.077.015 0 .03 0 .046.015l.107.138.062.077h-.568s-.123-.169-.153-.2c-.016-.03 0-.045.015-.045s.03.015.046.015c.03.046.03.061.061.061s.062-.015.062-.046c0-.168-.154-.245-.307-.245s-.276.077-.276.245c.015.031.046.062.077.046.061 0 .03-.076.076-.076.016 0 .031 0 .046.015l.108.138.061.077h-.583s-.122-.169-.153-.2c-.03-.03 0-.046.015-.046.016 0 .03.016.046.016.03.046.03.061.062.061.03 0 .06-.046.06-.046 0-.169-.152-.245-.306-.245-.153 0-.276.076-.276.245.015.03.046.061.077.046.061 0 .03-.077.077-.077.015 0 .03 0 .046.016l.107.138.061.076h-.552s-.153-.153-.153-.199 0-.046.015-.046.03.015.046.015c.03.046.03.062.061.062s.046-.016.062-.046v-.016c0-.168-.154-.245-.307-.245s-.276.077-.276.245c.015.031.046.062.077.046.06 0 .03-.076.076-.076.016 0 .03 0 .046.015l.108.138.061.077h-.337c-.062 0-.123-.062-.154-.092l-.782-.736c-.061-.031-.107-.031-.169-.031h-.582c-.154 0-.154-.184 0-.184h.981c.03 0 .077.015.107.03l.721.384c.046.03.108.046.154.046h2.776a.28.28 0 0 0 .214-.061l.246-.246-.368.752v.015a.18.18 0 0 1-.169.138z"/><path fill="#E82C2E" d="M16.074 30.506a.9.9 0 0 1-.415-.015.6.6 0 0 1-.291-.261h.061c.23-.015.445-.123.614-.276a.404.404 0 0 1 .552-.03l-.03.613a1.2 1.2 0 0 0-.476 0m-.598 1.61a.7.7 0 0 0 .092.246.52.52 0 0 1-.46.276.53.53 0 0 1-.491-.338l4.156-2.07v.061c0 .43-.092.767-.767.767a.6.6 0 0 1-.291-.061c.061.046.123.092.184.122a1.69 1.69 0 0 1-1.166 1.15c-.398.23-.905.154-1.257-.153m1.395 2.47h-.322l.077-1.994.123-.031h.03zm-1.978 1.901a.3.3 0 0 1-.169-.061l-.751-1.043c-.016-.03.046-.077.076-.046l.798.782c.092.092.23.154.368.154h.43l.153.214zm1.12 0-.154-.214h.552l.154.214zm.782 0-.154-.214h.553l.153.214zm.782 0-.153-.214h.552l.153.214zm1.227-.245c0 .123-.107.23-.23.245h-.215l-.153-.214a.4.4 0 0 0 .337-.276v-.016l.307-.66a.6.6 0 0 0-.046.246zM19.83 34.8h-.997c-.138 0-.567.369-.567.369a.12.12 0 0 1-.077.03h-2.776c-.015 0-.03-.015-.061-.015l-.721-.368a.2.2 0 0 0-.108-.03h-1.702c-.123 0-.138-.23 0-.23h2.193c.03 0 .077.015.108.03l.291.215a.45.45 0 0 0 .245.06h2.347c.061 0 .123-.03.153-.076 0 0 .277-.245.323-.245h1.364zm-1.794 1.274s-.123-.17-.154-.2c-.015-.03 0-.046.016-.046.015 0 .03.015.046.015.03.046.03.062.061.062.03 0 .061-.046.061-.046 0-.169-.153-.246-.306-.246-.154 0-.276.077-.276.246.015.03.046.061.076.046.062 0 .03-.077.077-.077.015 0 .03 0 .046.015l.107.138.062.077h-.583s-.123-.169-.154-.2c-.03-.03 0-.045.016-.045.015 0 .03.015.046.015.03.046.03.061.061.061.03 0 .046-.015.061-.046v-.015c0-.169-.153-.245-.306-.245-.154 0-.276.076-.276.245.015.03.046.061.076.046.062 0 .031-.077.077-.077.015 0 .03 0 .046.016l.107.138.062.077h-.583s-.123-.17-.153-.2c-.016-.03 0-.046.015-.046s.03.016.046.016c.03.045.03.06.061.06s.062-.014.062-.045c0-.169-.154-.246-.307-.246-.154 0-.276.077-.276.246.015.03.046.061.076.046.062 0 .031-.077.077-.077.015 0 .03 0 .046.016l.108.137.06.077h-.551s-.154-.169-.154-.2c0-.03 0-.045.016-.045.015 0 .03.015.046.015.03.046.03.062.061.062.03 0 .046-.016.061-.047v-.015c0-.169-.153-.245-.306-.245-.154 0-.276.076-.276.245.015.03.046.062.076.046.062 0 .031-.077.077-.077.015 0 .03 0 .046.016l.107.138.062.076h-.338c-.061 0-.122-.06-.153-.092l-.782-.736c-.062-.03-.108-.03-.169-.03h-.583c-.153 0-.153-.184 0-.184h.982c.03 0 .077.015.107.03l.721.384c.046.03.107.046.153.046h2.776a.28.28 0 0 0 .215-.062l.246-.245-.368.752v.015a.18.18 0 0 1-.17.138z"/><path fill="#FFCB05" d="M6.457 45.69a3 3 0 0 1-.322-.107c-.154-.046-.307-.43-.307-.43a.9.9 0 0 1 .368-.2s.353-.03.384-.183v-.077s.046.062 1.027.062c.982 0 1.028-.062 1.028-.062v.015c0 .2.49.261.49.261a.35.35 0 0 1 .246.169c.03.077-.077.138-.337.43-.077.076-.276.045-.368.06l-.016.031c.062.123.123.246.169.369a.3.3 0 0 0-.123.03.25.25 0 0 0-.107.138c.046.092.077.184.107.276a.3.3 0 0 0-.2.062.59.59 0 0 1 0 .506.5.5 0 0 0-.29-.092h-.093c0 .43-.153.444-.153.444-.153-.199-.475.016-.475.016-.185-.077-.292-.414-.292-.414a.42.42 0 0 0-.245.153 1.15 1.15 0 0 1-.154-.552.42.42 0 0 0-.26.153c-.246-.276.046-.72.046-.72h-.184c-.138-.031-.184-.016-.184 0a2 2 0 0 1 .245-.384m-.552 5.245a.3.3 0 0 1 0-.168c-.108 0-.2.061-.261.138a.6.6 0 0 1 .276.03zm.092.507c-.03-.047-.062-.093-.062-.154a.3.3 0 0 0-.168.23.38.38 0 0 1 .23-.076m4.616-.17v-.152a.4.4 0 0 0-.23.153.6.6 0 0 1 .23 0m3.344.016a.26.26 0 0 1 0-.153.3.3 0 0 0-.23.169c.077-.016.153-.016.23-.016m-6.089-7.899c.368-.03.598.077.72.353a.3.3 0 0 0 .078-.153c0-.077-.062-.23-.4-.322-.337-.108-.398.092-.398.122M6.84 44.555c.184.03.384.046.568.03.046 0 .107-.03.107-.137 0-.046-.03-.092-.092-.108h-.015a3.3 3.3 0 0 0-.552 0c-.062.031-.062.184 0 .215m-.031-.399c.03.031.215.016.215.016.015-.123-.077-.215-.2-.23h-.015s-.03.184 0 .214m.905.292c0 .107.046.122.107.138.184.015.384 0 .568-.03.046-.032.046-.185 0-.216a3.3 3.3 0 0 0-.552 0c-.046 0-.092.031-.108.092v.016m.69-.491a.21.21 0 0 0-.214.215v.015s.184 0 .214-.015c.016-.031-.015-.215 0-.215m-.674-.43-.077.276.276-.091v.322l-.276-.092.077.245h.276c-.016-.2.122-.383.322-.399h.046c.122 0-.123-.276-.43-.276a1 1 0 0 0-.199.03m-.506-.03c-.307 0-.552.276-.43.276.2 0 .368.169.353.368v.046h.276l.077-.245-.276.092v-.368l.276.092-.077-.276a1 1 0 0 0-.2-.03m-.628.199c.138-.277.353-.384.72-.353 0-.016-.091-.23-.398-.138s-.399.245-.399.322.031.123.077.169m.675 4.662c.046.077.077.153.107.23.154-.107.215-.169.215-.138 0 .03-.061.138.245.506.43-.184.322-.69.307-.828.245-.015.552.291.552.291.092-.138.138-.276.169-.429 0-.107 0-.23-.015-.337a.87.87 0 0 1 .444-.17c-.153-.429.062-.551.062-.551s-.184-.169-.046-.553a.9.9 0 0 1 .168-.306l-.092-.046a.4.4 0 0 1-.184-.169l-.061-.077c-.123.077-.184.062-.184.062.169.306.153.43.153.43-.168-.062-.245.014-.245.014v.031c.123.307.046.43.03.414-.076-.03-.107-.015-.107-.015v.092a.74.74 0 0 1-.353.675c0-.108-.076-.2-.184-.215a.58.58 0 0 1-.368.506c-.092-.337-.521.016-.521.016a3 3 0 0 0-.307-.415c-.061.047-.092.277-.092.277a1 1 0 0 1-.368-.614c-.046.03-.077.092-.092.153-.23-.076-.307-.414-.307-.414a.9.9 0 0 1-.245.491c.046.2.322.108.322.108.03.184.03.383-.03.552.23.03.275-.031.275-.031a.83.83 0 0 1 .445.66.75.75 0 0 0 .276-.215m-.92 3.435a.28.28 0 0 1-.092-.138.38.38 0 0 0-.123.276.5.5 0 0 1 .215-.138m.95-1.104c.17-.123.354-.2.553-.245-.184-.17.169-.69.169-.69.03.045.061.076.092.107.092-.169.2-.322.2-.322a1.8 1.8 0 0 0-.277-.4l-.215.154c-.245-.291-.398-.506-.398-.506.015.108.03.215.03.322 0 .46-.138.89-.383 1.273a2 2 0 0 1-.598.491c-.046-.046-.092-.092-.138-.123-.154-.107-.215-.03-.215-.03a.12.12 0 0 0-.046.138c.015.092.138.107.138.107.107.015.2.077.26.154-.06-.031-.137-.031-.214-.031-.123 0-.123.092-.123.092-.015.046 0 .107.03.153.047.03.124.03.17 0 .214-.107.26 0 .26 0-.107.03-.214.154-.122.276.107.123.414-.2.414-.2a.6.6 0 0 1 .276-.198c-.184-.277.168-.553.168-.553m.4.798-.016-.03c-.015-.016-.015-.032-.03-.047v-.092a.36.36 0 0 0-.185.215v.015a1.5 1.5 0 0 1 .246-.076m.352.337-.092-.015h-.015l-.061-.046a.3.3 0 0 0 0 .276 1 1 0 0 1 .153-.2m.537.108a.3.3 0 0 1-.108-.077h-.015a.3.3 0 0 0 0 .276.54.54 0 0 1 .123-.2m2.592-3.022a1.7 1.7 0 0 1 1.104-.353 1.2 1.2 0 0 0-.644-.153c-.23.03-.46.138-.644.276zm-.292 1.902c0-.03.016-.046.016-.061 0-.031.03-.046.046-.077h-.046a.34.34 0 0 0-.246.046.5.5 0 0 1 .23.092m-.03 1.043-.046-.046a.1.1 0 0 1-.03-.061.34.34 0 0 0-.124.23c.077-.046.138-.092.2-.123m1.733-2.132a.3.3 0 0 1-.23 0c.276-.751.153-.828.153-.828-.03-.062-.168-.108-.168-.108a1.38 1.38 0 0 0-1.074.338.35.35 0 0 0-.077.399l.138-.092c.307-.154.215.23.706.337 0 0 .337.154.368.414a.73.73 0 0 1-.107.506.47.47 0 0 1-.43.246c-.077 0-.169 0-.245-.016a1 1 0 0 1-.368-.138c-.154-.061-.139.17-.139.17.246.106.23.23.23.23-.46-.216-.552.015-.552.015-.015.06.016.122.077.138.123.045.245.06.384.076-.215.108-.2.23-.2.23 0 .138.184.062.184.062a.66.66 0 0 0 .307-.307c.107.03.2.123.23.23.184-.291.291-.337.291-.337.154-.108.322-.2.491-.261.092 0 .2.03.276.092 0-.154-.046-.307-.107-.445.092 0 .184.015.26.046a.85.85 0 0 1-.045-.475.55.55 0 0 1-.307-.537m1.457.966c-.107-.015-.2.03-.276.107.077.016.169.031.245.062v-.108c0-.015.016-.015.016-.03m.23 1.089c-.031-.031-.062-.046-.092-.092l-.016-.031a.37.37 0 0 0-.076.276c.046-.046.122-.107.184-.153m.046-.614s-.092-.076-.154-.046c0 0-.107.016-.107.108 0 .046.03.092.061.122l.031.016s.061-.17.169-.2m1.395-.521a.37.37 0 0 1-.107-.276c-.03-.23 0-.46.092-.675a1 1 0 0 1-.307 0 .86.86 0 0 0-.153-.43.74.74 0 0 0-.123.322c-.613-.199-.72-.552-.72-.552a1.6 1.6 0 0 1-.062-.598c.046-.49-.092-.552-.092-.552-.092-.184-.184-.2-.276-.184-.092.015-.26.245-.26.245a.7.7 0 0 1 .107-.306c.138-.215.475-.184.475-.184a.89.89 0 0 0 .767-.89.86.86 0 0 0-.583-.874 2 2 0 0 0-.414-.046c-.138 0-.276-.016-.414-.031-.276-.046-.353-.399-.353-.383a.45.45 0 0 0-.061.414.7.7 0 0 1-.399-.077c-.107-.046-.2-.138-.215-.245-.015.138-.03.276-.015.414-.552-.031-1.917-.077-1.917-.736 0-.415.95-.553 1.534-.323 0 0 .046-.276 0-.337 0 0 .628.43 1.088.2.093-.047.184-.093.261-.154 0 0-.077.046-.552-.015-.215-.031-.169-.092-.077-.276-.214 0-.153-.046-.506-.123a.98.98 0 0 0-.69.138c-.046-.307-.184-.368-.184-.368a.52.52 0 0 1-.2.414q-.183.138-.414.184c-.245.077-.598.215-.598.69 0 .721.86.89 1.457.951.2.015.4.015.614 0 0 .03.03.2.03.2a.407.407 0 0 1 .568 0s.092-.246.322-.246a.52.52 0 0 1 .414.245.49.49 0 0 1 .476-.276.66.66 0 0 1 .628.66.66.66 0 0 1-.659.629c-.291.03-.583 0-.859-.077a2.2 2.2 0 0 0-.705-.215 2.5 2.5 0 0 0-.875.123 5.6 5.6 0 0 1-1.426 0l-.123-.03a1.76 1.76 0 0 1-.736-.415.44.44 0 0 0 0 .2c.046.122.123.23.215.322-.215-.016-.246.107-.246.107a.3.3 0 0 0 0 .276c.123.2.215.43.215.43-.077-.046-.153-.092-.245-.108-.338-.03-.384.077-.384.077.016.03.016.077.016.107a.86.86 0 0 1-.17.568l-.137.276a1 1 0 0 0-.414-.353.57.57 0 0 1-.154.537c.246.291.43.613.537.966.23.66.123.874.123.874a.5.5 0 0 1-.43.338.6.6 0 0 1-.276-.03.19.19 0 0 0-.245 0 .17.17 0 0 0-.046.168c.03.092.153.03.153.03.123-.045.154.031.154.031-.108 0-.123.138-.123.138 0 .092.077.108.077.108a.32.32 0 0 0 .26-.062c.062-.03.062-.122.154-.184a.23.23 0 0 1 .2 0c-.077 0-.139.154-.139.154-.046.184.154.184.154.184.107 0 .138-.184.138-.184a.4.4 0 0 1 .276-.17c.107-.03.092-.076.122-.275.062-.23.17-.46.307-.66-.368-.061-.337-.322-.337-.322.076 0 .138-.046.184-.107a.86.86 0 0 1-.261-.399c-.03-.23 0-.46.092-.66.077-.23.23-.444.414-.613a2 2 0 0 0-.184.583.61.61 0 0 0 .69-.522.7.7 0 0 0-.03-.306c.153.23.184.521.06.767.737-.17.507-.936.507-.936.153.107.23.291.215.49a1 1 0 0 1 .598-.245.7.7 0 0 0-.153-.153c1.073-.061 1.334.644 1.334.644.107.215.138.46.061.69.108-.046.476-.306.476-.306.03.23.092.46.184.674 0-.352.445-.107.445-.107.184.107.95.383.95.383a.46.46 0 0 1 .261.246.72.72 0 0 1 .016.475.4.4 0 0 1-.338.276c-.061 0-.184-.107-.184-.107l-.138-.138c-.03-.015-.077 0-.123.015-.046.016-.015.108-.015.108.015.046.03.076.077.092.092.03.168.107.2.2.137 0 .275.091.306.23-.107-.108-.276-.108-.399 0-.046.045-.061.107-.03.153.076.122.153.076.306 0a1.7 1.7 0 0 1 .476-.077c.092 0 .138-.03.153-.062.015-.091.015-.183.015-.275-.03-.277.307-.507.322-.491"/><path fill="#231F20" d="M15.951 50.307c-.015-.138-.015-.291-.015-.43 0-.184.276-.322.276-.322-.138-.153-.506-.122-.506-.122 0-.092-.2-.338-.261-.568-.276 0-.384.338-.384.338a1 1 0 0 1-.276-.23c-.138-.154-.076-.675-.076-.675 0-.706-.215-.66-.215-.66.997-.169.92-1.196.92-1.196a1.113 1.113 0 0 0-1.135-1.09h-.368c-.368 0-.353-.46-.353-.46-.368.031-.43.46-.43.46-.321-.045-.275-.444-.275-.444-.338.046-.368.552-.368.552-.506 0-1.488-.123-1.488-.475 0-.138.123-.261.859-.261.23.015.445.107.613.276.031-.123.031-.26.031-.383.291.184.644.23.966.107.276-.107.507-.353.599-.629 0 0-.17.154-.86.077.077-.123.139-.26.17-.414a.56.56 0 0 1-.492.061 1.02 1.02 0 0 0-.92-.03s-.168-.4-.475-.43c0 0 .215.475-.491.736-.138.046-.751.23-.751.86 0 .628.582 1.165 2.131 1.165.016.092.031.184.062.276 0 0 .276-.43.782-.03 0 0 .092-.323.307-.323.214 0 .322.322.414.353.015-.169.153-.322.322-.338 0 0 .414-.076.43.414 0 0 .015.369-.491.4a2.1 2.1 0 0 1-.875-.139 2.03 2.03 0 0 0-1.38-.03 3.7 3.7 0 0 1-1.534 0c-.445-.093-.705-.246-.705-.43s.245-.107.23-.153c-.03-.108-.138-.169-.276-.246-.353-.138-.414-.214.03-.644 0 0 .031-.214-.26-.414a.6.6 0 0 0-.276-.077.8.8 0 0 0 .092-.368s-.4.031-.476.2c0 0-.107 0-.107-.092v-.276c0-.246.03-.246.092-.338a.48.48 0 0 0 .061-.49.87.87 0 0 0-.72-.307.47.47 0 0 0-.246.168l-.092-.306.291.092v-.353l-.291.107.077-.322H7.5l.092.307-.291-.108v.353l.291-.092-.092.307a.38.38 0 0 0-.245-.169.81.81 0 0 0-.721.307.47.47 0 0 0 .061.49c.062.093.092.078.092.323v.276c0 .092-.107.092-.107.092-.077-.169-.476-.2-.476-.2 0 .123.016.261.077.369l.015.03c-.521.17-.705.369-.536.583.107.138.214.276.322.43a.3.3 0 0 0 .153.076c-.123.154-.2.353-.215.552a.38.38 0 0 1 .338-.076h.015c-.015.061-.015.107-.015.168a.14.14 0 0 0-.108.047.37.37 0 0 0-.076.214.66.66 0 0 1-.138.338.28.28 0 0 1-.169.153c.046.2.215.338.414.353.123.123-.077.506-.077.506.307.169.445.046.445.046.414.169.322.813.322.813.108-.092.246-.154.384-.2.092.215 0 .951-.215 1.335a1.1 1.1 0 0 1-.49.49.38.38 0 0 0-.354-.107c-.092.016-.168.062-.199.154 0 0-.399 0-.445.368a.6.6 0 0 1 .43.015l.046.015.03.031c-.015.03-.03.046-.046.077h-.03a.465.465 0 0 0-.261.521.56.56 0 0 1 .399-.169c.046.031.092.062.138.062a.426.426 0 0 0-.092.552.64.64 0 0 1 .337-.26h.169c.2 0 .43-.292.43-.292a.6.6 0 0 1 .383-.138.35.35 0 0 0-.016.276.65.65 0 0 1 .4-.153h.091v.015l-.015.03a.466.466 0 0 0 .092.568.56.56 0 0 1 .23-.353l.046-.03c.077-.016.153-.046.184-.108v.046s-.169.384.138.552a.57.57 0 0 1 .184-.368h.046a.285.285 0 0 0 .307-.214c.015-.062.061-.092.123-.108.276-.046.26-.107.291-.184.015-.123.03-.23.03-.353a2.7 2.7 0 0 1 .384-.828.65.65 0 0 1-.337-.046.25.25 0 0 0 .107-.061.25.25 0 0 1 .169-.077c-.062-.061-.138-.138-.215-.184a.485.485 0 0 1-.2-.66c.998.062 1.381-.352 1.381-.352l.184.23c-.138.307-.046.69.245.874a.275.275 0 0 1 .154-.337c.077.214.537.398.537.398a.3.3 0 0 1 .199.368.41.41 0 0 1-.383.353.44.44 0 0 1-.276-.046.57.57 0 0 0-.277-.122c-.046 0-.092 0-.122.015h-.046a.46.46 0 0 0-.552.2.55.55 0 0 1 .368.137.33.33 0 0 0-.276.138s-.4.046-.415.4a.6.6 0 0 1 .43-.016h.015c.046.061.123.092.2.107-.016.016-.046.016-.062.03a.454.454 0 0 0-.153.553.6.6 0 0 1 .353-.23h.015c.03.015.061.015.107.015.17.046.4-.2.4-.2.106.17.137.17.137.17.138.107.322-.123.322-.123.077-.108.184-.2.276-.276.338-.26.491-.138.491-.138.077.03.154.092.184.168.2-.122.138-.582.138-.582.108.046.215.107.307.184a.87.87 0 0 0-.169-.506.5.5 0 0 1 .046-.506 1.2 1.2 0 0 1-.276-.139c-.153-.092-.107-.383-.107-.383.077-.046.153-.077.215-.138.214.598.46.629.46.629 0-.092 0-.307.076-.322.368.138.721.291 1.074.46.169.061.153.307.153.307a.19.19 0 0 1-.168.214c-.077-.168-.276-.26-.445-.184-.03.016-.046.016-.061.03h-.031s-.399-.045-.49.308c.137-.031.29 0 .413.076-.046.031-.107.062-.138.108h-.015s-.399.061-.399.43a.7.7 0 0 1 .43-.047.4.4 0 0 0 .199.123.46.46 0 0 0 .015.567.6.6 0 0 1 .307-.306.5.5 0 0 0 .215 0 1 1 0 0 1 .475-.123c.476 0 .522-.184.522-.506 0-.338.552-.476.552-.476-.077-.076-.292-.245-.307-.383m-10.046.583c-.092-.031-.184-.046-.276-.031a.34.34 0 0 1 .26-.138.3.3 0 0 0 0 .169zm-.153.598a.37.37 0 0 1 .168-.23c0 .061.031.107.062.153a.35.35 0 0 0-.23.077m4.632-.246a.35.35 0 0 1 .23-.153v.153c-.077-.015-.154-.03-.23-.03zm3.312.047a.32.32 0 0 1 .23-.17.26.26 0 0 0 0 .154c-.076-.015-.153-.015-.23-.015zm-5.429-8.053c.337.108.399.246.399.322 0 .062-.03.108-.077.154-.138-.276-.353-.384-.72-.353 0-.046.091-.245.398-.153zm-1.426 1.12q.276-.023.552 0c.046 0 .092.03.107.092v.015c0 .108-.046.123-.107.138-.184.016-.384 0-.568-.03-.046-.062-.046-.215.016-.246zm-.031-.399a.21.21 0 0 1 .215.215v.015s-.184 0-.215-.015c-.03-.03 0-.215 0-.215m1.012.399q.276-.023.552 0c.062.03.046.184 0 .215-.184.03-.383.046-.567.03-.046 0-.108-.03-.108-.138a.104.104 0 0 1 .062-.122c.03 0 .046 0 .061.015m.598-.2c-.03.031-.214.016-.214.016-.016-.123.076-.215.199-.23h.015c.016.015.031.169 0 .215m-.46-.659c.307 0 .552.276.43.276a.35.35 0 0 0-.353.368v.046H7.76l-.077-.245.276.092v-.338l-.276.093.077-.277c.077-.03.138-.046.2-.015m-.49.03.076.277-.276-.092v.322l.276-.092-.077.245h-.276c.016-.2-.122-.383-.322-.398h-.046c-.122 0 .123-.277.43-.277a.34.34 0 0 1 .214.016m-.89.016c0-.077.061-.23.399-.322.337-.107.398.107.398.138-.368-.03-.598.077-.72.353-.062-.062-.077-.108-.077-.169m-.46 2.04c-.154-.046-.307-.43-.307-.43a.9.9 0 0 1 .368-.199s.353-.03.384-.184v-.077s.046.062 1.027.062c.982 0 1.028-.062 1.028-.062v.016c0 .2.49.26.49.26a.35.35 0 0 1 .246.17c.03.076-.077.137-.338.429-.076.076-.29.046-.368.061v.03c.062.123.123.246.17.369a.3.3 0 0 0-.124.03.25.25 0 0 0-.107.138c.046.093.077.184.107.276a.3.3 0 0 0-.199.062.59.59 0 0 1 0 .506.5.5 0 0 0-.291-.092h-.077c0 .43-.153.445-.153.445-.154-.2-.476.015-.476.015-.184-.077-.291-.414-.291-.414a.42.42 0 0 0-.246.153 1.14 1.14 0 0 1-.153-.536.42.42 0 0 0-.26.153c-.246-.276.045-.706.045-.706h-.184c-.138-.03-.184-.015-.184 0 .061-.138.153-.26.245-.383a3 3 0 0 1-.352-.092m.905 2.96a.87.87 0 0 0-.445-.66s-.046.062-.276.031a.97.97 0 0 0 .03-.552s-.276.092-.322-.107a.9.9 0 0 0 .246-.491s.076.337.307.414c0-.061.046-.123.092-.153.046.245.168.46.368.598 0 0 .03-.215.092-.276.107.138.214.276.306.414 0 0 .43-.368.522-.016a.63.63 0 0 0 .368-.506.215.215 0 0 1 .184.215.74.74 0 0 0 .353-.675v-.092s.03-.015.107.016c.03 0 .108-.108-.03-.415v-.03s.076-.077.245-.016c0 0 .015-.122-.154-.429 0 0 .062.015.185-.061l.046.076a.4.4 0 0 0 .184.169l.092.046a.55.55 0 0 0-.17.307c-.137.383.047.552.047.552s-.2.123-.061.552a.87.87 0 0 0-.445.169c.015.107.03.23.03.337q-.046.231-.184.414s-.322-.306-.552-.291c.031.138.138.644-.306.828-.307-.368-.246-.475-.246-.506 0-.03-.061.015-.215.138a1.6 1.6 0 0 0-.107-.23.7.7 0 0 1-.291.23m-.89 3.328a.36.36 0 0 1 .123-.276.22.22 0 0 0 .092.138c-.077.046-.138.092-.215.138m1.028-.705a.52.52 0 0 0-.276.2s-.276.352-.4.199c-.122-.154.016-.246.124-.276 0 0-.046-.108-.261 0a.17.17 0 0 1-.169 0c-.03-.047-.046-.093-.03-.154 0 0 0-.077.122-.092a.34.34 0 0 1 .215.03.41.41 0 0 0-.26-.153s-.124 0-.139-.107c-.03-.046-.015-.107.046-.138 0 0 .061-.077.215.03.046.047.092.077.138.123.23-.122.445-.291.613-.49a2.4 2.4 0 0 0 .384-1.289c0-.107-.016-.215-.03-.322 0 0 .137.215.398.506l.215-.153c.107.123.199.26.276.399 0 0-.108.153-.2.322-.03-.03-.061-.077-.092-.108 0 0-.368.522-.168.69-.2.047-.384.139-.553.246-.015-.015-.352.26-.168.537m.322.322a.35.35 0 0 1 .184-.23v.092c0 .015.015.03.03.046l.016.03a1.3 1.3 0 0 0-.23.062m.214-.414v.046a.47.47 0 0 0-.23.153c-.552-.506.63-.767.675-.782a.34.34 0 0 1-.03-.475c.122.138.23.092.23.092-.092-.307.107-.415.107-.415q.185.369.23.783a.33.33 0 0 1-.245.398.2.2 0 0 1-.138 0 .36.36 0 0 0-.506 0 .8.8 0 0 0-.093.2m.246.859a.3.3 0 0 1 0-.276c.015.015.046.03.061.046h.016l.06.015a1.2 1.2 0 0 0-.137.215m.583.107a.3.3 0 0 1 0-.276h.015c.03.03.077.061.107.077-.046.061-.092.122-.122.199m2.546-3.45c.184-.154.414-.246.644-.277.23-.015.445.03.644.153a1.67 1.67 0 0 0-1.104.353zm-.338 2.024c.077-.046.154-.077.246-.046h.046c-.016.03-.031.046-.046.076-.016.016-.016.046-.016.062a.7.7 0 0 0-.23-.092m.184 1.135c-.061.03-.138.06-.199.107a.27.27 0 0 1 .123-.23c.015.03.015.046.03.061zm2.025-1.596a.85.85 0 0 0 .046.476.9.9 0 0 0-.276-.046c.061.138.107.291.107.445a.8.8 0 0 0-.276-.092 2.2 2.2 0 0 0-.49.26s-.108.046-.292.338a.32.32 0 0 0-.23-.23 1 1 0 0 1-.307.306s-.184.077-.184-.06c0 0 0-.123.2-.23-.123-.016-.261-.032-.384-.078-.061-.015-.092-.076-.077-.138 0 0 .108-.23.553-.015 0 0 .015-.107-.23-.23 0 0-.031-.23.137-.169q.162.115.368.138c.077.016.17.016.246.016a.44.44 0 0 0 .46-.23.7.7 0 0 0 .123-.522c-.03-.276-.368-.414-.368-.414-.491-.107-.4-.475-.706-.337l-.138.092a.35.35 0 0 1 .077-.4c.291-.26.69-.383 1.073-.337 0 0 .154.046.17.108 0 0 .122.076-.154.828q.114.045.23 0c0 .23.123.43.322.522m1.165.46v.108a1.2 1.2 0 0 0-.245-.061.37.37 0 0 1 .276-.108zm.062 1.258a.37.37 0 0 1 .077-.276l.015.03q.045.047.092.093a.45.45 0 0 0-.184.153m.061-.583-.03-.015a.14.14 0 0 1-.062-.123c0-.092.108-.107.108-.107.06-.015.168.046.168.046-.122.03-.184.215-.184.2m1.197-.245c0 .092 0 .184-.016.276-.015.03-.061.061-.153.061-.169 0-.322.016-.476.077-.153.077-.23.123-.306 0a.15.15 0 0 1 .03-.153c.108-.108.276-.108.4 0-.032-.138-.17-.23-.308-.23a.32.32 0 0 0-.2-.2.16.16 0 0 1-.076-.092s-.015-.076.016-.107c.046-.03.092-.046.122-.015l.138.138s.108.107.184.107a.4.4 0 0 0 .338-.276.72.72 0 0 0-.015-.475.42.42 0 0 0-.261-.246s-.752-.276-.951-.383c0 0-.445-.23-.445.107a2.6 2.6 0 0 1-.184-.675s-.368.26-.476.322a.84.84 0 0 0-.06-.69s-.262-.69-1.335-.644c.061.046.107.107.153.153-.214.016-.43.108-.598.246.03-.184-.061-.368-.215-.491 0 0 .23.767-.506.935a.73.73 0 0 0-.061-.766.6.6 0 0 1-.353.782.7.7 0 0 1-.307.03c.016-.199.077-.398.184-.582a1.66 1.66 0 0 0-.43.598c-.091.2-.122.445-.091.66a.83.83 0 0 0 .245.398.21.21 0 0 1-.184.108s-.03.26.338.322c-.138.199-.246.429-.307.659-.03.184-.015.23-.123.276a.4.4 0 0 0-.276.169s-.03.169-.138.184c0 0-.2 0-.153-.184 0 0 .046-.154.138-.154a.23.23 0 0 0-.2 0c-.107.062-.107.154-.153.184-.061.062-.169.093-.245.062 0 0-.077 0-.077-.108 0 0 0-.138.123-.138 0 0-.031-.076-.154-.03 0 0-.122.061-.153-.03-.015-.093.046-.185.138-.216.061-.015.123 0 .153.046.092.031.2.046.292.031a.51.51 0 0 0 .444-.353s.108-.214-.138-.874a2.6 2.6 0 0 0-.536-.966.53.53 0 0 0 .168-.522c.169.077.322.2.43.353.03-.092.076-.184.122-.276a.85.85 0 0 0 .17-.567c0-.031-.016-.077-.016-.108 0 0 .046-.107.383-.077a.5.5 0 0 1 .246.108s-.108-.23-.215-.43a.3.3 0 0 1 0-.276s.03-.122.245-.107a.9.9 0 0 1-.214-.322.44.44 0 0 1 0-.2c.199.2.46.338.736.415l.123.03q.712.093 1.426 0a2.4 2.4 0 0 1 .874-.122c.246.03.49.107.706.214.276.077.567.108.859.077.352.015.644-.276.66-.629.014-.353-.277-.644-.63-.66a.47.47 0 0 0-.475.277.56.56 0 0 0-.414-.246c-.23 0-.322.246-.322.246a.41.41 0 0 0-.568 0s-.03-.169-.03-.2c-.2.016-.415 0-.614-.015-.614-.046-1.457-.215-1.457-.95 0-.461.353-.6.598-.691.138-.046.276-.108.399-.184a.48.48 0 0 0 .214-.399s.123.077.185.368c.199-.138.444-.2.69-.153.353.092.276.107.506.122-.092.185-.138.246.077.277.475.076.552.015.552.015a.9.9 0 0 1-.261.153c-.46.23-1.089-.2-1.089-.2.046.062 0 .338 0 .338-.583-.214-1.534-.092-1.534.322 0 .645 1.365.706 1.917.721-.015-.138 0-.276.016-.414.03.108.107.2.214.246.123.06.261.092.4.092a.48.48 0 0 1 .06-.43c0-.015.062.338.353.384.139.015.277.03.415.03a1 1 0 0 1 .414.046c.368.123.628.476.598.86a.89.89 0 0 1-.767.889s-.338-.046-.476.184a.8.8 0 0 0-.107.322s.154-.215.26-.245c.108-.031.17 0 .277.184 0 0 .123.06.092.552-.03.199-.015.398.046.582 0 0 .107.369.72.553a.9.9 0 0 1 .123-.322.86.86 0 0 1 .154.429c.107.015.215.015.307 0-.092.215-.123.445-.092.675 0 .107.03.2.107.276.03.077-.322.307-.337.552m-9.034-5.736a.15.15 0 0 0-.108-.138.43.43 0 0 0-.276 0 .6.6 0 0 1 .17-.077.26.26 0 0 1 .152 0c.062 0 .123.046.138.108-.015-.016.016.06-.076.107m1.457 0c.107.077.26.123.399.092.092-.015.168-.077.184-.169 0-.107.168-.307.168-.307-.015.016-.03.016-.03.031a.5.5 0 0 1-.292.092l-.23.016a.25.25 0 0 0-.184.076.37.37 0 0 0-.076.215l.03-.046c0-.016.016-.016.03 0m-.368.307s-.215.276.122.276c.338 0 .123-.276.123-.276s.414.322.123.414h.03c.491 0 .277-.476.277-.476s.383.43.046.598h.015c.03.016.046.077.03.108-.03.046-.552.537-.552.537-.046.092-.138.092-.184 0l-.552-.537c-.015-.046-.015-.092.031-.108h.015c-.337-.168.046-.598.046-.598s-.214.476.276.476h.031c-.291-.092.123-.414.123-.414m.337.874s.276-.276.292-.307l-.184.046s-.031.123-.108.26m-.43 0c-.06-.154-.107-.26-.107-.26l-.184-.047zm.031-.26s.077.352.2.352c.122 0 .2-.353.2-.353h-.047a.3.3 0 0 1-.107-.03h-.123a.2.2 0 0 1-.107.03zm-.429-.844s.23.076.276-.123c.015-.016.03-.03.046-.03.015 0 .03 0 .046.014.03.031.077.062.107.108-.015-.077-.046-.138-.076-.215a.2.2 0 0 0-.2-.076 1 1 0 0 1-.306 0s-.092.015-.215-.108l-.03-.03c-.016 0 .168.429.352.46m1.84-.093c0-.076.046-.137.108-.153a.35.35 0 0 1 .276-.015s0-.03-.138-.077a.44.44 0 0 0-.2 0c-.06.016-.092.062-.107.123 0 0-.046.092.061.123"/><path fill="#FFCB05" d="m18.282 46.84-.613-2.055s.95 1.166.982 1.227c.076.108.184.046.184-.046 0-.107-.108-1.503-.123-1.671 0 0 .69 1.533.736 1.64.046.093.169.093.184-.015.015-.122.291-1.748.291-1.748s.277 1.61.292 1.748.138.123.184.016c.046-.108.736-1.641.736-1.641 0 .168-.123 1.58-.123 1.671 0 .077.108.154.185.046.046-.061.981-1.227.981-1.227l-.613 2.07z"/><path fill="#231F20" d="m20.245 47.807.031-.031v-.46l-.03-.03h-.63l-.03.03v.46l.03.03zm-.475-.353h.337v.2h-.337zM20.997 47.807a.275.275 0 0 0 .353-.184.275.275 0 0 0-.184-.353.3.3 0 0 0-.17 0 .276.276 0 0 0-.352.184.276.276 0 0 0 .184.353.3.3 0 0 0 .169 0m0-.399c.077 0 .123.061.123.123a.12.12 0 0 1-.123.123.12.12 0 0 1-.123-.123c-.015-.062.046-.123.123-.123M18.865 47.807a.275.275 0 0 0 .276-.276.275.275 0 0 0-.276-.277.275.275 0 0 0-.276.277c0 .153.123.276.276.276m0-.4a.12.12 0 0 1 .123.124.12.12 0 0 1-.123.122.12.12 0 0 1-.123-.122c0-.062.062-.123.123-.123"/><path fill="#231F20" d="M22.454 44.28c-.077-.032-.153 0-.2.06l-.98 1.212.106-1.564c0-.138-.046-.184-.107-.2-.077-.015-.169.031-.184.108-.061.138-.72 1.58-.72 1.58l-.277-1.718c-.046-.169-.092-.215-.153-.215-.062 0-.108.046-.154.215l-.276 1.717s-.66-1.441-.72-1.58c-.031-.076-.108-.137-.185-.107-.061.016-.107.062-.107.2l.107 1.58-.981-1.212c-.046-.062-.123-.092-.2-.062-.076.031-.076.108-.061.185.046.122.675 2.361.675 2.361h-.138c-.077-.015-.138.046-.154.108-.015.077.046.138.108.153h.153v.874h-.122c-.077 0-.139.062-.139.123a.12.12 0 0 0 .123.123h4.08c.077 0 .123-.046.138-.123 0-.076-.061-.123-.138-.123h-.123v-.874h.123c.077.016.138-.046.153-.107.016-.077-.046-.138-.107-.154h-.169s.644-2.239.675-2.361c.03-.077.03-.17-.046-.2m-.828 3.695h-3.374v-.874h3.358zm-.03-1.135h-3.314l-.613-2.055s.95 1.166.981 1.227c.077.108.184.046.184-.046 0-.107-.107-1.503-.122-1.672 0 0 .69 1.534.736 1.642.046.092.169.092.184-.016.015-.122.291-1.748.291-1.748s.276 1.61.292 1.748.138.123.184.016c.046-.108.736-1.642.736-1.642 0 .17-.123 1.58-.123 1.672 0 .077.108.154.184.046.046-.061.982-1.227.982-1.227z"/><path fill="#FFCB05" d="m20.245 47.807.031-.03v-.461l-.03-.03h-.63l-.03.03v.46l.03.03zm-.475-.353h.337v.2h-.337zm1.227.353a.275.275 0 0 0 .353-.184.276.276 0 0 0-.184-.353.3.3 0 0 0-.17 0 .276.276 0 0 0-.352.184.276.276 0 0 0 .184.353.3.3 0 0 0 .169 0m0-.399c.076 0 .123.061.123.123a.12.12 0 0 1-.123.122.12.12 0 0 1-.123-.122c-.015-.062.046-.123.123-.123m-2.132.399a.275.275 0 0 0 .276-.276.275.275 0 0 0-.276-.276.275.275 0 0 0-.276.276c0 .153.123.276.276.276m0-.399c.077 0 .123.061.123.123a.12.12 0 0 1-.123.122.12.12 0 0 1-.123-.122c0-.062.046-.123.123-.123m2.745.552h-3.358v-.874h3.358zM24.157 46.84l-.614-2.055s.95 1.166.982 1.227c.076.108.184.046.184-.046s-.108-1.503-.123-1.672c0 0 .69 1.534.736 1.642s.169.092.184-.016c.015-.122.307-1.779.307-1.779s.276 1.61.291 1.749c.016.138.138.122.184.015s.737-1.641.737-1.641c0 .168-.123 1.58-.123 1.672s.107.153.184.046c.046-.062.982-1.227.982-1.227l-.614 2.07z"/><path fill="#231F20" d="m26.12 47.807.03-.031v-.46l-.03-.03h-.63l-.03.03v.46l.03.03zm-.476-.353h.337v.2h-.337zM26.871 47.807a.276.276 0 0 0 .353-.184.276.276 0 0 0-.184-.353.3.3 0 0 0-.169 0 .276.276 0 0 0-.352.184.276.276 0 0 0 .184.353.3.3 0 0 0 .168 0m0-.399c.077 0 .123.061.123.123a.12.12 0 0 1-.123.123.12.12 0 0 1-.122-.123c0-.062.061-.123.122-.123M24.755 47.807a.275.275 0 0 0 .276-.276.275.275 0 0 0-.276-.277.275.275 0 0 0-.276.277c0 .153.122.276.276.276m0-.4a.12.12 0 0 1 .122.124.12.12 0 0 1-.122.122.12.12 0 0 1-.123-.122c-.015-.062.046-.123.123-.123"/><path fill="#231F20" d="M28.344 44.28c-.077-.031-.154 0-.2.06l-.966 1.212.107-1.58c0-.137-.046-.183-.107-.199-.077-.015-.169.03-.184.108l-.721 1.58-.276-1.718c-.046-.17-.092-.215-.154-.215-.06 0-.107.046-.153.215l-.276 1.717s-.66-1.441-.72-1.58c-.031-.076-.108-.137-.185-.107-.061.016-.107.062-.107.2l.092 1.58-.966-1.212c-.046-.062-.123-.092-.2-.062-.076.031-.076.108-.061.184.03.123.675 2.362.675 2.362h-.17c-.076-.015-.137.046-.152.108-.016.076.046.138.107.153h.153v.874h-.107c-.077 0-.138.062-.138.123 0 .077.061.123.123.123h4.064c.077 0 .123-.046.138-.123 0-.077-.061-.123-.138-.123h-.123v-.874h.123c.077.016.138-.046.153-.107.016-.077-.046-.138-.107-.154h-.169s.644-2.239.675-2.362c.046-.06.03-.153-.03-.184m-.844 3.696h-3.374v-.874h3.359zm-.03-1.135h-3.314l-.613-2.056s.95 1.166.982 1.228c.076.107.184.046.184-.046 0-.093-.108-1.504-.123-1.672 0 0 .69 1.533.736 1.64.046.108.169.093.184-.015.015-.122.307-1.779.307-1.779s.276 1.61.291 1.749c.016.138.138.123.184.015.046-.107.736-1.641.736-1.641 0 .169-.122 1.58-.122 1.672s.107.153.184.046c.046-.062.981-1.227.981-1.227z"/><path fill="#FFCB05" d="m26.12 47.807.03-.03v-.461l-.03-.03h-.629l-.03.03v.46l.03.03zm-.476-.353h.338v.2h-.338zm1.227.353a.275.275 0 0 0 .353-.184.275.275 0 0 0-.184-.353.3.3 0 0 0-.169 0 .276.276 0 0 0-.352.184.276.276 0 0 0 .184.353.3.3 0 0 0 .168 0m0-.399c.077 0 .123.061.123.123a.12.12 0 0 1-.123.122.12.12 0 0 1-.122-.122c0-.062.061-.123.122-.123m-2.131.399a.275.275 0 0 0 .276-.276.275.275 0 0 0-.276-.276.275.275 0 0 0-.277.276c0 .153.123.276.276.276q.024 0 0 0m0-.399c.076 0 .122.061.122.123a.13.13 0 0 1-.122.122.12.12 0 0 1-.123-.122c0-.062.061-.123.122-.123m2.745.552h-3.359v-.874h3.359zM21.212 51.672l-.614-2.07s.951 1.165.982 1.226c.076.108.184.046.184-.046 0-.107-.108-1.503-.123-1.671 0 0 .69 1.533.736 1.64.046.093.169.093.184-.015.016-.122.292-1.748.292-1.748s.276 1.61.291 1.748c.016.138.138.123.184.016.046-.108.736-1.642.736-1.642 0 .17-.122 1.58-.122 1.672 0 .077.107.154.184.046.046-.061.981-1.227.981-1.227l-.613 2.07z"/><path fill="#231F20" d="m23.175 52.638.03-.03v-.46l-.03-.031h-.63l-.03.03v.46l.03.031zm-.476-.368h.338v.2h-.338zM23.927 52.638a.275.275 0 0 0 .352-.184.275.275 0 0 0-.184-.353.3.3 0 0 0-.168 0 .275.275 0 0 0-.353.184.276.276 0 0 0 .184.353.3.3 0 0 0 .169 0m0-.383c.076 0 .122.06.122.122a.12.12 0 0 1-.122.123.12.12 0 0 1-.123-.123c0-.061.061-.123.123-.123M21.81 52.638a.275.275 0 0 0 .276-.276.275.275 0 0 0-.276-.276.275.275 0 0 0-.276.276c0 .153.122.276.276.276m0-.383a.12.12 0 0 1 .123.122.12.12 0 0 1-.123.123.12.12 0 0 1-.123-.123.12.12 0 0 1 .123-.122"/><path fill="#231F20" d="M25.399 49.126c-.077-.031-.154 0-.2.06l-.981 1.213.092-1.58c0-.138-.046-.184-.108-.2-.076-.015-.169.031-.184.108-.061.138-.72 1.58-.72 1.58l-.277-1.718c-.046-.169-.092-.215-.153-.215s-.107.046-.153.215l-.276 1.718s-.66-1.442-.721-1.58c-.031-.077-.108-.138-.184-.108-.062.016-.108.062-.108.2l.092 1.58-.966-1.212c-.046-.061-.123-.092-.2-.061-.076.03-.076.107-.06.184.03.122.674 2.362.674 2.362h-.153c-.077-.016-.138.046-.154.107-.015.077.046.138.108.153h.153v.874h-.123c-.076 0-.138.062-.138.123 0 .077.062.123.123.123h4.08c.077 0 .123-.046.138-.123 0-.076-.061-.123-.138-.123h-.123v-.874h.123c.077.016.138-.046.153-.107.015-.077-.046-.138-.107-.153h-.169s.644-2.24.675-2.362c.061-.092.046-.17-.015-.184m-.844 3.68h-3.359v-.874h3.359zm-.03-1.134h-3.313l-.614-2.071s.95 1.166.982 1.227c.076.107.184.046.184-.046 0-.107-.108-1.503-.123-1.672 0 0 .69 1.534.736 1.641.046.092.169.092.184-.015.015-.123.292-1.748.292-1.748s.276 1.61.291 1.748.138.123.184.015c.046-.107.736-1.64.736-1.64 0 .168-.122 1.579-.122 1.671 0 .077.107.153.184.046.046-.061.981-1.227.981-1.227z"/><path fill="#FFCB05" d="m23.175 52.638.03-.03v-.46l-.03-.031h-.629l-.03.03v.46l.03.031zm-.475-.368h.337v.2H22.7zm1.227.368a.275.275 0 0 0 .352-.184.276.276 0 0 0-.184-.353.3.3 0 0 0-.168 0 .276.276 0 0 0-.353.184.275.275 0 0 0 .184.353.3.3 0 0 0 .169 0m0-.399c.076 0 .122.062.122.123a.12.12 0 0 1-.122.123.12.12 0 0 1-.123-.123c0-.061.061-.123.123-.123m-2.117.4a.275.275 0 0 0 .276-.277.275.275 0 0 0-.276-.276.275.275 0 0 0-.276.276c-.015.153.107.276.276.276m0-.4a.12.12 0 0 1 .123.123.12.12 0 0 1-.123.123.12.12 0 0 1-.123-.123c-.015-.061.046-.123.123-.123m2.73.553h-3.359v-.86h3.359z"/></svg>