<svg xmlns="http://www.w3.org/2000/svg" width="154" height="100" fill="none"><g clip-path="url(#a)"><mask id="b" width="179" height="55" x="-10" y="27" maskUnits="userSpaceOnUse" style="mask-type:luminance"><path fill="#fff" d="M168.494 27.903H-9.555v53.324h178.049z"/></mask><g mask="url(#b)"><path fill="#000" d="M34.042 59.16s.184-.163.31-.246l.573-.42c.408-.303.61-.248.61.11 0 .403-.242.696-.303.766.11-.061.276-.088.276.243 0 .248.026.452.098.484l-.347.265c-.05-.06-.05-.175-.05-.274 0-.392-.072-.509-.369-.287l-.473.358v.876l-.325.244zm.304.11c.008.235.014.48.017.652l.535-.405c.203-.149.313-.352.313-.573 0-.27-.148-.21-.318-.08z"/></g><mask id="c" width="179" height="55" x="-10" y="27" maskUnits="userSpaceOnUse" style="mask-type:luminance"><path fill="#fff" d="M168.494 27.903H-9.555v53.324h178.049z"/></mask><g mask="url(#c)"><path fill="#000" d="m30.656 63.44-.4.207v-2.2s.154-.098.325-.182l.65-.358c.365-.193.596-.149.596.22 0 .22-.104.436-.286.623.248-.068.38.072.38.364 0 .347-.22.738-.744 1.025zm-.048-1.875.016.602.56-.312a.55.55 0 0 0 .297-.463c0-.224-.11-.243-.297-.144zm.021.879.018.669.585-.32c.21-.117.337-.31.337-.53 0-.216-.128-.27-.337-.155z"/></g><mask id="d" width="179" height="55" x="-10" y="27" maskUnits="userSpaceOnUse" style="mask-type:luminance"><path fill="#fff" d="M168.494 27.903H-9.555v53.324h178.049z"/></mask><g mask="url(#d)"><path fill="#000" d="m28.536 63.896-.174.664-.41.188.734-2.564.369-.17.948 1.807-.374.171-.227-.489zm.749-.642-.366-.787-.29 1.086z"/></g><mask id="e" width="179" height="55" x="-10" y="27" maskUnits="userSpaceOnUse" style="mask-type:luminance"><path fill="#fff" d="M168.494 27.903H-9.555v53.324h178.049z"/></mask><g mask="url(#e)"><path fill="#000" d="m18 69.615-.22.585-.425-.033.898-2.183.441.033.9 2.304-.435-.026-.21-.609a55 55 0 0 1-.95-.071m.826-.28-.358-.982-.354.933z"/></g><mask id="f" width="179" height="55" x="-10" y="27" maskUnits="userSpaceOnUse" style="mask-type:luminance"><path fill="#fff" d="M168.494 27.903H-9.555v53.324h178.049z"/></mask><g mask="url(#f)"><path fill="#000" d="m12.109 64.566-.199.51-.396-.145.831-1.89.369.138.8 2.397-.39-.104-.172-.571zm.737-.015-.316-1.048-.316.805z"/></g><mask id="g" width="179" height="55" x="-10" y="27" maskUnits="userSpaceOnUse" style="mask-type:luminance"><path fill="#fff" d="M168.494 27.903H-9.555v53.324h178.049z"/></mask><g mask="url(#g)"><path fill="#000" d="M33.317 64.518c.595-.386.501-.36.501-1.043v-.498a34 34 0 0 1-2.838 1.67v1.376s1.323-.856 2.337-1.505m1.438-2.175v1.226c0 .937-.082 1.124-.606 1.478-.827.551-2.12 1.443-4.106 2.611v-2.54a27.4 27.4 0 0 1-3.728 1.476l-.01 3.722c-1.763.772-4.26 1.284-6.898 1.284-2.642 0-5.146-.512-6.91-1.284v-3.723a27 27 0 0 1-3.724-1.474v2.54c-1.988-1.17-3.284-2.062-4.111-2.612-.523-.354-.606-.541-.606-1.478v-1.23c-1.4-.977-2.66-2-3.777-2.976v-5.407h4.255c1.727 2.701 2.992 4.636 3.659 5.716 2.364 1.35 4.9 2.43 7.358 3.109.751.203 1.484.374 2.2.501v3.362c.541.039 2.772.039 3.313 0v-3.362c.71-.126 1.448-.298 2.193-.501 2.459-.679 5.047-1.758 7.418-3.11 0 0 1.905-3.052 3.6-5.715l4.255.004.005 5.403a44 44 0 0 1-3.78 2.98m-29.761.63v.502c0 .684-.088.657.507 1.043l2.332 1.505v-1.377a34 34 0 0 1-2.84-1.672m32.617-7.606c-3.462 4.184-10.38 7.613-15.344 8.627L25.44 65.9s3.833-1.19 6.736-2.985c4.132-2.56 5.435-4.09 5.435-4.09zm-5.105 3.168c.767-.506 1.36-.923 1.36-.923l-.053-1.197zm-26.227-.097c-.368-.602-.74-1.163-1.28-2.024v1.197c.426.32 1.28.827 1.28.827m-5.062-3.06-.01 3.579c3.5 2.833 7.332 5.616 12.164 6.944l3.18-1.906c-4.966-1.015-11.874-4.437-15.334-8.616m12.231 11.507v2.775c1.598.693 3.687 1.002 5.96 1.002s4.36-.31 5.957-1.002v-2.774a23.1 23.1 0 0 1-5.957.772c-3.041.01-5.953-.77-5.954-.772z"/></g><mask id="h" width="179" height="55" x="-10" y="27" maskUnits="userSpaceOnUse" style="mask-type:luminance"><path fill="#fff" d="M168.494 27.903H-9.555v53.324h178.049z"/></mask><g mask="url(#h)"><path fill="#000" d="M19.474 62.406C11.358 60.238 4.593 53.273 4.593 46V28.4h29.76V46c.001 7.273-6.764 14.239-14.88 16.406M5.544 29.351v16.671c0 6.434 5.815 13 13.93 15.432 8.091-2.433 13.908-8.998 13.908-15.432V29.351z"/></g><mask id="i" width="179" height="55" x="-10" y="27" maskUnits="userSpaceOnUse" style="mask-type:luminance"><path fill="#fff" d="M168.494 27.903H-9.555v53.324h178.049z"/></mask><g mask="url(#i)"><path fill="#000" d="m10.978 64.699.38.148v-2.17l-.38-.167z"/></g><mask id="j" width="179" height="55" x="-10" y="27" maskUnits="userSpaceOnUse" style="mask-type:luminance"><path fill="#fff" d="M168.494 27.903H-9.555v53.324h178.049z"/></mask><g mask="url(#j)"><path fill="#000" fill-rule="evenodd" d="m9.083 61.971.585.28v1.87l.373.18v-1.84l.618.254v-.331l-1.576-.749z" clip-rule="evenodd"/></g><mask id="k" width="179" height="55" x="-10" y="27" maskUnits="userSpaceOnUse" style="mask-type:luminance"><path fill="#fff" d="M168.494 27.903H-9.555v53.324h178.049z"/></mask><g mask="url(#k)"><path fill="#000" d="m8.42 62.929-.01-.006-.838-2.104-.38-.221v2.199l.34.204v-1.62l.013.005.837 2.107.348.197v-2.227l-.31-.176z"/></g><mask id="l" width="179" height="55" x="-10" y="27" maskUnits="userSpaceOnUse" style="mask-type:luminance"><path fill="#fff" d="M168.494 27.903H-9.555v53.324h178.049z"/></mask><g mask="url(#l)"><path fill="#000" fill-rule="evenodd" d="m5.813 60.08.998.64v-.331l-1.323-.843v2.2l1.34.858v-.335l-1.015-.651v-.646l.921.59v-.312l-.92-.59z" clip-rule="evenodd"/></g><mask id="m" width="179" height="55" x="-10" y="27" maskUnits="userSpaceOnUse" style="mask-type:luminance"><path fill="#fff" d="M168.494 27.903H-9.555v53.324h178.049z"/></mask><g mask="url(#m)"><path fill="#000" d="m4.834 61.282.347.225v-2.16l-.347-.226z"/></g><mask id="n" width="179" height="55" x="-10" y="27" maskUnits="userSpaceOnUse" style="mask-type:luminance"><path fill="#fff" d="M168.494 27.903H-9.555v53.324h178.049z"/></mask><g mask="url(#n)"><path fill="#000" d="M4.503 59.49a1.56 1.56 0 0 0-.695-1.18c-.484-.303-.777.038-.777.672 0 .63.293 1.329.777 1.633.398.243.672.055.695-.463l-.276-.17c-.021.308-.165.477-.418.318-.348-.214-.497-.722-.497-1.14 0-.425.149-.75.496-.535.243.144.364.409.408.69z"/></g><mask id="o" width="179" height="55" x="-10" y="27" maskUnits="userSpaceOnUse" style="mask-type:luminance"><path fill="#fff" d="M168.494 27.903H-9.555v53.324h178.049z"/></mask><g mask="url(#o)"><path fill="#000" d="M1.582 58.074c.006.545.292.987.64 1.229.303.21.606.226.606-.264 0-.232-.094-.547-.299-.767-.074-.093-.412-.452-.435-.48a.61.61 0 0 1-.18-.413c-.001-.22.153-.176.273-.088a.73.73 0 0 1 .33.618l.265.181a1.4 1.4 0 0 0-.584-1.108c-.274-.193-.556-.176-.556.265 0 .22.077.508.335.788.21.226.354.37.458.497a.55.55 0 0 1 .127.358c0 .17-.089.276-.325.111a.89.89 0 0 1-.386-.74z"/></g><mask id="p" width="179" height="55" x="-10" y="27" maskUnits="userSpaceOnUse" style="mask-type:luminance"><path fill="#fff" d="M168.494 27.903H-9.555v53.324h178.049z"/></mask><g mask="url(#p)"><path fill="#000" d="M21.753 68.657c-.055-.485-.474-.74-1.003-.711-.694.039-1.102.595-1.092 1.241.012.64.436 1.151 1.13 1.106.568-.031.954-.422.982-.962l-.397.022c-.027.325-.225.6-.59.622-.496.032-.71-.386-.716-.81-.011-.43.193-.87.69-.899.34-.022.516.16.589.414z"/></g><mask id="q" width="179" height="55" x="-10" y="27" maskUnits="userSpaceOnUse" style="mask-type:luminance"><path fill="#fff" d="M168.494 27.903H-9.555v53.324h178.049z"/></mask><g mask="url(#q)"><path fill="#000" fill-rule="evenodd" d="m36.137 57.858.872-.782v-.314l-1.153 1.03v2.117l1.169-1.041v-.327l-.888.795v-.623l.804-.716v-.303l-.804.722z" clip-rule="evenodd"/></g><mask id="r" width="179" height="55" x="-10" y="27" maskUnits="userSpaceOnUse" style="mask-type:luminance"><path fill="#fff" d="M168.494 27.903H-9.555v53.324h178.049z"/></mask><g mask="url(#r)"><path fill="#000" fill-rule="evenodd" d="m27.716 64.5-1.158.42v-1.87l-.396.162v2.198l1.554-.573z" clip-rule="evenodd"/></g><mask id="s" width="179" height="55" x="-10" y="27" maskUnits="userSpaceOnUse" style="mask-type:luminance"><path fill="#fff" d="M168.494 27.903H-9.555v53.324h178.049z"/></mask><g mask="url(#s)"><path fill="#000" fill-rule="evenodd" d="M32.114 61.755c-.104-.535.121-1.256.64-1.735.522-.48.92-.33 1.024.199 0 0 .222.873-.644 1.73-.516.44-.92.331-1.02-.194m1.361-1.256c-.072-.354-.292-.562-.667-.216a1.3 1.3 0 0 0-.391 1.185c.066.355.277.545.662.221.59-.654.396-1.19.396-1.19" clip-rule="evenodd"/></g><mask id="t" width="179" height="55" x="-10" y="27" maskUnits="userSpaceOnUse" style="mask-type:luminance"><path fill="#fff" d="M168.494 27.903H-9.555v53.324h178.049z"/></mask><g mask="url(#t)"><path fill="#000" fill-rule="evenodd" d="M30.087 49.123v3.533c-.51-1.528-1.183-2.676-2.053-3.535zm-6.406 0c.798 2.299 2.323 3.824 5.167 4.77H10.077c2.858-.947 4.39-2.471 5.188-4.77zm-12.787 0c-.866.864-1.54 2.012-2.057 3.533v-3.533z" clip-rule="evenodd"/></g><mask id="u" width="179" height="55" x="-10" y="27" maskUnits="userSpaceOnUse" style="mask-type:luminance"><path fill="#fff" d="M168.494 27.903H-9.555v53.324h178.049z"/></mask><g mask="url(#u)"><path fill="#000" fill-rule="evenodd" d="M19.472 46.71c.994 0 .906-.375 1.591-.375h2.874v-5.683l-.398-.266v5.483h-2.233c-1.283 0-.95.376-1.834.376-.906 0-.554-.376-1.835-.376h-2.233v-5.483l-.399.266v5.682h2.875c.664 0 .575.376 1.592.376m.354-1.26c.442-.265.796-.287 1.46-.287h1.547v-4.776c-.774 0-.774-.199-1.659-.199-.84 0-1.348.553-1.348 1.105zm-.708 0c-.463-.265-.795-.287-1.458-.287h-1.548v-4.776c.774 0 .774-.199 1.658-.199.84 0 1.348.553 1.348 1.105zm-7.387-.863h.48c0-.159-.112-.274-.243-.274-.133 0-.237.116-.237.26zm.48.42h-.48v.039c0 .142.104.258.237.258.13 0 .243-.116.243-.258zm1.848.399h-1.487a.7.7 0 0 1-.596.331.67.67 0 0 1-.686-.663v-.067h-.11c-.133 0-.222-.088-.222-.22 0-.11.089-.2.221-.2h.111v-.065c0-.355.31-.662.686-.662.265 0 .509.175.596.418l1.499-.02zm10.8-1.149h1.953c.51 0 .842.087.842.508 0 .485-.266.641-.73.641H24.86zm-13.128-2.786h.48c0-.16-.112-.275-.243-.275-.133 0-.237.116-.237.259zm.48.419h-.48v.038c0 .143.104.259.237.259.13 0 .243-.116.243-.258zm1.848.399h-1.487a.7.7 0 0 1-.596.33.67.67 0 0 1-.686-.661v-.068h-.11c-.133 0-.222-.088-.222-.22 0-.111.089-.199.221-.199h.111v-.068c0-.353.31-.662.686-.662.265 0 .509.177.596.419l1.499-.02zm10.8-1.149 1.953-.001c.51 0 .842.088.842.508 0 .486-.266.642-.73.642H24.86zM8.84 49.123v-15.24c1.24 3.649 3.384 5.152 6.943 5.705-.552-3.56-2.034-5.705-5.703-6.944h18.77c-3.648 1.24-5.128 3.384-5.682 6.944 3.56-.553 5.706-2.056 6.922-5.705v15.24h-2.055c-1.207-1.195-2.799-1.83-4.867-2.152.122.781.29 1.496.516 2.15l-8.416.001c.226-.655.393-1.37.515-2.151-2.076.311-3.67.951-4.885 2.156z" clip-rule="evenodd"/></g><mask id="v" width="179" height="55" x="-10" y="27" maskUnits="userSpaceOnUse" style="mask-type:luminance"><path fill="#fff" d="M168.494 27.903H-9.555v53.324h178.049z"/></mask><g mask="url(#v)"><path fill="#000" fill-rule="evenodd" d="M44.752 70.74c.168-.018.32-.046.432-.19.085-.11.242-.426.468-.96l1.524-3.585h.239l1.817 4.135c.12.275.21.428.267.481.096.084.268.105.388.122v.267h-1.985v-.27c.143-.014.32-.011.454-.068.023-.011.048-.038.048-.133 0-.11-.085-.34-.127-.44l-.283-.649h-1.789q-.264.666-.318.818a.7.7 0 0 0-.05.222c0 .097.037.153.106.186.09.04.286.054.389.063v.271h-1.58zm2.354-3.451-.715 1.72h1.438z" clip-rule="evenodd"/></g><mask id="w" width="179" height="55" x="-10" y="27" maskUnits="userSpaceOnUse" style="mask-type:luminance"><path fill="#fff" d="M168.494 27.903H-9.555v53.324h178.049z"/></mask><g mask="url(#w)"><path fill="#000" d="M55.039 66.366c-.137.009-.455.026-.563.127-.055.048-.098.183-.098.452v2.307q0 .56.147.853c.176.355.511.537 1.03.537 1.083 0 1.282-.633 1.282-1.54v-1.877c0-.398-.05-.611-.12-.685-.124-.132-.395-.16-.558-.174v-.275h1.818v.275c-.157.016-.454.046-.565.184-.067.079-.11.293-.11.675v1.878q.002.758-.239 1.2c-.298.547-.865.81-1.672.81-.797 0-1.357-.26-1.658-.799q-.238-.432-.237-1.114v-2.255c0-.267-.044-.4-.098-.45-.108-.099-.42-.121-.555-.13v-.277h2.196z"/></g><mask id="x" width="179" height="55" x="-10" y="27" maskUnits="userSpaceOnUse" style="mask-type:luminance"><path fill="#fff" d="M168.494 27.903H-9.555v53.324h178.049z"/></mask><g mask="url(#x)"><path fill="#000" d="M61.868 70.212q.408.48 1.012.479a.8.8 0 0 0 .546-.201c.15-.129.228-.311.228-.555q.001-.321-.232-.56c-.251-.25-1.017-.695-1.301-.87a2.3 2.3 0 0 1-.459-.369 1.17 1.17 0 0 1-.326-.803c0-.817.601-1.347 1.399-1.347q.263.001.615.128c.24.082.358.116.374.116.081 0 .114-.021.125-.037.048-.058.064-.134.08-.207h.272l.175 1.685h-.311c-.092-.36-.233-.757-.554-.983q-.372-.264-.725-.262c-.35 0-.662.207-.662.585q.001.254.152.427c.107.125.273.26.508.405l.635.39c.399.247.688.476.856.69q.255.332.257.78 0 .601-.456 1.003c-.3.268-.683.399-1.141.399q-.35 0-.726-.13a3 3 0 0 0-.391-.123c-.07 0-.096.02-.11.04-.035.068-.045.129-.056.204h-.287l-.235-1.685h.302c.107.283.236.567.436.801"/></g><mask id="y" width="179" height="55" x="-10" y="27" maskUnits="userSpaceOnUse" style="mask-type:luminance"><path fill="#fff" d="M168.494 27.903H-9.555v53.324h178.049z"/></mask><g mask="url(#y)"><path fill="#000" d="m72.105 66.088.043 1.376h-.308c-.044-.2-.135-.613-.315-.77-.106-.096-.352-.157-.772-.157h-.325v3.62c0 .284.047.417.102.462.118.088.46.11.6.121v.273h-2.252v-.273c.6-.045.683-.049.683-.668V66.54h-.327c-.4 0-.648.058-.772.156-.191.154-.27.562-.31.77h-.313l.046-1.376z"/></g><mask id="z" width="179" height="55" x="-10" y="27" maskUnits="userSpaceOnUse" style="mask-type:luminance"><path fill="#fff" d="M168.494 27.903H-9.555v53.324h178.049z"/></mask><g mask="url(#z)"><path fill="#000" fill-rule="evenodd" d="M75.654 70.598c.048-.059.085-.222.085-.528v-3.125c0-.254-.041-.391-.095-.445-.097-.103-.395-.125-.525-.136v-.276h2.071q.632 0 1.066.165c.554.21.836.604.836 1.172 0 .376-.123.676-.378.886-.22.182-.51.306-.86.374l1.406 1.73c.2.244.337.295.644.325v.27H78.63l-1.718-2.217-.292.013v1.35c0 .268.042.406.094.454.11.094.421.117.557.13v.27h-2.153v-.27c.121-.013.448-.038.535-.142m2.505-3.18c0-.395-.158-.651-.47-.79-.17-.075-.403-.117-.7-.117-.212 0-.312.017-.337.034-.008.005-.031.034-.031.141v1.702q.71-.033 1.01-.154c.355-.144.528-.41.528-.817" clip-rule="evenodd"/></g><mask id="A" width="179" height="55" x="-10" y="27" maskUnits="userSpaceOnUse" style="mask-type:luminance"><path fill="#fff" d="M168.494 27.903H-9.555v53.324h178.049z"/></mask><g mask="url(#A)"><path fill="#000" fill-rule="evenodd" d="M82.554 70.74c.168-.018.32-.046.432-.19.085-.11.242-.426.468-.96l1.524-3.585h.238l1.818 4.135c.12.275.21.428.267.481.096.084.268.105.388.122v.267h-1.985v-.27c.143-.014.32-.011.455-.068.021-.011.047-.038.047-.133 0-.11-.085-.34-.127-.44l-.281-.65h-1.789q-.264.666-.318.817a.7.7 0 0 0-.049.223c0 .097.036.153.105.186.09.04.286.054.389.063v.271h-1.58v-.269zm2.355-3.451-.714 1.72h1.438z" clip-rule="evenodd"/></g><mask id="B" width="179" height="55" x="-10" y="27" maskUnits="userSpaceOnUse" style="mask-type:luminance"><path fill="#fff" d="M168.494 27.903H-9.555v53.324h178.049z"/></mask><g mask="url(#B)"><path fill="#000" d="M91.168 70.609c.05-.043.093-.175.093-.455v-3.21c0-.257-.04-.394-.095-.448-.1-.104-.407-.121-.539-.13v-.277h2.189v.278c-.148.007-.44.02-.564.119-.061.049-.107.17-.107.41v3.466c0 .074.012.122.03.153.009.017.037.038.121.048l.166.016.336.003c.642 0 1.059-.054 1.268-.152.296-.138.516-.561.641-.818h.326l-.394 1.4h-4.013v-.27c.131-.016.437-.045.541-.133"/></g><mask id="C" width="179" height="55" x="-10" y="27" maskUnits="userSpaceOnUse" style="mask-type:luminance"><path fill="#fff" d="M168.494 27.903H-9.555v53.324h178.049z"/></mask><g mask="url(#C)"><path fill="#000" d="M98.557 70.619c.055-.044.102-.178.102-.463v-3.21c0-.267-.047-.405-.105-.455-.117-.104-.455-.116-.598-.123v-.277h2.284v.277c-.142.008-.48.02-.596.123-.059.05-.105.188-.105.455v3.21c0 .285.046.42.101.463.117.087.462.11.6.12v.274h-2.284v-.274c.14-.011.482-.033.601-.12"/></g><mask id="D" width="179" height="55" x="-10" y="27" maskUnits="userSpaceOnUse" style="mask-type:luminance"><path fill="#fff" d="M168.494 27.903H-9.555v53.324h178.049z"/></mask><g mask="url(#D)"><path fill="#000" fill-rule="evenodd" d="M103.236 70.74c.169-.018.322-.046.432-.19.086-.11.242-.426.47-.96l1.523-3.585h.239l1.816 4.135c.122.275.211.428.268.481.096.084.267.105.388.122v.267h-1.985v-.27c.143-.014.321-.011.454-.068.023-.011.047-.038.047-.133 0-.11-.084-.34-.126-.44l-.281-.65h-1.79q-.263.666-.317.817a.7.7 0 0 0-.049.223c0 .097.035.153.106.186.09.04.285.054.388.063v.271h-1.58v-.269zm2.355-3.451-.715 1.72h1.438z" clip-rule="evenodd"/></g><mask id="E" width="179" height="55" x="-10" y="27" maskUnits="userSpaceOnUse" style="mask-type:luminance"><path fill="#fff" d="M168.494 27.903H-9.555v53.324h178.049z"/></mask><g mask="url(#E)"><path fill="#000" fill-rule="evenodd" d="M124.982 34.639c.01 1.016-.829 1.902-2.034 2.26l2.618 3.427c.264.303.509.66.865.66h.057v.244h-2.033l-3.146-4.143h-.583v2.957c0 .602.244.942.828.942h.057v.244h-3.24v-.244h.095c.564 0 .809-.34.809-.942v-6.611c0-.584-.245-.942-.809-.942h-.095v-.244h2.355c3.464-.188 4.241.964 4.256 2.392m-4.257-1.662v3.544h.754c1.092 0 1.959-.866 1.959-1.882 0-1.018-.867-1.809-1.959-1.809-.001 0-.354-.042-.754.147" clip-rule="evenodd"/></g><mask id="F" width="179" height="55" x="-10" y="27" maskUnits="userSpaceOnUse" style="mask-type:luminance"><path fill="#fff" d="M168.494 27.903H-9.555v53.324h178.049z"/></mask><g mask="url(#F)"><path fill="#000" d="M49.807 41.192v-.32h-.51c-.546 0-.998-.509-.998-1.072v-9.042h2.09c.867 0 1.394.64 1.45 1.902h.281l-.11-2.71c0-.039-.056-.095-.075-.095h-9.172s-.074.056-.074.095l-.113 2.71h.301c.057-1.262.584-1.902 1.45-1.902h2.09v9.04c0 .564-.453 1.073-1.018 1.073h-.526v.32h4.934"/></g><mask id="G" width="179" height="55" x="-10" y="27" maskUnits="userSpaceOnUse" style="mask-type:luminance"><path fill="#fff" d="M168.494 27.903H-9.555v53.324h178.049z"/></mask><g mask="url(#G)"><path fill="#000" d="M84.356 30.967c0-.548-.32-.792-.754-.792h-.433v-.34h3.258v.34h-.377c-.489 0-.772.244-.772.791v6.592c0 2.127-1.637 3.767-4.33 3.767-2.695 0-4.463-1.676-4.463-3.956v-6.14c0-.546-.434-1.053-1.018-1.053h-.132v-.34h4.182v.34h-.151c-.565 0-1.017.509-1.017 1.054v6.197c0 1.657 1.035 2.994 2.769 2.994 1.657 0 3.239-.999 3.239-2.862z"/></g><mask id="H" width="179" height="55" x="-10" y="27" maskUnits="userSpaceOnUse" style="mask-type:luminance"><path fill="#fff" d="M168.494 27.903H-9.555v53.324h178.049z"/></mask><g mask="url(#H)"><path fill="#000" d="M59.148 36.918h-3.843v3.089c0 .602.246.941.81.941h.057v.245h-3.22v-.245h.056c.62 0 .81-.339.81-.941v-6.613c0-.583-.19-.941-.81-.941h-.056v-.244h3.22v.245h-.056c-.565 0-.81.358-.81.941v2.883h3.842v-2.884c0-.583-.245-.941-.85-.941h-.056v-.244h3.259v.245h-.095c-.584 0-.808.358-.808.941v6.612c0 .602.224.941.808.941h.095v.245h-3.259v-.245h.056c.605 0 .85-.339.85-.941z"/></g><mask id="I" width="179" height="55" x="-10" y="27" maskUnits="userSpaceOnUse" style="mask-type:luminance"><path fill="#fff" d="M168.494 27.903H-9.555v53.324h178.049z"/></mask><g mask="url(#I)"><path fill="#000" d="M64.91 36.767v3.314c0 .264.207.452.452.452h2.262c1.242 0 1.807-.735 2.109-1.751h.264l-.754 2.412h-6.687v-.246h.057c.584 0 .828-.338.828-.943v-6.608c0-.584-.244-.943-.828-.943h-.057v-.245h6.479l.15 2.053h-.225c-.058-.941-.584-1.449-1.262-1.449H64.91v3.276h2.6c.432 0 .64-.47.64-.848v-.056h.265v2.486h-.265v-.058c0-.414-.208-.846-.64-.846z"/></g><mask id="J" width="179" height="55" x="-10" y="27" maskUnits="userSpaceOnUse" style="mask-type:luminance"><path fill="#fff" d="M168.494 27.903H-9.555v53.324h178.049z"/></mask><g mask="url(#J)"><path fill="#000" d="M99.252 40.007c0 .602.244.941.828.941h.038v.245h-3.201v-.245h.037c.622 0 .866-.339.866-.941v-6.613c0-.583-.244-.941-.866-.941h-.037v-.244h3.201v.245h-.038c-.584 0-.828.358-.828.941z"/></g><mask id="K" width="179" height="55" x="-10" y="27" maskUnits="userSpaceOnUse" style="mask-type:luminance"><path fill="#fff" d="M168.494 27.903H-9.555v53.324h178.049z"/></mask><g mask="url(#K)"><path fill="#000" d="m105.712 41.135 3.108-7.89c.245-.51.471-.792.828-.792v-.244h-2.071v.245h.131c.264 0 .547.264.433.603l-2.218 5.537-2.429-5.537c-.133-.339.169-.603.395-.603h.302v-.245h-3.051v.245c.358 0 .604.264.829.753l3.428 7.93c.073.094.243.132.318-.002"/></g><mask id="L" width="179" height="55" x="-10" y="27" maskUnits="userSpaceOnUse" style="mask-type:luminance"><path fill="#fff" d="M168.494 27.903H-9.555v53.324h178.049z"/></mask><g mask="url(#L)"><path fill="#000" d="M113.005 36.767v3.314c0 .264.207.452.452.452h2.261c1.224 0 1.788-.735 2.109-1.751h.265l-.772 2.412h-6.668v-.246h.058c.583 0 .809-.338.809-.943v-6.608c0-.584-.226-.943-.809-.943h-.058v-.245h6.459l.171 2.053h-.226c-.056-.941-.602-1.449-1.262-1.449h-2.787v3.276h2.58c.452 0 .66-.47.66-.848v-.056h.263v2.486h-.263v-.058c0-.414-.209-.846-.66-.846z"/></g><mask id="M" width="179" height="55" x="-10" y="27" maskUnits="userSpaceOnUse" style="mask-type:luminance"><path fill="#fff" d="M168.494 27.903H-9.555v53.324h178.049z"/></mask><g mask="url(#M)"><path fill="#000" d="M127.426 38.141h-.264v3.05h.264c.114-.395.452-.583.772-.395 1.093.584 2.449.679 3.389-.056.904-.66 1.299-1.96.735-2.976-.528-.998-1.939-1.772-3.032-2.335-1.262-.715-1.3-1.922-.34-2.542 1.168-.678 2.901.509 2.901 2.221h.225V32.21h-.225c-.076.431-.395.47-.849.282-1.243-.564-2.26-.547-3.126.244-.979.904-1.205 2.731.395 3.711.961.603 2.262 1.281 2.731 1.921.434.584.51 1.28-.319 1.997-1.204 1.055-3.257-.227-3.257-2.224"/></g><mask id="N" width="179" height="55" x="-10" y="27" maskUnits="userSpaceOnUse" style="mask-type:luminance"><path fill="#fff" d="M168.494 27.903H-9.555v53.324h178.049z"/></mask><g mask="url(#N)"><path fill="#000" d="M89.064 32.21h-2.297v.244c.377 0 .621.037.81.264.207.226.339.396.602.697v6.855c0 .434-.395.66-.79.66h-.096v.263H89.8v-.264h-.056c-.414 0-.83-.225-.83-.66v-5.952l5.933 6.874h.188v-8.059c0-.453.414-.678.809-.678h.058v-.245h-2.487v.245h.075c.396 0 .791.224.791.678v5.122z"/></g><mask id="O" width="179" height="55" x="-10" y="27" maskUnits="userSpaceOnUse" style="mask-type:luminance"><path fill="#fff" d="M168.494 27.903H-9.555v53.324h178.049z"/></mask><g mask="url(#O)"><path fill="#000" d="M135.813 40.007c0 .602.244.941.829.941h.056v.245h-3.241v-.245h.095c.583 0 .809-.339.809-.941v-6.613c0-.583-.226-.941-.809-.941h-.095v-.244h3.241v.245h-.056c-.585 0-.829.358-.829.941z"/></g><mask id="P" width="179" height="55" x="-10" y="27" maskUnits="userSpaceOnUse" style="mask-type:luminance"><path fill="#fff" d="M168.494 27.903H-9.555v53.324h178.049z"/></mask><g mask="url(#P)"><path fill="#000" d="m149.615 37.37-2.75-4.201c-.281-.526-.583-.713-.941-.713v-.266h3.183v.266h-.207c-.265 0-.51.318-.34.658l2.261 3.447 2.053-3.503c.15-.245-.039-.602-.283-.602h-.222v-.266h2.203v.266c-.395 0-.754.263-1.017.675l-2.448 4.182v2.712c0 .622.244.922.848.922h.056v.245h-3.278v-.245h.058c.603 0 .828-.339.828-.96V37.37z"/></g><mask id="Q" width="179" height="55" x="-10" y="27" maskUnits="userSpaceOnUse" style="mask-type:luminance"><path fill="#fff" d="M168.494 27.903H-9.555v53.324h178.049z"/></mask><g mask="url(#Q)"><path fill="#000" d="M142.246 40.063c0 .603.245.885.828.885h.038v.245h-3.202v-.245h.039c.582 0 .864-.282.864-.885v-7.176h-1.807c-.678 0-1.074.471-1.131 1.45h-.207l.075-2.071c0-.02.037-.056.056-.056h7.422c.018 0 .056.037.056.056l.095 2.071h-.226c-.058-.979-.414-1.45-1.111-1.45h-1.789z"/></g><mask id="R" width="179" height="55" x="-10" y="27" maskUnits="userSpaceOnUse" style="mask-type:luminance"><path fill="#fff" d="M168.494 27.903H-9.555v53.324h178.049z"/></mask><g mask="url(#R)"><path fill="#000" d="M56.567 56.674c0 .603.245.922.81.922h.094v.226H54.23v-.226h.057c.604 0 .828-.357.828-.941v-6.591c0-.605-.224-.982-.828-.982h-.057v-.244h6.874l.151 2.071h-.207c-.056-.922-.602-1.45-1.262-1.45h-3.219v3.259h2.618c.451 0 .64-.414.64-.848v-.058h.245v2.486h-.244v-.036c0-.433-.19-.866-.641-.866h-2.618z"/></g><mask id="S" width="179" height="55" x="-10" y="27" maskUnits="userSpaceOnUse" style="mask-type:luminance"><path fill="#fff" d="M168.494 27.903H-9.555v53.324h178.049z"/></mask><g mask="url(#S)"><path fill="#000" d="M89.376 53.396v3.315c0 .282.224.47.49.47h2.241c1.224 0 1.787-.753 2.11-1.77h.243l-.734 2.411H87.04v-.226h.057c.603 0 .829-.358.829-.942v-6.61c0-.583-.226-.96-.829-.96h-.057v-.245h6.459l.15 2.071h-.206c-.037-.96-.602-1.449-1.28-1.449h-2.788v3.258h2.616c.414 0 .66-.414.66-.848v-.058h.226V54.3h-.226v-.037c0-.434-.246-.867-.66-.867z"/></g><mask id="T" width="179" height="55" x="-10" y="27" maskUnits="userSpaceOnUse" style="mask-type:luminance"><path fill="#fff" d="M168.494 27.903H-9.555v53.324h178.049z"/></mask><g mask="url(#T)"><path fill="#000" d="M84.573 49.706c0-.396-.263-.621-.62-.621h-.247v-.246h2.45v.246h-.282c-.358 0-.584.225-.584.62v5.255c0 1.694-1.3 2.956-3.428 2.956-2.147 0-3.56-1.318-3.56-3.127v-4.84c0-.433-.339-.865-.792-.865h-.018v-.246h3.145v.245h-.056c-.414 0-.772.433-.772.866v4.898c0 1.3.81 2.392 2.166 2.392 1.337 0 2.6-.81 2.6-2.279z"/></g><mask id="U" width="179" height="55" x="-10" y="27" maskUnits="userSpaceOnUse" style="mask-type:luminance"><path fill="#fff" d="M168.494 27.903H-9.555v53.324h178.049z"/></mask><g mask="url(#U)"><path fill="#000" d="M97.286 53.396v3.315c0 .282.207.47.452.47h2.26c1.244 0 1.789-.753 2.11-1.77h.264l-.772 2.411h-6.648v-.226h.037c.584 0 .828-.358.828-.942v-6.61c0-.583-.244-.96-.828-.96h-.037v-.245h6.441l.151 2.071h-.207c-.059-.96-.605-1.449-1.262-1.449h-2.788v3.258h2.58c.452 0 .698-.414.698-.848v-.058h.225V54.3h-.225v-.037c0-.434-.246-.867-.698-.867z"/></g><mask id="V" width="179" height="55" x="-10" y="27" maskUnits="userSpaceOnUse" style="mask-type:luminance"><path fill="#fff" d="M168.494 27.903H-9.555v53.324h178.049z"/></mask><g mask="url(#V)"><path fill="#000" d="M121.414 56.618c0 .281.226.563.471.563h2.091c1.223 0 1.788-.772 2.109-1.808h.264l-.734 2.45h-6.537v-.246h.076c.565 0 .81-.358.81-.96v-6.554c0-.603-.245-.98-.81-.98h-.076v-.245h3.241v.245h-.057c-.621 0-.848.377-.848.98z"/></g><mask id="W" width="179" height="55" x="-10" y="27" maskUnits="userSpaceOnUse" style="mask-type:luminance"><path fill="#fff" d="M168.494 27.903H-9.555v53.324h178.049z"/></mask><g mask="url(#W)"><path fill="#000" d="M112.653 54.79h-.264v3.032h.264c.093-.414.432-.584.771-.396 1.094.565 2.45.698 3.409-.037.904-.678 1.299-1.959.734-2.975-.526-1.017-1.975-1.771-3.032-2.356-1.28-.714-1.337-1.938-.339-2.522 1.13-.698 2.882.47 2.882 2.221h.265V48.82h-.265c-.094.452-.395.509-.829.32-1.262-.603-2.297-.547-3.164.225-.959.904-1.166 2.75.434 3.73.96.602 2.261 1.26 2.73 1.92.395.546.51 1.262-.319 1.996-1.205 1.038-3.277-.242-3.277-2.22"/></g><mask id="X" width="179" height="55" x="-10" y="27" maskUnits="userSpaceOnUse" style="mask-type:luminance"><path fill="#fff" d="M168.494 27.903H-9.555v53.324h178.049z"/></mask><g mask="url(#X)"><path fill="#000" d="M104.63 48.838h-2.297v.244c.375 0 .64.059.791.266.224.244.376.395.64.715v6.836c0 .453-.415.679-.81.679h-.074v.244h2.486v-.244h-.056c-.415 0-.811-.226-.811-.679v-5.951l5.914 6.874h.189v-8.061c0-.433.395-.679.79-.679h.076v-.244h-2.467v.244h.058c.395 0 .828.246.828.679v5.142z"/></g><mask id="Y" width="179" height="55" x="-10" y="27" maskUnits="userSpaceOnUse" style="mask-type:luminance"><path fill="#fff" d="M168.494 27.903H-9.555v53.324h178.049z"/></mask><g mask="url(#Y)"><path fill="#000" d="M137.965 48.838h-2.297v.244c.357 0 .621.059.772.266.225.244.375.395.64.715v6.836c0 .453-.414.679-.81.679h-.056v.244h2.467v-.244h-.047c-.434 0-.829-.226-.829-.679v-5.951l5.914 6.874h.188v-8.061c0-.433.396-.679.791-.679h.095v-.244h-2.43v.244c.397 0 .828.246.828.679v5.142l-5.235-6.065z"/></g><mask id="Z" width="179" height="55" x="-10" y="27" maskUnits="userSpaceOnUse" style="mask-type:luminance"><path fill="#fff" d="M168.494 27.903H-9.555v53.324h178.049z"/></mask><g mask="url(#Z)"><path fill="#000" fill-rule="evenodd" d="M129.146 54.266h2.638l-1.315-3.039zm5.331 2.507c.207.49.471.77.827.77h.095v.245h-3.127v-.244h.246c.282 0 .565-.281.433-.62l-.867-1.997h-3.183l-.848 1.997c-.131.339.19.62.509.62h.115v.244h-2.393v-.244h.17c.358 0 .679-.281.923-.808l3.315-8.023c.198-.224.306.03.306.03z" clip-rule="evenodd"/></g><mask id="aa" width="179" height="55" x="-10" y="27" maskUnits="userSpaceOnUse" style="mask-type:luminance"><path fill="#fff" d="M168.494 27.903H-9.555v53.324h178.049z"/></mask><g mask="url(#aa)"><path fill="#000" fill-rule="evenodd" d="M148.294 49.497v7.647c.357.094.546.113.885.113 2.712 0 4.013-1.601 4.013-3.936.019-.1.16-4.076-4.035-3.972 0-.001-.537-.082-.863.148m6.273 3.843c0 2.524-2.017 4.5-4.634 4.5h-4.162v-.244h.074c.584 0 .81-.358.81-.959v-6.555c0-.603-.226-.98-.81-.98h-.074v-.244h3.413c5.744-.18 5.383 4.482 5.383 4.482" clip-rule="evenodd"/></g><mask id="ab" width="179" height="55" x="-10" y="27" maskUnits="userSpaceOnUse" style="mask-type:luminance"><path fill="#fff" d="M168.494 27.903H-9.555v53.324h178.049z"/></mask><g mask="url(#ab)"><path fill="#000" fill-rule="evenodd" d="M44.59 51.99c.01 3.022 1.398 5.118 3.37 5.086 1.847 0 3.372-1.855 3.372-5.17-.07-4.356-2.307-4.945-3.371-5-2.49.126-3.38 2.623-3.371 5.084m3.37-5.782c3.302.047 5.387 2.58 5.387 5.78 0 3.165-2.109 5.765-5.386 5.765s-5.385-2.6-5.385-5.764c.283-6.04 5.385-5.78 5.385-5.78" clip-rule="evenodd"/></g><mask id="ac" width="179" height="55" x="-10" y="27" maskUnits="userSpaceOnUse" style="mask-type:luminance"><path fill="#fff" d="M168.494 27.903H-9.555v53.324h178.049z"/></mask><g mask="url(#ac)"><path fill="#000" fill-rule="evenodd" d="M71.361 47.092s-3.282-.156-3.324 5.085c0 3.334 1.488 5.085 3.371 5.085 1.828 0 3.352-1.751 3.352-5.085s-1.572-5.085-3.399-5.085m0-.697s5.363.01 5.452 5.863c0 2.599-1.374 4.703-3.634 5.438.49 1.111 1.828 2.372 3.674 2.485v.302c-2.562 0-4.821-.83-6.536-2.599-2.674-.51-4.332-2.882-4.332-5.707 0-3.187 2.09-5.758 5.376-5.782" clip-rule="evenodd"/></g></g><defs><clipPath id="a"><path fill="#fff" d="M0 0h154v100H0z"/></clipPath></defs></svg>