<svg xmlns="http://www.w3.org/2000/svg" width="113" height="100" fill="none"><path fill="#C00020" d="M68.819 70.28h.35c.387 0 .422.07.422.737v2.386c0 .456-.035.632-.562.632h-.316v.491h2.737v-.491h-.14c-.491 0-.561-.176-.561-.632v-1.579c0-.912.49-1.403 1.193-1.403.526 0 .842.316.842 1.017v2c0 .456-.035.632-.562.632h-.035v.491h2.667v-.491h-.246c-.491 0-.561-.175-.561-.632v-2.28c0-1.053-.737-1.474-1.684-1.474a1.71 1.71 0 0 0-1.684 1.123h-.036v-1.158c-.49.07-1.333.105-1.824.105zm-.772 1.93V72c0-1.614-.667-2.351-2.21-2.351-1.615 0-2.316 1.088-2.316 2.491s.701 2.491 2.315 2.491 2.106-.842 2.106-1.684h-.983c0 .737-.316 1.123-1.017 1.123-1.193 0-1.193-1.193-1.193-1.86zm-3.298-.561c0-.807.245-1.474 1.087-1.474.843 0 1.053.702 1.053 1.474zm-3.685-.351c0 .842-.245 1.263-.772 1.263-.526 0-.842-.386-.842-1.228s.281-1.158.842-1.158c.457-.035.772.246.772 1.123m.422 4c0 .456-.316.912-1.229.912-.807 0-1.122-.386-1.122-.877s.28-.947 1.157-.947c.878 0 1.194.42 1.194.912m1.403-5.614-1.439.14a5.8 5.8 0 0 0-1.122-.21c-1.264 0-2.106.737-2.106 1.684 0 .877.562 1.333 1.299 1.544v.035c-.667.07-.948.316-.948.596 0 .281.21.492.877.632v.035c-.666.07-1.473.421-1.473 1.228s.666 1.404 2.21 1.404c1.65 0 2.527-.527 2.527-1.439 0-1.158-.913-1.298-1.825-1.368-1.053-.07-1.263-.176-1.263-.457 0-.28.42-.385.772-.42l.245-.036c1.369-.21 1.79-.947 1.79-1.719 0-.386-.14-.737-.421-.982v-.035h.947zm-11.474.596h.351c.386 0 .421.07.421.737v2.386c0 .456-.035.632-.561.632h-.316v.491h2.737v-.491h-.105c-.492 0-.562-.176-.562-.632v-1.579c0-.912.491-1.403 1.193-1.403.526 0 .842.316.842 1.017v2c0 .456-.035.632-.561.632h-.14v.491h2.666v-.491h-.245c-.492 0-.562-.175-.562-.632v-2.28c0-1.053-.737-1.474-1.684-1.474a1.71 1.71 0 0 0-1.684 1.123v-1.158c-.491.07-1.334.105-1.825.105zm-2.631-2.175c0 .386.35.702.737.667.386-.035.701-.351.666-.737 0-.386-.316-.667-.701-.667-.386 0-.702.28-.702.632zm-.667 2.175h.35c.387 0 .422.07.422.737v2.386c0 .456-.035.632-.561.632h-.316v.491h2.842v-.491h-.246c-.49 0-.561-.176-.561-.632V69.65c-.632.07-1.474.105-2 .105zm-6.526 0h.35c.387 0 .422.07.422.737v2.386c0 .456-.035.632-.527.632h-.315v.491h2.736v-.491h-.14c-.491 0-.561-.176-.561-.632v-1.579c0-.912.49-1.403 1.193-1.403.526 0 .842.316.842 1.017v2c0 .456-.035.632-.562.632h-.14v.491h2.667v-.491h-.246c-.491 0-.561-.175-.561-.632v-2.28c0-1.053-.737-1.474-1.685-1.474a1.71 1.71 0 0 0-1.684 1.123v-1.158c-.491.07-1.333.105-1.824.105zm-5.334 1.825c0 1.439.702 2.491 2.351 2.491s2.316-1.088 2.316-2.491-.702-2.491-2.316-2.491-2.35 1.052-2.35 2.491m1.264 0c0-1.333.28-1.93 1.087-1.93s1.088.632 1.088 1.93-.28 1.93-1.088 1.93c-.807 0-1.087-.597-1.087-1.93m-6.07-1.825h.42c.386 0 .421.07.421.737v2.386c0 .456-.035.632-.526.632h-.316v.491h3.088v-.491h-.526c-.491 0-.526-.176-.526-.632v-1.579c0-.807.456-1.403.877-1.403.386 0 .49.28.49.772h.948v-1.404a3 3 0 0 0-.772-.105 1.71 1.71 0 0 0-1.684 1.123h-.035v-1.158q-.947.105-1.895.105v.526zm-2.246 1.018c0 .842-.246 1.263-.772 1.263s-.842-.386-.842-1.228.28-1.158.842-1.158c.456-.035.772.246.772 1.123m.386 4c0 .456-.316.912-1.228.912-.807 0-1.123-.386-1.123-.877s.28-.947 1.158-.947 1.193.42 1.193.912m1.403-5.614-1.438.14a5.8 5.8 0 0 0-1.123-.21c-1.263 0-2.105.737-2.105 1.684 0 .877.561 1.333 1.263 1.544v.035c-.667.07-.948.316-.948.596 0 .281.21.492.878.632v.035c-.667.07-1.474.421-1.474 1.228s.666 1.404 2.21 1.404c1.65 0 2.527-.527 2.527-1.439 0-1.158-.913-1.298-1.825-1.368-1.052-.07-1.228-.176-1.228-.457 0-.28.421-.385.772-.42l.246-.036c1.368-.21 1.79-.947 1.79-1.719 0-.35-.141-.702-.422-.947v-.035h.947zM82.257 60.631h.842v3.053c0 .456-.035.597-.561.597h-.316v.49h3.088v-.49h-.491c-.492 0-.562-.176-.562-.597v-3.053h1.263v-.561h-1.263v-.947c0-.597.246-.878.632-.878s.491.21.491.843h.842v-1.264a5.3 5.3 0 0 0-1.298-.14c-1.754 0-1.825 1.053-1.825 2.386h-.842zm-5.263 1.79c0 1.438.702 2.491 2.316 2.491s2.316-1.053 2.316-2.491-.702-2.491-2.316-2.491-2.316 1.017-2.316 2.49m1.228 0c0-1.334.28-1.93 1.088-1.93.807 0 1.088.632 1.088 1.93s-.281 1.93-1.088 1.93-1.088-.632-1.088-1.93m-6 2.246-.456 1.192c-.14.351-.246.527-.632.527h-.42v.456h2.596v-.491h-.316c-.386 0-.491-.07-.491-.281.035-.175.07-.35.14-.526l1.895-4.562c.14-.316.21-.491.421-.491h.21V60H73.1v.491h.421c.176 0 .246.035.246.175a.7.7 0 0 1-.105.351l-.877 2.246-.807-2.14c-.07-.14-.106-.281-.14-.421 0-.14.105-.176.28-.176h.35v-.491h-2.385v.456h.14c.246 0 .351.14.562.632zm-6.491-4.036h.842v2.772c0 1.193.562 1.544 1.544 1.544s1.474-.456 1.474-1.509v-.21h-.807v.491c0 .421-.14.597-.492.597-.35 0-.49-.176-.49-.597v-3.088h1.543v-.561h-1.544v-1.368h-.877c-.07.982-.28 1.263-1.193 1.368zm-2.596-2.245c0 .386.35.701.736.666s.702-.35.667-.736c0-.386-.316-.667-.702-.667s-.701.28-.701.632zm-.667 2.175h.35c.387 0 .422.07.422.737v2.386c0 .456-.035.597-.526.597h-.316v.49h2.842v-.49h-.246c-.491 0-.561-.176-.561-.597v-3.72c-.632.07-1.474.106-1.965.106zm-4.632 4.035c.562.21 1.193.316 1.79.316 1.017 0 2.105-.421 2.105-1.579 0-.737-.386-1.017-1.193-1.298l-.807-.246c-.456-.14-.702-.42-.702-.772 0-.35.281-.561.737-.561.702 0 .877.316.877 1.053h.807v-1.334a4.5 4.5 0 0 0-1.684-.245c-1.158 0-1.93.526-1.93 1.403 0 .772.562 1.158 1.685 1.509.877.28 1.017.491 1.017.842 0 .456-.421.702-1.017.702-.597 0-.843-.456-.843-1.123h-.807v1.333zm-5.052-4.035h.42c.387 0 .422.07.422.737v2.386c0 .456-.035.597-.562.597h-.315v.49h3.087v-.49h-.526c-.491 0-.561-.176-.561-.597v-1.579c0-.807.456-1.438.877-1.438.386 0 .491.28.491.771h.947v-1.403a3 3 0 0 0-.772-.105 1.71 1.71 0 0 0-1.684 1.122h-.035v-1.087c-.491.07-1.333.105-1.895.105v.491zm-.702 1.93v-.21c0-1.614-.667-2.351-2.21-2.351-1.65 0-2.352 1.052-2.352 2.49 0 1.44.702 2.492 2.351 2.492 1.614 0 2.106-.842 2.106-1.684h-.983c0 .737-.316 1.123-1.017 1.123-1.193 0-1.193-1.193-1.193-1.86zm-3.298-.561c0-.807.245-1.474 1.087-1.474.843 0 1.053.702 1.053 1.474zm-3.58-1.404h.422c.21 0 .28.07.28.14s-.035.176-.035.246l-1.017 2.877h-.035l-.948-2.737a1.3 1.3 0 0 1-.07-.35c0-.106.105-.176.386-.176h.316v-.491h-2.421v.491h.105c.21 0 .28.07.386.386l1.509 3.895h1.158l1.509-3.93c.105-.246.175-.316.386-.316h.14v-.491h-2.07zm-5.403-2.14c0 .386.351.701.737.666.386 0 .702-.35.667-.736 0-.386-.316-.667-.702-.667s-.702.28-.702.632zm-.666 2.175h.35c.386 0 .422.07.422.737v2.386c0 .456-.036.597-.562.597h-.316v.49h2.842v-.49h-.21c-.491 0-.562-.176-.562-.597v-3.72c-.631.07-1.473.106-1.964.106zm-6.527 0h.351c.386 0 .421.07.421.737v2.386c0 .456-.035.597-.526.597h-.316v.49h2.737v-.49h-.14c-.492 0-.527-.176-.527-.597v-1.579c0-.912.491-1.438 1.193-1.438.526 0 .842.315.842 1.017v2c0 .456-.035.597-.561.597h-.14v.49h2.666v-.49h-.245c-.492 0-.527-.176-.527-.597v-2.28c0-1.053-.737-1.474-1.684-1.474a1.71 1.71 0 0 0-1.684 1.122h-.035v-1.087c-.456.07-1.334.105-1.825.105zm-2.35 4.21h1.824v-.49h-.246c-.49 0-.561-.176-.561-.597v-3.72c-.632.07-1.474.106-1.965.106v.491h.35c.387 0 .422.07.422.737v1.333c0 1.018-.351 1.544-1.193 1.544-.421.07-.807-.245-.877-.666V59.93c-.632.07-1.474.105-2 .105v.491h.35c.387 0 .422.07.422.737v2.28c0 .913.596 1.334 1.544 1.334.947 0 1.579-.421 1.824-1.088h.035zM67.486 31.684 50.258 52.982h-1.369l17.228-21.298zM34.222 27.544c-.14 0-.315.07-.42-.14-.106-.211.245-.527.385-.632.106-.105-.035-.28-.175-.105-.035.035-.316.42-.526.42-.351 0-.316-.385-.316-.385s-.386-.246-.386-.983c0-.386.14-.737.42-1.017 0 0 0-.386.317-.386.315 0 .49.42.526.42.14.246.35.036.21-.14-.315-.386-.386-.701-.035-.842.176-.315.527-.526.913-.526h.035c.386 0 .701.21.912.526.35.176.28.456-.035.842-.14.176.07.351.21.14 0-.034.211-.42.527-.455.316 0 .316.386.316.386.28.245.456.631.456.982 0 .772-.386.982-.386.982s0 .386-.316.386c-.21 0-.491-.386-.526-.42-.106-.176-.316 0-.176.105s.456.456.386.666-.28.176-.42.14c0 0-.106.211-.282.211.878.632 2.246.281 2.422-.175-.106.035-.211-.035-.211-.14v-.07c0-.141.14-.246.35-.246-.034-.106-.07-.21-.07-.316 0-.316.211-.561.527-.632.28 0 .456.246.456.597 0 .175-.07.316-.175.456.21.07.35.175.316.28 0 .141-.14.246-.281.246h-.07c-.035.702 1.052.842 1.333.667-.105-.246-.035-.526.21-.667.07-.07.351-.245.386-.28s.14-.176.07-.211-.14.035-.21.07-.21.28-.421.246c-.21-.035-.14-.351-.175-.491-.246-.948-.035-1.614.912-2 0 0 .35-.386.702-.21.35.174.105.666.105.666l.105.035c.351-.632.842-1.088 1.58-1.123a.71.71 0 0 1 .771.632v.07c.035.912-.912.561-.807.245-.14.036-.28.106-.35.21 0-.07 0-.596-.492-.315-.175.14-.316.351-.386.561-.07.176.035.211-.07.386s-.176.176-.21.281c-.036.105.034.28-.036.421-.07.105-.175.176-.245.28-.07.106-.737 1.825-.737 1.825.14.106.245.246.21.422-.07.35-.28.28-.42.49a23.5 23.5 0 0 0-11.474 0c-.106-.21-.316-.14-.387-.49 0-.176.07-.351.211-.422 0 0-.702-1.754-.737-1.86-.035-.104-.175-.14-.245-.28s0-.316-.035-.42c-.036-.106-.14-.141-.211-.282s0-.21-.07-.386a3.2 3.2 0 0 0-.386-.561c-.491-.28-.491.246-.491.316-.07-.105-.21-.21-.351-.21.07.35-.877.701-.807-.246 0-.386.316-.702.701-.702h.07c.738 0 1.229.456 1.58 1.088l.105-.035s-.176-.492.105-.667.702.21.702.21c.947.386 1.158 1.053.912 2-.035.14.07.422-.175.492-.246.07-.316-.14-.421-.246-.106-.105-.176-.14-.21-.07-.036.07 0 .175.07.21s.315.176.385.281c.21.14.281.421.176.632.28.175 1.368.035 1.333-.667-.14.035-.28-.035-.35-.175v-.07c0-.106.104-.211.315-.281-.105-.14-.175-.281-.175-.457-.036-.35.175-.596.456-.596.315.07.526.316.526.632 0 .105 0 .21-.07.315.21.035.35.106.35.246 0 .105-.07.175-.175.21h-.07c.175.457 1.544.843 2.421.176-.175.14-.28-.07-.28-.07m.281-1.79c0 .351.28.632.632.632.35 0 .631-.28.631-.632 0-.35-.28-.631-.631-.631a.65.65 0 0 0-.632.631m3.509 2.772c.28 0 .561.035.807.105-.14-.14-.246-.28-.351-.42 0 0-.105.105-.21.175-.07.035-.14.105-.246.14m-2.877-.561c-.14.175-.316.316-.527.386h1.088a1.1 1.1 0 0 1-.561-.386m-2.877.561c-.106-.035-.176-.105-.281-.175-.07-.07-.21-.176-.21-.176-.106.14-.211.281-.352.421.316-.035.597-.07.843-.07m8.456 1.72c.175.035.42.21.35.49-.07.281-.386.281-.56.246-.176-.035-.422-.21-.352-.49.07-.282.386-.282.562-.246m-2.316-.07-.527.456-.456-.527.527-.456zm-8.562.806c-.175.035-.49.035-.561-.245-.07-.28.176-.421.35-.491.176-.07.492-.035.562.245.07.246-.175.421-.35.491M34.644 30c0-.21.245-.35.56-.35.317 0 .562.175.562.35s-.245.35-.561.35-.561-.14-.561-.35m-2.667.175.42-.526.527.456-.456.526zM27.38 46.421c.035-.14.176-.21.316-.175-.035-.14.035-.281.175-.316.14-.07.316 0 .387.175l.105.737-.772-.035c-.176-.07-.28-.21-.21-.386m1.088-1.193c.035-.14.175-.21.316-.175-.035-.14.035-.281.175-.316.246-.105.386.175.386.175l.106.737-.773-.035c-.14-.07-.245-.21-.21-.386m1.088-1.193c.035-.14.175-.21.316-.175-.036-.14.035-.281.175-.316.246-.14.386.14.386.14l.105.737-.772-.035c-.175-.035-.245-.21-.21-.351m5.614-11.123c.035-.14.175-.21.316-.175-.035-.14.035-.28.175-.316.246-.105.386.175.386.175l.105.737-.772-.035c-.14-.07-.245-.21-.21-.386m1.052 4.105c.035-.14.176-.21.316-.175-.035-.14.035-.28.176-.316.245-.105.386.176.386.176l.105.737-.772-.035c-.14-.07-.246-.211-.21-.387m1.299-1.368c.035-.14.175-.21.315-.175-.035-.14.035-.281.176-.316.245-.105.386.175.386.175l.105.737-.772-.035c-.14-.07-.245-.21-.21-.386m1.298-1.368c.035-.14.175-.21.316-.176-.035-.14.035-.28.175-.316.246-.105.386.176.386.176l.105.737-.772-.035c-.175-.07-.245-.21-.21-.386m1.263-1.334c.035-.14.175-.21.316-.175-.035-.14.035-.28.175-.316.14-.07.316 0 .386.175l.105.737-.771-.035c-.14-.105-.246-.245-.21-.386m-13.439 9.158c.035-.14.176-.21.316-.175-.035-.14.035-.28.176-.316.14-.07.316 0 .386.175l.105.737-.772-.035c-.14-.105-.246-.245-.21-.386m2.983 7.263c.035-.14.175-.21.316-.175-.035-.14.035-.28.175-.316.14-.07.316 0 .386.176l.105.736-.772-.035c-.14-.07-.245-.21-.21-.386M30.889 48c.035-.14.175-.21.316-.175-.035-.14.035-.281.175-.316.246-.105.386.175.386.175l.106.737-.772-.035c-.14-.105-.246-.246-.21-.386m1.263-1.404c.035-.14.176-.21.316-.175-.035-.14.035-.28.175-.316.246-.105.386.176.386.176l.106.736-.772-.035c-.14-.07-.246-.245-.21-.386m1.298-1.368c.036-.14.176-.21.316-.175-.035-.14.035-.281.176-.316s.316.035.35.175l.106.737-.772-.035c-.14-.07-.246-.246-.175-.386q-.054 0 0 0m5.58-5.86c.035-.14.175-.21.315-.175-.035-.14.035-.28.176-.316.245-.105.386.176.386.176l.105.736-.772-.035c-.175-.105-.246-.245-.21-.386m1.157-1.263c.035-.14.176-.21.316-.175-.035-.14.035-.28.175-.316.246-.105.387.175.387.175l.105.737-.772-.035c-.176-.07-.28-.245-.21-.386q-.054 0 0 0m1.123-1.228c.035-.14.176-.21.316-.175-.035-.14.035-.281.175-.316.246-.105.386.175.386.175l.106.737-.772-.035c-.14-.105-.246-.245-.21-.386q0-.052 0 0m1.158-1.263c.035-.14.175-.21.316-.175-.035-.14.035-.281.175-.316.246-.105.386.175.386.175l.105.737L42.68 36c-.176-.07-.246-.21-.211-.386m-8.877 14.982c.035-.14.175-.21.316-.175-.035-.14.035-.28.175-.316.14-.07.316 0 .386.176l.105.736-.772-.035a.335.335 0 0 1-.21-.386m8.877-9.824c.035-.14.175-.21.316-.176-.035-.14.035-.28.175-.315.246-.106.386.175.386.175l.105.737-.771-.035c-.176-.105-.246-.246-.211-.386q0-.052 0 0m-8.597.982c0-.035.07-.035.176-.07s.21-.07.21-.035-.07 0-.07.105v.913c0 .035.07 0 .07.035s-.105.035-.175.035-.21.035-.21 0 .07 0 .07-.07v-.878c0-.07-.07.035-.07-.035m-.982.386c0-.035.035-.035.105-.07s.106-.07.14 0c.036.07.316.351.316.351v-.456c0-.035-.07 0-.07-.035s.035-.035.106-.07.175-.106.175-.07-.07.035-.07.105v.877c0 .07 0 .07-.035.07s-.456-.561-.456-.561v.596c0 .07.105-.035.105.035s-.07.035-.14.07-.14.07-.14.035.07-.035.07-.07v-.772c-.036-.035-.106 0-.106-.035m-.35.527c0-.386-.246-.246-.246-.246v.772c0 .035.245.035.245-.526m-.562-.14c0-.036.105-.07.21-.106.14-.07.597-.28.597.246a.62.62 0 0 1-.456.666c-.106.07-.281.14-.281.106s.07-.035.07-.14v-.632c-.035-.176-.14-.07-.14-.14m1.544-2.281c0-.035.105-.035.14-.07s.14-.036.175 0 .211.315.211.315.21-.316.246-.316c.035 0 .035-.035.105-.07h.14s-.07 0-.07.106v.842c0 .105.07.07.07.105s-.035 0-.175 0h-.21s.07 0 .07-.07v-.562l-.211.281-.28-.386v.632c0 .105.104.035.104.07s-.07.035-.14.035-.14.035-.14.035c0-.035.07 0 .07-.14v-.737c0-.07-.105-.035-.105-.07m-.281.14c.035 0 .14-.07.14-.07s-.035.035-.07.175c-.07.351-.14.667-.245.983-.036 0-.316-.702-.351-.772s-.106-.035-.106-.07.07-.07.14-.07.176-.106.176-.07c0 .034-.07.034-.035.14.035.105.21.42.21.42l.141-.56c.035-.141-.07-.071-.07-.106zm-1.123.947v.492c.14-.036.246-.176.246-.351 0-.281-.246-.14-.246-.14m0-.42v.315s.176-.07.176-.246c0-.175-.176-.07-.176-.07m0-.106c.105-.035.386-.105.386.14q0 .159-.105.21s.21.036.21.211c0 .176-.07.316-.21.386l-.421.21c-.035.036-.105.071-.105.036 0 0 .07-.035.07-.175v-.808c0-.175-.07-.105-.07-.14s.14-.035.245-.07m1.79-2.28v.42c.105 0 .21-.105.175-.21.035-.28-.175-.21-.175-.21m.526.912h.07c0 .07-.07.14-.175.14-.21 0-.21-.351-.246-.456-.035-.07-.105-.07-.14-.035v.35c0 .106.07.07.07.106s-.07.035-.07.035l-.21.07c-.071 0-.071.035-.071 0s.07-.035.07-.14v-.737c0-.14-.07-.105-.07-.14s.07-.036.105-.036c.07 0 .14-.07.281-.07.14 0 .35.035.35.21 0 .141-.07.246-.175.282.176.07.07.42.21.42m-1.579-.527c.14-.07.316-.14.456-.21.035 0 .105-.07.14 0s.07.175.036.175-.07 0-.106-.035-.07-.035-.14-.035l-.105.035v.316s.105 0 .14-.07.035-.106.07-.106 0 .07 0 .14v.07c0 .106 0 .141-.035.141a.075.075 0 0 1-.07-.07c0-.035-.14 0-.14 0v.456l.14-.07a.42.42 0 0 0 .175-.175c.035-.07.035-.106.07-.106s-.035.21-.035.21c0 .036-.035.071-.07.106l-.456.21-.14.07s.07 0 .07-.14v-.736s0-.07-.07-.07-.035-.07.07-.106m-.877.351c.07 0 .21-.07.21-.07 0 .035-.07.035-.035.14s.21.492.21.492l.211-.597c.035-.105-.07-.07-.07-.105s.07-.035.105-.07a.4.4 0 0 1 .176-.07s-.035.035-.07.14c-.07.35-.176.737-.316 1.088-.14-.281-.28-.527-.351-.807-.035-.07-.105-.036-.105-.07 0-.036.14-.036.175-.07m3.965 2.525c0-.035.035 0 .105 0s.14.035.176.106l.386.666v-.526c0-.07-.07-.07-.07-.105s.035 0 .105 0 .105.035.105.035-.07 0-.07.035v.982s0 .035-.035 0l-.526-.842v.562c0 .035.07.07.07.07h-.106c-.035 0-.105 0-.105-.035s.07.035.07-.07v-.807a.5.5 0 0 0-.105-.07m.491-1.508c0-.035.176.035.281.07.14.035.35.07.35.14s.036.176 0 .176c-.034 0-.07-.106-.104-.176l-.21-.105h-.036v.316s.07.035.14.035c.035-.035.07-.105.07-.07.036 0 .036.07 0 .175 0 .105 0 .21-.035.21s-.035-.105-.07-.14-.07-.035-.105-.07v.491c.035.035.14.07.175.035.14-.035.211-.14.246-.105s0 .035-.035.14-.105.14-.14.14-.21-.07-.281-.104c-.07-.035-.28-.07-.28-.106s.07.035.07-.07v-.842c0-.105-.07-.14-.036-.14m-.245-.176c.035 0 .035.176.035.21 0 .07.035.211 0 .211s-.105-.175-.176-.245-.35-.21-.35.35c0 .492.21.492.35.457s.176-.14.176-.106c-.035.14-.176.246-.316.281-.246.035-.491-.21-.491-.561s.175-.597.42-.597c.246 0 .246.14.317.14.07 0 0-.14.035-.14m.631-1.298c0-.035.105 0 .21.07.141.07.246.07.211.105 0 .035-.105 0-.105.035s.175.562.175.562l.176-.421c0-.035-.035-.07-.035-.07 0-.035.07 0 .105.035s.105.035.105.07-.07-.035-.07 0l-.35.877-.352-1.123c-.035-.105-.07-.105-.07-.14m-.807-.316c0-.035.07 0 .07 0l.316.105s.07 0 .07.036-.105-.036-.105.07v.877s.035.07.14 0c.106-.035.176-.105.246-.14 0 0 .07-.035.07 0-.035.035-.105.21-.105.21s0 .07-.105.035-.281-.07-.351-.105l-.21-.07s-.036 0-.036-.035.105 0 .105-.07v-.843c-.035 0-.105 0-.105-.07m1.228 3.123c0-.07.07.035.07-.07v-.842c0-.106-.035-.106-.035-.14 0-.036.106.034.106.034l.28.14c.176.071.281.211.281.422 0 .21-.175.175-.175.175.105.07.14.14.175.246 0 .14.035.28.035.28s.035.106.105.036c0 0 0 .175-.175.105a.26.26 0 0 1-.175-.246c0-.07-.07-.456-.211-.456v.386c0 .105.07.07.07.14s-.105-.035-.175-.07-.176-.105-.176-.14m.281-.877v.386c.035 0 .21.14.21-.105.036-.106-.07-.246-.21-.281m-.421 1.474c.035-.07-.035-.07-.035-.106s.105.035.14.035c.035.035.14.035.14.106s.281.912.281 1.017c.035.07.07.07.07.105-.035.035-.07-.035-.245-.07-.14-.07-.176-.07-.176-.07s.106.035.106-.07a1.4 1.4 0 0 1-.07-.21l-.351-.106-.035.175c-.036.07.07.07.035.106s-.07 0-.106-.035l-.07-.035s.07 0 .07-.035.21-.737.246-.807m.035.14-.105.386.28.07zm6.807-10.632v11.263c.14 6.737-5.368 9.123-9.017 9.123-3.65 0-9.123-2.386-9.018-9.123V31.72h3.368c0-.105 0-.245.036-.35 4.596-.913 6.807-.983 11.403 0 .07.105.105.21.105.35zm-16.35 16.316 3.508-3.754v-1.088h-.386a.31.31 0 0 1-.21-.35c.035-.141.175-.212.315-.176-.035-.14.035-.281.176-.316.035 0 .07-.035.105-.035v-.737l-4.386 4.667c.21.631.526 1.228.877 1.789m4.385-9.579.14-.07c.176-.07.492-.246.808-.386.315-.14.666-.246 1.017-.28.246 0 .491.07.737.175.07.035.14.105.21.14l.035-.035c.036-.07.106-.105.176-.14.21-.14.491-.21.737-.176.386.035.772.14 1.088.28l.035.106 5.649-6.035h-2.562l-4.982 5.298v-2.561l2.561-2.737H26.398v10.947c0 .386 0 .772.035 1.193l2.456-2.631h2.351v-2.105c0 .035-.07.035-.105.035 0 0 .07-.176-.106-.21h-.035q-.105 0-.21.104c-.07.07-.351.386-.386.421-.035-.035-.316-.35-.386-.42-.035-.07-.14-.106-.21-.106h-.036c-.175.035-.105.21-.105.21s-.14.036-.14-.21c0-.14.105-.245.245-.28.176-.036.351-.07.386-.351v-.07a1 1 0 0 1-.21.175c-.176.105-.667.07-.632.35 0 .106.105.106.105.106s0 .035-.07.07h-.07c-.105 0-.14-.14-.14-.28s-.035-.211-.176-.211c-.035 0-.035 0-.07.035s-.07.07-.07.14c-.07-.035-.105-.105-.07-.175 0-.105.07-.14.175-.176h.245v-.175c0-.105.071-.175.176-.175.176-.035.21.07.176.14 0 0-.035-.035-.106-.035h-.035c-.035 0-.035.035-.07.07-.035.07.035.14.035.175.07.07.176.07.28.07a.45.45 0 0 0 .317-.245c.035-.035.035-.07.035-.105l.07-.913s.035-.245-.14-.28h-.07a.4.4 0 0 0-.246.456c.035.14 0 .28-.14.35-.106.036-.176 0-.211-.07.21 0 .175-.175.105-.245-.035-.035-.07-.035-.105-.035-.21.07-.421.21-.526.421-.035.14.07.105.105.21.035.07 0 .14-.035.176v.07q-.052.105-.105.105h-.07c.07-.035.07-.105.07-.14v-.035s-.07 0-.106-.07 0-.105-.035-.21a.84.84 0 0 0-.386-.211h-.035c-.035 0-.035 0-.105.035h-.035c-.105 0-.07-.07-.176-.07-.035 0-.07.07-.07.105-.035-.035-.07-.07-.07-.14 0-.106.07-.211.175-.246.07 0 .106 0 .14.07.071-.245-.14-.14-.21-.28-.035-.036-.035-.106-.035-.141s-.07-.035-.105-.035c0 0 0-.105.14-.14.035 0 .106 0 .14.035.036 0 .106 0 .141.035s0 .105 0 .175c.035.14.105.14.14.14-.07-.105-.035-.245.035-.315 0-.035 0-.105-.07-.105.035 0 .21 0 .246.14.07.035.105.105.105.175s-.035.14-.105.176c.035.14.105.175.175.175s.105-.035.14-.07c.141-.07.422-.246.351-.386-.035-.07-.105-.105-.14-.07-.035 0-.07.035-.105.035-.035.035-.07.105-.035.175-.14.035-.176-.175-.105-.28q.053-.105.21-.106c.07 0 .175 0 .246-.035.105-.035.21-.105.245-.21a.5.5 0 0 0 0-.316c-.035-.14-.175-.246-.28-.28-.036.21-.14.42-.316.526-.035.035-.07.035-.14.035h-.036c.14-.14.176-.351.14-.527-.105.21-.28.351-.455.457l-.07.035c-.14.035-.316-.035-.246-.07a.616.616 0 0 0 .386-.773q-.158.317-.421.527a.4.4 0 0 1-.281.105c-.175.035-.316-.035-.28-.035.034 0 .49-.246.49-.456-.105.07-.21.105-.315.14h-.07c-.422 0-.422-.316-.422-.316s.422.035.737-.666a.85.85 0 0 1-.456.14c-.14 0-.21-.07-.175-.07h.07c.14-.035.246-.07.35-.175-.034 0-.56-.246-.35-.597.105.07.21.14.316.14.14 0 .35 0 .42-.14-.21-.035-.385-.07-.56-.175-.176-.106-.211-.351-.176-.281q.105.105.21.105h.106s-.421-.386-.14-.666c0 0 .14.385.456.385a.73.73 0 0 1-.211-.35c-.035-.14 0-.316 0-.246l.07.14c.07.106.105.176.21.246a.7.7 0 0 1 0-.386c0-.035.106-.175.106-.14v.14q.052.316.316.526c.316.316.631.316.631.492 0 .21-.316.21-.49.175-.071 0-.071.105 0 .175.315.246.771.21 1.017-.07a.38.38 0 0 0 .035-.386c-.07-.175-.21-.175-.492-.245-.175-.035-.14-.14-.105-.14.035.034.07.034.105.034.14 0 .07-.175.036-.175-.106.035-.21.07-.316.07-.176 0-.351-.07-.351-.175 0-.106.175-.176.175-.14 0 .034-.105.21.21.175.106 0 .211 0 .282-.035-.036-.07-.106-.106-.176-.14h-.175c-.035-.07.07-.176.105-.211.035 0 .07-.035.14-.035.07-.07.176-.14.281-.14.105.034.246.034.35.07.071 0 .211-.036.211-.036 0 .035-.035.106-.035.176 0 .14.246.737.527.807.28-.07.526-.667.526-.807 0-.07-.07-.14-.035-.176 0-.035.14.035.21.035.106-.035.246-.07.351-.07a.32.32 0 0 1 .281.14c.035 0 .105 0 .14.036.07.035.14.105.106.21h-.176c-.07 0-.14.07-.175.14.105 0 .21.036.28.036.316 0 .211-.176.211-.176s.175 0 .175.14-.21.176-.35.176c-.106 0-.211-.035-.316-.07 0 0-.105.175.035.175.035 0 .07 0 .105-.035.035 0 .07.07-.105.14-.28.07-.421.07-.456.246-.035.14-.035.28.035.386.28.28.701.316 1.017.07.07-.07.07-.175 0-.175-.175 0-.456.035-.49-.175 0-.246.315-.211.63-.492a.83.83 0 0 0 .317-.526v-.14s.105.105.105.14a.7.7 0 0 1 0 .386c.07-.07.14-.14.21-.246l.07-.14c.035-.035.035.105 0 .246a.73.73 0 0 1-.21.35c.35 0 .456-.386.456-.386.246.281-.14.667-.14.667h.105c.07 0 .175-.07.21-.105.07-.07 0 .175-.175.28a1.06 1.06 0 0 1-.561.176c.035.14.28.14.42.14.106 0 .211-.07.316-.14.211.35-.315.596-.35.596.105.07.21.14.35.176h.07s-.034.07-.175.07c-.14-.035-.316-.07-.456-.105.316.702.702.666.737.666s0 .316-.421.316h-.07a1.3 1.3 0 0 1-.316-.14c0 .21.491.456.491.456s-.105.07-.28.035c-.106 0-.211-.07-.281-.105a1.55 1.55 0 0 1-.421-.526.65.65 0 0 0 .35.807c.07 0-.105.07-.245.07l-.07-.035a.96.96 0 0 1-.456-.456c-.035.175.035.386.14.526h-.035c-.035 0-.105-.035-.14-.035a.83.83 0 0 1-.316-.526.38.38 0 0 0-.281.28.5.5 0 0 0 0 .316c.035.105.14.175.246.21.07 0 .175 0 .245.036q.105 0 .21.105c.071.105.036.316-.104.28.035-.07 0-.14-.036-.175s-.07-.035-.105-.035c-.07 0-.14.035-.14.07-.07.14.21.316.35.386.036.035.106.035.141.07.07 0 .175 0 .175-.175a.19.19 0 0 1-.105-.175c0-.07.035-.14.105-.176.036-.14.246-.14.246-.14-.035 0-.07.07-.07.105.07.105.105.21.035.316 0 0 .105 0 .14-.14v-.176c.036-.035.07-.07.14-.035.036-.035.106-.035.141-.035.07 0 .105.07.14.105h-.035c-.07 0-.14 0-.105.035s0 .105-.035.14c-.07.106-.28.036-.21.281a.27.27 0 0 1 .14-.07c.105.035.175.14.175.246 0 .07-.035.105-.07.14.035-.035 0-.105-.035-.105-.07 0-.07.07-.175.07h-.035c-.036 0-.07 0-.106-.035h-.035a.84.84 0 0 0-.386.21c-.07.106 0 .106-.035.21-.035.106-.105.071-.105.071.14 0 .14.035.14.035m-.35.14c.105-.035.175-.07.28-.105 0-.035-.035-.035-.035-.07v-.07c-.035-.035-.07-.105-.035-.176.035-.105.14-.07.105-.21-.105-.21-.316-.386-.526-.421-.035 0-.07 0-.105.035-.07.07-.07.21.105.245-.035.07-.105.106-.21.07-.141-.07-.211-.21-.141-.35a.424.424 0 0 0-.246-.456h-.07c-.175.035-.14.28-.14.28l.035.983c0 .035 0 .07.035.105.07.105.21.21.316.246.105.035.21 0 .28-.07 0-.036.07-.106.036-.176 0-.035-.036-.035-.07-.07h-.036c-.035 0-.07.035-.105.035-.035-.07 0-.175.175-.14.106 0 .176.105.176.175v.175c.07 0 .105-.035.175-.035m-.527.351v-.07c-.105-.035-.246-.07-.35-.105a1 1 0 0 1-.212-.176v.07c.036.281.211.281.351.352.07.035.14.07.211.14zm6.105 5.439a.22.22 0 0 0 0 .21c.28.211.667.211.948 0-.351-.07-.632-.14-.948-.21m1.544-.526c.07.105.175.175.28.21.282-.07.527-.666.527-.807 0-.07-.035-.14-.035-.175s.14.035.21.035.246-.07.351-.07a.32.32 0 0 1 .281.14c.035 0 .07 0 .14.035s.14.105.106.21h-.176c-.07 0-.14.07-.175.14.105 0 .21.036.28.036.316 0 .211-.175.211-.175s.175 0 .175.14-.21.175-.35.175c-.106-.035-.21-.035-.316-.07 0 0-.105.176.035.176.035 0 .07 0 .105-.035.035 0 .07.07-.105.14-.28.07-.421.07-.491.245-.035.14-.035.281.035.386.28.281.702.316 1.017.07.07-.07.07-.175 0-.175-.175 0-.456.035-.49-.175 0-.246.315-.21.63-.492a.83.83 0 0 0 .316-.526v-.14c0-.035.106.105.106.14a.7.7 0 0 1 0 .386c.07-.07.14-.14.21-.245l.07-.14c.035-.036.035.105 0 .245a.73.73 0 0 1-.21.35c.35 0 .456-.385.456-.385.246.28-.14.666-.14.666h.105c.07 0 .175-.07.21-.105.07-.07 0 .176-.175.28a1.06 1.06 0 0 1-.561.176c.07.14.28.14.42.14.106 0 .246-.07.316-.14.211.351-.315.597-.35.597.105.07.21.14.35.175h.07s-.034.07-.175.07c-.14-.035-.316-.07-.456-.105.316.702.702.667.737.667s0 .316-.421.316h-.07a1.3 1.3 0 0 1-.316-.14c0 .21.491.455.491.455s-.105.07-.28.035c-.106 0-.211-.07-.281-.105a1.56 1.56 0 0 1-.421-.526.616.616 0 0 0 .386.772c.07 0-.106.07-.246.07-.035 0-.07 0-.07-.035a.96.96 0 0 1-.456-.456c-.035.175.035.386.14.526h-.035c-.035 0-.105-.035-.14-.035a.83.83 0 0 1-.316-.561.38.38 0 0 0-.28.28.5.5 0 0 0 0 .316c.034.105.14.175.245.21.07.036.175 0 .245.036q.105 0 .21.105c.071.105.036.316-.104.28.035-.07 0-.14-.035-.175s-.07-.035-.106-.035c-.07 0-.14.035-.14.07-.07.14.21.316.35.386.036.035.106.035.141.07.07 0 .176 0 .176-.175a.19.19 0 0 1-.106-.175c0-.07.035-.14.106-.176.035-.14.245-.14.245-.14v.035c-.035 0-.07.07-.07.105.07.105.105.21.035.316 0 0 .105 0 .14-.14v-.176c.036-.035.07-.07.14-.07.036-.035.106-.035.141-.035.07 0 .105.07.14.105h-.035c-.07 0-.14 0-.105.035s0 .105-.035.14c-.07.106-.28.036-.21.281a.27.27 0 0 1 .14-.07c.105.035.175.14.175.246 0 .07-.035.105-.07.14 0-.07 0-.105-.07-.105s-.07.07-.175.07h-.035c-.036 0-.07-.035-.106-.035h-.035a.84.84 0 0 0-.386.21c-.07.106 0 .106-.035.21-.035.106-.105.071-.105.071v.035c0 .035.035.07.07.105h-.07q-.052 0-.105-.105v-.07c-.035-.035-.07-.105-.035-.175.035-.106.14-.07.105-.211-.105-.21-.316-.386-.527-.421-.035 0-.07 0-.105.035-.07.07-.07.21.105.246-.035.07-.105.105-.21.07-.14-.07-.21-.21-.14-.351a.424.424 0 0 0-.246-.456h-.07c-.176.035-.14.28-.14.28l.07.983c0 .035 0 .07.035.105.07.105.21.21.315.246.106.035.211 0 .281-.07.035-.035.035-.105.035-.176 0-.035-.035-.035-.07-.07h-.035c-.035 0-.07.035-.105.035-.035-.07 0-.175.175-.14.105 0 .176.105.176.175s0 .14-.035.176h.28c.106.035.176.07.176.175 0 .07-.035.14-.07.176 0-.07 0-.106-.07-.14-.036 0-.036-.036-.07-.036-.106 0-.176.105-.176.21 0 .141-.035.281-.14.281h-.106c-.07 0-.07-.07-.07-.07s.105 0 .105-.105c0-.28-.456-.28-.631-.35a1 1 0 0 1-.211-.176v.07c.035.28.21.28.386.316.14.035.246.14.246.28 0 .21-.14.21-.14.21s.07-.175-.106-.21h-.035q-.105 0-.21.106c-.07.07-.351.386-.387.42-.035-.035-.315-.35-.386-.42-.035-.07-.14-.07-.21-.106h-.035c-.176.035-.105.21-.105.21s-.14.036-.14-.21c0-.14.105-.245.245-.28.175-.035.35-.07.386-.316v-.07c-.07.07-.14.14-.21.175-.176.105-.667.07-.632.35 0 .106.105.106.105.106s0 .035-.07.07h-.07c-.106 0-.14-.14-.14-.28 0-.106-.07-.21-.176-.21-.035 0-.035 0-.07.034-.035.035-.07.07-.07.14-.07-.035-.106-.105-.07-.175 0-.105.07-.14.175-.175h.28c-.035-.07-.035-.14-.035-.176 0-.105.07-.175.176-.175.175-.035.21.07.175.14 0 0-.035-.035-.105-.035h.105c-.035 0-.035.035-.07.07 0 .07 0 .14.035.176.07.07.176.07.28.07a.45.45 0 0 0 .317-.246c.035-.035.035-.07.035-.105l.07-.947s.035-.246-.14-.281h-.07a.4.4 0 0 0-.246.456c.035.14 0 .28-.14.351-.106.035-.176 0-.211-.07.21 0 .175-.176.14-.246-.035-.035-.07-.035-.105-.035a.8.8 0 0 0-.526.421c-.035.14.07.105.105.21.035.07 0 .141-.035.176v.07q-.053.105-.105.105h-.07c.035-.035.07-.07.07-.105v-.035c-.035 0-.07-.035-.106-.07-.07-.105 0-.105-.035-.21-.105-.106-.21-.211-.386-.211h-.035c-.035 0-.07.035-.105.035h-.035c-.105 0-.07-.07-.176-.07s-.07.07-.07.105c-.035-.035-.07-.07-.07-.14 0-.105.07-.21.175-.246.07 0 .106 0 .14.07.071-.245-.14-.14-.21-.28-.035-.035-.035-.106-.035-.14 0-.036-.07-.036-.105-.036h-.035s.035-.105.14-.14c.035 0 .106 0 .14.035.036 0 .106 0 .14.07.036.035 0 .105 0 .176 0 .14.106.14.141.14-.07-.105-.035-.246.035-.316 0-.035 0-.105-.07-.105 0 0-.035 0 0-.035s.21 0 .246.14c.07.035.105.105.105.176s-.035.14-.105.175c.035.14.105.175.21.175.07 0 .106-.035.14-.07.141-.07.422-.245.351-.386-.035-.07-.105-.105-.175-.07-.035 0-.07.035-.105.035-.035.035-.07.105-.035.176-.14.035-.176-.176-.105-.281q.052-.105.21-.105c.07 0 .175 0 .246-.035.105-.035.21-.106.245-.21a.5.5 0 0 0 0-.317.38.38 0 0 0-.28-.28c-.036.21-.14.42-.316.526-.035.035-.07.035-.14.035h-.036c.14-.14.176-.35.14-.526-.105.21-.245.35-.456.49-.035 0-.07.036-.07.036-.14.035-.316-.035-.245-.07a.616.616 0 0 0 .386-.772q-.159.316-.421.526a.4.4 0 0 1-.281.105c-.175.036-.316-.035-.28-.035.034-.035.49-.245.49-.456-.105.07-.21.106-.315.14h-.07c-.422 0-.422-.315-.422-.315s.422.035.737-.667c-.14.035-.28.07-.456.105-.14 0-.21-.07-.175-.07h.07c.14-.035.245-.105.35-.175-.034 0-.56-.246-.35-.597.105.07.21.14.316.14.14 0 .35 0 .42-.14-.21-.035-.385-.07-.56-.175h-.036c-.14 0-.245 0-.386.035-.07.386-.456.667-.842.596a.8.8 0 0 1-.596-.596c-.21-.035-.421-.035-.632-.035l-4.842 5.158c.456.42.982.807 1.509 1.123l4.491-4.807v2.56l-2.842 3.019a9.7 9.7 0 0 0 2.982.49c3.544 0 8.807-2.315 8.702-8.771v-4.316l-2.245 2.421h-2.386l4.701-4.982v-2.737l-4.912 5.193c.035 0 .035.035.035.07zm-.526 1.579h1.614v-.632h-1.614zm.807 1.263c.386 0 .737-.281.772-.667h-1.58c.07.386.422.667.808.667m-9.58-11.228h1.615v-.667H29.59zm.808 1.263c.386 0 .737-.28.772-.667h-1.58c.071.386.422.667.808.667m4.35 7.403c0 .21.141.351.352.351.21 0 .35-.14.35-.35 0-.211-.14-.352-.35-.352s-.351.14-.351.351m-3.262-5.193v5.299s.07.07.42-.035c.422-.106.913-.632 1.615-.772.49-.07.947-.035 1.403.175v-5.333a1.26 1.26 0 0 0-.842-.316c-.526 0-1.368.456-1.72.631-.245.14-.526.246-.806.281-.07 0-.07.035-.07.07m4.631 4.456c.912 0 1.404.562 1.72.702.736.28.841.14.841.14v-5.333c0-.07-.07-.07-.07-.07-.315-.035-.631-.14-.947-.246-.246-.14-1.088-.666-1.72-.666-.63 0-.736.28-.736.28v5.369c.28-.14.596-.175.912-.175"/></svg>