<svg xmlns="http://www.w3.org/2000/svg" width="149" height="100" fill="none"><path fill="#00467F" d="m35.56 24.009 11.034-11.035h66.121v62.974l-11.077 11.078H35.603z"/><path fill="#fff" d="M57.112 56.336h-1.595v-1.12h1.466v-.69h-1.466v-1.078h1.552v-.646h-2.242v4.18h2.285zM76.422 53.448v-.646h-2.241v4.18h2.284v-.646h-1.594v-1.12h1.508v-.69h-1.508v-1.078zM51.12 55.259h1.897v1.724h.647v-4.181h-.647v1.767h-1.896v-1.767h-.69v4.18h.69zM61.12 57.026c.475.043.949-.13 1.294-.474.301-.345.43-.776.43-1.25v-2.543h-.689v2.457a1.24 1.24 0 0 1-.215.862c-.216.215-.518.301-.82.301-.258 0-.56-.129-.732-.301a1.03 1.03 0 0 1-.216-.776v-2.457h-.646v2.586c-.043.474.172.949.517 1.25.345.259.69.388 1.078.345M67.328 56.983v-4.181h-.647v3.017c-.086-.086-2.37-3.017-2.37-3.017h-.518v4.18h.646V54.01c.087.086 2.328 2.974 2.328 2.974zM73.362 52.802h-.69s-.991 2.63-1.034 2.715l-1.035-2.715h-.69l1.639 4.224h.215zM79.87 56.983h.776l-.129-.173c-.215-.345-.302-.474-.474-.732-.173-.259-.259-.475-.388-.647-.086-.172-.216-.302-.345-.431.345-.215.56-.603.56-.991 0-.345-.129-.647-.344-.906-.259-.215-.604-.344-.949-.301h-.991v4.18h.647v-1.767h.129c.215 0 .43.087.905.906zm-.646-2.974a.73.73 0 0 1-.13.43c-.129.13-.301.173-.517.173h-.258v-1.164h.258c.431 0 .647.173.647.56M82.37 53.448c.302 0 .604.173.776.388l.086.086v.044-.906c-.258-.172-.56-.301-.862-.301-.603-.044-1.12.43-1.163 1.034v.13c0 .603.43.904.819 1.206l.086.087.172.129c.086.043.172.13.259.215a.53.53 0 0 1 .215.431c0 .259-.258.431-.517.431-.388-.043-.69-.215-.905-.56l-.086-.13v-.042 1.034c.301.259.69.388 1.077.388.302 0 .56-.13.776-.345s.345-.56.302-.862c0-.56-.345-1.034-.82-1.293l-.3-.172c-.087-.043-.173-.13-.26-.173a.53.53 0 0 1-.215-.43c.086-.26.302-.432.56-.389M90.948 56.983h.647v-2.198l1.422-2.026h-.776s-.948 1.293-.948 1.336a88 88 0 0 1-.948-1.336h-.82s1.423 1.983 1.423 2.026zM69.095 52.802h-.647v4.18h.647zM85.215 52.802h-.646v4.18h.646zM47.974 56.983h.646v-3.535h1.293v-.646h-3.232v.646h1.293zM87.327 56.983h.69v-3.535h1.25v-.646h-3.19v.646h1.25zM99.828 55.086h1.422v-.646h-1.422v-.992h1.422v-.646h-2.07v4.138h.647zM96.38 57.069c.56 0 1.12-.216 1.465-.647.69-.862.69-2.112 0-2.974-.733-.819-1.983-.862-2.802-.13l-.13.13c-.344.431-.56.948-.56 1.466 0 .56.173 1.077.56 1.465.389.431.906.69 1.466.69m-.95-3.19c.26-.258.604-.43.95-.388.732 0 1.335.604 1.335 1.38v.086c0 .388-.129.776-.388 1.034-.517.517-1.336.56-1.853.043l-.043-.043a1.63 1.63 0 0 1 0-2.112M83.62 59.914h-.818l-2.759 7.155h1.164s.776-1.983.776-2.026h2.456c.044.043.82 2.026.82 2.026h1.206zm-1.163 4.008c0-.086.69-1.896.776-2.026.043.13.775 1.94.819 2.026zM79.051 65.948H76.25v-5.991h-1.121v7.155h3.922zM48.62 65.086h2.457c0 .043.82 2.026.82 2.026h1.163l-2.888-7.155h-.776l-2.758 7.155H47.8c.044 0 .82-2.026.82-2.026m1.207-3.19c.044.13.776 1.983.82 2.026H49.05c.044-.043.733-1.896.776-2.025M66.638 66.552v-1.38h-.044l-.172.13a3.4 3.4 0 0 1-2.112.732c-.647.043-1.25-.215-1.724-.69a2.47 2.47 0 0 1-.647-1.81c0-.646.216-1.293.647-1.81a2.07 2.07 0 0 1 1.68-.69c.734 0 1.466.259 2.07.69l.13.086h.042l-.043-1.38a5 5 0 0 0-2.198-.516c-2.026 0-3.535 1.551-3.535 3.75 0 .862.302 1.68.82 2.327.646.776 1.637 1.25 2.672 1.207.862 0 1.68-.215 2.414-.646M70.517 63.32c0-.044 2.802-3.363 2.802-3.363h-1.423s-2.327 2.802-2.413 2.931v-2.931h-1.121v7.155h1.12V63.88c.087.13 2.975 3.233 2.975 3.233h1.551zM100.819 61.12a3.19 3.19 0 0 0-2.586-1.163h-2.544v7.155h2.544c.948 0 1.853-.388 2.5-1.077a3.954 3.954 0 0 0 .086-4.914m-2.716 4.828H96.81v-4.827h1.25a2.23 2.23 0 0 1 1.81.733 2.7 2.7 0 0 1 .604 1.724c0 .862-.517 2.37-2.37 2.37M56.595 67.198a2.82 2.82 0 0 0 2.155-.819 2.95 2.95 0 0 0 .733-2.112v-4.31h-1.164v4.138c0 .733-.13 1.12-.388 1.422-.345.345-.862.518-1.38.518-.474 0-.948-.173-1.25-.56-.258-.302-.344-.604-.344-1.337v-4.181h-1.078v4.397c-.086 1.465.992 2.758 2.457 2.844zM92.715 65.086c-.086-.13-4.008-5.13-4.008-5.13h-.905v7.156h1.077v-5.086c.086.129 3.966 5.043 3.966 5.043h.948v-7.155h-1.078zM48.965 75.043l-1.724-2.026h-.517v2.931h.56V73.88l1.767 2.07h.475v-2.932h-.56zM53.017 74.655h1.293v-.431h-1.293v-.776h1.336v-.43h-1.896v2.93h1.896v-.474h-1.336zM60.215 74.827l-.776-1.81h-.474l-.776 1.81-.69-1.81h-.603l1.207 2.931h.172l.906-2.112.905 2.112h.215l1.207-2.93h-.56zM70 73.017h-2.543v.431h1.594l-1.68 2.5H70v-.474h-1.681zM73.319 74.655h1.25v-.431h-1.25v-.776h1.293v-.43h-1.854v2.93h1.897v-.474h-1.336zM78.405 73.017l-1.207 2.931h.603l.26-.69h1.292l.302.69h.603l-1.293-2.93zm-.172 1.81.474-1.12.517 1.12zM83.448 73.017h-.56v2.931h1.982v-.474h-1.422zM88.448 73.017l-1.207 2.931h.604l.258-.69h1.293l.302.69h.604l-1.294-2.93zm-.172 1.81.474-1.12.517 1.12zM95.172 75.043l-1.724-2.026h-.517v2.931h.56V73.88l1.724 2.07h.518v-2.932h-.56zM100.689 73.233c-.258-.13-.517-.172-.818-.172h-1.207v2.93h1.207c.301 0 .56-.043.818-.172.216-.13.431-.302.561-.517.129-.216.215-.474.215-.776 0-.259-.086-.517-.215-.733-.13-.258-.345-.43-.561-.56m-.129 1.983c-.215.172-.474.301-.733.258h-.603v-2.026h.56q.453 0 .776.26c.173.215.302.473.259.775.043.259-.043.517-.259.733M101.551 69.957H46.724v.302h54.827zM63.103 24.052v11.207c0 2.629 1.983 10.301 10.949 14.051l.129.087.13-.087c8.965-3.75 10.947-11.379 10.947-14.051V24.052z"/><path fill="#00467F" d="m65.474 31.423-.086-.044a3.3 3.3 0 0 0-1.681-.474h-.13v4.267c0 .087.302 9.225 10.604 13.578 10.302-4.31 10.603-13.491 10.603-13.577v-4.268h-.129a3.3 3.3 0 0 0-1.681.474c-1.12.647-2.5.647-3.62 0a3.35 3.35 0 0 0-3.363 0c-1.12.647-2.457.647-3.534 0h-.043a3.35 3.35 0 0 0-3.362 0h-.044a3.46 3.46 0 0 1-3.534.043"/><path fill="#00467F" d="M66.68 26.034c.302-.344.69-.517 1.121-.517 1.638-.043 2.5 1.207 2.457 2.155a1.4 1.4 0 0 1-.991 1.423c0 .215.086.388.172.56 0 0 .044.043 0 .13l-.043.086v.086c0 .086 0 .172-.086.258a.9.9 0 0 0 0 .475h-.043c-.13-.087-.172-.259-.216-.388a1 1 0 0 0-.517.517c0 .043-.043.043-.043 0 0-.216.086-.474.259-.604-.13-.043-.302 0-.431.087h-.043c.043-.043.086-.216.517-.259l.13-.259c-.044-.215-.087-.387-.216-.56-.173 0-.388.086-.518.172-.043 0-.043.044-.043.087v.086s0 .086-.13.13c-.172.042-.387.128-.56.215a.44.44 0 0 0-.258.215.44.44 0 0 1-.259.216.33.33 0 0 0-.172.086l-.13.13a1.1 1.1 0 0 0-.215.258q0 .065 0 0v-.13a.9.9 0 0 1 .216-.387h-.044c-.258 0-.517 0-.818.086 0 0-.043 0 0-.043s.129-.302.69-.345a.64.64 0 0 0-.389-.172c-.043 0-.043-.044 0-.044.173-.086.388-.043.56.087 0 0 .216-.087.302-.087.13-.086.431-.387.56-.474v-.129h-.042c-.13-.216-.173-.474-.173-.733-.345-.086-.646-.258-.862-.56-.388-.086-.776-.345-.948-.69a5 5 0 0 0-1.423 1.724h-.043c-.086-.172-.086-.344-.086-.517.259-.56.56-1.12.992-1.595a1.06 1.06 0 0 1 .819-1.207h.172c.388.087.603.216.776.431"/><path fill="#fff" d="M68.319 26.164c.043-.087.172-.13.301-.13-.258-.129-.56-.129-.776 0a.5.5 0 0 1 .216-.215c-.259 0-.517.086-.69.259.043-.087.087-.173.173-.216-.518 0-.906.647-.906.647a.56.56 0 0 0-.56-.475c-.302-.043-1.077.431-.776.992-.344.43-.69.905-.948 1.38a5.6 5.6 0 0 1 1.293-1.38c.043.043.302.776.992.776.215.344.603.517.99.56 0 .259.044.517.13.733h.043c.173-.173.388-.302.647-.345.043-.172.086-.302.172-.474.474-.087.82-.517.862-.992-.043-.56-.56-1.206-1.163-1.12m-2.76.69q-.128 0-.128-.13t.129-.13.13.13q0 .13-.13.13"/><path fill="#00467F" d="M73.62 26.034c.302-.344.69-.517 1.121-.517 1.638-.043 2.5 1.207 2.457 2.155.043.647-.388 1.207-.991 1.423 0 .215.043.388.172.56.043 0 .043.043.043.13l-.043.086v.086c0 .086 0 .172-.086.258a.9.9 0 0 0 0 .475c0 .043 0 .043-.043 0-.13-.087-.173-.259-.216-.388a1 1 0 0 0-.517.517c0 .043-.043.043-.086 0 0-.216.086-.474.258-.604-.129-.043-.301 0-.43.087 0 0-.044.043-.044 0 .043 0 .087-.216.518-.259l.129-.259c0-.215-.086-.387-.216-.56-.172 0-.388.086-.517.172-.043 0-.043.044-.043.087v.086s0 .086-.13.13c-.172.042-.387.128-.56.215a.44.44 0 0 0-.258.215.44.44 0 0 1-.259.216.33.33 0 0 0-.172.086l-.13.13c-.086.085-.172.172-.215.258q0 .065 0 0v-.13a.9.9 0 0 1 .215-.344h-.043c-.258 0-.517 0-.819.086.043 0 .13-.302.69-.345a.64.64 0 0 0-.388-.172c.172-.087.388-.043.56.086 0 0 .216-.086.302-.086.13-.087.431-.388.56-.474v-.13h-.043c-.129-.215-.172-.474-.172-.732-.345-.087-.647-.26-.862-.56-.388-.087-.776-.346-.948-.69a5 5 0 0 0-1.423 1.724h-.043c-.086-.173-.13-.345-.086-.518.259-.56.56-1.12.991-1.594a1.06 1.06 0 0 1 .82-1.207h.172c.388-.043.603.086.776.301"/><path fill="#fff" d="M75.258 26.164c0-.087.173-.13.302-.13a.91.91 0 0 0-.819 0 .5.5 0 0 1 .216-.215c-.259 0-.518.086-.69.259.043-.087.086-.173.172-.216-.517 0-.905.647-.905.647-.043-.26-.302-.431-.56-.475-.302-.043-1.035.431-.776.992-.345.43-.69.905-.948 1.38.345-.561.776-.992 1.293-1.38.043.043.345.776.991.776.086.043.388.603.948.56 0 .259.044.517.13.733h.043c.172-.173.388-.302.647-.345.043-.172.086-.302.172-.474.474-.087.819-.517.862-.992.043-.56-.474-1.206-1.078-1.12m-2.758.69q-.13 0-.13-.13t.13-.13q.13 0 .13.13t-.13.13"/><path fill="#00467F" d="M80.517 26.034c.302-.344.69-.517 1.12-.517 1.639-.043 2.5 1.207 2.457 2.155.044.647-.387 1.207-.99 1.423 0 .215.042.388.172.56.043 0 .043.043.043.13l-.043.086v.086c0 .086 0 .172-.043.258-.044.173 0 .302.043.475 0 .043-.043.043-.043 0-.13-.087-.173-.259-.216-.388-.216.086-.388.301-.517.517 0 .043-.043.043-.043 0 0-.216.086-.474.258-.604-.172-.043-.302 0-.474.087.043 0 .086-.216.517-.259l.13-.259c0-.215-.087-.387-.216-.56-.172 0-.388.086-.517.172-.043 0-.043.044-.043.087v.086c0 .043-.043.13-.13.13-.172.042-.388.128-.56.215a.44.44 0 0 0-.258.215.44.44 0 0 1-.26.216.33.33 0 0 0-.171.086l-.13.13c-.086.085-.172.172-.215.258q0 .065 0 0v-.13c.043-.129.086-.258.215-.344h-.043c-.259 0-.517 0-.776.086h-.043s.13-.302.69-.345a.64.64 0 0 0-.388-.172q-.065 0 0 0c.172-.087.388-.043.56.086.043 0 .216-.086.302-.086.13-.087.43-.388.56-.474v-.13c-.13-.215-.172-.474-.172-.732-.345-.087-.647-.26-.862-.56-.388-.087-.776-.346-.949-.69a5 5 0 0 0-1.422 1.724h-.043c-.086-.173-.13-.345-.086-.518.258-.56.56-1.12.991-1.594a1.06 1.06 0 0 1 .82-1.207h.171c.216.043.431.172.604.345z"/><path fill="#fff" d="M82.155 26.164c.043-.087.172-.13.302-.13a.91.91 0 0 0-.82 0 .5.5 0 0 1 .216-.215c-.258 0-.517.086-.69.259.044-.087.087-.173.173-.216-.517 0-.905.647-.905.647-.043-.26-.302-.431-.56-.475-.302-.043-1.035.431-.776.992-.345.43-.69.905-.949 1.38a5.6 5.6 0 0 1 1.293-1.38c.043.043.302.776.992.776.215.344.603.517.991.56 0 .259.043.517.13.733.172-.173.387-.302.646-.345.043-.172.13-.302.172-.474.474-.087.82-.517.862-.992.044-.56-.474-1.206-1.077-1.12m-2.759.69q-.13 0-.13-.13t.13-.13q.13 0 .13.13t-.13.13M75.043 42.026l-.173.13.173.086c.129.043.172.172.172.301a.37.37 0 0 1-.345.345h-1.422a.37.37 0 0 1-.345-.345c0-.13.086-.258.172-.301l.173-.087-.172-.086a2.14 2.14 0 0 0-1.121-.345c-.388 0-.82.13-1.12.345a2.2 2.2 0 0 1-1.38.345 2.86 2.86 0 0 1-1.94-.733h-.388l-.043.043a.33.33 0 0 1-.215.087.28.28 0 0 1-.259-.26c0-.129.13-.258.259-.258.086 0 .129.043.172.086l.043.044h.431v-.56h-.43l-.044.085a.33.33 0 0 1-.216.087.28.28 0 0 1-.258-.259c0-.13.13-.259.258-.259a.33.33 0 0 1 .216.087l.043.043h.431v-.56h-.43l-.044.042a.33.33 0 0 1-.216.087.28.28 0 0 1-.258-.259c0-.13.13-.259.258-.259a.33.33 0 0 1 .216.087l.043.043h.431v-.518h-.43l-.044.044a.33.33 0 0 1-.216.086.28.28 0 0 1-.258-.259c0-.13.13-.258.258-.258a.33.33 0 0 1 .216.086l.043.043h.431v-.517h-.43l-.044.043a.33.33 0 0 1-.216.086.28.28 0 0 1-.258-.259c0-.129.13-.258.258-.258a.33.33 0 0 1 .216.086l.043.043h.431v-.517h-.43l-.044.172a.33.33 0 0 1-.216.086.28.28 0 0 1-.258-.258c0-.13.13-.259.258-.259a.33.33 0 0 1 .216.086l.043.043h.431v-.517h-.43l-.044.043a.33.33 0 0 1-.216.087.28.28 0 0 1-.258-.26c0-.128.13-.258.258-.258a.33.33 0 0 1 .216.087v.043h.345l.345-.173v4.785l.043.086c.862.603 1.94.69 2.888.172.948-.517 2.241-.56 3.017.56h-.302c-.043 0-.13.044-.13.087s.044.13.087.13h1.164c.043 0 .13-.044.13-.087s-.044-.13-.087-.13h-.345c.776-1.12 2.112-1.034 3.017-.56.82.431 1.768.345 2.845-.172l.086-.086v-4.742l.388.173h.345l.043-.043a.33.33 0 0 1 .216-.087c.13 0 .258.087.258.259 0 .13-.129.259-.258.259a.33.33 0 0 1-.216-.087l-.043-.043h-.43v.517h.43l.043-.043a.33.33 0 0 1 .216-.086c.13 0 .258.13.258.259 0 .13-.129.258-.258.258-.086 0-.13-.043-.216-.086l-.043-.043h-.43v.517h.43l.043-.043a.33.33 0 0 1 .216-.086c.13 0 .258.086.258.259 0 .129-.129.258-.258.258a.33.33 0 0 1-.216-.086l-.043-.043h-.43v.517h.43l.043-.043a.33.33 0 0 1 .216-.086c.13 0 .258.086.258.259 0 .129-.129.258-.258.258-.086 0-.13-.043-.216-.086l-.043-.043h-.43V40h.43l.043-.043a.33.33 0 0 1 .216-.086c.13 0 .258.13.258.258 0 .13-.129.259-.258.259a.33.33 0 0 1-.216-.086l-.043-.043h-.43v.517h.43l.043-.043a.33.33 0 0 1 .216-.086c.13 0 .258.086.258.258 0 .13-.129.259-.258.259-.086 0-.13-.043-.216-.086l-.043-.043h-.43v.517h.43l.043-.043a.33.33 0 0 1 .216-.087c.13 0 .258.13.258.26 0 .128-.129.258-.258.258a.33.33 0 0 1-.216-.086l-.043-.044h-.474c-.56.475-1.25.733-1.983.733-.474.043-.948-.086-1.379-.345-.647-.646-1.552-.646-2.198-.172"/><path fill="#fff" d="M68.534 41.38c.733.387 1.337.517 2.414-.087a2.7 2.7 0 0 1 3.147.517v.345c-.862-1.12-2.242-1.077-3.233-.517a2.53 2.53 0 0 1-2.586-.13v-4.827l.258-.13z"/><path fill="#fff" d="M68.707 41.207v-4.785h.043c.775.216 1.551.13 2.284-.215a3.02 3.02 0 0 1 3.06.43v4.828a3 3 0 0 0-1.896-.69c-.474 0-.905.087-1.336.302-.992.518-1.509.474-2.155.13M77.414 41.293c1.077.56 1.68.474 2.413.086l.087-.043v-4.784l.258.13v4.827q-1.487.711-2.586.129c-.991-.517-2.37-.603-3.233.517v-.345c.776-.819 2.026-1.034 3.06-.517"/><path fill="#fff" d="M74.267 41.465v-4.87a3.02 3.02 0 0 1 3.06-.431c.733.344 1.509.43 2.285.215v4.828c-.647.345-1.207.43-2.155-.086a2.97 2.97 0 0 0-3.19.344M79.698 35.56l-1.293-.991-1.293.991.517-1.551-1.38-.992h1.682l.474-1.595.517 1.595h1.638l-1.336.992zM71.25 35.56l-1.336-.991-1.293.991.517-1.552-1.337-.99h1.638l.475-1.553.517 1.552h1.68l-1.379.991zM72.888 47.802l.474-1.552-1.336-.992h1.638l.517-1.594.474 1.594h1.681l-1.38.992.518 1.551-1.293-.948z"/></svg>