<svg xmlns="http://www.w3.org/2000/svg" width="140" height="100" fill="none"><path fill="#000" d="M54.607 36.052h.438v.254h4.45v-.254h.438v1.44h-.438v-.728h-1.827v5.227h.916v.338h-2.629v-.338h.91v-5.227h-1.82v.729h-.438zM62.65 42.329h-2.172v-.338h.688v-5.347h-.687v-.337h2.17v.337h-.68v2.427h3.417v-2.427h-.68v-.337h2.17v.337h-.694v5.347h.694v.338h-2.17v-.338h.68v-2.51h-3.418v2.51h.681zM71.279 36.052h.418v1.45h-.405v-.776h-2.164v2.335h1.726v-.683l.418-.01v1.798l-.418.01v-.703h-1.726v2.446h2.245v-.804h.418v1.214h-4.153v-.338h.688v-5.347h-.688v-.338h3.64z"/><mask id="a" width="140" height="48" x="0" y="26" maskUnits="userSpaceOnUse" style="mask-type:luminance"><path fill="#fff" d="M139.335 26H.741v48h138.594z"/></mask><g mask="url(#a)"><path fill="#000" d="M80.805 36.644h-.685v3.476c0 .976-.347 1.606-1.103 2.017-.384.2-.822.309-1.269.309-1.321 0-2.298-.876-2.298-2.071v-3.732h-.684v-.338h2.171v.338h-.684v3.449c0 1.104.646 1.825 1.66 1.825 1.04 0 1.742-.74 1.742-1.835v-3.44h-.683v-.338h1.833z"/></g><mask id="b" width="140" height="48" x="0" y="26" maskUnits="userSpaceOnUse" style="mask-type:luminance"><path fill="#fff" d="M139.335 26H.741v48h138.594z"/></mask><g mask="url(#b)"><path fill="#000" d="M82.187 41.99v-5l-.243-.346h-.633v-.337h1.328l3.337 4.58v-4.243h-.695v-.337h1.834v.337h-.68v5.785h-.284l-3.506-4.817v4.378h.695v.339H81.5v-.339z"/></g><mask id="c" width="140" height="48" x="0" y="26" maskUnits="userSpaceOnUse" style="mask-type:luminance"><path fill="#fff" d="M139.335 26H.741v48h138.594z"/></mask><g mask="url(#c)"><path fill="#000" d="M89.953 36.643h-.688v5.348h.688v.337h-2.17v-.337h.68v-5.348h-.68v-.337h2.17z"/></g><mask id="d" width="140" height="48" x="0" y="26" maskUnits="userSpaceOnUse" style="mask-type:luminance"><path fill="#fff" d="M139.335 26H.741v48h138.594z"/></mask><g mask="url(#d)"><path fill="#000" d="m93.667 41.125 1.753-4.481h-.606v-.337h1.564v.337h-.459l-2.278 5.84h-.31l-2.3-5.84h-.539v-.337h2.265v.337h-.863z"/></g><mask id="e" width="140" height="48" x="0" y="26" maskUnits="userSpaceOnUse" style="mask-type:luminance"><path fill="#fff" d="M139.335 26H.741v48h138.594z"/></mask><g mask="url(#e)"><path fill="#000" d="M100.564 36.052h.418v1.45h-.411v-.776h-2.164v2.335h1.726v-.683l.418-.01v1.798l-.418.01v-.703h-1.726v2.446h2.245v-.804h.425v1.214h-4.153v-.338h.68v-5.347h-.68v-.338h3.64z"/></g><mask id="f" width="140" height="48" x="0" y="26" maskUnits="userSpaceOnUse" style="mask-type:luminance"><path fill="#fff" d="M139.335 26H.741v48h138.594z"/></mask><g mask="url(#f)"><path fill="#000" d="M107.225 42.328h-.775c-.538 0-.639-.055-.941-.538l-1.359-2.162h-.712v2.362h.684v.338h-2.171v-.337h.684v-5.347h-.684v-.338h2.536c.885 0 1.386.248 1.66.813.119.246.184.52.184.812 0 .885-.493 1.451-1.369 1.579l1.313 2.025c.219.338.366.447.594.447h.355zm-3.787-3.12h.875c.694 0 1.179-.51 1.179-1.26 0-.784-.43-1.223-1.197-1.223h-.857z"/></g><mask id="g" width="140" height="48" x="0" y="26" maskUnits="userSpaceOnUse" style="mask-type:luminance"><path fill="#fff" d="M139.335 26H.741v48h138.594z"/></mask><g mask="url(#g)"><path fill="#000" d="M108.391 42.41h-.429V40.77h.429v.72c.557.374.802.466 1.204.466.73 0 1.222-.384 1.222-.958 0-.52-.355-.904-1.339-1.416-1.151-.602-1.542-1.058-1.542-1.806 0-.903.767-1.58 1.797-1.58.456 0 .793.083 1.084.257v-.329h.42v1.56h-.42v-.647c-.463-.31-.693-.401-1.058-.401-.62 0-1.021.374-1.021.939 0 .466.265.73 1.405 1.388s1.468 1.058 1.468 1.806c0 .95-.783 1.678-1.814 1.678-.575 0-.95-.118-1.405-.41z"/></g><mask id="h" width="140" height="48" x="0" y="26" maskUnits="userSpaceOnUse" style="mask-type:luminance"><path fill="#fff" d="M139.335 26H.741v48h138.594z"/></mask><g mask="url(#h)"><path fill="#000" d="M114.62 36.643h-.687v5.348h.687v.337h-2.171v-.337h.681v-5.348h-.681v-.337h2.171z"/></g><mask id="i" width="140" height="48" x="0" y="26" maskUnits="userSpaceOnUse" style="mask-type:luminance"><path fill="#fff" d="M139.335 26H.741v48h138.594z"/></mask><g mask="url(#i)"><path fill="#000" d="M115.213 36.052h.439v.254h4.449v-.254h.438v1.44h-.438v-.728h-1.827v5.227h.917v.338h-2.629v-.338h.91v-5.227h-1.82v.729h-.439z"/></g><mask id="j" width="140" height="48" x="0" y="26" maskUnits="userSpaceOnUse" style="mask-type:luminance"><path fill="#fff" d="M139.335 26H.741v48h138.594z"/></mask><g mask="url(#j)"><path fill="#000" d="M123.303 36.306v.337h-.829l1.564 2.392 1.456-2.392h-.836v-.337h1.827v.337h-.472l-1.752 2.857v2.49h.694v.338h-2.171v-.337h.681v-2.436l-1.887-2.912h-.526v-.337z"/></g><mask id="k" width="140" height="48" x="0" y="26" maskUnits="userSpaceOnUse" style="mask-type:luminance"><path fill="#fff" d="M139.335 26H.741v48h138.594z"/></mask><g mask="url(#k)"><path fill="#000" d="M128.838 39.326c0-1.716 1.333-3.13 2.946-3.13 1.588 0 2.921 1.423 2.921 3.12s-1.333 3.13-2.921 3.13c-1.604 0-2.946-1.423-2.946-3.12m.903-.008c0 1.541.859 2.654 2.043 2.654 1.168 0 2.018-1.122 2.018-2.654 0-1.533-.85-2.646-2.008-2.646-1.194 0-2.053 1.094-2.053 2.646"/></g><mask id="l" width="140" height="48" x="0" y="26" maskUnits="userSpaceOnUse" style="mask-type:luminance"><path fill="#fff" d="M139.335 26H.741v48h138.594z"/></mask><g mask="url(#l)"><path fill="#000" d="M138.91 36.052h.418v1.45h-.411v-.776h-2.164v2.335h1.726v-.683l.418-.01v1.798l-.418.01v-.703h-1.726v2.518h.688v.338h-2.171v-.338h.681v-5.347h-.681v-.338h3.64z"/></g><mask id="m" width="140" height="48" x="0" y="26" maskUnits="userSpaceOnUse" style="mask-type:luminance"><path fill="#fff" d="M139.335 26H.741v48h138.594z"/></mask><g mask="url(#m)"><path fill="#000" d="M55.74 61.82h-1.131v-4.328h1.13v1.9c1.467.985 2.117 1.226 3.174 1.226 1.924 0 3.222-1.01 3.222-2.525 0-1.37-.937-2.38-3.534-3.728-3.03-1.586-4.064-2.79-4.064-4.77 0-2.382 2.02-4.16 4.737-4.16 1.202 0 2.092.215 2.861.673v-.866h1.107v4.111h-1.107v-1.707c-1.226-.816-1.827-1.056-2.79-1.056-1.635 0-2.691.985-2.691 2.475 0 1.227.696 1.93 3.701 3.666 3.007 1.731 3.872 2.79 3.872 4.762 0 2.5-2.069 4.424-4.785 4.424-1.515 0-2.5-.313-3.703-1.081z"/></g><mask id="n" width="140" height="48" x="0" y="26" maskUnits="userSpaceOnUse" style="mask-type:luminance"><path fill="#fff" d="M139.335 26H.741v48h138.594z"/></mask><g mask="url(#n)"><path fill="#000" d="M70.598 45.722v.89h-2.184l4.132 6.312 3.823-6.312h-2.191v-.89h4.813v.89h-1.254l-4.611 7.538v6.565h1.827v.889h-5.724v-.889h1.8v-6.42l-4.975-7.683H64.66v-.89z"/></g><mask id="o" width="140" height="48" x="0" y="26" maskUnits="userSpaceOnUse" style="mask-type:luminance"><path fill="#fff" d="M139.335 26H.741v48h138.594z"/></mask><g mask="url(#o)"><path fill="#000" d="M80.191 61.604v-.89h1.804V46.613H80.19v-.89h7.094c4.328 0 7.863 3.559 7.863 7.923 0 4.448-3.462 7.959-7.888 7.959zm3.92-1.203h2.887c3.293 0 5.794-2.909 5.769-6.73 0-3.716-2.548-6.723-5.721-6.723h-2.934z"/></g><mask id="p" width="140" height="48" x="0" y="26" maskUnits="userSpaceOnUse" style="mask-type:luminance"><path fill="#fff" d="M139.335 26H.741v48h138.594z"/></mask><g mask="url(#p)"><path fill="#000" d="M97.84 60.714V47.527l-.653-.913h-1.659v-.89h3.486l8.804 12.081V46.614h-1.827v-.89h4.834v.89h-1.807v15.255h-.742l-9.235-12.708v11.553h1.827v.89h-4.861v-.89z"/></g><mask id="q" width="140" height="48" x="0" y="26" maskUnits="userSpaceOnUse" style="mask-type:luminance"><path fill="#fff" d="M139.335 26H.741v48h138.594z"/></mask><g mask="url(#q)"><path fill="#000" d="M122.049 45.05h1.106v3.823h-1.079v-2.045h-5.703v6.167h4.544v-1.807l1.105-.024v4.74l-1.105.025v-1.852h-4.544v6.445h5.919v-2.116h1.106v3.198h-10.942v-.889h1.8V46.612h-1.8v-.89h9.593z"/></g><mask id="r" width="140" height="48" x="0" y="26" maskUnits="userSpaceOnUse" style="mask-type:luminance"><path fill="#fff" d="M139.335 26H.741v48h138.594z"/></mask><g mask="url(#r)"><path fill="#000" d="M130.941 45.722v.89h-2.184l4.133 6.312 3.822-6.312h-2.184v-.89h4.807v.89h-1.248l-4.618 7.538v6.565h1.827v.889h-5.723v-.889h1.807v-6.42l-4.982-7.683h-1.396v-.89z"/></g><mask id="s" width="140" height="48" x="0" y="26" maskUnits="userSpaceOnUse" style="mask-type:luminance"><path fill="#fff" d="M139.335 26H.741v48h138.594z"/></mask><g mask="url(#s)"><path fill="#FBB500" d="M45.68 32.846v11.152c0 13.52-9.206 27.404-22.475 30.002C10.41 71.57.742 57.515.742 43.998V29.001S11.952 26 23.209 26c13.08 0 22.471 3 22.471 3z"/></g><mask id="t" width="140" height="48" x="0" y="26" maskUnits="userSpaceOnUse" style="mask-type:luminance"><path fill="#fff" d="M139.335 26H.741v48h138.594z"/></mask><g mask="url(#t)"><path fill="#fff" d="M23.21 70.482c10.772-.011 19.127-10.004 19.128-21.01V30.529l-.28-.085s-9.707-3.01-18.853-3.013c-9.143.002-18.834 3.009-18.85 3.012l-.282.086v18.945c.002 11.005 8.357 20.998 19.13 21.01"/></g><mask id="u" width="140" height="48" x="0" y="26" maskUnits="userSpaceOnUse" style="mask-type:luminance"><path fill="#fff" d="M139.335 26H.741v48h138.594z"/></mask><g mask="url(#u)"><path fill="#004485" d="M27.559 69.094v-7.452h8.503c.498 0 .941.247 1.215.627a21.5 21.5 0 0 0 3.976-9.336H27.56v-7.166a87 87 0 0 0-4.353-.117c-1.447 0-2.909.044-4.346.116v7.167H5.157a21.5 21.5 0 0 0 3.982 9.34c.272-.382.717-.632 1.22-.632h8.501v7.455c1.39.382 2.84.593 4.343.593v.062h.006v-.062c1.504 0 2.959-.21 4.35-.595"/></g><mask id="v" width="140" height="48" x="0" y="26" maskUnits="userSpaceOnUse" style="mask-type:luminance"><path fill="#fff" d="M139.335 26H.741v48h138.594z"/></mask><g mask="url(#v)"><path fill="#FBB500" d="m32.192 54.801 1.858.881.658-1.921.692 1.93 1.825-.89-.88 1.857 1.92.664-1.934.689.894 1.827-1.857-.88-.66 1.923-.69-1.933-1.826.89.882-1.856-1.923-.66 1.932-.69z"/></g><mask id="w" width="140" height="48" x="0" y="26" maskUnits="userSpaceOnUse" style="mask-type:luminance"><path fill="#fff" d="M139.335 26H.741v48h138.594z"/></mask><g mask="url(#w)"><path fill="#FBB500" d="m14.22 54.801-1.856.881-.661-1.921-.69 1.93-1.827-.89.881 1.857-1.921.664 1.936.689-.896 1.827 1.858-.88.659 1.923.688-1.933 1.828.89-.881-1.856 1.922-.66-1.931-.69z"/></g><mask id="x" width="140" height="48" x="0" y="26" maskUnits="userSpaceOnUse" style="mask-type:luminance"><path fill="#fff" d="M139.335 26H.741v48h138.594z"/></mask><g mask="url(#x)"><path fill="#FBB500" d="m20.694 62.102 1.853.88.663-1.923.69 1.934 1.823-.892-.878 1.857 1.921.66-1.932.691.889 1.828-1.852-.88-.66 1.927-.69-1.94-1.827.893.881-1.856-1.923-.663 1.932-.69z"/></g><mask id="y" width="140" height="48" x="0" y="26" maskUnits="userSpaceOnUse" style="mask-type:luminance"><path fill="#fff" d="M139.335 26H.741v48h138.594z"/></mask><g mask="url(#y)"><path fill="#FBB500" d="m20.697 48.001 1.85.88.663-1.923.687 1.934 1.827-.89-.88 1.854 1.923.661-1.933.691.89 1.828-1.852-.88-.662 1.922-.69-1.932-1.823.89.877-1.858-1.922-.661 1.932-.689z"/></g><mask id="z" width="140" height="48" x="0" y="26" maskUnits="userSpaceOnUse" style="mask-type:luminance"><path fill="#fff" d="M139.335 26H.741v48h138.594z"/></mask><g mask="url(#z)"><path fill="#FBB500" d="M30.06 54.37h-.806v.595h.806z"/></g><mask id="A" width="140" height="48" x="0" y="26" maskUnits="userSpaceOnUse" style="mask-type:luminance"><path fill="#fff" d="M139.335 26H.741v48h138.594z"/></mask><g mask="url(#A)"><path fill="#FBB500" d="M30.06 55.953h-.806v.59h.806z"/></g><mask id="B" width="140" height="48" x="0" y="26" maskUnits="userSpaceOnUse" style="mask-type:luminance"><path fill="#fff" d="M139.335 26H.741v48h138.594z"/></mask><g mask="url(#B)"><path fill="#FBB500" d="M30.06 57.53h-.806v.594h.806z"/></g><mask id="C" width="140" height="48" x="0" y="26" maskUnits="userSpaceOnUse" style="mask-type:luminance"><path fill="#fff" d="M139.335 26H.741v48h138.594z"/></mask><g mask="url(#C)"><path fill="#FBB500" d="M30.06 59.112h-.806v.59h.806z"/></g><mask id="D" width="140" height="48" x="0" y="26" maskUnits="userSpaceOnUse" style="mask-type:luminance"><path fill="#fff" d="M139.335 26H.741v48h138.594z"/></mask><g mask="url(#D)"><path fill="#fff" d="M25.241 54.007c-.07-.01-.15 0-.222 0-.817 0-1.448.632-1.448 1.437v4.774a1.46 1.46 0 0 1 1.116-.515l4.14.002v-5.698zm2.784 4.656H24.48v-.536h3.544zm0-1.47H24.48v-.537h3.544zm0-1.469H24.48v-.538h3.544z"/></g><mask id="E" width="140" height="48" x="0" y="26" maskUnits="userSpaceOnUse" style="mask-type:luminance"><path fill="#fff" d="M139.335 26H.741v48h138.594z"/></mask><g mask="url(#E)"><path fill="#FBB500" d="M17.157 54.37h-.806v.595h.806z"/></g><mask id="F" width="140" height="48" x="0" y="26" maskUnits="userSpaceOnUse" style="mask-type:luminance"><path fill="#fff" d="M139.335 26H.741v48h138.594z"/></mask><g mask="url(#F)"><path fill="#FBB500" d="M17.157 55.953h-.806v.59h.806z"/></g><mask id="G" width="140" height="48" x="0" y="26" maskUnits="userSpaceOnUse" style="mask-type:luminance"><path fill="#fff" d="M139.335 26H.741v48h138.594z"/></mask><g mask="url(#G)"><path fill="#FBB500" d="M17.157 57.53h-.806v.594h.806z"/></g><mask id="H" width="140" height="48" x="0" y="26" maskUnits="userSpaceOnUse" style="mask-type:luminance"><path fill="#fff" d="M139.335 26H.741v48h138.594z"/></mask><g mask="url(#H)"><path fill="#FBB500" d="M17.157 59.112h-.806v.59h.806z"/></g><mask id="I" width="140" height="48" x="0" y="26" maskUnits="userSpaceOnUse" style="mask-type:luminance"><path fill="#fff" d="M139.335 26H.741v48h138.594z"/></mask><g mask="url(#I)"><path fill="#fff" d="M17.585 54.007v5.698l4.141-.002c.447 0 .849.2 1.115.515v-4.775c0-.804-.63-1.436-1.45-1.436-.071 0-.152-.01-.22 0zm.8 4.118h3.545v.537h-3.544zm0-1.469h3.545v.538h-3.544zm0-1.468h3.545v.538h-3.544z"/></g><mask id="J" width="140" height="48" x="0" y="26" maskUnits="userSpaceOnUse" style="mask-type:luminance"><path fill="#fff" d="M139.335 26H.741v48h138.594z"/></mask><g mask="url(#J)"><path fill="#D4002A" d="M23.205 44.858c7.94.001 16.311 1.273 18.34 1.6V31.117c-.273-.079-.736-.213-1.36-.38a85 85 0 0 0-4.294-1.024c-3.535-.746-8.2-1.489-12.686-1.489-6.733-.001-13.855 1.675-16.981 2.513-.625.168-1.088.302-1.359.38v15.34c2.027-.325 10.403-1.598 18.34-1.6"/></g><mask id="K" width="140" height="48" x="0" y="26" maskUnits="userSpaceOnUse" style="mask-type:luminance"><path fill="#fff" d="M139.335 26H.741v48h138.594z"/></mask><g mask="url(#K)"><path fill="#FFDD92" fill-rule="evenodd" d="M31.316 40.258c-.258.226-.717.47-1.445.444-.307-.012-.456.076-.533.168-.045.062-.074.139-.08.155-.041.15.014.313.095.44.08.112.05.184-.071.212-.12.032-.28.035-.591-.116-.137-.066-.176.018-.195.081-.052.153.048.34.252.476.104.092.086.182-.078.239-.275.097-.522-.03-.925-.253-.237-.132-.42-.154-.58.034-.09.106-.082.202-.03.257.158.155.252.467-.14.959-.129.162-.268-.288-.387-.235-.535.25-.973-.077-1.139-.302-.036-.045-.11-.06-.203 0-.267.179-.84.475-1.061-.042-.035-.074-.35.118-.345-.03.011-.855.753-1.015 1.07-1.043q.142-.016.064-.135c-.127-.185-.28-.405-.196-.66.059-.19-.427-.234-.226-.332.977-.487 1.523.446 1.693.547.284.163 1.56-.253 1.715-.945.033-.135-.297-.196-.626-.278-.06-.014-.093-.09.015-.177.775-.576 1.395-1.324 2.795-1.463a.216.216 0 0 1 .243.193c.027.217.084.429.177.628.203.43.446.696.692.892.121.096.107.228.04.286m5.607-1.971c1.026.005.016.85-.036 1.098-.037.18.129.341.29.435.122.063.125.142.035.222-.096.084-.238.16-.583.168-.15.001-.149.096-.137.16.021.159.199.28.444.308.133.035.156.124.038.248-.204.213-.477.213-.94.197-.435-.015-.782.513-.526.734.171.148.524.477.22 1.368-.096.27-.26-.247-.4-.165-.36.214-.674-.056-.838-.25-.07-.084-.134-.086-.181 0-.146.251-.525.696-1.292.281-.167-.089-.51.216-.529.113-.125-.597.181-.951.442-1.136.025-.022.126-.157-.044-.153-.26-.013-.575-.098-.61-.414-.006-.067-.331-.051-.314-.142.076-.439 1.041-.756 1.706-.317.562.373 1.269-.895.76-1.49-.366-.428-2.513.769-3.244-.786-.293-.627.075-1.16-.224-1.204-.298-.042-1.647-.335-3.146.87-2.533 2.038-5.278.928-5.924.474-.1-.032-.2.05-.156.152a.73.73 0 0 1-.067.693c-.264.4-1.174.807-1.335.855-1.066.312-.954 1.13-.842 1.491.033.11-.006.177-.122.157-.326-.06-.984-.26-1.244-.902-.028-.073-.102-.076-.19-.013-.397.282-.257.693-.163.876.035.072.015.14-.079.151-.364.044-.624-.38-.937-.35-.204.02-.442.178-.573.268-.064.04-.072.144-.034.26.398 1.182-.255 1.221-.295 1.2-.047-.025-.02-.222-.21-.252-.641.035-.825-.383-.86-.692-.013-.1-.051-.135-.12-.09-.243.17-.841.503-1.217.014-.055-.07-.233.003-.33.045-.078.033-.081-.095-.078-.135.045-.673.5-.977.752-1.095q.138-.064.029-.147c-.203-.15-.561-.476-.448-.83.02-.066-.299-.192-.219-.25.736-.534 1.683.353 1.804.45.127.1.796.121 2.505-.84 1.086-.61 1.655-1.116 1.965-1.5.038-.046.118-.128.226-.13.688-.023 1.37-.126 1.903-.593.087-.093.178-.038.215-.013.977.68 1.482-.825 1.683-1.514.026-.14.056-.255.204-.262 3.6.173 10.421.148 10.421.148s.9.072.852-.487c-.071-.896-3.791-.878-6.57-.495-1.008.14-2.473.22-3.339-.117-.36-.138-.65-.362-.81-.647-.173-.366-.13-.585-.097-.816a2 2 0 0 1 .242-.533c.712-1.1 2.359-1.186 2.87-1.186.099 0 .16-.041.173-.114.052-.254.242-.84.933-.878.195-.013.392-.086.515-.142.082-.037.134-.016.12.056a.54.54 0 0 1-.165.296c-.484.416-.412.607-.355.662.035.026.078.013.114-.022 1.467-1.278 2.322-.431 2.583-.155.042.05.054.127-.03.148-.997.224-1.38 1.114-3.416.97-.247-.016-1.914-.1-2.444.655-.304.439-.092.849.807 1.047.683.15 2.276-.081 3.027-.143.736-.06 3.94-.46 5.622.022.71.203 1.74.774 1.534 1.85-.133.678-.786.946-.786.946s-1.843 1.298 1.465 1.312m-24.06-1.666c-.287-.253.338-1.682-1.04-2.028-.215-.013.093.256.016.32-.4.333-.295.464-.319.663-.008.1-.113.09-.163.07-.291-.197-1.018-.58-1.682.035-.127.116.253.14.243.205-.083.465.214.716.433.834.071.035.071.124.032.182-.073.078-.25.194-.293.387-.027.131-.491.08-.35.23.708.747 1.434.313 1.718.092.201-.202 1.044.03.914.462-.162.548-.12.817.016.72.217-.14.34-.236.637-.236.058 0 .22.037.155.17-.103.254-.214.483-.112.835.042.15.145.115.203.057.34-.47 1.075-.462 1.433-.233.516.332 1.976.797 3.892-1.034.058-.053.061-.264-.107-.201-.522.205-1.115.254-2.08-.239a4 4 0 0 0-.552-.196c-1.196-.255-2.468-.625-2.994-1.096m15.975-3.716s.838-.029 1.385-.512c0 0 .587-.2.929.11.038.036.046.12-.046.137a1.1 1.1 0 0 0-.398.166c-.3.2-1.497.697-1.87.099m-9.012 4.346c-.103.277-.491.185-.699.355-.023.019-.085.019-.104.005-.205-.175-.59-.09-.716-.39-.01-.023-.01-.072.046-.08.273-.03.516-.164.693-.359.015-.018.062-.035.1.011.16.178.385.307.634.347.03.005.075.031.046.111m-2.452-4.965a.435.435 0 0 0-.736.316c0 .138.063.26.16.342.038.024.083.008.09-.006a2.3 2.3 0 0 1 .482-.555c.018-.016.037-.072.004-.097m.314 3.785c0-.194-.362-1.04-.5-1.268-.288-.502.142-1.979.835-2.152.15-.036.225-.255.109-.369-.29-.287-.62-.647-1.06-.647a.977.977 0 0 0-.975.98c0 .619.474.716.441.888-.19.573-.193 1.2.064 1.642.179.306.315.793.422 1.143.066.36.283.666.589.844.152.09.078.207.142.335.029.062.08.102.118.137.065.05.014.06-.038.053-.457-.057-1.158-.25-1.448-.861-.153-.328-.647.828-.94.276a6 6 0 0 1-.593-1.618c-.076-.327-.281.231-.36.037a3.2 3.2 0 0 1-.244-1.173c0-1.447 1.063-2.66 2.49-2.993.276-.063-.32-.523.07-.502.256.015 1.093.017 1.727.326.12.052.194-.178.436-.332.018-.013.075-.035.119-.002.25.155.338.38.458.327.63-.302 1.46-.302 1.712-.32.405-.025-.208.44.07.502 1.43.333 2.491 1.546 2.491 2.993a3.2 3.2 0 0 1-.245 1.173c-.077.195-.281-.363-.358-.037-.14.59-.283 1.03-.593 1.618-.298.552-.788-.604-.942-.276-.275.582-.923.782-1.376.852-.051.006-.1-.001-.037-.06.023-.023.132-.124.162-.33.004-.022-.01-.055.04-.076.34-.163.598-.48.674-.863.107-.355.253-.862.427-1.174.386-.69-.084-1.527.037-1.713a.97.97 0 0 0 .442-.816.98.98 0 0 0-.977-.98.97.97 0 0 0-.73.33l-.027.027a4 4 0 0 0-.254.296c-.089.114-.069.32.084.361.667.174 1.101 1.675.83 2.163-.121.216-.49 1.025-.49 1.26a.543.543 0 0 1-1.054.191s.01-.017.012-.023c.185-.115.59-.36.59-.613l-.08-.823c.331-.04.485-.22.525-.534q.046-.031.086-.065c.111-.102.184-.375-.053-.336-.338.063-.72.05-1.092.153a.14.14 0 0 0-.095.105c-.016.072.201 1.066.25 1.285.003.025-.012.04-.024.04a9 9 0 0 0-.487-.025c-.064.001-.327.016-.484.029-.016 0-.038-.02-.031-.04.05-.235.267-1.223.267-1.223a.18.18 0 0 0-.023-.12c-.072-.093-1.04-.175-1.17-.201a.15.15 0 0 0-.144.057c-.097.137.071.29.178.353.042.305.203.481.524.521.004.004.01.015.014.016-.01.055-.092.815-.092.82 0 .263.4.485.599.602.01.014.024.03.027.05a.57.57 0 0 1-.502.327.543.543 0 0 1-.543-.547m3.126-3.737c.18.153.33.354.456.577.009.023.057.05.083.027a.435.435 0 0 0-.533-.688c-.018.013-.022.07-.006.084" clip-rule="evenodd"/></g><mask id="L" width="140" height="48" x="0" y="26" maskUnits="userSpaceOnUse" style="mask-type:luminance"><path fill="#fff" d="M139.335 26H.741v48h138.594z"/></mask><g mask="url(#L)"><path fill="#fff" d="M42.058 30.443s-9.706-3.01-18.852-3.013c-9.145.003-18.835 3.008-18.853 3.013l-.28.085v18.944c.002 11.005 8.357 20.998 19.129 21.01v-.794c-5.129 0-9.705-2.393-13.011-6.12s-5.328-8.79-5.325-14.096v-2.21a130 130 0 0 1 5.62-.776c3.54-.419 8.21-.835 12.72-.835 4.506 0 9.178.417 12.72.835 2.78.326 4.852.652 5.62.777v2.21c0 5.304-2.021 10.368-5.325 14.095-3.308 3.727-7.883 6.12-13.012 6.12v.794c10.772-.012 19.128-10.005 19.129-21.01V30.528zM23.205 44.858c-7.937 0-16.313 1.272-18.34 1.6V31.115c.27-.079.734-.212 1.359-.377 3.127-.84 10.249-2.516 16.981-2.514 4.486 0 9.151.742 12.686 1.488a84 84 0 0 1 5.655 1.403v15.343c-2.03-.328-10.401-1.6-18.34-1.6"/></g></svg>