<svg xmlns="http://www.w3.org/2000/svg" width="131" height="100" fill="none"><path fill="#000" d="M53.406 46.463c-.102 3.41 2.544 6.26 5.903 6.361h.407c3.766 0 6.565-2.697 6.565-6.717.102-3.359-2.493-6.209-5.903-6.31h-.305c-4.428 0-6.667 3.41-6.667 6.666m1.883-.509c0-3.664 1.985-5.7 4.275-5.7 2.85 0 4.834 2.443 4.834 6.667 0 3.562-1.934 5.547-4.224 5.547-2.951-.05-4.885-2.85-4.885-6.514m13.384-2.748c-.407 0-.61 0-.814-.356h-.153l-.153 2.544h.204c.153-.458.356-.916.61-1.272.204-.305.56-.56 1.884-.56h.763v6.972c0 1.578-.102 1.73-1.476 1.883v.204h4.224v-.204c-1.425-.152-1.578-.356-1.578-1.883v-7.023h1.07c.915 0 1.322.204 1.577.51.254.406.509.864.61 1.373l.204-.05-.153-2.494h-.152a.76.76 0 0 1-.764.356zM79.36 52.57v-.204l-.305-.05c-.815-.153-.916-.357-.713-1.222.204-.712.407-1.425.713-2.137h3.155l.967 2.595c.153.458.102.61-.458.713l-.509.152v.204h3.511v-.204c-.916-.203-1.12-.356-1.577-1.526L82.21 45.8l-1.069-2.748-.203.051-3.003 7.583c-.56 1.374-.712 1.476-1.68 1.73v.204zm1.222-7.735 1.424 3.664h-2.85zm15.012.763-.254-2.24c-.916-.254-1.883-.355-2.8-.355-2.798 0-5.445 1.73-5.445 4.987 0 2.85 2.24 4.783 5.344 4.783a13.7 13.7 0 0 0 3.206-.56c-.05-.457-.102-.864-.102-1.322v-1.018c0-1.018.051-1.12.865-1.323v-.204h-3.715v.204c1.578.203 1.68.356 1.68 1.323v1.374c0 .661-.204.814-.56.967-.407.152-.865.254-1.323.203-2.9 0-3.97-2.544-3.97-4.733 0-2.748 1.476-4.427 3.665-4.427 1.374 0 2.595.509 3.155 2.34zM98.393 47.99a4.61 4.61 0 0 0 4.428 4.784h.305c2.799 0 4.936-2.036 4.936-5.038.102-2.545-1.882-4.632-4.427-4.733h-.254c-3.308-.051-4.988 2.493-4.988 4.987m1.425-.407c0-2.748 1.476-4.275 3.206-4.275 2.138 0 3.614 1.832 3.614 4.987 0 2.697-1.425 4.173-3.207 4.173-2.188-.05-3.613-2.137-3.613-4.885m-20.203-9.16a.8.8 0 0 0-.458.152c-.306.204-.51.56-.51.967-.05.255.153.509.459.56h.05c.204 0 .408-.102.611-.255.255-.254.407-.56.407-.916 0-.254-.203-.458-.458-.508zm-.102.203c.152 0 .254.102.254.407a1.01 1.01 0 0 1-.356.916h-.102c-.152 0-.254-.152-.254-.458a.92.92 0 0 1 .356-.865zm2.951-.102c.102-.712.204-.865.306-.865a.28.28 0 0 1 .254.153q.076.075.153 0c.05-.051.102-.102.102-.153 0-.102-.102-.153-.255-.153a.73.73 0 0 0-.61.306 1.8 1.8 0 0 0-.306.712h-.203l-.102.102v.05h.305l-.152 1.07c0 .305-.102.661-.204.916 0 .05-.05.05-.102.05-.05 0-.102-.05-.152-.05h-.102c-.051.05-.051.101-.051.152 0 .102.102.102.153.102.152 0 .305-.102.407-.254q.381-.535.458-1.222l.152-.814.357-.05.101-.103zm-29.72-6.92v.152c.458.05.51.05.51.661v1.374c0 .713.152 1.12.457 1.375q.459.305 1.069.305c.407 0 .814-.153 1.069-.458.305-.407.458-.916.407-1.425v-.407l.05-1.17q.077-.306.459-.306v-.153H55.34v.153c.407 0 .56.102.56.305.05.407.05.764.05 1.17v.408c0 1.018-.356 1.578-1.068 1.578s-1.018-.51-1.018-1.425v-1.222c0-.61.05-.661.458-.712v-.153zm6.616 0v.152c.51.05.61.152.61.865v1.12l-.05 1.17c-.05.204-.204.305-.509.305v.153h1.425v-.153c-.407-.05-.56-.101-.56-.305-.05-.407-.05-.763-.05-1.17v-1.222l2.442 2.952h.255v-2.188l.05-1.171c.051-.204.204-.305.51-.305v-.153h-1.426v.153c.407 0 .56.102.56.305.051.407.051.763.051 1.17v1.12l-2.392-2.748zM66.23 31.603v.153c.458.05.51.102.51.712v2.036c0 .61-.052.661-.51.712v.153h1.68v-.153c-.458-.05-.51-.102-.51-.712v-2.036c0-.61.052-.661.51-.712v-.153zM70.556 31.603v.153c.356.05.407.05.61.61l1.171 3.054h.254l1.273-3.053c.254-.56.305-.611.661-.611v-.204h-1.374v.153h.153c.254.05.305.102.204.458l-.866 2.29-.966-2.443c-.051-.203-.051-.254.152-.305l.204-.05V31.5zm6.616 0v.153c.458.05.509.102.509.712v2.036c0 .61-.051.662-.56.713v.152h2.9c.051-.152.204-.763.204-.967l-.203-.05q-.077.305-.306.61a.88.88 0 0 1-.712.153c-.204 0-.407 0-.56-.102-.102-.102-.102-.255-.102-.56v-.967h.51c.508 0 .508 0 .559.51h.203v-1.273h-.203c-.051.458-.051.509-.56.509h-.509v-1.273c0-.203 0-.203.255-.203h.305c.356 0 .56.05.662.153.101.152.203.305.203.508h.204l-.051-.916zm6.87.407c0-.203 0-.203.305-.203.407-.051.764.305.815.712v.102q0 .458-.306.763a1.03 1.03 0 0 1-.56.153h-.203V32.01zm-1.17-.407v.153c.457.05.508.102.508.712v2.036c0 .61-.05.662-.509.713v.152h1.68v-.152c-.458-.051-.51-.102-.51-.713v-.763h.205c.152 0 .254.05.356.203l.56.967c.254.356.661.56 1.068.56h.255l.05-.153a1.1 1.1 0 0 1-.407-.254 3.3 3.3 0 0 1-.508-.662c-.204-.254-.408-.661-.51-.865.459-.102.764-.56.815-1.018a.81.81 0 0 0-.407-.712c-.306-.153-.662-.204-.967-.204zm8.498.814-.102-.763c-.05-.05-.152-.05-.254-.102a1.8 1.8 0 0 0-.56-.101c-.61-.051-1.17.356-1.272 1.017v.102c0 .56.509.865.916 1.069l.203.102c.459.203.611.458.611.814s-.254.662-.56.662h-.05c-.611 0-.917-.662-1.07-.968l-.203.051.204.917.356.101c.204.051.407.102.61.102.662.102 1.222-.356 1.324-1.018.102-.61-.305-1.12-.865-1.272l-.153-.05c-.458-.204-.712-.408-.712-.764 0-.306.203-.611.56-.611h.05c.51 0 .713.407.814.763zm2.952-.814v.153c.458.05.509.102.509.712v2.036c0 .61-.051.662-.51.713v.152h1.68v-.152c-.458-.051-.509-.102-.509-.713v-2.036c0-.61.051-.661.51-.712v-.153zm4.58.916c.05-.203.102-.356.204-.509.101-.101.254-.152.763-.152h.203v2.697c0 .61-.05.662-.56.712v.153h1.833v-.153c-.56-.05-.611-.101-.611-.712v-2.697h.305c.357 0 .56.05.662.152.102.153.204.357.204.56h.203l-.051-1.069h-.102c-.101.102-.101.153-.305.153h-2.443c-.152 0-.203 0-.305-.152H98.8l-.05 1.068zm5.751-.916v.153c.305.05.356.05.61.509l.815 1.374c.05.102.101.203.101.305v.56c0 .61-.051.662-.559.713v.152h1.781v-.152c-.56-.051-.56-.102-.56-.713v-.662c0-.101 0-.254.051-.356l.763-1.272c.255-.407.305-.458.662-.509v-.153h-1.323v.153h.254q.305 0 .153.305c-.204.458-.407.916-.662 1.374-.254-.407-.611-1.12-.763-1.374-.102-.203-.102-.254.051-.254l.254-.051v-.153zM53.304 36.743h55.064v-.203H53.304zM53.61 59.491c-.102 0-.204 0-.255-.102h-.051l-.204.815h.051q.076-.23.306-.458c.101-.102.254-.153.661-.153h.204l-.407 2.29c-.102.509-.153.56-.611.61v.052h1.374v-.051c-.458-.051-.509-.102-.407-.61l.407-2.291h.305c.306 0 .458.05.51.153l.152.458h.05l.102-.815h-.05c-.051.102-.153.102-.255.102zm3.358 2.545c-.204.203-.458.356-.763.356-.306 0-.357-.356-.357-.61v-.153c.458-.153 1.273-.407 1.273-.865a.35.35 0 0 0-.357-.357c-.254.051-.508.153-.712.306-.356.305-.56.712-.56 1.17 0 .56.306.713.51.713.406.05.762-.153.966-.56m-1.069-.458c0-.357.153-.662.407-.865.051-.051.153-.051.204-.051.102 0 .255.102.255.203v.051c0 .255-.153.51-.866.662m4.224-2.036h-1.069v.051c.306.05.306.05.357.56l.356 2.544h.102l1.221-2.392.458 2.392h.051l1.221-2.646c.204-.356.204-.407.51-.458v-.05h-.968v.05l.204.05c.153.052.153.103.102.306-.102.407-.61 1.425-.916 2.138l-.458-2.443h-.051l-1.17 2.443-.255-2.036c-.051-.254 0-.305.153-.305l.203-.051zm3.512 3.003c.05-.306.102-.662.203-.967.102-.306.662-.815.916-.815.153 0 .102.153.051.408l-.254 1.12c-.051.254 0 .356.102.356.254-.102.508-.255.661-.459l-.05-.05a.8.8 0 0 1-.357.203c-.05 0-.05-.05 0-.203l.254-1.12c.102-.458-.05-.509-.152-.509-.051 0-.153 0-.204.051a3.3 3.3 0 0 0-.916.763l.407-1.883c0-.101 0-.203-.05-.203s-.408.102-.764.203v.051h.255c.152 0 .152.051.101.255l-.458 2.188-.152.713zm4.122-.407c-.102.101-.255.152-.356.203-.051 0-.051-.05 0-.203l.305-1.578c-.051 0-.102 0-.204-.05-.101 0-.152-.052-.254-.052-.356.051-.662.153-.916.407a1.77 1.77 0 0 0-.509 1.273c0 .407.153.509.305.509.153-.051.255-.153.407-.204.255-.204.459-.407.662-.662l-.102.611c-.05.204.051.305.102.305.254-.101.509-.254.712-.458zm-.713-1.476c.102 0 .204 0 .306.05-.051.255-.102.56-.204.815a1.8 1.8 0 0 1-.356.509c-.102.152-.255.254-.458.356-.102 0-.102-.153-.102-.305 0-.255.051-.56.153-.815a.8.8 0 0 1 .407-.508c.05-.051.153-.051.254-.102m1.73 1.883.153-.916c.051-.204.153-.357.255-.51.102-.152.203-.203.254-.203s.102 0 .153.051c.05.051.05.051.102 0 .05-.05.102-.102.102-.153q.075-.075 0-.152c-.051-.051-.102-.102-.204-.102s-.407.305-.662.814l.051-.407c.051-.254.051-.407-.05-.407a1.65 1.65 0 0 0-.662.509l.05.05c.102-.101.204-.203.357-.254.05 0 .05.102 0 .356l-.153.764-.152.763zm2.749-.51c-.204.204-.458.357-.764.357-.305 0-.356-.356-.356-.61v-.153c.458-.153 1.221-.407 1.221-.865a.35.35 0 0 0-.356-.357h-.05c-.255.051-.51.153-.713.306-.356.305-.56.712-.56 1.17 0 .56.306.713.509.713.509.05.865-.153 1.069-.56m-1.069-.457c0-.357.153-.662.407-.865.051-.051.153-.051.204-.051.102 0 .254.102.254.203v.051c.051.255-.153.458-.865.662m4.224-2.036h-1.069v.051c.306.05.306.05.357.56l.356 2.544h.05l1.222-2.392.458 2.392h.05l1.222-2.646c.204-.356.204-.407.56-.458v-.05h-.967v.05l.204.05c.152.052.152.103.102.306-.102.407-.611 1.425-.917 2.138l-.458-2.443h-.05l-1.222 2.443-.254-2.036c-.051-.254 0-.305.152-.356l.204-.051zm4.682 2.596c-.102.101-.255.152-.356.203-.051 0-.051-.05 0-.203l.305-1.578c-.05 0-.102 0-.204-.05-.101 0-.152-.052-.254-.052-.356.051-.662.153-.916.407a1.77 1.77 0 0 0-.509 1.273c0 .407.153.509.305.509.153-.051.255-.153.407-.204q.383-.306.611-.763l-.102.61c-.05.204.051.306.102.306q.306-.153.61-.458m-.763-1.476c.101 0 .203 0 .305.05-.051.255-.102.56-.204.815a1.8 1.8 0 0 1-.356.509c-.102.152-.305.254-.458.356-.102 0-.102-.153-.102-.305 0-.255.051-.56.153-.815a.8.8 0 0 1 .407-.508c.051-.051.153-.051.255-.102m1.475 1.883c.051-.306.102-.611.204-.916.153-.255.712-.865.967-.865.153 0 .102.152.05.407l-.254 1.12c-.05.254-.05.356.051.356.255-.102.51-.255.662-.459l-.051-.05a.8.8 0 0 1-.356.203c-.051 0-.051-.05 0-.203l.254-1.12c.102-.458-.05-.509-.102-.509-.05 0-.152.051-.203.051a3.7 3.7 0 0 0-.967.814l.102-.458c.05-.254.05-.407-.051-.407-.255.102-.51.305-.713.509l.051.05c.102-.1.204-.203.356-.254q.076 0 0 .306l-.203.763-.204.764zm4.123-.407c-.102.101-.255.152-.357.203-.05 0-.05-.05 0-.203l.306-1.578c-.051 0-.102 0-.204-.05-.102 0-.153-.052-.254-.052-.357.051-.662.153-.916.407a1.77 1.77 0 0 0-.51 1.273c0 .407.153.509.306.509.153-.051.254-.153.407-.204.255-.204.458-.407.662-.662l-.102.611c-.051.204.05.305.102.305.254-.101.509-.254.712-.458zm-.764-1.425c.102 0 .204 0 .306.05-.051.255-.102.56-.204.815a1.8 1.8 0 0 1-.356.509c-.102.152-.306.254-.458.356-.102 0-.102-.153-.102-.305 0-.255.05-.56.153-.815a.8.8 0 0 1 .407-.509c.101-.05.203-.101.254-.101m1.73 1.883c.051-.306.102-.611.204-.916.153-.255.712-.866.967-.866.153 0 .102.153.05.407l-.254 1.12c-.05.255-.05.356.051.356.255-.101.51-.254.662-.458l-.051-.05a.8.8 0 0 1-.356.203c-.051 0-.051-.05 0-.204l.254-1.12c.102-.457-.05-.508-.102-.508-.101 0-.152 0-.203.05-.356.204-.713.459-.967.815l.102-.458c.05-.254.05-.407-.051-.407-.255.102-.51.305-.713.509l.051.05c.102-.101.204-.203.356-.254.051 0 0 .102 0 .306l-.203.763-.204.763zm3.257-1.425c0 .458-.305.763-.509.763-.203 0-.305-.153-.305-.509 0-.153.051-.356.102-.509.05-.152.203-.203.356-.203.255 0 .356.203.356.458m-.712 1.526c.05 0 .153.102.305.204.153.102.357.254.357.407 0 .255-.306.356-.611.356-.306 0-.61-.102-.61-.407.05-.203.203-.407.559-.56m1.425-2.137c-.204.05-.407.102-.61.102-.103-.102-.204-.102-.357-.102-.255.05-.458.102-.61.254-.204.204-.357.458-.357.713s.204.509.458.56c-.204.152-.305.203-.305.254s.05.153.203.255c-.509.254-.814.509-.814.712 0 .356.407.509.763.509s1.07-.204 1.07-.662c0-.152-.154-.356-.459-.56-.204-.101-.458-.254-.458-.356s.05-.101.102-.101l.61-.306c.204-.152.306-.407.306-.661 0-.102 0-.204-.051-.255h.102c.152-.05.305-.102.407-.203zm2.137 1.628c-.102.102-.254.153-.356.204-.05 0-.05-.05 0-.204l.305-1.577c-.05 0-.101 0-.203-.051-.102 0-.153-.05-.255-.05-.356.05-.661.152-.916.406a1.77 1.77 0 0 0-.509 1.273c0 .407.153.508.306.508.153-.05.254-.152.407-.203.254-.255.458-.51.61-.814l-.101.61c-.051.204.05.306.102.306.254-.102.508-.255.712-.458zm-.763-1.425c.102 0 .204 0 .305.051-.05.255-.102.56-.203.815a1.8 1.8 0 0 1-.356.509c-.102.152-.255.254-.459.356-.101 0-.101-.153-.101-.306 0-.305.05-.661.152-.916a.8.8 0 0 1 .407-.508c.102-.051.204-.051.255-.051m3.766-.255a.86.86 0 0 0-.51.153c-.457.305-.712.763-.66 1.323 0 .356.152.713.56.713.254-.051.508-.153.712-.306.305-.305.508-.763.508-1.17a.575.575 0 0 0-.508-.662c-.051-.05-.102-.05-.102-.05m.203.713c.051.458-.152.967-.508 1.272-.051 0-.102.05-.153.05-.306 0-.407-.305-.407-.66a1.28 1.28 0 0 1 .509-1.171c.05-.051.101-.051.152-.051.255 0 .407.153.407.56m2.341.101c-.05.662.458 1.273 1.12 1.324h.153c1.017 0 1.78-.815 1.78-1.832v-.051c.052-.713-.457-1.273-1.17-1.374h-.152c-.967.101-1.782.916-1.73 1.933m.407.051c0-.763.459-1.832 1.324-1.832.661 0 .916.611.916 1.222 0 .763-.458 1.78-1.273 1.78-.661.052-.916-.559-.966-1.17m3.614-.61-.306 1.374c-.051.356 0 .509.102.509.204 0 .611-.357.764-.56l-.051-.051c-.102.102-.357.305-.458.305s-.051-.102 0-.356l.254-1.272h.509l.153-.102h-.611l.153-.61-.051-.052-.357.306-.101.356h-.306l-.101.102v.05zm3.053 1.374c-.102.101-.254.152-.356.203-.051 0-.051-.05 0-.203l.305-1.578c-.051 0-.102 0-.203-.05-.102 0-.153-.052-.255-.052-.356.051-.661.153-.916.407a1.77 1.77 0 0 0-.509 1.273c0 .407.153.509.306.509.152-.051.254-.102.407-.204a4 4 0 0 0 .661-.662l-.101.611c-.051.204.05.306.101.306.255-.102.509-.255.713-.459zm-.763-1.476c.102 0 .203 0 .305.05-.051.255-.102.56-.203.815a1.8 1.8 0 0 1-.357.509c-.101.153-.254.254-.458.356-.101 0-.101-.153-.101-.305 0-.255.05-.56.152-.815a.8.8 0 0 1 .407-.508c.102-.051.204-.051.255-.102m2.544.509c0 .458-.305.763-.509.763-.203 0-.305-.153-.305-.509 0-.203.051-.356.153-.509.051-.152.203-.203.356-.203.204-.051.305.152.305.458m-.712 1.527.305.203c.204.153.356.255.356.407 0 .255-.305.356-.61.356-.306 0-.611-.101-.611-.407.051-.254.204-.407.56-.56m1.425-2.138c-.204.051-.407.102-.611.102-.102-.102-.203-.102-.356-.102a.94.94 0 0 0-.611.255c-.203.203-.356.457-.356.712s.204.509.458.56c-.204.152-.305.203-.305.254s.051.153.203.255c-.509.254-.814.509-.814.712 0 .356.407.51.763.51s1.069-.205 1.069-.663c0-.152-.153-.356-.458-.56-.204-.101-.458-.254-.458-.355 0-.102.051-.102.102-.102l.61-.306c.204-.152.306-.407.306-.661 0-.102 0-.204-.051-.255h.102c.152-.05.305-.102.407-.203zm1.323 0a.86.86 0 0 0-.509.153 1.54 1.54 0 0 0-.712 1.323c0 .356.152.712.61.712.255-.05.509-.152.713-.305.305-.305.509-.763.509-1.17.051-.306-.204-.611-.509-.662 0-.05-.051-.05-.102-.05m.254.712c.051.459-.152.968-.509 1.273-.05 0-.101.05-.152.05-.306 0-.407-.305-.407-.66a1.28 1.28 0 0 1 .509-1.171c.05-.051.101-.051.152-.051.255 0 .407.203.407.56M77.986 60.05h1.323v-.254h-1.323zm24.478 0h1.324v-.254h-1.324z"/><path fill="#00508F" d="M47.146 61.476V56.08l-.254.102-4.224 2.138v5.801h-16.54v-5.547l-4.478-2.239v5.394l1.222.764L21.7 64.07h-.05V68.5h25.495v-4.377h-.05l-1.324-1.78z"/><path fill="#fff" d="m46.688 64.122-3.664-4.937v4.937zm-20.865 0v-4.886l-3.664 4.886zM46.841 68.194H22.006v-3.716h24.835z"/><path fill="#00508F" d="M25.365 65.75a1 1 0 0 0-.407-.101c-.305 0-.509.153-.509.407 0 .407.763.458.763.763 0 .102-.101.204-.254.204a.65.65 0 0 1-.458-.204v.255a.86.86 0 0 0 .509.153c.254.05.458-.153.509-.357v-.05c0-.459-.764-.459-.764-.764 0-.102.102-.203.255-.203.152 0 .305.05.407.152zM26.79 65.649h-.153l-.763 1.527h.255l.203-.458h.763l.255.458h.254zm-.05.356.254.56h-.56zM28.113 65.649v1.527h.255v-.662h.254c.407 0 .56-.203.56-.407s-.153-.458-.56-.458zm.255.204h.305c.255 0 .305.101.305.254s-.101.254-.305.254h-.305zM30.76 65.649h-.967v1.527h1.018v-.204h-.764v-.458h.713v-.203h-.713v-.459h.764zM31.421 65.649v1.527h.255v-.662h.101c.102 0 .255.051.458.356l.255.306h.305l-.254-.306c-.102-.152-.204-.305-.407-.407.152-.05.305-.203.305-.356 0-.254-.204-.407-.56-.407zm.255.204h.152c.255 0 .357.101.357.203s-.051.255-.357.255h-.152zM34.27 65.649h-.966v1.527h1.018v-.204h-.764v-.458h.713v-.203h-.713v-.459h.713zM37.528 65.649h-.153l-.763 1.527h.254l.204-.458h.712l.255.458h.254zm-.051.356.305.56h-.56zM40.276 65.649h-.254v.865c0 .102 0 .255-.102.356a.4.4 0 0 1-.407.102.74.74 0 0 1-.356-.102c-.102-.05-.102-.152-.102-.305V65.7H38.8v.967c0 .407.357.61.713.61.509 0 .763-.254.763-.61zm.713 1.527h.661c.458.05.865-.255.916-.713v-.05c0-.357-.305-.764-.916-.764h-.661zm.254-1.323h.407c.51 0 .713.254.713.56 0 .203-.153.56-.713.56h-.407zM44.246 65.649h-.967v1.527h1.017v-.204h-.763v-.458h.712v-.203h-.712v-.459h.712z"/><path fill="#fff" d="m45.62 62.086 1.221-.763v-4.682l-3.817 1.883v.051zM25.72 58.78l-3.715-1.883v4.682l1.069.661z"/><path fill="#00508F" d="M47.045 31.45H21.803v16.896c0 7.735 12.01 13.893 12.519 14.148l.102.05.101-.05c.51-.255 12.774-6.616 12.774-14.708V31.45z"/><path fill="#FFC20E" d="m45.11 53.13-6.87-7.787 8.652-9.669v-3.867H42.82l-8.396 9.313-8.245-9.313h-4.02v3.97l8.499 9.617-6.972 7.787c1.068 1.577 2.29 3.002 3.766 4.224l7.022-7.787 6.87 7.736a21.3 21.3 0 0 0 3.767-4.224"/><path fill="#00508F" d="m38.19 41.781-1.12-1.12h-6.209v7.532l.967.916v1.018h1.323v-.763h5.039z"/><path fill="#FFC20E" d="M31.37 48.244h.458v.407zm6.464.764H33.1v-.764h3.97V41.17l.763.764z"/><path fill="#EE312F" d="M32.133 49.873h.611v-1.527h-.61z"/><path fill="#00508F" d="m34.27 32.824-.66 1.17h-1.63l.815 1.426-.814 1.425h1.628l.814 1.425.815-1.425h1.68l-.815-1.425.814-1.425h-1.68l-.814-1.425z"/><path fill="#FFC20E" d="m33.864 34.25.56-1.019.61 1.12h1.273l-.662 1.069.61 1.12h-1.272l-.61 1.119-.611-1.12H32.49l.661-1.068-.661-1.12h1.272z"/><path fill="#00508F" d="m34.27 53.588-.66 1.17h-1.63l.815 1.425-.814 1.476h1.628l.814 1.425.815-1.425h1.68l-.815-1.425.814-1.476h-1.68l-.814-1.425z"/><path fill="#FFC20E" d="m33.864 55.013.56-1.018.61 1.12h1.273l-.662 1.068.61 1.07h-1.272l-.61 1.119-.611-1.12H32.49l.661-1.069-.661-1.068h1.272z"/><path fill="#00508F" d="m25.518 42.494-.662 1.17h-1.68l.815 1.425-.814 1.425h1.628l.814 1.476.815-1.425h1.628l-.814-1.425.865-1.425h-1.68l-.814-1.476z"/><path fill="#FFC20E" d="m25.06 43.919.56-1.018.61 1.12h1.273l-.662 1.068.61 1.12H26.18l-.61 1.12-.61-1.12h-1.273l.61-1.12-.61-1.069h1.272z"/><path fill="#00508F" d="m43.126 42.494-.662 1.17h-1.628l.814 1.425-.814 1.425h1.628l.815 1.425.814-1.425h1.628l-.814-1.425.865-1.425h-1.68l-.864-1.425z"/><path fill="#FFC20E" d="m42.668 43.919.56-1.018.61 1.12h1.273l-.662 1.068.61 1.12h-1.271l-.611 1.12-.61-1.12h-1.273l.662-1.069-.611-1.069h1.272z"/><path fill="#EE312F" d="M36.714 47.888h-5.496v-6.82h5.547v6.82z"/><path fill="#00508F" d="m33.864 42.087-.662 1.17h-1.68l.815 1.425-.814 1.425h1.628l.815 1.425.814-1.425h1.68l-.815-1.425.865-1.425h-1.68l-.813-1.425z"/><path fill="#FFC20E" d="m33.406 43.512.56-1.018.61 1.12H35.9l-.662 1.119.662 1.069h-1.273l-.61 1.12-.662-1.171h-1.272l.61-1.07-.61-1.068h1.272z"/><path fill="#000" d="M56.205 65.75c-.255 0-.356.051-.356.255v2.443h-.153l-1.832-2.24v1.782c0 .203.102.254.407.305v.102h-1.018v-.102c.255 0 .356-.05.356-.305s.051-.51.051-.713v-.967c0-.305 0-.305-.101-.458a.58.58 0 0 0-.408-.152v-.102h.611l1.781 2.137v-1.017l-.05-.713c0-.204-.102-.254-.408-.254v-.102h1.018zm4.936 1.985-.152.662h-2.087v-.102c.407-.05.407-.05.407-.407v-1.73c0-.407-.05-.407-.356-.458v-.102h1.934c0 .102 0 .407.05.61h-.101a.46.46 0 0 0-.153-.356c-.05-.102-.152-.102-.509-.102h-.356c-.153 0-.153 0-.153.153v.967h.407c.408 0 .408-.05.459-.305h.101v.814h-.101c-.051-.305-.102-.356-.459-.356h-.407v.814c0 .204 0 .305.102.356.153.051.305.051.458.051.306 0 .458-.05.56-.153.102-.101.153-.254.204-.407zm6.616-1.984c-.305.05-.356.05-.458.407l-.713 2.29h-.152l-.713-2.138-.712 2.138h-.102l-.712-2.29c-.102-.357-.153-.407-.407-.407v-.102h1.068v.102c-.305.05-.305.05-.254.305l.509 1.781.712-2.137h.102l.763 2.137.51-1.73c.05-.255.05-.306-.306-.356v-.102h.967zm8.55 1.933-.153.713h-2.188l-.051-.051 1.78-2.545h-.762c-.459 0-.51.051-.611.153-.051.102-.102.255-.153.356h-.102l.051-.814h.102c.051.102.102.102.204.102h1.73l.05.05-1.78 2.545h.712c.56 0 .713-.05.814-.152.102-.153.204-.306.204-.458zm4.885.051-.153.662h-2.086v-.102c.407-.05.407-.05.407-.407v-1.73c0-.407-.05-.407-.356-.458v-.102h1.934c0 .102 0 .407.05.61h-.101a.46.46 0 0 0-.153-.356c-.05-.102-.203-.102-.509-.102h-.305c-.153 0-.153 0-.153.153v.967h.407c.407 0 .407-.05.458-.305h.102v.814h-.05c-.052-.305-.103-.356-.459-.356h-.407v.814c0 .204 0 .305.102.356.153.051.305.051.458.051.305 0 .458-.05.56-.153.101-.101.152-.254.203-.407zM85.67 68.397v-.102c.255-.05.306-.05.255-.255l-.255-.661h-.916l-.203.56c-.102.254-.051.305.254.356v.102h-.916v-.102c.255-.05.306-.05.51-.458l.864-2.24.153-.05.814 2.29c.153.356.204.407.458.458v.102zm-.458-2.29-.407 1.068h.814zM91.523 67.735l-.153.662h-1.934v-.102c.357-.05.408-.05.408-.407v-1.73c0-.357 0-.408-.357-.408v-.101h1.12v.101c-.356.051-.407.051-.407.408v1.679c0 .254 0 .305.102.356.152.051.254.051.407.051.254 0 .407 0 .458-.153.102-.101.153-.254.203-.407zm4.428.662v-.102c.254-.05.305-.05.254-.255l-.254-.661h-.916l-.204.56c-.102.254-.051.305.254.356v.102h-.916v-.102c.255-.05.306-.05.458-.458l.916-2.24.153-.05.814 2.29c.153.356.204.407.458.458v.102zm-.408-2.29-.407 1.068h.815zm7.125-.357c-.254 0-.356.051-.356.255 0 .254-.051.458-.051.712v1.73h-.153l-1.832-2.239v1.07l.051.712c0 .203.102.254.407.305v.102h-1.018v-.102c.255 0 .357-.05.408-.305v-1.68c0-.305 0-.305-.102-.458a.58.58 0 0 0-.407-.153v-.101h.61l1.781 2.137v-1.018l-.05-.712c0-.204-.102-.255-.408-.255v-.101h1.018zm3.97-.152c.458-.051.865.102 1.221.356.254.255.356.56.356.916.051.458-.153.865-.509 1.12-.356.254-.814.407-1.272.356h-1.018v-.102c.356-.05.407-.05.407-.407v-1.68c0-.356-.051-.407-.356-.407v-.101h1.171zm-.458 2.239c0 .305.152.407.458.407.712-.05 1.221-.712 1.17-1.425-.051-.356-.204-.712-.509-.916-.203-.102-.458-.204-.712-.153-.102 0-.255 0-.357.051-.05.051-.05.051-.05.255z"/></svg>