<svg xmlns="http://www.w3.org/2000/svg" width="130" height="100" fill="none"><g clip-path="url(#a)"><path fill="#00356B" d="m74.921 38.846-8.405 14.167v9.528c.975 2.295 3.418 2.592 5.763 2.708v1.32H55.8v-1.32c2.345-.1 5.202-.463 5.961-1.982v-9.841l-8.553-14.48c-1.486-2.445-2.906-3.27-5.763-3.468v-1.321h14.316v1.32c-2.708.15-3.567.661-4.326 1.272l7.942 13.754 7.794-13.705c-.81-.61-1.883-1.172-4.59-1.32v-1.321h12.235v1.32c-2.741.1-4.475 1.024-5.895 3.369m16.71 28.186c-2.757 0-4.078-1.883-4.177-3.203-1.734 1.832-3.98 3.203-6.11 3.203-2.757 0-5.102-1.684-5.102-4.59 0-1.42.363-2.907 1.073-4.079l10.139-3.666v-3.764c0-2.295-1.074-4.492-3.369-4.492-1.37 0-2.708 1.685-2.807 4.277l-4.59.76v-.512c1.535-4.59 6.572-6.374 9.015-6.374 4.64 0 6.324 2.444 6.275 6.225l-.149 10.7c-.05 2.097 1.074 2.592 2.097 2.592.81 0 1.635-.512 2.593-1.47v1.47c-1.123 1.338-3.105 2.923-4.888 2.923M81.443 58.71c-.198.809-.363 1.535-.363 2.642 0 1.535.859 3.054 2.543 3.054 1.535 0 2.394-.512 3.764-1.585l.05-6.885c-1.304.644-4.574 2.064-5.994 2.774m15.538 7.86v-1.173c2.295-.148 2.956-.66 3.368-1.536V37.46c0-1.734-.247-2.444-3.764-2.758v-1.023l9.312-2.328.314.858-1.47 1.833v29.82c.512 1.024 1.47 1.371 3.567 1.536v1.172zm23.546.396c-5.35 0-9.478-4.227-9.478-10.139 0-7.232 4.442-12.185 10.7-12.185 5.052 0 7.843 2.856 7.843 7.397v.925l-13.755-.1c-.099.562-.148 1.487-.148 2.593 0 5.201 3.269 8.62 7.595 8.62 2.593 0 3.93-.925 5.961-2.643l.76 1.173c-2.906 2.625-5.301 4.359-9.478 4.359m.462-20.74c-2.543 0-4.326 2.032-4.937 5.252l8.966-.1c0-2.707-1.684-5.151-4.029-5.151"/><path fill="#222" d="M6.161 25.976c-.129 3.87-.064 7.934-.064 11.868 0 2.451-.13 5.096.064 7.547.258 3.289.323 5.869 1.355 8.19 2.193 4.838 7.61 7.87 12.835 9.676.838.322 1.677.516 2.58.774.193.064.516.258.71.258.515.064 2.58-.774 3.095-.968 5.29-1.806 11.159-5.095 13.287-10.062.903-2.128 1.032-4.385 1.226-7.352.129-2.129.064-4.515.064-6.708V25.912zm38.958 32.96c-.452.064-1.613 1.096-2.064 1.354-1.677.903-3.354 1.87-5.225 2.58 0 .903-.129.903.516.58 2.129-.903 3.87-2 5.805-3.031-.129.322-.71 2.58-.645 2.902s1.677 1.935 2 2.193c-.968.258-1.613.71-2.58 1.032 0 .065-.065.194-.065.323 0 .193.065.387.258.387.71 0 2.645-1.29 3.419-1.548-.387-.258-2.322-2.193-2.387-2.58-.064-.323.516-2.451.58-2.838.13-.452.323-.903.388-1.29.064 0 .129-.13 0-.065m-42.828.193c-.129 0 .323 1.225.387 1.612.065.387.58 2.387.516 2.645-.064.322-2.064 2.322-2.386 2.58.193.064.322.064.516.129 1.032.451 1.935 1.032 3.031 1.419.13-.58.194-.645-.322-.903-.645-.258-1.29-.71-2.064-.903.774-.645 1.29-1.484 2-2.193-.259-.774-.323-1.742-.581-2.58l-.13-.323s.065-.064.452.194a28 28 0 0 0 3.87 2.064c.58.258 1.226.516 1.806.774 0-.194.065-.516.065-.774-1.613-.774-3.16-1.42-4.709-2.258-.71-.387-1.419-.838-2.128-1.29 0 0-.194-.193-.323-.193m39.603 3.676c-1.29.903-2.967 1.484-4.58 2.064-2.58.968-5.482 1.935-8.643 2.258-8.965.903-17.543-.774-23.09-4.128 0 1.935-.58 5.547-1.226 6.966.774.193 1.355.516 2.064.774 1.29.451 2.58.967 3.87 1.419 5.547 1.677 13.61 2.45 20.382 1.354 2.838-.451 5.611-1.096 8.062-2 1.42-.515 2.774-1.354 4.322-1.676-.323-.645-.387-1.355-.516-2.129-.258-1.548-.645-3.16-.645-4.902"/><path fill="#00356B" d="M40.281 26.815c-7.804-.065-15.996.064-23.93.064h-6.32c-.968 0-2.064.064-2.967-.065.258 1.677.064 3.806.064 5.612v9.481c0 5.418.065 10.062 2.322 13.094 1.613 2.193 3.806 3.805 6.257 5.16 1.935 1.096 4.063 1.87 6.385 2.644.387.13 1.161.516 1.548.58.258 0 .71-.322.968-.386 1.677-.452 3.096-1.032 4.579-1.677 3.677-1.677 7.353-3.806 9.288-7.224.258-.387.387-.839.58-1.226.13-.258.258-.58.388-.838.064-.194.064-.258.064-.387.065-.194.129-.387.194-.645.064-.194.064-.387.129-.645.064-.258.064-.516.129-.774a5.7 5.7 0 0 0 .128-1.097c0-.258.065-.58.065-.967.129-1.677.065-3.548.065-5.225V32.168c0-1.613-.065-3.547.064-5.031 0-.129.322-.323 0-.323"/><path fill="#222" d="M33.38 32.555c-.71.323-1.484.71-2.516.774-3.483.323-6.643-1.225-7.224 2.387-.258-3.612-3.934-2.129-7.224-2.387-.967-.064-1.741-.387-2.386-.774-.323.58-.774 1.097-1.161 1.613-.452-.065-.903-.065-1.355-.065.258 1.677.065 3.677.065 5.418v12.836h6.579c1.16 0 2.644.129 3.483-.194-.516 1.419 0 2.064 1.741 2.064 1.87 0 3.032-.258 2.322-2.064.968.258 2.387.194 3.677.194h6.45V34.039c-.452 0-.903 0-1.29.064-.387-.516-.839-1.032-1.161-1.548m3.676 1.226c-.064 0-.064.064-.064.129.129.838.193 1.87.129 2.838-.065.774-.065 1.16-.904 1.096v.323c.517.129 1.097.193 1.806.193 0 .13 0 .194-.064.323-.258.516-1.161.322-1.742.258 0 .129.065.322.065.387.452.064 1.161.258 1.548.064 1.032-.516.71-3.999 1.032-5.418-.71.452-.839.645-1.483.065-.13 0-.258-.258-.323-.258m-26.703.387c-.838.645-.774.645-1.677.193.194 1.42 0 4.902 1.161 5.225.452.129.968-.065 1.355-.13 0-.064.064-.257.064-.386-.903.129-1.29.193-1.806-.323v-.258c.645-.064 1.29-.064 1.806-.258v-.258c-.193 0-.451 0-.58-.064-.58-.194-.323-2.967-.323-3.741m0 9.74c-.193.193-.387.45-.58.644-.387.323-.774-.129-1.097-.387.065.903.194 4.064.516 4.58.258.387.839.451 1.42.387.838-.13.773-.516-.13-.387-.645.064-.903-.065-1.096-.58l.064-.13c.645 0 1.29 0 1.742-.129-.194-.71-.452 0-.71-.387-.387-.58-.193-2.902-.129-3.612m26.574.386c.129.71.258 3.032-.065 3.548-.322.387-.58-.323-.773.387.516.129 1.096.129 1.741.129l.065.129c-.194.516-.452.645-1.097.58-.968-.129-.967.323-.129.387.645.065 1.161 0 1.419-.387.322-.516.451-3.676.516-4.58-.258.194-.71.646-1.096.388-.194-.065-.388-.387-.581-.58"/><path fill="#fff" d="M32.864 33.265c-.71.386-1.677.709-2.903.644-1.548-.064-3.87-.451-4.966.258-.516.323-.903.968-1.097 1.677-.064.323 0 .58-.064.903-.323 4.515-.065 9.288-.065 13.868 1.355-2.645 5.096-1.032 7.998-1.935.323-.13.903-.258 1.097-.516.258-.323.064-2.387.064-2.967V33.2c.065.064-.064.064-.064.064m-18.511.064v11.868c0 .58-.194 2.644.064 3.031.451.774 3.29.903 4.644.774 2.193-.193 3.74.13 4.386 1.548V40.23c0-1.419.193-3.16-.065-4.386-.129-.58-.451-1.096-.838-1.419-1.42-1.16-4.192-.258-6.45-.451-.645-.129-1.226-.451-1.742-.645m23.026 1.29c.064 1.032.064 2.257-.065 3.225.194.064.387.064.71.064.258-.903.129-2.193.258-3.225-.516.387-.452.452-.903-.064m-27.412.258c-.516.451-.323.516-.903.064.129 1.032.064 2.193.258 3.225.258 0 .516-.064.709-.064 0-.194-.064-.452-.064-.58-.065-.904 0-1.936 0-2.645m26.186 3.29v.773c.645.065 1.548.258 1.742-.258.064-.129 0-.193.064-.322-.645 0-1.29-.065-1.806-.194m-24.961.064c-.516.129-1.161.193-1.806.258v.258c.516.516.903.451 1.806.322zm-1.225 6.514c-.452.58-.323.516-.903.065.129.903.129 1.87.258 2.709h.709c0-.839-.064-1.87-.064-2.774m27.347.387c-.064.903-.064 1.935-.064 2.838h.71c.128-.903.193-1.87.257-2.709-.58.387-.451.452-.903-.129m-26.122 2.774c-.516.129-1.097.129-1.741.129l-.065.129c.194.516.452.645 1.097.58h.58zm24.897.322.064.903c.13-.064.323-.064.645-.064.645.064.903-.065 1.097-.58l-.065-.13c-.645.065-1.29 0-1.741-.129m-14.061 4c.064.257.064.709.258.902.322.516 2.064.516 2.644.194.323-.194.323-.774.452-1.097 0 0-.258 0-.194.065-.838.645-2.322.451-3.16-.065m19.156 11.738c-8.707 5.418-26.315 5.483-35.087.065.193 1.225-.387 4.515-.839 5.418.774.193 1.42.645 2.129.903 1.225.451 2.515.903 3.805 1.29 5.16 1.483 12.513 2.064 18.705 1.16 2.838-.386 5.547-1.031 7.998-1.934.903-.323 1.806-.71 2.709-1.032.516-.194.838-.516 1.483-.58-.451-.904-.838-3.935-.903-5.29"/><path fill="#FABD0A" d="M33.444 33.587c.194 1.226.065 2.838.065 4.193v7.804c0 .968-.194 2.193 0 3.16.064.452.58.968.774 1.29.193.323.451.581.645.84-.194-1.678-.065-3.677-.065-5.483V35.07c-.645-.194-1.032-.903-1.419-1.484m-19.479.065h-.064c-.129.064-.129.387-.258.516-.258.451-.645.774-1.161 1.032v10.449c0 1.612.129 3.418-.064 4.902 0 .129-.065.516.064.451.194-.064 1.354-1.935 1.419-2.257.194-1.032 0-2.258 0-3.29v-8.062c0-1.161-.129-2.516.065-3.612.064.064.064-.065 0-.13m18.899 15.157c-.58.323-1.226.58-2.064.71-2.064.193-4.644-.387-5.934.516-.645.451-.968 1.225-1.032 2.064.387-.13.774-.194 1.096-.387.13-.065.323-.323.452-.387.451-.065 1.225.193 1.87.129 1.226-.065 2.645.064 4-.065.902-.064 2.386-.193 3.224.065-.451-.839-1.096-1.677-1.612-2.645m-18.447.13c-.451 1.096-1.097 1.87-1.742 2.837.581-.258 1.548-.258 2.451-.258 2 0 4.322.258 6.257 0 .064 0 .387-.193.451-.193.065 0 .323.322.387.387.323.193.774.322 1.161.387-.064-1.032-.451-1.742-1.225-2.193-1.355-.774-3.935-.13-5.87-.387-.644 0-1.225-.323-1.87-.58"/><path fill="#222" d="M15.578 36.425c-.71.58-.58 1.42.129 1.742-.194.258-.516.58-.58.967-.065.645.193 1.032-.065 1.548 0 0 0 .065.065.13.128-.259.451-.517.515-.84.065-.45-.128-.902 0-1.29.065-.322.387-.644.581-.902.645.322 1.806.58 1.419 1.548-.064.129-.129.322-.258.387-.323.129-.968.064-1.355.064a4.2 4.2 0 0 0-.258.839c.065 0 .323-.065.323-.065 1.29 0 1.354.194 1.741-.838.13-.452.452-1.097.387-1.677-.129-.839-1.483-.452-1.419-1.742-.387.323-.58 1.29-1.16.774-.13-.064-.13-.387-.065-.645m3.16.065c-.128.71-.258 1.419.452 1.677-.194.58-.13.967-.065 1.677-.838.193-.709.064-.902.903 1.934 0 1.483-.387 1.16-1.742-.193-.838.194-1.16 1.097-.903.451.13.258 2 .258 2.58.387-.129.451-.387.645-.71-.452-.45-.13-2.515-.58-2.708-.968-.452-1.742.58-2.065-.774m12.965 0c-.13.193-.387.387-.452.58-.193.774.839.58.258 1.355-.838-.323-1.741-.71-1.677-1.87-.193.128-.322.257-.387.45-.258.84.258 1.355.774 1.678-.129.064-.258.193-.387.258-.322.322-.258.774-.193 1.354-.065 0-.258.065-.323.065-.064.064 0 .193-.064.258.58.064 1.354.193 1.225-.58-.064-.194-.322-.388-.322-.581-.065-.323.064-.452.193-.645.774.387 1.87.774 1.355 1.806.258-.065.193.064.322-.13.452-.644.516-1.29-.129-1.74-.064-.065-.258-.194-.258-.194.387-.258.903-.839.452-1.355-.065-.064-.323-.193-.323-.322-.064-.258.13-.194-.064-.387m-10.127.064c-.322.774-.387 1.677.71 1.613-.13.774 0 1.741-.13 2.515.452-.064.517-.387.71-.774-.064-.064-.129-.064-.193-.129-.13-.258-.194-1.225-.065-1.612.065-.194.387-.194.258-.645-.129-.452-.967-.13-1.16-.58 0-.065-.13-.388-.13-.388m5.999 0c-.258.71-.387 1.742.71 1.548-.13.516-.388 3.548.386 2.129.065-.065.065-.13.065-.258l-.065-.194c-.258-.451-.064-1.16-.129-1.741.323-.13.58-.323.323-.774-.323-.323-.968.322-1.29-.71m-2.774.194c-.193.258-.129.516-.064.903.258 1.096 1.548.129 1.87.774.258.516.065 1.612.065 2.257.322-.064.387-.258.58-.58.13 0 0-.13 0-.13-.322-.45-.129-2.257-.387-2.515-.774-.645-1.548.452-2.064-.71m5.805 5.482c-.258.452-.71.968-.193 1.484.064.064.322.258.387.387.129.258 0 .967.258.322.645-1.354-.258-.967-.387-1.677-.065-.258.129-.451-.065-.516m-9.804.13c-1.096 1.354.323 1.16.13 2.386.128-.13.257-.13.386-.323.58-1.096-.58-1.16-.516-2.064m6.257.128c-.258.58-.516 1.29.258 1.548-.452.774-.387 1.548-.516 2.645.838 0 1.935-.065 2.838.064.064-.838.322-1.548.193-2.386-.193-1.742-1.225-.71-2.515-1.226-.258-.129-.13-.516-.258-.645m-9.804.065c-.322.58-.451 1.225.258 1.548-.516.645-.452 1.548-.516 2.644a20 20 0 0 1 2.773 0c.065-.838.323-1.612.194-2.58-.258-1.677-2.58-.258-2.709-1.612m-9.933 23.22a44 44 0 0 1-.71 3.096c.13 0 .259 0 .388.064.322.129.774.387 1.096.451h.129c.065-.129.323-.451.387-.516.065-.128-1.419.065-1.354-.322.193-.774.451-1.742.58-2.451-.129-.129-.322-.194-.516-.323m32.701.064c-.58.129-1.354.129-1.548.71-.516 1.29.968 1.032 1.677 1.483l.194.194c.387 1.16-1.226.516-1.548.322.064.129.064.194.064.322.065.13.13.323.258.452.13.258.71.065 1.097-.064.516-.194.967-.645.71-1.355-.259-.58-1.033-.516-1.549-.774-.258-.129-.258-.387-.258-.387.323-.968 1.677.58 1.42-.064-.259-.194-.517-.775-.517-.839m-30.508.903c-.129.71-.71 2.064-.58 2.773.064.258.322.452.58.581 1.677.774 2-1.483 2.258-2.58-.194-.064-.323-.064-.516-.129-.13.838-.258 2.902-1.484 2.386-.645-.258.194-2.257.322-2.773a1.6 1.6 0 0 0-.58-.258m27.09.323c-.13 0-.387.129-.516.193 0 1.29-.258 2.257-.452 3.354l.58-.194c0-.386.065-.773.13-1.096.322-.129.967-.322.967-.322.194.128.387.58.516.709.13.194.194.129.516 0 .13-.064.258-.064.323-.064-.387-.517-.903-1.032-1.226-1.549a46 46 0 0 0-.838-1.031m-1.613.58c-.774.323-1.548.516-2.257.516 0 .129-.065.387-.065.516 0 .194.065.323.065.323.193-.323.451-.517.903-.645.322.967.451 1.741.645 2.644.838-.258.774-.129.645-.387-.13-.258-.645-2.451-.645-2.451.258-.065.838.129 1.032.258 0 0 .129.064.193.064-.064-.193-.193-.257-.129-.257-.258-.258-.322-.388-.387-.581m-22.639 0c0-.064.065.194.065.194 0 .193.129.386.193.58.129.258.194.516.258.903-.451.387-.967.774-1.483 1.097.451.129.645.451.903-.065.774-1.226.838-.258 1.096.71.322.064.516.064.774.128-.258-.644-.516-1.225-.645-1.999.452-.323.838-.58 1.29-.903-.452-.064-.58-.258-.838.065-.774.903-.646.709-.903-.452-.194-.064-.452-.194-.71-.258m19.801.645h-.322c-.065 0-.258.129-.387.129.258.968.322 2 .451 3.096l.194-.065c.129 0 .387-.128.516-.193-.13-.838-.387-1.935-.452-2.967m-15.802.194c-.129.967-.387 2.128-.58 3.096.516 0 1.29.064 1.676.193.517.129.517.064.71-.387 0-.064.064-.13.064-.258-.451.193-1.096.258-1.741.194.258-1.226-.065-1.29 1.032-.839 0-.064-.065-.194-.065-.194 0-.064-.064-.258-.064-.258V69.9c-.258.065-.451.065-.774 0 .064-.451.129-.967.194-.967.193.064.645.193.838.322.194.13.323.258.451.388 0-.065-.064-.258-.064-.258 0-.194-.064-.452-.129-.645-.516-.065-1.032-.13-1.548-.258m13.48.129h-.193c-.452.064-.903.257-1.355.257.065.258.13.581.13.839.064.71.064 1.484.128 2.193.194 0 .452-.065.71-.13-.065-.45-.13-.966-.13-1.353.194 0 .323 0 .517-.065.451.71 1.096 1.419 2.064 1.29l.064-.13c-.645-.386-1.225-.902-1.612-1.547.258-.323.71-1.29-.323-1.355m-10.965.193c-.064.129-.193.322-.258.451a.7.7 0 0 0 0 .388c.323-.258.58-.323 1.097-.323 0 1.032-.13 1.806-.258 2.709.903 0 .774.129.71-.13-.065-.322.128-2.514.193-2.514.258 0 .774.386.903.515l.129.065c0-.194-.065-.258-.065-.323-.064-.257-.064-.386-.064-.644-.903.128-1.677 0-2.387-.194m8.385.129c-.451 0-.903.129-1.483.129.129.968.064 2.064.064 3.096.645-.065 1.29-.129 2.064-.129.258-.645.516-.71-.193-.516-1.226.387-1.29.387-1.226-.903 1.29.129.968.258.903-.58-.258.129-.451.193-.838.193 0-.129-.065-.903-.065-.903.71 0 1.032.129 1.42.387-.065-.194-.065-.322-.13-.58-.193-.13-.258-.194-.516-.194m-4.773.129s.065.258.13.323c.386.709.58 1.547.967 2.322.193.451.322.967.645.258.193-.388.258-.775.387-1.162a9 9 0 0 1 .774-1.805c-.258 0-.516 0-.71.064a9.7 9.7 0 0 1-.58 2.064c-.387-.645-.645-1.355-.903-2.129-.323.13-.387.13-.71.065"/><path fill="#fff" d="M17.77 44.1c-.257.516-.322 1.161-.257 1.935.645-.129 1.483-.129 2.064 0-.065-1.935.193-1.677-1.806-1.935m9.74 0a5.2 5.2 0 0 0-.193 1.484v.387c.58-.194 1.483-.194 2.064 0 0-1.806-.065-1.87-1.87-1.87m8.966 23.607c0 .387 0 .71-.065 1.097l.71-.194zm-7.03 1.29c-.13 0-.259 0-.452.065 0 0 .064 1.096.129 1.096.645-.064 1.16-1.096.322-1.16"/></g><defs><clipPath id="a"><path fill="#fff" d="M0 0h130v100H0z"/></clipPath></defs></svg>