<svg xmlns="http://www.w3.org/2000/svg" width="150" height="100" fill="none"><path fill="#000" d="M77.314 31.965h1.498l3.984 10.192h-1.5l-1.114-3.07h-4.31l-1.142 3.07H73.33zm-1.015 5.981h3.455l-1.7-4.754h-.027zm13.048 4.211h-1.144v-1.17h-.027c-.515.914-1.342 1.341-2.399 1.341-1.941 0-2.54-1.113-2.54-2.697v-4.854h1.213v4.996c0 .9.57 1.485 1.498 1.485 1.47 0 2.185-.985 2.185-2.313v-4.168h1.214zm2.211-2.327c.043 1.086.985 1.428 1.984 1.428.756 0 1.784-.172 1.784-1.099 0-.943-1.199-1.1-2.412-1.371-1.199-.271-2.413-.67-2.413-2.084 0-1.485 1.47-2.099 2.755-2.099 1.628 0 2.927.514 3.027 2.313H95.07c-.087-.942-.915-1.242-1.714-1.242-.729 0-1.57.2-1.57.942 0 .871 1.285 1.014 2.412 1.285 1.214.27 2.413.67 2.413 2.099 0 1.756-1.641 2.326-3.14 2.326-1.657 0-3.056-.67-3.127-2.498zm7.792-5.053h1.471v1.07h-1.47v4.584c0 .556.157.655.913.655h.557v1.071h-.927c-1.257 0-1.756-.256-1.756-1.613v-4.696H96.88v-1.071h1.257v-2.213h1.212zm2.697 0h1.144v1.556h.027c.586-1.185 1.399-1.77 2.714-1.727v1.285c-1.957 0-2.671 1.113-2.671 2.983v3.283h-1.214zm11.05 7.352c-.215.128-.486.2-.871.2-.629 0-1.027-.343-1.027-1.143-.672.786-1.572 1.143-2.6 1.143-1.341 0-2.44-.6-2.44-2.07 0-1.671 1.242-2.028 2.497-2.27 1.343-.257 2.484-.171 2.484-1.085 0-1.057-.871-1.228-1.64-1.228-1.028 0-1.786.314-1.843 1.4h-1.213c.071-1.828 1.484-2.47 3.126-2.47 1.328 0 2.77.3 2.77 2.027v3.797c0 .57 0 .828.386.828.1 0 .213-.015.371-.072zm-1.971-3.783c-.471.342-1.384.356-2.198.499-.799.143-1.485.428-1.485 1.328 0 .8.686 1.085 1.428 1.085 1.598 0 2.255-1 2.255-1.67zm2.883-6.381h1.213v10.192h-1.213zm3.738 1.484h-1.212v-1.485h1.212zm-1.212 1.328h1.212v7.38h-1.212zm9.208 7.352c-.215.128-.486.2-.873.2-.628 0-1.027-.343-1.027-1.143-.671.786-1.57 1.143-2.598 1.143-1.342 0-2.441-.6-2.441-2.07 0-1.671 1.242-2.028 2.498-2.27 1.343-.257 2.484-.171 2.484-1.085 0-1.057-.87-1.228-1.641-1.228-1.029 0-1.785.314-1.842 1.4h-1.214c.071-1.828 1.485-2.47 3.127-2.47 1.328 0 2.769.3 2.769 2.027v3.797c0 .57 0 .828.385.828.101 0 .215-.015.373-.072zm-1.971-3.783c-.471.342-1.385.356-2.199.499-.798.143-1.484.428-1.484 1.328 0 .8.686 1.085 1.427 1.085 1.599 0 2.256-1 2.256-1.67zm2.811-3.57h1.142v1.17h.029c.513-.913 1.342-1.34 2.398-1.34 1.942 0 2.54 1.113 2.54 2.698v4.853h-1.213v-4.996c0-.9-.57-1.485-1.497-1.485-1.471 0-2.185.985-2.185 2.313v4.168h-1.214zM80.74 52.543h.029v-8.267h1.284V54.47h-1.485l-5.324-8.18h-.03v8.18H73.93V44.275h1.442zm9.491 1.898c-.214.128-.486.2-.87.2-.629 0-1.028-.343-1.028-1.143-.672.786-1.57 1.143-2.598 1.143-1.343 0-2.442-.6-2.442-2.07 0-1.67 1.242-2.028 2.499-2.27 1.342-.257 2.483-.171 2.483-1.085 0-1.057-.87-1.228-1.641-1.228-1.028 0-1.784.314-1.842 1.4H83.58c.072-1.828 1.484-2.47 3.127-2.47 1.327 0 2.768.3 2.768 2.026v3.798c0 .572 0 .828.387.828.1 0 .214-.014.37-.072zm-1.97-3.782c-.47.341-1.385.356-2.197.498-.8.143-1.486.429-1.486 1.329 0 .798.686 1.084 1.428 1.084 1.599 0 2.255-1 2.255-1.67zm4.495-3.57h1.472v1.07h-1.472v4.583c0 .556.158.657.915.657h.557v1.07H93.3c-1.257 0-1.757-.256-1.757-1.613v-4.697h-1.256v-1.07h1.256v-2.213h1.213zm3.81-1.328h-1.213v-1.485h1.214zm-1.213 1.327h1.214v7.381h-1.214zm5.711-.17c2.341 0 3.583 1.698 3.583 3.868 0 2.155-1.242 3.855-3.583 3.855s-3.584-1.7-3.584-3.855c0-2.17 1.242-3.869 3.584-3.869m0 6.652c1.27 0 2.298-1 2.298-2.784 0-1.799-1.028-2.798-2.298-2.798s-2.3 1-2.3 2.798c0 1.785 1.029 2.784 2.3 2.784m4.652-6.481h1.143v1.17h.028c.514-.913 1.343-1.342 2.398-1.342 1.942 0 2.541 1.114 2.541 2.699v4.854h-1.213v-4.997c0-.9-.571-1.485-1.499-1.485-1.47 0-2.185.985-2.185 2.313v4.169h-1.213zm13.832 7.352c-.214.128-.485.2-.87.2-.629 0-1.029-.343-1.029-1.143-.671.786-1.571 1.143-2.599 1.143-1.34 0-2.44-.6-2.44-2.07 0-1.67 1.242-2.028 2.499-2.27 1.342-.257 2.483-.171 2.483-1.085 0-1.057-.871-1.228-1.641-1.228-1.028 0-1.785.314-1.842 1.4h-1.213c.071-1.828 1.484-2.47 3.126-2.47 1.328 0 2.77.3 2.77 2.026v3.798c0 .572 0 .828.386.828.099 0 .213-.014.37-.072zm-1.97-3.782c-.471.341-1.384.356-2.197.498-.8.143-1.486.429-1.486 1.329 0 .798.686 1.084 1.427 1.084 1.599 0 2.256-1 2.256-1.67zm2.882-6.383h1.213V54.47h-1.213zM82.081 63.096c0 2.57-1.47 3.926-4.01 3.926-2.627 0-4.184-1.213-4.184-3.926v-6.51h1.357v6.51c0 1.8 1.028 2.784 2.826 2.784 1.714 0 2.655-.985 2.655-2.784v-6.51h1.356zm1.327-3.698h1.142v1.172h.028c.514-.914 1.343-1.342 2.398-1.342 1.942 0 2.543 1.113 2.543 2.697v4.854h-1.215v-4.996c0-.9-.57-1.486-1.499-1.486-1.47 0-2.184.986-2.184 2.313v4.17h-1.213zm8.577-1.328h-1.212v-1.484h1.212zm-1.212 1.328h1.212v7.382h-1.212zm2.098 0h1.356l2.069 6.153h.028l2.014-6.153h1.271l-2.698 7.381h-1.3zm13.331 5.04c-.328 1.627-1.497 2.513-3.155 2.513-2.354 0-3.468-1.628-3.54-3.883 0-2.213 1.457-3.84 3.47-3.84 2.612 0 3.412 2.44 3.34 4.225h-5.525c-.043 1.285.686 2.427 2.298 2.427 1 0 1.7-.486 1.914-1.442zm-1.17-2.056c-.057-1.156-.927-2.085-2.127-2.085-1.27 0-2.027.958-2.113 2.085zm2.212-2.984h1.142v1.556h.027c.586-1.184 1.4-1.77 2.714-1.726v1.284c-1.956 0-2.67 1.114-2.67 2.984v3.283h-1.213zm5.537 5.054c.044 1.085.986 1.428 1.985 1.428.757 0 1.785-.171 1.785-1.1 0-.941-1.2-1.098-2.413-1.37-1.199-.27-2.413-.67-2.413-2.084 0-1.485 1.471-2.098 2.755-2.098 1.629 0 2.928.514 3.027 2.313h-1.214c-.086-.943-.913-1.244-1.713-1.244-.727 0-1.57.2-1.57.943 0 .872 1.285 1.013 2.413 1.285 1.213.27 2.413.671 2.413 2.098 0 1.756-1.642 2.328-3.141 2.328-1.656 0-3.055-.67-3.126-2.499zm7.108-6.381h-1.213v-1.485h1.213zm-1.213 1.328h1.213v7.38h-1.213zm4.496 0h1.471v1.07h-1.471v4.584c0 .556.158.656.913.656h.558v1.07h-.928c-1.256 0-1.756-.257-1.756-1.613V60.47h-1.257v-1.072h1.257v-2.212h1.213zm5.71 8.366c-.558 1.441-1.058 1.97-2.142 1.97-.285 0-.57-.03-.843-.13v-1.113c.23.072.473.172.715.172.499 0 .77-.243 1-.67l.499-1.258-2.927-7.338h1.371l2.155 6.04h.028l2.071-6.04h1.285z"/><path fill="#7B5A3E" d="M66.571 60.994c-.016-.017-1.633-1.609-3.014-2.272-.661-.317-1.2-.546-1.747-.698l.433-.88c1.023-2.059 1.907-3.837 1.525-5.017-.019-.058-.049-.117-.074-.176l.003-.002-.014-.023a3.3 3.3 0 0 0-.702-.982c-.545-.52-1.917-1.278-2.655-1.686l-.229-.127c-.631-.354-1.354-.38-2.086-.075-1.354.563-2.443 2.096-2.68 2.94-.39 1.404.271 1.853.345 1.896l1.483.921-1.644 3.906c-1.72.588-3.54 1.384-5.333 2.166-2.474 1.081-4.812 2.104-6.738 2.533l-.157.037c-.198.045-.424.099-.754.141a5 5 0 0 1-.547.044h-.014a4 4 0 0 1-.543-.044c-.33-.042-.556-.096-.754-.142l-.157-.036c-1.926-.43-4.264-1.452-6.738-2.533-1.792-.782-3.615-1.578-5.333-2.166l-1.643-3.905 1.481-.922.043-.032c.031-.029.766-.726.291-1.895-.375-.923-1.554-2.508-2.89-2.976-.657-.23-1.284-.183-1.865.143l-.228.126c-.738.408-2.111 1.166-2.655 1.686-.299.286-.55.645-.702.982l-.015.023.004.002c-.026.06-.056.12-.074.176-.382 1.18.5 2.958 1.524 5.016.143.286.288.585.434.881-.548.152-1.086.381-1.746.698-1.383.663-3 2.255-3.015 2.272a.28.28 0 0 0-.042.345c.008.014.828 1.367 1.081 2.303.258.959.194 2.467.167 2.933a.8.8 0 0 0-.01.168h-.001v.02q0 .004.003.007c.016.589.531 1.165 1.39 1.547.569.254 1.27.414 1.98.414.874 0 1.763-.242 2.44-.851q.003-.001.004-.004h.002l.015-.014c.154-.139 1.692-1.501 3.999-2.683q.334.153.684.328l.108.052c.896.426 4.055 1.894 7.115 2.933 2.884.98 4.956 1.101 5.529 1.114h.259c.566-.013 2.638-.134 5.521-1.114 3.061-1.04 6.22-2.507 7.115-2.933l.109-.052q.349-.174.684-.328c2.306 1.182 3.845 2.545 3.999 2.683l.02.018c.678.61 1.566.851 2.44.851.71 0 1.412-.16 1.98-.414.86-.382 1.375-.958 1.391-1.546l.002-.008v-.02a.8.8 0 0 0-.01-.168c-.027-.466-.092-1.974.167-2.933.253-.936 1.073-2.29 1.08-2.303a.28.28 0 0 0-.041-.345m-10.697-8.846c.205-.735 1.224-2.102 2.353-2.573.575-.239 1.112-.223 1.596.048l.23.127c.595.329 1.76.973 2.352 1.443a2.1 2.1 0 0 0-.888.168c-1.596.645-3.017 2.47-3.017 3.455 0 .066.008.12.013.177l-2.534-1.575c-.004-.002-.38-.285-.105-1.27m3.431 3.337c-.023-.012-.242-.139-.242-.669 0-.274.181-.685.485-1.12l.97.588a1 1 0 0 1-.03.361c-.104.376-.499.894-1.024.876a.6.6 0 0 1-.159-.036m-1.663-.37 1.342.834q.001 0 .002.002l.006.004.006.002c.052.033.093.05.107.055.131.051.283.07.339.072.789.041 1.406-.642 1.587-1.288a1.56 1.56 0 0 0 .018-.757l-.03-.11-1.12-.68c.48-.552 1.128-1.082 1.83-1.367.923-.375 1.354.154 1.456.307.015.037.035.077.047.112.312.961-.525 2.644-1.492 4.592q-.246.494-.496 1.007a7.3 7.3 0 0 0-1.278-.103c-1.121 0-2.394.27-3.744.691zM23.908 49.75l.23-.127c.44-.247.9-.28 1.405-.103 1.215.426 2.263 1.941 2.555 2.657.295.727-.06 1.17-.139 1.255l-2.51 1.562c.005-.059.013-.112.013-.178 0-.985-1.422-2.81-3.018-3.456a2.1 2.1 0 0 0-.887-.167c.591-.47 1.757-1.114 2.351-1.443m.75 5.736a.6.6 0 0 1-.16.035c-.54.017-.92-.501-1.025-.876a1 1 0 0 1-.03-.36l.97-.59c.304.436.485.847.485 1.121 0 .468-.169.621-.219.657zm-2.436 1.406c-.968-1.947-1.804-3.63-1.492-4.59.011-.036.032-.075.047-.113.101-.152.532-.68 1.456-.307.702.285 1.35.815 1.83 1.368l-1.12.68-.03.109c-.01.037-.09.368.018.757.18.646.802 1.328 1.587 1.288.058-.003.22-.024.348-.077a1 1 0 0 0 .067-.032l.023-.012 1.363-.848 1.42 3.373c-1.35-.42-2.621-.691-3.743-.691-.48 0-.89.036-1.278.103a97 97 0 0 0-.496-1.008m2.452 9.512c-.297.7-.59 1.001-.635 1.044l-.011.01c-.997.9-2.676.855-3.82.345-.652-.29-1.057-.695-1.059-1.058l.006-.101c.155-.748 1.963-2.65 5.222-2.688.191.617.543 1.87.297 2.448m.57.075c.194-.653-.012-1.616-.268-2.483.717.103 1.669.406 2.79.89a22 22 0 0 0-2.522 1.593m30.953-1.593c1.12-.484 2.072-.787 2.789-.89-.256.867-.462 1.83-.268 2.484a22 22 0 0 0-2.521-1.594m7.557 2.917c-1.144.509-2.823.554-3.82-.346l-.008-.006c-.041-.04-.338-.34-.638-1.047-.246-.58.106-1.833.297-2.448 3.26.039 5.066 1.94 5.221 2.688l.007.101c-.002.363-.407.768-1.059 1.058m1.235-4.307c-.161.595-.208 1.37-.213 2.014-.896-1.023-2.752-2.121-5.29-2.121-1.067 0-2.754.557-4.878 1.614l-.099.048c-.888.422-4.023 1.878-7.054 2.907-2.873.977-4.955 1.075-5.351 1.085h-.242c-.39-.009-2.474-.106-5.355-1.085-3.031-1.029-6.166-2.485-7.054-2.907l-.1-.048c-2.123-1.056-3.81-1.614-4.876-1.614-2.54 0-4.395 1.098-5.29 2.12-.006-.643-.053-1.418-.214-2.013-.216-.802-.782-1.829-1.027-2.253.43-.404 1.663-1.515 2.703-2.014 1.278-.613 2.025-.87 3.347-.87 2.6 0 6.137 1.547 9.558 3.041 2.5 1.094 4.862 2.126 6.842 2.567l.15.034c.212.05.452.108.812.153.339.042.524.05.641.05.08 0 .266-.008.605-.05.36-.045.6-.102.812-.153l.15-.034c1.979-.441 4.34-1.473 6.841-2.567 3.421-1.494 6.96-3.04 9.559-3.04 1.321 0 2.069.256 3.347.87 1.04.498 2.274 1.609 2.703 2.013-.245.424-.811 1.451-1.028 2.253"/><path fill="#7B5A3E" d="M42.014 61.857h-.004c-.929 0-2.327-.263-5.654-2.2-3.476-2.026-5.218-3.398-6.347-6.178-1.111-2.738-1.525-6.065-1.525-12.277 0-5.97.245-10.623.247-10.67a.29.29 0 0 1 .195-.253.3.3 0 0 1 .112-.012c6.264.559 10.241.642 12.054.642.604 0 .907-.01.91-.01.022 0 .326.01.93.01 1.813 0 5.79-.083 12.054-.642a.281.281 0 0 1 .306.266c.003.046.248 4.7.248 10.669 0 6.212-.414 9.54-1.526 12.277-1.128 2.78-2.87 4.152-6.346 6.178-3.327 1.937-4.725 2.2-5.654 2.2M29.279 30.854a230 230 0 0 0-.232 10.348c0 6.132.402 9.402 1.484 12.065 1.067 2.628 2.747 3.946 6.108 5.903 3.23 1.883 4.568 2.124 5.37 2.124h.005c.804 0 2.14-.241 5.37-2.124 3.363-1.957 5.042-3.275 6.108-5.903 1.083-2.663 1.484-5.933 1.484-12.065 0-5.105-.179-9.242-.23-10.348-6.12.537-10.02.618-11.815.618-.602 0-.911-.01-.926-.01 0 0-.31.01-.913.01-1.793 0-5.695-.081-11.813-.619"/><path fill="#7B5A3E" d="M51.885 50.198c-1.304 0-2.2.565-2.989 1.065-.651.41-1.215.767-1.948.767s-1.295-.356-1.947-.767c-.79-.5-1.684-1.065-2.99-1.065-1.305 0-2.2.565-2.99 1.065-.651.41-1.214.767-1.947.767-.732 0-1.295-.356-1.948-.767-.79-.5-1.684-1.065-2.99-1.065-.68 0-1.248.156-1.75.374q.19.834.439 1.57c.4-.2.813-.336 1.313-.336.839 0 1.436.38 2.13.816.754.476 1.608 1.016 2.806 1.016s2.053-.54 2.807-1.016c.692-.437 1.29-.816 2.13-.816s1.438.38 2.13.816c.755.476 1.61 1.016 2.807 1.016 1.198 0 2.053-.54 2.807-1.016.693-.437 1.29-.816 2.132-.816.499 0 .912.136 1.311.336q.25-.734.438-1.569a4.3 4.3 0 0 0-1.751-.375m-17.618-1.194c.755.476 1.61 1.016 2.807 1.016 1.198 0 2.053-.54 2.806-1.016.693-.438 1.292-.816 2.132-.816.839 0 1.437.378 2.13.816.754.476 1.609 1.016 2.807 1.016s2.052-.54 2.806-1.016l.107-.068c-.667-.208-5.406-1.626-5.412-1.63-1.225-.345-2.172-.585-2.451-.585h-.017c-.649 0-4.879 1.29-7.826 2.213q.056.033.111.07m17.618 4.813c-1.304 0-2.2.565-2.989 1.065-.651.411-1.215.766-1.948.766s-1.295-.355-1.947-.766c-.79-.5-1.684-1.065-2.99-1.065-1.305 0-2.2.565-2.99 1.065-.651.411-1.214.766-1.947.766-.732 0-1.295-.355-1.948-.766-.79-.5-1.684-1.065-2.99-1.065-.2 0-.388.017-.57.04a7.9 7.9 0 0 0 1.195 1.644c.54.13.998.418 1.507.74.754.476 1.608 1.016 2.806 1.016s2.053-.54 2.807-1.016c.692-.438 1.29-.815 2.13-.815s1.438.377 2.13.815c.755.476 1.61 1.016 2.807 1.016 1.198 0 2.053-.54 2.807-1.016.508-.322.968-.61 1.507-.74a8 8 0 0 0 1.195-1.643 4 4 0 0 0-.572-.04m-7.655 4.488c-.633-.427-1.29-.87-2.22-.87-.795 0-1.38.407-1.945.799-.538.374-1.093.755-1.947.931.827.438 1.487.732 2.021.93.319-.181.598-.37.843-.54.47-.327.75-.512 1.03-.512.417 0 .755.215 1.318.595.197.133.413.278.654.42.523-.199 1.163-.491 1.953-.91-.695-.167-1.194-.497-1.707-.843m4.594-24.75-.56.76.724.608-.942.033-.024.947-.618-.708-.753.564.165-.92-.906-.24.82-.445-.373-.859.864.362.432-.826.256.909zM43.176 36.4l-.879.311.857.378-.305.882.83-.44.5.798.171-.932.937.114-.62-.712.671-.664-.932.04-.112-.938-.554.747-.799-.492zm6.755.58-.841.401.89.286-.211.912.781-.526.579.74.073-.943.944.016-.692-.644.6-.73-.924.136-.21-.92-.473.8-.846-.405zm-2.599 1.87-.253.854.734-.505.74.505-.253-.862.708-.54-.89-.02-.303-.846-.299.831-.893.035zm-1.815 2.606-.77.527.926.144-.067.933.689-.64.688.64-.076-.945.935-.132-.783-.527.476-.815-.89.28-.35-.877-.343.865-.898-.268z"/><path fill="#7B5A3E" d="M42.08 45.77c.995 0 10.478 3.043 10.753 3.124.275.082 1.18.45 1.18-.322 0-.77-1.258-1.147-4.942-2.91-3.683-1.76-6.087-3.01-6.98-3.01-.892 0-3.296 1.25-6.98 3.01-3.684 1.763-4.94 2.14-4.94 2.91 0 .771.903.404 1.178.322.275-.081 9.718-3.124 10.714-3.124zM20.843 61.31a1.4 1.4 0 0 1-.108-.276.6.6 0 0 1 .13-.108l-.074-.105q-.148.082-.244.13c-.065.033-.138.065-.23.127l.074.105c.09-.043.134-.048.148-.052.003.002.014.007.034.039q.065.104.367.716l.089.134.046.093a10 10 0 0 1-.54-.274c-.322-.174-.6-.33-.855-.47l-.226.121c-.039.02-.1.046-.195.109l.074.106a.6.6 0 0 1 .139-.046l.024-.015.015.041a1 1 0 0 1 .058.104l.35.698q.076.152.118.248.075.17.09.215l.02-.006-.018.058c-.004.005-.029.022-.128.101l.057.116.02-.01q.156-.089.251-.135l.22-.127-.045-.093-.028-.007-.018.009q-.028.014-.094.036l.006.019-.048-.025a1 1 0 0 1-.088-.152q-.102-.19-.19-.367l-.169-.3-.113-.23q.961.533 1.493.79.09-.028.18-.051l.02-.047a21 21 0 0 1-.468-.916q-.048-.097-.144-.303m-.06-.461q-.003 0-.005.003.002-.002.004-.005zm-.44.237.002.006zm.746 1.056-.12-.058c.038.013.077.03.11.039zm-.621.731v.001h-.002zm-.722-1.066c.126.07.242.133.357.195l-.345-.17zm3.2.11c-.035.008-.057.008-.057.008L21.8 60.5l-.162.061-.069 1.503q-.012.178-.016.206l-.027.055-.105.065.036.121.511-.17-.053-.116c-.063.015-.106.022-.16-.002a1 1 0 0 1-.008-.219l-.012-.14.514-.166.168.243c.035.05.046.076.049.108a1 1 0 0 1-.142.077l.055.115.668-.216-.052-.115zm-.774-.355-.012.003.01-.005zm-.437.127.006-.152v.151zm.217-.08a.7.7 0 0 0-.174.068l-.023.007.028-.634.291.374.086.12zm-.01.718v-.004l.001.004zm.449-.111.01-.003zm1.564-2.045-.037-.031a1 1 0 0 1-.098.02q-.09.014-.361.047l-.435.05a9 9 0 0 1-.356.038 1 1 0 0 1-.107.005l-.028.038q.015.062.025.117c.003.022.016.12.061.309l.107-.033q-.01-.108-.006-.197l.032-.042q.085-.018.201-.032l.132-.035q.008.037.044.345l.088.76c.027.224.03.3.027.325q-.003.029-.02.04a1 1 0 0 1-.157.057l.014.125.02-.003a6 6 0 0 1 .35-.053c.095-.011.213-.021.37-.051l-.033-.123a.5.5 0 0 1-.146 0 .06.06 0 0 1-.028-.034 2.4 2.4 0 0 1-.05-.325l-.088-.757c-.024-.203-.036-.318-.056-.326l.154-.019c.082-.009.152-.015.233-.016 0 0 .005.01.015.046.015.057.027.118.058.2l.107-.031-.029-.279a2 2 0 0 1-.003-.135m-.156 1.78v-.004l.002.005zm1.788-1.54c.004-.002.018-.008.059-.008.016-.002.035 0 .078-.016l-.009-.127-.27-.013c-.025-.004-.102-.018-.254-.011l.01.127c.094.01.13.025.158.056a1 1 0 0 1-.001.19l-.034.407-.022.26q-.022.266-.068.357a.3.3 0 0 1-.131.137.4.4 0 0 1-.233.038.44.44 0 0 1-.203-.06.3.3 0 0 1-.109-.12.5.5 0 0 1-.032-.188q0-.056.02-.286l.036-.445c.016-.176.03-.29.062-.373.006-.004.025-.011.073-.011.019-.001.04 0 .086-.016l-.01-.127-.705-.04.008.127.148.05c.003.011.007.034.006.077q-.007.143-.022.32l-.05.567a3 3 0 0 0-.014.25.5.5 0 0 0 .122.321.5.5 0 0 0 .168.123q.142.065.31.078a.8.8 0 0 0 .256-.014.55.55 0 0 0 .34-.245.7.7 0 0 0 .077-.21q.024-.122.034-.237l.025-.3q.011-.132.038-.36c.024-.194.034-.24.053-.277m-1.48-.246v.002l-.001-.002m4.323 2.695a.3.3 0 0 1-.05-.027l-.014.015-.003-.06v-.125l-.003-1.624-.167-.047-.742.908-.211.254-.137.156.015.013-.07.014-.077-.007.002-.02c-.04-.012-.052-.02-.077-.056q-.012-.027-.058-.168l-.134-.492-.021-.082c-.013-.042-.023-.08-.045-.1l-.001-.004a.58.58 0 0 0 .301-.135.55.55 0 0 0 .156-.264.4.4 0 0 0-.004-.24.3.3 0 0 0-.118-.161.9.9 0 0 0-.245-.095 5 5 0 0 0-.219-.048 3 3 0 0 1-.189-.043q-.127-.033-.205-.056c-.091-.028-.145-.044-.184-.033l-.014.125c.11.037.135.054.144.073a1 1 0 0 1-.034.182l-.282 1.08a.5.5 0 0 1-.073.168l-.16-.008-.012.133q.142.028.305.07c.122.03.242.066.385.088l.014-.133a.3.3 0 0 1-.14-.065.3.3 0 0 1 .01-.087 20 20 0 0 1 .167-.684q.03-.117.127-.464c.028-.104.047-.17.037-.185a.5.5 0 0 1 .098.015q.11.03.145.056.057.042.081.125a.36.36 0 0 1-.002.19.5.5 0 0 1-.093.184.3.3 0 0 1-.13.093c-.046.011-.098 0-.21-.01l-.022.06q.024.032.041.092.04.124.088.336l.112.494c.005.03.008.054.023.092a4 4 0 0 1 .368.094l-.001.006.492.162.026-.125c-.103-.043-.124-.063-.127-.097.006-.017.033-.063.124-.181l.075-.12.51.177-.01.294c-.001.06-.007.088-.026.116-.008 0-.038-.006-.159-.023l-.024.124.358.124.299.122.034-.143zm-.833-.907.096-.119-.091.121q-.002 0-.005-.002m.427.139-.204-.073c-.073-.026-.138-.052-.19-.052l-.013-.006.402-.492.008.47zm0 .018v.003l-.013-.004zm-2.502-.039h.005zm.654.148v-.004zm4.861.136.042-.144-.299-.124c-.024-.01-.078-.039-.186-.078q-.073.08-.125.131-.053.054-.282.273l-.275.264a3 3 0 0 0-.207.221l-.07.064.04-1.38a3 3 0 0 1-.208-.083c-.051-.024-.143-.069-.304-.125l-.035.126q.051.025.108.066l.019.04c-.002.014-.015.06-.083.217a24 24 0 0 1-.354.79q-.105.22-.14.284c-.013.02-.021.029-.042.036a2 2 0 0 1-.158-.03l-.034.128q.093.032.243.098c.078.035.152.072.25.1l.035-.125a1 1 0 0 1-.11-.065l-.035-.02.025-.038q.007-.027.092-.224.084-.2.148-.342l.114-.302.103-.231-.018.695q-.005.17-.022.512c-.005.133-.01.237-.004.333l.09.025q.06-.063.165-.164.17-.169.262-.256l.384-.392.27-.252-.36.803a3 3 0 0 1-.136.284c-.02.029-.033.034-.037.035a2 2 0 0 1-.162-.034l-.033.126.312.13.33.159.045-.144c-.1-.055-.114-.066-.125-.104q.01-.035.066-.185l.077-.174.401-.881c.027-.061.051-.082.084-.09q.036 0 .106.032zm-1.422.625.01-.363.003.351zm-1.145.038.006.004-.006-.002zm.456.184.003-.005v.006zm.404-1.368-.009.352-.008-.313zm1.144.514-.181.402.15-.374zm2.007 1.294a.65.65 0 0 0 .17-.224.44.44 0 0 0 .05-.25.33.33 0 0 0-.08-.183.6.6 0 0 0-.195-.133l-.756-.331-.037.121.127.092a.2.2 0 0 1-.014.047q-.014.035-.077.176l-.29.625q-.107.226-.204.405c-.03.056-.043.07-.06.08-.017 0-.053-.007-.16-.034l-.037.128q.13.052.268.117.126.06.373.187l.02.01.048-.146-.127-.073-.01.018-.011-.054a.6.6 0 0 1 .047-.126q.076-.176.154-.337l.316-.663c.043-.09.079-.16.082-.195q.072.015.126.041a.22.22 0 0 1 .132.152q.025.104-.047.255a.4.4 0 0 1-.16.191c-.061.032-.087.053-.207-.014-.011-.008-.022-.018-.056-.033l-.045.021.001.013c.002.04 0 .072.004.114a.5.5 0 0 0 .117.076q.13.06.28.04a.5.5 0 0 0 .258-.113m-1.537.509.003.002zm2.523.993a3 3 0 0 1-.04-.318l-.031-.364-.007-.085c-.004-.045-.007-.088-.014-.109q.18 0 .31-.081a.5.5 0 0 0 .197-.23.4.4 0 0 0 .04-.238.3.3 0 0 0-.087-.18.9.9 0 0 0-.225-.136l-.207-.087a4.94 4.94 0 0 1-.364-.164c-.088-.045-.144-.075-.182-.068l-.035.12c.105.058.124.08.13.097a1 1 0 0 1-.066.174l-.47 1.012a.6.6 0 0 1-.1.153c-.007 0-.034-.006-.157-.036l-.036.129q.134.052.287.122c.115.052.227.108.364.155l.038-.129a.4.4 0 0 1-.129-.088c.001-.01.006-.03.027-.083q.013-.034.119-.274.087-.195.166-.37.05-.11.208-.435c.046-.096.077-.158.07-.175q.048.013.093.033c.085.039.12.065.134.081q.046.051.057.136a.35.35 0 0 1-.037.188.46.46 0 0 1-.123.164.27.27 0 0 1-.157.068.7.7 0 0 1-.194-.047l-.03.055q.015.036.023.098.018.13.026.347l.024.504c0 .031-.002.056.005.097q.08.03.158.067.067.03.217.105l.019.009.046-.148c-.038-.017-.048-.027-.067-.069m-1.318-.422.002.002zm.615.262.002-.005v.005zm1.362.499-.006-.057a1 1 0 0 1 .057-.155l.296-.687.139-.308q.037-.083.052-.112c.021-.043.034-.06.075-.076.015.001.09.03.145.031l.033-.13a7 7 0 0 1-.346-.141c-.108-.047-.203-.091-.311-.123l-.035.129c.087.042.112.056.128.093a2 2 0 0 1-.068.188q-.027.068-.129.3l-.213.49a5 5 0 0 1-.12.255c-.03.06-.049.095-.085.11-.012-.001-.052-.016-.146-.031l-.033.13q.127.045.288.115.183.08.342.158l.018.01.044-.15a1 1 0 0 1-.112-.055zM34.892 64l-.004-.002q.001 0 .004.002m-.621-.248-.001.005zm-.686 1.625q.003 0 .005.002zm3.314-.442.036-.145-.306-.11c-.024-.01-.08-.033-.19-.068l-.117.14-.268.286-.261.278a3 3 0 0 0-.196.23l-.066.067-.032-1.38a4 4 0 0 1-.211-.072c-.052-.02-.147-.06-.31-.109l-.028.128q.05.022.111.06l.01-.016.011.054a1.5 1.5 0 0 1-.072.222 27 27 0 0 1-.313.808 5 5 0 0 1-.126.29.07.07 0 0 1-.04.04l-.158-.022-.027.128q.094.028.247.087c.079.03.155.062.255.086l.029-.126a.6.6 0 0 1-.113-.06l-.036-.017.021-.04q.008-.029.08-.228.075-.204.133-.35l.097-.306.09-.237.018.694q.005.171.006.513c.001.132 0 .239.012.332l.092.022q.057-.068.156-.173l.248-.27.363-.41.257-.267-.318.823c-.08.205-.11.27-.121.29-.018.028-.03.034-.037.036-.012 0-.046-.007-.162-.026l-.027.127.319.114.34.142.035-.147c-.095-.045-.114-.056-.13-.097a2.4 2.4 0 0 1 .125-.367l.354-.9c.025-.061.047-.083.083-.094q.037 0 .105.028zm.01-.134-.011-.003zm-1.397.833-.01-.488.023.474zm-1.142.097.008.002h-.008zm.467.16.002-.005-.001.006zm.317-1.348.014-.039.01.353zm1.183.414-.16.415.13-.384zm2.042.462.036-.026.124.007.017-.127-.261-.069c-.023-.007-.097-.032-.246-.062l-.017.127c.09.03.123.05.144.087a1 1 0 0 1-.04.184l-.117.394-.075.249q-.076.257-.138.336a.3.3 0 0 1-.158.107.4.4 0 0 1-.236-.01.45.45 0 0 1-.185-.1.3.3 0 0 1-.082-.14.44.44 0 0 1 .006-.191q.013-.055.078-.277l.127-.427q.078-.256.112-.325l.045-.03c.026 0 .065.007.14.009l.03-.102-.033-.03-.662-.178-.019.126.135.08a.3.3 0 0 1-.01.076 9 9 0 0 1-.086.308l-.164.546q-.06.195-.067.24a.6.6 0 0 0-.003.166.46.46 0 0 0 .197.328.94.94 0 0 0 .522.18l.018-.001a.5.5 0 0 0 .217-.05.5.5 0 0 0 .167-.12.7.7 0 0 0 .118-.191q.05-.113.082-.224l.086-.288q.038-.127.11-.345c.064-.188.082-.23.088-.237m-.734-.397-.009-.002h.009zm-.152 1.83h.002l-.002.003z"/><path fill="#7B5A3E" d="M40.094 65.59a3 3 0 0 1-.09.158q-.038.062-.21.331l-.205.322a3 3 0 0 0-.15.263l-.051.078-.288-1.35a3 3 0 0 1-.22-.033c-.056-.01-.157-.031-.325-.049l-.005.13a1 1 0 0 1 .121.04l.028.033c.001.016-.003.07-.03.23q-.033.199-.08.453-.053.285-.078.4-.048.24-.07.308c-.005.018-.011.03-.053.047-.024 0-.063-.002-.14.008l-.001.13q.097.01.259.04c.083.015.162.033.266.038l.005-.13a.6.6 0 0 1-.123-.039l-.038-.01.015-.042q0-.03.035-.24l.066-.367.038-.32.046-.248.146.678q.035.166.1.502c.025.131.045.234.074.326l.093.004.122-.2.194-.31.28-.47.204-.31-.16.867a3 3 0 0 1-.066.306c-.012.033-.023.041-.045.045-.025 0-.066-.005-.148.004l-.002.128.692.13.01-.15c-.109-.028-.125-.036-.146-.07q0-.038.02-.197l.034-.188.182-.95c.012-.065.03-.091.043-.1.011-.008.056-.015.128 0l.035.006.008-.151-.32-.049c-.027-.005-.085-.018-.2-.032m-.722 1.175-.168-.8.178.784zm-1.104.307h.006zm.488.072v-.007zm.07-1.425.074.345-.082-.302zm1.232.228-.08.435.056-.399zm2.028-.072q.136.003.222.044c.058.03.11.074.15.12.006.056.008.132.028.243l.105-.017a4 4 0 0 1 .025-.265 1 1 0 0 1 .028-.147l-.017-.04a1.7 1.7 0 0 0-.272-.097 1.4 1.4 0 0 0-.29-.03q-.418.001-.655.251-.242.257-.25.667-.003.238.074.443.052.136.148.254.097.12.239.192.18.09.414.093h.029q.146 0 .247-.028a1 1 0 0 0 .258-.123l.049-.148-.038-.043-.014.008a1 1 0 0 1-.212.096.8.8 0 0 1-.203.025.6.6 0 0 1-.277-.063.6.6 0 0 1-.164-.144.7.7 0 0 1-.13-.249 1.1 1.1 0 0 1-.045-.352q.006-.333.157-.515a.49.49 0 0 1 .394-.175m-.024 1.69h.002v.002zm2.268-1.427a.783.783 0 0 0-.263-.39.7.7 0 0 0-.233-.123 1 1 0 0 0-.37-.025 1 1 0 0 0-.364.112.7.7 0 0 0-.228.207.84.84 0 0 0-.142.319 1.3 1.3 0 0 0-.014.418q.035.305.16.5a.73.73 0 0 0 .636.346 1 1 0 0 0 .12-.008.9.9 0 0 0 .398-.133.7.7 0 0 0 .21-.213.8.8 0 0 0 .124-.293 1.4 1.4 0 0 0-.034-.717m-.32.803a.5.5 0 0 1-.133.267.4.4 0 0 1-.223.098.4.4 0 0 1-.252-.048.56.56 0 0 1-.2-.245q-.089-.181-.122-.475a1.3 1.3 0 0 1 .007-.376.48.48 0 0 1 .125-.263.4.4 0 0 1 .247-.113q.033-.004.064-.004.09 0 .152.032.086.045.156.136a.8.8 0 0 1 .12.233q.048.142.069.318.029.256-.01.44m2.11-.536c-.01-.047-.007-.058-.006-.06.004-.01.018-.027.07-.073l-.044-.096-.647.18.048.115a1 1 0 0 1 .22-.02.6.6 0 0 1 .04.132l.025.116c.014.063.023.106.033.11a.6.6 0 0 1-.243.13.5.5 0 0 1-.444-.111q-.214-.174-.303-.532-.08-.33.028-.554a.52.52 0 0 1 .36-.284.6.6 0 0 1 .203-.018q.094.008.173.045a.4.4 0 0 1 .062.037q.015.034.032.088c.016.05.026.09.057.13l.1-.043a3 3 0 0 1-.048-.394l-.03-.041a1.433 1.433 0 0 0-.879.114.84.84 0 0 0-.373.388.9.9 0 0 0-.076.294c-.01.105.003.227.035.357q.058.235.18.408a.83.83 0 0 0 .466.32 1 1 0 0 0 .2.023q.121 0 .252-.031.148-.037.287-.109c.092-.047.198-.116.323-.227a2 2 0 0 1-.057-.189zm1.417-1.368a1.3 1.3 0 0 1-.076-.286c.004-.007.024-.026.142-.093l-.063-.112a7 7 0 0 1-.256.101c-.07.026-.146.05-.244.1l.062.112a.5.5 0 0 1 .153-.033c.003.001.013.008.03.041.034.071.13.325.285.754l.072.143.035.097q-.198-.118-.505-.332c-.3-.21-.56-.397-.797-.563l-.238.095c-.04.014-.105.034-.206.085l.06.114a.7.7 0 0 1 .135-.03l.035-.012.011.044q.015.024.046.109l.27.732q.057.16.089.26.054.176.065.224l.02-.004-.023.056-.14.085.045.123.019-.01q.165-.067.265-.105l.136-.046.098-.055-.035-.097-.027-.01-.019.007a1 1 0 0 1-.097.024l-.016.02h-.003l-.022-.031a1 1 0 0 1-.071-.16q-.079-.2-.146-.385l-.135-.314-.088-.244c.61.431 1.062.741 1.395.951q.095-.017.186-.031l.025-.044a20 20 0 0 1-.472-1.28m-.008-.466-.006.002q.002 0 .006-.003zm-.463.188.001.005-.002-.005zm.623 1.133c-.033-.019-.074-.047-.111-.07.034.017.07.037.103.051zm-1.732-.733.001.005-.002-.005m1.033 1.39h-.001l-.002.001q.001 0 .002-.003zm-.599-1.14.333.234-.324-.21zm2.856-.97a1 1 0 0 0-.158-.171.74.74 0 0 0-.47-.17 1 1 0 0 0-.36.087 1 1 0 0 0-.315.215.7.7 0 0 0-.155.266.8.8 0 0 0-.038.347q.014.187.11.403.125.28.302.428a.72.72 0 0 0 .469.18.9.9 0 0 0 .353-.082.94.94 0 0 0 .34-.245.8.8 0 0 0 .138-.268.9.9 0 0 0 .03-.317 1.4 1.4 0 0 0-.117-.442 1.3 1.3 0 0 0-.13-.23m-.467 1.356a.4.4 0 0 1-.084-.01.56.56 0 0 1-.264-.173 1.5 1.5 0 0 1-.259-.417 1.3 1.3 0 0 1-.106-.36.48.48 0 0 1 .042-.29.4.4 0 0 1 .2-.18.4.4 0 0 1 .172-.044q.023.001.043.004a.5.5 0 0 1 .19.084.8.8 0 0 1 .184.187q.09.12.16.282.105.235.122.424a.5.5 0 0 1-.047.293.4.4 0 0 1-.183.16.4.4 0 0 1-.17.04m1.783-1.518a.5.5 0 0 0-.107-.09.3.3 0 0 0-.123-.044.5.5 0 0 0-.162.006 2 2 0 0 0-.146.034q-.111.03-.172.043a.4.4 0 0 1-.131.005.2.2 0 0 1-.085-.042.3.3 0 0 1-.077-.105.28.28 0 0 1-.016-.206q.031-.105.155-.167a.3.3 0 0 1 .177-.04.3.3 0 0 1 .132.03c.023.033.056.093.128.189l.09-.067a3 3 0 0 1-.082-.192 2 2 0 0 1-.05-.153l-.023-.028-.054-.011a.7.7 0 0 0-.168.02 1 1 0 0 0-.215.079 1 1 0 0 0-.186.124.494.494 0 0 0-.172.412.7.7 0 0 0 .185.43.376.376 0 0 0 .337.124 3 3 0 0 0 .264-.05 1 1 0 0 1 .197-.02.2.2 0 0 1 .101.043q.045.039.08.106c.026.054.04.11.04.16q0 .078-.05.147a.4.4 0 0 1-.138.114.46.46 0 0 1-.211.04.37.37 0 0 1-.174-.055c-.048-.077-.084-.142-.138-.207l-.09.067c.085.176.14.313.18.424l.088.003a.875.875 0 0 0 .399-.094.8.8 0 0 0 .26-.198.62.62 0 0 0 .052-.684.7.7 0 0 0-.095-.147m1.61-.282-.008.014a1 1 0 0 1-.142.183.73.73 0 0 1-.443.19.6.6 0 0 1-.213-.052.7.7 0 0 1-.23-.159 1.1 1.1 0 0 1-.205-.291q-.15-.297-.101-.527a.48.48 0 0 1 .268-.34.5.5 0 0 1 .223-.063c.062 0 .127.013.183.035.03.047.067.112.138.203l.084-.065a4 4 0 0 1-.101-.245 1 1 0 0 1-.044-.144l-.033-.028a1.265 1.265 0 0 0-.537.14q-.387.197-.483.537-.094.341.09.706.109.214.272.358a.9.9 0 0 0 .25.156.8.8 0 0 0 .294.058h.006a.95.95 0 0 0 .41-.11 1 1 0 0 0 .23-.153.9.9 0 0 0 .173-.23l-.027-.155zm.975-.664c.037.107.058.181.064.238-.002.006-.018.025-.09.068q-.084.054-.187.103c-.072.036-.135.064-.164.094a3 3 0 0 1-.071-.135l-.245-.455q.057-.037.151-.084a.6.6 0 0 1 .215-.068c.013.01.038.042.117.159l.088-.067-.276-.511-.088.067a.6.6 0 0 1 .057.163s-.008.01-.05.03q-.136.074-.157.085c-.048.023-.094.044-.115.071l-.116-.236c-.067-.133-.116-.244-.159-.31q.087-.053.172-.096.09-.044.192-.08c.047-.017.066-.019.087-.009.01.012.032.049.116.166l.084-.063-.134-.342-.036-.025-.041.011q-.11.049-.145.068l-.194.103-.294.15-.363.205.07.097c.092-.038.127-.048.152-.043.01.01.033.043.087.146l.369.736q.044.088.134.288c.032.073.055.125.067.145-.013.035-.033.072-.062.13l.04.08.019-.01.32-.169.32-.154.159-.073a2 2 0 0 0 .174-.096l.013-.047c-.048-.099-.103-.225-.19-.394zm.08-.037-.005.004.004-.006zm-.28-.071v.001zm-.207-.522h-.002zm2.073.194-.002.02-.037-.032a2 2 0 0 1-.15-.092l-.413-.3-.069-.05c-.035-.025-.069-.051-.097-.05l-.004-.003a.57.57 0 0 0 .15-.294.54.54 0 0 0-.044-.302.4.4 0 0 0-.153-.185.36.36 0 0 0-.194-.052.9.9 0 0 0-.25.081q-.08.037-.2.098a4.475 4.475 0 0 1-.362.169c-.093.037-.148.059-.172.093l.068.105c.095-.034.13-.041.159-.034.007.009.029.04.087.164l.458 1.017c.025.06.043.107.052.175a2 2 0 0 1-.132.096l.055.121.02-.009q.126-.069.28-.137c.114-.053.23-.102.355-.174l-.073-.113a.4.4 0 0 1-.15.04.4.4 0 0 1-.046-.076l-.129-.268q-.09-.194-.171-.369l-.193-.44c-.043-.099-.069-.163-.087-.168a.5.5 0 0 1 .087-.05.4.4 0 0 1 .151-.048q.069 0 .138.047a.46.46 0 0 1 .161.352.27.27 0 0 1-.044.152.6.6 0 0 1-.17.125l.02.06a.4.4 0 0 1 .091.046q.11.072.28.207l.397.314c.023.02.04.037.076.057q.074-.04.153-.075c.046-.02.12-.052.233-.122l-.072-.112a.2.2 0 0 1-.057.016m.102.086-.001-.002.002.002m.942-.814-.007-.018-.095.055c.027.11.042.185.043.242-.005.008-.023.025-.097.062q-.096.047-.196.084c-.075.03-.139.051-.172.078a2 2 0 0 1-.057-.141l-.203-.475a1 1 0 0 1 .158-.07.6.6 0 0 1 .221-.047c.01.008.031.04.101.167l.094-.058-.227-.534-.094.058c.025.07.04.12.042.168a.2.2 0 0 1-.053.027l-.166.07c-.048.018-.096.035-.118.06l-.096-.246c-.053-.139-.092-.254-.129-.325a1.8 1.8 0 0 1 .378-.14c.042-.01.062-.014.088-.002.013.019.037.075.1.177l.09-.056-.102-.353-.034-.027-.041.006q-.114.039-.151.054l-.203.084q-.169.07-.307.123l-.379.17.06.104c.09-.028.127-.033.156-.03.007.01.027.042.073.154l.3.768q.036.09.106.3c.026.075.044.129.054.15-.016.03-.038.065-.074.123l.033.084.02-.009.333-.138.333-.124.166-.06q.12-.045.183-.08l.016-.045c-.038-.096-.08-.224-.147-.39m-.018.008-.006.002.005-.004zm2.15-.28-.014.018-.03-.038a2 2 0 0 1-.23-.224l-.25-.266q-.01-.011-.059-.063c-.03-.03-.058-.06-.085-.066l-.004-.003a.6.6 0 0 0 .202-.262.54.54 0 0 0 .012-.304.4.4 0 0 0-.116-.21.31.31 0 0 0-.212-.09q-.087 0-.229.035-.087.02-.215.06a3.599 3.599 0 0 1-.387.097c-.098.02-.155.032-.186.06l.048.117a.5.5 0 0 1 .162-.005c.006.01.02.046.055.178l.262 1.084a.6.6 0 0 1 .017.182c-.01.008-.055.023-.147.07l.032.13.02-.008a5 5 0 0 1 .301-.081c.123-.03.245-.058.383-.106l-.051-.124a.3.3 0 0 1-.156.01.3.3 0 0 1-.03-.082l-.078-.287a23 23 0 0 1-.208-.864c-.023-.104-.037-.171-.054-.18a.7.7 0 0 1 .249-.052q.07.011.13.071t.088.17q.026.109.005.205a.27.27 0 0 1-.071.143.6.6 0 0 1-.19.091l.008.063a.3.3 0 0 1 .081.062q.093.09.236.255l.332.383c.023.028.034.048.064.07q.082-.025.165-.045c.05-.013.128-.03.25-.077l-.05-.124a.2.2 0 0 1-.05.006m-.696.29v-.003l.002.004zm1.894-.74-.002-.02-.106.031c-.001.113-.005.19-.018.246a.3.3 0 0 1-.108.035 2 2 0 0 1-.212.033c-.08.01-.147.015-.185.033q-.013-.075-.022-.151l-.08-.509a1.4 1.4 0 0 1 .322-.04l.075.018a1 1 0 0 1 .057.188l.105-.033-.089-.574-.105.033a.6.6 0 0 1-.001.173c-.002.001-.011.007-.057.013q-.152.023-.177.026c-.052.007-.103.01-.131.03l-.031-.262c-.019-.147-.029-.269-.046-.346a2 2 0 0 1 .193-.032c.062-.008.12-.014.208-.012.064.002.077.008.085.02l.054.198.1-.031-.012-.369-.023-.03-.041-.01-.003.001-.16.014-.217.033q-.18.026-.328.043l-.409.073.033.115c.095-.006.137-.004.157.01a.7.7 0 0 1 .034.167l.102.816a9 9 0 0 1 .03.317c.006.08.01.137.014.16-.023.026-.053.055-.101.1l.01.089.112-.016q.245-.035.267-.04l.353-.037.175-.016q.13-.016.197-.033l.027-.04c-.013-.104-.022-.237-.046-.412zm-.02.003h-.006l.006-.002zm1.546.282a2 2 0 0 1-.096-.15l-.24-.449-.041-.074c-.02-.038-.04-.074-.066-.088l-.002-.003a.52.52 0 0 0 .354-.491.4.4 0 0 0-.057-.233.3.3 0 0 0-.152-.132.9.9 0 0 0-.26-.035h-.067q-.079 0-.158.002l-.102.002h-.092a6 6 0 0 1-.227-.01c-.087-.006-.138-.009-.173.011l.016.125c.116.013.144.023.158.038.004.013.009.055.008.186l-.029 1.114a.6.6 0 0 1-.03.181c-.006.002-.03.007-.16.029l.018.132q.09-.003.186-.003l.126.001c.127.005.252.01.396-.001l-.017-.133c-.028-.002-.104-.006-.153-.03a.4.4 0 0 1-.008-.088v-.298l.006-.406.018-.482c.004-.106.008-.175-.006-.187a.5.5 0 0 1 .1-.008q.113.003.154.02.064.031.106.104a.35.35 0 0 1 .04.187.45.45 0 0 1-.047.2.26.26 0 0 1-.106.12.3.3 0 0 1-.14.025l-.066.013-.008.063q.03.026.061.08.067.112.162.307l.222.455c.011.029.02.052.043.086l.109-.002h.063l.24.01.021.003V61.9l-.016-.133c-.041-.002-.056-.008-.088-.037m-.71.131v-.003l.001.003zm2.182-.351.065-.293q.03-.13.087-.351c.047-.183.064-.234.07-.245l-.018-.01.06-.017c.022 0 .053.004.117-.003l.008-.126-.266-.051c-.024-.005-.098-.025-.248-.044l-.01.127c.097.025.128.044.15.078a.8.8 0 0 1-.027.185q-.015.074-.089.4l-.057.255q-.06.262-.115.344a.3.3 0 0 1-.15.12.4.4 0 0 1-.236.005.43.43 0 0 1-.192-.087.28.28 0 0 1-.09-.134.45.45 0 0 1-.008-.191q.007-.055.059-.281l.096-.435q.059-.26.09-.334l.054-.033c.025 0 .06.006.129 0l.023-.103-.036-.028-.672-.13-.01.125.14.072a.2.2 0 0 1-.005.076 7 7 0 0 1-.065.314l-.126.555q-.044.198-.05.244a.5.5 0 0 0 .009.166q.016.09.07.17a.5.5 0 0 0 .15.144.9.9 0 0 0 .489.143.53.53 0 0 0 .432-.2.6.6 0 0 0 .105-.197q.042-.117.066-.23m-.11-1.117-.002.004v-.004zm-.427-.115-.01-.002zm2.728.997c-.023-.01-.075-.04-.183-.081q-.075.08-.127.13l-.287.267-.281.258a3 3 0 0 0-.21.216l-.072.062.066-1.378a4 4 0 0 1-.205-.087c-.051-.025-.143-.07-.302-.131l-.037.124q.05.027.107.07l.013-.018.005.057c-.002.016-.02.067-.087.216q-.083.181-.193.416-.124.26-.177.368a5 5 0 0 1-.147.279c-.012.02-.02.029-.041.036-.005 0-.032-.003-.158-.032l-.035.126q.09.033.24.104c.076.036.149.074.247.104l.038-.124a.6.6 0 0 1-.108-.068l-.035-.02.025-.037q.008-.028.096-.223.076-.17.156-.338l.12-.302.107-.226-.032.693q-.009.17-.032.511c-.008.133-.015.238-.01.333l.088.029q.064-.063.168-.162l.268-.25.39-.384.276-.248-.376.796q-.114.243-.14.28c-.02.03-.034.035-.039.036-.008 0-.038-.007-.16-.038l-.037.125.637.301.048-.142c-.026-.016-.104-.059-.123-.107q.01-.036.07-.184l.08-.172.419-.872c.029-.062.052-.081.084-.09q.035 0 .107.036l.032.015.045-.143zm.27.141-.006-.004.008.003zm-1.451.73.041-.824-.027.812zm-.41-1.588v.003zm-.735 1.604.006.002zm.453.192.002-.005v.006zm.43-1.358-.016.353-.001-.315zm1.133.534-.188.398.156-.37zm-.764 1.223.008.004z"/></svg>