<svg xmlns="http://www.w3.org/2000/svg" width="79" height="100" fill="none"><g clip-path="url(#a)"><path fill="#C00" d="M79.31 26H.006v48H79.31z"/><path fill="#fff" d="M34.858 64.556v-4.174h.887v4.122c0 .94.522 1.513 1.409 1.513.886 0 1.408-.522 1.408-1.513v-4.122h.887v4.174c0 1.513-.991 2.296-2.295 2.296-1.305 0-2.296-.835-2.296-2.296M41.276 66.696h-.835v-4.279h.834v.626c.314-.521.835-.73 1.305-.73 1.043 0 1.513.73 1.513 1.67v2.713h-.835v-2.557c0-.574-.26-1.096-.991-1.096-.678 0-.992.522-.992 1.2zM45.606 60.174c.313 0 .626.26.626.626 0 .313-.261.574-.626.574a.58.58 0 0 1-.574-.574c0-.365.26-.626.574-.626m-.418 6.522v-4.279h.835v4.279zM49.258 66.696h-.835l-1.721-4.279h.939l1.2 3.287 1.252-3.286h.887zM55.31 65.496c-.26.782-.939 1.356-1.93 1.356-1.148 0-2.14-.835-2.14-2.296 0-1.356.992-2.243 2.035-2.243 1.305 0 2.035.887 2.035 2.243v.261h-3.235c0 .783.574 1.305 1.305 1.305.678 0 1.043-.365 1.2-.887zm-.835-1.41c0-.625-.417-1.095-1.2-1.095-.73 0-1.147.522-1.147 1.096zM58.545 63.252c-.104 0-.26-.052-.365-.052-.73 0-1.2.365-1.2 1.304v2.192h-.835v-4.279h.835v.73c.313-.678.835-.834 1.304-.834.105 0 .209 0 .261.052zM59.797 65.287c.053.47.418.782.992.782.47 0 .73-.26.73-.573 0-.261-.209-.47-.574-.575l-.73-.156c-.679-.156-1.096-.574-1.096-1.2 0-.73.678-1.356 1.513-1.356 1.2 0 1.565.782 1.617 1.147l-.73.261c-.052-.209-.209-.73-.887-.73-.417 0-.73.26-.73.574 0 .26.156.47.47.521l.678.157c.782.157 1.2.626 1.2 1.252s-.522 1.304-1.566 1.304c-1.2 0-1.67-.782-1.774-1.252zM63.606 60.174c.313 0 .626.26.626.626 0 .313-.261.574-.626.574a.58.58 0 0 1-.574-.574c0-.365.26-.626.574-.626m-.366 6.522v-4.279h.835v4.279zM66.371 62.417h.94v.783h-.94v2.243c0 .418.157.574.574.574.105 0 .261 0 .313-.052v.73c-.052.053-.26.105-.574.105-.73 0-1.2-.47-1.2-1.2v-2.348h-.782v-.783h.208c.47 0 .679-.26.679-.678v-.678h.782zM68.563 68.47l1.095-2.244-1.826-3.809h.94l1.356 2.974 1.304-2.974h.887l-2.765 6.105h-.991z"/><path fill="#fff" d="M34.858 64.556v-4.174h.887v4.122c0 .94.522 1.513 1.409 1.513.886 0 1.408-.522 1.408-1.513v-4.122h.887v4.174c0 1.513-.991 2.296-2.295 2.296-1.305 0-2.296-.835-2.296-2.296M41.276 66.696h-.835v-4.279h.834v.626c.314-.521.835-.73 1.305-.73 1.043 0 1.513.73 1.513 1.67v2.713h-.835v-2.557c0-.574-.26-1.096-.991-1.096-.678 0-.992.522-.992 1.2zM45.606 60.174c.313 0 .626.26.626.626 0 .313-.261.574-.626.574a.58.58 0 0 1-.574-.574c0-.365.26-.626.574-.626m-.418 6.522v-4.279h.835v4.279zM49.258 66.696h-.835l-1.721-4.279h.939l1.2 3.287 1.252-3.286h.887zM55.31 65.496c-.26.782-.939 1.356-1.93 1.356-1.148 0-2.14-.835-2.14-2.296 0-1.356.992-2.243 2.035-2.243 1.305 0 2.035.887 2.035 2.243v.261h-3.235c0 .783.574 1.305 1.305 1.305.678 0 1.043-.365 1.2-.887zm-.835-1.41c0-.625-.417-1.095-1.2-1.095-.73 0-1.147.522-1.147 1.096zM58.545 63.252c-.104 0-.26-.052-.365-.052-.73 0-1.2.365-1.2 1.304v2.192h-.835v-4.279h.835v.73c.313-.678.835-.834 1.304-.834.105 0 .209 0 .261.052zM59.797 65.287c.053.47.418.782.992.782.47 0 .73-.26.73-.573 0-.261-.209-.47-.574-.575l-.73-.156c-.679-.156-1.096-.574-1.096-1.2 0-.73.678-1.356 1.513-1.356 1.2 0 1.565.782 1.617 1.147l-.73.261c-.052-.209-.209-.73-.887-.73-.417 0-.73.26-.73.574 0 .26.156.47.47.521l.678.157c.782.157 1.2.626 1.2 1.252s-.522 1.304-1.566 1.304c-1.2 0-1.67-.782-1.774-1.252zM63.606 60.174c.313 0 .626.26.626.626 0 .313-.261.574-.626.574a.58.58 0 0 1-.574-.574c0-.365.26-.626.574-.626m-.366 6.522v-4.279h.835v4.279zM66.371 62.417h.94v.783h-.94v2.243c0 .418.157.574.574.574.105 0 .261 0 .313-.052v.73c-.052.053-.26.105-.574.105-.73 0-1.2-.47-1.2-1.2v-2.348h-.782v-.783h.208c.47 0 .679-.26.679-.678v-.678h.782zM68.563 68.47l1.095-2.244-1.826-3.809h.94l1.356 2.974 1.304-2.974h.887l-2.765 6.105h-.991zM14.25 39.148c.886 0 1.669.104 2.4.365s1.304.574 1.773 1.044q.705.626 1.096 1.565c.26.574.365 1.252.365 1.93 0 .94-.26 1.774-.782 2.453q-.783 1.096-1.879 1.408c.418.105.835.261 1.2.522.366.209.73.522 1.044.887.313.365.574.782.73 1.252s.261 1.044.261 1.617c0 .73-.156 1.461-.417 2.087s-.679 1.148-1.148 1.618a5.6 5.6 0 0 1-1.774 1.095c-.678.261-1.461.366-2.348.366H7.415v-18.21zm-.627 7.304c.73 0 1.305-.156 1.722-.521.417-.366.626-.835.626-1.461 0-.574-.209-1.096-.574-1.409-.417-.365-.991-.522-1.774-.522h-2.139v3.913zm.313 7.566c.783 0 1.409-.21 1.826-.574.47-.366.679-.887.679-1.566 0-.626-.21-1.147-.679-1.565-.417-.417-1.043-.574-1.878-.574h-2.556v4.279zM30.006 48.435c-.21-.052-.418-.105-.626-.105h-.574a4 4 0 0 0-1.148.157 2.2 2.2 0 0 0-.94.574c-.26.26-.469.626-.678 1.096a5 5 0 0 0-.26 1.617v5.583h-3.914V44.574h3.757v1.722c.156-.365.365-.678.678-.887.261-.261.574-.418.835-.574q.47-.235.94-.313c.312-.052.625-.105.834-.105.417 0 .73.053 1.043.105v3.913zM37.206 44.209c.94 0 1.826.156 2.66.522.836.313 1.514.782 2.14 1.408.626.574 1.096 1.305 1.46 2.14.366.834.523 1.721.523 2.713 0 .99-.157 1.878-.522 2.713-.365.834-.835 1.565-1.461 2.139a7.6 7.6 0 0 1-2.14 1.408c-.834.313-1.72.522-2.66.522s-1.826-.156-2.66-.522c-.836-.313-1.514-.782-2.14-1.408-.574-.626-1.096-1.305-1.409-2.14-.365-.834-.521-1.721-.521-2.712s.156-1.879.521-2.713a6.8 6.8 0 0 1 1.461-2.14 7.6 7.6 0 0 1 2.14-1.408c.782-.366 1.669-.522 2.608-.522m0 9.913c.365 0 .73-.052 1.096-.209.365-.104.626-.313.887-.574.26-.26.47-.573.626-.99s.26-.888.26-1.41-.104-.99-.26-1.408a2.7 2.7 0 0 0-.626-.992c-.261-.26-.574-.47-.887-.574-.365-.104-.679-.208-1.096-.208-.365 0-.73.052-1.044.209a2.2 2.2 0 0 0-.939.573c-.26.261-.47.574-.626.992-.156.417-.26.887-.26 1.408 0 .522.104.992.26 1.41s.365.73.626.99c.261.261.574.47.94.574.365.157.73.209 1.043.209M51.762 47.809c-.417 0-.782.052-1.148.209a3 3 0 0 0-.939.626c-.26.26-.47.626-.626.991-.156.417-.208.835-.208 1.357 0 .521.104.939.26 1.356.157.365.366.73.627.991q.39.392.939.626c.365.157.73.21 1.148.21.73 0 1.356-.21 1.773-.575.418-.417.73-.835.835-1.304l3.444 1.043c-.157.574-.365 1.096-.73 1.618-.314.521-.783.991-1.253 1.408-.522.418-1.096.73-1.774.992-.678.26-1.46.365-2.295.365-.94 0-1.879-.157-2.661-.522a6.1 6.1 0 0 1-2.192-1.409c-.626-.573-1.095-1.304-1.46-2.139-.366-.834-.522-1.721-.522-2.713 0-.991.156-1.878.522-2.713.365-.834.834-1.565 1.46-2.139a7.6 7.6 0 0 1 2.14-1.409c.834-.313 1.669-.521 2.608-.521.887 0 1.67.104 2.348.365.678.26 1.304.574 1.826.991q.784.626 1.252 1.409c.313.522.574 1.096.678 1.67l-3.495 1.043c-.052-.26-.157-.47-.313-.73-.157-.21-.313-.418-.522-.626a3.3 3.3 0 0 0-.73-.418c-.261 0-.574-.052-.992-.052M67.154 49.948l5.112 7.409h-4.8l-2.973-4.487-1.253 1.356v3.13h-3.913V38.784h3.913v10.07l3.861-4.279h5.061z"/></g><defs><clipPath id="a"><path fill="#fff" d="M0 0h79v100H0z"/></clipPath></defs></svg>