<svg xmlns="http://www.w3.org/2000/svg" width="126" height="100" fill="none"><path fill="#00A0E9" d="M27.917 61.369c2.013 0 3.125-1.342 3.125-3.221v-9.605h4.294v9.816c-.038 4.314-3.489 6.02-7.42 6.02-3.91 0-7.38-1.706-7.419-6.02v-9.816h4.295v9.605c.019 1.879 1.112 3.22 3.125 3.22"/><path fill="#000" d="M64.055 58.033c0-2.991-1.687-5.1-4.754-5.1-3.413 0-5.004 2.646-5.004 5.81 0 3.182 1.38 5.636 4.85 5.636 2.589 0 4.467-1.227 4.793-3.681h-2.147c-.23 1.572-1.035 2.185-2.626 2.185-2.09 0-2.78-1.86-2.78-3.853h7.668zm-4.908-3.624c1.975 0 2.742 1.361 2.742 3.202h-5.483c.019-1.668 1.054-3.202 2.741-3.202M68.58 48.524H66.53v15.53h2.051zM9.359 64.053h4.294v-12.52h4.831v-3.01H4.546v3.01h4.812zM19.692 40.97c-1.055.326-2.128.058-2.128-1.342 0-2.147 5.023-3.93 5.713-5.809.173-.46.192-.843-.038-.843-.154.019-.039.249-.384.594-2.09 2.09-5.56 2.07-8.244 3.278-1.763.786-6.901 3.202-5.713 8.608.058.25.211 1.112.364 1.112.173 0 .173-.517.173-1.13-.038-3.222 3.758-4.104 5.004-6.212.153-.25.402-.595.46-.441.038.076.02.191-.038.421-.384 1.726-2.186 2.838-1.687 4.065.67 1.591 2.569.402 3.163-.614.153-.287.25-.46.345-.421.077.019.077.345.02.651-.308 1.86-.749 2.895-2.11 3.95-.44.345-1.112.402-1.035.67.02.078.326.058.556.04 3.623-.23 6.653-4.506 7.439-7.286.076-.192.115-.384.019-.441-.115-.077-.269.115-.422.25-.364.363-.94.728-1.457.9M91.01 48.524h-1.092v4.026h1.093c1.323 0 2.07-.671 2.07-2.013s-.747-2.013-2.07-2.013m.097 3.7h-.825V48.87h.575c1.15-.038 1.84.498 1.84 1.687 0 .997-.46 1.668-1.59 1.668M94.807 49.674c-.825 0-1.246.728-1.246 1.476 0 .767.383 1.476 1.226 1.476.672 0 1.093-.306 1.266-.977h-.345a.82.82 0 0 1-.805.67c-.69 0-.959-.498-.978-1.092h2.166c0-.863-.345-1.553-1.284-1.553m-.882 1.246c.038-.498.326-.94.882-.94.575 0 .862.403.9.94zM97.012 48.524h-.326v4.026h.325zM98.085 52.55h.326v-2.492h.633v-.307h-.633v-.364c-.019-.403 0-.633.46-.633.077 0 .135.02.211.02v-.27c-.096-.018-.21-.057-.326-.057-.479 0-.67.211-.67.69v.595h-.557v.306h.556zM99.85 51.802c0 .383-.039.824.67.824q.172 0 .345-.057V52.3a1.5 1.5 0 0 1-.287.039c-.249 0-.384-.134-.384-.403v-1.879h.633v-.306h-.633v-.748l-.326.153v.595h-.555v.306h.555v1.745zM92.506 56.883c-.019.728-.44 1.17-1.112 1.17-.67 0-1.073-.442-1.112-1.17v-2.608h-.364v2.608c.02.862.498 1.495 1.476 1.495s1.457-.633 1.476-1.495v-2.608h-.364zM94.807 55.426c-.364 0-.69.153-.882.498l-.019-.019-.02-.422h-.344c.019.192.019.422.019.633v2.166h.326v-1.61c0-.498.25-.959.805-.959.46 0 .729.288.729.767v1.802h.325v-1.744c.039-.307-.038-1.112-.939-1.112M96.896 54.275h-.383v.422h.383zM96.896 55.502h-.345v2.8h.345zM98.737 57.841l-.958-2.339h-.364l1.13 2.8h.384l1.112-2.8h-.364zM101.498 55.426c-.824 0-1.246.728-1.246 1.476 0 .767.383 1.476 1.227 1.476.671 0 1.093-.306 1.265-.977h-.345a.82.82 0 0 1-.805.67c-.69 0-.959-.498-.978-1.092h2.167c0-.863-.345-1.553-1.285-1.553m-.863 1.246c.039-.498.326-.94.882-.94.575 0 .863.403.901.94zM103.76 55.924l-.019-.422h-.345c.019.192.038.422.019.633V58.3h.326v-1.687c.019-.537.268-.882.767-.882.077 0 .134.02.211.02v-.327c-.115 0-.23-.019-.326 0-.288 0-.537.211-.633.499M106.713 56.825c-.767-.268-1.304-.23-1.304-.632 0-.326.326-.46.633-.46.345 0 .651.115.69.46h.364c-.038-.595-.498-.767-1.016-.767-.499 0-1.035.191-1.035.786 0 .517.441.652.881.747.441.096.882.173.882.576 0 .383-.364.556-.728.556-.384 0-.748-.115-.767-.537h-.364c.019.613.575.843 1.054.843.595 0 1.17-.287 1.17-.92.019-.307-.154-.556-.46-.652M108.169 55.502h-.325v2.8h.325zM108.208 54.275h-.383v.422h.383zM109.646 57.688V55.81h.632v-.306h-.632v-.748l-.326.153v.595h-.556v.306h.556v1.745c0 .383-.038.824.671.824q.172 0 .345-.057v-.269c-.096.02-.192.039-.288.039q-.402-.03-.402-.403M112.043 57.841l-.94-2.339h-.402l1.15 2.8-.422 1.073h.364l1.553-3.873h-.364zM116.49 55.426c-.901 0-1.303.747-1.303 1.476 0 .728.402 1.476 1.303 1.476s1.304-.748 1.304-1.476c0-.729-.403-1.476-1.304-1.476m0 2.645c-.671 0-.939-.651-.939-1.169s.268-1.17.939-1.17.94.652.94 1.17-.269 1.17-.94 1.17M119.366 54.525c.077 0 .134.019.211.019v-.269c-.096-.019-.211-.057-.326-.057-.479 0-.671.21-.671.69v.594h-.556v.307h.556v2.492h.326V55.81h.633v-.307h-.633v-.364c-.019-.383 0-.613.46-.613M92.87 60.027h-2.952v.345h1.304v3.68h.364v-3.68h1.284zM93.733 61.177c-.824 0-1.246.729-1.246 1.477 0 .766.384 1.476 1.227 1.476.671 0 1.093-.307 1.265-.978h-.345a.84.84 0 0 1-.805.671c-.69 0-.958-.498-.978-1.093h2.167c-.02-.863-.365-1.553-1.285-1.553m-.882 1.246c.039-.498.326-.939.882-.939.575 0 .863.403.901.94zM96.686 61.484c.46 0 .728.21.767.633h.364c-.02-.595-.498-.94-1.073-.94-.825 0-1.247.729-1.247 1.477 0 .766.384 1.476 1.227 1.476.633 0 .997-.326 1.093-.959h-.364c-.02.384-.326.652-.767.652-.518 0-.824-.537-.824-1.189 0-.613.306-1.15.824-1.15M99.58 61.177a.98.98 0 0 0-.881.499h-.02v-1.65h-.325v4.027h.326v-1.61c0-.499.249-.96.805-.96.46 0 .728.289.728.768v1.802h.346v-1.745c.019-.326-.058-1.13-.978-1.13M102.457 61.177a.98.98 0 0 0-.882.499l-.019-.02-.02-.402h-.345c.02.192.02.403.02.633v2.166h.325v-1.61c0-.499.25-.959.806-.959.46 0 .728.288.728.767v1.802h.326v-1.745c.039-.325-.019-1.13-.939-1.13M105.371 61.177c-.901 0-1.304.748-1.304 1.477 0 .728.403 1.476 1.304 1.476s1.304-.748 1.304-1.476c0-.73-.422-1.477-1.304-1.477m0 2.646c-.671 0-.939-.652-.939-1.17s.268-1.169.939-1.169.939.652.939 1.17-.268 1.169-.939 1.169M107.575 60.027h-.325v4.026h.325zM109.473 61.177c-.901 0-1.304.748-1.304 1.477 0 .728.403 1.476 1.304 1.476s1.304-.748 1.304-1.476c0-.73-.422-1.477-1.304-1.477m0 2.646c-.671 0-.939-.652-.939-1.17s.268-1.169.939-1.169.94.652.94 1.17-.269 1.169-.94 1.169M113.385 61.676l-.02.019c-.23-.326-.517-.518-.92-.518-.862 0-1.188.71-1.188 1.457 0 .767.364 1.419 1.207 1.419.365 0 .748-.192.901-.518h.02v.518c-.02.46-.422.767-.844.767-.364 0-.748-.115-.786-.441h-.364c0 .575.594.748 1.112.748.268 0 .422-.02.632-.135.614-.287.595-.882.595-1.437v-1.668c0-.211.019-.441.019-.633h-.345zm-.882 2.051c-.614 0-.882-.613-.882-1.131s.249-1.131.863-1.131c.594 0 .901.575.901 1.112 0 .556-.25 1.15-.882 1.15M116.452 61.254l-.94 2.339-.939-2.34h-.403l1.151 2.8-.422 1.074h.364l1.553-3.873zM74.983 64.053v-9.375h2.493v-1.419h-2.493v-1.745c0-1.246.595-1.457 1.764-1.457.345 0 .69.039 1.035.058v-1.687c-.479-.115-.958-.211-1.457-.211-1.936 0-3.374.978-3.374 3.029v2.013h-2.109v1.419h2.11v9.375zM78.646 53.26v1.418h1.86v6.883c0 1.437.018 2.818 3.047 2.818.48 0 .92-.039 1.4-.135v-1.572a5 5 0 0 1-1.074.135c-.728 0-1.342-.365-1.342-1.132v-6.978h2.493v-1.438h-2.493v-2.952l-2.051.651v2.301zM44.98 48.524h-5.33v15.53h5.33c6.633 0 7.342-5.618 7.342-7.766 0-2.128-.71-7.764-7.343-7.764m0 13.689h-3.183v-11.83h3.182c3.585 0 5.08 2.704 5.08 5.925 0 3.201-1.495 5.905-5.08 5.905"/></svg>