<svg xmlns="http://www.w3.org/2000/svg" width="141" height="100" fill="none"><g clip-path="url(#a)"><path fill="#1D1D1F" d="M.816 40.943h9.658V72.82H.816zm4.84-14.536c-3.24 0-5.59 2.04-5.59 4.937 0 2.873 2.35 4.938 5.59 4.938 3.242 0 5.59-2.065 5.59-4.938 0-2.896-2.348-4.937-5.59-4.937M38.14 62.04c-1.886 2.51-3.367 3.506-5.794 3.506-2.788 0-4.047-1.435-4.047-6.023v-18.58H18.64v19.789c0 7.967 3.023 12.858 10.11 12.858 4.446 0 7.513-2.018 10.233-5.194h.239l.694 4.421h7.881V40.943H38.14zM58.39 40.936h-.913v7.002h.913zm2.985 3.34c0-.733-.071-1.479-.115-2.188h.044l.773 1.445 2.59 4.404h.94v-7.001h-.865v3.622c0 .733.068 1.522.116 2.227h-.044l-.773-1.451-2.59-4.401h-.94v7.001h.864zm7.844 3.665h.912v-6.25h2.165v-.752h-5.242v.753h2.165zm5.426-3.303h2.713v-.752h-2.713v-2.194h3.217v-.753h-4.13v7.002h4.24v-.756h-3.327zm8.133.236 1.828 3.063H83.57l-1.722-2.96h-1.294v2.96h-.912v-7.001h2.243c1.457 0 2.506.513 2.506 1.97 0 1.093-.64 1.735-1.614 1.968m.705-1.967c0-.92-.613-1.249-1.726-1.249h-1.202v2.597h1.202c1.113 0 1.726-.44 1.726-1.348m6.76 1.655c0 .732.072 1.521.116 2.227h-.044l-.773-1.452-2.59-4.401h-.94v7.002h.865v-3.663c0-.732-.068-1.478-.116-2.187h.044l.773 1.445 2.59 4.404h.94v-7.001h-.864zm5.488-3.626 2.42 7.002h-.963l-.68-2.135h-2.612l-.687 2.135h-.926l2.424-7.002zm.208 3.093a60 60 0 0 1-.718-2.36h-.045a49 49 0 0 1-.708 2.36l-.344 1.065h2.155zm4.276 3.912h.912v-6.25h2.165v-.752h-5.242v.753h2.165zm5.429-7.005h-.912v7.002h.912zm7.823 3.476c0 2.244-1.263 3.655-3.06 3.655s-3.06-1.411-3.06-3.655 1.262-3.603 3.06-3.603c1.801 0 3.06 1.365 3.06 3.603m-.939 0c0-1.745-.841-2.82-2.121-2.82s-2.117 1.075-2.117 2.82.84 2.873 2.117 2.873c1.276 0 2.121-1.129 2.121-2.873m7.738 3.529v-7.005h-.865v3.622c0 .733.068 1.522.115 2.227h-.044l-.773-1.451-2.59-4.401h-.939v7.001h.864v-3.659c0-.732-.072-1.478-.116-2.187h.044l.773 1.445 2.591 4.404h.94zm4.622-7.005 2.421 7.002h-.963l-.682-2.135h-2.61l-.688 2.135h-.93l2.425-7.002zm.209 3.093a59 59 0 0 1-.719-2.36h-.044c-.222.812-.45 1.578-.708 2.36l-.344 1.065h2.155zm4.251-3.093h-.912v7.002h4.037v-.756h-3.125zm5.464 6.249v-2.547h2.714v-.752h-2.714v-2.194h3.217v-.753h-4.126v7.002h4.235v-.756zm-73.093 9.126h-3.33v-2.934h-.911v7.002h.912v-3.293h3.33v3.293h.908v-7.001h-.909zm8.736.542c0 2.244-1.263 3.656-3.06 3.656s-3.061-1.412-3.061-3.656 1.263-3.605 3.06-3.605c1.8 0 3.06 1.368 3.06 3.605m-.94 0c0-1.744-.84-2.82-2.12-2.82s-2.118 1.076-2.118 2.82c0 1.745.84 2.87 2.117 2.87 1.28 0 2.121-1.125 2.121-2.87m5.382 2.87c-1.358 0-2.216-1.102-2.216-2.863 0-1.745.899-2.83 2.254-2.83.602 0 1.075.267 1.453.66l.5-.58a2.7 2.7 0 0 0-1.967-.862c-1.818 0-3.18 1.378-3.18 3.635 0 2.274 1.338 3.623 3.122 3.623.93 0 1.63-.37 2.196-1.013l-.5-.559c-.46.5-.978.79-1.662.79m7.888-3.412h-3.33v-2.934h-.912v7.002h.912v-3.293h3.33v3.293h.912v-7.001h-.912zm5.981.336-1.021-.433c-.562-.233-1.185-.483-1.185-1.158 0-.626.531-1.023 1.335-1.023.66 0 1.184.253 1.623.656l.484-.572a2.99 2.99 0 0 0-2.107-.87c-1.3 0-2.254.79-2.254 1.858 0 1.03.783 1.525 1.45 1.805l1.028.443c.678.29 1.195.516 1.195 1.232 0 .679-.555 1.138-1.498 1.138-.745 0-1.46-.343-1.974-.869l-.545.613a3.47 3.47 0 0 0 2.506 1.039c1.504 0 2.44-.883 2.44-1.991-.003-1.04-.65-1.522-1.477-1.868m5.777 3.076c-1.358 0-2.216-1.102-2.216-2.863 0-1.745.899-2.83 2.254-2.83.606 0 1.079.267 1.453.66l.5-.58a2.7 2.7 0 0 0-1.97-.862c-1.818 0-3.177 1.378-3.177 3.635 0 2.274 1.338 3.623 3.119 3.623.93 0 1.63-.37 2.196-1.013l-.5-.559c-.457.5-.975.79-1.659.79m7.892-3.412h-3.33v-2.934h-.912v7.002h.912v-3.293h3.33v3.293h.908v-7.001h-.908zm7.271 1.202c0 1.68-.75 2.21-1.699 2.21-.936 0-1.661-.53-1.661-2.21v-4.135h-.913v4.111c0 2.248 1.113 3.02 2.574 3.02s2.57-.772 2.57-3.02v-4.111h-.875v4.135zm3.867-4.135h-.912v7.001h4.037v-.756h-3.125zm5.46 3.702h2.714v-.756h-2.714V54.13h3.217v-.756h-4.126v7.002h4.236v-.756h-3.327z"/></g><defs><clipPath id="a"><path fill="#fff" d="M.667 0h140v100h-140z"/></clipPath></defs></svg>