<svg xmlns="http://www.w3.org/2000/svg" width="121" height="100" fill="none"><path fill="#231F20" d="M13.303 33.442v17.556c0 7.875 9.554 15.56 12.87 15.56 3.065 0 12.869-7.685 12.869-15.56V33.441z"/><path fill="#fff" d="M13.586 33.807v17.168c0 7.702 9.344 15.218 12.586 15.218 2.999 0 12.587-7.516 12.587-15.218V33.808z"/><path fill="#E01932" d="M13.585 33.807h25.173v8.533h-3.536v1.801h-3.405v-1.808h-4.035v1.808H24.35v-1.808h-3.964v1.808h-3.438v-1.81h-3.362z"/><path fill="#231F20" d="M35.327 44.28h-3.615V42.47h-3.824v1.808h-3.644v-1.808h-3.753v1.808h-3.649v-1.81h-3.257v-.21h3.467v1.81h3.228V42.26h4.175v1.807h3.223v-1.807h4.245v1.807h3.193v-1.8h3.642v.21h-3.43z"/><path fill="#fff" d="m16.556 35.29-.104.024c-.326.187-.179 1.545.796 3.247.844 1.472 1.83 2.352 2.296 2.352l.104-.024c.123-.07.221-.383.094-1.03-.128-.65-.445-1.438-.89-2.217-.845-1.472-1.83-2.352-2.296-2.352m2.988 6.115c-.852 0-1.981-1.306-2.722-2.6-.916-1.597-1.42-3.456-.614-3.918a.7.7 0 0 1 .348-.089c.851 0 1.98 1.306 2.722 2.6.472.824.809 1.664.947 2.367.2 1.01-.072 1.4-.333 1.55a.7.7 0 0 1-.348.09"/><path fill="#fff" d="M17.984 37.191c-1.92 0-3.149.535-3.151.903 0 .142.219.385.842.6.627.217 1.467.34 2.365.345h.068c1.92 0 3.148-.534 3.15-.902.002-.142-.219-.384-.84-.6-.629-.217-1.468-.34-2.366-.345zm.124 2.34h-.072c-.95-.006-1.846-.139-2.522-.373-.973-.335-1.175-.766-1.173-1.068.007-.913 1.838-1.39 3.643-1.39h.071c.95.006 1.846.138 2.523.372.973.337 1.174.767 1.173 1.068-.007.914-1.838 1.39-3.643 1.39"/><path fill="#fff" d="M19.573 35.278c-.466 0-1.452.88-2.296 2.352-.446.778-.763 1.567-.89 2.217-.128.647-.029.959.094 1.03l.104.024c.466 0 1.452-.88 2.295-2.353.976-1.701 1.123-3.059.796-3.247zm-2.988 6.115a.7.7 0 0 1-.349-.09c-.261-.15-.531-.54-.332-1.55.137-.703.474-1.543.946-2.368.742-1.294 1.871-2.6 2.723-2.6q.193 0 .348.09c.807.462.302 2.321-.614 3.918-.741 1.294-1.87 2.6-2.722 2.6"/><path fill="#231F20" d="M16.564 41.475a.8.8 0 0 1-.284-.052q-.401-.16-.524-.773c-.003-.025-.073-.516.168-1.368l.022-.079.662.132-.028.093c-.001.005-.152.513-.162.819-.012.163 0 .447.09.539l.065.025h.009l.008.001h.002c.021 0 .22-.008.611-.312.005-.003.581-.476.954-1.019.008-.011.585-.766.87-1.402.01-.017.561-.995.696-2.048.03-.198.034-.544-.085-.641-.016-.013-.062-.051-.187-.004-.011.003-.666.218-1.502 1.374-.005.007-.521.733-.866 1.41l-.157-.079c.35-.69.875-1.426.88-1.433.876-1.212 1.56-1.43 1.588-1.44.177-.065.291-.018.355.035.236.192.158.74.148.803-.139 1.085-.69 2.062-.713 2.103-.29.647-.86 1.393-.885 1.425-.384.56-.96 1.034-.985 1.053-.444.344-.682.355-.74.35a.25.25 0 0 1-.192-.08c-.173-.178-.143-.62-.139-.669.007-.246.097-.601.142-.768l-.313-.063c-.206.769-.143 1.209-.142 1.212.067.342.207.558.414.64.417.166.989-.239.995-.244.645-.417 1.44-1.541 1.448-1.553.767-1.032 1.248-2.528 1.252-2.543.165-.55.187-.995.187-1 .02-.416-.064-.714-.252-.886a.67.67 0 0 0-.498-.16c-1.23.158-2.652 2.737-2.666 2.763l-.154-.084c.06-.109 1.48-2.684 2.797-2.853a.84.84 0 0 1 .64.204q.343.317.308 1.024c0 .019-.022.471-.194 1.043-.006.018-.495 1.542-1.278 2.595-.032.045-.82 1.162-1.491 1.596-.02.013-.444.313-.874.313"/><path fill="#231F20" d="M19.029 38.153a7.8 7.8 0 0 0-1.046-1.614l.131-.117a7.8 7.8 0 0 1 1.072 1.655zm.272-.559a9 9 0 0 0-.993-1.437l.132-.116c.006.007.6.693 1.016 1.47zm-2.479 1.413-.443-.852c-1.197-2.666-.45-3.204-.346-3.263.88-.663 2.034.718 2.084.777l-.136.112c-.01-.013-1.1-1.316-1.847-.745l-.015.01c-.007.003-.748.434.418 3.033l.44.848z"/><path fill="#231F20" d="M17.469 39.1c-1.617-2.365-1.248-3.597-1.232-3.649.08-.176.2-.226.287-.24.466-.068 1.192.737 1.273.83l-.132.116c-.204-.23-.801-.815-1.115-.772-.042.007-.103.027-.15.13.001.003-.347 1.203 1.214 3.487zm2.096 2.407c-.417 0-.946-.315-1.578-.94l.124-.124c.875.865 1.367.946 1.628.862.356-.116.438-.593.439-.599.215-.741-.59-2.537-.598-2.555l.16-.072c.034.077.84 1.873.609 2.666 0 .013-.096.576-.555.726a.7.7 0 0 1-.23.036"/><path fill="#231F20" d="M19.515 40.995q-.422-.001-1.202-.797l.125-.123c.796.813 1.088.761 1.159.728.114-.057.152-.28.105-.612-.128-.897-.414-1.43-.417-1.437l.155-.084c.011.023.304.569.436 1.496.061.43-.006.698-.201.794zm-1.844-.801c-.117-.108-.448-.598-.485-.654l.145-.099c.143.212.382.552.46.622zm-1.42-1.343-.172-.036c.015-.076.232-.581.298-.734l.162.07a12 12 0 0 0-.288.7"/><path fill="#231F20" d="m19.228 39.054-.02-.175.247-.027.02.175zm-.319.551c-.09 0-.102-.017-.119-.038l.138-.108-.044-.029c.058.008.418-.04.733-.088l.028.173c-.427.068-.632.09-.735.09m-.726.015c-.29 0-1.792-.02-2.734-.389-.502-.198-1.117-.536-1.19-1.029-.044-.31.133-.624.526-.933.022-.015.466-.329 1.187-.47l.033.172c-.68.134-1.11.436-1.115.438-.337.266-.492.524-.456.767.047.321.43.637 1.08.892.992.39 2.697.375 2.714.375l.002.177z"/><path fill="#231F20" d="M18.133 39.14c-1.28 0-2.858-.323-3.294-.833-.11-.128-.102-.245-.076-.32.14-.414 1.25-.66 1.376-.688l.037.172c-.438.093-1.165.331-1.247.573-.01.03-.017.078.044.15.408.477 2.191.852 3.6.756l.012.176a7 7 0 0 1-.451.014m-1.53-1.755-.03-.173q.312-.053.366-.047l-.022.175a5 5 0 0 0-.314.044m-.166-.492-.026-.173c.026-.005.632-.099.87-.1v.175c-.224.002-.837.098-.844.098"/><path fill="#231F20" d="m16.742 38.96-.16-.07.096-.229.162.068zm1.834-1.657c-.11-.03-.686-.026-1.025-.016l-.005-.176c.092-.002.906-.025 1.078.024zm-.696-.507-.003-.175.351-.009.004.176zm1.734.135c-.359-.094-.727-.088-.737-.094v-.175c.017-.002.4 0 .781.099zm-.157.47-.299-.063.037-.172.298.063zm.516 1.538-.039-.17c.86-.194 1.105-.455 1.107-.457l.009-.009c.122-.103.106-.17.1-.193-.06-.249-.778-.503-1.216-.606l.04-.171c.127.03 1.243.303 1.347.735.021.089.012.223-.154.365-.042.046-.327.312-1.194.506"/><path fill="#231F20" d="m20.17 39.424-.03-.173c.015-.003 1.582-.29 1.516-1.107-.067-.83-1.534-1.11-1.549-1.112l.032-.173c.066.012 1.614.307 1.692 1.271.079.976-1.59 1.281-1.66 1.294"/><path fill="#fff" d="M16.508 36.212a.455.455 0 1 1-.91 0 .455.455 0 0 1 .91 0"/><path fill="#231F20" d="M16.053 35.843a.369.369 0 1 0 0 .738.369.369 0 0 0 0-.738m0 .912a.543.543 0 1 1-.001-1.085.543.543 0 0 1 0 1.085"/><path fill="#fff" d="M18.535 38.141a.456.456 0 0 1-.457.456.457.457 0 1 1 0-.912c.252 0 .457.204.457.456"/><path fill="#231F20" d="M18.078 37.772a.369.369 0 0 0 0 .738.37.37 0 0 0 0-.738m0 .913a.544.544 0 1 1 .001-1.09.544.544 0 0 1 0 1.09"/><path fill="#fff" d="M17.738 40.796a.457.457 0 1 1-.913.02.457.457 0 0 1 .913-.02"/><path fill="#231F20" d="M17.282 40.428a.37.37 0 0 0-.382.368.368.368 0 0 0 .634.256.368.368 0 0 0-.252-.624m0 .913a.544.544 0 0 1-.545-.545.545.545 0 0 1 1.089 0 .544.544 0 0 1-.544.545"/><path fill="#fff" d="M21.391 38.81a.457.457 0 1 1-.914 0 .457.457 0 0 1 .914 0"/><path fill="#231F20" d="M20.934 38.441a.369.369 0 1 0 .002.738.369.369 0 0 0-.002-.738m0 .912a.544.544 0 1 1 0-1.088.544.544 0 0 1 0 1.088"/><path fill="#fff" d="m32.712 35.305-.104.024c-.123.07-.222.383-.094 1.03.128.65.444 1.438.89 2.216.844 1.473 1.83 2.353 2.296 2.353l.104-.024c.123-.071.222-.382.094-1.03-.128-.65-.444-1.438-.89-2.217-.845-1.472-1.83-2.351-2.296-2.351M35.7 41.42c-.852 0-1.98-1.306-2.722-2.6-.473-.824-.809-1.665-.947-2.367-.198-1.01.072-1.4.333-1.551a.7.7 0 0 1 .348-.089c.852 0 1.981 1.305 2.722 2.599.473.825.809 1.665.947 2.368.198 1.01-.071 1.4-.333 1.55a.7.7 0 0 1-.348.09"/><path fill="#fff" d="M34.14 37.206c-1.92 0-3.148.534-3.15.902-.002.142.218.385.842.6.627.217 1.467.34 2.364.345h.07c1.919 0 3.147-.533 3.15-.902.002-.377-1.246-.933-3.208-.945zm.125 2.34h-.072c-.95-.007-1.846-.139-2.522-.373-.973-.336-1.175-.766-1.173-1.068.006-.914 1.836-1.391 3.642-1.391h.072c1.841.013 3.7.511 3.696 1.44-.007.914-1.837 1.391-3.643 1.391"/><path fill="#fff" d="M35.73 35.292c-.467 0-1.453.88-2.297 2.352-.974 1.702-1.122 3.06-.795 3.247l.102.024c.467 0 1.453-.88 2.296-2.352.976-1.701 1.122-3.06.796-3.247zm-2.99 6.115a.7.7 0 0 1-.347-.09c-.807-.461-.302-2.32.614-3.918.741-1.293 1.87-2.599 2.722-2.599q.192 0 .348.09c.806.462.301 2.321-.613 3.918-.742 1.293-1.871 2.6-2.723 2.6"/><path fill="#231F20" d="M32.721 41.488a.8.8 0 0 1-.284-.05q-.402-.162-.523-.775c-.004-.024-.074-.514.167-1.368l.022-.078.662.133-.028.092c-.001.005-.152.513-.162.82-.012.161.002.445.09.538l.065.026.009-.001.008.001c.004 0 .2.01.614-.311.005-.004.58-.476.953-1.02.008-.01.586-.766.87-1.401.01-.018.562-.996.697-2.048.03-.2.034-.545-.086-.643-.015-.012-.063-.05-.187-.004-.011.004-.666.22-1.502 1.375-.005.007-.521.733-.866 1.41l-.156-.078c.35-.69.874-1.427.88-1.434.876-1.211 1.559-1.43 1.587-1.439.176-.065.291-.018.355.034.236.193.158.741.149.803-.14 1.086-.69 2.062-.714 2.102-.29.647-.861 1.395-.885 1.427-.384.56-.96 1.033-.985 1.053-.444.343-.684.355-.738.35a.24.24 0 0 1-.193-.08c-.174-.18-.143-.62-.14-.67.008-.247.097-.601.142-.768l-.313-.063c-.205.769-.143 1.21-.142 1.213.067.341.207.557.414.639.417.166.99-.24.995-.244.645-.418 1.44-1.541 1.448-1.553.767-1.032 1.248-2.528 1.252-2.543.166-.55.186-.996.186-1 .021-.416-.064-.714-.252-.886a.66.66 0 0 0-.496-.16c-1.231.158-2.652 2.738-2.666 2.764l-.155-.085c.06-.109 1.479-2.684 2.797-2.853.014-.002.364-.048.64.205q.342.315.308 1.023c0 .02-.022.471-.194 1.043-.005.017-.495 1.541-1.278 2.596-.031.044-.82 1.162-1.491 1.595-.019.013-.443.313-.874.313"/><path fill="#231F20" d="M35.186 38.167a7.8 7.8 0 0 0-1.045-1.613l.131-.117c.025.028.608.69 1.072 1.655zm.273-.56a9 9 0 0 0-.995-1.436l.133-.116c.007.007.6.694 1.016 1.47zm-2.48 1.415-.443-.852c-1.197-2.667-.45-3.205-.346-3.263.88-.664 2.035.717 2.084.777l-.136.111c-.01-.012-1.1-1.316-1.847-.745l-.016.01c-.005.003-.747.434.42 3.034l.44.847z"/><path fill="#231F20" d="M33.625 39.115c-1.616-2.365-1.247-3.598-1.231-3.649.08-.176.2-.226.287-.24.465-.067 1.192.737 1.273.83l-.132.116c-.204-.23-.798-.816-1.115-.772-.042.007-.102.027-.15.13.001.002-.347 1.202 1.214 3.486zm2.097 2.407c-.417 0-.946-.315-1.578-.94l.124-.124c.876.865 1.368.946 1.628.861.358-.117.438-.593.439-.598.215-.742-.59-2.537-.599-2.555l.162-.072c.033.076.84 1.873.608 2.665-.001.014-.096.577-.555.727a.8.8 0 0 1-.23.036"/><path fill="#231F20" d="M35.671 41.01q-.421 0-1.202-.798l.125-.122c.796.813 1.089.762 1.159.727.115-.056.153-.28.105-.61-.128-.895-.413-1.432-.416-1.437l.154-.084c.012.023.304.568.437 1.496q.09.646-.202.793zm-1.843-.803c-.118-.107-.45-.597-.486-.652l.145-.1c.143.212.382.553.46.624zm-1.42-1.343-.173-.035c.016-.076.233-.581.299-.733l.16.069a13 13 0 0 0-.287.7"/><path fill="#231F20" d="m35.385 39.069-.02-.174.246-.028.02.175zm-.319.552c-.09 0-.103-.018-.12-.04l.139-.107-.044-.03c.058.01.418-.038.733-.087l.027.173c-.427.068-.631.09-.735.09m-.726.013c-.29 0-1.791-.019-2.735-.39-.502-.196-1.116-.534-1.188-1.028-.045-.31.13-.624.525-.933.021-.015.465-.329 1.186-.47l.034.173c-.684.134-1.11.435-1.114.438q-.51.4-.458.767c.048.32.431.636 1.08.891.993.39 2.699.376 2.716.375l.001.176z"/><path fill="#231F20" d="M34.29 39.155c-1.28 0-2.859-.324-3.295-.832-.11-.129-.102-.245-.076-.32.14-.415 1.251-.662 1.377-.69l.036.173c-.438.093-1.165.33-1.247.573-.01.03-.016.079.044.15.409.477 2.192.851 3.6.757l.012.174q-.217.015-.451.015m-1.53-1.756-.028-.174q.311-.052.364-.045l-.02.174a7 7 0 0 0-.315.045m-.166-.492-.026-.173c.025-.004.633-.099.87-.1v.176c-.223.001-.837.097-.844.097"/><path fill="#231F20" d="m32.9 38.975-.162-.07.097-.23.162.07zm1.831-1.657c-.109-.031-.685-.027-1.023-.017l-.006-.175c.093-.003.907-.026 1.078.023zm-.695-.506-.003-.176.351-.008.004.176zm1.734.133a3.3 3.3 0 0 0-.736-.093l-.001-.176c.018-.002.4 0 .781.099zm-.157.471-.298-.063.036-.172.299.064zm.517 1.539-.04-.171c.861-.194 1.105-.455 1.107-.457l.01-.008c.121-.105.105-.171.1-.194-.06-.248-.778-.503-1.217-.606l.04-.17c.127.03 1.243.302 1.347.735.022.088.012.223-.153.365-.043.045-.327.312-1.194.506"/><path fill="#231F20" d="m36.327 39.438-.03-.173c.015-.003 1.582-.29 1.516-1.107-.067-.829-1.535-1.11-1.55-1.112l.033-.173c.065.012 1.614.308 1.692 1.272.079.975-1.59 1.28-1.66 1.293"/><path fill="#fff" d="M32.666 36.226a.457.457 0 0 1-.913 0 .456.456 0 0 1 .913 0"/><path fill="#231F20" d="M32.21 35.858a.369.369 0 1 0 0 .738.369.369 0 0 0 0-.738m0 .913a.545.545 0 1 1 0-1.09.545.545 0 0 1 0 1.09"/><path fill="#fff" d="M34.692 38.155a.456.456 0 1 1-.913 0 .456.456 0 0 1 .913 0"/><path fill="#231F20" d="M34.235 37.787a.37.37 0 1 0 .001.738.37.37 0 0 0-.001-.738m0 .913a.544.544 0 1 1 0-1.088.544.544 0 0 1 0 1.088"/><path fill="#fff" d="M33.895 40.811a.458.458 0 0 1-.914 0 .458.458 0 0 1 .913 0"/><path fill="#231F20" d="M33.438 40.442a.369.369 0 1 0 0 .738.369.369 0 0 0 0-.738m0 .913a.545.545 0 1 1 0-1.09.545.545 0 0 1 0 1.09"/><path fill="#fff" d="M37.547 38.824a.456.456 0 1 1-.912 0 .456.456 0 0 1 .912 0"/><path fill="#231F20" d="M37.091 38.456a.37.37 0 0 0 0 .737.37.37 0 0 0 0-.737m0 .912a.545.545 0 1 1 .001-1.09.545.545 0 0 1 0 1.09"/><path fill="#E6AB39" d="M25.813 35.383v-.636s.025-.199.26-.286c.234-.088.49.154.497.282s0 .662 0 .662.732.103 1.215.546l.47-.469s.31-.216.523.066c0 0 .252.26-.059.56-.31.3-.398.392-.398.392s.446.666.478 1.208l.733.018s.417.139.23.568c0 0-.076.168-.373.19h-.586s-.117.765-.482 1.194l.504.507s.118.23.015.377c-.103.146-.344.332-.61.122l-.442-.454s-.456.406-1.205.548v.63s-.086.313-.386.317c0 0-.315.003-.384-.294v-.633s-.663-.036-1.29-.493l-.41.403s-.293.189-.51-.068c-.218-.256-.017-.498-.017-.498l.378-.366s-.454-.563-.557-1.288l-.589-.012s-.362-.094-.267-.516c0 0 .091-.227.33-.252l.526.004s.11-.773.55-1.307l-.41-.422s-.172-.343.168-.534c0 0 .227-.157.509.136l.296.288s.55-.428 1.293-.49"/><path fill="#231F20" d="M25.9 41.42c.056.214.283.219.296.219.205-.004.283-.196.299-.243v-.69l.07-.014c.718-.136 1.16-.524 1.165-.528l.063-.056.5.515a.3.3 0 0 0 .183.067c.123 0 .231-.092.292-.178.054-.078.011-.214-.015-.274l-.552-.556.052-.061c.346-.405.462-1.144.463-1.15l.012-.075h.66c.229-.017.293-.135.295-.14q.068-.158.018-.273a.36.36 0 0 0-.187-.17l-.798-.019-.004-.08c-.032-.513-.461-1.158-.465-1.165l-.04-.059.05-.05c.003-.005.092-.097.401-.395q.126-.122.128-.246a.3.3 0 0 0-.072-.19c-.062-.082-.13-.118-.21-.118a.4.4 0 0 0-.195.06l-.52.521-.063-.057c-.456-.418-1.161-.522-1.168-.522l-.077-.011.001-.078c0-.004.008-.533 0-.656-.003-.053-.144-.217-.305-.217l-.074.012c-.18.068-.203.214-.203.215v.707l-.08.006a2.6 2.6 0 0 0-1.246.472l-.06.047-.352-.342c-.097-.1-.196-.154-.289-.154a.2.2 0 0 0-.11.029c-.242.136-.166.357-.143.41l.454.467-.05.06c-.419.51-.529 1.257-.53 1.265l-.011.075-.603-.005c-.156.018-.231.163-.245.192-.063.296.144.385.197.403l.652.011.01.074c.098.692.534 1.241.538 1.247l.05.062-.436.421c-.008.012-.139.187.023.378q.09.106.21.105a.4.4 0 0 0 .18-.05l.455-.447.06.044c.597.434 1.237.476 1.243.477l.084.004zm.296.394c-.143 0-.402-.077-.469-.362l-.003-.02v-.553a2.8 2.8 0 0 1-1.192-.46l-.372.364c-.006.003-.127.08-.28.08a.44.44 0 0 1-.344-.166.47.47 0 0 1-.018-.61l.329-.32a3.05 3.05 0 0 1-.515-1.193l-.537-.011c-.153-.042-.42-.223-.33-.622l.004-.013c.005-.011.114-.277.402-.307l.462.003c.039-.204.17-.767.507-1.213l-.372-.388c-.073-.145-.123-.468.203-.65a.4.4 0 0 1 .202-.053c.1 0 .25.035.414.204l.242.235c.16-.11.61-.385 1.195-.455v-.557a.47.47 0 0 1 .317-.368l.136-.024c.236 0 .471.215.48.383.007.102.003.441.002.593.195.039.719.165 1.122.5l.423-.421a.6.6 0 0 1 .301-.094c.136 0 .254.061.342.18v-.001a.47.47 0 0 1 .115.307.53.53 0 0 1-.182.37c-.187.18-.294.285-.348.34.106.17.392.662.447 1.11l.68.021a.54.54 0 0 1 .302.267.5.5 0 0 1-.018.42c-.005.009-.103.216-.448.241l-.519.001c-.037.196-.161.73-.439 1.099l.466.476c.006.01.14.278.008.466-.085.123-.245.253-.435.253a.48.48 0 0 1-.301-.113l-.394-.404c-.149.114-.54.378-1.111.502l-.003.582c-.035.13-.18.377-.469.381z"/><path fill="#fff" d="M28.25 38.104c0 1.176-.96 2.13-2.143 2.13a2.137 2.137 0 0 1-2.143-2.13c0-1.176.96-2.13 2.143-2.13 1.184 0 2.143.954 2.143 2.13"/><path fill="#231F20" d="M26.107 36.061a2.05 2.05 0 0 0-2.056 2.043c0 1.127.923 2.043 2.056 2.043a2.05 2.05 0 0 0 2.055-2.043 2.05 2.05 0 0 0-2.055-2.043m0 4.261c-1.23 0-2.231-.995-2.231-2.218s1-2.218 2.23-2.218c1.231 0 2.232.995 2.232 2.218a2.23 2.23 0 0 1-2.231 2.218"/><path fill="#E6AB39" d="M27.615 38.093a1.494 1.494 0 0 1-1.493 1.492 1.493 1.493 0 1 1 1.493-1.492"/><path fill="#231F20" d="M26.123 36.688a1.407 1.407 0 0 0-1.405 1.404 1.406 1.406 0 0 0 2.397.992c.264-.263.412-.62.412-.992a1.407 1.407 0 0 0-1.404-1.404m0 2.984a1.58 1.58 0 0 1-1.58-1.58c0-.87.708-1.58 1.58-1.58.871 0 1.58.71 1.58 1.58a1.58 1.58 0 0 1-1.58 1.58"/><path fill="#fff" d="M26.926 38.084a.834.834 0 1 1-1.667 0 .834.834 0 0 1 1.667 0"/><path fill="#231F20" d="M26.093 37.339a.746.746 0 1 0 .001 1.492.746.746 0 0 0-.001-1.492m0 1.665a.921.921 0 1 1 0-1.842.921.921 0 0 1 0 1.842"/><path fill="#638E8C" d="m23.99 37.851.664-.03s.032-.398.424-.795l-.544-.345s-.409.372-.545 1.17"/><path fill="#231F20" d="M24.548 36.794c-.1.113-.338.429-.451.964l.482-.022c.028-.13.111-.406.363-.693zm-.664 1.149.019-.107c.14-.819.555-1.204.572-1.22l.05-.045.693.438-.076.078c-.363.367-.399.736-.399.74l-.007.078z"/><path fill="#638E8C" d="m25.46 36.756-.28-.564s.637-.377 1.435-.16l-.152.607s-.54-.151-1.004.117"/><path fill="#231F20" d="m25.298 36.231.2.405q.266-.127.6-.127c.125 0 .231.014.3.026l.11-.438a1.8 1.8 0 0 0-.397-.044c-.28 0-.558.062-.813.178m.124.648-.357-.721.071-.041a2.05 2.05 0 0 1 1.502-.17l.083.022-.194.78-.087-.024a1.4 1.4 0 0 0-.342-.04q-.34 0-.595.147z"/><path fill="#0C3C5D" d="m25.08 37.026-.546-.345s.297-.348.647-.49l.278.564s-.267.145-.38.27"/><path fill="#231F20" d="m24.67 36.664.397.25c.086-.076.202-.15.276-.194l-.204-.414a1.9 1.9 0 0 0-.468.358m.424.476-.693-.439.065-.077c.014-.015.315-.366.681-.514l.076-.03.351.712-.073.04c-.071.039-.273.16-.357.252zm-.36.401-.588-.244.067-.162.588.244zm1.141-.927-.037-.636.175-.01.037.635zm1.082.244-.145-.098.354-.519.145.1zm-2.925 1.684-.027-.174.611-.096.028.173z"/><path fill="#fff" d="m17.902 39.53.172.237Z"/><path fill="#231F20" d="m18.004 39.819-.173-.236.142-.103.173.236zm16.155-.013-.148-.21.145-.1.147.208z"/><path fill="#E5AE4A" fill-rule="evenodd" d="M27.886 57.398c.144.291.197.596-.087.85-.451.403-1.652.91-1.652.91s-.613.21-.516.572c.097.363.236.27.236.27l.427.161.34.106s.13.072.335-.02c.205-.093.246.023.246.023l.074.038s.134.106.322.024c.187-.083.343-.308.407-.414s.22-.286.305-.108c.086.177.032.405.032.405s.34-.191.313-.521c0 0 .3.406.15.757 0 0 .767-.623.473-1.292l.306.784s.196-.45.27-.6.098-.588-.057-.801l-.064-.087s.16-.127.115-.3c-.044-.173-.548-.82-.525-1.193 0 0-.054-.682.365-.955l-.339-1.35-1.328-.208-.861.147s-.367.854-.288 1.19c.071.308.282.556.471.801.194.251.389.526.53.81" clip-rule="evenodd"/><path fill="#231F20" d="m27.277 60.203.068.035c.036.025.08.037.123.036l.108-.024c.14-.061.282-.235.366-.377.032-.053.147-.227.29-.227.041 0 .12.017.171.124.039.081.052.169.056.246a.42.42 0 0 0 .122-.317l-.025-.306.183.247c.01.014.193.266.208.557.182-.21.414-.57.287-.944l-.025-.063.163-.068.028.074.202.517c.063-.14.144-.323.187-.41.064-.128.082-.53-.05-.71l-.113-.154.066-.052c0-.001.114-.096.085-.21-.012-.046-.081-.162-.148-.276-.167-.28-.394-.662-.38-.938-.005-.074-.033-.69.353-.992l-.31-1.236-1.258-.198-.798.137c-.108.261-.321.853-.265 1.091.06.261.233.483.4.699l.055.07c.17.22.384.511.539.824.198.4.163.712-.107.954-.457.408-1.627.906-1.677.927-.01.004-.538.193-.465.468.053.2.11.216.11.216l.038-.026.034.02.427.16.353.112.088.016.168-.04a.4.4 0 0 1 .173-.042c.088 0 .142.04.17.08m1.321.54.14-.327c.068-.158.027-.332-.027-.463-.095.214-.302.332-.313.339l-.174.097.045-.195c0-.001.046-.2-.024-.347l-.018-.026c-.018.002-.083.057-.133.142-.062.104-.23.353-.449.448l-.177.04a.4.4 0 0 1-.224-.069l-.1-.05-.012-.033-.025-.001-.102.028a.6.6 0 0 1-.239.055.4.4 0 0 1-.164-.033l-.334-.104-.401-.15-.04.005q-.189 0-.28-.346c-.117-.438.543-.669.572-.678.006-.003 1.187-.505 1.622-.893.21-.187.23-.417.067-.745-.149-.3-.357-.583-.521-.797l-.054-.068c-.18-.23-.364-.469-.434-.767-.082-.354.255-1.154.294-1.244l.019-.044.921-.158.015.003 1.386.217.368 1.468-.053.034c-.37.24-.325.868-.325.875v.012c-.014.222.209.597.356.844.095.16.15.256.167.32a.37.37 0 0 1-.086.33l.02.027c.185.255.147.73.066.893-.073.146-.268.59-.27.596l-.085.195-.178-.455c-.116.45-.517.782-.54.8z"/><path fill="#C08532" fill-rule="evenodd" d="M26.955 55.571s1.18.01 1.518.605l-.003.163q.003.227.023.453.03.308.104.609.037.162.098.32c.03.074.099.15.109.23.022.178-.562.482-.69.562-.498.311-1.015.592-1.532.868l.101.074c.091.043 1.009.117 1.018.013.072-.197.408.028.558.008.15-.019 1.56-1.128 1.535-1.229-.09-.357-.365-.637-.466-1.004a1.3 1.3 0 0 1-.039-.535c.012-.066.232-.696.275-.659 0 0-.031-.026-.144-.568-.112-.543-.129-.473-.129-.473s-1.03-.51-1.82-.255c0 0-.392.298-.409.393-.018.093-.107.425-.107.425" clip-rule="evenodd"/><path fill="#E5AE4A" fill-rule="evenodd" d="M26.34 51.852s1.236.24 1.974-.06c.738-.299 1.064-.202 1.064-.202l1.267.17s.321.097 1.93.278c0 0 2.065.183 2.604-.154 0 0 1.234-.391.968-1.67 0 0-.465-1.166-2.094-1.024-1.631.141-1.584 1.27-1.319 1.517l.503.463s-.17-.105-.561-.136c-.39-.032-.601-.05-.83-.359-.229-.31-.143-.453-.143-.453s-.22.539-1.302.889c0 0-.318.078-.622.137 0 0 .439-.219.515-.923 0 0-.207.036-.369.224-.16.19-.616.715-1.357.464-.026.014-.047-.005-.075-.025a.13.13 0 0 0-.089-.028s.216-.1.417-.154a.63.63 0 0 0 .381-.331c.09-.236-.435-.15-.54-.135-.139.018-.276.045-.413.071a2.2 2.2 0 0 1-.54.016c-.389-.024-.8-.084-1.145-.273-.649-.354-1.09-.83-.982-1.604.11-.775 1.32-1.255 1.448-1.285s.51-.123 2.113-.182c0 0 .557.1 1.143-.51s1.37-.564 1.37-.564.854-.057 1.225-.87c0 0 .041.733-.267 1.074l.86-.493c.11-.064.65-.354 1.387-.064.738.29 1.214.296 1.388.01 0 0-.151.454-1.185.581 0 0-.534-.046-1.045.581-.134.165-.315.224-.484.337.124.035.259.01.384.056q.189.07.346.195c.123.096.332.261.386.41 0 0-.143-.4-1.27.07s-1.498.422-2.241.174c-.744-.249-1.005-.604-1.696-.568 0 0-1.637-.22-2.89.453 0 0-.935.575-.07 1.41 0 0 .604.65 2.432.355 1.829-.296 2.729-.715 3.146-.75.419-.034 1.934-.534 3.13-.284s1.62 1.283 1.62 1.283.3.621.04 1.155c-.261.534-.469.765-.469.765s.754.394.497 1.292c0 0-.009-.376-.505-.418-.496-.043-.864-.266-.881-.309 0 0-.592.245-1.713.317 0 0 .246.305.779.515 0 0-1.296.412-1.68-.214 0 0-.11.342.347.452 0 0-.67.29-1.16-.234 0 0 .194.484.204 1.293.01.81.03 1.233.601 1.578.573.347.88.307.88.307s.128.414-.063.651c0 0 .098.15.71.181.628.032.48.846.908.923 0 0-.113.124-.499-.114-.387-.237-.63.058-.63.058s.528.128.538.664c.012.535.088.75.088.75s-.133-.09-.32-.318c-.19-.228-.53-.176-.53-.176s.352.182.302.734c0 0-.035.29.09.37 0 0-.353-.09-.506-.341 0 0-.3.245-.318.452-.02.207.025.82-.446.894-.47.072-.39-.218-.39-.218s-.06.288-.7.07c0 0-.52-.005-.54-.21 0 0-.373.13-.407-.177-.035-.308.362-.357.441-.393.08-.034.61-.227.642-.895s-.182-1.526-.37-1.824-.603-.519-1.135-.661-.944-.499-1.068-1.082c-.124-.581-.182-.82-.258-.868s-1.079-.515-1.904-.22c0 0 .34.236.449.404 0 0-.187-.168-.654-.05s-.726-.064-.726-.064.055.39.403.532c0 0-.12.014-.444.056-.324.04-.568-.041-.627-.17 0 0 .197.56.513.697 0 0-.28-.097-.71-.152s-.559-.147-.605-.284c0 0 .151.463 0 .893 0 0-.055-.417-.399-.5-.343-.082-.48-.155-.544-.205l.109.477s.088.024-.345.532c0 0 .347.347.377.698.031.35.122.59.296.768 0 0-.209.056-.438-.198-.23-.255-.352-.275-.346-.178.005.097.264.468.081 1.012 0 0-.142.321-.005.5 0 0-.188-.108-.26-.397-.07-.291-.28-.295-.28-.295s.215.284.108.773c-.108.487-.092.564-.041.636 0 0-.168-.149-.26-.377-.09-.23-.32-.26-.34-.117 0 0 .157.57-.092.946 0 0 .01-.855-.646-.254 0 0-.077.097-.117.376-.04.28-.22.194-.336.276-.117.08-.143.107-.342.101a1.3 1.3 0 0 1-.37-.071s-.01.137-.326.071-.361-.04-.361-.04-.149-.01-.2-.128c-.05-.117-.182-.005-.228-.132s-.392-.091-.381-.29c.01-.2.09-.3.335-.413.244-.111.59-.244.768-.417s.362-.666.362-.666.295-.845.346-1.231c.05-.388.234-1.956.153-2.232-.08-.275-.444-.88-.444-.88l-.874.456s-.907.35-1.27.108c-.363-.241-.43-.423-.518-.423-.087 0-.35.182-1.083.067 0 0-.323-.088-.484-.033 0 0 .195-.108.417-.236s.35-.433.35-.433-.438.197-.901-.098c-.465-.296-.565-.356-.834-.302 0 0 .03-.107.431-.192.402-.087.604-.485.751-.523 0 0-.464-.046-.8-.221-.337-.175-.476-.277-.627-.265 0 0 .079-.139.428-.169s.584-.252.566-.5c-.018-.246-.204-.588-.204-.588s.011-.05-.176-.145c-.186-.097-.294-.091-.553-.416 0 0-.388-.027-.409-.298s.245-.414.245-.414l.369.165c.062-.007-.064-.264-.268-.412-.203-.15-.217-.378-.103-.44a.37.37 0 0 0 .15-.128s.194-.128.304.018c.11.145.26.445.3.48s.004-.264-.036-.344-.211-.419-.034-.489a.3.3 0 0 1 .157-.026c.043.003.068.006.12-.057 0 0 .194-.058.225.185.03.242.035.365.057.392 0 0-.009-.388.075-.432.046-.025.086 0 .121.024.03.02.056.04.082.033l.207-.075c.035-.026.185.084.167.313-.017.23-.088.595-.026.789.061.194.11.583.626 1.19.515.609 1.332 1.019 1.51 1.094.176.076 5.067-.462 5.067-.462l1.469-.063s.329-.113.527-.003" clip-rule="evenodd"/><path fill="#85B3DA" fill-rule="evenodd" d="M25.669 59.641s.347-.035.207.316c0 0-.302.02-.442.183 0 0-.083-.25.235-.499" clip-rule="evenodd"/><path fill="#231F20" d="M25.69 59.699c-.15.122-.195.241-.205.321a.9.9 0 0 1 .348-.117l.002-.153zm-.28.556-.032-.097c-.005-.012-.092-.292.254-.563l.013-.01.018-.002.03-.002c.064 0 .178.014.238.103q.074.109 0 .294l-.015.035-.036.002c-.003.001-.28.022-.402.162z"/><path fill="#85B3DA" fill-rule="evenodd" d="M26.223 60.189s.123-.425-.263-.253c0 0-.228.207-.088.413 0 0 .137-.256.351-.16" clip-rule="evenodd"/><path fill="#231F20" d="M25.993 59.985c-.026.027-.121.13-.106.245.06-.066.168-.14.292-.116l-.015-.142-.05-.019zm-.115.479-.054-.081c-.135-.197.005-.407.097-.49l.015-.01a.5.5 0 0 1 .179-.047c.077 0 .12.036.142.067.077.1.028.281.023.302l-.019.064-.061-.028-.071-.015c-.12 0-.204.15-.206.152z"/><path fill="#85B3DA" fill-rule="evenodd" d="M26.652 60.243s.025-.428-.322-.121c0 0-.094.1-.028.35 0 0 .16-.147.35-.229" clip-rule="evenodd"/><path fill="#231F20" d="M26.369 60.167s-.044.058-.028.197c.06-.047.15-.11.252-.159l-.035-.125-.024-.01c-.021 0-.07.013-.165.096m-.099.413-.025-.093c-.072-.273.03-.392.042-.404.162-.144.282-.163.357-.083.074.078.067.23.067.246l-.003.037-.033.014a1.4 1.4 0 0 0-.333.218z"/><path fill="#85B3DA" fill-rule="evenodd" d="M27.342 60.278s-.018-.369-.329-.18c0 0-.16.235-.028.454 0 0 .077-.264.357-.274" clip-rule="evenodd"/><path fill="#231F20" d="M27.055 60.141a.43.43 0 0 0-.06.265.44.44 0 0 1 .28-.18c-.012-.052-.04-.123-.106-.123zm-.051.554-.068-.113c-.15-.248.021-.506.029-.516l.017-.019a.4.4 0 0 1 .187-.062c.172 0 .227.19.232.29l.003.06-.06.002c-.233.008-.3.222-.303.23z"/><path fill="#162C53" fill-rule="evenodd" d="M29.661 47.05s-.782.172.008.425c0 0 .258.06.573.214.315.155.801.317 1.015.377.215.061.698.268 1.39.042.69-.225.901-.31.968-.331.066-.02.571-.243.886-.004l.096.057s-.096-.218-.433-.394c-.337-.178-.445-.25-.658-.26 0 0 .277-.14.47-.346s.396-.462.58-.532c.184-.072.316-.085.559-.097.24-.01.698-.146.988-.417 0 0-.06.014-.575.036-.51.023-.907-.253-1.184-.252s-.48-.093-1.287.421l-.412.206s.16-.166.194-.437c.035-.27.042-.62.042-.62s-.134.46-.669.736c0 0-.32.155-.57.153-.251 0-.636.13-.727.17-.093.041-.355.137-.596.39a2.3 2.3 0 0 1-.658.463m-.459 3.193 3.919-.832s-.827.36-.456 1.267l.441.44s.047-.055-.627-.102c0 0-.668.033-.841-.728 0 0-.174.297-.757.588-.132.066-.279.141-.451.197-.942.305-.499.085-.499.085s.22-.116.349-.514c0 0 .085-.254.078-.338 0 0-.31.011-.53.277 0 0-.136.135-.411.265s-.424.266-.947.126l.468-.162s.463-.362.265-.57m6.332 2.183s.72-.387.803-.494c0 0 .79.327.543 1.25 0 0 .016-.268-.338-.423-.34-.147-.27.102-1.008-.333m-1.894.308-1.823-.026s.112.532.648.843c0 0 .37.134.762-.027 0 0-.329.093-.4-.453 0 0 .172.435 1.732.215 0 0-.551-.173-.919-.552m-9.556 2.64s2.693-.838 3.302-.656l.388.326s-.276-.014-.582-.001c-.287.012-.745 0-.806-.044 0 0 .155.35.471.525 0 0-.204-.015-.494.05-.291.063-.529-.069-.576-.148 0 0 .244.392.416.638 0 0-.794-.131-.94-.2-.147-.068-.269-.1-.307-.2 0 0 .103.432.066.675l-.036.24s-.088-.446-.304-.518c-.215-.07-.503-.13-.598-.215 0 0-.14-.364 0-.472m-.308 1.553s-1.08 1.376-1.657 3.23l-.034.075s.329-.257.463.066c0 0 .082.284.059.357 0 0 .201-.301.066-.986 0 0 .096-.23.33.007 0 0 .12.42.296.526 0 0-.038-.278.012-.69.064-.54-.137-.738-.137-.738s.291-.031.385.358c0 0 .062.256.181.307 0 0-.082-.109.019-.51.1-.4-.064-.955-.064-.955s.007-.148.242.03c.188.143.253.34.48.308 0 0-.207-.18-.245-.582-.039-.4-.2-.62-.396-.803m9.875.192.147 2.722s.204.277.548.35c0 0-.171-.06-.15-.387s-.008-.559-.243-.717c0 0 .307-.145.57.175 0 0 .092.142.285.27 0 0-.108-.148-.135-.667-.027-.518-.4-.627-.565-.682 0 0 .32-.328.68-.127.36.2.426.218.52.167 0 0-.256.017-.358-.342-.103-.36-.316-.567-.794-.557 0 0-.417-.087-.505-.205m-3.938 1.35s-.938.94-1.405 1.172c0 0-.008-.017.046.2.053.214.056.285.056.285s.282-.103.259-.432c0 0 .346.253.213.632 0 0 .61-.446.395-1.125 0 0 .117.091.339.625l.22-.534s.09-.416-.123-.823m-13.437-6.86 1.985 3.323s-.036-.15-.334-.037c0 0-.443.087-.805.008-.362-.08-.412-.03-.412-.03l.45-.237s.248-.36.259-.486c0 0-.498.258-.85.046-.351-.214-.639-.497-.868-.378 0 0-.016-.066.248-.11s.558-.23.664-.364c.106-.135.192-.229.192-.229s-.376-.084-.536-.165c0 0-.24-.082-.453-.207-.215-.125-.3-.117-.376-.122 0 0 .145-.097.394-.138.249-.04.418-.057.564-.341 0 0 .031-.234-.122-.533" clip-rule="evenodd"/><path fill="#5E85A9" fill-rule="evenodd" d="M32.705 45.585s-.166.387-.85.532c-.682.145-.965-.021-1.876.96 0 0 .83-.613 1.422-.656.655-.048 1.138-.45 1.304-.836" clip-rule="evenodd"/><path fill="#5E85A9" fill-rule="evenodd" d="M34.629 45.714c-.3-.112-.639-.084-.94.021-.302.107-.572.287-.826.482a1.1 1.1 0 0 1-.53.227 6 6 0 0 1-.674.09c-.454.028-1.053.206-1.63.653.683-.249 1.413-.48 2.138-.555.295-.03.56-.021.814-.199.163-.114.28-.277.443-.394.344-.251.78-.373 1.205-.325m-.53 1.83s-.673.112-1.492.468c-.292.127-1.115.254-1.914-.32 0 0 .572.353 1.502.182.93-.174 1.037-.46 1.905-.33" clip-rule="evenodd"/><path fill="#5E85A9" fill-rule="evenodd" d="M35.416 46.048s-.957-.282-2.045.681c0 0 .469-.743 1.023-.812s.747-.048.747-.048-.753-.195-1.357.096c-.602.292-.553.744-1.783.764 0 0-1.094.16-1.86.496q.327-.06.657-.093c.368-.038.786-.084 1.15.005.206.051.392.048.607.054.226.004.455-.038.67-.104.241-.072.5-.165.674-.358.164-.181.28-.365.507-.481.12-.062.252-.101.384-.13q.138-.03.28-.046c.096-.01.254-.051.346-.024m-2.905 1.648s-1.078.358-1.881-.108c0 0-.382-.244-.72-.167 0 0 .21-.152.694-.127.485.026.937.472 1.907.402" clip-rule="evenodd"/><path fill="#5E85A9" fill-rule="evenodd" d="M30.751 47.218q.255-.019.51-.023c.201-.002.409-.017.605.034.161.041.28.13.45.147.281.028.906-.05.921-.056-.364.135-.762.261-1.155.212a1 1 0 0 1-.28-.075c-.077-.034-.14-.089-.212-.125-.076-.037-.172-.046-.254-.058a7 7 0 0 0-.585-.056" clip-rule="evenodd"/><path fill="#5E85A9" d="M32.447 52.789h-.451s.14.46.498.637c0 0-.273-.292-.25-.465 0 0 .32.458.555.54 0 0-.365-.348-.352-.712m.352-.08h.206s.166.364.55.434c0 0-.517.083-.756-.435m.465 0h.22s.198.396.531.44c0 0-.392.058-.75-.44m2.444-.4s.173-.04.22-.106c0 0 .404.399.63.418 0 0-.637-.106-.85-.312m.39-.246.195-.055s.42.521.416.73c0 0-.337-.473-.61-.675m-6.407-1.903.317-.056s-.35.601-.915.682c0 0 .58-.382.598-.626m1.015-.194.34-.075s-.125.541-.681.943c0 0 .414-.645.34-.868m.505-.113s-.04.663-.644.951c0 0 .9-.382.913-.992zm1.503-.328s-.453.582-.186 1.04c0 0-.263-.162-.16-.679 0 0-.463.486.162.838 0 0-.489-.015-.519-.732 0 0-.296.561.422.872 0 0-.852-.156-.585-1.169z"/><path fill="#5E85A9" fill-rule="evenodd" d="M23.629 57.116s.365.006.415.361c0 0-.099-.186-.382-.18 0 0 .364.067.422.566 0 0-.142-.373-.455-.314 0 0 .392.053.455.48 0 0-.183-.556-.854-.21z" clip-rule="evenodd"/><path fill="#5E85A9" fill-rule="evenodd" d="M23.156 57.937s.42-.19.502.488c0 0-.156-.38-.366-.318 0 0 .378.207.4.693 0 0-.055-.45-.462-.431 0 0 .392.103.37.56 0 0-.09-.557-.824-.299z" clip-rule="evenodd"/><path fill="#5E85A9" fill-rule="evenodd" d="M22.706 58.787s.599-.156.528.648c0 0-.111-.435-.4-.44 0 0 .4.202.334.667 0 0-.05-.42-.53-.385 0 0 .433.096.485.44 0 0-.066-.323-.648-.293zm-.28.794s.253.128.226.463c0 0-.088-.314-.305-.304z" clip-rule="evenodd"/><path fill="#5E85A9" fill-rule="evenodd" d="M22.315 59.813s.23-.037.298.327c0 0-.128-.283-.367-.165z" clip-rule="evenodd"/><path fill="#5E85A9" fill-rule="evenodd" d="M22.218 60.045s.25-.063.33.111c0 0-.223-.119-.361-.034zm6.09-.405.233-.128s.022.158-.047.352c0 0 .007-.129-.187-.224m.595-.428.114-.094s.209.375.123.715c0 0-.048-.419-.237-.621m-.19.11.144-.096s.208.432.084.716c0 0-.025-.422-.228-.62m.493-.361.166-.124s.277.277.262.535c0 0-.143-.327-.428-.411m.234-.191.159-.108s.115.307.084.508c0 0-.027-.266-.243-.4m4.234-1.446.026.813s.71-.47 1.017-.183c0 0-.08-.307-.732-.29 0 0 .49-.102.69.021 0 0-.264-.267-1.001-.361m.056.882v.679s.588-.064.778.235c0 0-.008-.3-.516-.368 0 0 .385-.167.58.258 0 0-.095-.46-.575-.65 0 0 .38.053.597.37 0 0-.04-.511-.864-.524m.015.885v.33s.163.24.258.384l-.19-.442s.29.375.294.528c0 0-.02-.61-.362-.8" clip-rule="evenodd"/><path fill="#5E85A9" d="m24.235 55.425.262-.059s-.029.229.2.449c.23.22.225.37.225.37s-.22-.366-.467-.448-.22-.312-.22-.312m.343-.092.184-.05s.037.513.11.582c0 0-.304-.33-.294-.532m.294-.087.208-.062s.113.629.574.681c0 0-.501.024-.782-.619"/><path fill="#5E85A9" d="m25.096 55.139.366-.094s.032.39.129.529c0 0-.227-.23-.248-.362 0 0 .112.438.248.523 0 0-.341-.193-.495-.596m.677-.166.432-.108s.005.413.273.54c0 0-.284-.091-.432-.347 0 0-.124.255.352.42 0 0-.455.057-.625-.505m1.064-.233.257-.045s.135.175.289.17c0 0-.33.017-.5-.04 0 0 .188.102.375.12 0 0-.276.074-.796-.126zm-9.154-.818.537.794s-.24.208-.644.145c0 0 .284-.025.373-.277 0 0-.373.247-.858.24 0 0 .586-.165.725-.426 0 0-.299.233-.675.318 0 0 .517-.316.542-.794m-.349-.619.281.518s-.362.547-1.07.23c0 0 .648.07.794-.325 0 0-.553.416-1.106.1 0 0 .82.065 1.101-.523m-.086-.212.075.122-.77.37s.404-.37.695-.492m-.759-1.226s.005.628-.622.683c0 0 .401.071.86-.27 0 0-.268.506-.806.371 0 0 .342.246 1.003-.025 0 0-.138.327-.832.212 0 0 .538.291 1.05.075z"/><path fill="#231F20" d="M23.983 56.01c-.037-.106-.149-.467-.07-.623l.096-.082c.024-.007 2.462-.721 3.505-.721h.028l-.002.175c-.972-.015-3.316.667-3.471.713-.026.054.01.278.08.482zm4.265 3.8-.113-.134c.015-.013 1.54-1.293 1.625-1.37l.118.13c-.088.08-1.568 1.321-1.63 1.374m5.486.143c-.238-2.019-.162-2.809-.16-2.841l.152.016c0 .007-.076.809.159 2.807zm-1.672-6.49c-.012-.025-.294-.593-.342-.737l-.026-.078.083.002c.022 0 2.277.05 2.561.008l.018.116c-.264.04-2.065.005-2.494-.005.089.206.302.636.304.64z"/><path fill="#E5AE4A" fill-rule="evenodd" d="M35.45 52.477s.889-.446.954-.608Z" clip-rule="evenodd"/><path fill="#231F20" d="m35.49 52.557-.078-.157c.404-.204.869-.477.911-.563l.163.065c-.07.175-.72.516-.996.655m-17.308 2.415c-.16-.316-2.032-3.497-2.052-3.529l.152-.09c.077.132 1.894 3.218 2.057 3.54z"/><path fill="#C98E37" fill-rule="evenodd" d="M29.762 52.246c.171.084.427.102.569.18q.296.159.53.4c.47.48.685 1.138.733 1.795.16 2.136 1.5 2.136 1.5 2.136s-1.037-.36-1.022-1.468c.008-.576-.003-1.167-.16-1.725-.211-.75-.674-1.214-1.425-1.417-.228-.061-.472-.13-.71-.12-.104.003-.218.001-.151.106z" clip-rule="evenodd"/><path fill="#000" d="m32.61 61.107-.02-.037-.014-.109.046-.152.048-.073.062-.067.135-.099.125-.07c.076-.037.134-.052.134-.052s-.03.052-.085.116c-.052.064-.142.142-.215.207l-.102.105-.07.105c-.036.066-.045.126-.045.126m-.62-.065s-.038-.053-.036-.147l.033-.156.096-.153.13-.114.12-.081a1 1 0 0 1 .13-.065s-.024.055-.076.124l-.092.112-.108.116a.9.9 0 0 0-.155.232.6.6 0 0 0-.043.132m-.63-.062-.018-.028-.017-.089.029-.123.083-.118.106-.08.099-.054.11-.038-.06.1-.072.086-.086.086-.132.16zm-4.407-.671-.02-.041-.012-.122.056-.166.055-.08.07-.072.152-.11.14-.077c.085-.042.148-.06.148-.06s-.036.055-.1.124c-.06.07-.162.153-.248.226l-.116.117-.08.119a.4.4 0 0 0-.046.142m-.655-.074s-.027-.057-.008-.148l.06-.142.12-.128.144-.084.131-.055a.7.7 0 0 1 .137-.036l-.096.104-.108.091-.123.09a.8.8 0 0 0-.191.191zm-.389-.148-.011-.033-.001-.089.053-.116.103-.099.12-.059.108-.034c.065-.016.114-.016.114-.016l-.077.087-.087.071-.101.067a.8.8 0 0 0-.16.132zm-5.75 1.004-.011-.047.012-.13.087-.165.071-.077.086-.064.18-.091.16-.062c.096-.032.166-.042.166-.042s-.047.052-.128.113l-.142.098-.16.1-.143.108-.104.115c-.055.076-.074.144-.074.144m-.498-.252-.012-.032v-.09l.052-.116.104-.098.12-.06.107-.033c.065-.017.114-.017.114-.017l-.076.087-.088.072-.1.066a.8.8 0 0 0-.16.132zm-3.795-11.317.076.061.118.156.077.176.017.065.008.026-.028-.007-.063-.036a.5.5 0 0 1-.131-.156.6.6 0 0 1-.068-.187zm.624-.324.048.084a.76.76 0 0 1 .057.381l-.007.067-.002.027-.023-.017-.045-.057a.5.5 0 0 1-.065-.193.6.6 0 0 1 .006-.2z"/><path fill="#C98E37" fill-rule="evenodd" d="M33.387 56.837c0 .547.003 1.092.017 1.64.006.256.013.513.03.77.008.128-.003.304.054.423l.012.018s-.235.625-.21.784c0 0-.186-.237-.334-.23s-.732-.05-.732-.05l.117-.449s.593.052.752-.055c.16-.108.078-2.21.032-2.495.13-.095.23-.196.262-.356" clip-rule="evenodd"/><path fill="#D39A3E" d="M31.569 57.116c-.196-.097-.396-.185-.595-.275-.207-.093-.44-.146-.63-.274-.335-.226-.54-.596-.65-.977l-.104-.606.015-.001h.016c.238.015.595.653.595.653.015.694 1.353 1.48 1.353 1.48"/><path fill="#C98E37" fill-rule="evenodd" d="m23.873 55.574.23.827s-1.139 1.247-2.097 3.841c0 0-.217.133-.25.597 0 0-.002.074-.167.104 0 0-.104.013-.202.099l-.08.034s-.103-.18-.174-.194c0 0 .419-.197.468-.41 0 0-.101-.113-.591.144 0 0-.209.14-.25.248 0 0 .57-.893 1.086-1.283 0 0 .816-2.265 1.547-3.106zm7.855-2.92s2.342.054 2.633-.014c.217-.05 1.822-.237 2.198-1.17 0 0-.263 1.117-4.83 1.184" clip-rule="evenodd"/><path fill="#C98E37" d="m20.393 54.874-.437.216c-.288.119-.601.213-.915.206a1 1 0 0 1-.34-.063.59.59 0 0 1-.328-.268q-.059-.1-.116-.201a301 301 0 0 1-.822-1.425l-.637-1.105-.017-.03s-.386-.792-.717-.971c-.331-.181-.569-.6-.569-.6s.447.343.689.355c0 0-.108-.389-.441-.944 0 0 .608.517.842 1.123 0 0 1.853 3.04 2.301 3.189.45.147.865-.62.865-.62z"/><path fill="#231F20" d="m28.425 53.603.094.032.048.018.054.032.125.088.127.126.122.156c.08.112.147.242.209.373a3.6 3.6 0 0 1 .238.755c.023.105.031.196.04.258l.008.098-.124-.334-.129-.34c-.05-.122-.1-.254-.16-.38q-.041-.096-.09-.188l-.095-.176-.1-.158-.102-.132-.097-.102-.043-.042-.043-.028z"/><path fill="#C98E37" fill-rule="evenodd" d="M29.202 54.797s-.996-.78-5.18.53c0 0-.257-.392-.015-1.096l.315.161s.023.553.55.394c.528-.16 2.667-1.398 3.32-1.12.652.276 1.01 1.13 1.01 1.13" clip-rule="evenodd"/><path fill="#231F20" d="M23.96 55.717s-.031-.037-.053-.102l-.027-.113v-.133l.035-.13.063-.104.064-.056.029-.014-.006.03-.016.077a4 4 0 0 0-.031.214c-.01.079-.02.159-.032.222-.011.063-.026.11-.026.11"/><path fill="#EFC283" fill-rule="evenodd" d="M29.49 52.381s-1.407-.323-.86.81c.017.033-.373-.785.86-.81m-3.56-.21s1.162.14 1.513 0c0 0-1.206.328-1.513.373s-.523-.088-.523-.088zm-4.207 5.081.369-.132s-.798 2.544-.99 2.745c0 0-.381.216-.457.17 0 0 .89-1.197 1.078-2.783m-4.799-7.072s.34.88.62 1.14c0 0-.465-.43-.62-.76z" clip-rule="evenodd"/><path fill="#231F20" d="m36.394 51.9-.01.076.064-.028zM32.6 60.956l.172.038.011.08c.034.042.138.056.279.033.312-.048.352-.392.365-.71l.006-.104c.022-.237.316-.484.35-.512l.078-.064.053.086a.65.65 0 0 0 .25.22l.01.005h.001a.7.7 0 0 1-.008-.215c.045-.482-.243-.643-.255-.65l-.166-.088.174-.07a.6.6 0 0 1 .195-.035.47.47 0 0 1 .373.175q.09.108.163.173a8 8 0 0 1-.023-.486c-.01-.46-.453-.576-.47-.581l-.136-.034.088-.108c.006-.007.152-.181.401-.181q.169 0 .342.105l.16.086a1.5 1.5 0 0 1-.136-.27c-.097-.23-.19-.447-.482-.462-.61-.03-.751-.176-.78-.22l-.035-.053.04-.05a.67.67 0 0 0 .085-.445l-.05-.07-.075-.011-.085-.012a2.3 2.3 0 0 1-.668-.29c-.63-.379-.636-.887-.645-1.653-.01-.781-.196-1.258-.197-1.262l-.173-.433.318.34c.268.287.59.335.805.328l-.088-.107c-.11-.185-.055-.392-.053-.4l.054-.197.106.173c.124.203.379.306.756.306.215 0 .429-.035.585-.069-.39-.2-.574-.425-.583-.436l-.107-.133.17-.01c1.09-.07 1.678-.308 1.684-.31l.132-.056-.007.086.056.027a4 4 0 0 0 .456.129c.204.048.413.098.59.23l.102.093-.003-.014-.006-.063a2 2 0 0 0-.049-.288 1.1 1.1 0 0 0-.16-.359.6.6 0 0 0-.155-.155l-.054-.032.03-.075-.074-.067c.166-.184.288-.418.407-.644.228-.436.128-.884.005-1.184a1.8 1.8 0 0 0-.256-.415c-.466-.597-1.157-.887-2.11-.887-.822 0-1.698.217-2.403.39q-.427.107-.853.219c-.765.202-1.557.41-2.357.52a6 6 0 0 1-.76.057c-.497 0-.908-.09-1.26-.27a1.4 1.4 0 0 1-.543-.461q-.266-.406-.119-.76c.248-.588 1.29-.848 1.727-.933q.496-.097.999-.097c.543 0 1.06.088 1.535.26.163.06.325.133.483.202.408.177.793.345 1.21.345h.026c.345-.005.684-.136 1.011-.26q.137-.054.275-.103l.138-.051c.144-.056.248-.096.446-.114.178-.017.359-.015.522.006-.181-.215-.499-.315-.685-.356-.052-.012-.124-.017-.194-.021l-.177-.016-.363-.062.352-.108c.148-.046.184-.062.247-.096a2 2 0 0 0 .21-.132c.077-.058.145-.125.216-.197.06-.06.12-.121.189-.177a1.45 1.45 0 0 1 .578-.297l.162-.02.078-.008c.511-.063.794-.208.946-.33q-.215.045-.435.045a2 2 0 0 1-.736-.138 1.8 1.8 0 0 0-.402-.106 1.5 1.5 0 0 0-.524.019 2.3 2.3 0 0 0-.501.178 3 3 0 0 0-.296.165l-.116.087c-.044.035-.09.071-.167.114l-.063.037a.6.6 0 0 1-.267.109l-.462.039.415-.205c.123-.06.16-.173.211-.327l.01-.028q.045-.138.076-.293a1.65 1.65 0 0 1-1.08.571h-.045c-.177 0-.789.038-1.268.537a2 2 0 0 1-.482.372c-.188.1-.36.123-.546.141-.188.017-.41.026-.647.036-1.193.048-2.828.115-3.006 1.378-.09.647.199 1.114.937 1.516.423.23.96.264 1.326.27h.018c.169 0 .33-.037.5-.075s.345-.078.53-.078h.027c.05.001.197.005.269.118.078.125.014.284-.163.407q-.191.134-.396.241c.279.02.558-.044.8-.183.107-.062.206-.142.311-.23.132-.107.268-.218.422-.289l.116-.053.009.126c.012.2-.085.44-.127.535a.7.7 0 0 1-.2.23c.1-.02.19-.05.248-.07l.037-.013c.32-.103.622-.26.89-.464l.095-.07c.094-.066.19-.134.245-.22l.095-.146.062.163c.116.309.284.493.545.597.197.079.41.107.627.12-.152-.136-.299-.305-.357-.518-.076-.27.007-.588.216-.828q.25-.291.72-.441a2.62 2.62 0 0 1 1.88.121c.471.223.8.578.899.973.097.388-.023.836-.314 1.172-.248.287-.61.496-1.05.606a4.1 4.1 0 0 1-1.02.104l-.171-.002q-.315-.005-.632-.024a22 22 0 0 1-1.958-.216 53 53 0 0 1-1.166-.193c-.228-.041-.463-.084-.69-.084l-.172.009a2.7 2.7 0 0 0-.73.202q-.386.157-1.003.157c-.535 0-1-.09-1.02-.093l-.025-.01a.4.4 0 0 0-.177-.036c-.142 0-.278.046-.28.046l-.024.006-1.47.06c-.168.02-4.279.47-4.978.47a.3.3 0 0 1-.127-.012c-.24-.103-1.04-.527-1.542-1.12-.457-.537-.557-.91-.617-1.13l-.026-.09c-.052-.163-.022-.413.003-.635q.012-.093.02-.187c.01-.121-.039-.19-.065-.213a1 1 0 0 1-.202.068l-.03.003-.115-.046-.032-.02a1.2 1.2 0 0 0-.032.35l.005.252-.162-.194c-.031-.038-.037-.093-.053-.24l-.023-.198c-.015-.12-.07-.114-.093-.114a.19.19 0 0 1-.169.063c-.022-.001-.046-.01-.12.02l-.018.018c-.01.026-.02.112.097.349.032.063.093.35.044.43l-.025.042-.088.004-.032-.026a1 1 0 0 1-.128-.197c-.056-.099-.126-.222-.183-.295l-.07-.035-.102.03a.5.5 0 0 1-.17.14l-.025.053c-.004.06.03.158.139.238.17.123.347.371.314.492l-.091.078h-.012c-.068 0-.225-.076-.361-.15-.061.046-.172.15-.16.306.014.19.323.216.326.216l.038.003.025.03c.192.24.29.285.414.34l.111.051c.053.028.2.103.22.2.04.075.19.373.207.607.022.305-.256.56-.646.594a.8.8 0 0 0-.248.054c.119.044.291.117.479.213.318.165.765.212.769.212l.159.017-.098.124c-.015.02-.373.474-.804.555l-.158.044a2.8 2.8 0 0 1 .59.29.92.92 0 0 0 .819.092l.203-.092-.086.206c-.006.014-.142.335-.387.476l-.161.092.19.013q.245.038.444.038c.27 0 .427-.05.52-.08l.113-.025c.106 0 .194.102.264.186l.05.055c.144.132.273.227.434.26q.415.081.963-.153c.077-.034.854-.444.903-.474l.046.074.003-.002.075-.045c.039.064.373.627.453.901.099.338-.148 2.248-.15 2.267-.052.391-.339 1.215-.35 1.25-.01.022-.194.516-.384.7-.158.154-.423.27-.657.374l-.136.06c-.235.108-.277.191-.285.337-.001.037.03.057.15.098.09.03.192.064.227.158l.038.012c.05.003.143.008.189.116l.113.071q.098-.015.384.046l.133.015.087-.018.009-.108.11.043q.166.058.342.065l.043.001c.122 0 .14-.014.229-.075l.017-.012.154-.057c.086-.019.126-.027.145-.159.043-.294.125-.407.135-.417l.01-.011c.174-.16.32-.237.447-.237q.117 0 .2.084l.091.149a1.5 1.5 0 0 0-.026-.6l-.005-.017.003-.019a.184.184 0 0 1 .19-.161c.108 0 .248.079.32.259.028.072.07.14.11.198q.002-.157.02-.432c.034-.464-.096-.724-.097-.727l-.067-.132.147.004c.011 0 .277.01.363.361a.7.7 0 0 0 .09.21v-.104c-.001-.104.017-.2.034-.293l.026-.156q.019-.167-.013-.333a1.5 1.5 0 0 0-.074-.247l-.013-.031-.04-.134.036-.108.093-.038c.033 0 .136 0 .37.26.06.068.118.11.168.136-.098-.166-.155-.372-.178-.639-.027-.315-.348-.639-.35-.643l-.058-.057.052-.061c.254-.3.313-.413.327-.448l-.166-.727.195.153c.056.044.19.112.511.19a.56.56 0 0 1 .354.265 1.6 1.6 0 0 0-.06-.547l-.159-.492.313.412c.006.008.162.2.546.25q.24.03.477.087l-.562-.764.307.139c.003.002.315.14.598.162q.13.007.215 0a.85.85 0 0 1-.268-.486l-.015-.11 1.23.102-.366-.33.139-.048q.287-.102.632-.103a3.2 3.2 0 0 1 1.349.33c.104.065.151.245.297.925.108.51.465.87 1.005 1.014.588.158.998.4 1.187.7.208.33.416 1.201.383 1.874-.021.45-.264.791-.682.968l-.012.005-.073.023c-.209.06-.334.126-.317.278.008.067.032.128.155.128.07 0 .136-.022.136-.023l.105-.035.011.11c.007.07.25.128.455.13l.027.004q.225.077.38.077c.179 0 .205-.08.206-.084m.337.337q-.203 0-.291-.11l-.014-.02a.5.5 0 0 1-.239.053 1.4 1.4 0 0 1-.422-.082c-.109-.002-.465-.023-.58-.192l-.111.011c-.19 0-.31-.104-.33-.284-.037-.331.3-.427.445-.467l.05-.016.014-.006a.88.88 0 0 0 .575-.813c.033-.684-.19-1.506-.356-1.773-.166-.261-.54-.477-1.084-.623-.607-.162-1.009-.57-1.132-1.147-.076-.36-.163-.767-.219-.813a3.05 3.05 0 0 0-1.255-.303q-.228 0-.427.048l.525.473-.911-.07-.602-.053a.6.6 0 0 0 .319.352l.154.063-.14.092c-.012.009-.149.094-.498.069a1.8 1.8 0 0 1-.378-.074l.508.689-.267-.093c-.003 0-.277-.094-.692-.147a1.2 1.2 0 0 1-.456-.148c.025.184.035.445-.055.7l-.122.347-.048-.366c0-.002-.052-.357-.332-.425a3 3 0 0 1-.396-.121l.071.288c.018.06.01.157-.317.55.104.117.321.399.347.69.029.333.113.553.27.716l.105.107-.144.04-.076.007c-.09 0-.268-.03-.45-.233a1.4 1.4 0 0 0-.163-.156l.01.026a1.293 1.293 0 0 1 .098.663l-.027.168a1.3 1.3 0 0 0-.031.258q0 .105-.002.209l-.003.256-.13-.073c-.009-.005-.222-.13-.301-.453l-.033-.09q.056.274.032.554c-.032.459-.014.652-.014.654l.024.23-.17-.157a1.4 1.4 0 0 1-.309-.44c-.043-.108-.119-.149-.157-.149l-.01.002c.029.122.129.63-.11.991l-.165.248.003-.297c0-.065-.015-.268-.095-.348l-.075-.031c-.054 0-.153.032-.322.184a.9.9 0 0 0-.096.33c-.037.254-.185.285-.282.305l-.09.03-.017.011c-.115.08-.165.111-.377.107a1.3 1.3 0 0 1-.33-.054c-.037.037-.1.072-.214.072a1 1 0 0 1-.17-.02 1.5 1.5 0 0 0-.312-.044l-.01.007-.026-.003c-.075-.004-.216-.048-.273-.18l-.038-.009c-.049-.002-.15-.008-.194-.128l-.116-.05c-.11-.038-.28-.094-.27-.274.012-.234.113-.362.387-.488l.138-.062c.22-.096.47-.206.606-.338.134-.13.291-.502.34-.634.002-.007.292-.839.341-1.212.087-.657.22-1.974.156-2.195-.06-.208-.296-.622-.393-.79-.256.158-.842.444-.849.447-.402.172-.753.226-1.067.164-.212-.043-.375-.171-.518-.303l-.065-.07-.132-.125-.058.018a1.7 1.7 0 0 1-.573.087q-.214 0-.463-.039l-.773-.053.26-.144s.195-.107.416-.235a.7.7 0 0 0 .216-.218q-.078.013-.175.014-.32-.001-.596-.176c-.44-.28-.744-.325-.747-.325l-.19-.027.144-.127c.006-.005.145-.124.421-.177.241-.045.467-.242.593-.371a2.4 2.4 0 0 1-.666-.207 4 4 0 0 0-.613-.259l-.103-.033.054-.095c.01-.017.112-.18.496-.212.287-.026.5-.203.486-.406-.017-.226-.193-.549-.194-.552l-.017-.03v-.002a.5.5 0 0 0-.122-.08l-.101-.047c-.13-.057-.252-.111-.458-.363-.113-.016-.428-.087-.45-.373-.025-.324.277-.49.29-.497l.042-.023.042.024c.064.035.136.071.198.1a.8.8 0 0 0-.19-.202c-.14-.1-.22-.251-.21-.39a.24.24 0 0 1 .116-.198.3.3 0 0 0 .115-.093l.011-.018.018-.012a.4.4 0 0 1 .213-.067c.085 0 .158.036.21.104l.038.055c-.04-.11-.063-.227-.028-.317l.116-.119a.45.45 0 0 1 .199-.031h.017l.026-.026.017-.022.027-.007.072-.01a.25.25 0 0 1 .244.179l.024-.018.08-.019.138.053.02.013.161-.056c.052-.04.137-.021.204.051.036.038.118.15.103.338a4 4 0 0 1-.02.195c-.023.193-.05.433-.01.561l.028.096c.055.208.15.555.581 1.064.48.566 1.244.972 1.476 1.07h.059c.689 0 4.922-.465 4.965-.47l1.463-.061q.158-.049.323-.053.146 0 .25.053c.076.014.502.087.973.087q.582 0 .938-.144c.297-.12.543-.188.775-.214q.095-.01.191-.01c.244 0 .487.045.722.088l.193.035c.375.064.684.113.969.157.744.111 1.362.179 1.942.214q.323.019.624.023l.167.002c.404 0 .706-.03.98-.098.28-.072.675-.224.958-.55.254-.294.36-.682.276-1.014-.087-.345-.379-.658-.803-.858a2.44 2.44 0 0 0-1.752-.113q-.42.136-.64.388c-.171.197-.24.453-.18.667.064.237.264.41.499.595l.21.166-.268-.01c-.3-.01-.64-.02-.946-.143a1.06 1.06 0 0 1-.587-.564 2 2 0 0 1-.193.15l-.09.066a3.2 3.2 0 0 1-.942.493l-.035.01a1.6 1.6 0 0 1-.508.103l-.119-.008-.267-.039.239-.126c.15-.079.347-.232.39-.328.048-.105.081-.208.1-.298q-.124.084-.247.189a3 3 0 0 1-.335.246 1.57 1.57 0 0 1-1.194.153l-.232-.068.221-.097q.323-.142.613-.343c.073-.052.138-.131.114-.17-.013-.021-.057-.034-.123-.035h-.024c-.165 0-.324.035-.492.073-.171.04-.349.08-.538.08l-.02-.002c-.418-.004-.956-.043-1.408-.29-.801-.436-1.128-.975-1.027-1.694.199-1.409 1.918-1.478 3.173-1.53.234-.009.454-.018.638-.035.173-.016.32-.036.479-.122q.231-.122.438-.338c.527-.549 1.201-.591 1.395-.591h.043c.022-.001.796-.065 1.14-.82l.2-.434-.032.477a3 3 0 0 1-.136.731l-.009.026-.038.111.093-.07.132-.097c.101-.064.219-.13.316-.176.176-.083.334-.147.539-.19.192-.042.39-.05.585-.023q.223.032.442.117.32.127.672.127c.377 0 .647-.112.65-.114l.178-.076-.061.185c-.007.021-.18.507-1.257.64l-.087.008-.133.016a1.3 1.3 0 0 0-.508.262l-.175.164a2 2 0 0 1-.237.215l-.176.115.035.007c.241.054.675.196.867.537l.038.081.064.157-.165-.04a2 2 0 0 0-.663-.038 1.3 1.3 0 0 0-.398.103l-.144.053q-.135.048-.27.1c-.341.13-.695.267-1.07.273h-.03c-.453 0-.874-.184-1.28-.361a9 9 0 0 0-.474-.196 4.3 4.3 0 0 0-1.474-.25 5 5 0 0 0-.966.094c-.657.127-1.422.412-1.597.828-.076.18-.043.375.103.595q.156.238.476.402c.326.168.711.25 1.18.25.22 0 .461-.019.737-.056.789-.107 1.574-.314 2.336-.515.284-.074.569-.15.855-.22.713-.175 1.602-.394 2.444-.394 1.012 0 1.748.313 2.25.955.133.17.222.316.28.455.137.335.247.837-.01 1.327a4 4 0 0 1-.362.6q.106.074.192.195.123.17.188.415c.025.095.043.198.054.318l.007.06c.009.085.02.183.006.272l-.029.17-.154-.157-.09-.092-.114-.112c-.147-.111-.338-.156-.524-.2l-.173-.043a4 4 0 0 1-.306-.092l-.095-.044c-.147.054-.655.22-1.502.292q.276.23.61.361l.23.09-.235.075a3.2 3.2 0 0 1-.875.138q-.478 0-.737-.201l.025.055q.07.114.244.156l.306.074-.3.095a1.2 1.2 0 0 1-.349.046c-.184 0-.429-.037-.665-.189.055.227.118.581.124 1.037.01.816.037 1.19.56 1.505.232.14.428.227.616.27l.06.007.125.023c.054.02.123.07.155.189.045.165-.005.389-.07.523.069.035.236.096.6.115.402.02.531.323.635.568.087.204.147.33.283.355l.157.029-.108.117c-.012.014-.064.062-.175.062q-.176 0-.436-.16a.5.5 0 0 0-.249-.08l-.154.037c.202.1.439.317.447.688.01.51.047.667.048.67l.046.196-.176-.1c-.007-.004-.174-.1-.37-.337a.3.3 0 0 0-.194-.109c.105.125.216.34.184.681a.43.43 0 0 0 .07.31l.103.155-.185-.019c-.084-.01-.17-.056-.24-.093l-.01-.004a.9.9 0 0 1-.255-.2c-.097.096-.208.231-.217.33l-.005.097c-.01.26-.033.8-.514.876z"/><path fill="#162C53" fill-rule="evenodd" d="M20.937 47.497c-.18-.118-.241-.162-.319-.213a2 2 0 0 1-.292-.236.7.7 0 0 1-.208-.35s.256.296.716.197c.16-.035.308.04.45.106-.09-.088-.196-.16-.28-.256a1.5 1.5 0 0 1-.275-.61.63.63 0 0 0 .29.26c.122.06.253.108.388.125.298.035.814.325.843.588 0 0 .283-.157.085-.695 0 0 .637.128.673.722 0 0 .63-.424 1.104.532 0 0-.042-.037-.368-.052 0 0 .424.137.651.915.227.779.553 1.353 1.02 1.31 0 0-.149.206-.503.213 0 0 .163 1.876 1.388 1.727 0 0-.7.46-1.31.305 0 0 .077.496-.538 1.076 0 0-.369.34-.163.864 0 0-.41-.227-.368-.666l-.808 1.437s-.233.496-.042.73c0 0-.41-.149-.212-1.062 0 0-.268.56-.666 1.147-.178.263-.324.539-.384.85l-.108-.152a2 2 0 0 1-.11-.211c-.064-.146-.072-.302-.117-.445-.028.114-.04.23-.069.343q-.027.105-.064.206l-.086.17c-.015-.115-.001-.213-.042-.327a1 1 0 0 0-.223-.35c-.34-.353-.574-.544-.709-1.231 0 0-.133.5-.567.605 0 0 .62-.369-.206-1.296l-.108-.13s-.472-.078-.63-.885a1.7 1.7 0 0 1-.004-.692.668.668 0 0 1-.42.291l-.148.018-.154-.014a.67.67 0 0 0 .484-.684c-.014-.58.172-.921.35-1.08 0 0-.6.208-.993-.056 0 0 .522.178.815-.801 0 0-.237-.026-.373.22 0 0 .079-.779 1.32-1.276 0 0-.15-.044-.3-.013 0 0 .234-.326.431-.387 0 0-.131-.123-.365-.15l.18-.188a1 1 0 0 1 .205-.133c.075-.035.166-.033.238-.066l-.1-.054c-.122-.034-.232-.002-.354-.003l.058-.077a.9.9 0 0 1 .215-.161c.157-.085.334-.119.512-.114q.132.004.263.032c.077.016.228.122.307.127" clip-rule="evenodd"/><path fill="#231F20" d="m21.464 55.326.094.3.045.189c.018.088.034.17.069.249q.04.093.098.191c.069-.22.183-.446.35-.693.39-.574.657-1.13.66-1.135l.325-.682-.16.738c-.067.306-.061.518-.028.664q.031-.202.117-.387l1.015-1.807-.04.415c-.018.18.053.32.133.416a.87.87 0 0 1 .25-.687c.57-.537.514-.98.511-.999l-.018-.13.127.033q.115.027.246.028c.259 0 .518-.087.706-.17-.987-.186-1.133-1.729-1.139-1.798l-.008-.094.094-.002a.7.7 0 0 0 .277-.062c-.354-.111-.649-.562-.877-1.347-.21-.726-.59-.856-.594-.857l-.623-.2.653.029q.118.005.195.014c-.17-.271-.375-.412-.598-.412-.165 0-.285.078-.287.078l-.127.087-.01-.154c-.02-.349-.28-.517-.452-.59.108.47-.162.627-.176.634l-.115.063-.014-.13c-.022-.198-.482-.477-.766-.51a1.3 1.3 0 0 1-.416-.133l-.055-.028c.049.104.104.194.144.24l.153.142.122.11.366.362-.48-.227c-.125-.06-.258-.119-.378-.092a.93.93 0 0 1-.497-.03l.033.035q.118.119.277.223l.104.07.216.145.276.182-.33-.022a.6.6 0 0 1-.205-.077l-.115-.052a1.4 1.4 0 0 0-.247-.03h-.03a.9.9 0 0 0-.438.103l-.096.061.16.02.079.039.028.017.194.076-.19.086-.134.037-.103.028-.185.12-.046.052-.016.017c.157.052.246.133.25.137l.111.104-.144.045c-.083.025-.186.12-.266.209.076.007.13.022.132.023l.244.071-.236.095c-.703.282-1.017.658-1.157.913.114-.04.188-.026.188-.026l.102.012-.028.1c-.15.498-.36.719-.543.813l.15.01c.245 0 .457-.073.46-.073l.419-.144-.334.293c-.101.09-.336.367-.32 1.011a.79.79 0 0 1-.22.579l.123-.062a.6.6 0 0 0 .174-.174l.258-.404-.098.47c-.044.207-.043.403.005.657.142.73.541.813.558.816l.03.007.13.155c.338.378.488.72.442 1.014l-.01.053c.136-.156.189-.342.19-.344l.097-.365.073.37c.119.605.311.803.603 1.103l.083.084q.168.178.242.381l.008.022.017-.063.035-.173.033-.169zm-.25 1.392-.045-.333-.01-.123c-.004-.068-.006-.125-.029-.187a.9.9 0 0 0-.204-.318l-.081-.084c-.26-.267-.456-.47-.588-.933a.84.84 0 0 1-.522.415l-.563.135.498-.296a.42.42 0 0 0 .175-.29c.035-.236-.104-.538-.402-.872l-.092-.11c-.122-.036-.523-.208-.666-.948a2 2 0 0 1-.038-.456l-.031.022a.8.8 0 0 1-.25.104l-.165.02h-.013l-.157-.015-.382-.061.37-.11a.58.58 0 0 0 .421-.598c-.011-.458.098-.755.209-.938q-.128.02-.258.02a1 1 0 0 1-.555-.148l-.552-.372.63.215.068.009c.114 0 .388-.064.589-.617a.33.33 0 0 0-.167.154l-.208.375.044-.427c.002-.03.078-.665.985-1.164l-.08.016.13-.183c.021-.028.165-.224.33-.342a.7.7 0 0 0-.201-.056l.01-.088-.045-.074.102-.111.066-.07.149-.105-.098.004h-.174l.113-.163.05-.063a1 1 0 0 1 .237-.178q.23-.123.52-.123h.036l.055.002-.161-.143a.77.77 0 0 1-.232-.398l-.057-.318.211.246a.64.64 0 0 0 .463.188l.167-.019.119-.01a1.6 1.6 0 0 1-.293-.65l-.068-.44.23.38c.09.15.193.199.253.228.137.066.252.103.362.115.252.031.701.245.862.509.04-.085.067-.238-.028-.497l-.054-.148.153.032c.223.045.634.24.727.676a.8.8 0 0 1 .265-.05c.234 0 .57.117.847.673l.197.397-.295-.257c.134.146.282.378.387.74.17.587.473 1.29.927 1.246l.193-.017-.114.156c-.007.009-.15.203-.475.243.049.342.283 1.567 1.153 1.567l.125-.009.373-.044-.313.205c-.023.014-.542.351-1.091.351l-.178-.013c-.012.193-.1.592-.567 1.033a.71.71 0 0 0-.142.768l.09.227-.214-.118a.88.88 0 0 1-.382-.461l-.674 1.199c-.056.118-.179.474-.051.63l.202.247-.3-.108c-.016-.006-.32-.124-.324-.686q-.21.38-.452.738c-.202.297-.32.557-.37.816l-.035.178-.118-.137-.117-.163a2 2 0 0 1-.116-.222l-.029-.078q-.024.09-.057.179l-.05.099-.036.073z"/><path fill="#5E85A9" fill-rule="evenodd" d="M22.793 52.428s.326.595.127 1.56c0 0 .672-.886.081-1.873zm-4.264-.31.102-.133.072-.154c.05-.12.079-.248.105-.375a.6.6 0 0 1 .075-.211c.044-.07.1-.129.153-.189.063-.072.398-.412.51-.266 0 0-.055.248 0 .388l-.162-.017a.54.54 0 0 0-.34.14.7.7 0 0 0-.155.206c-.043.083-.06.171-.093.258a1 1 0 0 1-.098.2.6.6 0 0 1-.169.152" clip-rule="evenodd"/><path fill="#5E85A9" fill-rule="evenodd" d="M19.546 51.27s-1.153.595-.409 2.1c0 0-.376-1.23.465-1.717z" clip-rule="evenodd"/><path fill="#E3AA36" fill-rule="evenodd" d="M21.188 48.528s-.068-.198-.177-.252c0 0 .416.054.499.19 0 0-.014-.314-.124-.437 0 0 .308.041.383.25l-.039-.184s.278.149.316.385c0 0 .24-.16.625-.059 0 0-.166.032-.232.146 0 0 .396.082.565.707.17.624.094.79.134.98s.022.304.142.601c0 0 .107.266 0 .646 0 0 .018-.104-.077-.192l-.052-.063s.054.327-.067.474-.412.578-.412.578-.416.593-.416.717c0 .125.028.49-.029.58 0 0-.102.249-.31.415 0 0 .127-.122.032-.483 0 0-.055.297-.247.439-.192.14-.253.128-.275.265 0 0-.09-.105-.064-.32.025-.214-.038-.288-.038-.288s-.11.164-.131.34c0 0-.202-.148-.158-.484 0 0-.169.119-.134.452 0 0-.383.003-.304-.708 0 0 .02.023-.092-.288l-.441-1.32s-.142.275-.079.534c0 0-.178-.153-.15-.776l-.13.278s.016-.237-.056-.483c-.073-.247.072-.657.072-.657s.259-.608.269-.753c.074-.283.165-.576.307-.834.163-.296.55-.66.89-.396" clip-rule="evenodd"/><path fill="#231F20" d="m21.314 53.479.076.087c.015.017.088.114.06.355l-.003.109.071-.047.131-.088c.16-.118.211-.38.212-.384l.072-.382.1.376q.029.112.035.198c.05-.08.076-.14.077-.142l.007-.013c.03-.053.021-.323.017-.424l-.002-.109c0-.132.27-.537.432-.767.011-.016.294-.435.417-.584.078-.095.06-.33.048-.404l-.053-.325.227.279a.9.9 0 0 0-.04-.327 1.7 1.7 0 0 1-.122-.465l-.025-.15a1 1 0 0 1-.016-.212c-.003-.148-.005-.353-.116-.763-.152-.56-.486-.641-.5-.645l-.116-.027.058-.102.034-.048c-.189.006-.3.078-.301.078l-.113.073-.022-.132a.4.4 0 0 0-.103-.19l.005.492-.176-.488-.135-.135c.039.133.045.267.046.29l.015.345-.178-.296c-.02-.035-.1-.07-.2-.1l.037.087.097.278-.234-.18a.3.3 0 0 0-.198-.073c-.218 0-.444.23-.56.443a3.5 3.5 0 0 0-.299.807c-.018.163-.23.67-.274.771-.036.102-.122.419-.07.598l.038.161.173-.37-.02.443q-.01.17.007.338a1 1 0 0 1 .056-.14l.096-.185.506 1.517c.096.266.11.314.095.347-.032.305.03.45.09.517l.036.035c.013-.281.17-.393.176-.398l.165-.115-.027.198c-.016.12.003.21.031.274.042-.108.094-.185.096-.19zm.168.954-.123-.145a.45.45 0 0 1-.087-.25l-.011.083-.12-.088c-.006-.004-.1-.073-.156-.218l.004.106.01.097h-.098a.36.36 0 0 1-.257-.127c-.123-.137-.168-.363-.135-.669a4 4 0 0 0-.087-.257l-.355-1.067a.6.6 0 0 0 .004.23l.066.264-.208-.176c-.017-.015-.132-.125-.172-.468l-.17.366.03-.469c0-.002.014-.225-.053-.453-.08-.27.068-.693.074-.711.1-.234.258-.633.264-.728l.003-.017c.07-.267.162-.579.315-.854.152-.274.445-.547.742-.532l-.458-.23.517.068c.068.009.236.036.375.094a.5.5 0 0 0-.076-.194l-.157-.177.234.031c.01.002.198.028.335.141l.039-.066c.01.006.237.13.329.34a.9.9 0 0 1 .32-.058q.133 0 .272.036l.38.1-.385.072-.09.032c.148.083.373.276.491.712.118.432.12.649.123.807 0 .07.001.124.012.177l.027.162c.016.117.03.227.111.426.005.011.116.298.003.701l-.116-.027a.5.5 0 0 1-.097.279c-.117.142-.404.567-.407.571-.188.267-.393.598-.401.67l.003.101c.008.237.01.426-.041.517-.02.042-.128.279-.334.444l-.116-.132.015-.027-.117.117-.142.095c-.082.051-.089.055-.098.114z"/><path fill="#E5AE4A" fill-rule="evenodd" d="m19.065 48.986-.122-.242a.55.55 0 0 1 .132-.46c.125-.151.277-.164.462-.125 0 0 .14.03.242.125 0 0-.205.082-.431.387 0 0 .166-.033.299.013 0 0-.372.144-.582.302" clip-rule="evenodd"/><path fill="#000" d="M19.38 48.227c-.1 0-.174.035-.238.113a.46.46 0 0 0-.114.384l.06.139.131-.077-.077.015.135-.182c.127-.172.25-.277.337-.34l-.096-.034zm-.317.847c-.115 0-.205-.307-.206-.31a.63.63 0 0 1 .15-.536.46.46 0 0 1 .373-.176q.079 0 .175.02c.006.002.164.037.283.147l.102.094-.128.052a.9.9 0 0 0-.269.21l.132.026.225.079-.222.086c-.003 0-.363.143-.56.29l-.023.018z"/><path fill="#E5AE4A" fill-rule="evenodd" d="M23.208 48.72s.493.29.624.512c0 0 .224-.355-.053-.658-.276-.303-.534.036-.534.036z" clip-rule="evenodd"/><path fill="#000" d="M23.308 48.677c.11.069.35.226.502.385a.44.44 0 0 0-.095-.43q-.09-.096-.18-.097c-.12 0-.219.126-.22.127zm.521.723-.073-.124c-.098-.165-.461-.404-.593-.482l-.028-.016-.01-.032.046-.184c.01-.014.156-.203.365-.203q.167.001.309.155c.254.279.151.623.061.765z"/><path fill="#5E85A9" d="M22.633 46.646s.229.534-.089.826-.314.694-.314.694.124-.368.382-.503c0 0 .325-.208.22-.526a3.5 3.5 0 0 0-.199-.491"/><path fill="#5E85A9" d="M22.556 47.888s.51-.964 1.202-.505c0 0-.635-.174-1.203.505m-1.28-1.264s.877.25.85.842c0 0 .564-.482.372-.856 0 0 .188.296-.095.797-.246.436-.343.723-.343.723s.235-.995-.784-1.506"/><path fill="#5E85A9" d="M20.865 46.398s.782.453.923.784c0 0-.319-.36-.55-.393 0 0 .839.487.63 1.24l-.114-.07s.07-.658-.383-.985c-.451-.328-.506-.576-.506-.576"/><path fill="#5E85A9" d="M20.437 46.999s.21.09.428.056c.244-.038.53.077.588.546.032.259.032.333.032.333l-.17-.035s.105-.459-.184-.66c-.29-.2-.517-.007-.694-.24m-.45.497s.638-.211.984.225c.369.463.382.499.382.499l-.186-.054s-.21-.45-.497-.568c-.287-.12-.683-.102-.683-.102"/><path fill="#5E85A9" d="M21.062 48.15s-.218-.646-1.013-.6c0 0 .658.057.816.581zm-.403.245-.144.083s-.354-.242-.905.066c0 0 .419-.443 1.05-.15"/><path fill="#5E85A9" d="m20.452 48.526-.089.118s-.322-.114-.693-.058c0 0 .379-.257.782-.06m-.184.19s-.203-.018-.571.093c-.343.103-.775.336-1.166.855 0 0 .714-.658 1.281-.713 0 0-.252.063-.93.517 0 0 .852-.452 1.164-.283z"/><path fill="#5E85A9" d="M18.293 50.561s.298-.132.53-.653c.232-.52 1.031-.57 1.13-.432l-.05.163s-.282-.175-.69.067c-.408.241-.212.64-.92.855m4.098-2.394s.739-.806 1.27-.402c.534.404.68 1.048.68 1.048s.194.82.738 1.095c0 0-.884-.393-.984-1.002 0 0-.335-1.302-1.329-.712l-.143.068h-.318zm.31 4.383s.352 1.56-.326 2.623c-.483.757-.622 1.061-.622 1.061s-.061-.215.454-1.175.237-2.187.237-2.187z"/><path fill="#5E85A9" fill-rule="evenodd" d="M22.362 53.27s.138.747-.09 1.428c-.23.68-.418.745-.5 1.116 0 0 .06-.342.276-.889.215-.546.16-1.065.16-1.065s.166-.194.154-.59m.548-4.519.1.187s.38.128.577.294c0 0-.184-.378-.677-.481m.161.38s.516.248.686.634c0 0-.21-.196-.303-.263l.177.218-.457-.231zm-3.2.593a.7.7 0 0 0-.235-.006 1.07 1.07 0 0 0-.557.307l-.156.173-.102.14c-.088.102-.232.208-.374.2 0 0 .307.017.528-.158.22-.175.697-.565.835-.425l.07-.23z" clip-rule="evenodd"/><path fill="#5E85A9" fill-rule="evenodd" d="M22.092 53.989s-.473.497-.497 1.1c-.025.605.05.892.05.892s.011-.644.105-.808v.279s.422-.94.342-1.463m-1.662-.618c0 .155-.05.317-.055.474-.015.34.021.688.14 1.009.075.2.194.376.332.537.127.15.276.294.361.474 0 0-.115-.517-.448-.917-.332-.402-.142-1.026-.142-1.026s-.188-.339-.188-.551m4.446-1.477s.553.14.911 0c0 0-.43.213-1.051-.684-.623-.897-1.445-.893-1.445-.893l.075.308s.996.134 1.295.94c.3.807-.368 1.579-.368 1.579s.753-.524.583-1.25" clip-rule="evenodd"/><path fill="#5E85A9" fill-rule="evenodd" d="M23.41 50.818s1.098.206 1.185.927c.042.345-.06.689-.191 1.004-.094.225-.245.445-.301.684.069-.376.23-.732.281-1.11.049-.367-.122-.6-.434-.766a1.9 1.9 0 0 0-.51-.183s.081-.334-.03-.556" clip-rule="evenodd"/><path fill="#5E85A9" fill-rule="evenodd" d="M23.692 51.537s.833.339.392 1.39c0 0 .096-1.16-.392-1.39m-3.941-1.342s-.734.337-.912.623-.178.79-.178.79.169-.753.545-.932c.377-.178.422-.197.422-.197z" clip-rule="evenodd"/><path fill="#5E85A9" fill-rule="evenodd" d="m23.134 51.97.07.2q.08.265.115.54a2.8 2.8 0 0 1-.264 1.619 1.13 1.13 0 0 0-.133.603c.1-.334.225-.698.488-.943.332-.31 1.058-1.804.078-2.38 0 0 .422.681.317 1.319s-.451 1-.451 1 .737-1.185-.026-2.242zm-2.91.453s-.447.425-.29 1.071c.16.645.18.864.117 1.016 0 0 .172-.138.09-.948 0 0 .142.458.106.669.046-.27.063-.546.027-.821a.6.6 0 0 1 .118-.441z" clip-rule="evenodd"/><path fill="#5E85A9" fill-rule="evenodd" d="M19.751 51.902s-.447.478-.371 1.025c.075.546.453.957.547 1.223 0 0-.662-1.528-.05-1.935 0 0-.108-.203-.126-.313m3.497-2.137s1.247.491 1.597 1.053.515.855.71.927c0 0-.275.02-.644-.434-.37-.455-.609-.844-1.127-.993l-.52-.15z" clip-rule="evenodd"/><path fill="#5E85A9" fill-rule="evenodd" d="M23.888 49.736s.673.197.872.615l.167.404s-.562-.628-.87-.706z" clip-rule="evenodd"/><path fill="#F9E8B6" fill-rule="evenodd" d="M22.102 50.876s.522.163.41.62c0 0-.136.285-.197.35 0 0-.243 1.224-.469 1.328-.226.103-.342-.377-.447-.39-.105-.011-.361.362-.489.308-.127-.055-.215-.112-.312-.628-.098-.518-.116-.627-.135-.659-.018-.03-.476-.546-.112-.815s1.065.1 1.065.1z" clip-rule="evenodd"/><path fill="#5E85A9" fill-rule="evenodd" d="M20.708 53.989s-.063.565.126.858c.19.293.415.594.43.758l.029-.124s.215-1.13.48-1.382c0 0-.337.349-.374.596 0 0-.681-.351-.691-.706" clip-rule="evenodd"/><path fill="#000" fill-rule="evenodd" d="M21.953 51.167s1.548-.684 2.974-.14c0 0-1.086-.399-2.974.14m.111.155s1.582-.19 2.692.593c0 0-1.107-.634-2.692-.593m-.082.173s1.4.352 2.025 1.265c0 0-.627-.722-2.025-1.265m-1.148-.408s-1.16-.798-2.523-.554c0 0 1.098-.164 2.523.554m-.121.095s-.746-.404-2.091.137c0 0 1.04-.361 2.09-.137m.12.125s-1.324.29-1.823 1.12c0 0 .634-.762 1.824-1.12" clip-rule="evenodd"/><path fill="#231F20" fill-rule="evenodd" d="M20.601 51.715s.546-.45.877-.32c.331.127.72.459.72.459s.036.53-.341 1.203c0 0-.044.106-.296-.056-.253-.163-.24-.124-.488-.008-.25.115-.283-.27-.283-.27s-.107-.34-.13-.728c0 0-.08-.173-.059-.28" clip-rule="evenodd"/><path fill="#fff" fill-rule="evenodd" d="M20.726 51.745s.088-.155.244-.179c0 0-.044.309 0 .414 0 0-.051.08-.244-.235m1.283.068s-.104.192-.277.192c0 0 .098-.188.098-.317 0 0 .036-.04.179.125m-.977.655.023.176.064.186-.123.073-.078-.007.02-.171.044-.134.025-.066zm.592.444s.227.15.196 0c-.03-.15-.115-.362-.115-.362z" clip-rule="evenodd"/><path fill="#B21F2F" fill-rule="evenodd" d="M21.185 52.764s.233-.08.354.044c0 0 .068-.2.066-.288s.092-.099.132-.041l.062.108s.008-.37-.175-.455-.225.04-.225.04-.214-.15-.347.186c0 0 .034.035.067.215s.066.19.066.19" clip-rule="evenodd"/><path fill="#BA7F2C" fill-rule="evenodd" d="M21.116 49.862s.27.05.367-.197c0 0 .04.302-.345.418zm.899-.026-.144.346s-.355-.162-.365-.282.053-.25.053-.25.162.427.455.186" clip-rule="evenodd"/><path fill="#231F20" fill-rule="evenodd" d="M20.352 49.688s.244-.139.363-.115c.12.024.42.186.494.335l-.062.128.025.128c-.008.032-.38.528-.347.713s.154-.037.326.1c.171.135.145.207.21.23.064.02.121.04.19-.063.067-.104.178-.19.257-.157.08.032.254.043.197-.2s-.129-.419-.132-.619.121-.296.168-.318c.046-.021.357-.194.446-.184.09.009.38.192.38.192l-.09.05s-.128-.087-.196-.033c0 0-.054.215-.2.25s-.236.028-.344-.071c0 0-.093.11-.043.297s.144.515.119.587c-.024.07-.14.117-.255.128a.52.52 0 0 0-.274.125c-.037.04-.215.188-.411-.085l-.226-.033c-.037-.014-.251-.136-.22-.285.03-.15.341-.64.341-.64l.01-.158.019-.062s-.111.152-.27.136c-.159-.017-.273-.178-.252-.375l-.106.044z" clip-rule="evenodd"/><path fill="#E0BD2D" fill-rule="evenodd" d="m20.672 49.69.105.037s-.07.11.028.17.127-.078.127-.078l.076.069s-.088.151-.243.083c-.154-.068-.093-.28-.093-.28m1.42.267.058-.05s.09.105.155.082.082-.108.065-.17h.098s.025.14-.076.207c-.103.066-.244.054-.3-.069" clip-rule="evenodd"/><path fill="#B96367" fill-rule="evenodd" d="M20.864 50.755s.876-.07 1.118.134l.031.013s-.005.148-.193.09c-.163-.053-.236.153-.287.19-.05.039-.155.098-.228-.015-.072-.114-.168-.235-.245-.235a1 1 0 0 0-.159.02s-.096.012-.077-.123l.02-.082z" clip-rule="evenodd"/><path fill="#fff" fill-rule="evenodd" d="m20.672 49.69.105.037-.023.092h-.094zm1.42.267.058-.05.085.07-.064.067z" clip-rule="evenodd"/><path fill="#BA7F2C" fill-rule="evenodd" d="M21.171 50.165s.101-.11.228 0c0 0-.141.01-.313.134z" clip-rule="evenodd"/><path fill="#EFC283" fill-rule="evenodd" d="M20.392 49.136s.33-.673.727-.405c0 0-.507.054-.727.405m.385.455s.31.118.405.276l.217-.078-.24-.026s-.203-.196-.382-.172" clip-rule="evenodd"/><path fill="#5E85A9" d="m20.637 48.22-.245-.138.291.028s-.471-.461-.965-.032c0 0 .458-.02.92.142m2.077.068.345.11s.396-.211.612-.083c0 0-.243-.408-.957-.027"/><path fill="#EFC283" fill-rule="evenodd" d="M30.089 54.151s.17 1.296.713 1.899c0 0-.496-1.187-.45-1.478zm4.806-5.14s1.695.44 1.488 1.866c0 0 .6-1.677-1.488-1.866" clip-rule="evenodd"/><path fill="#85B3DA" fill-rule="evenodd" d="M16.643 49.065s.15.123.291.017c0 0 .102-.44-.396-.482 0 0 .233.292.105.465" clip-rule="evenodd"/><path fill="#000" d="m16.721 49.045.088.021.072-.018a.37.37 0 0 0-.055-.255.3.3 0 0 0-.165-.11c.055.098.108.24.06.362m.088.138c-.112 0-.2-.07-.203-.072l-.044-.036.034-.046c.099-.131-.102-.39-.104-.392l-.085-.106.136.01q.262.024.379.184c.116.16.072.361.07.37l-.005.022-.017.012z"/><path fill="#85B3DA" fill-rule="evenodd" d="M16.025 49.02s.15.042.246-.07c0 0 .047-.219-.402-.321 0 0 .172.2.156.39" clip-rule="evenodd"/><path fill="#000" d="m16.084 48.968.13-.045c-.001-.048-.047-.128-.204-.191a.6.6 0 0 1 .074.236m.008.118-.083-.01-.046-.014.004-.048c.012-.137-.099-.297-.142-.348l-.117-.135.174.04c.5.115.45.379.447.39l-.003.014-.01.011a.29.29 0 0 1-.224.1"/><path fill="#85B3DA" fill-rule="evenodd" d="M15.263 49.538s.246-.019.232-.21c0 0-.284-.323-.485-.133 0 0 .226.142.253.343" clip-rule="evenodd"/><path fill="#000" d="M15.114 49.2c.065.055.157.15.193.27.052-.013.124-.045.13-.118-.061-.063-.213-.186-.323-.152m.098.4-.008-.054c-.018-.143-.169-.266-.224-.301l-.065-.04.056-.052a.26.26 0 0 1 .185-.076c.194 0 .375.204.383.213l.013.014.001.02c.015.196-.18.264-.286.272z"/><path fill="#85B3DA" fill-rule="evenodd" d="M15.24 50.179s-.017.147-.147.263c0 0-.31-.117-.247-.476 0 0 .222.238.394.212" clip-rule="evenodd"/><path fill="#000" d="M14.897 50.094a.35.35 0 0 0 .183.278l.084-.137a.6.6 0 0 1-.267-.14m.208.416-.033-.012a.47.47 0 0 1-.284-.541l.02-.116.08.086c.05.054.209.196.325.196l.018-.002.075-.011-.008.076a.52.52 0 0 1-.167.3z"/><path fill="#85B3DA" fill-rule="evenodd" d="M19.31 60.482s.383-.215.328.233c0 0-.304.109-.359.266 0 0-.13-.142.03-.499" clip-rule="evenodd"/><path fill="#231F20" d="M19.355 60.526a.6.6 0 0 0-.062.33.9.9 0 0 1 .29-.182c.006-.077-.004-.133-.028-.16l-.065-.025zm-.053.567-.066-.073c-.015-.018-.15-.181.02-.561l.008-.018.017-.01c.004-.001.106-.058.208-.058q.097 0 .154.064.078.088.053.285l-.004.036-.034.013c-.107.038-.29.135-.323.23z"/><path fill="#85B3DA" fill-rule="evenodd" d="M20.002 61.03s.02-.333-.293-.243c0 0-.197.204-.034.495 0 0 .102-.261.327-.251" clip-rule="evenodd"/><path fill="#231F20" d="M19.74 60.839a.35.35 0 0 0-.058.31.4.4 0 0 1 .258-.173l-.045-.112q-.049-.051-.155-.025m-.056.58-.06-.108a.48.48 0 0 1 .042-.565l.01-.011.016-.004c.122-.036.223-.017.288.053.087.092.081.234.08.25l-.003.057-.058-.002c-.184 0-.27.212-.27.215z"/><path fill="#85B3DA" fill-rule="evenodd" d="M20.57 61.134s.019-.334-.294-.244c0 0-.196.203-.033.495 0 0 .103-.26.327-.251" clip-rule="evenodd"/><path fill="#231F20" d="M20.309 60.942a.35.35 0 0 0-.059.31.4.4 0 0 1 .259-.174l-.046-.112q-.049-.051-.154-.024m-.056.58-.061-.109a.48.48 0 0 1 .042-.564l.01-.012.016-.004c.123-.035.223-.017.288.053.087.092.082.235.08.25l-.003.058-.058-.003c-.184 0-.269.213-.27.215z"/><path fill="#85B3DA" fill-rule="evenodd" d="M20.839 60.97s.21-.148.372.092c0 0-.234.155-.29.35 0 0-.182-.023-.082-.443" clip-rule="evenodd"/><path fill="#231F20" d="M20.89 61.007c-.038.17-.022.258-.002.302l.006.012c.06-.122.17-.22.233-.27l-.14-.068zm.074.47-.05-.007c-.007-.001-.066-.01-.112-.075q-.093-.136-.02-.44l.005-.022.018-.012a.34.34 0 0 1 .182-.055c.074 0 .181.028.272.163l.032.048-.048.033c-.002.002-.217.147-.265.318z"/><path fill="#85B3DA" fill-rule="evenodd" d="M31.07 60.604s.404.028.203.27c0 0-.29.017-.378.187 0 0-.125-.155.176-.457" clip-rule="evenodd"/><path fill="#231F20" d="M31.093 60.666c-.112.117-.15.206-.161.266a.66.66 0 0 1 .31-.113l.026-.078c-.017-.04-.106-.066-.175-.075m-.189.503-.056-.07c-.006-.009-.153-.2.181-.536l.019-.02.026.003c.041.003.248.024.301.149q.042.098-.057.218l-.016.02h-.026c-.072.005-.27.04-.33.156z"/><path fill="#85B3DA" fill-rule="evenodd" d="M31.462 60.778s.261-.025.28.213c0 0-.3.101-.346.234 0 0-.105-.125.066-.447" clip-rule="evenodd"/><path fill="#231F20" d="M31.498 60.836a.6.6 0 0 0-.076.26 1 1 0 0 1 .255-.144c-.028-.092-.117-.113-.18-.116m-.082.505-.065-.08c-.013-.014-.125-.163.06-.51l.014-.029.031-.002h.027c.143 0 .302.069.318.266l.004.045-.043.015c-.114.038-.286.125-.311.198z"/><path fill="#85B3DA" fill-rule="evenodd" d="M32.032 60.915s.287-.151.308.183c0 0-.247.025-.352.247 0 0-.144-.008.044-.43" clip-rule="evenodd"/><path fill="#231F20" d="M32.077 60.96a1 1 0 0 0-.082.265.53.53 0 0 1 .281-.174c-.022-.11-.083-.11-.109-.11zm-.053.447-.039-.003-.084-.054c-.049-.081-.024-.23.077-.458l.008-.019.019-.009c.008-.004.08-.04.162-.04.065 0 .216.026.232.27l.004.056-.056.005c-.01.002-.217.026-.306.215z"/><path fill="#85B3DA" fill-rule="evenodd" d="M32.692 60.954s.319-.204.354.108c0 0-.197.088-.24.283 0 0-.165-.013-.114-.39" clip-rule="evenodd"/><path fill="#231F20" d="M32.747 60.991c-.016.144.004.223.03.262a.5.5 0 0 1 .204-.222c-.02-.084-.067-.084-.09-.084zm.106.418-.05-.005-.111-.066q-.094-.118-.058-.39l.004-.027.023-.016a.5.5 0 0 1 .23-.074c.07 0 .191.03.214.224l.004.043-.038.017c-.002.002-.172.08-.207.243zM23.125 48.73q.31.152.585.365l.134.112.064.06.062.063.06.069.054.072.049.08.039.09.094.217-.211-.129a5 5 0 0 0-.363-.2l-.185-.082-.09-.027-.04-.006h-.027l.03-.136q.135.126.257.26.124.136.234.282l.104.152.047.078.044.083.038.084.03.088.018.09-.002.092-.018-.088-.033-.082-.043-.076-.047-.075a3 3 0 0 0-.225-.274 6 6 0 0 0-.248-.254 6 6 0 0 0-.261-.24l-.126-.11.156-.026.079-.008.064.009.114.03q.106.04.203.087.192.1.375.218l-.118.09-.025-.069-.037-.067-.045-.066-.05-.065a3 3 0 0 0-.225-.244 8 8 0 0 0-.515-.447m-.956 11.593-.168-.051c.58-1.871 1.686-3.383 1.697-3.398l.141.104c-.01.015-1.098 1.504-1.67 3.345m6.67-9.959-.033-.148 4.886-1.059.032.148z"/><path fill="#000" d="m20.727 61.092-.011-.048.012-.13.087-.165.072-.076.085-.065.18-.091.16-.062c.096-.032.166-.042.166-.042s-.048.052-.128.113l-.142.099-.16.1-.143.107-.104.116a.5.5 0 0 0-.074.144"/><path fill="#001E61" d="m46.854 40.475-2.279-3.531v3.53h-1.123v-5.752h1.002l2.279 3.523v-3.523h1.123v5.753zm4.275-4.057-.727 2.093h1.43zm1.341 4.057-.34-1.019h-2.044l-.347 1.02h-1.172l2.093-5.754h.88l2.101 5.753zm5.285 0-2.279-3.531v3.53h-1.123v-5.752h1.002l2.28 3.523v-3.523h1.122v5.753zm4.542-2.36v2.36h-1.115v-2.36l-1.73-3.393h1.22l1.075 2.32 1.059-2.32h1.22zm4.032-1.697-.727 2.093h1.43zm1.342 4.057-.34-1.019h-2.044l-.348 1.02h-1.171l2.093-5.754h.88l2.101 5.753zm5.284 0-2.278-3.531v3.53h-1.124v-5.752h1.003l2.279 3.523v-3.523h1.123v5.753zm5.892-.606c-.461.477-1.01.654-1.624.654-.63 0-1.148-.226-1.551-.63-.583-.582-.567-1.301-.567-2.295 0-.993-.016-1.713.567-2.295.403-.404.904-.63 1.55-.63 1.334 0 2.013.873 2.166 1.843h-1.13c-.13-.542-.462-.84-1.035-.84a.93.93 0 0 0-.72.306c-.218.242-.275.51-.275 1.616s.057 1.383.276 1.624c.16.187.412.3.719.3.338 0 .613-.122.8-.324.186-.21.258-.469.258-.767v-.219h-1.058v-.938h2.174v.841c0 .833-.146 1.333-.55 1.754m-33.198 3.47v4.751h-1.123V43.34h-1.502v-1.001h4.128v1zm2.417 4.752v-5.754h3.79v1.002h-2.667v1.35h2.27v1.002h-2.27v1.397h2.667v1.003zm6.813.048c-.63 0-1.148-.226-1.552-.63-.582-.582-.565-1.301-.565-2.295s-.017-1.713.565-2.295a2.12 2.12 0 0 1 1.552-.63c1.074 0 1.915.614 2.117 1.818h-1.14c-.112-.46-.404-.817-.969-.817-.308 0-.558.114-.72.3-.218.242-.282.517-.282 1.624s.064 1.381.282 1.624c.162.186.412.299.72.299.565 0 .857-.355.97-.816h1.139c-.203 1.204-1.05 1.818-2.117 1.818m6.157-.048v-2.409H59.09v2.409h-1.124v-5.754h1.124v2.352h1.947v-2.352h1.123v5.754zm5.867 0-2.278-3.531v3.53H63.5v-5.753h1.002l2.279 3.524v-3.523h1.123v5.753zm4.994-4.494a.93.93 0 0 0-.719-.306.95.95 0 0 0-.727.306c-.218.244-.275.51-.275 1.616 0 1.108.057 1.375.275 1.617.162.186.42.307.728.307a.94.94 0 0 0 .718-.306c.219-.243.283-.51.283-1.618 0-1.105-.064-1.372-.283-1.616m.833 3.912c-.404.404-.898.63-1.552.63s-1.155-.226-1.56-.63c-.58-.582-.565-1.3-.565-2.296 0-.993-.016-1.712.565-2.294.405-.404.906-.63 1.56-.63s1.148.226 1.551.63c.583.582.575 1.301.575 2.294 0 .995.008 1.714-.574 2.296m1.722.582v-5.754h1.123v4.751h2.61v1.003zm7.086-4.494a.94.94 0 0 0-.72-.306.95.95 0 0 0-.727.306c-.218.244-.274.51-.274 1.616 0 1.108.056 1.375.274 1.617.162.186.42.307.727.307a.94.94 0 0 0 .72-.306c.217-.243.282-.51.282-1.618 0-1.105-.065-1.372-.282-1.616m.832 3.912c-.404.404-.897.63-1.552.63-.654 0-1.155-.226-1.56-.63-.581-.582-.565-1.3-.565-2.296 0-.993-.016-1.712.566-2.294.404-.404.905-.63 1.56-.63.654 0 1.147.226 1.55.63.583.582.574 1.301.574 2.294 0 .995.009 1.714-.573 2.296m5.269-.024c-.46.476-1.01.654-1.625.654a2.12 2.12 0 0 1-1.55-.63c-.583-.582-.567-1.301-.567-2.296 0-.993-.016-1.712.566-2.294.404-.404.905-.63 1.551-.63 1.333 0 2.013.872 2.166 1.842h-1.131c-.13-.542-.46-.84-1.035-.84a.94.94 0 0 0-.719.306c-.218.243-.275.51-.275 1.616 0 1.108.057 1.383.275 1.625.162.186.413.3.72.3.339 0 .614-.122.8-.324.185-.21.258-.469.258-.767v-.22h-1.059v-.937h2.174v.841c0 .832-.145 1.334-.55 1.754m1.69.606h1.122v-5.754h-1.123zm4.387.048c-.63 0-1.148-.226-1.552-.63-.582-.582-.566-1.301-.566-2.295s-.016-1.713.566-2.295a2.12 2.12 0 0 1 1.552-.63c1.074 0 1.915.614 2.117 1.818h-1.14c-.112-.46-.403-.817-.969-.817-.307 0-.558.114-.72.3-.218.242-.282.517-.282 1.624s.064 1.381.283 1.624c.161.186.412.299.72.299.565 0 .856-.355.969-.816h1.139c-.202 1.204-1.05 1.818-2.117 1.818m4.938-4.105-.728 2.093h1.43zm1.34 4.057-.339-1.018h-2.044l-.348 1.018h-1.172l2.094-5.754h.88l2.101 5.754zm1.884 0v-5.754h1.123v4.751h2.61v1.003zM45.48 55.754c-1.18 0-2.117-.8-2.117-2.02v-3.782h1.123v3.742c0 .662.388 1.058.994 1.058s1.002-.396 1.002-1.058v-3.742h1.115v3.782c0 1.22-.937 2.02-2.117 2.02m6.772-.048-2.279-3.531v3.53H48.85v-5.752h1.002l2.279 3.522v-3.522h1.123v5.752zm2.344 0h1.123v-5.754h-1.123zm4.557 0h-.84l-1.899-5.753h1.164l1.155 3.75 1.156-3.75h1.171zm2.603 0v-5.752h3.79v1.001h-2.667v1.35h2.27v1.002h-2.27v1.398h2.666v1.002zm7.07-4.75h-1.058v1.519h1.058c.494 0 .817-.315.817-.76s-.323-.76-.817-.76m.874 4.75-1.124-2.294h-.808v2.294h-1.123v-5.752h2.254c1.171 0 1.867.8 1.867 1.761 0 .809-.493 1.31-1.05 1.511L71 55.705zm3.814.05c-.873 0-1.535-.187-2.101-.76l.727-.728c.363.364.857.485 1.39.485.663 0 1.018-.251 1.018-.71 0-.203-.056-.373-.178-.486-.113-.104-.243-.161-.508-.202l-.695-.096c-.494-.074-.857-.227-1.116-.477-.274-.275-.412-.647-.412-1.131 0-1.027.76-1.747 2.004-1.747.791 0 1.366.194 1.859.672l-.712.703c-.363-.348-.8-.396-1.18-.396-.597 0-.888.331-.888.727 0 .145.049.3.17.412.112.105.299.194.532.226l.68.097c.525.073.856.218 1.099.444.306.291.444.712.444 1.221 0 1.115-.93 1.745-2.133 1.745m3.192-.05h1.123v-5.752h-1.123zm4.662-4.75v4.75h-1.123v-4.75h-1.503v-1.002h4.13v1.001zm4.615 2.39v2.36h-1.115v-2.36l-1.73-3.393h1.22l1.076 2.32 1.058-2.32h1.22z"/><path fill="#E01932" d="M42.781 58.323h44.782v-.522H42.781zm1.846 6.886c-.715 0-1.257-.152-1.72-.622l.595-.596c.298.298.702.397 1.139.397.543 0 .834-.205.834-.582 0-.166-.046-.305-.145-.398-.094-.085-.199-.131-.417-.165l-.57-.079c-.404-.06-.702-.186-.913-.391-.226-.225-.338-.53-.338-.927 0-.84.622-1.43 1.642-1.43.648 0 1.119.159 1.523.55l-.584.576c-.297-.285-.655-.324-.966-.324-.49 0-.728.27-.728.595 0 .12.04.245.139.337.093.087.245.16.437.186l.556.08c.43.059.702.178.9.363.252.24.364.583.364 1 0 .914-.761 1.43-1.748 1.43m3.807-.039h.92v-4.713h-.92zm5.998 0-1.866-2.893v2.893h-.921v-4.713h.82l1.868 2.886v-2.886h.92v4.713zm6.017-.496c-.377.39-.828.535-1.33.535-.517 0-.94-.185-1.271-.516-.477-.476-.464-1.065-.464-1.88 0-.814-.013-1.403.464-1.88.33-.33.74-.516 1.27-.516 1.093 0 1.649.715 1.775 1.51h-.927c-.106-.444-.377-.69-.847-.69-.252 0-.457.1-.59.252-.178.199-.225.417-.225 1.324s.047 1.132.226 1.33a.76.76 0 0 0 .589.246c.278 0 .502-.1.655-.265.152-.172.212-.384.212-.629v-.178h-.867v-.769h1.78v.69c0 .68-.119 1.091-.45 1.436m4.091-2.828-.595 1.715h1.172zm1.1 3.324-.278-.835h-1.675l-.285.835h-.96l1.714-4.713h.722L66.6 65.17zm4.514-3.892h-.86v1.29h.86c.418 0 .682-.258.682-.642s-.264-.648-.681-.648m.046 2.118h-.906v1.774h-.92v-4.713h1.826c.974 0 1.556.668 1.556 1.47 0 .8-.582 1.47-1.556 1.47m5.694-1.908a.76.76 0 0 0-.589-.25.78.78 0 0 0-.595.25c-.18.199-.226.418-.226 1.324s.047 1.126.226 1.325a.78.78 0 0 0 .595.25c.252 0 .457-.099.589-.25.18-.199.233-.418.233-1.325 0-.906-.053-1.126-.233-1.324m.682 3.204c-.33.331-.735.517-1.27.517-.537 0-.948-.186-1.278-.517-.477-.476-.464-1.065-.464-1.88 0-.814-.013-1.403.464-1.88.33-.33.74-.516 1.277-.516s.94.185 1.27.516c.478.477.471 1.066.471 1.88s.007 1.404-.47 1.88m4.39-3.415h-.868v1.243h.867c.404 0 .67-.257.67-.621 0-.365-.266-.622-.67-.622m.715 3.892-.92-1.88h-.663v1.88h-.92v-4.713h1.847c.96 0 1.529.655 1.529 1.443 0 .663-.404 1.072-.86 1.238l1.053 2.032zm3.019 0v-4.713h3.104v.82h-2.184v1.106h1.86v.82h-1.86v1.146h2.185v.821z"/></svg>