<svg xmlns="http://www.w3.org/2000/svg" width="97" height="100" fill="none"><path fill="#1D427C" d="M43.04 55.566h.01V52.78h.497v3.461h-.635l-1.568-2.845h-.01v2.845h-.495V52.78h.675z"/><mask id="a" width="75" height="34" x="11" y="33" maskUnits="userSpaceOnUse" style="mask-type:luminance"><path fill="#fff" d="M11.143 33.015h73.966V66.91H11.143z"/></mask><g mask="url(#a)"><path fill="#1D427C" d="M44.523 54.287c.188-.157.47-.256.733-.256.467 0 .626.223.626.66-.184-.011-.313-.011-.497-.011-.48 0-1.174.198-1.174.833 0 .55.382.789.927.789a.94.94 0 0 0 .784-.388h.009v.328h.436a4 4 0 0 1-.02-.497V54.7c0-.69-.291-1.047-1.016-1.047-.323 0-.6.1-.833.239zm1.359.973c0 .377-.244.665-.705.665-.212 0-.47-.145-.47-.412 0-.446.624-.486.877-.486.1 0 .198.01.298.01zm2.597-1.17h-.669v1.383c0 .293.18.451.392.451a.6.6 0 0 0 .317-.089v.396c-.104.03-.248.07-.396.07-.481 0-.779-.227-.779-.734v-1.478h-.57v-.376h.57v-.586l.466-.147v.733h.67zm1.142-1.468h-.527v.526h.527zm-.497 3.62h.466v-2.53h-.466zm1.15-1.265c0 .724.526 1.324 1.29 1.324.758 0 1.283-.6 1.283-1.324 0-.769-.515-1.324-1.284-1.324-.773 0-1.29.555-1.29 1.324m.496 0c0-.48.292-.946.793-.946.496 0 .788.465.788.946 0 .452-.242.948-.788.948-.55 0-.793-.496-.793-.948m2.703-1.264h.45v.401h.01c.14-.287.477-.46.829-.46.654 0 .947.406.947 1.085v1.503h-.467v-1.309c0-.59-.127-.878-.535-.902-.53 0-.768.425-.768 1.04v1.171h-.466zm3.172.574c.19-.157.471-.256.734-.256.466 0 .625.223.625.66-.183-.011-.313-.011-.496-.011-.48 0-1.175.198-1.175.833 0 .55.382.789.927.789a.94.94 0 0 0 .784-.388h.009v.328h.437a4 4 0 0 1-.02-.497V54.7c0-.69-.292-1.047-1.017-1.047-.32 0-.6.1-.832.239zm1.359.973c0 .377-.242.665-.704.665-.213 0-.471-.145-.471-.412 0-.446.624-.486.878-.486.098 0 .198.01.297.01zm1.314-2.737h.466v3.719h-.466zm5.296 2.286c0 .971-.49 1.493-1.343 1.493s-1.344-.522-1.344-1.493V52.78h.496v1.965c0 .664.207 1.12.847 1.12s.848-.456.848-1.12V52.78h.496zm.843-1.096h.452v.401h.009c.14-.287.477-.46.828-.46.655 0 .948.406.948 1.085v1.503h-.466v-1.309c0-.59-.13-.878-.536-.902-.53 0-.769.425-.769 1.04v1.171h-.466zm3.585-.565h-.526v-.526h.526zm-.497.565h.467v2.529h-.467zm.978 0h.51l.685 2.063h.01l.699-2.064h.466l-.908 2.53h-.555zm4.76 1.959c-.114.094-.472.252-.779.252a.83.83 0 0 1-.833-.843h1.805c0-.813-.273-1.427-1.116-1.427-.713 0-1.185.53-1.185 1.279 0 .822.412 1.369 1.31 1.369.415 0 .62-.1.797-.164zm-1.612-.938c.035-.328.223-.703.68-.703.4 0 .628.317.628.703zm2.43-1.021h.436v.392h.01c.124-.264.392-.452.66-.452.138 0 .208.015.307.036v.416a.7.7 0 0 0-.258-.045c-.417 0-.688.397-.688 1.032v1.15H75.1zm1.74 2.032c.183.12.447.18.58.18.213 0 .477-.09.477-.362 0-.462-1.098-.422-1.098-1.132 0-.524.392-.778.894-.778.218 0 .396.045.58.099l-.04.408c-.104-.066-.382-.13-.49-.13-.239 0-.446.1-.446.308 0 .515 1.095.367 1.095 1.175 0 .54-.432.789-.883.789-.238 0-.48-.025-.694-.14zm2.672-2.597h-.525v-.526h.525zm-.496.565h.467v2.529h-.467zm2.663.376h-.668v1.384c0 .293.177.451.39.451a.6.6 0 0 0 .318-.089v.396c-.104.03-.248.07-.396.07-.482 0-.78-.227-.78-.734v-1.478h-.57v-.376h.57v-.586l.468-.147v.733h.668zm.397 2.837c.06.02.138.04.218.04.416 0 .555-.575.555-.625 0-.055-.06-.184-.09-.268l-.858-2.36h.512l.679 2.093h.01l.694-2.093h.472l-.933 2.583c-.173.485-.357 1.046-.972 1.046-.149 0-.233-.02-.317-.034zm-41.446 3.91c0 .725.525 1.325 1.29 1.325.757 0 1.284-.6 1.284-1.324 0-.769-.517-1.324-1.285-1.324-.773 0-1.289.555-1.289 1.324m.496 0c0-.48.292-.945.793-.945.496 0 .788.465.788.946 0 .45-.242.947-.788.947-.551 0-.793-.496-.793-.947m3.004-.886h-.595v-.377h.595v-.233c0-.615.16-1.017.849-1.017.118 0 .217.015.31.03l-.018.377a.7.7 0 0 0-.224-.03c-.401 0-.45.258-.45.6v.273h.67v.377h-.67v2.15h-.468zm4.483-.789c-.253-.099-.391-.144-.649-.144-.278 0-.606.1-.606.462 0 .665 1.488.51 1.488 1.65 0 .739-.57 1.032-1.264 1.032-.243 0-.481-.07-.709-.144l.05-.46c.168.069.465.167.718.167.283 0 .68-.158.68-.566 0-.772-1.487-.559-1.487-1.634 0-.617.485-.943 1.11-.943.228 0 .5.04.738.123zm1.418-.153h-.525v-.525h.525zm-.495.565h.467v2.528h-.468zm1.318 0h.452v.402h.01c.139-.289.475-.463.827-.463.655 0 .948.408.948 1.087v1.5h-.467v-1.307c0-.59-.128-.877-.536-.902-.53 0-.767.426-.767 1.04v1.17h-.467zm5.266 0h-.431v.377h-.01c-.14-.273-.386-.437-.833-.437-.764 0-1.13.694-1.13 1.345 0 .653.356 1.242 1.08 1.242.323 0 .65-.128.848-.39h.01v.248c0 .535-.293.867-.784.867-.342 0-.555-.064-.912-.228l-.05.432c.407.138.64.173.908.173.907 0 1.304-.44 1.304-1.21zm-1.205 2.151c-.436 0-.704-.416-.704-.892 0-.431.234-.941.704-.941.497 0 .738.45.738.976 0 .47-.302.858-.738.858m2.142-1.576c.189-.159.47-.258.734-.258.466 0 .624.224.624.66-.182-.01-.312-.01-.495-.01-.481 0-1.175.198-1.175.832 0 .551.381.79.927.79a.94.94 0 0 0 .784-.389h.01v.328h.435a4 4 0 0 1-.019-.496v-1.046c0-.688-.294-1.046-1.017-1.046-.321 0-.6.1-.833.239zm1.358.971c0 .377-.242.665-.704.665-.213 0-.47-.144-.47-.412 0-.445.624-.485.878-.485.098 0 .198.01.296.01zm1.255 2.024h.466v-1.388h.01c.144.233.397.406.843.406.764 0 1.086-.674 1.086-1.37 0-.678-.357-1.278-1.091-1.278-.447 0-.734.229-.858.417h-.01v-.357h-.446zm1.909-2.316c.01.398-.198.957-.699.957-.525 0-.744-.52-.744-.942 0-.47.244-.951.749-.951s.704.48.694.936m.952.01c0 .724.526 1.323 1.29 1.323.757 0 1.283-.6 1.283-1.323 0-.769-.516-1.324-1.284-1.324-.774 0-1.29.555-1.29 1.324m.496 0c0-.48.292-.947.793-.947.496 0 .788.466.788.947 0 .45-.243.947-.788.947-.55 0-.793-.496-.793-.947m2.703-1.264h.435v.392h.01c.124-.263.392-.453.66-.453.138 0 .207.016.307.036v.417a.7.7 0 0 0-.257-.045c-.417 0-.69.397-.69 1.031v1.15h-.465zm3.866 1.958c-.114.094-.471.253-.778.253a.83.83 0 0 1-.834-.843h1.805c0-.813-.272-1.428-1.114-1.428-.715 0-1.186.53-1.186 1.28 0 .822.411 1.367 1.31 1.367.416 0 .62-.098.797-.162zm-1.611-.937c.034-.327.222-.704.679-.704.402 0 .63.317.63.704zm4.902-14.713c.95.876 2.82 1.674 5.106 1.71 2.003.034 3.62-.568 3.719-2.23.212-3.594-9.007-2.156-8.65-8.224.178-3.037 3.193-4.043 6.446-3.987 1.757.03 3.515.446 4.48.935l.003 2.156c-1.176-.806-2.816-1.319-4.172-1.344-2.064-.038-3.702.342-3.728 1.85-.056 3.146 9.244 2.392 8.889 8.41-.2 3.389-3.493 4.429-6.94 4.365-1.984-.026-3.926-.43-5.149-1.055zm-8.72 3.659c-4.283 0-6.749-1.923-6.749-5.88V33.617h3.21l.002 10.043c0 2.46 1.18 3.952 3.536 3.952s3.537-1.492 3.537-3.952V33.617h3.21V43.66c0 3.957-2.466 5.88-6.747 5.88M52.204 33.617V44.93l-7.358-10.513a1.93 1.93 0 0 0-1.564-.8h-2.436v15.426h2.14v-11.32l7.345 10.481c.35.5.928.839 1.59.839h2.422V33.617zM37.152 49.582V33.618H11.147v15.976l-.002.123c0 .754.163 4.745 3.372 9.8 3.506 5.53 9.29 7.24 9.534 7.311l.088.024.087-.024c.245-.07 6.047-1.78 9.555-7.311 3.498-5.511 3.377-9.758 3.37-9.935"/></g><mask id="b" width="75" height="34" x="11" y="33" maskUnits="userSpaceOnUse" style="mask-type:luminance"><path fill="#fff" d="M11.143 33.015h73.966V66.91H11.143z"/></mask><g mask="url(#b)"><path fill="#EC8023" d="M23.323 35.538a15 15 0 0 0-2.366-.195c-1.002 0-1.906.301-2.303.454-.398-.153-1.302-.454-2.303-.454-1.263 0-2.323.186-2.367.194l-.142.026v6.731l.21-.045c.008-.002.884-.19 2.174-.19.969 0 1.973.27 2.369.412l.059.022.059-.022c.395-.142 1.4-.412 2.37-.412 1.288 0 2.165.188 2.173.19l.21.045v-6.73z"/></g><mask id="c" width="75" height="34" x="11" y="33" maskUnits="userSpaceOnUse" style="mask-type:luminance"><path fill="#fff" d="M11.143 33.015h73.966V66.91H11.143z"/></mask><g mask="url(#c)"><path fill="#fff" d="M18.488 36.11c-.401-.15-1.227-.413-2.13-.413-.977 0-1.84.117-2.163.167v5.089c.338-.058 1.066-.16 2.038-.16.871 0 1.743.2 2.255.358zm2.477-.413c-.915 0-1.752.27-2.146.418v5.042c.51-.16 1.39-.363 2.271-.363.973 0 1.7.1 2.038.158v-5.088a15 15 0 0 0-2.163-.167"/></g><mask id="d" width="75" height="34" x="11" y="33" maskUnits="userSpaceOnUse" style="mask-type:luminance"><path fill="#fff" d="M11.143 33.015h73.966V66.91H11.143z"/></mask><g mask="url(#d)"><path fill="#1D427C" d="M15.154 36.546c-.125.033-.194.148-.156.256s.171.168.296.135a8 8 0 0 1 1.203-.116c.5 0 1.06.227 1.067.23.122.04.257-.014.303-.12s-.016-.224-.138-.265c-.027-.01-.645-.254-1.232-.254-.623 0-1.314.127-1.343.134m0 1.01c-.125.034-.194.149-.156.257s.171.169.296.135a8 8 0 0 1 1.203-.116c.5 0 1.06.227 1.067.23.122.039.257-.015.303-.121s-.016-.224-.138-.263c-.027-.01-.645-.255-1.232-.255-.623 0-1.314.126-1.343.133m0 1.012c-.125.034-.194.149-.156.256s.171.17.296.135a8 8 0 0 1 1.203-.116c.5 0 1.06.227 1.067.229.122.04.257-.014.303-.12s-.016-.224-.138-.263c-.027-.008-.645-.255-1.232-.255a8 8 0 0 0-1.343.134m0 1.01c-.125.035-.194.15-.156.257s.171.169.296.135a8 8 0 0 1 1.203-.116c.5 0 1.06.228 1.067.23.122.04.257-.014.303-.12s-.016-.225-.138-.264c-.027-.009-.645-.256-1.232-.256-.623 0-1.314.127-1.343.135m7.034-3.032c.126.033.195.148.156.256s-.17.168-.296.135a8 8 0 0 0-1.203-.116c-.5 0-1.06.227-1.066.23-.122.04-.258-.014-.304-.12s.016-.224.138-.265c.027-.01.645-.254 1.232-.254.624 0 1.314.127 1.343.134m0 1.01c.126.034.195.149.156.257s-.17.169-.296.135a8 8 0 0 0-1.203-.116c-.5 0-1.06.227-1.066.23-.122.039-.258-.015-.304-.121s.016-.224.138-.263c.027-.01.645-.255 1.232-.255.624 0 1.314.126 1.343.133m0 1.012c.126.034.195.149.156.256s-.17.17-.296.135a8 8 0 0 0-1.203-.116c-.5 0-1.06.227-1.066.229-.122.04-.258-.014-.304-.12s.016-.224.138-.263c.027-.008.645-.255 1.232-.255.624 0 1.314.126 1.343.134m0 1.01c.126.035.195.15.156.257s-.17.169-.296.135a8 8 0 0 0-1.203-.116c-.5 0-1.06.228-1.066.23-.122.04-.258-.014-.304-.12s.016-.225.138-.264c.027-.009.645-.256 1.232-.256.624 0 1.314.127 1.343.135"/></g><mask id="e" width="75" height="34" x="11" y="33" maskUnits="userSpaceOnUse" style="mask-type:luminance"><path fill="#fff" d="M11.143 33.015h73.966V66.91H11.143z"/></mask><g mask="url(#e)"><path fill="#fff" d="M33.263 59.149c-3.15 4.97-8.38 6.781-9.108 7.013-.723-.233-5.936-2.044-9.085-7.013-3.158-4.975-3.273-8.965-3.273-9.509v-5.714h24.737v5.64q.001.005.002.066c0 .558-.117 4.544-3.273 9.517"/></g><mask id="f" width="75" height="34" x="11" y="33" maskUnits="userSpaceOnUse" style="mask-type:luminance"><path fill="#fff" d="M11.143 33.015h73.966V66.91H11.143z"/></mask><g mask="url(#f)"><path fill="#1D427C" d="M35.368 48.504c-.128-.465-.363-.672-.675-.837-.863-.458-1.989-.137-2.976.199-.746.254-.97.33-1.815.46-.639.098-2.772.375-3.447-.183a.66.66 0 0 1-.203-.368c-.02-.232.086-.51.167-.598.17-.187.568-.277 1.215-.277l1.652.026c.103.133.367.346 1.039.49 1.067.228 2.24-.143 2.24-.143s-.194-.038-.355-.16c-.143-.106-.13-.266-.13-.266s.235.113.577.103c.427-.012.626-.215 1.023-.316.398-.102.842-.018.842-.018s-.402-.43-.802-.507c-.397-.075-.894.027-.894.027s.125-.056.273-.19c.119-.107.143-.29.143-.29s-.477.184-.96.16c-.484-.026-.449-.2-1.388-.226-.712-.019-1.3.404-1.543.61-.761-.05-1.36-.077-1.712-.077-.967 0-1.525.159-1.867.53-.285.31-.41.712-.368 1.194.031.374.198.69.497.935.902.748 3.324.519 4.182.367.96-.17 1.246-.244 1.802-.428l.031-.01c.43-.145 1.74-.582 2.288-.29q.166.086.235.337.03.113.03.207a.44.44 0 0 1-.105.295c-.5.611-2.38.716-3.196.76a6.4 6.4 0 0 0-1.36-.149c-.485-.003-.89.029-1.32.06-.784.06-1.596.121-2.943-.033a10 10 0 0 1-1.652-.316c-.02-.168-.098-.327-.266-.515.323.105.743-.25.86-.428 0-.017-.573-.169-.607-.54 0-.012.405.033.574-.524-.405-.22-.278-.3-.473-.574a.82.82 0 0 0-.727-.355c.125-.016.136 0 .27-.068.177-.089.3-.33.474-.32-.353-.553-1.3-.626-1.694-.51.101-.125.256-.265.258-.437-.524.145-1.037-.127-1.566-.029-.438.083-.688.26-.825.677h-.02c-.138-.416-.387-.594-.826-.677-.527-.098-1.042.174-1.565.03.002.171.157.311.257.437-.392-.117-1.34-.044-1.694.508.176-.01.298.232.474.321.155.078.186.062.27.068a.83.83 0 0 0-.727.355c-.196.273-.067.354-.473.574.17.557.576.512.575.524-.035.371-.607.523-.609.54.119.177.538.533.863.428-.266.297-.31.525-.25.824-.412-.313-.819-.659-1.035-.945-.05-.074-.213-.606-.32-.958l-.087-.287-.043-.152c-.13-.475-.254-.872-.47-.925a1 1 0 0 0-.319-.029c-.074-.116-.178-.239-.3-.277-.25-.075-.37-.02-.37-.02s.202.145.27.294a.5.5 0 0 1 .036.108 1 1 0 0 0-.12.081l-.02.015q-.04.032-.097.083a.3.3 0 0 0-.052-.011c-.26-.035-.37.04-.37.04s.14.07.246.166a.82.82 0 0 0-.166.486q0 .03.004.06c-.247.019-.34.11-.34.11s.241.064.359.179l.034.038-.02.023a.5.5 0 0 0-.072.26c0 .216.12.45.288.602l.487.403c.176.393.37.738.498.883.04.05.312.518.6 1.014l.117.202c.062.303.132.682.163.98.057.534.003 1.131.003 1.131s.347-.017.504-.243c.003-.005.127.37.11.794-.015.314-.098.749-.098.749s.338-.18.592-.405c.128-.113.257-.3.336-.422.279.178 1.079-.106 1.477-.266.078.158.185.334.332.532.059-.24.314-.36.433-.55l.108-.001c.015.262-.061.508.186.998.07.139.415.652.665.914a34 34 0 0 1-.46 1.916c-.213.758-.386 1.134-.484 1.309-.285.014-.806.031-.972.024q-.597-.027-.873.248-.02.02-.036.04c-.138.02-.297.063-.383.16-.173.196-.174.329-.174.329s.216-.125.38-.125l.035.002v.034c.003.038.024.1.061.176a.3.3 0 0 0-.07.066c-.16.206-.151.34-.151.34s.203-.136.366-.15q.076.124.168.247-.012.012-.02.026c-.143.218-.124.35-.124.35s.16-.126.312-.167q.079.091.151.155c.24.21.832.074 1.583-.126l.465-.115c.33-.061.533-.193.684-.44.036-.058.068-.153.119-.306l.043-.13c.104-.292.185-.477.391-.809.007-.01.209-.333.482-.78.243-.202.536-.436.748-.58.325-.219.972-.55.972-.55s-.172-.28-.43-.318c-.005 0 .328-.34.607-.46.314-.136.72-.21.72-.21s-.148-.303-.377-.45a1.3 1.3 0 0 0 .29-.158c.546-.356.95-.343 1.33-.237.014-.246-.048-.397-.261-.54.18-.075.365-.141.562-.188.124.214.265.45.328.54.282.4.706.95 1.049 1.293q.012.012.012.047c0 .143-.175.54-.276.767l-.085.197-.445 1.047c-.201.012-.783.043-.987.033q-.582-.026-.85.24a1 1 0 0 0-.06.069c-.144.026-.316.078-.402.187-.162.206-.155.338-.155.338s.208-.136.371-.145q.039-.002.073 0c.007.043.03.106.067.179a.4.4 0 0 0-.095.095c-.144.219-.125.35-.125.35s.195-.153.358-.177l.018-.002a4 4 0 0 0 .125.18.4.4 0 0 0-.042.05c-.143.22-.125.352-.125.352s.187-.148.347-.176q.076.087.144.148c.229.202.717.081 1.381-.11l.474-.123c.32-.06.52-.188.667-.428l.124-.269a3 3 0 0 1 .177-.37 6 6 0 0 0 .24-.425q.141-.121.288-.238c.212-.162.75-.459.75-.459s-.107-.236-.327-.258c-.003 0 .214-.242.474-.391.184-.108.55-.17.55-.17s-.253-.215-.445-.298a1.3 1.3 0 0 0-.273-.072c-.012-.11-.07-.232-.175-.394-.188-.293.088-.92.286-1.276a8 8 0 0 0 .578.707l1.17 1.28q-.161.645-.388 1.267c-.154.42-.373.858-.484 1.073-.231.013-.755.04-.946.031q-.582-.028-.851.24a.6.6 0 0 0-.074.091c-.13.032-.271.086-.344.182-.158.21-.149.343-.149.343s.157-.148.369-.153h.028q.016.069.072.177a.4.4 0 0 0-.095.093c-.143.22-.124.352-.124.352s.195-.156.358-.179l.017-.002q.076.117.16.229l-.002.003c-.144.218-.125.351-.125.351s.144-.114.289-.16q.063.07.12.12c.229.203.72.083 1.385-.11l.47-.123c.32-.06.52-.187.667-.428.065-.108.356-.786.436-.983q.218-.53.464-1.05c.079-.067.152-.126.211-.168.263-.182.824-.502.824-.502s-.112-.24-.328-.258c-.002 0 .221-.213.443-.355.206-.133.581-.206.581-.206s-.27-.206-.461-.288a1.7 1.7 0 0 0-.385-.098c-.033-.16-.114-.212-.235-.273-.107-.055-.253-.13-.478-.393-.287-.34-.332-.986-.332-1.632q.001-.215.004-.423l.002-.62c-.019-.73-.125-1.238-.226-1.574.95-.086 2.691-.278 3.405-1.15.214-.262.322-.569.322-.903a1.8 1.8 0 0 0-.065-.463"/></g><mask id="g" width="75" height="34" x="11" y="33" maskUnits="userSpaceOnUse" style="mask-type:luminance"><path fill="#fff" d="M11.143 33.015h73.966V66.91H11.143z"/></mask><g mask="url(#g)"><path fill="#F19320" d="M28.55 56.43c.127-.117.19-.18.19-.264 0-.07-.046-.157-.14-.303a.7.7 0 0 1-.1-.383c0-.467.31-1.03.434-1.235q-.054-.065-.147-.192-.051-.033-.078-.053a2.3 2.3 0 0 1-.412-.396q-.027-.037-.055-.085c-.264-.008-.878-.026-1.511.167.195.112.24.257.249.444a3 3 0 0 0-1.085-.05c.11.189.224.377.276.452.277.392.69.928 1.022 1.262a.28.28 0 0 1 .078.212c0 .206-.13.5-.291.866l-.085.194-.502 1.181-.074.005c-.034.002-.826.05-1.086.037-.282-.014-.5.035-.632.139a.34.34 0 0 1 .007.192.25.25 0 0 1-.127.155l.021.042c.156-.052.304-.067.304-.067s.086.113.051.255a.34.34 0 0 1-.116.192q.015.023.032.045c.175-.071.368-.09.368-.09s.09.137.06.286a.24.24 0 0 1-.094.153c.213.067.76-.09 1.102-.189l.496-.129c.254-.047.396-.137.507-.318l.11-.238c.062-.144.132-.308.194-.404.152-.24.325-.59.492-.931.217-.442.405-.824.543-.951m-9.458-3.05q.001.008.002.015h.003z"/></g><mask id="h" width="75" height="34" x="11" y="33" maskUnits="userSpaceOnUse" style="mask-type:luminance"><path fill="#fff" d="M11.143 33.015h73.966V66.91H11.143z"/></mask><g mask="url(#h)"><path fill="#EC8023" d="M18.071 52.017c-.154.23-.432.339-.793.383.069-.36.007-.606-.126-.89-.116-.252-.433-.744-.527-1.024l-.075-.222c-.501-.364-1.052-.808-1.328-1.175-.066-.086-.164-.396-.358-1.032l-.087-.286-.045-.16q-.192-.704-.299-.756a1 1 0 0 0-.135-.02s-.023.143-.263.132a.3.3 0 0 1-.14-.042 1 1 0 0 0-.057.04l-.02.016-.036.03c.141.128.243.294.243.294s-.054.147-.238.18c-.133.022-.235-.072-.235-.072s.001-.046-.017-.111a.57.57 0 0 0-.053.38c.186.095.347.27.347.27s-.004.138-.196.234c-.072.038-.146.016-.194-.007-.024.142.056.342.204.478l.519.43.011.025c.166.372.359.721.472.85.043.047.197.311.627 1.05.57.981 1.43 2.464 1.652 2.71.086.08.674-.058 1.253-.289-.206-.573-.027-.923-.106-1.416m17.07-3.452c-.106-.386-.285-.545-.558-.69-.778-.413-1.847-.106-2.788.215-.8.272-1.022.342-1.855.47-.85.13-2.903.368-3.634-.236a.9.9 0 0 1-.29-.53c-.023-.291.1-.638.23-.779.223-.245.652-.354 1.39-.354l1.719.027.13-.116-.127-.135a30 30 0 0 0-1.717-.078c-.894 0-1.4.136-1.692.454-.24.258-.341.6-.307 1.012q.042.465.412.773c.768.635 3.02.487 3.99.315.944-.166 1.225-.239 1.768-.419l.032-.01c.502-.169 1.835-.615 2.474-.275.172.091.288.25.351.485.08.286.04.52-.119.715-.568.695-2.397.793-3.38.846l-.021.001-.017-.004c-.006-.001-.576-.14-1.323-.145-.475-.003-.876.028-1.301.06-.796.06-1.619.122-2.988-.034a10.6 10.6 0 0 1-1.631-.31c-.029.184-.102.393-.193.663-.094.28-.41.772-.526 1.023-.132.285-.195.53-.128.891-.36-.045-.638-.152-.792-.384-.108.677.274 1.083-.529 2.167-.08-.328-.53-.431-.491-.802-.141.386.086.609-.237 1.25-.081.16-.532.824-.776 1.018-.098.46-.273 1.236-.451 1.874-.245.872-.444 1.265-.542 1.423l-.032.054-.062.003a19 19 0 0 1-1.06.027c-.267-.013-.477.028-.616.117.014.067.02.161-.02.23a.3.3 0 0 1-.15.133q.007.021.022.049c.173-.05.348-.053.348-.053s.071.145-.003.321a.25.25 0 0 1-.103.125l.051.07c.184-.08.399-.101.399-.101s.083.108.029.332a.18.18 0 0 1-.087.122c.242.075.922-.105 1.305-.207l.482-.12c.263-.048.411-.14.526-.329.023-.037.061-.154.095-.256l.046-.135c.107-.303.196-.509.413-.856.495-.79 1.956-3.182 2.015-3.374q.004-.015.003-.036c0-.127-.062-.406-.112-.584l-.031-.113 5.01-1.465-.292-.503.172-.156c.015.01.38.275.579.475.176.176.346.447.525.734l.092.146c.202.322.402.56.404.562l.008.009.005.01c.001.002.16.277.655.83l1.254 1.371-.013.062c-.002.005-.151.645-.411 1.354a11 11 0 0 1-.528 1.161l-.032.06-.066.003c-.242.015-.824.045-1.038.036-.266-.013-.472.028-.607.118.018.062.036.159-.001.234a.4.4 0 0 1-.136.152l.019.034c.156-.053.306-.068.306-.068s.076.125.052.282c-.018.105-.073.152-.113.174l.046.062c.188-.09.423-.114.423-.114s.079.109.052.278a.26.26 0 0 1-.107.162c.243.029.73-.112 1.045-.203l.492-.128c.253-.047.396-.136.508-.319.047-.078.317-.7.42-.948.297-.729.734-1.65 1.018-2.143l.158-.249c.093-.139.174-.258.167-.34-.01-.111-.017-.114-.117-.166-.119-.06-.298-.15-.553-.45-.409-.481-.395-1.402-.383-2.212v-.611c-.02-.802-.15-1.337-.256-1.645l-.048-.143.151-.013c.876-.079 2.7-.241 3.387-1.08.258-.318.33-.716.211-1.153"/></g><mask id="i" width="75" height="34" x="11" y="33" maskUnits="userSpaceOnUse" style="mask-type:luminance"><path fill="#fff" d="M11.143 33.015h73.966V66.91H11.143z"/></mask><g mask="url(#i)"><path fill="#fff" d="M30.409 39.122q.157.203.253.44a1.8 1.8 0 0 1-.507.002q.098-.238.254-.442"/></g><mask id="j" width="75" height="34" x="11" y="33" maskUnits="userSpaceOnUse" style="mask-type:luminance"><path fill="#fff" d="M11.143 33.015h73.966V66.91H11.143z"/></mask><g mask="url(#j)"><path fill="#EC8023" d="M29.356 39.067a1.8 1.8 0 0 1-.464-.532l.01-.001c.24 0 .47.05.682.139a3 3 0 0 0-.228.394m-1.505-.177a2.82 2.82 0 0 0 1.238 1.292l-.003.093c0 .594.184 1.145.497 1.6a1.743 1.743 0 0 1-2.423-1.6c0-.565.273-1.067.691-1.385m4.065-.356h.009a1.7 1.7 0 0 1-.465.531 3 3 0 0 0-.222-.392 1.7 1.7 0 0 1 .678-.14m-3.014-1.089q-.112.002-.22.011a1.742 1.742 0 0 1 3.452.005l-.219-.016c-.536 0-1.053.151-1.504.434a2.8 2.8 0 0 0-1.51-.434m2.827 2.738c.54-.287.974-.741 1.236-1.295.435.33.692.834.692 1.387a1.743 1.743 0 0 1-2.423 1.603c.326-.471.5-1.03.498-1.603zm-1.54.313.22.016q.11-.001.218-.011a1.7 1.7 0 0 1-.218.644c-.116-.2-.19-.42-.22-.65m3.045-2.723q.004-.045.005-.091c0-1.561-1.27-2.83-2.83-2.83s-2.83 1.269-2.83 2.83l.002.091a2.83 2.83 0 0 0-1.509 2.502c0 1.56 1.27 2.83 2.83 2.83.538 0 1.057-.152 1.508-.436.45.285.972.436 1.505.436 1.56 0 2.83-1.27 2.83-2.83 0-1.046-.59-2.015-1.51-2.502"/></g><mask id="k" width="75" height="34" x="11" y="33" maskUnits="userSpaceOnUse" style="mask-type:luminance"><path fill="#fff" d="M11.143 33.015h73.966V66.91H11.143z"/></mask><g mask="url(#k)"><path fill="#fff" d="M30.947 40.472q.236-.047.462-.133a2.5 2.5 0 0 1-.46 1.4 1.7 1.7 0 0 1-.344-.302c.194-.288.311-.62.341-.965m-.538-5.287a2.516 2.516 0 0 1 2.513 2.513 2.516 2.516 0 0 1-2.513 2.514l-.23-.017a1.7 1.7 0 0 1 .082-.448l.148.01a2.06 2.06 0 0 0 2.057-2.059 2.06 2.06 0 0 0-3.448-1.521c-.38.347-.614.825-.657 1.338a3 3 0 0 0-.463.134 2.515 2.515 0 0 1 2.51-2.464"/></g><mask id="l" width="75" height="34" x="11" y="33" maskUnits="userSpaceOnUse" style="mask-type:luminance"><path fill="#fff" d="M11.143 33.015h73.966V66.91H11.143z"/></mask><g mask="url(#l)"><path fill="#fff" d="m31.915 37.778.23.017a1.7 1.7 0 0 1-.085.448l-.145-.01c-.304 0-.604.072-.876.2a3 3 0 0 0-.347-.337c.373-.209.795-.319 1.223-.318m-3.013 5.027a2.517 2.517 0 0 1-2.514-2.513 2.517 2.517 0 0 1 2.514-2.514c.996 0 1.88.575 2.287 1.474q-.204.103-.431.151a2.05 2.05 0 0 0-1.856-1.17 2.06 2.06 0 0 0-2.059 2.059c0 1.134.924 2.057 2.059 2.057.306 0 .606-.071.88-.202q.16.184.346.337a2.5 2.5 0 0 1-1.226.321"/></g><mask id="m" width="75" height="34" x="11" y="33" maskUnits="userSpaceOnUse" style="mask-type:luminance"><path fill="#fff" d="M11.143 33.015h73.966V66.91H11.143z"/></mask><g mask="url(#m)"><path fill="#fff" d="M28.552 38.586c.155.32.39.596.68.8q-.076.228-.113.47a2.5 2.5 0 0 1-.997-1.119q.203-.103.43-.151m3.363 4.22a2.517 2.517 0 0 1-2.514-2.514c0-.529.161-1.026.464-1.452q.192.128.344.302c-.23.34-.353.74-.353 1.15a2.06 2.06 0 0 0 2.059 2.058 2.06 2.06 0 0 0 2.057-2.058c0-.682-.33-1.302-.885-1.687q.077-.23.114-.472a2.53 2.53 0 0 1 1.227 2.159 2.517 2.517 0 0 1-2.513 2.514"/></g><mask id="n" width="75" height="34" x="11" y="33" maskUnits="userSpaceOnUse" style="mask-type:luminance"><path fill="#fff" d="M11.143 33.015h73.966V66.91H11.143z"/></mask><g mask="url(#n)"><path fill="#EC8023" d="M22.024 47.778c.148-.103.503-.398.314-.756-.201-.378-.664-.224-.802-.168-.019-.02-1.043-.465-1.057-.457.01-.006-.4.474-.4.474s-.407-.48-.399-.474a19 19 0 0 0-1.057.457c-.138-.056-.6-.21-.801.168-.191.358.165.653.314.756l-.004.009-.33.584c.005-.01.965 1.163.965 1.163.002-.003-.002.754-.002.758 0 0 .382.256.41.264.062.288.08.436.148.592.021.05.387.157.743.163h.028c.355-.006.722-.113.742-.163.068-.156.087-.304.147-.592.03-.008.41-.264.41-.264v-.758s.96-1.173.964-1.163l-.33-.584z"/></g><mask id="o" width="75" height="34" x="11" y="33" maskUnits="userSpaceOnUse" style="mask-type:luminance"><path fill="#fff" d="M11.143 33.015h73.966V66.91H11.143z"/></mask><g mask="url(#o)"><path fill="#1D427C" d="m18.706 47.837.89-.01-.032.499zm2.002.5.137 1.196-.659.357-.004.426c.03.022.142.107.26.157.211.089.423.037.426.036l.052-.014-.045.16-.019.002a1.1 1.1 0 0 1-.443-.013.9.9 0 0 1-.28-.135h-.102a.9.9 0 0 1-.287.135 1.1 1.1 0 0 1-.442.013l-.02-.003-.044-.159.052.014c.003.001.215.053.427-.036.117-.05.23-.135.259-.157l-.002-.431-.656-.466 1.174-.002v-1.564l.928-.007h.117z"/></g></svg>