<svg xmlns="http://www.w3.org/2000/svg" width="124" height="100" fill="none"><g clip-path="url(#a)"><path fill="#8C1515" d="M60.622 48.985c-3.102 0-3.356-2.36-3.356-3.063 0-.82.195-2.361 2.205-3.103 2.03-.741 2.458-.82 3.902-1.288v-.35c0-.703 0-.82-.156-1.289-.253-.8-1.034-1.346-2.127-1.346a2.55 2.55 0 0 0-2.322 1.444l-.585-.351c.351-1.288 1.678-2.556 3.941-2.556 1.561 0 2.654.449 3.298 1.444.488.8.546 1.873.546 2.965 0 .996-.058 2.088-.058 2.966 0 .586-.059 1.151-.059 1.464 0 .8.156 1.444.8 1.444.293 0 .352-.098.586-.254l.35.449c-.585.8-1.287 1.444-2.419 1.444-.878 0-1.522-.45-1.795-1.171-.39.507-1.327 1.151-2.751 1.151m2.732-6.049c-1.522.45-2.088.703-2.517.937-.703.351-.995.995-.995 1.815 0 .643.253 1.678 1.736 1.678.488 0 1.17-.098 1.815-.547v-3.902zm-25.678 5.425c0-1.151 0-2.127-.098-3.298h.703c0 .742.195 1.288.546 1.62.488.546 1.62.878 2.654.878 2.165 0 3.2-.82 3.2-2.615 0-1.522-.937-2.166-2.205-3.063l-.195-.156-1.386-.937c-1.912-1.288-2.907-2.263-2.907-4.293 0-.995.39-4.253 5.17-4.253 1.23 0 2.81.156 3.747.292 0 .156-.059.878-.059 1.522 0 .742 0 .937.059 1.815h-.585c0-.8-.254-1.288-.586-1.62-.449-.448-1.463-.702-2.556-.702-2.556 0-2.849 1.288-2.849 2.263 0 1.347.703 1.815 2.205 2.81l1.737 1.151c1.463.995 2.849 1.913 2.849 4.39 0 4.137-3.903 4.586-5.522 4.586-1.503.234-2.752 0-3.922-.39M68.64 37.824c.586.059 1.464 0 2.322-.156.742-.156.996-.254 1.522-.488l.254.156v.878c.585-.448 1.737-1.092 3.356-1.092 2.088 0 3.415.995 3.786 2.712.097.449.156 1.463.156 2.088v3.356c0 1.873.097 2.42.448 2.77.196.157.586.352 1.152.352v.546a46 46 0 0 0-2.85-.097c-1.033 0-2.204.058-2.848.097V48.4a2.5 2.5 0 0 0 1.151-.39c.352-.352.39-.996.45-2.42 0-.449.058-1.346.058-1.97 0-.82 0-1.737-.098-2.615-.156-1.464-.936-2.166-2.42-2.166-1.034 0-1.677.253-2.165.488v6.01c0 1.872.097 2.419.448 2.77.196.156.644.351 1.093.351v.547a52 52 0 0 0-2.81-.098c-1.522 0-2.029.059-2.907.098v-.566c.488 0 .995-.195 1.23-.488.35-.39.39-1.385.39-3.298V41.22c0-1.444-.059-2.029-.254-2.322-.156-.253-.546-.448-1.346-.448v-.644h-.098v.02zm14.264 10.517c.488 0 .995-.156 1.23-.488.35-.39.39-1.385.39-3.297v-5.737H83.06v-.644c.644-.253 1.17-.546 1.463-.8 0-1.034.059-2.322.196-3.063.448-2.361 1.97-3.551 4.585-3.551 1.151 0 2.205.39 2.907.936l.059.254-1.151 1.561h-.293c-.39-.937-.995-1.464-2.03-1.464-.35 0-.819.098-1.15.39-.488.489-.586 1.23-.586 2.713v2.205h2.556V38.8h-2.536v6.36c0 1.523.058 2.264.253 2.557.293.488 1.347.546 1.815.546v.586a52 52 0 0 0-3.103-.098c-1.444 0-2.36.059-3.102.098zm13.21.722c-3.493 0-5.561-2.166-5.561-5.815 0-2.848 1.522-6.165 5.814-6.165 3.493 0 5.561 2.166 5.561 5.814 0 2.85-1.541 6.166-5.814 6.166m.156-10.654c-.703 0-1.23.196-1.62.547-.936.8-1.385 2.166-1.385 4.195 0 .8.156 4.644 2.966 4.644.702 0 1.23-.195 1.62-.547.936-.8 1.385-2.165 1.385-4.195-.02-.8-.156-4.643-2.966-4.643m6.829-.643c.8.058 1.62-.059 2.517-.195.703-.098 1.151-.254 1.386-.39l.195.097v.995a3.73 3.73 0 0 1 2.653-1.093c.878 0 1.464.254 2.03.703v.35l-.996 1.796h-.487c-.293-.546-.878-1.034-1.913-1.034-.487 0-.878.097-1.229.351v5.873c0 1.522.059 2.205.254 2.517.293.488 1.288.547 1.814.488v.644c-.8-.059-2.165-.098-3.102-.098-1.093 0-2.205 0-3.102.098v-.585c.643-.059.995-.195 1.229-.488.351-.39.39-1.346.39-3.298v-3.22c0-1.443 0-2.029-.254-2.321-.195-.254-.585-.39-1.346-.39v-.742zm16.137-6.303c.702 0 1.561-.156 2.712-.351.644-.098 1.034-.254 1.229-.293l.195.098c-.097.936-.097 3.063-.097 4.585v9.366c0 1.385 0 2.264.195 2.556.195.254.585.449 1.346.449v.585c-.741 0-1.561.098-2.458.254-.586.097-1.035.195-1.288.293l-.293-.098v-.995a5.24 5.24 0 0 1-3.2 1.093c-3.161 0-5.171-2.166-5.171-5.561 0-1.152.196-2.166.586-3.103.995-2.088 2.966-3.258 5.463-3.258.937 0 1.737.097 2.205.195v-2.459c0-1.444 0-2.166-.254-2.517-.156-.254-.39-.351-1.229-.39v-.468zm-.391 15.922c.8 0 1.347-.097 1.874-.449V39.25c-.196-.196-.878-.8-2.264-.8-2.205 0-3.297 1.522-3.297 4.702-.059 1.327.331 4.234 3.687 4.234m-62.731.351c-.352.45-1.23 1.347-3.103 1.347-1.795 0-2.77-.644-3.2-2.088-.195-.546-.195-1.678-.195-2.322 0-1.815 0-3.298.059-5.034v-.8h-1.542v-.449c.586-.254 1.034-.488 1.444-.8.878-.702 1.463-1.522 2.127-2.77h.488v2.555h3.902v1.444h-3.902v6.01c0 1.815.351 2.81 2.029 2.81.8 0 1.346-.254 1.62-.449zM101.5 58.136c-.195 0-.449.059-.585.195-.156.098-.156.254-.156.351 0 .195.058.352.195.742l1.092 2.849c.156.448.293.8.352 1.034l1.346-3.903c.156-.448.195-.546.195-.741 0-.098-.058-.195-.156-.293-.156-.097-.351-.195-.585-.195v-.449c.156 0 .487 0 .644.059.156 0 .448.058.702.058.488 0 1.171-.058 1.463-.058v.449c-.195.058-.644-.059-1.034 1.092l-2.81 7.493c-.39 1.093-.936 2.42-2.848 2.42-.8 0-1.347-.196-1.795-.586v-.195l.702-.82h.195c.195.45.585.644 1.151.644.878 0 1.288-.8 1.874-2.36l.156-.45-2.361-6.146c0-.058-.059-.156-.098-.253a9 9 0 0 0-.195-.45c-.156-.292-.39-.39-.703-.39v-.448c.45.058 1.23.058 1.62.058.254 0 .644 0 1.034-.058.195 0 .547-.059.703-.059v.39h-.078v.02zm-26.107-.098c.487.06 1.034-.058 1.56-.156.45-.097.703-.156.879-.253l.156.058v.644a2.29 2.29 0 0 1 1.678-.702c.585 0 .937.156 1.288.449v.253l-.586 1.151h-.292c-.195-.35-.547-.643-1.23-.643-.292 0-.546.097-.8.253V62.8c0 .995.059 1.443.156 1.619.196.293.8.351 1.152.351v.39c-.488-.058-1.386-.058-1.971-.058-.703 0-1.444 0-1.97.097v-.39c.39 0 .643-.156.8-.292.253-.254.253-.82.253-2.127v-2.088c0-.878 0-1.288-.156-1.463-.098-.157-.39-.254-.82-.254v-.547h-.098m-32.84 7.142c-2.087 0-3.297-.644-3.746-2.03-.253-.702-.253-1.56-.253-2.263v-3.941c0-1.17-.059-1.386-.293-1.561-.098-.098-.351-.195-.702-.254v-.39c.487.059 1.346.098 1.814.098.82 0 1.347 0 1.873-.098v.449c-.35 0-.585.097-.8.292-.253.254-.253.703-.253 1.971v3.493c0 2.088.195 3.415 2.517 3.415 2.36 0 2.517-1.386 2.517-3.493v-3.844c0-1.17-.059-1.386-.293-1.561a2 2 0 0 0-.702-.254v-.39c.449 0 1.034.058 1.62.058.546 0 1.092 0 1.736-.097v.449c-.351 0-.586.097-.8.293-.254.253-.254.702-.254 1.97v2.966c0 .937 0 1.97-.292 2.81-.43 1.288-1.62 1.912-3.688 1.912m14.069-.449c.39-.058.644-.097.82-.292.253-.254.253-.82.253-2.127v-2.088c0-.878 0-1.346-.156-1.522-.098-.156-.293-.254-.82-.293v-.448c.293.058 1.093-.06 1.679-.157.292-.058.585-.156.8-.253l.156.156c-.059.488-.059 1.522-.059 2.907v2.127c0 .995.059 1.444.156 1.62.156.195.45.35.878.35v.352c-.39-.059-1.15-.059-1.795-.059-.741 0-1.522.059-1.912.098zm1.815-8.43c-.586 0-.937-.35-.937-.877s.39-.937.995-.937c.586 0 .937.352.937.878-.02.586-.41.937-.995.937m29.346 8.43c.39-.058.644-.097.82-.292.253-.254.253-.82.253-2.127v-2.088c0-.878 0-1.346-.156-1.522-.097-.156-.293-.254-.82-.293v-.448c.293.058 1.093-.06 1.679-.157.292-.058.644-.156.8-.253l.156.156c-.059.488-.059 1.522-.059 2.907v2.127c0 .995.059 1.444.156 1.62.156.195.449.35.878.35v.352c-.448-.059-1.17-.059-1.814-.059-.742 0-1.522.059-1.913.098v-.39h.02zm1.815-8.43c-.586 0-.937-.35-.937-.877s.39-.937.995-.937c.585 0 .937.352.937.878 0 .586-.41.937-.995.937m-7.786 8.528c0-.742-.058-1.522-.097-1.912h.487c0 .39.098.741.293.936.293.351.644.488 1.288.488h.097c.8 0 1.23-.351 1.23-1.034 0-.547-.351-.8-.937-1.151l-1.034-.644c-.546-.352-1.17-.82-1.17-1.873 0-.82.35-1.464 1.034-1.815.448-.254 1.15-.254 1.463-.254a11.3 11.3 0 0 1 1.912.195c-.058.196-.058.703-.058.878 0 .157 0 .82.058.995h-.488c0-.292-.097-.585-.292-.819-.195-.254-.644-.39-1.171-.39-.742 0-1.151.292-1.151.936 0 .488.39.742.741.995h.059l.995.586c.644.39 1.463.878 1.463 2.03 0 1.911-1.795 2.204-2.81 2.204-.585-.059-1.21-.098-1.912-.351m15.473-.468c-.253.253-.8.819-1.97.819-1.151 0-1.795-.39-2.03-1.346-.097-.352-.097-1.093-.097-1.464v-3.688h-.995v-.292c.39-.156.644-.293.936-.488.547-.449.937-.995 1.386-1.795h.35v1.62h2.46v.877h-2.46v3.883c0 1.151.196 1.815 1.289 1.815.487 0 .82-.156 1.034-.293zM63.94 57.746c-.156 0-.488 0-.702.058-.39 0-.8.059-1.093.059-.546 0-1.346-.059-1.561-.059v.45c.098 0 .488-.06.741.448.098.195.157.351.196.449a.6.6 0 0 1 .097.253l2.361 5.913.742-.156 2.614-5.815c0-.059.059-.098.098-.195.058-.059.058-.156.253-.45a.89.89 0 0 1 .742-.448v-.449c-.293 0-.937.059-1.444.059-.254 0-.488 0-.742-.059-.195 0-.487-.058-.702-.058v.39c.254 0 .488.098.585.195.059.059.157.195.157.293 0 .156-.059.293-.196.741l-1.444 3.493a22 22 0 0 0-.292-.878l-.995-2.615c-.156-.39-.195-.546-.195-.741 0-.098 0-.195.097-.254a.92.92 0 0 1 .644-.253v-.39.019zm-16.097.292c.39.06.936 0 1.463-.097.449-.098.644-.156.995-.293l.156.098v.585c.351-.293 1.151-.702 2.127-.702 1.346 0 2.166.644 2.42 1.736.058.293.097.937.097 1.347v2.127c0 1.17.059 1.522.293 1.795.097.097.39.195.702.195v.351c-.488 0-1.346-.059-1.814-.059-.703 0-1.444.059-1.815.098v-.39c.351-.059.585-.156.741-.254.196-.195.254-.644.293-1.522v-1.288c0-.546 0-1.15-.059-1.678-.097-.936-.585-1.385-1.521-1.385a3.2 3.2 0 0 0-1.386.293v3.863c0 1.17.059 1.522.293 1.795.097.098.39.195.702.195v.352c-.644-.157-1.385-.157-1.873-.157-.995 0-1.288 0-1.814.098v-.351c.292 0 .643-.098.8-.293.195-.254.253-.878.253-2.127v-2.088c0-.878 0-1.287-.156-1.463-.097-.156-.351-.293-.82-.254v-.546zm23.96 7.142c-2.204 0-3.414-1.288-3.414-3.61 0-.39.097-4 3.453-4 .996 0 1.874.39 2.264 1.093.449.702.488 1.385.488 1.97v.45h-4.586c0 .39.059.702.098.936.254 1.444 1.034 2.127 2.42 2.127.8 0 1.287-.156 1.736-.449l.195.351c-.488.664-1.463 1.132-2.654 1.132m-1.775-4.917h2.849c0-.878-.156-1.873-1.444-1.873-1.112.058-1.347 1.112-1.405 1.873M7.198 26 .447 32.595v17.737l5.853 5.99h2.693c-.058.176-.156.449.04.722.194.293.545.293.682.293.156 0 .37-.02.722-.059 0 0 .137.117-.293.273-.35.117-.663.332-.76.683 0 .02 0 .059-.02.078H.447v9.073l6.751 6.634h17.737l6.75-6.614V50.39l-5.853-5.97h-4.975c-.215-.137-.45-.274-.644-.41l-.078-.04h-.02a2 2 0 0 1-.351-.272 4 4 0 0 1-.273-.254l-.02-.02a2.7 2.7 0 0 1-.331-.39c.78.215 1.619.273 2.029.293h.156a.5.5 0 0 1 .215.039 1 1 0 0 1 .136.058l.215.078a.4.4 0 0 0 .156.02.79.79 0 0 0 .722-.468.87.87 0 0 0 .058-.547h8.859v-9.892L24.916 26z"/><path fill="#fff" d="m30.866 32.966-6.264-6.147H7.51l-6.264 6.127V50l5.385 5.502h3.474c-.39.351-.508.722-.566.898-.137.39-.273.507.936.331.39-.058 1.093-.312 1.425-.526s.956-.04.917.429c-.293.741-1.073 1.19-1.815 1.288-1.697.214-.956.839-.956.839.195.136.312.253.41.37h-9.21v7.903L7.51 73.18h17.092l6.264-6.146V50.741l-5.386-5.483H21.13c-.351-.234-.82-.487-1.249-.76a2.7 2.7 0 0 1-.468-.352c-.137-.097-.234-.215-.332-.312-.37-.39-.663-.8-.741-.995-.137-.351-.117-.78.214-.605.8.468 2.127.546 2.615.566.059 0 .449.039.546.078s.254.117.254.117c.195.078.566-.195.137-.703a5 5 0 0 0-.469-.585h9.25z"/><path fill="#8C1515" d="m7.842 27.64-5.776 5.658v16.35l4.917 5.035h4.625c.78-.351.956-.312 1.17-.76.04-.079.06-.274.079-.47.02-.058.117-.643-.176-.507-.488.254-1.483-.41-2.244-.019-.741.39-.195-.507-.097-.663 0 0 .39-.527.995-.879.02-.019.039-.019.058-.038.059-.04.117-.06.176-.098.449-.215 1.756-1.093 1.99-1.346.137-.157.39-.527.39-.722.04-.176.078-.45-.097-.547-.254-.156-.449.156-.84.332s-.682.254-1.033.254c-.332.02-.664-.117-.859-.078s-.312-.117.059-.488c.175-.176.234-.234.312-.293.878-.566 1.658-.566 2.088-1.56 0 0 .331-.898-.313-.508-.35.215-.565.507-1.58.507-1.034 0-1.424.488-1.6.703 0 0-.703.975-.527-.39.176-1.367.449-2.069 1.093-2.596.566-.449 1.932-1.073 2.439-1.756.254-.254.897-.995.527-1.6-.157-.254-.547.41-.937.507-.449.117-1.034.274-1.463.176-.547-.117-.898.098-1.093.195-.195.098-.585-.195-.117-.741.624-.722 2.146-1.659 3.16-2.205.137-.059.489-.215.8-.41h.02c.078-.039.196-.097.254-.195.215-.195.37-.39.332-.605-.04-.195-.137-.254-.45-.293-.233-.02-.643.254-.975.234-.507-.038-1.268.079-1.014-.292.234-.332.605-.546.722-.605.214-.098.488-.215.897-.41.644-.293.566-1.034.312-1.053-.39-.04-1.444.292-.702-.547 0 0 .351-.351.702-.585.274-.156.508-.234.8-.332.176-.058.625-.468-.448-.507 0 0-.605.02-.488-.254.097-.175.624-.527.624-.527s.43-.292.605-.468c.176-.156.293-.293.273-.43 0-.155-.429-.37-.605-.604-.136-.156-.02-.215.059-.234.039 0 .078-.02.137-.02.429 0 .565-.429.819-1.58.078-.332.078-.41.195-.41h.02s.117.585.273 1.23c.136.35.273.507.546.507.059 0 .098 0 .137.02.078.019.175.077.058.233-.097.137-.39.332-.41.449-.078.351.254.488.605.507.488.04.293.332-.234.722-.507.371.8 1.19.8 1.19.742.566.215.723.059.8-.156.079-.566.332-.156.488.429.156.995.742.995.742.741.858-.312.507-.703.546-.253.02-.35.761.313 1.054.995.449 1.21.527 1.56.78.664.488.313.898-.507.761 0 0-.527-.136-.897-.058-.234.039-.39.097-.488.156-.059.078-.195.43.956.78.546.176 1.21.586 1.815 1.054h9.326v-7.57l-5.834-5.718zM21.93 46.058c.273.449.43 1.034.546 1.873 0 .507-.683.273-.897.136a2.4 2.4 0 0 0-.625-.273c-.488-.117-1.678-.644-1.99-.741a.494.494 0 0 0-.605.214c-.078.157.098.469.098.469.468 1.053 1.307.995 2.244 1.658 1.287.917.604 1.112.331.976-.253-.137-.702-.059-.702-.059-1.034.293-1.346-.156-1.951-.312s-.117.586.117.84c.234.272 1.541 1.15 1.99 1.345.995.469 1.502 1.21 1.815 2.166.292.898-.02.703-.254.586s-.312-.351-.898-.332c-.585.02-.917-.039-1.346-.351-.117-.078-.195-.176-.273-.273h-.02c-.41-.313-.331.722-.234.878.293.585.488.35 2.166 1.249.8.429.976.995 1.073 1.229.137.39.273.507-.936.331-.39-.058-1.093-.292-1.425-.526-.312-.215-.956-.04-.897.429.292.741 1.073 1.19 1.814 1.288.644.078.937.214 1.054.37.351.41-.293.995-.293.995-.331.371.02.82.273.957.39.195 1.152.663 1.405 1.307 1.327 3.395.04 2.42-.585 2.03-.624-.391-1.815-1.386-2.907-1.308s-1.444.136-2.108-.37c-.644-.508-.585.311-.585.311v4.098c.039.917.215 1.795.937 2.537.604.604 1.053.507 1.892 1.522.39.468 1.659.975 2.498.995h1.62l5.775-5.678v-15.61L25.13 46zM2.066 59.95v6.732l5.776 5.678h1.854c1.756-.078 2.4-1.444 2.927-2.283.39-.624 1.112-1.17 1.56-1.62.469-.487.566-1.58.566-2.77V63.21v.02-2.147c0-.254-.292-.273-.917.41-.624.683-1.697.624-2.302.683-.605.058-2.38.975-2.868 1.639-.313.41-.761.078-.566-.742.078-.37.234-.858.487-1.502.352-.898 1.659-1.424 1.659-1.424s.137-.06.254-.176z"/></g><defs><clipPath id="a"><path fill="#fff" d="M0 0h124v100H0z"/></clipPath></defs></svg>