<svg xmlns="http://www.w3.org/2000/svg" width="153" height="100" fill="none"><path fill="#0072BC" d="M69.55 20.45v29.2c0 16.1-19.3 19.3-19.3 19.3S31 65.75 31 49.65v-29.2c6.4-.7 12.85-1.05 19.3-1 6.4-.05 12.85.3 19.25 1"/><path fill="#fff" d="M36.2 24.25c.15.35.45.6.85.6.4.05.8-.15 1.05-.5-.4.1-.8-.1-1.05-.4-.2-.3-.5-.55-.9-.55-.25 0-.5.05-.75.2.35.1.65.35.8.65m1.2.3c-.75.25-.95-.7-1.25-.85.4-.1.7.8 1.25.85M44.8 23.3c.5.35 1.6.4 2.05-.05.55.35 1.2.35 1.75 0 .6.4 1.45.25 1.9-.3-.35-.05-.7-.15-1-.4-.35-.35-.9-.35-1.3-.1-.55-.35-1.2-.35-1.75-.05-.55-.35-1.25-.35-1.85-.05-.7-.3-1.45-.2-2.05.25-.4.35-.65.9-.7 1.45-.05 1 .75 1.85 1.75 1.9h.05c.85-.05 1.65-.1 2.5-.25.8-.1 1.65-.05 2.4.15.9.4.9 1.3.25 1.5-.6.2-2.15-.4-2.9.1-.75-.9-2.9 0-3.9-.15-.1.3-.4.55-.7.5.4.5.2 1.6-.7 1.65-.25.6-.8.8-1.15.55-.1.55-.95.9-1.3.55q-.375.375-.3.9c-.3.1-.4.4-.7.5.1-.2 0-.45-.15-.65-.15-.1-.35-.1-.5 0H36l.3.2c-.05.05-.05.1-.05.15.15-.05.35-.05.45.05l-.05.05c-.45-.1-.7.1-.75.4l-.4.45.4-.1c.05.05.15.15.2.15.1.05.25.05.35-.05.05-.1-.05-.1-.05-.1.1-.05.15-.05.2 0 .05.1 0 .2-.05.25h-.05q-.225.15-.45 0c-.15.25-.05.55.2.7.05.05.1.05.15.05l.15.45.1-.45c.2-.05.35-.2.4-.4.05.05.15.05.25.1l.2.4.1-.4.05-.05c.2-.1.25-.35.1-.55.3-.05.5-.1.6-.4.35.15.8.15 1.1-.1l-.25-.2c.3-.05.6-.1.85-.25l-.25-.15c.3-.1.6-.2.9-.35l-.25-.15c.35-.2.65-.5.8-.9 1.05-.05 1.9-1.4 3.1-1.5-.1-.1-.25-.2-.4-.25l.1-.2c.75.1.95.45 1.15 1s.65.95 1.2 1.1c.35.05.7.1 1.05.05.45-.05.9.3.95.75v.15c0 .2-.05.4-.2.55-.2.05-.6-.4-.95-.2-.05.05-.1.05-.15.1l-.4.1.35.1c0 .1 0 .2.05.3.2-.1.4-.1.6-.05l-.05.15c-.2 0-.85 0-.8.6q0 .15.15.3l-.1.45.4-.3q.3.075.6-.15c.15.25.4.35.7.35l.35.4-.05-.5c.2-.1.3-.3.1-.8q.15.075.3 0l.25.25-.1-.4q.15-.3 0-.6c.15-.15.3-.3.4-.5-.1 0-.2-.05-.3-.05.15-.15.25-.3.4-.45-.2-.15-.45-.25-.45-.45.2 0 .35-.15.4-.35 0-.2-.2-.35-.35-.35 0-.2-.1-.35-.3-.35s-.35.1-.35.3v.1h-.4c.25-.4-.2-1.75-1.75-1.25l-.15-.2c.7-.45 1.6-.1 2.25-.1.65.05 1.2-.45 1.25-1.1V27c0-.55-.3-1.1-.8-1.4.35-.6-.2-.95-.55-1.1 0 .35-.2.65-.55.8-.1-.4-.35-.7-.7-.85-.05.35-.25.65-.55.85-.1-.35-.35-.65-.65-.75-.05.35-.2.65-.5.85-.1-.4-.35-.7-.7-.8-.15.5-.6.85-1.15.9-.7 0-1.3-.6-1.3-1.3 0-.3.1-.55.3-.8l-.15-.15.3-.1c.3.4 1.1.55 1.7.15"/><path fill="#fff" d="M45.25 30c-.35-.3-.55-.7-.7-1.1-.2 0-.35.05-.55.1-.15.2-.3.45-.4.7 0 0-.45.05-.6.75l.2-.05c-.1.4-.05.85.2 1.25-.25.05-.45.2-.65.35-.1-.05-.1-.3-.3-.45-.1-.15-.3-.15-.45 0l-.5-.05.3.15c0 .05-.05.05-.05.1.15.05.25.1.35.2l-.05.15c-.5-.25-.9-.15-.95.2v.1l-.35.35.4-.1q.075.15.3.15c-.2.15-.25.45-.1.65.05.1.15.15.3.2l.2.45v-.45c.3-.05.4-.3.45-.45.05.05.15.1.25.1l.15.4.1-.4c.05 0 .05-.05.1-.05.15-.1.2-.3.15-.45.2.05.45-.05.6-.2.3.05.55.05.85-.05l-.2-.25c.2 0 .4-.05.6-.2-.05-.15-.1-.3-.1-.5h.05c.2 0 .35-.1.35-.3v-.05c0-.15-.15-.3-.3-.3h-.15c0-.45.2-.75.5-.95M36.65 28.5c-.15-.45-.15-.95 0-1.4h-.5c0-.5-.85-.6-.9-.8.2-.3.4-.15.6-.4.15-.15.15-.35.05-.5l.15-.35-.7.5-.1-.05c.05-.15.45-.4.3-.65a.4.4 0 0 0-.2-.2l-.2-.45-.1.45c-.1.05-.2.1-.25.2.15.1.2.4.15.55-.05.1-.15.2-.2.3.05 0 .05 0 .1.05q0 .15-.15.15c-.1 0-.1-.2-.05-.35.1-.15.1-.4 0-.55s-.3-.15-.45-.05l-.35-.2.15.5c-.05.2-.05.45.05.65-.05 0-.1.05-.15.1l-.5-.2.35.45v.15c.1.2.25.3.45.35-.1.25.05.6.3.6 0 .35.15.65.4.9l.1-.4c.05.05.35.55.45.6.05.05.1-.35.1-.35.3.4.7.55 1.1.4M37.6 23.2c-.05-.1 0-.15.05-.25.05-.05.15-.05.25 0 .05.05.05.2 0 .25-.15.15-.35.2-.6.2 0 .35.3.6.65.6.3-.05.6-.15.85-.3.1-.05.2-.15.35-.2.15-.1.4 0 .35.2l-.1.45c-.1.35-.2.3-.45.4-.45.1-1.45.15-1.25.95.2-.05.4-.15.55-.25l.4.15c.3-.55 1-.2 1.25-.9l.2.05c-.05 1.2-2.25 1.1-2.95 2.25-.45.85-.3 1.95.35 2.65h-.1c-.2.05-.35.2-.35.4s.2.4.4.4c.15 0 .25-.05.35-.2 0-.25.2-.45.45-.45-.15-.45-1.05-1.05-.65-2.15l.15.05c-.2 1 .9 1.7.8 2.35 0 .1-.1.15-.15.15s-.1-.05 0-.1l-.05-.1c-.1 0-.15.05-.2.15s-.05.15-.05.25c.05.1.1.15.15.2q.225.075.45 0c.3-.1.5-.4.5-.75a.55.55 0 0 1 0-.4c-.75-.6-1.05-1.65-.65-2.55l.15.05c-.2.95.2 1.95 1 2.5.05.05.05.15 0 .2s-.1.05-.1-.05l-.15-.1c-.05.15.05.35.2.4h.1c.3-.05.55-.3.6-.6.15-.75-1.35-1.4-.8-2.8l.2.05c-.35 1.5.95 1.5.95 2.65.35-.05.6-.35.55-.65 0-.05 0-.1-.05-.15-.15-.6-1-.8-.7-1.7l.2.05c-.15.3-.1.65.2.9.2.15.45.2.7.05s.3-.45.15-.7c-.55 0-.65-.5-.65-1 .05-.3-.05-.6-.2-.9.3-.1.45-.4.35-.65 0-.05-.05-.1-.1-.15.3-.2.1-.6-.05-.7.25-.15.35-.45.35-.7-.15 0-.3 0-.45-.05.1-.1.1-.25.1-.4-.1-.2-.3-.35-.55-.25-.15.05-.25.15-.25.3 0 0-.35-.05-.6-.1-.4-.1-.95-.25-1.15-.05l-.35.4c-.35 0-.65.05-.95.2-.15.2-.15.55.35.45m1-.55.05.1.05-.05q.225-.15.45-.15c.2 0 .35.05.5.15l-.15.2-.1-.05c0 .05-.05.1-.05.15-.05.05-.1.1-.2.1-.05 0-.15 0-.2-.05s-.05-.1-.1-.15l-.05.05-.1.05h-.05c-.05 0-.1-.05-.15-.1 0-.1.05-.25.1-.25M59.4 34.6c0 .3.2.55.5.55h.05c.3 0 .9-.15 1.3-1.1.25-.45.2-.95-.05-1.4-.2-.3-.7-.45-.95-.2.45.1.5.8.3 1.3s-.6 1-1.15.85"/><path fill="#fff" d="M60.1 32.6c-2.05-1.2-4.3-4.2-3.65-8.4-.25.05-.5.1-.75.05-.65 3.6-.2 7.5 3.65 10.05.75.25 1.4-1.15.75-1.7M64.55 22.2h-.2c-.65.05-1.3.2-1.9.4-.85.3-1.75.5-2.65.55-.8 0-1.55-.25-2.2-.7l-.15-.15c-.4-.35-.95-.6-1.5-.6-.65 0-1.15.5-1.2 1.15 0 .55.45 1 1 1h.1c.4.05.7-.2.8-.6.05-.25-.15-.5-.4-.55l.1-.35c.5.05.8.5.75 1 0 .15-.05.25-.15.35.7.55 1.6.8 2.5.85 1-.05 1.95-.3 2.85-.7.55-.25 1.2-.45 1.85-.5h.25l-.15.35 1.3.45.15-.4c.2-.6-.1-1.25-.7-1.5-.15 0-.25-.05-.45-.05M61.45 36.6l.05-.3-2.4-.85-.15.25h-.1c-.15 0-.25.1-.3.2-.05.15 0 .3.15.4l-.1.35 2.4.85.15-.3h.05c.15 0 .25-.1.3-.2.15-.15.1-.35-.05-.4"/><path fill="#fff" d="m64 24-.15.35-.1-.05-.15.45 1.8.65.1-.45-.1-.05.1-.35zM61.6 32.4l-.2-.35 2.65-6.8-.45-.15-.15.35-.75-1.25-.25.1h-.05l.9 1.55-.3.75-1.2-2.05-.3.1 1.35 2.3-.3.75-1.65-2.85-.35.1 1.85 3.1s-.3.7-.3.75l-2.2-3.75h-.4l2.4 4.1c-.05.15-.3.75-.3.75L58.7 25c-.15 0-.3-.05-.45-.1l3.15 5.35s-.25.6-.3.75l-3.75-6.45c-.2-.1-.4-.2-.6-.35l4.2 7.15-.35.8c.75-.1 1.4.9.9 2-.4.9-.9 1.2-1.35 1.25l1.2.45 3.6-10.25-.6-.25zM51.35 58.45v-.6h.45c-.05-.1-.1-.2-.2-.35h-.25v-.25c-.1-.1-.2-.15-.35-.2v.45h-.6v-.45h-.35v.45h-.55v-.45c-.1.05-.2.15-.35.2v.25h-.2c-.1.1-.15.2-.2.35h.4v.6h-.6v.30000000000000004h.6v.6h.35v-.6h.6v.6h.35v-.6h.6v.6h.3v-.6H52v-.30000000000000004zm-1.25 0h-.6v-.6h.6zm.95 0h-.6v-.6h.6zM39.25 49.75h.1l.35-.05.4.95h.3v-1.1h1.7v1.05h.3l.35-.95.35.05h.1a1.983 1.983 0 0 0-2.25-1.7c-.9.15-1.55.8-1.7 1.7M57 53.95c.05-.2.15-.4.3-.5l.05-1.15h-.9v1.4H54.7v-1.4h-1.75v1.4H51.2v-1.4h-1.75v1.4H47.7v-1.4h-1.75v1.4H44.2v-1.4h-.9l.05 1.15c.15.1.3.3.3.5s-.05.4-.25.55v.2h13.9v-.2c-.25-.1-.35-.3-.3-.55M49.4 55.55l-.05-.45h-6l.3 6.3h3.5v-2.9c0-1.35.9-2.55 2.25-2.95m-3.55 1.55v1.25h-1V56.3c0-.2.3-.45.4-.55l.1-.1.1.1c.1.1.4.35.4.55z"/><path fill="#fff" d="M47.55 58.55v.4h.7v-.4c0-.1 0-.25.05-.35l-.65-.2c-.1.2-.1.35-.1.55M48.25 60.6h-.7v.85h.7zM48.25 59.35h-.7v.85h.7zM52.35 58.2v.75h.7v-.4c0-.15 0-.35-.05-.5zM48.2 56.75c-.25.25-.4.55-.55.9l.7.2c.1-.2.2-.4.35-.6zM53.05 60.6h-.7v.85h.7zM52.4 56.75l-.5.5c.15.15.25.35.35.6l.7-.2c-.15-.35-.3-.65-.55-.9M53.05 59.35h-.7v.85h.7zM50.85 55.15h-1.1l.1 1.6h.9zM49.45 56.65l-.05-.75c-.35.1-.65.3-.9.55l.5.5zM52.1 56.45c-.25-.25-.6-.4-.9-.55l-.05.75c.2.05.35.15.5.3zM39.55 53.7c-.4.1-.4.55-.05.5a13 13 0 0 1 3.4 0c.4.05.4-.45-.05-.5l-.05-1.6.9-1.9c-.2-.05-.35-.1-.55-.1H43l-.35.95h-.1c-.25 0-.5-.05-.75-.05h-.15v-1h-.9v1h-.15c-.25 0-.5.05-.75.05h-.1l-.35-.95c-.2.05-.5.1-.65.15l.85 1.85zm.3-1.3v-.3h.1c.45-.05.9-.1 1.35-.1.3 0 .6 0 .85.05v.35c-.3-.05-.55-.05-.85-.05h-.55v1.15l-.35.05.05-1.15c-.15 0-.3.05-.4.05h-.1zM42.15 54.5l.05 1.15c.2 0 .4 0 .55.05v.35c-.35-.05-.85-.05-1.5-.05h-.65l-.05 1.85h.7c.7 0 1.25 0 1.6-.05v.35c-.15 0-.35.05-.6.05l.05 1.85c.2 0 .4-.05.6-.1v.35c-.55.15-1.15.2-1.7.15-.3 0-.55 0-.8-.05l-.05 1.8c-.1 0-.25 0-.3-.05l.05-1.8c-.25-.05-.45-.05-.7-.1l.05-.35c.6.15 1.2.2 1.8.2H42l-.05-1.85h-.7c-.75 0-1.3 0-1.7-.05v-.35c.2 0 .4.05.65.05l.05-1.8c-.25 0-.45 0-.6.05v-.35c.35-.05.85-.05 1.55-.05h.65l.05-1.1c-.8-.05-1.55 0-2.35.1L39.1 62c.05.1.75.4 2.15.4s2.05-.3 2.05-.4l-.35-7.4c-.3-.05-.55-.05-.8-.1M57.85 49.65l.35.95h.3v-1.05h1.7v1.05h.3l.4-.95.35.1h.1a1.983 1.983 0 0 0-2.25-1.7c-.9.15-1.55.8-1.7 1.7h.1z"/><path fill="#fff" d="M60.8 51.05h-.1l-.75-.05h-.15v-1h-.9v1h-.15c-.25 0-.5.05-.75.05h-.1l-.35-.95h-.15c-.2 0-.35.05-.55.1l.9 1.9-.05 1.6c-.45.05-.45.55-.05.5a13 13 0 0 1 3.4 0c.35.05.35-.45-.05-.5l-.05-1.55.85-1.85c-.2-.05-.45-.1-.65-.15zm-.1 1.35h-.1c-.1 0-.25-.05-.45-.05v1.15l-.35-.05V52.3h-.5c-.3 0-.55 0-.85.05V52c.25 0 .55-.05.85-.05.45 0 .9.05 1.3.1h.15000000000000002v.35zM58.75 54.5l-.05 1.15h.65c.7 0 1.2 0 1.55.05v.35c-.15 0-.4 0-.6-.05l.05 1.85c.25 0 .5 0 .65-.05v.35c-.4.05-.95.05-1.7.05h-.7l-.05 1.85h.75c.6 0 1.2-.05 1.8-.2v.35c-.2.05-.45.1-.7.1l.05 1.8-.35.05-.05-1.8c-.25 0-.55.05-.85.05-.55 0-1.15-.05-1.7-.15v-.35c.2.05.4.1.6.1l.05-1.85c-.25 0-.4 0-.6-.05v-.35c.35.05.9.05 1.6.05h.8l-.05-1.85h-.65c-.65 0-1.15 0-1.5.05v-.35c.15 0 .35 0 .55-.05l.05-1.15c-.25 0-.5.05-.75.1l-.35 7.4c.05.1.6.4 2.1.4s2.1-.3 2.15-.4l-.4-7.35c-.75-.1-1.55-.15-2.35-.1M51.2 55.6c1.3.4 2.2 1.6 2.2 2.95v2.9h3.5l.3-6.3h-6zm3.5 1.55v-.8c0-.2.3-.45.4-.55l.1-.05.1.05c.1.1.4.35.4.55v2.05h-1zM41.05 47.65h.35V41.1c.25-.1.4-.4.3-.65s-.4-.4-.65-.3c-.2.05-.3.25-.35.45 0 .25.15.45.35.5v.1H37.5v3.85h3.55zM41 40.6c0-.1.1-.2.2-.2s.2.1.2.2-.1.2-.2.2-.2-.1-.2-.2m-1.15 2.9v1.2h-.75v-1.2h-1.2v-.75h1.2V41.5h.75v1.25h1.2v.75zM59.55 41.2v-.1c.25-.1.4-.4.3-.65s-.4-.4-.65-.3c-.2.05-.3.25-.35.45 0 .25.15.45.35.5v6.55h.3v-2.6h3.55V41.2zm-.15-.4c-.1 0-.2-.1-.2-.2s.1-.2.2-.2.2.1.2.2-.1.2-.2.2m3.35 1.3-1.05 1.05 1.05 1.05v.55h-.55l-1.05-1.05-1.05 1.05h-.55v-.55l1.05-1.05-1.05-1.05v-.55h.5l1.1 1.1 1.1-1.1h.55zM46.55 47.5V36.75h7.3c.55 0 1.1.1 1.3.65.1.25.05.55-.1.8q-.225.3-.6.3H48.1v.7c.1 0 .15-.05.25-.05h.15v-.3h6.05c.35 0 .65-.15.85-.45v-.05l.05-.05v-.05c.15-.3.2-.65.1-1-.2-.65-.85-1.05-1.5-1h-8v11.5h1c-.15-.05-.3-.15-.5-.25"/><path fill="#fff" d="M48.1 43.3v.9c.1 0 .15-.05.25-.05h.15v-.85h-.4M44.95 44.9v-.1c0-.4-.1-.75-.3-.8h-.1c-.05 0-.2 0-.25.3v.25l-.2-.15c-.05 0-.05-.05-.1-.05-.1 0-.2.1-.25.3-.1.35.1.75.45.85l.1.05v.1c0 .3.1.5.3.55s.25-.15.25-.25v-.2l.2.05c.15.05.3.1.45.1.1 0 .15 0 .25-.05V45c-.25.05-.5 0-.75-.1zM44.95 38.3v-.1c0-.4-.1-.75-.3-.8h-.1c-.05 0-.2 0-.25.3v.25l-.2-.15c-.05 0-.05-.05-.1-.05-.1 0-.2.1-.25.3-.05.35.1.7.45.85l.1.05v.1c0 .3.1.5.3.55s.25-.15.25-.25v-.2l.2.05c.15.05.3.1.45.1.1 0 .15 0 .25-.05v-.85c-.25.05-.5 0-.75-.1zM54.6 48.6h-6.1v-.3h-.15c-.1 0-.15 0-.25-.05V49h6.5c.4.05.75-.1 1-.4.05-.1.05-.25 0-.4-.25.3-.6.45-1 .4M48.1 46.05v.35c.1 0 .15-.05.25-.05h.15v-.3h-.15c-.05.05-.15 0-.25 0M46.95 37.3v9.95l.45.3v-.2c0-.25.1-.55.3-.7v-.8c-.2-.2-.3-.45-.3-.7s.1-.55.3-.7V43.1c-.2-.2-.3-.45-.3-.7s.1-.55.3-.7v-.75c-.2-.2-.3-.45-.3-.7s.1-.55.3-.7V38.2h.15q-.3-.675-.9-.9M54.4 38.05q.15 0 .3-.15c.1-.1.1-.3.05-.4-.05-.2-.25-.35-.9-.35H47.6c.3.25.6.55.75.9z"/><path fill="#fff" d="M54.9 48.35c.2-.05.5-.15.55-.45v-9.05c-.15.15-.35.25-.55.3zM48.35 41.1c-.1 0-.15 0-.25-.05v.35c.1 0 .15-.05.25-.05h.15v-.3c-.05.05-.1.05-.15.05M49.2 41.85c.15-.15.2-.4.2-.6s-.1-.45-.2-.6c-.1.15-.25.3-.4.4v.45c.15.05.3.2.4.35M49.2 46.85c.3-.35.3-.85 0-1.25-.1.15-.25.3-.4.4v.45c.15.1.3.25.4.4M48.85 42.35c0-.3-.2-.5-.5-.5s-.5.2-.5.5.2.5.5.5.5-.25.5-.5M48.85 45.1c0-.3-.2-.5-.5-.5s-.5.2-.5.5.2.5.5.5.5-.2.5-.5M48.35 39.65c-.3 0-.5.2-.5.5s.2.5.5.5.5-.2.5-.5-.2-.5-.5-.5M48.85 47.35c0-.3-.2-.5-.5-.5s-.5.2-.5.5.2.5.5.5.5-.25.5-.5M53.8 40.75l-1.5 1.45 1.35 1.4.9-.85V41.5zM54.55 40.05l-.5.5.5.5z"/><path fill="#fff" d="M48.8 48.35h2.9l-1.15-1.2-.45.45-.2-.2.45-.45-.2-.2.2-.2.2.2 1.25-1.2-1.35-1.4-.65.65-.3-.3.65-.65-.65-.6.2-.2.65.65 1.5-1.45-1.35-1.4-.2.15-.2-.25.2-.15-.6-.6.2-.2.6.6 1.3-1.2h-3v.1c.35.15.55.5.55.9v.05c.3.25.5.65.5 1.05s-.2.8-.5 1.05v.05c0 .35-.2.7-.55.9v1c.35.15.55.5.55.9v.05c.6.45.7 1.35.2 1.95-.05.1-.15.15-.2.2v.05c0 .35-.2.7-.55.9M52.65 39.15l1.15 1.15.75-.7v-.45zM54.55 43.2l-.65.65.65.65zM54.55 45.95v-1l-.9-.9-1.5 1.45 1.4 1.45zM54.55 46.4l-.8.75.8.8z"/><path fill="#fff" d="m50.7 40.6 1.4 1.4 1.5-1.45-1.35-1.4zM50.6 43.9l1.35 1.4 1.5-1.45-1.35-1.4zM53.35 47.15l-1.4-1.4-1.25 1.15 1.4 1.45zM53.55 47.35l-1 1h1.95z"/><path fill="#58595B" d="m83.15 21.1.1 2.45h-.9c-.25-1.2-.4-1.6-1.25-1.6h-.85v7.4c0 .85.3 1.05 1.2 1.05v.6H77.2v-.6c.9 0 1.2-.2 1.2-1.05v-7.4h-.85c-.9 0-1 .4-1.25 1.6h-.9l.15-2.45zM88.05 23.65c.15 0 .35 0 .5.05l-.35 1.85c-.2-.1-.4-.1-.65-.1-1.15 0-1.45.4-1.45 1.65v2.35c0 .8.15 1 1.15 1V31H83.4v-.55c.75-.05.95-.2.95-1V26c0-1.05-.2-1.2-.95-1.2v-.55l2.1-.55h.2c.25.55.35 1.15.35 1.75.45-1.15 1.25-1.8 2-1.8M89 31v-.55c.8-.05.95-.2.95-1V26c0-1.05-.2-1.2-.95-1.2v-.55l2.45-.55h.25v5.75c0 .8.1 1 .95 1V31zm1.7-8.2c-.6.05-1.1-.4-1.15-1s.4-1.1 1-1.15h.15c.6 0 1.1.45 1.1 1.05v.05c0 .6-.5 1.05-1.1 1.05M100.45 29.45c0 .8.15.95.9 1V31H97.8v-.55c.8-.05.95-.2.95-.95v-3.4c0-.85-.35-1.2-1-1.2s-1.25.25-1.7.7v3.9c0 .75.1.9.95.95V31h-3.6v-.55c.75-.05.95-.2.95-1V26c0-1.05-.2-1.2-.95-1.2v-.55l2.1-.55h.2c.2.4.3.85.35 1.25.6-.8 1.5-1.25 2.5-1.25 1.05-.05 1.95.7 2 1.75v.35zM102 31v-.55c.8-.05.95-.2.95-1V26c0-1.05-.2-1.2-.95-1.2v-.55l2.45-.55h.3v5.75c0 .8.1 1 .95 1V31zm1.7-8.2c-.6 0-1.1-.5-1.1-1.1s.5-1.1 1.1-1.1 1.1.5 1.1 1.1c0 .65-.45 1.1-1.1 1.1q.075 0 0 0M110.35 24.8h-1.5v4.05c0 1.1.15 1.4.85 1.4.3 0 .55-.05.8-.15l.15.65c-.5.3-1.1.45-1.7.45-1.2 0-1.9-.5-1.9-2v-4.4h-.85v-.6l.95-.35c.1-.7.3-1.35.65-1.95l1.1-.15c-.1.7-.1 1.4-.1 2.1h1.7zM111.85 32.8c1.2-.25 2.1-.55 2.55-1.9l-.7.05c-.2-.85-.5-1.7-.8-2.55l-1.1-3.05c-.25-.7-.45-.9-1-.95v-.6h3.55v.6c-.7.05-.9.15-.9.4 0 .15.05.25.1.35l1 3c.15.5.3 1 .4 1.55h.05c.1-.45.2-.9.35-1.35l1-3.15c.05-.1.05-.2.1-.3.05-.35-.2-.45-.9-.45v-.6h2.85v.6c-.55.1-.75.2-1 .95l-2.05 5.75c-.6 1.7-1.4 2.65-2.95 2.9zM75.8 41.65c0-3.5 1.8-5.25 4.45-5.25 1.05-.05 2.05.15 2.95.7v1.8h-1.3c-.25-1.1-.6-1.6-1.7-1.6-1.5 0-2.35 1.05-2.35 4.3 0 3.45.95 4.25 2.45 4.25 1.15 0 1.55-.5 1.75-1.65h1.25v1.7c-.9.55-1.95.8-3.05.75-3 0-4.45-1.85-4.45-5M87.75 46.65c-2.1 0-3.45-1.4-3.45-3.75s1.4-3.8 3.5-3.8 3.45 1.4 3.45 3.75c0 2.5-1.55 3.8-3.5 3.8m0-6.75c-1.15 0-1.55.9-1.55 2.9s.4 3 1.6 3c1 0 1.55-.95 1.55-3 0-2.1-.55-2.9-1.6-2.9M94.85 44.9c0 .85.15 1 1 1.05v.55h-3.7v-.6c.8-.05.95-.2.95-1v-6.75c0-1.05-.25-1.2-1.05-1.2v-.55l2.35-.4h.2c.15.45.25.95.2 1.4zM99.2 44.9c0 .85.15 1 .95 1.05v.55h-3.7v-.6c.8-.05.95-.2.95-1v-6.75c0-1.05-.2-1.2-1.05-1.2v-.55l2.35-.4h.2c.15.45.25.95.2 1.4zM106.85 45.05l.3.55c-.75.7-1.75 1.1-2.8 1.05-2.15 0-3.4-1.4-3.4-3.8s1.35-3.75 3.3-3.75c2.05 0 3.05 1.3 3.05 3.5v.5h-4.45c.05 1.85.7 2.5 2.1 2.5.7 0 1.35-.2 1.9-.55m-4-2.8h2.65c0-1.75-.35-2.35-1.25-2.35s-1.3.55-1.4 2.35M108.2 47.7c.05-.45.3-.85.75-1l1.05-.05c-.1.2-.15.45-.15.7 0 .75.4 1.1 1.6 1.1 1.35 0 1.85-.45 1.85-1.2s-.4-.95-2.05-1c-.55 0-1.2-.05-1.5-.1-.6-.05-1.05-.6-1-1.2 0-.65.6-1.15 1.45-1.4a2.1 2.1 0 0 1-1.8-2.1c0-1.5 1.15-2.4 2.9-2.4.45 0 .9.05 1.3.2.3.1.6.15.95.15.5-.05.95-.25 1.3-.6l.6 1.15c-.3.2-.7.35-1.1.35-.35 0-.7-.1-1-.25.45.3.75.85.75 1.4 0 1.7-1.65 2.15-3.1 2.15-.4.15-.7.35-.7.6s.1.35.45.35l1.35.05c1.75.05 2.7.5 2.7 2.05 0 1.65-1.45 2.45-3.45 2.45s-3.15-.5-3.15-1.4m4.25-6.2c0-1.15-.35-1.6-1.15-1.6s-1.1.45-1.1 1.55.4 1.55 1.15 1.55 1.1-.45 1.1-1.5M121.55 45.05l.3.55c-.75.7-1.75 1.1-2.8 1.05-2.15 0-3.4-1.4-3.4-3.8s1.35-3.75 3.3-3.75c2.05 0 3.05 1.3 3.05 3.5v.5h-4.45c.05 1.85.65 2.5 2.1 2.5.65 0 1.3-.2 1.9-.55m-4-2.8h2.65c0-1.75-.35-2.35-1.25-2.35s-1.3.55-1.4 2.35M75.65 61.4c.85 0 1.05-.25 1.05-1.05v-6.6c0-.8-.2-1.05-1.05-1.05v-.6h3.95c2.9 0 4.75 1.45 4.75 5 0 3.05-1.45 4.95-4.8 4.95h-3.9zm3.85-.3c1.95 0 2.85-.75 2.85-3.95 0-3.3-.9-4.25-2.8-4.25h-.95v8.2zM92.2 59.9c0 1.05.15 1.15.95 1.2v.5l-2.05.5h-.2c-.2-.4-.3-.8-.35-1.2-.55.75-1.45 1.2-2.4 1.2-1.2 0-2-.6-2-1.95V56.9c0-1.05-.2-1.2-.9-1.2v-.55l2.35-.5h.35v5.15c0 .85.3 1.15 1 1.15.6 0 1.15-.25 1.6-.7v-3.3c0-1.05-.2-1.2-.9-1.2v-.55l2.35-.5h.3zM95.55 61.95H94.4c.15-.55.25-1.1.2-1.7V53.6c0-1.05-.2-1.2-1-1.2v-.55l2.3-.4h.2c.15.45.25.95.2 1.4v2.8c.5-.7 1.3-1.1 2.15-1.1 1.7 0 2.75 1.2 2.75 3.65 0 2.6-1.2 3.85-3.1 3.85-.85.05-1.65-.35-2.15-1.05-.05.4-.2.7-.4.95m2.35-6.15c-.6 0-1.15.25-1.55.7v3.85c.35.45.9.7 1.5.65 1 0 1.55-.55 1.55-2.7-.05-1.9-.55-2.5-1.5-2.5M104.85 60.35c0 .85.15 1 1 1.05v.6h-3.7v-.6c.8-.05.95-.2.95-1v-6.75c0-1.05-.25-1.2-1.05-1.2v-.55l2.35-.4h.2c.15.45.25.95.2 1.4zM106.5 61.95v-.6c.8-.05.95-.2.95-1V56.9c0-1.05-.2-1.2-.95-1.2v-.55l2.45-.5h.3v5.75c0 .8.1 1 .95 1v.6zm1.7-8.15c-.6 0-1.1-.5-1.1-1.1s.5-1.1 1.1-1.1 1.1.5 1.1 1.1-.45 1.1-1.1 1.1q.075 0 0 0M117.95 60.4c0 .8.15.95.9 1v.6h-3.55v-.6c.8-.05.95-.2.95-.95v-3.4c0-.85-.35-1.15-1-1.15s-1.25.25-1.7.7v3.85c0 .75.1.9.95.95v.6h-3.6v-.6c.8-.05.95-.2.95-1v-3.45c0-1.05-.2-1.2-.95-1.2v-.55l2.1-.55h.2c.2.4.3.85.35 1.3.6-.8 1.5-1.25 2.5-1.25 1.05-.05 1.95.7 2 1.75v.3z"/><path fill="#0072BC" d="M32.85 75.4H31.1v-.65h4.3v.65h-1.8v5.3h-.75zM36.45 74.25h.75v2.65c.35-.45.9-.7 1.45-.7.9 0 1.35.6 1.35 1.7v2.8h-.75V78c0-.8-.25-1.2-.85-1.2-.45 0-.75.25-1.2.7v3.2h-.75zM43.1 76.2c1.1 0 1.75.8 1.75 2.05 0 .15 0 .25-.05.4h-2.95c.05.95.6 1.55 1.45 1.55.4 0 .75-.1 1.1-.35l.25.5c-.45.3-.95.45-1.45.45-1.2 0-2.1-.85-2.1-2.3s1-2.3 2-2.3m1.1 2c0-.9-.4-1.4-1.1-1.4s-1.15.5-1.25 1.4zM47.9 74.75h.75v3.5c0 1.4.6 1.9 1.4 1.9.75 0 1.4-.45 1.4-1.9v-3.5h.7v3.5c0 1.9-.9 2.55-2.1 2.55s-2.15-.65-2.15-2.55zM53.75 76.3h.6l.05.65h.05c.35-.45.9-.7 1.45-.75.9 0 1.35.6 1.35 1.7v2.8h-.75V78c0-.8-.25-1.2-.85-1.2-.45.05-.9.3-1.15.7v3.2h-.75zM58.6 74.95c0-.3.2-.5.5-.5s.5.2.5.5-.2.5-.5.5-.5-.25-.5-.5m.15 1.35h.75v4.4h-.75zM60.4 76.3h.75l.85 2.5c.15.45.3.9.4 1.3h.05c.1-.4.25-.85.4-1.3l.85-2.5h.75l-1.55 4.4H62zM66.9 76.2c1.1 0 1.75.8 1.75 2.05v.4h-3c.05.95.6 1.55 1.45 1.55.4 0 .75-.1 1.1-.35l.25.5c-.45.3-.95.45-1.45.45-1.15 0-2.1-.85-2.1-2.3s1-2.3 2-2.3m1.1 2c0-.9-.4-1.4-1.1-1.4s-1.2.5-1.25 1.4zM69.8 76.3h.6l.05.8c.2-.5.7-.85 1.25-.9.15 0 .3.05.45.1l-.15.65c-.15-.05-.3-.05-.4-.05-.35 0-.8.25-1.1 1v2.8h-.75v-4.4zM72.8 79.7c.35.35.8.5 1.3.55.6 0 .85-.3.85-.7s-.5-.65-1-.85c-.6-.25-1.3-.5-1.3-1.25s.55-1.25 1.5-1.25c.5 0 1 .2 1.35.5l-.35.45c-.3-.25-.65-.35-1-.4-.55 0-.8.3-.8.65 0 .4.5.55 1 .75.65.25 1.35.5 1.35 1.3 0 .7-.55 1.3-1.6 1.3q-.9 0-1.65-.6zM76.6 74.95c0-.3.25-.5.5-.5s.5.25.5.5c0 .3-.25.5-.5.5s-.5-.25-.5-.5m.15 1.35h.75v4.4h-.75zM79.15 76.9h-.65v-.55l.7-.05.1-1.25h.6v1.25h1.2v.6h-1.2v2.45c0 .55.15.85.7.85.15 0 .35-.05.5-.1l.15.55c-.25.1-.55.15-.8.15-.95 0-1.25-.6-1.25-1.45zM82.2 81.95c.5 0 .8-.4 1-.95l.1-.35-1.75-4.4h.75l.9 2.45c.15.4.3.85.4 1.25h.05c.1-.4.25-.85.35-1.25l.8-2.45h.7L83.85 81c-.3.85-.75 1.55-1.65 1.55-.15 0-.35-.05-.5-.1l.15-.6c.1.1.2.1.35.1M90.05 76.2c1.05 0 2.05.85 2.05 2.3s-.95 2.3-2.05 2.3S88 79.95 88 78.5s.95-2.3 2.05-2.3m0 4c.75 0 1.25-.7 1.25-1.7s-.5-1.7-1.25-1.7-1.25.7-1.25 1.7.45 1.7 1.25 1.7M95.25 74.85c-.15-.05-.35-.1-.5-.1-.4 0-.6.3-.6.85v.7h.95v.6h-.95v3.8h-.75v-3.8h-.6v-.55l.6-.05v-.7c0-.9.4-1.45 1.3-1.45q.375 0 .75.15zM97.95 74.75h1.5c1.8 0 2.8 1.05 2.8 2.95s-.95 3-2.75 3H98zm1.4 5.3c1.4 0 2.05-.9 2.05-2.35s-.7-2.3-2.05-2.3h-.7v4.7h.7zM103.4 76.3h.75V79c0 .8.25 1.15.8 1.15.45 0 .75-.2 1.2-.75v-3.1h.75v4.4h-.6l-.05-.7h-.05c-.35.5-.85.75-1.45.8-.95 0-1.35-.6-1.35-1.7zM108.45 74.25h.75v2.55c.35-.35.85-.6 1.4-.6 1.15 0 1.75.9 1.75 2.25 0 1.5-.9 2.35-1.9 2.35-.45 0-.9-.2-1.25-.55h-.05l-.05.45h-.6zm1.8 5.95c.7 0 1.25-.65 1.25-1.75 0-.95-.35-1.6-1.15-1.6-.45.05-.85.25-1.15.6v2.3c.25.25.65.4 1.05.45M113.5 74.25h.75v5.6c0 .25.1.35.2.35h.15l.1.55c-.15.05-.3.1-.45.05-.55 0-.8-.35-.8-1zM115.75 74.95c0-.3.25-.5.5-.5s.5.25.5.5c0 .3-.25.5-.5.5s-.5-.25-.5-.5m.15 1.35h.75v4.4h-.75zM118.15 76.3h.6l.05.65h.05c.35-.45.9-.7 1.45-.75.95 0 1.35.6 1.35 1.7v2.8h-.75V78c0-.8-.25-1.2-.85-1.2-.45 0-.75.25-1.2.7v3.2h-.75z"/></svg>