<svg xmlns="http://www.w3.org/2000/svg" width="147" height="100" fill="none"><path fill="#01427A" d="M48.814 58.52V33.64h49.332v23.72c0 .8-.12 1.6-.16 2.44H84.406a7.6 7.6 0 0 0-2.756-1.84l-1.478-.48-1.159-.24-1.118-.12h-.6c-.718 0-1.477.08-2.196.16-1.039.2-2.037.48-3.076.76l-2.597.12a.7.7 0 0 1-.28-.08l-2.076-.56c-.44-.32-.92-.6-1.359-.92-.16-.12-.24-.12-.399-.04-.4.24-.799.56-1.198.84-.64.52-1.079 1.2-1.319 2l-.16.36H48.934c0-.12-.04-.28-.04-.44 0-.2-.04-.52-.08-.8M81.17 47.08h4.993c.679 0 1.358-.08 2.037-.2 1.837-.36 3.195-1.4 3.875-3.2.439-1.28.559-2.64.28-3.96a4.67 4.67 0 0 0-2.517-3.56 7.2 7.2 0 0 0-3.276-.68H81.17v.44c.88.2 1.119.48 1.119 1.4v8.04c.08.56-.32 1.08-.879 1.12h-.08c-.08 0-.12.04-.2.08zM62.075 35.92c.56.12.64.24.68.8v5.96c0 .6-.08 1.16-.2 1.72-.16.92-.879 1.68-1.838 1.88-1.038.24-2.037.12-2.796-.72-.52-.64-.799-1.4-.759-2.24-.04-1.28-.04-2.56-.04-3.84 0-.88 0-1.8.04-2.72.04-.64.08-.68.68-.84v-.4h-3.236v.44c.519.08.639.2.679.72v6.2q0 .72.12 1.44c.16 1.32 1.118 2.4 2.396 2.76 1.438.44 2.956.44 4.394-.04a3.08 3.08 0 0 0 2.157-2.2c.16-.6.28-1.24.28-1.84.04-2.04 0-4.08 0-6.12 0-.72.04-.76.679-.96v-.4h-3.196zm15.739 1.92v-1.56c.04-.24-.12-.48-.32-.52a9.67 9.67 0 0 0-5.432-.24c-1.718.36-3.116 1.68-3.635 3.36-.6 1.76-.6 3.64.08 5.36A4.33 4.33 0 0 0 71.503 47a9.6 9.6 0 0 0 5.712-.2c.48-.16.759-.36.679-.92v-.32c.04-.4.04-.84.08-1.28h-.48c-.479 1.2-.998 1.64-2.197 1.88-.36.08-.758.08-1.118.12-1.598.2-3.116-.72-3.635-2.24-.76-1.88-.72-4 .12-5.84a3.17 3.17 0 0 1 2.596-1.96 6.4 6.4 0 0 1 2.477.12c.799.2 1.438.6 1.638 1.48zm-3.555 13.88c.2-.2.36-.44.48-.68.239-.56 0-1.24-.6-1.48-.12-.04-.28-.08-.44-.08-1.078-.08-2.196-.08-3.275-.08l-.04.04v4.76c.04 0 .04 0 .08.04h1.917c.44 0 .88 0 1.319-.08.599-.04 1.118-.48 1.278-1.08.12-.64-.12-1.04-.72-1.36m12.103 2.48v-3.68c.12.16.2.28.28.36l2.437 3.16c.04.08.12.12.24.16h1.038v-4.8h-.959v3.68c-.918-1.2-1.797-2.36-2.676-3.48-.08-.08-.16-.16-.28-.2-.36-.04-.679 0-1.038 0v4.8zm-29.68-4.84v4.8c1 0 1.998.08 2.997-.04.918 0 1.757-.6 1.997-1.52.08-.36.12-.72.08-1.12.04-.92-.6-1.72-1.518-1.92-1.158-.32-2.357-.12-3.555-.2m10.906 0v2.92c.04.56-.36 1.08-.919 1.2-.28.04-.56.08-.839.04-.838-.08-1.198-.52-1.198-1.36v-2.8h-.919c0 1.04-.04 2.08 0 3.08 0 .76.52 1.44 1.279 1.64.519.16 1.038.2 1.557.16 1.199-.08 2.077-.84 1.998-2.24-.04-.8 0-1.6 0-2.4v-.32zm10.586 4.08V49.4h-.92v4.8h3.756v-.72zm5.312-4.04h-.918v4.8h.918z"/><path fill="#0289CE" d="M98.186 33.64H48.813V24c.84-.4 1.638-.84 2.477-1.24 6.79-3.36 13.981-5.52 21.411-6.88a90 90 0 0 1 9.787-1.36c2.556-.2 5.153-.36 7.71-.44 1.957-.08 3.914 0 5.871.04.68 0 1.398.08 2.117.08zm-36.27-1.56-.36-4.08c.56.04.28-.4.4-.64.24.04.28-.12.28-.32.04-.56-.44-.2-.64-.4v-.44c0-.44 0-.44-.44-.44h-.479c-.28-.04-.4.08-.4.36v.56H59.04V26c0-.2-.08-.28-.28-.28H58c-.24 0-.28.08-.28.28v.64h-1.238c-.04-.32.04-.76-.12-.88s-.599-.04-.919-.08h-.04c-.2 0-.28.08-.28.28v.6c-.239.16-.558-.12-.638.28-.04.24-.04.48.32.44.08.24-.16.64.399.64l-.16.4c-.04.04-.04.08-.04.08-.08.72-.2 1.48-.28 2.2-.08.52-.12 1.04-.2 1.6h7.35zm5.712-5.48-.76 5.72h9.668v-.36l-.44-5.36c.76.08.32-.52.52-.8.4-.08.4-.08.36-.56 0-.2-.08-.28-.28-.28h-.56v-.92c0-.28-.08-.32-.32-.32h-1.078c-.24 0-.32.08-.32.32v.92h-1.677v-.88c0-.28-.08-.32-.32-.32h-1.038c-.24 0-.32.08-.32.32V25h-1.678v-.88c0-.28-.08-.32-.32-.32h-.998c-.32 0-.4.12-.36.36s0 .56 0 .88h-.558c-.12 0-.2.08-.24.16-.12.4 0 .6.4.72v.4c-.08.16.04.28.319.28m24.806 5.32-.52-6.04c.52-.08.52-.08.52-.6v-.36c.44-.04.44-.04.44-.48v-.04c0-.44 0-.44-.44-.44h-.52v-1.08c0-.24-.08-.32-.319-.32h-1.238c-.28 0-.36.12-.36.36v1H88.12v-1.04c0-.24-.08-.36-.32-.36h-1.238c-.24 0-.32.08-.32.32v1.08h-1.877v-1.08c0-.2-.08-.32-.32-.32h-1.238c-.28 0-.4.08-.36.36v1.04h-.638c-.08 0-.24.08-.24.12-.04.24-.04.48 0 .68 0 .08.24.12.44.2v.48c-.04.28.08.44.399.44l-.84 6.48h10.946zm-6.75-13.44-.08-.08c-.44.36-.84.72-1.239 1.08-.44.4-.639 1-.639 1.6.04.64.52 1.12 1.118 1.28.56.08 1.119-.32 1.239-.88.04-.2.12-.4.12-.6.679.96 1.757 1.32 2.676.2.04.16.08.32.16.48.12.32.4.52.719.52a.78.78 0 0 0 .799-.48c.24-.4.2-.88-.12-1.24-.2-.24-.24-.6-.12-.88.04-.08.04-.12.08-.28-.24.08-.44.16-.64.24-.199.08-.359.2-.519.32a2.7 2.7 0 0 0-.679-1.44c-.439-.44-.479-1.16-.04-1.6.04-.04.08-.12.08-.16-1.677.6-2.636 1.72-2.676 3.56-.4-.4-.48-.92-.24-1.64m-14.62 3.8c.239.4.678.68 1.158.72.519.04.839-.32 1.158-.64.04.12.08.24.12.32.12.4.52.6.919.52.439-.08.719-.48.679-.96-.04-.2-.08-.4-.2-.6-.24-.36-.28-.84-.12-1.24-.24.16-.44.28-.599.4-.16.12-.32.28-.4.36-.16-.36-.359-.72-.559-1.08-.519-.76-.559-1-.08-1.76-1.478.36-2.077 1.4-2.276 2.84-.32-.48-.6-.88-.36-1.44-.24.16-.52.32-.72.48-.638.56-1.038 1.24-.918 2.12.04.56.52 1 1.079 1.04.559 0 .919-.36 1.038-1 .04.04.08-.04.08-.08m-11.745-.56a2.26 2.26 0 0 0-1.757 2.2c-.28-.36-.32-.84-.08-1.24-.48.2-.88.52-1.199.92-.28.32-.4.76-.32 1.16.08.44.48.76.92.8.439 0 .718-.28.838-.8 0-.04.04-.08.04-.16.2.32.52.52.88.56.359.08.758-.12.918-.44.04.08.08.16.16.24.16.2.36.4.679.32.28-.08.48-.36.48-.68 0-.16-.04-.32-.08-.44-.2-.28-.28-.64-.12-.96l-.08-.04-.76.56c-.12-.24-.24-.52-.399-.8-.32-.28-.36-.8-.12-1.2"/><path fill="#FCFCFD" d="M81.17 47.08v-.48l.2-.08c.558-.04.958-.52.958-1.08v-8.12c0-.92-.24-1.2-1.119-1.4v-.44h5.393000000000001c1.118-.04 2.277.2 3.276.68a4.63 4.63 0 0 1 2.516 3.56c.24 1.32.16 2.68-.28 3.96-.639 1.84-1.997 2.84-3.874 3.24-.68.12-1.358.2-2.037.2-1.598.04-3.196 0-4.754 0-.12 0-.2-.04-.28-.04m2.955-6.04c.04 1.4.04 2.8.04 4.2 0 .64.28.88.92.88.678.04 1.317 0 1.996-.08a3.37 3.37 0 0 0 2.996-2.52c.36-1.28.44-2.6.16-3.92-.32-1.68-1.318-2.72-2.996-3.04-.799-.12-1.558-.16-2.357-.12-.639 0-.759.16-.759.8zM62.075 35.92v-.44h3.236v.4c-.64.24-.68.28-.68.96v6.12c-.04.64-.119 1.24-.319 1.84-.28 1.04-1.078 1.88-2.117 2.16a7.17 7.17 0 0 1-4.394.04c-1.278-.36-2.237-1.44-2.397-2.76q-.12-.72-.12-1.44v-6.2c-.04-.48-.16-.64-.678-.72v-.44h3.235v.4c-.6.16-.64.2-.679.84-.04.88-.04 1.8-.04 2.72 0 1.28 0 2.56.04 3.88-.04.8.24 1.6.759 2.24.759.88 1.758.96 2.796.72.919-.2 1.638-.96 1.798-1.88.12-.56.2-1.12.2-1.72.04-1.92 0-3.84 0-5.76v-.2c0-.48-.08-.6-.64-.76M77.814 37.84h-.44c-.199-.88-.878-1.24-1.637-1.44-.799-.2-1.638-.28-2.477-.12-1.158.16-2.157.88-2.596 1.96a7.42 7.42 0 0 0-.12 5.84c.56 1.52 2.077 2.44 3.635 2.24.36 0 .76-.04 1.119-.12 1.198-.24 1.717-.72 2.197-1.88h.479c-.04.44-.04.84-.08 1.28-.04.12-.04.24-.04.32.08.52-.2.76-.679.92a9.6 9.6 0 0 1-5.712.2 4.33 4.33 0 0 1-2.996-2.76c-.68-1.72-.72-3.64-.08-5.36.52-1.68 1.917-2.96 3.635-3.36a9.67 9.67 0 0 1 5.433.24c.24.04.4.28.36.52-.04.48 0 1 0 1.52"/><path fill="#FDFDFE" d="M74.26 51.72c.638.32.838.72.758 1.32-.12.6-.639 1.04-1.278 1.08-.44.04-.879.08-1.278.08h-1.918l-.08-.04V49.4l.04-.04c1.079 0 2.197 0 3.276.08.639 0 1.118.52 1.118 1.16 0 .16-.04.28-.08.44-.2.24-.36.48-.559.68m-2.877 1.68h2.037c.28 0 .52-.2.56-.44.08-.24 0-.52-.2-.64a.95.95 0 0 0-.56-.2c-.638-.04-1.238 0-1.877 0zm0-2.12h1.957c.28 0 .56-.2.56-.48v-.04c.04-.28-.2-.52-.48-.56h-.08c-.679-.04-1.318 0-1.997 0z"/><path fill="#F9FAFB" d="M86.363 54.2h-.96v-4.8h1.04c.12.04.2.08.279.2l2.716 3.48V49.4h.92v4.8h-1.04c-.08-.04-.16-.08-.24-.16-.798-1.04-1.597-2.08-2.436-3.16l-.28-.36zM56.683 49.36c1.199.08 2.397-.12 3.555.2.88.2 1.518 1 1.518 1.92.04.36 0 .76-.08 1.12-.28 1-1.038 1.44-1.997 1.52s-1.997 0-2.996 0zm.959 4.08h1.318c.2 0 .36-.04.52-.04.758-.12 1.198-.52 1.278-1.2.04-.32.04-.64-.04-.92-.04-.52-.44-.92-.96-1-.718-.12-1.397-.12-2.156-.2z"/><path fill="#FDFDFE" d="M67.588 49.4h.919v.32c0 .8-.04 1.6 0 2.4.04 1.36-.799 2.12-1.997 2.24-.52.04-1.039-.04-1.558-.16a1.705 1.705 0 0 1-1.279-1.64c-.04-1.04 0-2.04 0-3.08h.92v2.8c0 .84.359 1.24 1.198 1.36.28.04.559 0 .838-.04.56-.12.96-.64.92-1.2v-2.6c.04-.2.04-.28.04-.4"/><path fill="#282424" d="m66.989 61.4 2.317.04 2.796-.52c.4-.08.759-.2 1.118-.32 1.359-.48 2.717-.76 4.155-.92h1.638l1.278.2 1.158.32.08.04.12.04 2.237.96-.08.24-.44-.12a.8.8 0 0 0-.239-.16c-.68-.24-1.358-.52-2.037-.72-.64-.16-1.279-.24-1.918-.36-1.078-.12-2.197 0-3.235.24l-.28.08-5.353 1.28-3.075.16a7.7 7.7 0 0 1-2.797-.8l-1.757-1.24.16-.36c.759.68 1.597 1.2 2.556 1.56.52.12 1.079.24 1.598.36"/><path fill="#FEFEFE" d="M78.174 53.44h2.836v.72h-3.755v-4.8h.919zM83.487 49.4v4.8h-.92v-4.8z"/><path fill="#019D4A" d="m59.679 59.88-.4-.04h2.916l-1.198.04zM84.445 59.84v-.04h2.837l-.24.04z"/><path fill="#FEFEFE" d="M82.408 25.88c-.28 0-.4-.16-.4-.44v-.48c-.16-.08-.399-.08-.439-.2-.04-.24-.04-.48 0-.68 0-.04.16-.12.24-.12h.639v-1.04c0-.28.08-.4.36-.36h1.238c.24 0 .32.08.32.32v1.08h1.877v-1.08c0-.24.08-.32.32-.32H87.8c.24 0 .36.12.32.36v1.04h1.878v-1c0-.24.04-.36.36-.36h1.237c.24 0 .32.08.32.32V24h.52c.439 0 .439 0 .439.44v.04c0 .4 0 .4-.44.48 0 .12 0 .24-.04.36 0 .52 0 .52-.519.6l.48 6.04H81.927c.04-.76.12-1.44.16-2.12.12-1.24.24-2.48.32-3.72.12-.12.04-.2 0-.24M88.2 30c0-.84.04-1.6 0-2.4-.08-.52-.52-.88-1.039-.8-.439.04-.799.44-.838.92v2.12c0 .08 0 .12.04.2z"/><path fill="#FDFDFE" d="M67.628 26.6c-.24 0-.36-.12-.32-.4v-.4c-.399-.12-.519-.32-.399-.72a.27.27 0 0 1 .24-.16h.599v-.88c0-.28.08-.4.36-.36s.678 0 .998 0c.24 0 .32.08.32.32v.92h1.677V24c0-.2.08-.32.32-.32H72.5c.24 0 .32.08.32.32v.88h1.678v-.92c0-.24.08-.32.32-.32h1.038c.24 0 .32.08.32.32v.92h.559c.2 0 .28.08.28.28 0 .48 0 .48-.4.56-.16.28.24.88-.52.8l.44 5.36h-9.228c.08-.92.16-1.8.24-2.68.08-.8.16-1.6.2-2.44-.04 0-.08-.08-.12-.16m3.435 3.6h1.678v-2.12c-.04-.44-.4-.76-.839-.72-.44 0-.799.36-.799.76 0 .72 0 1.4-.04 2.08"/><path fill="#FCFCFD" d="m55.125 28.4.12-.44c-.52 0-.32-.4-.4-.64-.32.04-.32-.2-.32-.44.04-.4.4-.12.64-.28V26c0-.2.08-.28.28-.28h.04c.32 0 .719-.08.918.08s.08.56.12.88h1.238v-.64c0-.2.08-.28.28-.28h.76c.239 0 .279.08.279.28v.68h1.278v-.56c-.04-.32.08-.4.4-.36h.479c.44 0 .44 0 .44.44v.44c.199.2.678-.16.638.4 0 .2-.04.36-.28.32-.12.24.16.68-.399.64l.32 4.12h-7.03c.08-.72.12-1.36.16-2.04 0-.64.04-1.16.04-1.72m3.915 2.32v-1.56c0-.32-.28-.6-.6-.64s-.599.2-.639.52c-.04.56 0 1.12 0 1.64zM85.684 18.48c-.24.76-.16 1.24.32 1.68 0-1.84.958-3 2.675-3.56-.04.04-.08.12-.08.16-.439.44-.439 1.16.04 1.6.36.4.64.92.68 1.44.16-.12.36-.24.519-.32.2-.08.4-.16.639-.24l-.08.28c-.12.28-.08.64.12.88.28.36.36.84.12 1.24-.2.4-.68.6-1.119.4-.2-.08-.32-.24-.4-.44-.08-.16-.119-.32-.159-.48-.959 1.12-1.997.8-2.676-.2l-.12.6c-.16.56-.68.92-1.239.88-.599-.12-1.078-.64-1.118-1.28-.04-.6.2-1.16.64-1.6.359-.4.838-.72 1.237-1.04m2.037-.32c-.4.36-.68.84-.68 1.4-.04.36 0 .68.12 1.04.08.24.32.4.6.32.24-.04.44-.28.4-.56 0-.2-.04-.44-.12-.64-.28-.44-.36-1-.32-1.56m-2.677 1.64c-.16.36-.28.64-.439.92-.12.24-.12.56.04.76.12.16.36.2.52.12.239-.12.359-.4.319-.68v-.04c-.16-.36-.28-.72-.44-1.08m4.794.36c-.2.2-.32.48-.24.76.04.16.12.32.24.44 0 0 .16 0 .16-.04.04-.16.08-.32.04-.48-.04-.24-.12-.48-.2-.68M71.063 22.28c-.04.04-.04.12-.04.16-.12.64-.48 1-1.038 1-.56 0-1.039-.44-1.079-1.04-.16-.88.28-1.56.879-2.12q.36-.3.719-.48c-.24.56.08.96.36 1.44.24-1.4.798-2.48 2.276-2.84-.479.76-.439 1 .08 1.76.2.36.4.72.56 1.08.08-.08.24-.24.399-.36s.36-.24.6-.4c-.16.4-.12.88.119 1.24.12.2.16.4.2.6.04.44-.24.84-.68.96a.81.81 0 0 1-.918-.52c-.04-.08-.08-.2-.12-.32-.32.32-.64.68-1.158.64-.48-.16-.92-.4-1.159-.8m1.119-2.44c-.32.4-.52.92-.52 1.44 0 .24.04.52.12.76s.36.36.6.28c.24-.04.399-.28.359-.48 0-.24-.08-.48-.12-.72-.12-.44-.28-.84-.44-1.28m-2.157 1.36c-.12.28-.24.48-.32.72s-.16.44.04.64c.12.08.24.12.4.12.24-.08.359-.32.28-.56-.16-.32-.28-.64-.4-.92m4.274.2a.79.79 0 0 0-.16.92c.04.08.16.12.24.16.04-.08.12-.16.12-.24s0-.2-.04-.28c-.04-.16-.12-.36-.16-.56"/><path fill="#F9FAFB" d="M59.32 21.72c-.28.4-.24.92.079 1.28.16.24.28.52.4.8l.758-.56.08.04c-.16.32-.12.68.12.96.08.12.12.28.08.44 0 .32-.2.56-.48.68-.319.08-.479-.12-.678-.32-.04-.08-.12-.16-.16-.24-.2.32-.56.48-.919.4-.36-.04-.679-.24-.879-.56-.04.08-.04.12-.04.16-.12.52-.4.8-.838.8-.44-.04-.84-.36-.92-.8-.08-.4.04-.84.32-1.16.32-.4.72-.72 1.199-.92-.24.4-.2.88.08 1.24.04-1.08.759-2 1.797-2.24m-.64 1.12c-.24.28-.4.68-.36 1.04.04.2.16.36.28.52.04.04.28 0 .28-.08.04-.2.08-.36.04-.56-.08-.32-.16-.6-.24-.92m-1.758 1c-.08.16-.16.36-.24.52q-.06.24 0 .48c0 .04.32.08.32.04a1 1 0 0 0 .16-.48c-.08-.16-.16-.36-.24-.56m3.316.16h-.08c-.04.2-.08.4-.08.64 0 .08.16.16.2.24.04-.12.12-.2.08-.32 0-.2-.08-.4-.12-.56"/><path fill="#282424" d="M82.408 25.88c.04.08.12.12.12.2-.08 1.24-.2 2.48-.32 3.72-.04.68-.12 1.4-.16 2.12h10.426l.04.4H81.569zM67.628 26.6c.04.08.08.16.08.24-.04.8-.12 1.6-.2 2.4-.08.88-.16 1.76-.24 2.68h9.228v.36h-9.627zM55.125 28.4c-.04.52-.04 1.08-.08 1.6-.04.68-.12 1.32-.16 2.04h7.03v.28h-7.35c.08-.56.12-1.08.2-1.6.08-.72.2-1.48.28-2.2.04-.04.08-.08.08-.12"/><path fill="#02437A" d="M84.126 41.04v-3.76c0-.64.12-.8.758-.8.8-.04 1.558.04 2.357.12 1.678.28 2.677 1.32 2.996 3.04.24 1.28.2 2.64-.16 3.92a3.37 3.37 0 0 1-2.995 2.52c-.68.08-1.319.08-1.998.08-.639 0-.879-.28-.919-.88v-4.2z"/><path fill="#282424" d="m70.265 80.4-3.156-3.16c-.6-.88-1.238-1.76-1.798-2.64-.32-.48-.559-1-.799-1.52-.36-1-.759-1.96-1.038-2.96-.4-1.44-.64-2.92-.68-4.4-.04-1.32 0-2.6.16-3.92 0-.12.04-.24.08-.36l.32.24-.04.44-.08.92v2l.24 2.8.44 2.24.598 1.84.84 1.88c0 .04.04.12.08.16a20.3 20.3 0 0 0 4.393 5.56 25.5 25.5 0 0 0 4.474 3.24l.36.24-.08.36a36 36 0 0 1-4.314-2.96"/><path fill="#02437A" d="M71.383 53.4v-1.32h1.877c.2 0 .4.08.56.2.2.16.28.4.2.64a.6.6 0 0 1-.6.44c-.679.08-1.358.04-2.037.04M71.383 51.28v-1.12c.679 0 1.318-.04 1.997 0 .28 0 .52.2.52.48v.08c0 .28-.24.56-.52.56h-.04c-.639.04-1.278 0-1.957 0M57.642 53.44v-3.36c.719.08 1.438.08 2.157.2.519.08.918.48.958 1 .04.32.08.64.04.92-.08.68-.519 1.04-1.278 1.2-.16.04-.36.04-.52.04z"/><path fill="#0289CE" d="M88.2 30h-1.837c0-.08 0-.12-.04-.2v-2.12c0-.52.44-.92.958-.92.48 0 .84.36.92.84zM71.064 30.24v-2.08c0-.44.359-.76.798-.76.44-.04.8.32.84.76.04.68 0 1.4 0 2.12zM59.04 30.72H57.8c0-.56-.04-1.12 0-1.64.04-.32.32-.56.64-.52s.599.28.599.64zM87.72 18.16c-.08.56.04 1.12.28 1.6q.12.3.12.6c.04.28-.16.52-.4.56a.465.465 0 0 1-.599-.32v-.04c-.08-.32-.12-.68-.12-1.04.04-.48.32-1 .72-1.36M85.044 19.8l.44 1.04v.04c.08.28-.08.56-.32.68-.16.08-.4.04-.52-.12-.16-.24-.2-.52-.04-.76s.28-.52.44-.88M89.838 20.16c.08.2.16.44.2.64 0 .16 0 .32-.04.48 0 .04-.16.04-.16.04-.12-.12-.16-.28-.24-.44-.04-.24.04-.52.24-.72M72.182 19.84c.16.4.28.8.44 1.2q.12.36.12.72c.04.24-.12.44-.36.48-.24.08-.48-.04-.6-.28q-.12-.36-.12-.72c0-.48.2-1 .52-1.4M70.025 21.2c.12.28.24.6.36.88.079.24-.04.48-.24.56-.16.04-.28 0-.4-.12-.16-.16-.16-.44-.04-.64.08-.2.2-.4.32-.68M74.3 21.4c.039.2.119.36.159.56.04.08.04.2.04.28l-.12.24c-.08-.04-.2-.08-.24-.16-.16-.28-.08-.68.16-.92M58.68 22.84c.12.32.2.6.24.92.04.2 0 .4-.04.56 0 .04-.24.08-.28.08-.12-.16-.24-.32-.28-.52-.04-.4.08-.76.36-1.04M56.923 23.84q.18.3.24.6c0 .16-.04.32-.16.48 0 .04-.32 0-.32-.04a1 1 0 0 1 0-.48c.08-.24.12-.4.24-.56M60.238 24c.08.16.12.36.16.52 0 .08-.08.2-.08.32-.08-.08-.2-.16-.2-.24 0-.2.04-.4.08-.6z"/><path fill="#282424" d="m79.412 75.36-1.678 4.96-.4 1.16-.878-.4c-.64-.4-1.239-.76-1.878-1.2-.36-.24-.36-.24-.08-.6l1.758 1.12.879.52.32-1.04 1.238-3.64c.4-1.12.759-2.24 1.158-3.32.28-.8.56-1.64.84-2.44l.359-1.04.479-1.4.52-1.56.04-.08.04-.12.598-1.76c.04-.12.08-.2.12-.32l.76-2.16q.239.06.119.24c-.08.28-.16.56-.24.8l-1.398 4.12-.04.08v.04c-.559 1.68-1.118 3.32-1.677 5-.28 1.04-.64 2.04-.96 3.04M71.862 77.12c-.2-.28-.36-.56-.56-.84-.159-.16-.119-.4.04-.56l.04-.04c.52.92 1.2 1.76 1.958 2.48l.2-.36 1.158-2.24 1.438-2.8 2.557-4.92.679-1.28.04-.08v-.04l.679-1.28.719-1.4 1.198-2.32c.28.04.16.16.08.32-.4.8-.839 1.6-1.238 2.4l-2.157 4.36c-.04.04-.04.08-.04.16l-2.117 4.16-1.518 2.96-1.558 3.04a8.1 8.1 0 0 1-1.598-1.72"/><path fill="#FCFCFD" d="m70.424 64.12 1.678 2.92c.759 1.32 1.518 2.64 2.317 3.96l-.799 1.2-1.798-3.04-3.475-5.96c.4-.04.8-.12 1.239-.16.12 0 .2.08.24.16.239.28.399.6.598.92"/><path fill="#282424" d="M68.347 63.2c1.158 2 2.317 3.96 3.475 5.96.6 1 1.198 2.04 1.798 3.04l-.24.32-2.557-4.36-.838-1.44-1.678-2.92-.32-.52h.36z"/><path fill="#FCFCFD" d="M71.463 62.6c.36-.12.759-.28 1.118-.4.04 0 .16.08.2.12.72 1.24 1.478 2.48 2.197 3.72l1.238 2.12-.28.52-.519.72zM75.857 61.64l2.237 3.8-.8 1.24L74.3 61.6c.36-.12.719-.28 1.078-.4.08 0 .16.04.2.08.12.08.2.2.28.36"/><path fill="#282424" d="m75.457 69.44-.2.28c-.399-.68-.838-1.36-1.238-2.04-.919-1.6-1.877-3.2-2.796-4.8l-.08-.2.32-.08zM77.095 66.92c-.08-.08-.16-.2-.24-.32l-1.717-2.92-1.159-2.04.32-.08 2.956 5.08z"/><path fill="#FCFCFD" d="m77.215 60.68 1.278-.24c.08.04.12.12.16.2.4.68.799 1.36 1.198 2l-.679 1.08-.12.12z"/><path fill="#61B745" d="M94.631 59.8h-7.35l-.24.04h-2.596l-.56 1.4-.08.24-.439-.12c-.08-.08-.16-.12-.24-.16-.678-.24-1.358-.52-2.037-.72-.639-.16-1.278-.24-1.917-.36-1.078-.12-2.197 0-3.236.24l-.28.08-5.352 1.28-3.076.16c-.958-.12-1.917-.36-2.796-.8l-1.758-1.28h-.519l-1.198.04h-1.278l-.4-.04H48.973c0 .2 0 .36.04.56.36 3.44 1.278 6.76 2.796 9.84.64 1.4 1.478 2.72 2.397 3.96.04.08.08.16.12.2a25 25 0 0 0 3.076 3.44c.479.44.998.88 1.478 1.28l.799.64 1.198.88 1.358.88 2.077 1.2 2.717 1.28 3.075 1.16c.56.16 1.159.36 1.718.56 1.558.56 3.116.36 4.634-.24l3.036-1.08 2.756-1.24 1.438-.8.24-.12 1.238-.76 1.198-.84.72-.56.599-.48c.519-.48 1.078-.92 1.597-1.4a22.5 22.5 0 0 0 3.036-3.44c.2-.28.4-.52.56-.8 2.196-3.2 3.754-6.8 4.553-10.6.24-1.12.36-2.28.56-3.44H94.63zm-26.284 3.4c.4-.04.799-.12 1.238-.16.12 0 .2.08.24.16l.599.96 1.678 2.92c.759 1.32 1.518 2.64 2.316 3.96h.04l.8-1.28c-.4-.68-.84-1.36-1.239-2.04-.919-1.6-1.877-3.2-2.796-4.8l-.08-.2.32-.08c.36-.12.759-.28 1.118-.4.04-.04.16.08.2.12.719 1.24 1.478 2.48 2.197 3.72l1.238 2.12.879-1.28c-.08-.08-.16-.2-.24-.32-.559-.96-1.158-1.96-1.717-2.92l-1.159-2.04.28-.08c.36-.12.719-.28 1.118-.4.08 0 .16.04.2.08l.24.36 2.237 3.8.439-.64.36-.64-2.038-3.4.4-.08 1.278-.24c-.04-.08 0-.2.04-.28-.04.08-.04.16-.04.28.08.04.12.12.16.2.4.68.799 1.36 1.198 2l.08-.04.68-1.08c.079-.28.239-.4.558-.28s.56.16.8.2c.239.08.159.2.08.32-.4.8-.84 1.6-1.24 2.4-.758 1.44-1.477 2.92-2.236 4.36-.04.04-.04.08-.04.16l-2.117 4.16-1.518 2.96c.04.08.08.16.08.24a.6.6 0 0 1-.08-.24L73.34 78.8a7.8 7.8 0 0 1-1.558-1.68c-.2-.28-.36-.56-.56-.84-.159-.16-.119-.4.04-.56l.04-.04c.24-.36.44-.76.68-1.12.44-.64.879-1.28 1.278-1.96l.04-.16c-.879-1.44-1.718-2.92-2.596-4.36l-.84-1.44-1.677-2.92-.32-.52zm6.83 18.48-.24.48-.319.8-.08.36a31.3 31.3 0 0 1-4.274-2.96L67.11 77.2c-.6-.88-1.239-1.76-1.798-2.64-.32-.48-.56-1-.799-1.52-.04.08-.08.16-.08.24.04-.08.08-.16.08-.24-.36-1-.759-1.96-1.039-2.96-.399-1.44-.639-2.92-.679-4.4-.04-1.32 0-2.6.12-3.92 0-.12.04-.24.08-.36l.32.24.998.6c.04-.04.04-.12.08-.2-.04.08-.04.12-.08.2q1.32.78 2.876.84c.2.04.24.16.24.36-.04.48-.04.92-.04 1.4v1l.04 1.04.08.96.08.84.12.68.679 3 1.038 2.52c.08.16.16.28.2.44l.04.04v.08c.12 0 .16-.08.16-.12 0 .08-.04.12-.16.12l.12.16 1.757 2.48.08.08c.8.8 1.638 1.64 2.437 2.4.32.28.64.56.999.76.12.12.2.24.12.36m6.911-14.28c0 .04 0 .12.04.16 0-.04 0-.08-.04-.16m1.718-5.08c-.08.28-.16.56-.28.8l-1.398 4.12-.04.08v.04c-.56 1.68-1.118 3.32-1.678 5-.32 1-.639 1.96-.998 2.96l-1.678 4.96c-.12.36-.24.76-.4 1.16l-.878-.4c-.64-.4-1.239-.76-1.878-1.2-.36-.24-.36-.24-.08-.6.08-.24.16-.52.28-.76s.28-.6.4-.88l.12-.24c.319-.64.599-1.28.878-1.92l.56-1.28.479-.96c.2-.4.36-.84.559-1.24.24-.56.48-1.08.759-1.6l.32-.72 1.557-3.4c.04-.08.08-.2.16-.32l.4-.84.4-.88.598-1.36c.16-.36.32-.76.48-1.12.04-.08.2-.12.28-.16l.519.16.439.24c.2.12.2.2.12.36"/><path fill="#282424" d="m79.092 63.88-.24.28-2.037-3.4.4-.08z"/><path fill="#E3A714" d="m84.445 59.84-.56 1.4-2.236-.96-.12-.04-.08-.04-1.158-.32-1.278-.2h-1.639c-1.397.16-2.795.44-4.154.92-.36.12-.758.2-1.118.32l-2.756.52-2.317-.04c-.52-.12-1.079-.24-1.598-.4a8.5 8.5 0 0 1-2.556-1.56c.24-.8.679-1.48 1.318-2q.6-.48 1.198-.84c.16-.08.24-.08.4.04.439.32.878.6 1.358.92l2.077.56c.08.04.2.04.28.08l2.596-.12c1.038-.24 2.037-.56 3.076-.76.719-.08 1.478-.16 2.197-.16h.599l1.078.12 1.159.24 1.478.48c1.039.4 1.957 1 2.756 1.84q-.06 0 0 0M82.727 61.64c-.08.04-.24.08-.28.16-.199.36-.319.72-.478 1.12l-.6 1.32-.4.88-.399.84-.16.32c-.519 1.12-1.038 2.28-1.557 3.4l-.28.72c-.24.52-.52 1.08-.759 1.6-.2.4-.36.84-.56 1.24l-.479.96-.559 1.28c-.28.64-.599 1.28-.878 1.88l-.12.24c-.12.28-.28.56-.4.88-.12.28-.2.52-.28.76l1.758 1.12.879.52.32-1.04 1.238-3.64c.4-1.12.799-2.24 1.158-3.32.28-.8.56-1.64.84-2.44 0-.12-.04-.24-.04-.32 0 .12.04.24.04.32l.359-1.04.479-1.4.56-1.56.04-.08.04-.12.598-1.76c.04-.08.08-.2.12-.32l.76-2.16-.44-.24zM75.058 81.36c-.36-.24-.68-.48-.999-.76-.839-.8-1.638-1.6-2.437-2.4-.04-.04-.08-.04-.08-.08l-1.757-2.48-.12-.16v-.08l-.04-.04c-.08-.16-.16-.28-.2-.44l-1.038-2.48-.68-2.96-.12-.68-.079-.88-.08-.96-.04-1.04c0-.32-.04-.68 0-1 0-.48 0-.92.04-1.4 0-.2-.04-.32-.24-.36a6.15 6.15 0 0 1-2.876-.84l-.998-.6-.04.44-.08.92v1.96l.24 2.8.439 2.28.6 1.84.838 1.88c0 .04.04.12.08.16a20.3 20.3 0 0 0 4.394 5.56 25.5 25.5 0 0 0 4.474 3.24l.36.24.319-.8.24-.48c.08-.24.04-.32-.12-.4"/><path fill="#E3A714" d="m79.372 66.56.04-.08v-.04l.679-1.28.719-1.4 1.198-2.32c-.28-.08-.559-.12-.799-.24-.24-.08-.479 0-.559.28l-.719 1.08-.08.04-.679 1.08-.12.12-.2.28-.359.64-.44.64-.798 1.2-.16.28-.879 1.28-.28.52-.519.72-.2.28-.798 1.28h-.04l-.8 1.2-.239.32-.04.16c-.44.64-.879 1.28-1.278 1.96-.24.36-.44.72-.68 1.12.52.92 1.2 1.76 1.958 2.48l.2-.36 1.158-2.24 1.478-2.8 2.517-4.88z"/></svg>