<svg xmlns="http://www.w3.org/2000/svg" width="138" height="100" fill="none"><path fill="#D50E32" d="m43.349 52.507.052-.053v-2.1109999999999998c-.052-.053-.052-.106-.052-.106h-.053v-.158h-.632v.106c0 .052 0 .105-.053.105v2.2689999999999997h.053v.053zc-.053 0-.053-.106 0-.106zM44.56 52.507l.053-.053v-2.1109999999999998c-.053-.053-.053-.106-.053-.106h-.052v-.158h-.632v.106c0 .052 0 .105-.053.105v2.1639999999999997l.053.053v.052h.052v.053zs0-.106.053-.106zM45.72 52.507l.052-.053v-2.1109999999999998c-.053-.053-.053-.106-.053-.106h-.053v-.158h-.632v.106c0 .052 0 .105-.052.105v2.2689999999999997h.052v.053zc-.053 0-.053-.106-.053-.106zM46.93 52.507l.053-.053v-2.1109999999999998c-.052-.053-.052-.106-.052-.106v-.158h-.633v.106c0 .052 0 .105-.052.105v2.2689999999999997h.052v.053zc-.053 0-.053-.106 0-.106z"/><path fill="#D50E32" d="M16.855 34.565v30.87h37.608c-.264-.21-.58-.422-.79-.686-2.16-2.11-2.213-4.59-2.265-6.86V44.907h6.952v13.668c0 .95 0 1.9.79 2.639.58.58 1.37.844 2.213.791.79.053 1.58-.264 2.212-.791.79-.792.843-1.742.843-2.639v-13.72h7.005v11.662c0 2.533 0 5.752-2.581 8.232a9 9 0 0 1-.79.686H78.48c-3.055-2.216-4.53-5.91-4.53-9.498 0-5.91 3.95-11.874 11.377-11.874 3.266-.053 6.479 1.214 8.796 3.536.738.739 1.37 1.636 1.844 2.586l-5.794 2.902c-.58-1.32-1.633-3.641-4.53-3.641a4.32 4.32 0 0 0-2.95 1.16c-1.632 1.584-1.632 4.064-1.632 4.961 0 3.272 1.211 6.333 4.635 6.333 3.213 0 4.214-2.85 4.424-3.589l5.9 2.85a10.6 10.6 0 0 1-2.16 3.113c-.474.422-.948.844-1.475 1.214h6.374V44.855h6.9v16.2h9.006v4.38h6.479v-30.87zm25.651 13.403h.053v-.053h.053v-.052h.052s.053 0 .053-.053c0-.37.053-.686.263-1.003.158-.264.422-.475.685-.58 0-.053.105-.106.158-.106s.053 0 .053-.053c0 0 0-.052-.053-.052v-.159h.053v-.739h.052l.158-.158s0-.053.053-.053l.053.053.158.158h.052v.053h.158v.686h.053v.053s-.053 0-.053.053l.053.053c.053.052.158.052.158.105.263.106.527.317.685.58.21.317.263.634.263 1.003v.053h.053v.053h.052v.053h.053v.052c-.053 0-.053.053-.053.053 0 .053-.052.053-.052.053v.422c0 .053.052.053.052.106v.21l-1.58-.369-1.685.37v-.211c.053 0 .053-.053.053-.106v-.264s-.053 0-.053-.053c0-.052-.053-.052-.053-.052.053-.053 0-.106 0-.106m5.53 5.805H40.4v-.475h.264v-.528h.263v-.264h.053v-.052l.052-.053V50.29c-.052-.053-.052-.105-.052-.105v-.212h-.158l-.053-.316c0-.053-.053-.053-.105-.053l-.106-.158 3.635-.792 3.634.792-.053.158c-.052 0-.052 0-.105.053l-.053.316h-.158v.106h-.052c0 .053 0 .105-.053.105v2.27h.053v.264h.263v.474h.263v.475z"/><path fill="#D50E32" d="m42.19 52.507.053-.053v-2.111c-.053-.053-.053-.106-.053-.106h-.053v-.158h-.632v.106h-.052c0 .052 0 .105-.053.105v2.269h.053v.053zq-.08 0 0 0"/></svg>