<svg xmlns="http://www.w3.org/2000/svg" width="167" height="100" fill="none"><path fill="#00557F" d="M53.834 41.13c0 1.892-1.534 3.246-3.68 3.246-2.122 0-3.682-1.354-3.682-3.246v-5.726h1.534v5.726c0 1.15.87 1.917 2.147 1.917 1.304 0 2.148-.741 2.148-1.917v-5.726h1.533zm2.71-2.454v-.767h-1.406v6.288h1.406V39.75c.588-.486 1.278-.767 1.84-.767.64 0 1.15.383 1.15 1.201v3.988h1.407v-4.09c0-1.61-.997-2.352-2.148-2.352-.74 0-1.584.307-2.25.946m5.777 5.521h1.406V37.91H62.32zm1.56-8.026a.83.83 0 0 0-.844-.818c-.46 0-.844.383-.844.818 0 .46.384.818.844.818a.83.83 0 0 0 .843-.818m7.131 1.738h-1.508l-1.764 4.755-1.764-4.755h-1.508l2.505 6.288h1.508zm1.687 2.505c.18-.869.767-1.431 1.636-1.431.92 0 1.38.562 1.509 1.431zm4.576.69c0-1.942-1.023-3.374-2.99-3.374-1.867 0-3.094 1.483-3.094 3.323s1.253 3.324 3.119 3.324c.818 0 1.712-.307 2.428-.844l-.332-.92q-1.035.537-1.994.537c-.946 0-1.585-.64-1.713-1.636 0-.026 0-.077-.025-.103h4.601zm5.112-3.374h-.178c-.793 0-1.713.358-2.455 1.048v-.869H78.35v6.288h1.405v-4.243c.665-.562 1.458-.869 2.173-.869h.205zm.486 1.943c0 1.1.716 1.457 2.326 1.892.844.23 1.406.306 1.406.843 0 .511-.588.818-1.355.818-.74 0-1.533-.281-1.942-.792l-.588.92c.511.639 1.56.997 2.582.997 1.252 0 2.71-.537 2.71-1.994 0-1.431-1.381-1.738-2.404-1.994-1.048-.281-1.329-.409-1.303-.792 0-.486.485-.742 1.15-.742s1.38.205 1.764.614l.588-.92c-.614-.588-1.585-.818-2.403-.818-1.278.025-2.53.537-2.53 1.968m6.16 4.524h1.407V37.91h-1.406zm1.56-8.026a.83.83 0 0 0-.844-.818c-.46 0-.843.383-.843.818 0 .46.383.818.843.818a.83.83 0 0 0 .844-.818m5.061 6.825a2.7 2.7 0 0 1-.894.179c-.486 0-.87-.204-.87-.818V39.06h1.79v-1.125h-1.79v-1.739h-1.405v1.739h-.052l-1.175.23v.895h1.227v3.4c0 1.405.92 1.942 1.917 1.942.537 0 1.099-.153 1.585-.434zm7.49-5.087h-1.483l-1.814 4.55-1.918-4.55h-1.533l2.76 6.263-.997 2.53h1.304zm4.959 3.144c0-1.201.665-2.045 1.79-2.045 1.099 0 1.763.844 1.763 2.045 0 1.227-.664 2.045-1.763 2.045-1.1 0-1.79-.843-1.79-2.045m5.01 0c0-1.84-1.278-3.323-3.22-3.323-1.943-.025-3.221 1.457-3.221 3.323 0 1.84 1.278 3.324 3.221 3.324 1.942 0 3.22-1.483 3.22-3.324m3.119-3.502c0-.767.358-1.201.971-1.201.409 0 .844.102 1.33.281l.332-.971c-.639-.333-1.304-.512-1.892-.512-1.227 0-2.172.767-2.172 2.48v.281h-.026l-1.176.23v.895h1.227v5.163h1.406v-5.163h1.789v-1.125h-1.789zm-72.776 10.89c-1.227-1.1-3.016-1.815-5.19-1.815-2.837 0-5.47 1.227-5.495 4.422 0 2.53 1.61 3.247 5.01 4.192 1.994.537 2.863.767 2.837 1.841 0 1.022-.894 1.713-2.479 1.713-1.457 0-3.144-.614-4.039-1.713l-1.712 1.917c1.2 1.534 3.553 2.429 5.725 2.429 2.531 0 5.599-1.253 5.599-4.448-.026-3.068-2.838-3.758-4.985-4.32-2.505-.665-2.889-.946-2.863-1.739.077-1.201.997-1.636 2.352-1.636 1.482 0 2.71.512 3.553 1.176zm4.167 7.618c-.026-1.713.945-2.94 2.53-2.94 1.56 0 2.531 1.201 2.531 2.94s-.971 2.94-2.53 2.94c-1.534 0-2.531-1.228-2.531-2.94m7.975 0c0-2.966-2.122-5.369-5.42-5.369-3.271-.025-5.418 2.378-5.418 5.369 0 2.965 2.147 5.368 5.419 5.368s5.42-2.403 5.42-5.368m10.89-5.087H63.65v6.978c-.792.665-1.738 1.048-2.556 1.048-.92 0-1.534-.588-1.534-1.738v-6.263h-2.837v6.62c0 2.634 1.56 3.81 3.425 3.81 1.176 0 2.454-.512 3.502-1.509v1.227h2.838zm8.307 7.847c-.46.154-.945.256-1.38.256-.767 0-1.304-.333-1.304-1.304V53.17h2.736V50.97H72.11v-2.76h-2.837v2.76h-.051l-1.892.41v1.789h1.943v4.959c0 2.377 1.56 3.272 3.297 3.272.946 0 1.943-.256 2.812-.69zm4.448-6.595v-5.291h-2.837V61.17h2.837v-6.979c.793-.664 1.764-1.048 2.557-1.048.97 0 1.712.537 1.712 1.739v6.262h2.838v-6.62c0-2.633-1.61-3.81-3.477-3.81-1.227-.025-2.582.512-3.63 1.51m15.798 5.598c-.793.793-1.84 1.202-2.633 1.202-1.355 0-2.122-1.176-2.122-2.965 0-1.79.818-2.966 2.122-2.966.792 0 1.84.41 2.633 1.202zm2.837-6.85h-2.837v1.099c-1.023-.946-2.173-1.38-3.272-1.38-2.582 0-4.397 2.377-4.397 5.368 0 2.99 1.815 5.368 4.397 5.368 1.099 0 2.25-.41 3.272-1.38v1.098h2.837zm10.839 1.405c-.588-1.15-1.662-1.661-2.889-1.661-1.176 0-2.454.511-3.476 1.508v-1.227h-2.838v10.174h2.838v-7.004c.741-.64 1.636-1.023 2.377-1.023.895 0 1.585.537 1.585 1.739v6.262h2.837v-6.62c0-.154 0-.333-.025-.46.767-.588 1.636-.92 2.351-.92.921 0 1.611.536 1.611 1.763v6.263h2.837v-6.62c0-2.634-1.533-3.81-3.348-3.81-1.279-.05-2.736.537-3.86 1.636m16.641 3.682c0 1.917-.895 2.965-2.147 2.99-.844 0-1.841-.46-2.659-1.303V54.32c.818-.818 1.841-1.227 2.659-1.227 1.354 0 2.147 1.227 2.147 2.965m-4.806-3.988v-1.1h-2.837V65.21h2.837v-5.113c.971.895 2.147 1.33 3.221 1.33 2.505 0 4.473-2.148 4.473-5.368 0-2.991-1.789-5.369-4.448-5.369-1.124 0-2.275.486-3.246 1.38m15.619 6.748c-.46.154-.946.256-1.381.256-.767 0-1.303-.333-1.303-1.304V53.17h2.735V50.97h-2.735v-2.76h-2.863v2.76h-.051l-1.892.41v1.789h1.943v4.959c0 2.377 1.559 3.272 3.297 3.272.946 0 1.943-.256 2.812-.69zm3.757-2.76c-.025-1.713.946-2.94 2.531-2.94 1.559 0 2.531 1.201 2.531 2.94s-.972 2.94-2.531 2.94-2.531-1.228-2.531-2.94m7.95 0c0-2.966-2.121-5.369-5.419-5.369-3.272-.025-5.419 2.378-5.419 5.369 0 2.965 2.147 5.368 5.419 5.368 3.298 0 5.419-2.403 5.419-5.368m3.937-3.835v-1.227h-2.838v10.174h2.838v-6.953c.843-.665 1.84-1.048 2.607-1.048.92 0 1.636.537 1.636 1.738v6.263h2.838v-6.62c0-2.634-1.611-3.81-3.477-3.81-1.15-.05-2.505.46-3.604 1.483M29.627 39.417c-.026 0-.333.256-.665.332a1 1 0 0 1-.383.69.92.92 0 0 1-.563.18c-.076 0-.153 0-.23-.026-.179.307-.511.511-.511.537l-.051.05-.051-.05c-.026 0-.333-.23-.537-.537-.077.025-.153.025-.205.025a.97.97 0 0 1-.562-.178.95.95 0 0 1-.383-.69c-.333-.077-.665-.333-.665-.333l-.051-.051.025-.077c0-.025.128-.383.333-.664a1 1 0 0 1-.102-.767.96.96 0 0 1 .46-.537c.025 0 .05-.026.076-.026-.025-.358.102-.715.102-.74l.026-.078h.077c.025 0 .409 0 .741.128a.95.95 0 0 1 .716-.332c.281 0 .537.128.716.332.332-.128.715-.128.74-.128h.078l.025.077c0 .026.128.383.102.741.026 0 .051.026.051.026.23.102.384.307.46.537.077.281.052.562-.102.767.23.28.333.639.358.664l.026.077zm-1.432 13.676c-.767 2.403-1.891 4.473-3.349 6.16-1.738 2.045-3.987 3.554-6.646 4.474-2.658-.92-4.882-2.428-6.646-4.473-1.457-1.688-2.582-3.784-3.374-6.161-1.074-3.272-1.202-6.288-1.227-7.388.204-.076.486-.178.818-.306.23.69.741 1.329 1.585 1.917 1.124.792 2.326 1.125 2.377 1.15 0 0 2.454.716 3.911 1.15.92.307.895.972.741 1.458 0 .025-.025.05-.025.076-.026.051-.051.128-.077.18-.025.05-.051.127-.077.178-.05-.051-.127-.588-1.15-1.1-1.022-.51-2.556-.28-2.735-.178-.077.051-.102.077-.026.153.052.026.103.051.128.103.23.255.205.818.92 1.559.23.204.46.358.716.486 1.023.485 1.483.255 1.662.23 0 .025-.026.076-.026.102-1.56 2.735-2.173 5.087-2.25 7.055l.307.256c.614.511 1.253.971 1.943 1.406l.563.332c.613.332 1.252.614 1.917.87 1.84-.691 3.45-1.662 4.831-2.94l.281-.282c-.204-.025-.409-.025-.613-.05-2.633-.103-3.4-1.151-2.94-2.736.026-.051.102-.205 0-.307-.077-.076-.23-.025-.281 0-2.71 1.278-3.477 5.113-3.477 5.113s-.102-3.042 2.02-5.087 3.91-1.636 3.988-1.636c.869.204 1.048-.307 1.099-.716q0-.076.076-.153c.41-.282.844-1.38.384-1.79-.23-.204-1.1-.434-1.33-.511-.204-.077-.383-.128-.562-.23a.5.5 0 0 1-.255-.256c-.154-.46-.588-.69-.69-.767.894-.204 1.866-.715 2.888-1.508.307-.255.562-.511.767-.792.204-.23.204-.46.562-.614.742-.358.716-.741.588-.869s-.588.051-.639.102c.026-.204 0-.434-.026-.639v-.076c0-.026 0-.051-.025-.102v-.026c-.153-.741-.562-1.38-.997-1.84a29.2 29.2 0 0 1 5.496 1.61c.051 1.15-.051 4.141-1.125 7.413M9.56 46.6a2.76 2.76 0 0 1-1.15-1.431c.332-.103.716-.23 1.125-.358-.103.485-.154 1.176.025 1.79m-2.837-7.183-.051-.051.025-.077c0-.025.128-.383.333-.664a1 1 0 0 1-.103-.767.96.96 0 0 1 .46-.537c.026 0 .052-.026.077-.026-.025-.358.102-.715.102-.74l.026-.078h.077c.025 0 .409 0 .74.128a.95.95 0 0 1 .717-.332c.28 0 .536.128.715.332.333-.128.716-.128.742-.128h.076l.026.077c0 .026.128.383.102.741.026 0 .051.026.051.026.23.102.384.307.46.537.077.281.052.562-.102.767.23.28.332.639.358.664l.026.077-.052.051c-.025 0-.332.256-.664.332a1 1 0 0 1-.384.69.92.92 0 0 1-.562.18c-.077 0-.153 0-.23-.026-.179.307-.511.511-.511.537l-.051.05-.051-.05c-.026 0-.333-.23-.537-.537-.077.025-.154.025-.205.025a.97.97 0 0 1-.562-.178.95.95 0 0 1-.384-.69 1.9 1.9 0 0 1-.664-.333m12.27 7.873c.025-.05.537-1.15.869-1.943.281-.715-.281-1.43-.665-1.814 1.304.05 2.53.178 3.681.358.154.153.332.28.358.409-1.048-.103-1.61.127-1.56.51.026.154.256.205.46.154.18-.026.972-.102 1.56.332.256.205.435.537.46.997v.154c.026.715-.306 1.354-.971 1.866-2.147 1.687-3.4 1.457-3.579 1.406-.588-.358-.869-.844-.869-1.483.051-.486.256-.92.256-.946m-1.048-2.147c.179.077.664.383.792.716.051.128-.051.281-.102.409-.18.358-.307.664-.332.69-.052.077-.282.588-.307 1.253-.026.434.05.997.46 1.508h-.077a4.7 4.7 0 0 0-.946.05c-.178 0-.255-.076-.332-.178-.23-.332-.613-.64-1.201-.793-.716-.204-1.662-.46-2.429-.664-1.508-.41-1.099-1.304-1.457-1.278-.358.025-.179.639-.025.869-.614-.128-.92-.358-.92-.358-1.1-.895-1.049-1.968-.819-2.735 2.071-.563 4.883-1.1 8.001-1.1h.103c.358.282 1.073.972.818 1.534-.026.051-.026.077-.051.128-.46-.307-.92-.486-.997-.537-.205-.076-.384-.102-.435.052-.077.178.077.332.256.434m-5.598-9.28c0-.025.025-.076.05-.101s.077-.026.103-.026l.281.051V35.2c0-.05.026-.076.051-.102.026-.026.077-.026.128-.026l.256.077v-.434c0-.103.05-.205.153-.256.051-.026.102-.026.128-.026.051 0 .102.026.153.051.051.026.077.052.128.077.204.128.435.281 1.1.435.178.05.434.077.69.128.434.076.945.178 1.405.306.563.18.946.384 1.15.665.052.051.052.102.052.179 0-.051.025-.128.05-.179.23-.281.589-.486 1.151-.665.46-.128.972-.23 1.406-.306.256-.051.511-.103.69-.128.665-.154.895-.307 1.1-.435.05-.025.076-.05.127-.077.051-.025.103-.05.154-.05.05 0 .102 0 .127.025.077.051.154.153.154.256v.434l.256-.077c.05-.025.076 0 .127.026.026.026.051.051.051.102v.588l.282-.05c.025 0 .076 0 .102.025s.051.05.051.102v4.729c0 .46-.332.639-1.176.588-2.863-.077-3.937.665-3.937.665 0 .255-.28.434-.69.434-.434 0-.69-.153-.69-.434 0 0-1.074-.742-3.937-.665-.843.051-1.175-.153-1.175-.588v-4.73zm18.021-.664c-.204-.102-5.42-2.48-12.193-2.48-6.774 0-11.989 2.378-12.193 2.48l-.41.205v10.94c.052 1.483.282 4.193 1.279 7.184 1.917 5.853 5.777 9.892 11.17 11.682a.7.7 0 0 0 .23.025c.077 0 .154 0 .23-.025 5.394-1.79 9.254-5.829 11.12-11.682.946-2.966 1.176-5.675 1.227-7.158V35.429z"/><path fill="#00557F" d="M8.537 37.526s-.077-.103-.077-.307a.66.66 0 0 1 .665-.665.66.66 0 0 1 .664.665c0 .204-.076.307-.076.307l-.282.383a.5.5 0 0 0-.204-.051v-.281a.11.11 0 0 0-.102-.103.11.11 0 0 0-.103.103v.28c-.076 0-.127.026-.204.052zm1.252.74.281-.076c.051-.025.128.026.128.077.026.051 0 .128-.077.128l-.28.076v.205l.46.153s.127.051.332-.025a.68.68 0 0 0 .434-.844.62.62 0 0 0-.332-.383.7.7 0 0 0-.511-.051c-.205.05-.281.153-.281.178l-.282.41c.052.025.077.076.128.153m.281-.97c.026 0 .051-.026.077-.026a.84.84 0 0 1 .435-.026c0-.204-.052-.409-.077-.536-.102 0-.332.025-.537.102a.84.84 0 0 1 .102.434zm-1.942-.026c.025 0 .05.025.076.025v-.076a.84.84 0 0 1 .103-.435c-.205-.076-.41-.076-.537-.076a2.4 2.4 0 0 0-.077.536.84.84 0 0 1 .435.026m-.512 1.534c.18.05.307.025.333.025l.46-.153v-.205l-.281-.076a.14.14 0 0 1-.077-.128.14.14 0 0 1 .128-.077l.28.077c.027-.077.078-.128.129-.18l-.281-.408s-.077-.102-.282-.179c-.076-.026-.127-.026-.204-.026a.68.68 0 0 0-.64.46.73.73 0 0 0 .435.87m1.253 1.278c.128-.154.128-.281.128-.307v-.486c-.077-.025-.128-.025-.205-.076l-.179.23c-.025.025-.05.05-.076.05s-.052 0-.077-.025c-.051-.025-.051-.102-.026-.153l.18-.23c-.052-.051-.103-.102-.129-.18l-.46.154s-.127.051-.255.205c-.23.306-.154.715.153.946s.741.178.946-.128m9.023 1.482V36.3c0-.154-.715-.64-2.326-.844-1.61-.23-2.07-.716-2.07-.716v5.675c.28.23.332.205 2.172.41 1.943.23 2.224.74 2.224.74m2.787-.74c1.866-.205 1.917-.18 2.173-.41V34.74s-.46.486-2.071.716c-1.61.23-2.326.716-2.326.844v5.265s.281-.51 2.224-.74M7.565 39.135c.026-.026.026-.051.051-.051-.025 0-.05 0-.076-.026a.96.96 0 0 1-.384-.23c-.128.154-.204.358-.255.486.102.051.28.179.485.23.051-.153.103-.281.18-.409m1.61 1.1c-.025-.026-.025-.052-.05-.052a.055.055 0 0 1-.052.051c-.102.128-.204.23-.332.281.128.18.281.307.384.384a1.8 1.8 0 0 0 .383-.384.7.7 0 0 1-.332-.28m1.534-1.177c-.025 0-.05.026-.076.026l.05.051a.84.84 0 0 1 .18.409c.204-.051.383-.179.486-.23-.052-.102-.128-.307-.256-.486a.96.96 0 0 1-.384.23m-.46.026q-.037 0 0 0l-.46-.154a.8.8 0 0 1-.128.18l.18.23c.025.05.025.127-.026.153-.026.025-.051.025-.077.025-.025 0-.077-.025-.077-.05l-.179-.23a2 2 0 0 1-.204.076v.511s0 .128.128.307c.23.307.639.358.946.153a.69.69 0 0 0 .153-.946c-.153-.23-.256-.255-.256-.255m-1.124.051a.567.567 0 0 0 .562-.562.567.567 0 0 0-.562-.563.567.567 0 0 0-.563.563c0 .306.256.562.563.562m19.197-.051-.46-.154a.8.8 0 0 1-.128.18l.179.23c.026.05.026.127-.026.153-.025.025-.05.025-.076.025s-.077-.025-.077-.05l-.179-.23a2 2 0 0 1-.204.076v.511s0 .128.127.307c.23.307.64.358.946.153a.69.69 0 0 0 .154-.946c-.128-.23-.256-.255-.256-.255m.818-1.125a.62.62 0 0 0-.332-.383.7.7 0 0 0-.512-.051c-.179.05-.28.153-.28.178l-.282.41c.051.05.102.102.128.178l.281-.076c.051-.026.128 0 .128.076.025.052-.026.128-.077.128l-.281.102v.205l.46.153s.128.026.332-.025c.358-.18.563-.563.435-.895m-1.892 2.275c-.025-.025-.025-.051-.05-.051a.055.055 0 0 1-.052.051c-.102.128-.204.23-.332.281.128.18.28.307.383.384.102-.077.256-.205.384-.384-.128-.05-.23-.153-.333-.28m1.56-1.176c-.026 0-.052.026-.077.026l.051.051a.84.84 0 0 1 .179.409c.205-.051.383-.179.486-.23-.052-.102-.128-.307-.256-.486a1.5 1.5 0 0 1-.383.23m-1.84 1.023c.127-.154.127-.281.127-.307v-.486c-.077-.025-.128-.025-.205-.076l-.178.23c-.026.025-.052.05-.077.05s-.051 0-.077-.025c-.051-.025-.051-.102-.026-.153l.18-.23a.46.46 0 0 1-.128-.18l-.46.154s-.128.051-.256.205c-.23.306-.153.715.153.946.307.23.716.178.946-.128m-.308-1.508c0 .306.256.562.563.562a.567.567 0 0 0 .562-.562.567.567 0 0 0-.562-.563.567.567 0 0 0-.563.563m-.639.255.46-.153v-.205l-.28-.076a.14.14 0 0 1-.078-.128.14.14 0 0 1 .128-.077l.281.077a.8.8 0 0 1 .128-.18l-.28-.408s-.078-.102-.282-.179c-.077-.026-.128-.026-.204-.026a.68.68 0 0 0-.64.46.65.65 0 0 0 .435.844c.204.077.332.051.332.051m.87-.894a.5.5 0 0 1 .204-.052v-.28a.11.11 0 0 1 .102-.103.11.11 0 0 1 .102.102v.281c.077 0 .128.026.205.052l.281-.384s.077-.102.077-.307a.66.66 0 0 0-.665-.664.66.66 0 0 0-.665.664c0 .205.077.307.077.307zm1.252-.64c.026 0 .051-.025.077-.025a.84.84 0 0 1 .434-.026c0-.204-.05-.409-.076-.536-.103 0-.333.025-.537.102a.84.84 0 0 1 .102.434zm-2.889 1.534c-.127.154-.204.358-.255.486.102.051.281.179.486.23a.84.84 0 0 1 .178-.409c.026-.026.026-.051.052-.051-.026 0-.052 0-.077-.026a.96.96 0 0 1-.384-.23m.946-1.56c.026 0 .051.026.077.026v-.076a.84.84 0 0 1 .102-.435c-.204-.076-.409-.076-.537-.076a2.4 2.4 0 0 0-.076.536.8.8 0 0 1 .434.026"/></svg>