<svg xmlns="http://www.w3.org/2000/svg" width="206" height="100" fill="none"><path fill="#000" fill-rule="evenodd" d="M86.695 57.627h32.523v-32.52H86.695z" clip-rule="evenodd"/><path fill="#fff" fill-rule="evenodd" d="M95.357 34.915s.793.032 1.333.034c.664.004 1.238-.148 1.254-.06.026.161.044 7.277.044 7.277s.077 1.52.45 2.294c.654 1.359 3.571 1.47 3.571 1.47s.452.053 1.464-.024c1.014-.08 2.986-.372 3.63-1.57 0 0 .453-.505.614-3.384.171-3.013-.232-5.997-.232-5.997l2.825-.131s-.189 2.132-.195 6.131c-.004 3.998.366 6.342.366 6.342l-2.799.826.004-2.958-1.334 1.251s-.773.798-2.533 1.25c-1.761.45-3.094.369-3.891.208-.8-.16-1.52-.375-1.972-.59-.453-.214-1.253-.614-1.971-1.734-.424-.663-.424-2.319-.424-2.319l.03-3.092z" clip-rule="evenodd"/><path stroke="#fff" stroke-miterlimit="2.613" stroke-width="1.92" d="m99.828 27.002 6.25 6.263m-6.417.013 6.265-6.248m-6.09 9.442 6.25 6.264m-6.414.013 6.263-6.248m-6.113 12.604 6.249 6.264m-6.415.014 6.262-6.25"/><path fill="#000" fill-rule="evenodd" d="M14.28 66.245c0-1.115-.678-1.115-1.456-1.115l-.07-.059v-.24c0-.155.1-.17.256-.17.367 0 1.27.073 1.934.073.706 0 1.427-.072 2.132-.072l.044.043v.366l-.071.059h-.17c-.918 0-1.327.1-1.327 1.158v4.096c0 2.033.396 3.632 2.826 3.632 2.528 0 3.346-1.216 3.346-3.602v-3.675c0-1.61 0-1.497-1.243-1.61l-.057-.113v-.269l.043-.084c.254 0 .536.072 1.596.072.595 0 1.344-.072 1.795-.072l.056.084v.298l-.085.085c-1.033 0-1.4.056-1.4.76v5.045c0 2.586-1.51 3.9-4.081 3.9-2.049 0-4.069-.72-4.069-3.08z" clip-rule="evenodd"/><path fill="#000" fill-rule="evenodd" d="M24.722 68.447c0-.211-.01-.265-.053-.35-.096-.18-.561-.56-.742-.57l-.562-.033c-.042 0-.052-.106-.052-.19 0-.053 0-.138.052-.138.329 0 .583-.02.847-.02.488 0 1.26.04 1.45.062l3.207 3.875c.487.594.963 1.143 1.726 1.905h.042V68.33c0-.699-.254-.805-.594-.815l-.455-.022c-.043 0-.064-.106-.064-.18 0-.063.032-.168.095-.168.233 0 .784.052 1.303.052.476 0 .983-.052 1.28-.052.053 0 .063.042.063.083v.202c0 .052-.02.063-.095.063h-.275c-.73 0-.73.372-.73 1.271v6.13h-.254l-5.715-6.533v4.86c0 .909.127 1.015 1.037 1.048.042 0 .074.095.074.18s-.01.17-.043.17c-.2 0-.877-.055-1.323-.055-.519 0-.752.054-1.239.054-.063 0-.074-.074-.074-.213 0-.095.01-.136.138-.136.444 0 .953-.108.953-.647v-5.176zm10.325 4.211c0 1.547.032 1.558 1.068 1.61l.053.075v.2c0 .064-.159.074-.254.074-.147 0-.857-.054-1.29-.054-.509 0-1.029.054-1.58.054-.042-.021-.052-.085-.052-.193.01-.136.031-.156.339-.156.73 0 .763-.16.763-.964v-5.06c0-.603-.18-.752-1.07-.752l-.032-.052-.021-.17c.01-.115.105-.126.169-.126.286 0 .624.052 1.346.052.529 0 1.164-.052 1.586-.052l.052.072v.193l-.042.063-.285.02c-.423.033-.751.075-.751.563zm2.54-4.803c-.116-.287-.54-.362-.836-.362l-.063-.052v-.276l.116-.02c.445 0 1.092.051 1.324.051.485 0 .962-.052 1.45-.052l.03.031-.03.295-.498.044c-.17.01-.36.074-.36.232 0 .084.053.223.095.318l1.217 3.177.689 1.575c.074.159.084.19.116.19.022 0 .053-.04.095-.169l1.513-4.01c.17-.454.297-.847.286-.973-.01-.18-.063-.276-.37-.308l-.551-.054-.065-.031v-.33c.414 0 .826.065 1.24.065.328 0 1.027-.064 1.101-.064l.084.043v.243l-.093.072-.328.023c-.212.01-.297.115-.445.486-1.007 2.423-1.25 3.187-2.055 5.229l-.538 1.377c-.053.147-.074.16-.148.16-.096 0-.117-.034-.138-.075zm8.282.37c0-.688-.519-.763-1.133-.763-.042 0-.042-.052-.042-.095v-.116c0-.095.18-.106.55-.106.424 0 .9.052 1.346.052.422 0 .846-.052 1.27-.052h2.233c.084 0 .094.096.094.211v1.293c0 .041-.021.085-.074.085-.085 0-.254.01-.265-.118l-.032-.327c-.062-.679-.528-.796-1.12-.796h-1.091c-.593 0-.784.128-.784.932v1.918c0 .03.064.082.085.082l1.25-.04c.636-.022.816-.224.973-.784.022-.065.053-.085.17-.085.074 0 .127.01.127.064 0 .222-.064.71-.064 1.06 0 .57.064.878.064 1.058 0 .065-.106.126-.17.126-.084 0-.159-.03-.18-.137-.053-.285-.053-.488-.106-.635-.053-.159-.18-.234-.497-.243l-1.505-.034c-.148 0-.148.054-.148.128v2.519c0 .763.561.783 1.293.783h.572c.56 0 .952-.01 1.215-.17.233-.138.561-.783.679-1.047.137 0 .317.03.317.106a.7.7 0 0 1-.053.169l-.296 1.071c-.085.286-.138.286-.275.286-1.143 0-2.265-.054-3.8-.054-.35 0-1.239.054-1.779.054-.032 0-.065-.106-.065-.17 0-.084.022-.18.065-.18.921-.043 1.175-.138 1.175-1.112zm6.979.064c0-.532-.022-.796-.688-.796h-.435c-.063 0-.074-.116-.074-.2 0-.052.032-.148.074-.148.614 0 1.239.031 1.852.031.487 0 .964-.03 1.452-.03 1.078 0 2.137.72 2.137 1.831 0 .961-.878 1.607-1.702 1.735v.022c.413.095.845.868.95 1.037l1.166 1.779c.37.56.614.666 1.25.699l.063.062v.202c0 .096-.074.106-.116.106-.223 0-.552-.033-.71-.033-.254 0-.508.033-.763.033-.243 0-.72-.71-1.345-1.822-.686-1.215-1.088-1.883-1.787-1.883-.086 0-.213 0-.372.02v2.594c0 .382 0 .742.53.742.402 0 .582 0 .582.084 0 .2-.032.265-.19.265-.551 0-1.007-.054-1.463-.054-.178 0-1.353.054-1.5.054-.064 0-.086-.139-.086-.223 0-.096.043-.116.255-.126.73-.033.92-.139.92-.868zm.951 2.254c.138.01.265.021.403.021.847 0 1.904-.295 1.904-1.545 0-.932-.634-1.536-1.565-1.536-.72 0-.742.17-.742.488zm6.769.221c-.762-.455-1.07-.879-1.07-1.701 0-1.326 1.08-2.066 2.509-2.066.402 0 .974.137 1.334.296l.074 1.323v.054c0 .054-.106.074-.254.074-.138 0-.159-.064-.17-.17-.074-.709-.582-1.164-1.333-1.164-.72 0-1.28.507-1.28 1.185 0 .763.465 1.059 1.522 1.619 1.048.55 1.96 1.037 1.96 2.36 0 1.44-1.303 2.193-2.625 2.193-.434 0-1.155-.138-1.557-.308-.085-.043-.117-.18-.149-.414l-.127-.994c0-.064.212-.064.276-.064.031 0 .063.02.085.095.243.805.794 1.271 1.641 1.271.74 0 1.45-.646 1.45-1.366 0-.687-.393-1.1-.944-1.43zm6.247 1.894c0 1.547.031 1.558 1.069 1.61l.053.075v.2c0 .064-.159.074-.254.074-.148 0-.859-.054-1.29-.054-.509 0-1.028.054-1.578.054-.043-.021-.053-.085-.053-.193.01-.136.033-.156.338-.156.731 0 .763-.16.763-.964v-5.06c0-.603-.18-.752-1.07-.752l-.032-.052-.021-.17c.01-.115.105-.126.169-.126.286 0 .625.052 1.346.052.528 0 1.163-.052 1.587-.052l.053.072v.193l-.043.063-.286.02c-.423.033-.751.075-.751.563zm5.622.828c0 .784.53.784 1.187.784l.063.052v.169c0 .128-.053.128-.222.128-.212 0-.73-.054-1.47-.054-.583 0-1.495.054-1.749.054-.021-.074-.042-.128-.042-.193 0-.03.011-.093.042-.115l.107-.041h.127c.964 0 1.006-.33 1.006-1.208v-5.017l-.032-.488h-1.419c-.804 0-.93.508-1.131 1.187q-.033.096-.127.095c-.149 0-.244-.043-.244-.105 0-.18.127-1.167.127-2.003 0-.043.148-.043.297-.043.336.457.443.457.898.457h3.939c.741 0 .953-.223 1.218-.551.072 0 .315 0 .315.095 0 .085-.212.953-.233 1.716 0 .116-.032.34-.082.34-.096 0-.34-.055-.34-.107l-.042-.53c-.042-.541-.296-.55-.73-.55h-1.461v5.928zm4.62-5.26c0-.689-.519-.764-1.133-.764-.042 0-.042-.052-.042-.095v-.116c0-.095.18-.106.55-.106.424 0 .901.052 1.346.052.422 0 .845-.052 1.268-.052h2.234c.084 0 .095.096.095.211v1.293c0 .041-.02.085-.072.085-.085 0-.254.01-.265-.118l-.032-.327c-.063-.679-.53-.796-1.123-.796h-1.09c-.593 0-.783.128-.783.932v1.918c0 .03.063.082.086.082l1.248-.04c.635-.022.816-.224.974-.784.021-.065.053-.085.17-.085.074 0 .127.01.127.064 0 .222-.064.71-.064 1.06 0 .57.064.878.064 1.058 0 .065-.106.126-.17.126-.085 0-.158-.03-.18-.137-.053-.285-.053-.488-.106-.635-.054-.159-.18-.234-.498-.243l-1.503-.034c-.148 0-.148.054-.148.128v2.519c0 .763.56.783 1.29.783h.572c.561 0 .953-.01 1.218-.17.233-.138.559-.783.675-1.047.138 0 .318.03.318.106a.7.7 0 0 1-.053.169l-.296 1.071c-.085.286-.138.286-.273.286-1.145 0-2.267-.054-3.8-.054-.35 0-1.24.054-1.78.054-.032 0-.064-.106-.064-.17 0-.084.022-.18.064-.18.92-.043 1.175-.138 1.175-1.112zm8.004 4.432c0 1.547.032 1.558 1.07 1.61l.054.075v.2c0 .064-.16.074-.255.074-.148 0-.857-.054-1.289-.054-.508 0-1.028.054-1.579.054-.042-.021-.053-.085-.053-.193.011-.136.032-.156.338-.156.732 0 .764-.16.764-.964v-5.06c0-.603-.18-.752-1.07-.752l-.032-.052-.02-.17c.01-.115.105-.126.169-.126.287 0 .624.052 1.345.052.529 0 1.164-.052 1.587-.052l.053.072v.193l-.042.063-.286.02c-.423.033-.753.075-.753.563zm5.623.828c0 .784.53.784 1.186.784l.064.052v.169c0 .128-.052.128-.223.128-.211 0-.73-.054-1.471-.054-.582 0-1.492.054-1.746.054-.021-.074-.043-.128-.043-.193 0-.03.011-.093.043-.115l.106-.041h.127c.964 0 1.005-.33 1.005-1.208v-5.017l-.031-.488h-1.42c-.805 0-.932.508-1.133 1.187q-.03.096-.126.095c-.148 0-.243-.043-.243-.105 0-.18.128-1.167.128-2.003 0-.043.148-.043.294-.043.339.457.445.457.901.457h3.938c.742 0 .951-.223 1.216-.551.074 0 .318 0 .318.095 0 .085-.212.953-.233 1.716 0 .116-.032.34-.085.34-.095 0-.337-.055-.337-.107l-.043-.53c-.041-.541-.295-.55-.73-.55h-1.462zm6.631-5.631c-.116-.287-.54-.362-.836-.362l-.065-.052v-.276l.117-.02c.444 0 1.09.051 1.323.051.487 0 .964-.052 1.45-.052l.031.031-.031.295-.498.044c-.168.01-.359.074-.359.232 0 .084.053.223.095.318l1.217 3.177.688 1.575c.074.159.086.19.117.19.022 0 .053-.04.095-.169l1.513-4.01c.169-.454.296-.847.287-.973-.011-.18-.064-.276-.371-.308l-.549-.054-.064-.031v-.33c.411 0 .824.065 1.237.065.328 0 1.027-.064 1.102-.064l.085.043v.243l-.096.072-.329.023c-.212.01-.296.115-.445.486-1.005 2.423-1.248 3.187-2.052 5.229l-.542 1.377c-.052.147-.074.16-.148.16-.095 0-.116-.034-.137-.075zm7.361 3.798-.467 1.504a2.5 2.5 0 0 0-.126.688c0 .35.496.424.783.424.096 0 .116.064.116.2 0 .106-.011.15-.085.15-.242 0-1.017-.055-1.302-.055s-.729.054-1.046.054c-.212 0-.212-.033-.212-.17v-.115c0-.054.095-.074.349-.097.549-.052.623-.157.824-.74l2.099-6.099c.21-.18.432-.421.696-.507l2.656 6.7c.18.445.372.668.986.668.116 0 .137.126.137.244 0 .115-.074.115-.2.115-.17 0-.848-.054-1.259-.054-.424 0-.848.021-1.269.054-.159 0-.17-.033-.17-.18 0-.117.063-.17.211-.17.159 0 .678-.032.678-.286 0-.085-.043-.254-.19-.625l-.679-1.703zm2.339-.411-1.175-3.027h-.021l-1.007 3.027z" clip-rule="evenodd"/><path fill="#000" fill-rule="evenodd" d="M110.9 68.447c0-.211-.01-.265-.052-.35-.095-.18-.562-.56-.742-.57l-.558-.033c-.043 0-.054-.106-.054-.19 0-.053 0-.137.054-.137.327 0 .581-.022.846-.022.486 0 1.259.042 1.45.063l3.206 3.875a25 25 0 0 0 1.725 1.905h.044V68.33c0-.699-.254-.805-.594-.815l-.456-.022c-.041 0-.062-.106-.062-.18 0-.063.031-.167.093-.167.234 0 .784.051 1.302.051.478 0 .985-.051 1.283-.051.051 0 .064.04.064.082v.202c0 .052-.022.063-.095.063h-.278c-.729 0-.729.372-.729 1.271v6.13h-.254l-5.715-6.533v4.86c0 .91.126 1.015 1.037 1.048.042 0 .074.095.074.18s-.01.17-.043.17c-.2 0-.879-.055-1.323-.055-.519 0-.753.054-1.239.054-.065 0-.074-.074-.074-.213 0-.095.01-.136.136-.136.447 0 .953-.108.953-.647zm13.877 2.233-.622 2.006a3.4 3.4 0 0 0-.17.92c0 .465.664.564 1.046.564.126 0 .155.085.155.27 0 .14-.015.196-.113.196-.327 0-1.357-.07-1.74-.07-.38 0-.974.07-1.397.07-.282 0-.282-.041-.282-.225v-.155c0-.07.126-.1.465-.126.733-.072.833-.213 1.102-.991l2.798-8.138c.282-.24.579-.564.931-.678l3.547 8.94c.242.596.496.892 1.313.892.156 0 .184.17.184.326 0 .155-.098.154-.267.154-.226 0-1.131-.07-1.681-.07-.567 0-1.131.029-1.699.07-.21 0-.225-.041-.225-.24 0-.155.085-.226.284-.226.212 0 .904-.041.904-.38 0-.113-.056-.339-.254-.835l-.904-2.274zm3.122-.55-1.567-4.04h-.029l-1.34 4.04z" clip-rule="evenodd"/><path fill="#000" fill-rule="evenodd" d="M138.629 67.145c.329 0 .668.031 1.005.031.264 0 .54-.03.804-.03.159 0 .193.04.193.071v.17c0 .074-.033.128-.074.128-.074 0-.191-.022-.319-.022-.614 0-.614.308-.614.996 0 .603.116 4.562.116 5.142 0 .298.149.638.603.638.424 0 .478.02.478.115 0 .128-.065.234-.096.234-.562 0-1.007-.054-1.449-.054-.445 0-.9.054-1.356.054-.075 0-.085-.043-.085-.106v-.108c0-.106.095-.136.583-.136.211 0 .404-.255.404-.625 0-1.146-.044-3.61-.087-5.42-.042-.01-.031-.01-.031-.01-.592 1.217-1.367 2.983-1.727 3.927l-.993 2.614a.1.1 0 0 1-.095.064c-.054 0-.095-.052-.128-.2a5 5 0 0 0-.265-.773l-2-4.868c-.074-.182-.139-.308-.18-.308-.043 0-.043.21-.043.33 0 .835-.126 4.03-.126 4.55 0 .456 0 .72.93.72.065 0 .074.053.074.18 0 .042-.01.17-.054.17-.149 0-.666-.054-1.236-.054-.604 0-1.198.054-1.346.054-.031 0-.062-.033-.062-.085v-.158c0-.096.082-.106.21-.106.869 0 .995-.265.995-1.187 0-.519.182-4.413.182-4.793 0-.562-.278-.796-1.231-.796-.03 0-.052-.052-.052-.116v-.136c0-.054.031-.096.085-.096.401 0 .784.052 1.208.052.265 0 .54-.052.805-.052.072 0 .147.168.199.306l2.289 5.472h.052zm4.144 3.62c-.763-.456-1.069-.88-1.069-1.702 0-1.326 1.079-2.066 2.508-2.066.401 0 .974.137 1.334.296l.074 1.323v.054c0 .054-.106.074-.254.074-.139 0-.159-.064-.17-.17-.074-.709-.583-1.164-1.336-1.164-.718 0-1.278.507-1.278 1.185 0 .763.465 1.059 1.523 1.619 1.048.55 1.961 1.037 1.961 2.36 0 1.44-1.303 2.193-2.626 2.193-.432 0-1.154-.138-1.558-.308-.082-.043-.115-.18-.147-.414l-.128-.994c0-.064.213-.064.275-.064.033 0 .065.02.087.095.243.805.794 1.271 1.64 1.271.74 0 1.45-.646 1.45-1.366 0-.687-.391-1.1-.944-1.43zm7.75 2.721c0 .784.527.784 1.185.784l.064.052v.169c0 .128-.054.128-.223.128-.211 0-.729-.054-1.471-.054-.583 0-1.493.054-1.747.054-.021-.074-.043-.128-.043-.193 0-.03.013-.093.043-.115l.106-.041h.128c.964 0 1.005-.33 1.005-1.208v-5.017l-.031-.488h-1.42c-.803 0-.929.508-1.131 1.187q-.031.096-.126.095c-.15 0-.244-.043-.244-.105 0-.18.126-1.167.126-2.003 0-.043.15-.043.298-.043.339.457.444.457.9.457h3.937c.74 0 .953-.223 1.218-.551.074 0 .318 0 .318.095 0 .085-.212.953-.234 1.716 0 .116-.03.34-.084.34-.095 0-.339-.055-.339-.107l-.041-.53c-.044-.541-.298-.55-.732-.55h-1.46v5.928zm4.617-5.26c0-.689-.519-.764-1.131-.764-.041 0-.041-.052-.041-.095v-.116c0-.095.18-.106.551-.106.421 0 .898.052 1.344.052.424 0 .846-.052 1.27-.052h2.233c.084 0 .095.096.095.211v1.293c0 .041-.021.085-.074.085-.085 0-.254.01-.265-.118l-.031-.327c-.064-.679-.529-.796-1.123-.796h-1.089c-.592 0-.784.128-.784.932v1.918c0 .03.065.082.085.082l1.249-.04c.635-.022.815-.224.974-.784.021-.065.052-.085.17-.085.074 0 .126.01.126.064 0 .222-.063.71-.063 1.06 0 .57.063.878.063 1.058 0 .065-.106.126-.17.126-.084 0-.156-.03-.18-.137-.052-.285-.052-.488-.106-.635-.054-.159-.18-.234-.498-.243l-1.503-.034c-.149 0-.149.054-.149.128v2.519c0 .763.562.783 1.293.783h.57c.561 0 .953-.01 1.218-.17.232-.138.56-.783.679-1.047.136 0 .316.03.316.106a.7.7 0 0 1-.052.169l-.297 1.071c-.085.286-.137.286-.275.286-1.144 0-2.265-.054-3.801-.054-.35 0-1.239.054-1.777.054-.033 0-.064-.106-.064-.17 0-.084.021-.18.064-.18.918-.043 1.172-.138 1.172-1.112zm6.98.063c0-.532-.022-.796-.687-.796h-.434c-.064 0-.072-.116-.072-.2 0-.052.031-.148.072-.148.614 0 1.239.031 1.853.031.488 0 .964-.03 1.45-.03 1.08 0 2.138.72 2.138 1.831 0 .961-.878 1.607-1.703 1.735v.022c.414.095.846.868.953 1.037l1.162 1.779c.373.56.614.666 1.249.699l.065.062v.202c0 .096-.074.106-.115.106-.224 0-.551-.033-.71-.033-.254 0-.507.033-.761.033-.243 0-.72-.71-1.345-1.822-.69-1.215-1.091-1.883-1.788-1.883-.085 0-.213 0-.372.02v2.594c0 .382 0 .742.531.742.399 0 .579 0 .579.084 0 .2-.031.265-.19.265-.549 0-1.003-.054-1.46-.054-.18 0-1.355.054-1.504.054-.064 0-.085-.139-.085-.223 0-.096.044-.116.255-.126.729-.033.92-.139.92-.868v-5.113zm.952 2.254c.139.01.267.021.404.021.846 0 1.904-.295 1.904-1.545 0-.932-.635-1.536-1.565-1.536-.72 0-.743.17-.743.488zm6.672-2.159c0-.403-.085-.816-.474-.816-.128 0-.464.043-.668.043-.041 0-.041-.159-.041-.213 0-.062 0-.095.18-.136.707-.15 2.403-.265 3.313-.265.581 0 1.131.052 1.65.19 1.441.394 2.784 1.674 2.784 3.622 0 2.624-2.19 3.811-4.2 3.811-1.007 0-1.536-.043-2.066-.043s-1.056.033-1.586.043c-.043 0-.054-.095-.054-.17 0-.073.054-.18.095-.18.339-.043.615-.064.803-.19.159-.108.265-.277.265-.616zm.954 4.719c0 1.167 1.197 1.167 1.662 1.167 1.449 0 2.994-1.198 2.994-3.41 0-1.882-1.013-2.815-1.745-3.24-.508-.223-1.176-.275-1.629-.275-.868 0-1.282.065-1.282.74zm7.37-1.45-.465 1.504a2.5 2.5 0 0 0-.128.688c0 .35.498.424.783.424.095 0 .116.064.116.2 0 .106-.011.15-.085.15-.244 0-1.016-.055-1.301-.055-.286 0-.732.054-1.049.054-.212 0-.212-.033-.212-.17v-.115c0-.054.095-.074.349-.097.552-.052.627-.157.827-.74l2.095-6.099c.213-.18.434-.421.699-.507l2.657 6.7c.18.445.371.668.985.668.118 0 .139.126.139.244 0 .115-.074.115-.202.115-.168 0-.846-.054-1.259-.054a16 16 0 0 0-1.27.054c-.159 0-.169-.033-.169-.18 0-.117.064-.17.213-.17.156 0 .676-.032.676-.286 0-.085-.043-.254-.19-.625l-.677-1.703zm2.338-.411-1.174-3.027h-.021l-1.007 3.027z" clip-rule="evenodd"/><path fill="#000" fill-rule="evenodd" d="M190.634 67.146c.329 0 .666.03 1.005.03.264 0 .539-.03.804-.03.159 0 .193.04.193.072v.169c0 .074-.033.128-.076.128-.072 0-.191-.022-.317-.022-.614 0-.614.308-.614.996 0 .604.115 4.562.115 5.142 0 .298.15.638.604.638.423 0 .477.021.477.115 0 .128-.064.234-.095.234-.562 0-1.007-.054-1.451-.054-.443 0-.9.054-1.355.054-.074 0-.084-.043-.084-.106v-.108c0-.105.095-.136.583-.136.211 0 .403-.254.403-.625 0-1.145-.043-3.61-.084-5.42-.044-.01-.033-.01-.033-.01-.594 1.217-1.367 2.983-1.727 3.927l-.993 2.614a.096.096 0 0 1-.095.065c-.054 0-.098-.053-.128-.2a5 5 0 0 0-.265-.774l-2.002-4.868c-.074-.182-.137-.308-.18-.308-.044 0-.044.21-.044.33 0 .835-.123 4.03-.123 4.55 0 .456 0 .72.93.72.063 0 .074.053.074.18 0 .042-.012.17-.054.17-.149 0-.668-.054-1.236-.054-.604 0-1.198.054-1.346.054-.031 0-.062-.032-.062-.084v-.16c0-.094.082-.105.21-.105.868 0 .994-.265.994-1.187 0-.519.18-4.413.18-4.793 0-.562-.275-.796-1.228-.796-.03 0-.054-.052-.054-.116v-.136c0-.054.033-.095.087-.095.401 0 .784.051 1.208.051.265 0 .538-.051.803-.051.074 0 .149.167.2.305l2.289 5.472h.05z" clip-rule="evenodd"/></svg>