<svg xmlns="http://www.w3.org/2000/svg" width="100" height="100" fill="none"><path fill="#010101" d="M20.286 46.39q.426-1.627.844-3.258.03-.194.033-.392l1.081.137c-.769.368-1 .857-.92 1.57 1.32.175 2.569.872 4.064.6-.08.381-.179.848-.264 1.243-1.254-.829-2.668-.81-4.035-1.178-.1.395-.17.693-.246.994.136.227.258.44.4.685-.354-.024-.655-.044-.962-.062zM52.881 21.3c.179.076.353.146.57.235-.1.114-.2.222-.358.4.213.914.429 1.872.7 3.05.551-1.033 1.009-1.89 1.467-2.753-.1-.175-.175-.32-.3-.556l1.208.169c-1.325 1.174-1.645 2.919-2.768 4.334-.3-1.245-.6-2.363-.835-3.49-.108-.542-.292-1.013-.7-1.386zM49.467 21.3c-.165.146-.335.3-.533.476.1 1.31-.117 2.664.49 4.04l-1.452.105c.618-.656.4-1.325.36-1.981s-.062-1.3-.091-1.975c-.155-.212-.315-.44-.476-.66h1.7zM33.687 36.074q-.036.07-.076.14h.132zm32.933.06.138-.056c-.039-.061-.076-.128-.119-.19-.028.01-.05.02-.079.034.02.07.037.14.06.212m-29.167 33.5c0 .019-.013.042-.018.066q.092.03.184.05c.01 0 .028-.031.046-.056-.074-.018-.14-.041-.212-.06m-3.79-3.055a1 1 0 0 1 .104-.09q-.126-.15-.26-.3l-.112.1c.088.095.18.194.267.294m32.972-.24c-.055-.033-.112-.072-.168-.1q-.095.184-.19.363.058.03.108.062l.25-.321m-32.929-29.2q.064-.097.127-.2c-.117-.09-.264-.277-.354-.26-.225.058-.423.214-.636.327q.03.068.066.136zm32.79-.247c.036.07.08.14.116.212h.811a.98.98 0 0 0-.566-.472c-.085-.023-.24.17-.362.26m-.1 28.77c.444.279.726.17 1-.27-.42-.112-.775-.281-1 .27m-33.717-.35c-.019.08-.037.168-.052.246.3.1.6.2 1.08.356-.128-.374-.184-.54-.25-.728-.3.048-.538.086-.778.127m35.4-.772c-.894-.278-1.107-.268-1.62.029.547.477.947.48 1.62-.03m-36.224-.042c.6.557 1.155.31 1.72.249-.216-.537-.513-.58-1.72-.25m36.348-26.5c-.368-.551-.6-.6-1.66-.367l.09.367zm-34.43.094c-.039-.2-.062-.362-.09-.5-1.316-.071-1.373-.057-1.552.5zM33.6 63.5c-.769-.02-1.48-.094-2.315.062.67.57 1.966.519 2.315-.062m32.972.072q-.026.12-.052.245c.5.343 1.145.065 1.692.226.133.038.335-.175.51-.28-.019-.065-.039-.127-.057-.2H66.57zm-32.74-24.764c-1.013-.518-2.03-.392-2.428.259.86-.067 1.674.142 2.428-.26m35.5 23.778H66.58v.456c2.328.226 2.375.222 2.748-.456m-2.739-22.727h2.857c-.416-.494-1.73-.618-2.89-.344.014.1.02.208.033.344m0-.891h2.39c-.778-.891-1.607-.43-2.39-.556zM54.4 73.2c-1.038 0-2.075-.015-3.107.014-.156.006-.307.2-.457.307l.09.189c1.182.052 2.356-.01 3.474-.51m-9.648-.193c0 .064-.009.137-.013.2 1.46.179 2.923.353 4.517.547-.133-.263-.175-.442-.227-.442-1.429-.114-2.853-.208-4.277-.307M30.768 39.98h2.942q.02-.27.043-.513c-2.32-.147-2.576-.108-2.985.513m2.772 22.038.034-.316c-1.1-.222-2.227-.065-3.452-.155.122.24.184.457.24.457 1.061.018 2.122.014 3.178.014m.4-21.613c-1.282-.023-2.37-.18-3.455.09-.052.013-.066.183-.123.373 1.141 0 2.211 0 3.282-.011.057-.005.108-.16.3-.452m27.834 29.949a3 3 0 0 1-.089-.245q-2.476.276-4.956.546c1.358.08 2.712.105 4.065.062.324-.01.65-.234.98-.363M33.55 62.524h-2.937c.18.25.3.424.372.523h2.565zM66.484 61q.036.107.067.213c1.167 0 2.333.008 3.5-.02.095 0 .18-.258.316-.465-1.254 0-2.376-.01-3.5.013-.127 0-.255.165-.382.259m3.484.74c-1.362-.306-3.084-.183-3.47.274 1.018.39 2.037.108 3.032.1.131 0 .26-.217.438-.372M66.54 41.429c.406.4 2.882.47 3.815.194-.085-.118-.155-.317-.235-.317-1.194-.051-2.39-.216-3.58.123m-32.8.32c.02-.07.033-.136.052-.207-.1-.08-.193-.231-.292-.231a83 83 0 0 0-3.24-.02c-.136 0-.264.228-.523.458zm10.23 28.937a24.3 24.3 0 0 0-5.508-.4c.68.553 2.811.7 5.507.4M33.746 60.18c-.22-.246-.3-.416-.38-.416-1.33-.018-2.66-.008-4.145-.008.2.23.283.41.372.415a606 606 0 0 0 4.153.009M69.9 40.835c-.089-.575-.424-.547-.73-.547h-2.658c.048.274.067.4.1.575 1.113.015 2.188.08 3.286-.028M29.585 60.719c.244.22.352.409.476.414 1.07.047 2.145.07 3.215.07.12 0 .241-.178.358-.277-1.343-.3-2.607-.448-4.049-.207M66.5 43.136c.076.245.1.429.136.429 1.481.014 2.967.014 4.451.014.02-.514-.334-.48-.64-.48-.623.005-1.246.028-1.868.032-.669.01-1.334.005-2.079.005m-37.423.48h4.7c-.052-.18-.076-.367-.108-.367-1.462-.014-2.925-.014-4.455-.014q-.017.064-.138.38m41.69 16.293a2 2 0 0 1-.052-.2h-2.118c-.565 0-1.135 0-1.7.044-.146.008-.283.2-.5.367.5.16 3.828.193 4.111.07.108-.047.175-.187.264-.286m-37.1-2.037h-5.01c.24.434.24.434 3.24.514 1.427.033 1.427.033 1.767-.514m32.877-13.504c.481.24 4.021.26 5.012-.01-.633-.67-1.382-.283-2-.311-2.668-.133-2.7-.094-3.012.32m-.07 14.767q.047.091.088.189c1.373 0 2.746.014 4.117-.02.165 0 .326-.226.486-.347a38 38 0 0 0-4.282-.124c-.13.006-.273.2-.409.3m-37.353.147c1.524.028 3.008.168 4.64-.066-.548-.43-2.6-.6-4.6-.5-.048.005-.089.057-.184.119.042.13.095.278.146.443m37.336-2.262c-.014.07-.033.14-.047.21.1.076.2.224.3.224 1.557.018 3.112.027 4.67.009.14 0 .282-.212.564-.443zm5.012 1.136q-.034-.136-.075-.268H66.41c.041.172.041.353.09.367 1.47.39 2.96.08 4.441.094.18 0 .358-.128.532-.193M53.5 29.184c-2.358-.6-4.715-.556-7.078 0zm17.048 13H66.58c-.01.2-.019.349-.025.51h4.267c-.132-.255-.207-.391-.269-.51M33.753 44.5c0-.117 0-.23.01-.35-1.6-.25-3.23-.022-4.862-.15-.057.165-.1.293-.2.553 1.74-.221 3.4.324 5.05-.053m-4.1-2.33c-.047.21-.084.355-.127.543H33.8c-.218-.52-.212-.537-.64-.542-1.138-.01-2.27 0-3.5 0m36.861 4.036c.018.066.043.128.062.194 1.791-.052 3.587.06 5.4-.151-.074-.193-.164-.35-.258-.35q-2.469-.028-4.932-.004c-.1.005-.18.208-.269.31m-32.624.127c-.212-.227-.306-.415-.4-.415a221 221 0 0 0-5.013-.014c-.089 0-.179.207-.358.429zm38.23.89.056-.3c-.264-.06-.528-.17-.8-.173-1.137-.02-2.273-.01-3.4 0a9 9 0 0 0-1.108.042c-.132.019-.25.179-.373.278.028.053.053.11.076.16h5.55zM28.4 56.853a7 7 0 0 1-.09.348c.237.09.462.242.7.255 2.858.16 4.267.057 4.8-.447-1.88-.207-3.65.046-5.4-.156m-.39-1.735q0 .164.031.325c1.707.06 3.415.123 5.121.16.19.005.377-.084.708-.165-.213-.183-.292-.311-.368-.311-1.83-.01-3.655-.01-5.493-.01m44.287-6.55c-1.8 0-3.574-.01-5.347.014-.142.005-.283.227-.424.345l.112.15h5.771zm-5.932 6.86c.227.076.392.16.562.18q.55.046 1.1.038 1.823-.01 3.65-.03c.286 0 .51-.045.414-.415-1.4-.253-5.224-.14-5.729.227m-24.3 16.72c2.1.783 4.281.457 6.47.452-.214-.23-.459-.434-.708-.438-1.919-.023-3.839-.014-5.762-.014M27.826 53.64c1.956.142 3.9.2 5.865-.051a.84.84 0 0 0-.594-.321c-3.174-.175-4.87-.081-5.27.372m.145-6.412h5.82c-.387-.51-1.51-.6-5.093-.485-.284.009-.642-.081-.727.485m44.538 5.35q-.03-.098-.065-.206c-.246-.023-.5-.062-.74-.062q-2.214-.009-4.429 0c-.169 0-.363-.023-.5.043-.123.06-.188.235-.4.518 2.08 0 3.947.006 5.815-.01.108-.01.216-.187.324-.282m-38.767-4.663c-.076-.066-.113-.132-.155-.132-1.777-.052-3.555-.108-5.332-.132-.16 0-.32.179-.482.274q.036.129.071.248 2.88 0 5.762-.01c.048 0 .094-.17.136-.248m-5.987.967.07.164h5.942c-.085-.188-.129-.367-.175-.367a372 372 0 0 0-5.588-.052c-.08 0-.164.17-.249.255m38.74 1.872c.024.074.042.15.065.23h1.768c1.194 0 2.386.005 3.58 0 .25 0 .618.114.575-.51-1.905-.061-3.815.015-5.724.057-.089-.005-.174.142-.264.227m-.1 3.7c.123.108.18.209.24.213 1.777.023 3.561.047 5.337.042.12 0 .241-.211.411-.368-1.259-.316-5.37-.234-5.988.113m-38.225 1.567c.165.55.165.55.588.55.817 0 1.632.019 2.448 0 .8-.023 1.59-.093 2.542-.155-.195-.236-.26-.377-.326-.377-1.745-.014-3.49-.014-5.252-.014m.188-10.778c.25.13.344.22.44.225 1.583.019 3.168.034 4.751.028.1 0 .208-.182.312-.278-.014-.065-.034-.131-.048-.2a82 82 0 0 0-4.945-.1c-.133-.005-.26.156-.51.326M66.46 47.8c.137.186.2.34.26.34 1.852.014 3.7.009 5.577.009.076-.574-.33-.523-.64-.517-1.463 0-2.929.019-4.39.042-.24 0-.477.075-.807.126m-38.588 6.412-.074.274c.235.078.466.22.706.234.595.034 1.19.019 1.788.014.967-.005 1.932-.005 2.894-.037.18-.005.36-.155.533-.241q-.036-.119-.07-.244zm38.583 2.239c.463.029.93.07 1.391.086q1.78.048 3.56.075c.27 0 .61.05.538-.411-1.255-.35-5.02-.3-5.489.25m-32.764-5.525c.02-.062.037-.128.062-.19-.123-.074-.246-.216-.369-.221a291 291 0 0 0-5.365-.142c-.142 0-.287.227-.434.349.034.066.071.133.1.2h6zm32.661 2.682c.35.086.528.164.7.164.82.016 1.637.006 2.457.006s1.636.024 2.456.005c.137-.005.27-.151.482-.278-.907-.378-5.367-.34-6.1.1m-38.634-2.242c-.043.082-.085.156-.128.236.151.094.3.274.457.274 1.877.029 3.76.132 5.7-.005-.066-.235-.1-.363-.14-.508h-5.889zm6.124 1.019c-1.193-.048-2.206-.165-3.216-.113-.985.052-2-.212-3.073.146.156.208.235.4.315.4q2.85.029 5.7.005c.052 0 .105-.165.274-.44m24.051 19.79h-1.056c-1.584 0-3.163-.005-4.747-.005-.374 0-.726.035-.8.58.292.02.542.049.786.043q1.732-.051 3.472-.108c.754-.024 1.537.105 2.347-.51M71.557 44.9h-4.069c-.057 0-.113-.005-.17 0-.306.037-.7-.108-.8.377.551.32 4.49.335 5.215.009-.057-.117-.11-.241-.175-.386m.915 6.5h-5.96c.033.2.062.326.085.467 1.985.126 3.923.188 5.87-.024V51.4zM39.736 71.238c1.348.66 2.6.456 3.847.429s2.48 0 3.73 0c-.8-.567-4.895-.811-7.577-.424m-6.026-21.12c.1-.641-.255-.641-.567-.646a365 365 0 0 0-5.02 0c-.17 0-.345.133-.515.2.02.094.034.188.052.283 2 .207 4.008.136 6.05.16m32.86-.062c1.866 0 3.648.005 5.426-.01.18 0 .358-.141.7-.283-.3-.16-.41-.273-.524-.273a461 461 0 0 0-5.44.006c-.048 0-.1.056-.156.094v.466zm-6.413 21.09c-2.312 0-4.49-.014-6.667.01a1.72 1.72 0 0 0-1.264.562c.325.032.518.074.707.074 1.646 0 3.286-.014 4.928-.005.772.005 1.527-.018 2.3-.641m-.16-40.068c-.944-.75-1.845-.547-2.713-.552q-7.7-.029-15.4-.042c-.482 0-.93.085-1.353.594zm-21.01.674c.02.08.033.16.051.24 7.478.029 14.958.106 22.458-.136-.3-.212-.609-.36-.925-.36-2.984-.008-5.964.006-8.945.01-1.842.006-3.687.019-5.53.006-1.99-.02-3.974-.081-5.965-.081-.38 0-.763.208-1.14.32m-1.4 1.133c8.485.037 16.86.155 25.247-.137-.31-.207-.646-.373-.98-.377-2.16-.014-4.315.014-6.474.009q-8.311-.007-16.616-.037c-.443 0-.844.037-1.178.542m-2.32 1.725c9.924.118 19.787.22 29.741-.037-.25-.5-.613-.43-.933-.425-1.449.014-2.892.062-4.339.067q-6.173.012-12.353 0c-1.786 0-3.569.005-5.356-.01-1.933-.014-3.862-.042-5.79-.061-.364-.005-.74-.023-.97.462M64.14 33.8c-.344-.6-.758-.546-1.146-.537-1.957.033-3.918.085-5.875.094-1.87.009-3.743-.018-5.619-.032q-4.258-.03-8.516-.053c-1.9-.01-3.81-.01-5.71-.013-.349 0-.684.018-.877.54zM49.807 72.728c.68-1.694 1.957-2.41 3.5-2.731q1.336-.273 2.693-.406c2.292-.235 4.573-.462 6.732-1.366 1.515-.632 2.368-1.627 2.344-3.363-.038-2.522.037-5.041.056-7.563.02-2.753.025-5.511.038-8.27q.03-5.623.062-11.25c.005-.726 0-1.452 0-2.15-1.458-.25-29.8-.24-30.52-.005-.01.213-.033.434-.033.66-.015 2.613-.01 5.23-.039 7.842-.046 4.262-.117 8.52-.159 12.783-.029 2.7-.02 5.4-.029 8.095-.005 1.06.2 2.093 1.038 2.782.594.486 1.34.938 2.078 1.079 2 .388 4.032.64 6.054.877 2.358.278 4.607.755 6.187 2.986m7.337-42.723.575.179q.013-.069.03-.137c-.2-.01-.412-.018-.614-.03-.33-.474-.83-.404-1.3-.404-2.613 0-5.22.005-7.832 0-1.189 0-2.376-.043-3.569-.052a2.52 2.52 0 0 0-1.73.6c1.853 0 3.512.019 5.171 0 3.094-.037 6.182-.1 9.271-.151m5.634 39.6q-.184.014-.368.034l.042.117c.1-.057.213-.108.317-.165.046-.018.094-.032.037-.013.043-.048.01-.01-.028.027M50.03 27.572c13.112.136 23.3 10.269 23.617 22.835.372 14.4-11.335 24.277-22.872 24.493-13.339.25-24.542-10.32-24.3-24.153.221-12.877 11.556-23.453 23.556-23.175M79.436 57.483c-.128.44-.245.864-.392 1.377-.476-.777-1.192-.739-1.923-.957-.208.712-.411 1.406-.627 2.161.7.211 1.287.712 2.145.17l-.41 1.461c-.671-.737-3.565-1.518-4.371-1.176q.211-.752.386-1.36c.307.2.576.418.877.554.3.136.646.19 1.052.3.212-.726.415-1.419.632-2.17-.708-.216-1.3-.682-2.122-.2.156-.533.287-.986.424-1.46.6.711 3.376 1.545 4.329 1.304M22.144 40.18c.241-.5.434-.905.7-1.462.222.952.985 1 1.651 1.382.333-.675.659-1.316 1.008-2.014-.641-.391-1.155-.886-2.051-.593.25-.52.443-.916.651-1.34.533.83 3.125 2.094 4.083 1.938l-.59 1.245c-.269-.246-.494-.5-.773-.69-.279-.188-.608-.291-1.009-.48-.33.675-.646 1.32-.986 2 .609.438 1.165.82 2.023.688-.225.453-.418.845-.636 1.279-.467-.845-3.107-2.127-4.069-1.957M64.6 27.491c.434.472.9.684 1.357.387.264-.17.51-.585.519-.891.014-.509-.353-.849-.9-.975-.33.5-.641.97-.971 1.479m.221-2.253c.661.415 1.41.735 1.952 1.274.783.777.273 1.73-.981 2v2.616c-.2-.117-.434-.249-.6-.343-.442-.982.374-2.2-.853-3.027-.316.65-.594 1.23-.9 1.861l-.944-.638c.278-.25.565-.429.746-.684.494-.692.97-1.4 1.4-2.13.151-.264.141-.622.2-.938zM39.528 28.053c-.386.132-.768.264-1.155.39-.019-.046-.033-.09-.051-.131q-.173.29-.374.56c-.772.934-1.975.878-2.635-.141-.368-.57-.656-1.192-1.023-1.762-.18-.278-.472-.482-.77-.77.321-.183.718-.42 1.052-.612.142.415.236.8.4 1.15.246.51.552.99.826 1.486.24.443.528.834 1.1.792.6-.048.971-.42 1.155-.982.032-.1.051-.216.076-.32-.944-2.013-1.355-2.616-2.071-2.96.443-.255.849-.486 1.306-.746-.179.953 1.339 3.6 2.145 3.853.005.06.014.127.019.193M57.526 76.05c-.349.025-.7.049-1.165.076l.467 1.74c1.244-.353 1.42-.792.7-1.816M60.991 74.312l1.084-.622c.1.362.155.706.3 1 .278.558.618 1.08.93 1.623.248.428.526.843 1.1.786.6-.06.966-.429 1.15-.985.032-.1.052-.217.094-.4-.707-.892-.953-2.159-2.065-2.9.33-.2.73-.439 1.226-.731-.245.963.4 1.513.773 2.154s.548 1.452 1.561 1.815l-1.415.478q-.136.249-.312.471c-.767.9-1.937.839-2.579-.143-.386-.589-.7-1.23-1.093-1.819-.17-.264-.448-.443-.759-.73M36.648 77.573c.849.751 1.6.921 2.253.581.707-.368 1.278-1.475 1.155-2.311-.15-1.021-.9-1.414-1.844-1.7-.527 1.16-1.041 2.282-1.564 3.431m-1.179-.041c.853-.533 2.093-3.253 1.886-4.159.815.4 1.6.716 2.315 1.155 1.06.656 1.352 1.857.806 2.971-.514 1.052-1.532 1.461-2.726 1.032-.763-.274-1.489-.646-2.281-1"/><path fill="#010101" d="M69.1 71.237c.41-.31.75-.65.618-1.2-.1-.406-.366-.717-.81-.76-.532-.057-.878.232-1.113.6.467.485.873.905 1.3 1.357m-2.361-.886c.425-.373.854-.745 1.277-1.128.477-.423 1.01-.682 1.632-.386s.689.854.57 1.523l2.632.415c-.17.193-.344.387-.434.485-1.08.307-2.088-.758-3.08.193.444.572.83 1.127 1.675 1.2-.368.321-.7.618-1.038.91-.033-.82-.782-1.2-1.33-1.707-.548-.506-.891-1.287-1.785-1.3l-.12-.208M23.337 60.6a2.53 2.53 0 0 0 1.815-.836c.764-.862.406-2.1-.693-2.451-.726-.231-1.4-.052-2.047.283-.824.433-1.2 1.13-.994 1.848.216.77.825 1.169 1.919 1.156M21.1 58.913a2.39 2.39 0 0 1 2.33-2.43c1.273-.041 2.409 1.11 2.428 2.453a2.38 2.38 0 0 1-2.343 2.41c-1.34.018-2.406-1.053-2.415-2.433M41.456 23.517c.208.905.392 1.82.642 2.72.065.231.329.411.533.647-.316.085-.651.18-1.137.31.584-.88.08-1.6-.108-2.305-.19-.705-.015-1.668-1.27-1.994.538-.147.892-.246 1.255-.344 1.113.83 2.2 1.635 3.32 2.466-.023-1.434-.457-2.6-1.193-2.99l1.085-.306c.028.476.005.947.094 1.39.2.943.457 1.872.688 2.806a1 1 0 0 1-.051.25 4 4 0 0 1-.558-.3c-.866-.638-1.725-1.293-2.593-1.929a7 7 0 0 0-.726-.41l-.028-.043zM72.835 62.948l1.065.637c-.388.034-.59.034-.788.061a1.488 1.488 0 0 0-1.226 1.882c.3.985 1.722 1.805 2.73 1.58.7-.162 1.155-.567 1.3-1.275-.659-.725-.862-.792-1.72-.447.35-.575.627-1.037 1-1.66.014 1.042.882 1.08 1.424 1.664-.335.535-.624 1.146-1.052 1.647-.9 1.051-2.13 1.122-3.169.264-1.038-.858-1.22-2.283-.4-3.339.25-.34.527-.65.84-1.014M61.77 23.616c-.08.245-.143.43-.233.707-.344-.843-1.112-.815-1.8-1.136-.207.546-.406 1.061-.618 1.612.585.335 1.09.656 1.815.372-.113.335-.212.615-.316.916-.273-.218-.477-.425-.716-.56-.239-.137-.528-.19-.9-.322-.2.533-.388 1.042-.6 1.635.537.213 1 .4 1.457.585l.844-.32c-.2.316-.32.514-.48.773-1.015-.368-1.986-.726-3.038-1.107.86-.482 1.906-3.343 1.562-4.258 1.045.381 2.012.735 3.031 1.1M28 30.933c.217.165.369.28.627.472-.966.005-1.16.783-1.693 1.3.448.381.868.74 1.41 1.21l.995-1.57c.146.123.378.321.543.457-.449.392-.877.77-1.391 1.217.537.448.962.8 1.419 1.18.524-.624 1.273-1.024 1.089-2.019l.514.641c-.693.84-1.358 1.636-2.06 2.48-.218-.914-2.363-2.776-3.433-2.98.661-.792 1.286-1.55 1.98-2.386M35.124 71.87c-.145.2-.259.348-.434.583-.094-.914-.843-1.136-1.353-1.649-.386.466-.74.905-1.188 1.447.552.34 1.047.647 1.58.971-.128.156-.32.388-.434.524-.415-.449-.8-.859-1.249-1.344-.429.51-.783.933-1.18 1.41.44.377.822.708 1.212 1.041.264-.012.51-.032.877-.05-.249.235-.424.4-.665.622-.824-.676-1.626-1.33-2.522-2.066 1.013-.094 1.3-.906 1.76-1.476.458-.57 1.2-.985 1.106-2.037zM28.76 65.2c-.289.15-.472.245-.764.4l.253-.661c-.225-.4-.45-.782-.72-1.255-.514.288-.99.563-1.524.859.218.386.4.707.585 1.047.2.06.4.123.726.222-.39.226-.693.4-.923.537-.195-.552-.374-1.07-.585-1.674-.717.443-1.5.533-1.72 1.509-.29-.51-.52-.924-.789-1.41.944.284 1.5-.357 2.132-.726.645-.377 1.5-.53 1.814-1.5l1.514 2.65M78.163 40.59c-.188.089-.454.216-.627.3a309 309 0 0 0-.245-1.767c-1.373.763-2.763 1.052-3.877 2.069-.16-.358-.339-.753-.5-1.117 1.491-.014 2.561-1 3.834-1.406-.15-.91-.226-1.008-1.047-1.353.283-.145.524-.273.765-.395.565 1.23 1.117 2.418 1.7 3.668M72.189 31.127l-.712.67c.2-1.16.136-1.311-.712-1.722-.613.128-.7.576-.622 1.095.06.42.188.829.241 1.249.085.7-.227 1.239-.783 1.447-.613.232-1.231.024-1.632-.56-.189-.275-.368-.548-.594-.887l.7-.7c.043.023.08.047.123.07a4.6 4.6 0 0 0-.188.656c-.085.561.372 1.132.886 1.137.485.005.768-.372.712-1.029-.033-.418-.16-.834-.2-1.254-.06-.711.251-1.258.788-1.452.562-.2 1.1.01 1.533.6.146.208.283.415.462.675M79.257 44.635c-.213-.132-.316-.2-.42-.259-.378.367-.755.736-1.184 1.15.581.19 1.067.76 1.835.236l.226.991c-.877-.359-1.7-.7-2.523-1.037-.7.306-1.589.046-2.1.928-.119-.523-.227-.985-.345-1.518.9.462 1.744.235 2.414-.222s1.182-1.174 1.79-1.804c.094.462.19.948.307 1.537M70.534 36.177c1.013 0 3.475-1.722 3.7-2.631.32.46.593.853.914 1.31-.905-.09-3.394 1.6-3.748 2.518-.3-.42-.567-.788-.863-1.2M21.988 51.231l.7.3v.236c-.2.088-.43.283-.584.235s-.227-.335-.34-.524c.076-.08.145-.16.22-.245M78.493 51.67c-.293.174-.457.353-.627.353-.128 0-.255-.22-.383-.344.147-.136.275-.343.444-.386.113-.033.282.174.566.377M64.824 25.233l.014-.014-.028-.014zM55.064 47.168c0-.03-.014-.053-.02-.081-.06.015-.121.028-.183.047q.015.041.023.085c.057-.02.118-.032.18-.051m-3.461-5.3-.108-.028c0 .014.009.047.018.047a1 1 0 0 0 .09-.02m3.079 11.67-.034.047.044.014zm-5.64-11.188.166-.181c-.056-.046-.113-.1-.175-.145-.047.05-.1.108-.145.16q.074.08.154.166M55.206 52a.1.1 0 0 1-.04 0c0 .072-.008.138-.013.208h.039c0-.07.009-.14.014-.207m-3.98 17.615c0 .039.01.076.014.117.09-.013.179-.022.264-.037 0-.037-.01-.076-.014-.108zm-.505-27.39c-.042-.027-.08-.056-.122-.084q-.076.114-.151.222c.043.028.08.056.123.085.047-.071.1-.146.15-.222m4.442 4.452h.037v-.4h-.033zm-3.946-5.762c-.062-.028-.122-.061-.184-.09-.062.156-.122.317-.184.472.047.024.1.047.145.066.072-.146.147-.3.223-.448m4.327 12.876h-.032v.7h.032zm-4.384 7.8-.166-.151c-.163.227-.33.448-.494.674.05.038.1.08.156.118.17-.212.334-.425.5-.641m-.6-22.24c.122.282.235.588.707.225-.326-.1-.514-.165-.707-.225m-2.133.447c-.08 0-.164-.013-.244-.018v.556c.062.005.122.005.184.009.023-.183.042-.368.06-.547m-.1 2.084c.1-.014.193-.033.292-.047-.053-.156-.1-.311-.166-.458-.01-.023-.1-.014-.2-.028.023.188.05.363.076.533m.38-2.48q.05.13.1.259l.576-.282-.07-.161q-.3.084-.6.184m-.886 22.184a3 3 0 0 0-.161-.137c-.236.222-.466.443-.7.665.047.046.094.1.14.146q.36-.34.723-.674m4.182-21.792-.27.042c.02.236.034.472.054.707.085 0 .173-.014.258-.02zm.448 26.36.216-.084-.494-1.33a4 4 0 0 0-.193.076q.24.664.47 1.339m.32-28.732c.062.057.123.108.185.165.29-.354.579-.7.87-1.056-.041-.033-.078-.067-.121-.1l-.933.99m-2.372 4.4c-.232-.211-.415-.372-.6-.537a1 1 0 0 1-.161.089c.043.24.085.482.142.812.255-.146.386-.222.618-.364M49.07 40.34c-.35.485-.41.787.14 1.155.12-.132.242-.268.5-.565a87 87 0 0 0-.64-.59m4.984 28.4v-1.764h-.19c-.14.584-.126 1.178.19 1.767m-4.191-29.03c-.354.359-.25.65.165 1.075.212-.193.4-.367.632-.574-.27-.251-.36-.36-.471-.43a1.3 1.3 0 0 0-.326-.071m-1.1 21.476c-.3.378-.538.665-.821 1.02h1.495c-.236-.36-.415-.633-.674-1.02m-.717-22.484c-1.027-1.76-1.376-2.122-2.028-2.207.727.783 1.378 1.493 2.028 2.207m2.31-.624q.15.05.3.105c.287-.553.575-1.1.928-1.773-.43.042-.7.065-1.066.1-.057.547-.108 1.057-.165 1.565m-3.271-1.546c.508.717.994 1.358 1.682 1.853-.212-.75-.386-1.5-.97-2.094-.25.085-.454.156-.712.24m1.527-.127c.164.834.66 1.363 1.13 1.919v-1.916zm-1.136 33.25c.678.467 1.268.354 1.872.225.236-.918-.292-2.05.89-2.587-.66-.241-.971-.123-1.122.523-.127.538-.136 1.1-.2 1.716-.448.043-.864.076-1.438.123m3.167.5-.235-2.371c-.85.81-.378 1.764-.608 2.579-.241.047-.471.1-.792.164.259.227.462.406.707.624.34-.36.646-.69.928-1m3.518-8.53a1 1 0 0 0-.184.039c-.038.645-.07 1.295-.108 2.065h-7.37v.207h7.658zm-9.182-16.194c-.585.364-.764.81-.764 1.4-.01 2.442-.047 4.885-.071 7.327-.005.26.052.523.094.929.312-.4.519-.66.736-.943v-8.713zm-.505 10.326h4.682c.194.34.33.58.444.792.753.237.829-.344 1.04-.838l4.31-.218c-.617-.99-1.126-1.234-2.111-1.032-1.1.22-2.1.66-2.975 1.428-.232-.156-.457-.277-.652-.438-.928-.792-2.046-.93-3.2-.882-.707.019-1.178.429-1.541 1.188m8.676 5.305c-1.084-1.151-2.16-2.287-3.23-3.424-1.1.868-2.961 2.815-3.235 3.419H51.8c-.165.458-.29.787-.425 1.169h1.275c-.26-.4-.476-.735-.75-1.164zM50.377 44.3c2.716-2.691 5.346-5.3 8.068-8h-3.376a1445 1445 0 0 0-2.58 2.863c.726 1.739.383 2.644-1.211 3.517-.311.169-.571.438-.812.63-.032.375-.056.647-.088.99m-5.49-7.93h-3.214l7.916 7.884c.132-.882-.378-1.383-1.051-1.76-.59-.33-1.075-.74-1.25-1.423-.18-.712.033-1.34.519-1.93-.957-.91-1.9-1.804-2.92-2.771m15.366 31.883c.02-.09.044-.184.062-.273-1.867-1.816-3.578-3.791-5.643-5.607-.034.745-.062 1.33-.09 1.985a245 245 0 0 0-1.89.2c.235.633.437 1.18.645 1.73.439.034.816.056 1.287.09v2.54c1.962-.23 3.8-.445 5.629-.663m-14.521.886V66.4c.5-.053.886-.094 1.306-.142.22-.593.429-1.158.65-1.773-.608-.051-1.08-.094-1.451-.126-.868-.736-.368-1.67-.556-2.438-2.145 2.178-4.278 4.337-6.451 6.544 2.108.217 4.239.443 6.5.679M54.2 45.046c-1.424.023-2.707.188-3.938 1.1-.02 2.669-.037 5.356-.042 8.044 0 .23.122.467.207.759 1.2-.712 2.386-1.2 3.81-.91.014-2.985.306-5.918-.037-8.991m-4.848 9.915q.07-.166.109-.343c.056-2.693.123-5.386.14-8.077a1.18 1.18 0 0 0-.456-.845c-1.076-.716-2.278-.92-3.664-.731v9.144c1.343-.118 2.65-.024 3.87.852m14.92-11.431c-2.578 2.527-5.125 5.02-7.737 7.582 2.575 2.6 5.092 5.153 7.738 7.826zm-28.837-.126v15.642c2.636-2.724 5.365-5.185 7.865-7.925-2.66-2.607-5.21-5.111-7.865-7.717M55.149 48.4c-.014-.306.213-.71-.372-.876.046.377-.255.777.277.96-.01.807.236 1.624-.268 2.4-.113.174.032.519.057.787.06 0 .122-.014.183-.02q.106-.523.212-1.05c.07.009.142.02.213.023v2.174h.118v-2.9c-.076.029-.161.06-.292.114v-1.067c.13-.034.225-.052.315-.075V47.8c-.274.146.066.674-.443.6m-3.47-10.551c.617-.25.815-.825 1.075-1.353-.552.3-.876.782-1.057 1.367q-.204.176-.41.344.099.07.2.132.095-.248.195-.49m.679.326c.019-.011.032-.024.05-.034-.008.019-.022.034-.031.052a1 1 0 0 1-.048.056.4.4 0 0 1 .029-.074M64.7 36c0 1.066-.006 2.05 0 3.036.019 2.414.065 4.828.065 7.238 0 3.55-.046 7.1-.071 10.652a2792 2792 0 0 0-.032 7.416c-.01 2.244-.547 2.96-2.637 3.72-1.814.66-3.695.849-5.59 1.066-1.294.15-2.579.375-3.847.672-1.022.236-1.858.838-2.508 1.679-.1.132-.221.245-.358.4-1.651-1.872-3.8-2.373-6.14-2.528-1.7-.113-3.38-.391-5.067-.618a4.3 4.3 0 0 1-.981-.278c-2.118-.8-2.618-1.484-2.607-3.743q.027-9.933.1-19.855c.018-2.782.075-5.564.117-8.345 0-.142.019-.278.043-.514.39-.044.773-.118 1.155-.123 1.758-.006 3.512.014 5.266.019 2.693.014 5.389.042 8.082.032 2.834-.01 5.668-.08 8.5-.075 2.12.009 4.243.094 6.512.15"/><path fill="#010101" d="M45.771 49.435c.273-.127.461-.3.613-.278a5.34 5.34 0 0 1 3 1.575c-1.147-.41-2.3-.825-3.617-1.3M45.856 46.564c1.391.255 2.6.655 3.621 1.5-.029.065-.052.132-.08.2-.374-.17-.735-.363-1.118-.51-.443-.174-.91-.3-1.358-.466-.363-.136-.914.034-1.065-.721M45.747 51.84c1.467.019 2.56.482 3.566 1.183l-.057.17c-.6-.194-1.222-.367-1.817-.59-.517-.187-1.226.038-1.692-.763M53.546 49.237c-.854.787-2.121.717-3.056 1.552.156-.81 2.005-1.75 3.056-1.552M53.626 51.9c-1.038.373-2.074.75-3.121 1.123.33-.558 1.259-1.123 2.338-1.387.227-.057.482-.01.726-.01.02.09.038.185.057.274M53.6 46.917c-.948.392-1.9.778-2.843 1.169.132-.683 2.008-1.578 2.843-1.169"/></svg>