<svg xmlns="http://www.w3.org/2000/svg" width="135" height="100" fill="none"><g fill-rule="evenodd" clip-path="url(#a)" clip-rule="evenodd"><path fill="#F9423A" d="M15.146 68.987c10.145 0 14.967-6.006 14.967-13.83h.046V31a.195.195 0 0 0-.182-.183H21.56a.195.195 0 0 0-.182.183v22.927c0 5.006-2.184 7.598-6.37 7.598-4.185 0-5.959-2.593-5.959-7.598V31a.195.195 0 0 0-.182-.183H.451A.195.195 0 0 0 .27 31v24.157c0 8.19 4.731 13.83 14.876 13.83m43.849-9.138H36.146v7.477h22.849a.196.196 0 0 0 .184-.183v-7.11a.2.2 0 0 0-.184-.184M36.146 45.331h18.81a.2.2 0 0 1 .186.186v7.08a.2.2 0 0 1-.186.186h-18.81zm22.817-14.514H36.146v7.469h22.817a.2.2 0 0 0 .183-.184v-7.101a.196.196 0 0 0-.183-.184"/><path fill="#000" d="M85.436 30.8a1.137 1.137 0 0 1 1.127 1.128 1.135 1.135 0 0 1-2.27 0 1.14 1.14 0 0 1 1.142-1.128m-.918 3.58h1.82v7.4h-1.82zm-11.809 5.835c.617-.917.782-2.12.782-3.73l.002-5.595h-1.85v5.624c0 1.188-.09 2-.436 2.587-.391.676-1.083 1.098-2.226 1.098-1.263 0-1.94-.512-2.301-1.144-.316-.555-.421-1.291-.421-2.57V30.89h-1.912v5.716c0 1.473.165 2.677.767 3.58.722 1.097 2.045 1.758 3.79 1.758 1.685 0 3.053-.616 3.805-1.73m4.65-5.836h-1.806v7.4h1.82v-5.024a2.8 2.8 0 0 1 1.94-.932 1.2 1.2 0 0 1 .978.406c.21.242.301.602.301 1.264v4.286h1.82v-4.602c0-1.097-.195-1.716-.631-2.18a2.58 2.58 0 0 0-1.955-.783 3.65 3.65 0 0 0-2.437.978l-.03-.016zm12.183 0h-1.926l3.053 7.402h1.791l3.038-7.402h-1.85l-1.098 2.723q-.501 1.243-.977 2.496h-.031q-.459-1.26-.948-2.511zm8.287 4.197c.226 1.233 1.204 1.864 2.452 1.864a4.4 4.4 0 0 0 2.526-.857v1.67a5.4 5.4 0 0 1-2.707.691c-2.376 0-4.121-1.534-4.121-3.85a3.747 3.747 0 0 1 3.775-3.88c1.835 0 3.459 1.248 3.459 3.623q.003.37-.045.738zm3.686-1.264a1.737 1.737 0 0 0-1.775-1.624 1.91 1.91 0 0 0-1.91 1.624zm5.249-2.933h-1.805v7.4h1.82v-4.646a2.42 2.42 0 0 1 2.06-1.098q.306 0 .602.076v-1.745a1.9 1.9 0 0 0-.495-.062 2.59 2.59 0 0 0-2.151 1.128l-.031-.015zm3.76 5.25c.87.52 1.86.804 2.873.827.827 0 1.354-.241 1.354-.798 0-.585-.598-.686-1.409-.824-.21-.036-.434-.074-.666-.123-1.414-.301-2.376-.797-2.376-2.137.015-1.548 1.353-2.361 3.127-2.361a6.3 6.3 0 0 1 2.737.586v1.655a6 6 0 0 0-2.737-.752c-.782 0-1.293.225-1.293.737 0 .554.599.655 1.403.79q.3.046.627.112c1.414.3 2.422.752 2.422 2.166 0 1.67-1.474 2.436-3.219 2.436a6.6 6.6 0 0 1-2.843-.616zm9.399-8.496a1.14 1.14 0 0 0-.795-.333 1.14 1.14 0 0 0-1.144 1.128 1.132 1.132 0 0 0 1.938.803c.213-.213.333-.502.333-.803a1.14 1.14 0 0 0-.332-.795m.107 3.246h-1.819v7.402h1.819zm6.619 7.22a3.3 3.3 0 0 1-1.504.346 2.37 2.37 0 0 1-1.805-.723c-.376-.407-.602-1.022-.602-2.121v-3.173h-1.294V34.38h1.294v-1.97l1.82-.317v2.286h2.09v1.549h-2.089v2.919c0 .827.15 1.517.978 1.517.39-.015.772-.124 1.113-.316zm3.73-.632-1.97 4.12h1.895l4.918-10.709h-1.85l-.962 2.137-.018.041c-.357.8-.726 1.627-1.066 2.44h-.031a77 77 0 0 0-.991-2.33l-1.008-2.287h-1.97zm-62.422 8.008c2.301 0 4.016 1.685 4.016 3.866s-1.715 3.865-4.016 3.865-4.016-1.684-4.016-3.864 1.715-3.865 4.016-3.865zm0 6.138a2.272 2.272 0 1 0-2.196-2.27 2.19 2.19 0 0 0 1.337 2.098c.272.115.564.173.859.172m45.324-2.177c0-2.18-1.715-3.865-4.016-3.865v.001c-2.301 0-4.015 1.686-4.015 3.866 0 2.179 1.714 3.863 4.015 3.863s4.016-1.684 4.016-3.865m-2.733 1.927c-.384.24-.83.36-1.283.346a2.185 2.185 0 0 1-2.053-1.407 2.2 2.2 0 0 1-.143-.864 2.27 2.27 0 0 1 .842-1.766 2.274 2.274 0 0 1 3.508 2.688 2.27 2.27 0 0 1-.871 1.003m-36.53-4.173h-1.112V49.14h1.113v-1.263c0-.993.18-1.82.722-2.346a2.73 2.73 0 0 1 1.91-.647c.403-.006.805.055 1.188.18v1.534a5 5 0 0 0-1.022-.136c-.812 0-.977.542-.977 1.249v1.428h1.805v1.549H75.84v5.851h-1.82zm15.147-5.039h-6.497v10.89h6.648v-1.7h-4.738v-3.144h3.986v-1.639h-3.986v-2.707h4.587zm6.8 10.062a3.48 3.48 0 0 1-2.407.991 2.62 2.62 0 0 1-1.97-.782c-.451-.495-.662-1.173-.662-2.24V49.14h1.82v4.242c0 .662.105 1.053.331 1.309a1.23 1.23 0 0 0 .978.406 2.69 2.69 0 0 0 1.925-.963v-4.994h1.82v7.4h-1.805v-.813zm5.79-6.572h-1.804v7.402h1.819v-4.648a2.42 2.42 0 0 1 2.06-1.098q.306 0 .602.076v-1.745a1.9 1.9 0 0 0-.495-.062 2.59 2.59 0 0 0-2.151 1.127l-.031-.014zm14.892 10.708h-1.82V49.141h1.804v.42l.031.016a3.4 3.4 0 0 1 1.971-.602c1.94 0 3.534 1.518 3.534 3.82 0 2.377-1.715 3.91-3.865 3.91a3.8 3.8 0 0 1-1.625-.345l-.031.015zm1.534-4.662c1.323 0 2.151-.978 2.151-2.286s-.812-2.361-2.106-2.361c-.572 0-1.128.19-1.579.54v3.7c.469.26.997.4 1.534.407m9.506.016c-1.249 0-2.226-.632-2.452-1.865l5.339-.001a5.5 5.5 0 0 0 .046-.737c0-2.375-1.625-3.624-3.46-3.624a3.745 3.745 0 0 0-3.775 3.88c0 2.317 1.745 3.85 4.121 3.85a5.4 5.4 0 0 0 2.707-.691v-1.67c-.733.541-1.616.84-2.526.858m.674-4.299c.33.303.531.723.559 1.17h-3.684a1.906 1.906 0 0 1 1.91-1.624c.448-.012.884.151 1.215.454M65.682 63.895h-.642v-.406h.642v-.836a1.46 1.46 0 0 1 .322-1.084c.223-.197.513-.3.81-.288q.25 0 .49.07v.413a1.9 1.9 0 0 0-.474-.062c-.566 0-.696.36-.696.89v.898h1.047v.406h-1.047v3.434h-.452zm5.13-.182a2 2 0 0 0-1.13-.311 1.933 1.933 0 0 0-1.95 2.005 2.007 2.007 0 1 0 3.08-1.694m-.225 3.055a1.6 1.6 0 0 1-.905.224 1.51 1.51 0 0 1-1.499-1.585 1.586 1.586 0 1 1 2.404 1.36m2.086-3.28h.451v.624l.015.008a1.53 1.53 0 0 1 1.217-.67q.111-.003.221.023v.444a1 1 0 0 0-.237-.023 1.43 1.43 0 0 0-1.216.75v2.683h-.45zm6.707-1.81h-.443l-2.302 5.65h.48l.681-1.686h2.715l.681 1.686h.505zm-.214.577q.3.779.612 1.553l.558 1.397h-2.363l.566-1.405c.23-.57.42-1.053.612-1.545zm3.725 6.79h-.451v-5.557h.45v.328l.016.008a1.92 1.92 0 0 1 1.185-.422c1.048 0 1.82.837 1.82 1.998 0 1.186-.802 2.013-1.889 2.013a2 2 0 0 1-1.117-.335l-.015.007zm1.132-2.037c.864 0 1.438-.664 1.438-1.585 0-.905-.566-1.607-1.43-1.607a1.66 1.66 0 0 0-1.14.46v2.334c.323.254.721.394 1.132.398m2.937 2.036h.45v-1.959l.016-.007c.33.22.72.337 1.117.335 1.086 0 1.888-.827 1.888-2.013 0-1.162-.772-1.998-1.82-1.998a1.92 1.92 0 0 0-1.185.422l-.015-.008v-.328h-.451zm3.02-3.621c0 .921-.573 1.584-1.437 1.584a1.86 1.86 0 0 1-1.132-.398v-2.333a1.66 1.66 0 0 1 1.14-.46c.864 0 1.43.702 1.43 1.607m1.5-4.058h.451v5.962h-.451zm1.798 1.081a.357.357 0 0 0 .524-.158.4.4 0 0 0 .026-.135.356.356 0 0 0-.423-.351.356.356 0 0 0-.127.644m.429 1.042h-.453l.002 3.84h.451zm1.49 2.045a1.52 1.52 0 0 0 1.598 1.468c.458-.005.902-.161 1.262-.445v.5c-.39.234-.837.358-1.292.358a1.93 1.93 0 0 1-2.011-2.005c0-1.187.84-2.006 1.858-2.006.91 0 1.667.663 1.667 1.803 0 .117-.008.234-.016.328zm2.638-.382c-.023-1.03-.734-1.335-1.239-1.335a1.42 1.42 0 0 0-1.384 1.335zm3.037 2.262c.445.005.876-.156 1.208-.452l.016.009v.359h.452v-5.963h-.452v2.302l-.015.008a2.35 2.35 0 0 0-1.07-.273c-1.192 0-1.935.944-1.935 2.075 0 1.178.795 1.935 1.796 1.935m.153-3.597c.378.006.748.114 1.07.312v2.388a1.6 1.6 0 0 1-1.155.484c-.864 0-1.415-.655-1.415-1.553 0-.905.567-1.631 1.5-1.631m4.559 2.601c.47.36 1.044.555 1.636.558.743 0 1.285-.36 1.285-1.078 0-.799-.678-.986-1.378-1.178l-.052-.015c-.795-.222-1.575-.513-1.575-1.514 0-.949.688-1.484 1.689-1.484a2.9 2.9 0 0 1 1.553.436v.504a2.78 2.78 0 0 0-1.56-.504c-.719 0-1.216.344-1.216 1.017 0 .757.644.935 1.306 1.118l.078.021c.788.222 1.621.513 1.621 1.576 0 .97-.712 1.537-1.751 1.537a3.07 3.07 0 0 1-1.636-.467zm6.087.994c.393.005.78-.092 1.124-.282v-.492c-.316.239-.704.365-1.101.359a1.49 1.49 0 0 1-1.56-1.537 1.5 1.5 0 0 1 .438-1.124 1.5 1.5 0 0 1 1.122-.444c.368.003.729.109 1.04.306v-.474a2.3 2.3 0 0 0-1.025-.245 1.95 1.95 0 0 0-1.881 1.207c-.101.246-.15.51-.145.775a1.9 1.9 0 0 0 1.988 1.951m2.44-4.81a.347.347 0 0 1-.336-.419.347.347 0 0 1 .682.008.345.345 0 0 1-.346.412m-.222.965h.451v3.762h-.451zm2.086 2.58a1.5 1.5 0 0 1-.143-.576l3.066-.001c.008-.092.016-.206.016-.321 0-1.115-.757-1.765-1.668-1.765a1.87 1.87 0 0 0-1.858 1.965 1.92 1.92 0 0 0 .575 1.423 1.9 1.9 0 0 0 1.436.542 2.55 2.55 0 0 0 1.293-.352v-.49a2.1 2.1 0 0 1-1.262.436 1.51 1.51 0 0 1-1.455-.86m1.256-2.259c.504 0 1.216.299 1.239 1.308h-2.623a1.408 1.408 0 0 1 1.384-1.308m2.754-.322h.451v.527l.015.007a2.15 2.15 0 0 1 1.445-.62 1.27 1.27 0 0 1 .964.383 1.52 1.52 0 0 1 .336 1.124v2.34h-.451V65.07a1.26 1.26 0 0 0-.237-.902.93.93 0 0 0-.703-.268 1.95 1.95 0 0 0-1.369.673v2.753h-.451zm6.225 3.846c.393.005.78-.092 1.124-.282v-.492c-.316.239-.704.365-1.101.359a1.49 1.49 0 0 1-1.455-.935 1.5 1.5 0 0 1-.105-.602 1.52 1.52 0 0 1 .438-1.124 1.503 1.503 0 0 1 1.122-.444c.368.003.729.109 1.04.306v-.474a2.3 2.3 0 0 0-1.025-.245 1.95 1.95 0 0 0-1.882 1.207c-.1.246-.149.51-.144.775a1.9 1.9 0 0 0 1.988 1.951m2.386-1.841a1.52 1.52 0 0 0 .498 1.053 1.5 1.5 0 0 0 1.101.384 2.1 2.1 0 0 0 1.261-.435v.49c-.391.23-.838.351-1.292.351a1.913 1.913 0 0 1-2.011-1.965 1.872 1.872 0 0 1 1.858-1.965c.91 0 1.667.65 1.667 1.765 0 .115-.008.229-.015.32zm2.639-.375c-.023-1.01-.735-1.308-1.239-1.308a1.41 1.41 0 0 0-1.384 1.308zm2.723 1.803a2.7 2.7 0 0 1-1.422-.397l-.001.482c.433.222.913.335 1.399.329.91 0 1.514-.382 1.514-1.125 0-.795-.695-.979-1.376-1.086l-.123-.02c-.527-.082-1.054-.164-1.054-.653 0-.428.406-.634.994-.634.483 0 .956.131 1.369.382v-.474a2.94 2.94 0 0 0-1.354-.321c-.856 0-1.46.366-1.46 1.078 0 .765.711.948 1.338 1.048l.101.015c.557.085 1.115.17 1.115.703 0 .452-.406.673-1.04.673"/></g><defs><clipPath id="a"><path fill="#fff" d="M0 0h135v100H0z"/></clipPath></defs></svg>