<svg xmlns="http://www.w3.org/2000/svg" width="81" height="100" fill="none"><path fill="#A5333A" fill-rule="evenodd" d="M60.372 33.396c-.198-.692-.198-1.582-.494-2.274-.198-1.186-.593-2.372-.988-3.46-.198-.394-.396-.889-.692-1.284-.1-.297-.297-.494-.396-.79-.395-.495-.493-.89-.79-1.385-.396-.395-.693-.889-.988-1.284-.396-.494-.791-.89-1.186-1.384-.297-.099-.396-.494-.692-.692-.198-.198-.495-.296-.594-.494-.395-.395-.79-.79-1.186-1.087-.691-.593-1.482-.692-2.075-1.285l-.494-.297c-.494-.296-1.087-.494-1.582-.691-.395-.297-.79-.396-1.285-.594-.297-.098-.691-.296-.988-.395-.099 0-.198-.099-.297 0-.89 0-1.581-.396-2.372-.494-.692 0-1.482-.099-2.174-.198h-.89c-.592.099-1.186.099-1.779.198-.79.099-1.68.198-2.47.494s-1.582.593-2.471.89a.76.76 0 0 1-.495.197c-.494.198-.89.495-1.383.593-.594.396-1.186.494-1.582.989q-.89.296-1.482.889c-.593.198-1.088.692-1.582 1.087-.493.593-1.087.989-1.581 1.483-.099.297-.395.494-.494.79-.198.297-.494.594-.692.89a3.6 3.6 0 0 0-.692.989c-.297.494-.593.89-.79 1.383-.1.396-.297.692-.494.989-.198.395-.396.89-.495 1.285-.197.494-.395.988-.494 1.482 0 .1-.197.297-.099.494-.197.396-.197.79-.296 1.186 0 .692-.198 1.186-.198 1.878 0 .494-.099 1.087-.099 1.68 0 .89 0 1.78.099 2.67.099.395.099.79.198 1.185.296.988.494 2.075.89 3.064.197.691.494 1.383.79 2.075.198.297.494.692.593 1.088.296.395.494.89.89 1.285 0 .197.197.197.296.395.198.198.297.494.494.79.198.199.396.495.692.791.099.198.296.297.396.494.296.198.494.396.691.593.396.198.593.593.989.89.89.692 1.779 1.383 2.767 1.878.494.198.89.494 1.285.691.593.297 1.186.494 1.78.791.592 0 .987.297 1.58.297.199 0 .297.099.594.099.692.197 1.383.395 2.075.493 1.186.099 2.372.297 3.558.099 1.581 0 3.064-.297 4.448-.691l2.076-.594c.79-.395 1.581-.691 2.372-1.087.198-.099.395-.297.593-.297.593-.296 1.087-.79 1.581-1.185.791-.396 1.582-1.087 2.274-1.68.593-.693 1.285-1.384 1.68-2.175.593-.692 1.186-1.483 1.581-2.274 0 0 .1-.099.1-.197 0-.198.197-.396.197-.593.198-.594.593-1.087.791-1.68.197-.396.296-.692.296-1.088a6.9 6.9 0 0 0 .594-1.877c.197-1.186.494-2.372.592-3.658.196-.69-.002-1.58-.002-2.37m-.593 3.162c-.198 1.088-.396 2.076-.692 3.064-.098.791-.395 1.384-.593 2.175-.198.395-.297.89-.594 1.285-.296.593-.691 1.186-.988 1.878a27 27 0 0 1-1.383 2.174c-.297.395-.594.79-.89 1.087-.395.396-.692.89-1.186 1.186-.593.396-1.186.79-1.779 1.285l-.791.494c-.296.1-.593.396-.89.593-.296.198-.593.297-.79.396-.79.395-1.581.79-2.471 1.087-.692.296-1.384.296-2.075.593-.89.198-1.68.297-2.57.396-.89 0-1.779.197-2.668 0-.494-.1-1.088-.1-1.68-.1-.198 0-.396-.098-.594-.098-.593-.198-1.186-.395-1.779-.395l-2.075-.594c-.1-.099-.297-.099-.495-.197-.691-.396-1.482-.692-2.075-1.088l-.198-.099a15 15 0 0 0-1.581-1.087c-.692-.494-1.285-.89-1.878-1.482-.396-.296-.692-.79-1.087-1.087-.297-.297-.495-.594-.791-.791-.494-.593-.692-1.186-1.186-1.78-.395-.493-.593-1.086-.89-1.68-.197-.395-.395-.79-.593-1.284-.197-.692-.395-1.384-.692-2.076-.098-.493-.296-.988-.296-1.482-.099-.692-.297-1.483-.198-2.274-.099-.395-.099-.89-.099-1.383 0-.1.1-.297.1-.494-.1-.396.098-.692 0-1.088 0-.593.197-1.186.197-1.779.099-.395.099-.89.198-1.285.098-.198.098-.494.296-.692 0-.494.198-.79.297-1.285q.286-.722.692-1.383c.296-.495.494-.989.691-1.483.396-.593.594-1.186 1.087-1.68.297-.395.692-.89.989-1.285.198-.395.593-.593.89-.89.593-.592 1.186-1.087 1.877-1.482.494-.297.89-.593 1.285-.89.099-.098.296-.098.395-.198.692-.395 1.384-.889 2.174-1.284.989-.494 2.076-.791 3.163-1.186q.594 0 1.186-.297c.297 0 .593-.099.89-.198.395-.098.692-.098 1.087-.197.692-.099 1.384.099 2.175.099.296 0 .494-.1.79-.1h.594c.593 0 1.087.1 1.58.198.297.1.594.1.792.198.395 0 .691.198.988.297.395.099.791.099 1.087.197.89.396 1.78.692 2.57 1.088.692.494 1.384.692 1.977 1.185.494.297.988.692 1.482 1.088.198.099.396.395.594.593.296.296.691.593.988.89.296.197.494.494.79.79.198.297.395.593.692.89.494.692.988 1.383 1.384 2.174.395.395.691.988.89 1.483.296.79.692 1.581.89 2.372.197.691.493 1.383.592 2.075.1.593.198 1.186.198 1.878.099.494.099.988.099 1.581 0 .396 0 .99-.1 1.384" clip-rule="evenodd"/><path fill="#A5333A" fill-rule="evenodd" d="M58.989 33.988c0-.494 0-.988-.1-1.383-.197-1.582-.493-3.064-1.087-4.448-.099-.296-.198-.593-.395-.89a2.15 2.15 0 0 0-.494-.79v-.099c-.79-.988-1.186-2.174-2.075-3.064-.989-.988-1.878-2.075-3.064-2.767-.693-.692-1.483-1.186-2.274-1.68-.494-.198-.89-.396-1.285-.692-.395-.198-.89-.296-1.285-.494-.79-.297-1.68-.297-2.47-.593-.495-.099-.989-.099-1.582-.197h-2.372c-.593-.1-1.285-.1-1.78.098-.395 0-.79.1-1.087.1-.593 0-1.087.296-1.68.296-.198.098-.395.197-.593.197-.494.297-.988.297-1.482.494-.396 0-.692.297-1.088.396-.197.296-.593.198-.889.494-.989.494-1.878 1.285-2.965 1.68-.791.692-1.78 1.285-2.372 2.175-.396.296-.593.691-.89.988-.296.296-.296.692-.593.988-.198.495-.593.89-.692 1.384-.198.198-.198.396-.395.593-.099.296-.297.692-.494 1.087-.099.297-.297.494-.297.791-.197.395-.395.79-.494 1.285-.197.296-.197.593-.296.89-.198.889-.494 1.68-.494 2.668-.198.692-.1 1.384-.1 2.175-.098.197 0 .395 0 .691.1.396.1.791.1 1.285l.098.1c.1.295.1.691.198 1.087.1.691.297 1.383.494 1.976.396.79.593 1.582.89 2.273.198.495.395.89.692 1.285.296.791.89 1.483 1.285 2.274.593.691 1.285 1.383 1.877 1.976.89.989 1.977 1.68 2.966 2.274.89.593 1.779.89 2.767 1.384.593.197 1.088.395 1.68.593.495.098.89.395 1.483.395.395 0 .692.198 1.087.198 1.384.198 2.768.297 4.151.099.692-.1 1.384-.1 2.076-.199a17.7 17.7 0 0 0 3.459-.889c.593-.395 1.285-.593 1.878-.89 1.087-.494 2.075-.988 3.064-1.779.494-.297.89-.79 1.384-1.186.593-.692 1.186-1.285 1.778-1.977 0-.099.099-.296.198-.395.495-.593.791-1.186 1.285-1.68.099-.396.494-.791.594-1.186.098-.396.296-.692.493-1.088.198-.494.297-1.087.494-1.68.198-.79.495-1.581.495-2.47.099-.791.296-1.582.198-2.373 0-.594.098-1.187 0-1.78m-.693 3.756v.495c-.098.494-.197.988-.395 1.482-.297 1.087-.593 2.273-1.087 3.36l-.89 1.483c-.494.691-.989 1.383-1.383 2.075-.198.198-.494.396-.692.593-.297.593-.89.989-1.384 1.384-.494.593-1.186.89-1.779 1.383-.692.593-1.482.791-2.274 1.286-.296.198-.691.297-1.087.592-.296 0-.494.198-.889.297-.791.297-1.68.396-2.57.494-.494.1-.988.296-1.482.296-.494.1-.89.1-1.285.1-.396 0-.692.098-1.088 0-.296-.1-.692 0-1.087 0-.79 0-1.581 0-2.273-.297-.494-.099-1.088-.297-1.68-.395-.692-.297-1.384-.495-2.076-.79-.89-.396-1.779-.792-2.57-1.483-.494-.396-.988-.593-1.482-.989-.593-.494-1.285-.988-1.68-1.68-.297-.197-.494-.494-.692-.79 0-.1-.198-.1-.198-.297-.396-.593-.79-1.087-1.087-1.68-.198-.098-.198-.395-.297-.494-.395-.692-.79-1.384-1.087-2.174-.198-.395-.296-.89-.494-1.285q-.165-.64-.297-1.285c0-.198-.099-.297-.197-.494-.198-.79-.198-1.582-.297-2.471-.098-.395-.197-.692-.197-1.087 0-.494 0-1.088.099-1.582 0-.692.296-1.285.395-2.075.197-.692.296-1.483.692-2.175 0-.198.197-.395.197-.692.396-.692.494-1.383.89-2.075.296-.593.79-1.186.988-1.78.198-.493.593-.889.89-1.383.296-.297.593-.692.988-.89l.593-.593c.692-.395 1.186-1.087 1.878-1.483.395-.098.593-.395.89-.494.494-.395.988-.593 1.482-.79.692-.297 1.285-.791 2.076-.89.593-.198 1.186-.296 1.68-.395l1.186-.297c.494 0 .988-.099 1.482-.197.791-.1 1.582-.1 2.372-.198.494.098 1.088.098 1.582.098l.989.198c.296-.098.592 0 .889.1.988.098 1.878.296 2.669.691.494.296.988.494 1.482.79.988.297 1.878.99 2.768 1.681.395.396.79.692 1.185 1.087l2.175 2.174c.197.396.494.791.692 1.088.395.593.889 1.186 1.185 1.78.594 1.086.89 2.272 1.186 3.458.594 1.483.594 3.262.594 4.942-.099.692-.099 1.483-.198 2.273" clip-rule="evenodd"/><path fill="#A5333A" fill-rule="evenodd" d="M34.477 18.767c0 .297 0 .593-.099.89-.099.099-.198.198-.296.198 0-.1-.1 0-.1-.1q0-.147-.296-.296c-.099 0-.296 0-.395.099-.099.198 0 .296 0 .395.395.396.89 0 1.384-.099.099.1.296.198.395.297.297.296.395.593.297.988-.198.395-.593.89-1.088.79-.099.1-.296-.098-.395 0 0 .1 0 .198-.1.297-.098 0-.197 0-.295-.099-.1-.099.098-.296 0-.494 0-.198-.198-.395.098-.593.198 0 .396.198.692.395a.54.54 0 0 0 .494-.296v-.296c-.099-.1-.198-.198-.296-.198-.297.099-.494.296-.79.296s-.594-.098-.791-.395c-.1-.297-.297-.593-.198-.89.099-.198.395-.494.593-.593s.395 0 .593 0c.296.001.296-.493.593-.296m14.628 1.088c.098.098.098.296.296.395.098 0 .197-.099.296.099-.099.198-.394.296-.493.395l-.396.297s-.099 0-.099-.099c-.098-.198.198-.395.1-.593-.1-.099-.199-.297-.297-.297-.1 0-.199 0-.297.099-.197.396.198.593.296.89.1.099.198.296.297.494 0 .296-.099.593-.297.79a1.37 1.37 0 0 1-1.087.198c-.197-.099-.395-.198-.593-.396l-.198-.296c-.098-.099-.296 0-.395-.099 0-.098 0-.198.1-.296l.493-.593h.198c.098 0 .098.098.098.198 0 .197-.198.296-.198.493 0 .198.297.396.396.494h.395c.198-.098.297-.296.198-.395 0-.296-.395-.494-.494-.79 0-.297-.099-.594.099-.791.297-.395.691-.494 1.186-.494.099.1.297.198.396.297m-18.285.89c0 .296-.198.493 0 .691.197.395.593.692.692 1.087.197.1.197.297.395.396s.494-.198.494.099c0 .198-.296.198-.395.296-.198.198-.494.395-.593.593 0 .099-.1.099-.198.099-.099-.297.099-.593 0-.79-.099-.199-.297-.297-.297-.495a5.7 5.7 0 0 0-1.087-1.087c-.098 0-.296.099-.395 0 0-.099.099-.198.198-.296.296-.198.593-.396.89-.692.098 0 .197 0 .296.098m19.372.889c.197.099.197.296.197.593 0 .198-.296.396-.494.396-.197 0-.494 0-.592-.198-.1-.198 0-.494.098-.593q.147-.296.296-.296c.198-.001.396-.001.495.098m-21.843 1.482v.297c-.099 0-.198.099-.297.099-.098-.1-.098-.198-.197-.1-.099.1-.099.198-.099.198.099.1.198.1.296.1.396 0 .594-.495.989-.396.197 0 .395.197.494.197.198.297.593.396.593.79 0 .199.098.396 0 .594-.198.198-.396.593-.791.692 0 0-.099-.1-.198 0-.098.099 0 .297-.197.297-.198.098-.297-.198-.396-.396-.099-.099-.099-.296-.198-.494 0-.099.1-.099.1-.099.395 0 .79.396 1.086 0 .099-.098.099-.197.099-.296-.099-.198-.198-.396-.396-.396-.493 0-.79.297-1.185.396-.297 0-.593-.198-.791-.396a1.37 1.37 0 0 1 0-.889c.099-.198.396-.198.396-.494.098 0 .098-.198.198-.1.296 0 .296.298.494.396m13.738.396c0 .197 0 .395-.099.691h-.098c-.297 0-.198-.494-.594-.494-.296.396-.197.989-.197 1.483.098.099.098.296.296.395 0 .099 0 .099-.099.198-.197 0-.296-.099-.494-.099s-.494 0-.692-.099v-.098c.494-.297.395-.89.395-1.384 0-.098 0-.198-.098-.198-.198-.098-.297.1-.495.1 0 .098-.098.098-.197 0-.099-.1 0-.198 0-.396 0-.099 0-.198.099-.198.494-.099 1.087 0 1.58-.099.199.099.594 0 .693.198m2.47.494c.1.099.199.099.298.197 0 .297-.396.1-.495.297-.098.494-.592.988-.198 1.581 0 0 0 .1-.098.1a.75.75 0 0 1-.494-.198c-.198-.1-.395-.1-.494-.198 0-.198.198-.198.395-.297.297-.098.297-.494.395-.691 0-.198.099-.396.099-.594-.099-.098-.296-.197-.197-.296.098-.198.296-.099.394-.099.1.198.297.1.396.198m8.798-.692c-.1-.099-.198-.099-.297-.099-.693.198-1.384.593-2.076.79-.197 0-.395.1-.593 0-.099 0-.198-.098-.297 0v.198c.297.198.594.495.79.594.1-.1.1-.198.199-.297.395 0 .593.297.79.593v.297c-.098.098-.197.098-.296.098 0 0-.099-.098-.198 0v.1c.198.098.395.296.494.493.099.1.198.297.296.297.099-.099.099-.297.099-.396 0-.494.297-.89.395-1.383.1-.396.595-.79.694-1.285m-1.187 1.285c-.197 0-.395-.198-.395-.396.099-.098.297-.098.395-.197.198 0 .198.099.198.197 0 .198-.1.297-.198.396m-14.529.395c-.197-.198-.296-.494-.593-.692l-.297-.296c-.098 0-.296-.099-.395 0-.296.197-.098.593 0 .79l-.098.89c0 .198-.1.494-.198.791.099.099.395 0 .494 0 .099-.099.296-.198.296-.297s-.099-.099-.099-.099c-.098 0-.098-.098-.098-.197s.197-.198.296-.297.296-.197.396-.099c.098 0 .098.198.098.198 0 .198-.198.396 0 .396.297-.099.494-.198.791-.297v-.098c-.197-.199-.395-.396-.593-.693m-.592.1c-.1.098-.198.098-.297.098-.099-.198-.198-.494-.099-.692.296-.099.296.297.396.395.098.1.098.198 0 .198m-10.774-.1c0 .099-.099.198-.099.396.1.296.396.593.692.691.495.297.989.692 1.582.989v.198c-.198.197-.593.098-.989.098-.494 0-1.087.1-1.482.198.099.198.296.395.494.395.198.198.395.297.692.297.099 0 .198-.198.296-.198a.3.3 0 0 1 .1.198c-.297.395-.396.89-.594 1.285-.099.099-.198.099-.198.099-.099-.198 0-.297 0-.495 0-.296-.395-.494-.593-.593-.395-.297-.79-.494-1.285-.494-.198 0-.198.197-.395.197-.198-.098-.1-.296-.1-.395.198-.296.396-.593.693-.692.593-.198 1.087-.296 1.68-.198.099-.098.198 0 .297-.098a3 3 0 0 0-.692-.495c-.198-.098-.396-.198-.593-.198-.1 0-.1.1-.297.1 0-.1-.099-.1-.099-.198 0-.1.1-.1.1-.198.197-.395.197-.79.494-.989.099.001.197.001.296.1m21.151.89c0-.099 0-.396-.198-.396a3 3 0 0 0-.691.495 3.6 3.6 0 0 1-.99.691c-.098.1-.197 0-.394.1l.099.098c.098 0 .197.099.296.198.198 0 .296.296.494.098 0-.098-.099-.198-.099-.198.396-.197.594.198.89.396 0 0 .098.099.098.198-.198 0-.296 0-.394-.1l-.1.1c0 .198.198.296.396.395 0 .099.198.198.395.296.099-.098.099-.098.099-.197a2.03 2.03 0 0 1 0-1.088c.099-.098 0-.197.099-.296-.099-.296.1-.494 0-.79m-.494.79c-.099 0-.198 0-.297-.098-.098 0 0-.099 0-.198.099-.099.297-.198.396-.296 0 .197.099.493-.1.592m8.302-.395s.099 0 .198.099c.198.197.594.395.594.692-.1.296-.198.494-.396.593-.198 0-.395.099-.593 0 0-.1-.1-.198 0-.297.098-.098.395 0 .494-.197 0-.198-.099-.396-.297-.396-.198-.198-.493-.099-.79 0l-.594.297c-.198.198-.296.395-.198.593 0 .099 0 .296.1.296.197.198.593.1.691.297 0 .198-.198.198-.296.296-.198 0-.594 0-.79-.098-.1-.297-.495-.494-.396-.79-.099-.693.593-1.187 1.087-1.483.396-.1.791-.1 1.186.098m-20.459.395c-.099-.098-.198 0-.296.1-.099.098-.099.197-.099.296s-.099.198-.198.296c-.098 0-.296 0-.296-.099-.198-.297 0-.692-.198-.89-.197-.098-.395-.296-.593-.296-.296 0-.593.099-.692.396-.198.296-.494.296-.79.493 0 .1.098.198.098.198.198 0 .396.1.494.198.198.296.396.593.593.79.198.198 0 .495.198.693h.198l.593-.495c.099-.197 0-.197-.099-.296s-.197 0-.296-.099c.395-.198.79-.099 1.087-.198.21-.111.382-.283.494-.494 0-.197 0-.494-.198-.593m-1.68.594c-.198 0-.296-.297-.494-.396l.198-.198c.197 0 .296.099.395.198 0 .099 0 .198-.099.396m17.099.988c.296.198.395.494.494.79.099.1.197.297.099.396-.1.099-.297.099-.396.099s0-.099 0-.099c-.099-.296-.099-.593-.395-.593 0 .099-.396.099-.297.395.099.1.198.1.198.198 0 .198-.099.198-.198.296h-.099c-.099-.197-.296-.296-.296-.395s-.099-.099-.099-.099c-.098.198-.296.198-.198.396.1.197.1.395.297.493h.296c.099 0 .297-.098.396.1 0 .098-.1.098-.198.197-.198 0-.494.198-.692.099-.297-.297-.297-.593-.494-.79v-.1c-.198-.197-.396-.296-.593-.395v-.198c.098-.197.296 0 .494-.099.296-.098.692-.296.988-.494.099 0 .198-.198.297-.296 0-.099-.1-.198 0-.296 0-.1.098-.1.098-.1.199.198.199.396.298.495m-13.739.296s.099 0 .099.1c0 .098-.099.098-.198.098-.098 0-.395.099-.593 0 0-.099-.099-.198 0-.198.198-.197.495 0 .692 0m-5.732.494c.099.297-.1.396-.297.495a.85.85 0 0 0 0 .692c.1.198.198.395.494.494l.396-.099c.099-.099.198-.198.198-.297-.198-.098-.396 0-.495-.197 0-.198.1-.396.198-.494.198 0 .494 0 .692.099 0 .098.198.098.198.198v.098c-.099.297-.099.593-.198.89-.198.197-.494.197-.692.395-.198.1-.395 0-.593 0-.198-.296-.692-.395-.692-.79-.296-.494-.098-1.088.198-1.483.198-.1.494-.198.593 0m9.982.396c.1.198-.098.395-.198.593h-.098c-.099-.099-.099-.297-.099-.494-.099-.099-.198-.297-.198-.396l.1-.099c.295 0 .394.198.493.396m-1.087-.297c.198.099.198.297.198.495-.099 0-.198.098-.297 0-.098-.1-.098-.297-.296-.297 0 0-.099 0-.198-.099v-.099c.198-.099.396-.099.593-.099zm1.878.1c.099.098.099.296.099.395s-.1.296-.199.296 0-.198-.197-.296c-.099 0-.099.197-.296.099v-.297q0-.147.296-.296c.1 0 .198.098.297.098m-2.273.296c0 .099-.1.099-.1.197-.098.1-.098.396-.296.297-.198-.198.1-.395.1-.593.098 0 .296-.1.296.099m-2.372.197c.098 0 .098.1.098.1-.098.098-.198.098-.296.098-.198.099-.494 0-.692.099-.494-.1-.988 0-1.482 0-.099 0-.099 0-.198-.1 0 0 0-.098.099-.098.395-.099.79-.099 1.186-.099h.593c.198 0 .494-.098.692 0m-12.651.396c.098.197.395.099.395.395-.099.1-.296 0-.395.1-.198.098-.494.197-.494.493 0 .099.098.198.197.198.1.099.396.197.495 0 0-.099-.198-.198-.1-.297 0-.099.1-.099.1-.197.098 0 .197.098.395.098.099 0 .395-.098.494.1 0 .197-.296.296-.494.493h.099c.296 0 .593.1.889.198v-.692c.099-.296-.396-.494-.296-.79 0-.1.098-.1.198-.1.296.1.493.396.593.594.296.296.098.593-.1.89-.098.395 0 .889-.197 1.185v.296c-.099.1-.198.1-.198.1-.296-.199-.296-.594-.692-.693-.395-.197-.89-.296-1.383-.395-.297-.099-.297.395-.593.296-.198-.296-.1-.692-.1-.988.1-.494.298-.79.396-1.285.1 0 .198 0 .198-.099.197.001.395.1.593.1m13.64 0c.098.099.098.099 0 .099-.199.198-.495.098-.693.198-.395 0-.79.098-1.185.098-.1 0-.1-.098-.1-.198.1-.098.298 0 .495-.098.494-.1.988-.1 1.482-.1m.197.395-.099.099c-.296.197-.692.494-1.186.593a.213.213 0 0 1-.198-.198v-.099c.495-.099.89-.296 1.285-.494 0 0 .1 0 .198.099m19.569.1c-.098-.1-.197-.199-.296-.199-.198.099-.494 0-.79 0-.1-.099-.199 0-.297 0-.395-.198-.89-.099-1.286-.296l-.394-.396v-.098q-.15-.15-.297 0c0 .098-.198.296 0 .493.198.198.198.495.297.692 0 .099.099.099.198.099s.098-.099.098-.197l.098-.1c.198 0 .297.1.396.198.099.099 0 .396 0 .593 0 .1.099.198.099.396-.1.098-.1.098-.198.098-.198 0-.198-.198-.395-.198-.099 0-.099.099-.099.198.099.198.099.396.197.494 0 .198-.098.396 0 .593 0 .099.1.198.198.198.297-.296.396-.593.594-.89.198-.296.593-.494.89-.79.197-.099.395-.395.593-.494.099-.099.198-.099.297-.198.097 0 .097-.098.097-.197m-1.68.691c-.098 0-.098-.099-.098-.099l-.1-.395c.199-.198.396-.1.593 0 0 .197-.197.395-.395.494m-11.663 2.965c.099.099-.099.198 0 .396 0 .098 0 .197-.099.296-.198 0-.296-.296-.592-.198v.1c-.1.395-.198.79-.198 1.185 0 .198.198.198.198.297s0 .197-.1.197c-.098 0-.197 0-.296-.099-.198.1-.395.198-.593.1-.098 0-.098-.1-.098-.198.098-.1.296-.198.296-.396 0-.396.098-.79 0-1.186-.1-.099-.198 0-.296 0-.099 0-.099.297-.297.297l-.099-.1v-.691h1.877c.1 0 .198-.099.297 0m5.832.198v.494c-.099.099-.198 0-.297 0s0-.099-.099-.099c0-.197-.099-.197-.297-.197 0 0-.097 0-.097.098 0 .494.592.297.691.692.198.297.099.692-.099.89-.197.197-.691.197-1.087.098-.099 0-.297.198-.494 0v-.197c.099-.198.297-.297.395-.495h.1c.098.297.296.593.592.495.099 0 .297 0 .297-.099.098-.099 0-.198 0-.296-.198-.297-.692-.297-.89-.593 0-.297 0-.593.198-.791.297-.198.692-.296.988-.099zm-15.221-.1v.594c0 .099-.198.099-.198 0-.198 0-.099-.198-.296-.198-.1 0-.198 0-.297.1-.099 0-.099.098-.099.197s.1 0 .198 0c.198.198.296.296.198.494 0 .197-.198.297-.395.297-.1.098 0 .296.098.395.396.099.593-.297.89-.395.099 0 .099 0 .099.098 0 .198 0 .396-.198.494-.494.198-1.087.1-1.68.1-.099 0-.099-.1-.099-.198.396-.396.198-.989.198-1.483v-.395l.099-.1zm5.93.1v.198c-.099 0-.198.098-.297.197.1.396-.098.692-.098 1.087.099.1.296.1.296.198.099.198 0 .297-.099.297-.197.099-.494.099-.692.099-.098.098-.296.098-.395 0-.099-.1-.099-.198-.099-.297.099-.198.297-.099.396-.198.098-.395.098-.79.098-1.186 0-.099-.197-.099-.296-.197-.099-.1-.099-.198-.099-.198.396-.1.791-.198 1.186-.1.1 0 .1.1.1.1m-9.884 0c0 .098 0 .198-.098.198l-.1.098c0 .297.1.494.198.692.1.099.198 0 .297-.099l.494-.89c.198-.197.494-.098.593-.098.099.099.099.099.099.197a23 23 0 0 0-1.384 1.878c-.099 0-.197 0-.197-.099v-.197l-.594-1.285c-.098-.1-.197-.1-.197-.1-.099-.098-.099-.197-.099-.296.099-.099.198-.099.395-.099.198 0 .495-.098.593.1m-7.808.197c.495.198.989.099 1.483.099.296 0 .593.099.79-.198 0 0 0-.099.1-.099.098 0 .197-.099.296 0v.099c0 .395-.1.79 0 1.186 0 .099 0 .198-.1.296-.197 0-.296-.395-.592-.395-.396-.099-.989-.099-1.483-.099-.296 0-.494.198-.692.396h-.198v-.198c0-.297-.197-.692-.098-.989 0-.197 0-.296.197-.395.199 0 .199.297.297.297m34.988-.79c-.198-.297-.198.098-.296.197-.296.1-.593.1-.79.1-.495-.199-.89.098-1.384 0-.1 0-.198 0-.297-.1a.213.213 0 0 0-.198-.198c-.1 0-.099 0-.099.1.099.296.099.691.099 1.087 0 .296.297.395.297.593a.77.77 0 0 0 .395.395c.198.198.593.198.89.198.296-.099.593-.198.889-.395l.297-.396s0-.198.099-.297c0-.197.197-.395.098-.691 0-.198.1-.396 0-.594m-.592 1.383c-.297.396-.99.296-1.483.296-.198-.098-.395-.197-.395-.395-.1-.099-.1-.198 0-.198.198-.197.494-.197.79-.098.198 0 .494.098.692 0 .099 0 .297 0 .396.098 0 .1.098.198 0 .297m-18.878.494c-.198 0-.198.297-.296.396-.198-.1-.494-.1-.593-.297 0-.297.296-.494.198-.79 0-.297-.1-.593-.396-.692s-.692 0-.988-.099c-.198.099-.297.099-.395.198 0 .098 0 .198.098.296.1.395 0 .89 0 1.285 0 .198-.197.297-.098.395.098.198.296 0 .493.1h.198c.099-.1.099-.297.099-.396 0-.198.197-.099.296-.099.297.099.494.395.79.494.198 0 .396.099.594-.099.099-.197.297-.395.198-.592 0-.1-.1-.198-.198-.1m-1.384-.494c0 .198-.197.198-.296.198-.099-.099 0-.198-.099-.297v-.197c.198-.099.396-.099.494 0 0 .099 0 .296-.099.296m10.18.989c-.297-.593-.692-1.088-.89-1.68a.21.21 0 0 0-.197-.198c-.1 0-.198 0-.198.099-.099.691-.495 1.186-.89 1.779l-.296.296v.099h.889s.099 0 .099-.099-.099-.099-.099-.099c-.099 0 0-.099 0-.099.099-.197.297-.296.593-.197.1 0 .395 0 .395.198 0 .098-.099 0-.198 0 0 .098-.098.098-.098.197s.098.198.197.198c.297-.099.594-.099.89-.198.001-.1-.098-.197-.197-.296m-.889-.79c-.099.098-.198.098-.297.098s-.098-.198-.098-.296c0-.1.098-.198.198-.198.099 0 .197 0 .197.099zm-20.954 1.877c.1 0 .297 0 .297.099 0 .197.099.395.099.593.098.395.098.89.296 1.185.099.1.198.297.198.396-.099.099-.099.197-.198.197-.396 0-.692-.098-1.087-.098-.396.197-.692.296-1.186.296 0 0-.1 0-.1.099s0 .197-.098.296c-.197 0-.197-.197-.296-.296-.198-.395-.494-.692-.396-1.088.099-.098.099-.098.198-.098.198 0 .297.296.593.197h.692c.297-.197.692-.099.988-.395 0-.593-.494-.89-.89-1.285 0-.198.199-.1.199-.198.296.001.493.1.691.1m29.75.593c.494.297 1.087.297 1.582.395.198 0 .494.198.593 0 .098-.098.098-.197.197-.296.099 0 .198.099.297.198-.099.198-.198.494-.297.692-.099.395-.296.79-.296 1.186 0 .098-.098.197-.198.197-.198 0-.494 0-.692-.099-.099 0-.198-.098-.099-.198.198-.296.594-.296.791-.593-.098-.296-.395-.296-.593-.395-.099.197.198.395-.099.494-.198 0-.395-.198-.593-.198-.098 0-.098 0-.198-.099 0-.098 0-.197.1-.296.098 0 .098 0 .098-.099s0-.198-.099-.198c-.297-.099-.593 0-.692.198-.099.297-.198.692.099.988 0 0 0 .1-.1.1h-.098l-.593-.396c-.098-.1 0-.297 0-.396.1-.395.198-.79.396-1.087 0-.198.098-.396.197-.494.297 0 .1.297.297.396m-23.128 2.372v.099c-.197.395-.296.691-.296 1.186h.099c.296-.1.395-.297.691-.396l.297.296c.099.198.297.297.198.494-.198.1-.198-.098-.396-.098-.296.098-.593.296-.89.494-.098.197-.395.296-.592.395 0 0-.198 0-.198-.099 0-.494.297-.89.198-1.384 0-.098-.099-.098-.198-.098-.198.197-.494.494-.593.79-.099 0-.099 0-.198-.098-.099-.1-.099-.297-.197-.396 0-.099-.1-.198-.1-.296.297 0 .594-.198.89-.297.198-.198.495-.198.692-.494 0 0 .099-.099.099-.197.099-.1-.099-.1 0-.198h.198zm17.494.099c0 .098.099.198 0 .198-.198.098-.493.098-.691.296-.099.099-.198.099-.297.296a.76.76 0 0 0 .494.198c.197-.1-.098-.395.197-.395.199 0 .396.197.495.395v.098c-.099.1-.297 0-.297.1 0 .098-.099.197 0 .296s.198.098.297.098c.198-.098.198-.197.297-.296.098-.297-.1-.396-.198-.593 0 0 0-.099.098-.198.297.1.495.395.79.494 0 .1-.097.1-.097.198-.396.494-.693.988-1.187 1.483H49.4c-.098-.099 0-.198 0-.396a1.68 1.68 0 0 0-.79-.89c-.198-.098-.396.1-.494.198q-.148.15-.296 0c-.1 0-.1-.098-.1-.197.1-.198.396-.297.494-.495.198-.395.495-.691.791-1.087.199-.098.395.199.692.199m4.448.593v.198c.297.395.692.691 1.087.79.297.297.692.396.99.593.097.1.196.198.196.297-.394.395-.988.197-1.383.197h-.198c-.098.1 0 .198 0 .198.198.396.296.79.494 1.087 0 .1-.099.1-.099.198-.297 0-.593-.197-.89-.395-.197 0-.296-.198-.395-.198-.395-.099-.593-.395-.988-.395-.198.098-.297.098-.396 0 0-.297.1-.495.297-.692.099-.1 0-.395.198-.297.297.1.198.396.396.396.197.099.493.099.691.296 0 0 .099 0 .099-.099.099-.296-.099-.494-.099-.79 0-.1.099-.1.198-.1.099-.098.198 0 .198-.098 0-.099-.198-.099-.198-.198-.297 0-.593-.197-.692.099-.099 0-.197 0-.296-.099.099-.099.099-.197.197-.296.099-.198.099-.593.396-.79.098-.001.098.098.197.098m-25.895 2.47c-.099-.296-.099-.691-.494-.889-.198.198 0 .494-.198.593q-.148.15-.296 0c-.297-.099-.099-.395-.396-.494-.099-.197-.296-.296-.099-.494.1-.099.1-.296.297-.296.1 0 .1.099.1.197 0 0 .098.198.197.1 0 0 .098 0 .098-.1 0-.296-.296-.494-.395-.79-.099-.198-.099-.494-.297-.494s-.098.296-.098.395c-.198.297-.396.593-.692.791-.198.297-.396.593-.692.89l-.198.395q-.147.15 0 .297c.692.197 1.384.099 2.175.099.296 0 .593-.1.89.098 0 .099.098.198.197.198 0 .099.099.099.198 0 0-.199-.198-.298-.297-.495m-1.68-.197c-.198-.099-.396 0-.593 0-.1-.099-.1-.099-.1-.198.199-.099.396-.494.594-.197.099.098.099.197.197.296zm8.104-.198c0-.099-.099-.197-.198-.099-.395.1-.79.396-1.185.593-.198 0-.396.198-.593.198-.199.099-.396 0-.495 0s-.099 0-.099.099c.297.197.495.494.692.79.198-.098.1-.296.198-.395.198-.099.297 0 .395 0 .198.198.494.395.494.692h-.099c0 .099-.197.198-.098.296l.395.099c.099.099.198.395.494.395v-.198c-.395-.79.198-1.58.1-2.47m-.593 1.088c-.099 0-.197-.198-.296-.297 0 0-.099-.099 0-.099.099-.098.296-.296.494-.296v.099c0 .197-.099.296-.198.593m14.727-.495c-.594-.099-1.186-.296-1.78-.494-.197 0-.296-.198-.493 0-.099.198.098.395.098.692.099.396.099.79 0 1.285 0 .099-.197.297-.098.395.197.1.197-.099.296-.099.198-.197.494-.296.593-.493 0-.1-.197 0-.197-.1-.1-.197.098-.295.198-.493.198 0 .296-.198.494-.198.197.099 0 .198 0 .297s0 .099.099.099c.295-.198.493-.495.79-.692zm-1.78.495c-.098-.1-.098-.396-.098-.494.099-.1.099-.1.198 0l.395.098v.1c-.099.196-.296.394-.494.296m-10.575 0c.593.198 1.087.395 1.68.593.1 0 .1.098.198.098a.76.76 0 0 1-.197.495c0 .099-.1.099-.198 0-.1-.1-.1-.495-.396-.396-.197 0-.296.296-.395.494s-.297.494-.297.692c.099.197.297.296.396.494 0 0 0 .099-.099.099-.198 0-.296-.1-.396-.1-.296-.098-.592-.098-.889-.295v-.1c.099-.098.297-.098.396-.098.197-.297.296-.692.395-1.087.099-.1.198-.198.198-.297-.1-.099-.198-.198-.396-.198-.099.099-.197.297-.395.396 0 0-.099 0-.099-.099 0-.296.099-.494.198-.692.099-.099.198 0 .296 0m15.518.79c.099.296.395.494.593.692.395.297.692.593 1.185.593.099 0 .396 0 .396.099.098.296-.198.296-.297.395l-.593.593c0 .099-.099.099-.099 0-.098-.099-.098-.198-.197-.395-.1-.1-.198-.396-.396-.494-.297-.198-.593-.593-.988-.79-.198 0-.297.395-.494.098 0-.297.296-.495.395-.79.099-.1.198-.297.396-.396.198 0 0 .296.099.395m-6.128.593c0-.099-.099-.099-.198-.099-.1 0-.198.198-.198.297s-.197.099-.296.099-.297-.099-.297-.197c0-.297.198-.692-.099-.989-.198-.494-.79-.395-1.185-.197-.297.197-.594.197-.89.395 0 .099.098.099.098.198.099.099.297 0 .396 0 .099.099.198.296.297.494s.198.494.296.79c0 .198-.198.395 0 .495.098-.1.296-.1.494-.198.198-.1-.099-.198 0-.396l.098-.099c.1.1.297.1.396.198.494 0 .988-.099 1.186-.494 0-.1 0-.297-.098-.297m-1.483-.099c0 .099-.098.099-.198 0-.098 0-.098-.198-.198-.296 0-.099-.197-.198-.098-.297.296-.099.494 0 .593.198.099.197 0 .297-.099.395m-3.953-.395c0 .099-.099.099-.099.197-.099 0-.198 0-.198.1-.098.493-.098.988.1 1.383.098.198.295.198.493.198.396-.198.296-.791.396-1.186 0-.198.098-.396 0-.495 0-.098-.1-.098-.1-.098 0-.099 0-.099.1-.099.197-.099.395.099.692 0l.098.099c.099.099 0 .197-.099.197-.098 0-.098.1-.197.1-.199.592-.1 1.284-.494 1.68-.297.197-.692.296-.989.098-.691-.395-.296-1.285-.494-1.878 0-.099-.197 0-.197-.197 0 0-.1-.099 0-.198.197-.099.493-.099.79 0 0 0 .099 0 .198.099m-10.18.692c0 .395.197.593.494.692.099.099 0 .197-.1.197-.098 0-.296 0-.493.099-.1.1-.297 0-.495.1-.098 0-.198 0-.198-.1v-.099c.1-.099.297-.099.297-.296.099-.296-.099-.494-.297-.692-.197 0-.296-.099-.395 0-.197.099-.197.297-.098.494.098.297.197.494.296.791 0 .297-.099.692-.395.89-.198.099-.396.296-.692.197-.198 0-.395-.197-.494-.395a3 3 0 0 1-.494-.692c0-.198.198-.198.296-.296l.495-.1c.197.1-.198.198-.198.396s.099.396.296.495c.1.099.297 0 .396-.1.099 0 .099-.197.099-.295-.099-.495-.396-.89-.297-1.483.1-.099.198-.296.396-.395.395-.198.89 0 1.285.296zm20.755 3.36c-.099-.593-.296-1.087-.395-1.68 0-.197-.098-.494 0-.692.1-.197.198-.296.198-.493 0-.1-.098-.1-.197-.1-.1.198-.297.297-.594.396-.099.197-.297.197-.395.395.098.1.197.1.296.1s.099.197.099.197a1.54 1.54 0 0 1-.79.593s-.099 0-.198-.099c-.099-.197.099-.296.099-.395s-.1-.099-.1-.099c-.296.198-.593.297-.79.593-.099.099-.197.099-.197.198s.098.197.098.197q.147.15.296 0c.495.1.989.297 1.384.593.396.1.593.494.791.593.198.1.395.1.494 0s0-.198-.099-.297m-.593-.691c-.197 0-.197-.1-.395-.198l-.099-.1h.099c.099-.098.297-.494.395-.197.1.198 0 .297.1.395z" clip-rule="evenodd"/><path fill="#A5333A" fill-rule="evenodd" d="M54.54 32.11c-.197-.988-.692-1.78-.988-2.767-.296-.396-.395-.79-.692-1.285-.099-.198-.099-.494-.297-.79-.098-.199-.296-.396-.493-.693-.297-.197-.395-.593-.791-.79-.494-.692-1.087-1.186-1.68-1.78-.296-.098-.593-.395-.89-.593-.297-.098-.593-.395-.988-.494-.494-.296-.99-.593-1.483-.79-.198-.1-.395-.198-.494-.297-.395-.099-.79-.395-1.186-.494-.198 0-.395.099-.593 0-.099-.296.099-.593.198-.89.198-.296.593-.098.89-.296.099-.099.099-.198.099-.395-.198-.198-.396-.396-.791-.396-.494.1-.89.396-1.285.692-.198.198-.396-.099-.692-.099-.098-.098-.296-.296-.296-.493 0-.198.198-.297.395-.396.296-.296.79-.198 1.087-.099.198 0 .296-.198.296-.296 0-.099 0-.297-.098-.396a.76.76 0 0 0-.494-.198c-.495-.098-1.186-.197-1.68.198-.199.1-.396.396-.594.396-.296-.198-.692-.297-.988-.494l-.395-.198c-.494-.1-.89.198-1.187.593 0 .197-.197.494 0 .692.1.098.198.098.297.098.198 0 .297-.197.297-.296.098-.099.197 0 .296 0 .197 0 .296.198.395.296.1.198-.099.396-.296.593-.099.1-.296.1-.494 0-.494-.296-1.087-.79-1.78-.493-.296.098-.691.395-.691.79.099.297.395 0 .593 0 .296 0 .593 0 .79.297.1.197 0 .395-.099.494-.493.197-.988.197-1.383.296-.494.099-.79.297-1.186.494-.692.296-1.482.494-2.075.988-.494.297-.89.692-1.286.989-.395.395-.89.593-1.284 1.087-.198.297-.495.593-.791.89-.198.296-.494.395-.593.692-.297.395-.593.691-.79 1.087-.693.988-1.286 1.976-1.583 3.162-.197.594-.395 1.087-.395 1.68-.198.297-.198.594-.198.89-.098.396-.098.89-.098 1.384.098.692-.1 1.582.197 2.174.198 1.384.593 2.57.988 3.756.297.494.396 1.087.692 1.581.79 1.186 1.582 2.471 2.57 3.657.395.495.988.79 1.483 1.285.691.494 1.383.89 2.174 1.186.395.198.89.395 1.384.494.593.296 1.285.296 1.977.494.395.099.889 0 1.285.099.197.198.395.296.593.494v.494c-.198.494-.198.989-.593 1.482-.199.198-.495.297-.791.396-.396.198-.89-.198-1.186.198 0 0 0 .098.099.197.296.1.79.1 1.186.1.197.098.593.098.79.098.297-.198.593-.198.79-.297.297-.098.495-.296.791-.296l.89.395c.593 0 1.186.099 1.78 0 .197 0 .395-.198.494-.395q.147-.15 0-.297c-.1-.099-.198 0-.396 0-.396-.099-.89-.198-1.186-.593-.297-.395-.593-.989-.395-1.581.099-.198.395-.198.692-.297.89-.198 1.877-.297 2.669-.692.691-.198 1.285-.494 1.976-.79.593-.396 1.087-.693 1.68-1.088.79-.494 1.384-1.285 2.076-1.977.296-.296.494-.692.79-.988.495-.593.89-1.285 1.186-1.878.297-.395.495-.79.693-1.186.394-.692.592-1.582.89-2.471.098-.692.197-1.482.395-2.174.098-.396.098-.89.098-1.285 0-.987-.099-1.975-.296-2.865M42.286 20.645h.099c0-.098.099-.197.099-.197.197 0 .296.296.493.296.198 0 .297-.296.495-.395.197-.099.394-.297.691-.396-.395.297-.691.594-.691.99-.1.493 0 .888.198 1.383.098 0 .197.098.295.098.1-.098.1-.098.198-.098-.098-.198-.098-.396-.198-.593h.1c.197-.1.296.098.493.098v.1c0 .098-.198 0-.198.197 0 .099 0 .198-.098.296-.099.1-.099.1-.198.1-.395 0-.692-.297-.89-.594l-.198-.692c-.098-.197-.296-.098-.493-.098-.099-.1-.297-.1-.297-.198-.098-.1-.098-.297.1-.297m-.396 18.186c.297.296.692.494.692.89.098.494.198 1.186-.197 1.581-.198.495-.495 1.088-1.088 1.285-.395.297-1.186.198-1.581-.099a1.2 1.2 0 0 1-.495-.494c-.395-.593-.593-1.581-.197-2.273.197-.494.691-1.087 1.285-1.186.494 0 .988.099 1.383.198l.1-.099c0-.296-.298-.395-.495-.494-.297-.099-.692 0-1.087 0-.495.099-.989.297-1.384.593-.79.593-1.087 1.483-1.186 2.372 0 .495.198.89.395 1.285.297.494.791.593 1.285.89.297 0 .692.197.989.296.098 0 .098.099.098.197-.098.297-.494.1-.691.1-.495-.1-.89-.1-1.286-.297-.395-.099-.691-.198-.988-.495-.098 0-.098-.098-.098-.098.098-.297.197-.593.395-.79v-.297c-.1 0-.198-.099-.297-.099-.296.296-.296.692-.593.988-.395.099-.692-.197-.988-.395-.198-.198-.198-.494-.099-.79.297-.594.692-.989.89-1.582.296-.395.396-.988.79-1.384.198-.395.297-.79.693-.988a.94.94 0 0 1 1.185.296c.1 0 .198-.099.297-.099a.63.63 0 0 1 .593 0c.099.1.197.198.296.1.297 0 .396-.1.692-.198.296-.1.692-.1.989.098.198.1.198.396.198.593.098.1.098.198 0 .198-.198.099-.396-.099-.495.099zm5.733.791c.099.297.494.494.198.89-.198.494-.791.89-1.187 1.285-.098.098-.197.098-.295.098-.396-.593-.594-1.285-.99-1.878-.097-.296-.197-.593-.394-.89-.099-.295-.495-.592-.495-.987 0-.099.1-.198.198-.297.396 0 .692 0 1.088.1l.198.098c.592.493 1.086 1.087 1.68 1.581m-.989-1.878h.099c.692-.099 1.384-.296 2.076-.099l.198.1.099.098c.098.692-.297 1.186-.693 1.78-.296 0-.394-.199-.592-.396-.297-.395-.594-.79-.99-1.087-.098-.1-.197-.198-.197-.396m-1.482 2.965c.296.494.494.989.79 1.384.1.099.1.198 0 .198-.296.296-.69.494-1.086.692-.396.099-.693.198-.99.198-.097 0-.197-.1-.197-.198-.197-1.088-.296-2.274-.494-3.36 0-.396 0-.89-.099-1.187v-.593c.198-.099.495-.099.693.099.296.395.394.89.691 1.383.297.396.396.989.692 1.384m-2.076 1.186c.1.495.1.989.198 1.483 0 .099-.098.197-.198.197-.296.198-.592.198-.889.297-.395 0-.692.099-.989 0-.098-.198-.098-.297 0-.494.297-.297.791-.297 1.088-.593.296-.296.395-.593.692-.89 0-.197.098-.099.098 0m-6.128-3.459c-.296.593-.494 1.186-.889 1.78-.198.296-.198.592-.395.889-.198.197-.198.494-.593.593-.495-.198-.89-.593-1.186-.989-.1-.494.197-.79.395-1.186.396-.494.79-1.087 1.186-1.482.494-.494 1.087-.593 1.68-.396a.3.3 0 0 1 .099.198c-.099.198-.297.395-.297.593m-2.371-.1c-.297.297-.495.594-.791.89-.198.1-.395.396-.593.297-.396-.396-.494-.89-.494-1.482 0-.1 0-.297.197-.396.396-.099.791.099 1.186 0h.396c.099.099.296.099.395.198 0 .198-.198.296-.296.494m-.89 3.362c.395.395.79.692 1.087.988 1.087.89 2.372 1.285 3.657 1.68.692.198 1.384.297 2.174.396.692 0 1.285-.1 1.977-.198.198 0 .395-.197.692-.197.494-.1.89-.396 1.384-.594.593-.197 1.087-.592 1.68-.79.692-.494 1.186-1.285 1.779-1.78.197-.494.692-.988.89-1.482s.593-.89.691-1.384c.198-.296.198-.593.495-.89.395-.197.889-.098 1.383-.197h.79c.1.099 0 .297 0 .494q-.148.593-.295 1.186c-.198.395-.297.89-.495 1.285-.197.396-.297.89-.593 1.285-.395.494-.692 1.088-1.087 1.483l-.593.593c-.494.395-.89.89-1.384 1.285-.296.198-.494.494-.89.593-.593.395-1.285.89-2.075 1.186l-1.088.396-.296.098-2.668.297c-.396 0-.692-.1-1.088-.1-.395-.098-.89-.098-1.384-.197-1.778-.198-3.459-.593-4.842-1.68a9 9 0 0 1-2.076-1.779l-1.186-1.482c-.395-.396-.494-.89-.692-1.285-.296-.791-.493-1.483-.593-2.274-.098-.296-.197-.692-.197-.988.099-.297.395-.198.592-.198.297 0 .396-.099.594-.099.395.1.988-.098 1.087.297.197.79.79 1.482 1.087 2.273.396.691.989 1.185 1.483 1.779m18.186-5.041c-.791 0-1.483.099-2.175.099H48.61c-.297.098-.691.098-1.087.098-.296 0-.593.1-.988 0h-4.25c-.494-.098-.99 0-1.582 0-.79 0-1.581.1-2.372 0h-3.953c-.593 0-1.087-.198-1.68-.098-.89-.1-1.78 0-2.67-.297-.295.099-.691 0-.987.099l-.198-.198c-.099-.692-.494-1.285-.198-1.878 0-.099.099-.296.198-.296h2.767c.198-.099.396 0 .593 0 .593-.099 1.285 0 1.977 0 .593-.099 1.087.197 1.78.099.493-.1 1.185 0 1.778 0 .297 0 .692-.1.989 0 .296 0 .692 0 .988-.1h2.075c.1-.098.297 0 .495 0 .493-.098.988 0 1.482-.098.89 0 1.779 0 2.669.099.197-.099.493 0 .79 0 1.186-.099 2.57-.099 3.756-.099.395-.099.89-.099 1.285-.099.098 0 .198 0 .296.099.1.296.1.593.1.988 0 .494.197.89.098 1.383a.213.213 0 0 1-.198.198c-.296.1-.493 0-.691 0m-16.11-6.029c-.198-.297-.594-.198-.791-.099q-.843.136-1.68.297c-.198-.1-.297 0-.396-.1.099-.197.296-.395.396-.493.197-.198.593 0 .593-.297.099-.198-.297-.296 0-.395.395-.1.79-.1 1.186-.1l1.779.1c.296.099.692.099.988 0 .1 0 .198-.1.1-.198-.199-.198-.396-.1-.693-.297h-1.482c-.395.1-.79 0-1.186-.098-.099 0-.198 0-.099-.1q.445-.296.89-.296h.099c0-.197 0-.296-.099-.395.692-.395 1.483.099 2.076.296l.296.1c.198.197.494.197.692.295.099.297-.296.494-.198.89 0 .593 0 1.285.593 1.78.395.197.79.395 1.186.493.198-.098.396 0 .593-.098.099.098.297 0 .396.098 0 .297.098.395.197.593-.099.396.099.692.099.989 0 .098-.099.098-.198.098-.197 0-.197-.098-.296-.197-.099-.396.099-.692.099-.989 0-.099-.099-.197-.198-.296-.099 0-.198.099-.198.099-.099.197-.099.494 0 .593 0 .197 0 .296-.099.395.099.198.099.396-.099.494-.098 0-.197.099-.296-.099-.099-.098 0-.296 0-.494.198-.198.099-.494.198-.79 0-.1 0-.1-.099-.198-.098 0-.296 0-.296.197-.099.1 0 .396-.099.594-.099.296 0 .691-.395.79h-.494c-.1-.099-.1-.099 0-.197.197-.396.593-.692.79-1.187 0-.098-.098-.197-.197-.395h-.1c-.198.198-.198.395-.395.593-.1.297-.396.692-.593.989-.198.197-.494.098-.692.098v-.098c.099-.297.395-.495.593-.791.197-.197.395-.296.593-.593 0 0 .099-.099.099-.296 0 0-.1-.1-.1-.198-.098 0-.296 0-.296.098-.197.1-.296.396-.395.594-.296.395-.79.79-1.087 1.284-.396.1-.791.1-1.186.1 0-.1-.1-.198 0-.198.691-.495 1.284-1.088 1.976-1.582.198-.296.593-.395.494-.79-.197-.198-.494-.198-.79-.198-.593.297-1.186.692-1.878.89-.593.296-1.186.494-1.68.79-.495.198-.89.494-1.384.395-.099 0-.198-.098-.099-.098.494-.395 1.087-.494 1.581-.791.494-.198.89-.396 1.285-.593.099 0 .198-.099.297-.198 0-.098-.198-.098-.396-.098-.395.098-.79.296-1.186.395-.494.098-.89.395-1.482.395 0 0-.099 0-.198-.099 0-.198.099-.296.198-.395l.593-.296c.79 0 1.482-.198 2.174-.396.099-.098.495-.098.395-.296m2.57-2.866c-.198 0-.297-.1-.396-.1-.198-.197-.396-.296-.593-.394-.1-.1-.1-.198 0-.198 0-.1.098-.198.296-.198.296-.099.395.296.593.396.395.197.494.593.79.79v.099c-.197.099-.296.494-.593.395-.296-.197-.592-.395-.889-.395-.296-.296-.692-.396-1.087-.494-.099 0-.099-.1-.099-.1.099-.197.296 0 .395-.098.198.198.396.198.692.198.197.198.593.296.89.395 0 0 .098 0 .098-.099.001-.098-.098-.098-.098-.197m.988-.692c0-.198-.099-.396 0-.495l.099-.098c.098 0 .197 0 .197.098-.099.297 0 .692.099.989-.099.098-.198.198-.296.198-.198.098-.297-.198-.494-.297-.198-.197-.297-.494-.593-.593v-.198c.098-.099.197-.099.296-.099l.099.1c.198.197.296.592.593.69.099.1.197 0 .197 0 0-.196-.098-.196-.197-.295m1.185.099a.213.213 0 0 0 .198-.198v-.396l.198-.296c.1 0 .198 0 .198.099 0 .296 0 .593-.099.79-.099.1 0 .396-.197.396-.198.098-.396.098-.692.098v-.098c-.099-.395-.099-.692-.099-.988v-.198c0-.099.099 0 .198 0s.198.099.198.198c-.001.197-.1.494.097.593m.692 1.087c.1 0 .297.099.396.198.198.098.395.296.494.395s.099.198.099.198c-.099.099-.395.198-.395.395.098.1.098.297.197.495.1 0 .198 0 .198.098 0 .494-.098.89-.494 1.285-.198.198-.494.1-.79.198-.594.197-1.187 0-1.681-.396-.395-.197-.494-.593-.593-.988 0-.395.099-.692.297-1.087.211-.31.48-.58.79-.79.395-.199.988-.199 1.482-.001m.297-1.78c.099 0 .099-.098.198-.098 0 0 .099 0 .099.099 0 .395-.198.692-.297.988 0 0 0 .099-.1.099-.098-.395.199-.692.1-1.087m.89.99h.099c.296-.297.493-.89.89-.693.098 0 .197 0 .197.099 0 .198-.099.099-.198.198-.297.395-.79.593-1.087.988-.099 0-.198 0-.297-.099-.197-.297 0-.692.1-1.087.098-.1.197-.396.395-.396.197 0 .197 0 .296.099v.099c-.198.198-.296.395-.395.593-.099 0 0 .1 0 .198m.593.987h.296c.396-.198.989-.395 1.483-.691.494-.1 1.087 0 1.482.395 0 0 .1 0 0 .099-.296 0-.593.099-.988.198a.213.213 0 0 0-.198.198c0 .098 0 .098.099.098.296 0 .593-.098.89-.197.197 0 .494-.099.79.099.098.098.395.197.296.395-.198.198-.494.198-.691.198-1.088-.099-2.076 0-3.163.099h-.494s-.1-.1 0-.198c.198 0 .296-.099.494-.198h.494l.79-.099.198-.197s-.098-.1-.198-.1c-.296-.098-.494 0-.79 0a13 13 0 0 0-.989.297c-.198 0-.099-.296-.198-.395-.098-.198 0-.297.1-.297.493-.593 1.185-1.186 1.976-.79l.1.098c0 .198-.298.1-.397.198-.494.198-.889.396-1.383.593zm1.58 1.68c.495.1.89.1 1.385.1h.79c.593 0 1.286-.198 1.68.296.1.297.198.494.198.692 0 .099 0 .099-.099.099-.296 0-.592-.198-.889-.198-.395-.099-.791-.296-1.285-.296-.395 0-.692-.297-1.087-.297-.395-.099-.692-.099-.989-.198-.493-.098-1.087-.098-1.384-.494-.098-.098 0-.197.1-.197.987-.099 1.877-.099 2.865-.099h.495c.493 0 .988 0 1.383.099 0 0 .198.099.1.197a4.3 4.3 0 0 1-1.583 0h-.988c-.296.1-.593-.098-.79.1 0 .098 0 .197.099.197m-.79.989c.297.198.593.099.89.297.396.098.79.197 1.186.395h.198c.198.198.395.099.593.198.296.099.692.197.989.395l1.185.297c.297.197.495.395.692.593.099 0 .099.198.099.296-.1.099-.296.099-.494.099-.099 0-.198-.099-.297-.099h-.395c-.297-.099-.395-.396-.593-.494-.099 0-.297-.099-.395-.198-.297-.099-.495-.296-.693-.395-.296-.1-.592-.198-.79-.297-.198-.296-.494-.296-.79-.494-.297-.099-.693-.198-.99-.296-.197-.1-.493-.198-.69-.297-.1 0-.199 0-.199.099 0 .296.297.296.495.395.197 0 .394.198.592.198.396.099.693.198.989.395.198.1.395.297.593.396.396.296.988.197 1.285.593.198.198.494.297.692.494 0 .099-.098.099-.098.099-.396-.099-.693-.099-.99-.099-.198 0-.394-.099-.592-.099-.494-.296-.988-.691-1.483-1.087-.494-.099-.79-.395-1.185-.692-.297-.197-.594-.494-.99-.593 0-.099-.097-.099-.097-.198.097-.197.295-.395.295-.593.1-.198.198 0 .297 0 .495.099.988.198 1.384.297.593.197 1.285.197 1.878.395.493.099.89.297 1.285.395.396.1.79.1 1.087.198.198.099.297.396.297.593 0 0-.1.099-.198.099-.693-.099-1.186-.494-1.878-.692-.494-.099-.988-.296-1.483-.494-.395-.099-.89-.099-1.285-.296-.099-.099-.198 0-.296 0-.1 0-.1.098-.1.197m-1.977.692.1-.099c.197 0 .197.198.296.198.297.296.593.494.79.79.297.198.396.494.594.692 0 .1.099.1 0 .198-.1 0-.198.099-.297.099s-.297 0-.297-.099c-.493-.593-.79-1.186-1.185-1.78m.495 1.68c0 .1-.099.198-.198.198-.099-.099-.297-.099-.395-.198-.1-.395-.198-.79-.198-1.186-.1-.099-.1-.198-.1-.395.1-.1.199.098.199.098.197.495.692.89.692 1.483m.099-1.779s-.099-.099-.099-.198c0-.098.099-.098.099-.098.197 0 .296.197.395.296.494.099.79.593 1.285.79.395.297.79.396 1.186.791.197.1.395.297.593.396h-.198c-.198 0-.494 0-.79-.099-.396-.099-.693-.296-.99-.593-.493-.395-.888-.89-1.481-1.285m-7.314 1.68c-.396.198-.989.297-1.483.1-.098 0 0-.1 0-.199.593-.395 1.285-.593 1.977-.89.396-.098.692-.395 1.087-.493.396-.1.692-.396 1.087-.494.1-.1.199-.198.297-.1-.098.297-.395.495-.692.693-.692.593-1.582.89-2.273 1.383m16.9.198h-.89c-.394 0-.69.099-.988 0h-.098c0-.494 0-.89-.297-1.285-.099-.395-.198-.79-.494-1.087-.098-.396-.395-.79-.593-1.088l-.89-1.186c-.395-.296-.593-.692-1.087-.988-.395-.297-.79-.494-1.186-.79-.395-.199-.89-.297-1.285-.495-.297-.197-.691-.197-1.087-.395a57 57 0 0 0-1.68-.297h-1.68c-.495 0-1.088.198-1.582.297l-.692.098c-.79.198-1.482.692-2.174 1.088-.396.296-.79.692-1.186.988-.494.395-.988.89-1.285 1.384-.198.198-.396.395-.494.593-.297.296-.395.692-.593.988-.297.593-.396 1.384-.692 2.076-.1.099-.198 0-.297 0a2.03 2.03 0 0 1-1.087 0c-.296 0-.593 0-.89-.099-.098-.099-.197-.198-.098-.395-.099-.89.296-1.582.494-2.372.099-.396.296-.791.494-1.186.297-.692.692-1.384 1.285-1.878.297-.396.494-.791.79-.989.494-.395 1.088-.89 1.681-1.087l.89-.593c.592-.296 1.185-.593 1.779-.79.296-.199.593-.297.889-.495.988-.395 2.273-.494 3.36-.692.297.099.495-.099.791 0 .89-.099 1.68.099 2.57.297l.89.296c.494.297.988.494 1.383.692.396.198.692.396 1.087.593.693.297 1.186 1.087 1.78 1.483.69.494 1.086 1.186 1.68 1.779v.099l.395.593c.198.296.395.692.494 1.087.395.692.494 1.483.89 2.174 0 .395.296.791.296 1.186 0 .297-.395.198-.592.396m-12.156-11.86c.396-.396.593-.989.593-1.68.099-.495-.099-.89-.296-1.286v-.098l.099.098c.296.198.593.396.79.692.099.099.198.099.198 0 .296-.296.494-.79.988-.89 0 0 .1-.098.1 0 0 .1-.1.1-.199.1-.395.395-.692.889-.79 1.383 0 .593.197 1.186.395 1.68h-.1c-.098-.098-.197-.296-.395-.494a.76.76 0 0 1-.197-.494s-.099-.1-.099 0c-.297.494-.494 1.186-1.186 1.383h-.198c0-.197.198-.197.297-.394m-.692-1.186c.099-.1.297-.297.494-.198h.099c0 .198-.099.296-.198.395s-.198.099-.395.099zM36.75 21.93c.099-.296.297-.296.494-.395.099 0 .198 0 .297.099 0 .296-.593.296-.297.593.297 0 .593-.198.692-.396.296-.395.692-.79.494-1.285.099 0 .297-.099.395 0 0 .198-.098.494.1.593.197 0 .296-.197.296 0 .098.099-.1.198-.1.198-.296.099-.592-.198-.691.099-.099.395-.296.89-.692 1.087-.296 0-.593.1-.79 0-.198-.197-.198-.395-.198-.593M26.669 34.186c0-.692.197-1.384.296-2.075.099-.297.198-.692.198-1.088l.395-.988c.396-.593.593-1.384 1.186-1.977.297-.494.692-.988 1.088-1.482.395-.593 1.087-.989 1.482-1.582.198-.098.494-.395.692-.494l1.186-.988c.494-.296.89-.494 1.384-.79.296-.198.692-.297 1.087-.396a.3.3 0 0 1 .396 0c.296.395.691.79 1.284.692.297-.099.593-.198.89-.494.099 0 .099-.099.296-.198.099 0 .198.198.297.198.494 0 .89 0 1.285-.198.296-.099.494-.297.692-.494.099 0 .197.197.296.296.296.198.692.198 1.087.297-.098.099-.198 0-.296 0-.989-.099-2.076.099-2.965.296-.89.198-1.78.297-2.57.692-.593.198-1.186.494-1.78.79-.79.297-1.581.89-2.372 1.187-1.186.89-1.977 2.075-2.767 3.262-.593.692-.692 1.581-.988 2.372-.1.593-.297 1.186-.396 1.878l-.296 1.482c-.099.099-.198 0-.297-.099-.099-.098-.198-.197-.395-.098-.099 0-.198 0-.297.098-.098 0-.098 0-.098-.099m1.087.988c0 .1 0 .198-.099.198h-.296c-.1.1-.198.198-.396.198-.099 0-.099-.099-.198-.198v-.198l.198-.197c.099 0 .198.099.296.197.198 0 .396-.098.495 0M38.43 47.825c-.198 0-.494-.098-.593.1-.099.197-.099.296-.099.493.1 0 .1.099.198 0 .099-.099.296 0 .396 0v.198c-.396.198-.791 0-1.187 0-.494-.198-.988-.198-1.482-.396-.296-.099-.593-.296-.89-.395-.691-.297-1.383-.593-2.075-1.087-.89-.593-1.878-1.384-2.47-2.274-.791-1.087-1.483-2.075-1.978-3.261-.098-.396-.395-.692-.493-1.088-.495-1.087-.692-2.273-.989-3.36 0-.099-.099-.297 0-.396.198-.099.297.198.494 0 .198-.197.396-.296.593-.099.198.297-.198.692.198.89.099.197.197.296.197.494-.098.198 0 .395.1.692l.296 1.186c.197.593.494 1.087.593 1.68.296.79.988 1.581 1.482 2.273s1.087 1.186 1.68 1.78c.79.592 1.68 1.284 2.669 1.58.79.297 1.482.396 2.273.594.988.296 2.076.296 3.064.395h.099c-.396.1-.396.692-.791.494-.494-.097-.89-.394-1.285-.493m3.36.791c-.494.296-.79.79-.79 1.285.099.692.395 1.384.79 1.977 0 .099.1.099.1.198-.199.099-.297-.1-.396-.198-.395-.296-.692-1.087-1.285-.79l-.297.296c-.098.099-.197.198-.296.099.099-.395.297-.692.297-1.088.098-.198.098-.592 0-.79-.297-.198-.494-.297-.791-.593l.197-.198c.297 0 .791.198.989-.098.098-.1.197-.198.296-.198.198.296.593.198.79.098.199 0 .199 0 .396-.098zm12.355-11.564c-.099.791-.395 1.483-.593 2.175-.395.89-.692 1.779-1.186 2.57-.494.889-1.087 1.68-1.58 2.47-.397.495-.891.89-1.386 1.286-.493.692-1.284 1.087-1.976 1.482-.89.593-1.78.988-2.767 1.384-.495.297-1.186.297-1.78.494-.098.099-.296.099-.394-.099v-.198c.197-.099.493-.099.592-.395 0-.198-.098-.297-.296-.396-.296-.098-.494.1-.79.1-.297.098-.594.296-.89.197-.1-.1-.297-.1-.297-.198v-.099c.198.1.494 0 .79 0 .495 0 .99-.198 1.483-.198.89 0 1.582-.197 2.273-.593.792-.395 1.483-.691 2.077-1.186l1.185-.89c.693-.89 1.78-1.58 2.372-2.569.693-.89 1.088-1.779 1.483-2.767.296-.692.395-1.384.692-2.175l.297-.296c0-.197 0-.395-.1-.494 0-.099 0-.198.1-.296.197-.1.394.197.592.296.1.099.1.297.1.395m0-1.186c-.099.099-.198.198-.395.099q-.15 0-.296-.296v-.198c.197-.198.493-.198.691-.099l.099.1c.099.097 0 .295-.099.394m-.099-1.186c-.099.099-.297 0-.396.099 0-.297-.098-.692-.197-.989-.099-.197 0-.494-.198-.692-.198-.89-.395-1.778-.79-2.57-.1-.395-.298-.691-.494-.987a6.8 6.8 0 0 0-.692-1.483c-.198-.197-.297-.494-.494-.692-.297-.296-.494-.692-.89-1.087-.297-.099-.495-.494-.79-.692-.594-.296-1.087-.89-1.68-1.186q-1.02-.436-1.978-.988c-.395-.197-.79-.296-1.186-.494 0 0-.099 0 0-.099s.297-.099.494-.198c.1-.197.297-.296.495-.494q.82.337 1.58.79c.693.298 1.384.594 1.978 1.088.691.396 1.087.988 1.68 1.483.692.494 1.186 1.285 1.68 2.075l.593 1.186c.297.594.495 1.187.79 1.78.29.764.49 1.56.594 2.372.099.593.198 1.186.198 1.779-.1-.001-.198-.1-.297-.001" clip-rule="evenodd"/><path fill="#A5333A" fill-rule="evenodd" d="M46.93 48.616c0 .1-.198.297-.1.396.1.296.1.593.298.79.098.297.198.593.395.791.198.198.396.099.593.198.099 0 .099.099.099.198-.1.198-.296.198-.494.198-.395.198-.89.396-1.285.593-.099.098-.099.296-.297.198-.198-.198-.198-.494-.395-.692 0-.099 0-.198.099-.198.098 0 .098.099.198.099.198 0 .296.099.395.099.099-.099.197-.198.395-.297l-.099-.494c-.099 0-.197-.1-.296 0-.099.099 0 .297-.198.297 0 .098-.099 0-.099-.1-.098-.197-.198-.395-.198-.691.1-.198.297.099.495 0v-.198c-.198-.197-.198-.692-.594-.494-.198.099-.395.099-.494.297 0 .099 0 .297-.197.395 0 0-.099 0-.099-.098-.099-.1 0-.198 0-.396 0-.1-.099-.297.099-.297.394-.198.89-.297 1.285-.494.197-.1.296-.199.494-.1m-10.675.989c.297.593 0 1.285-.197 1.977 0 .098 0 .395.197.494 0 .098-.098.197-.098.197-.198 0-.396-.098-.593-.197-.1-.1-.396 0-.494-.1 0-.197.197-.197.296-.296l.099-.098c.197-.494.395-.989.395-1.483a.54.54 0 0 0-.296-.494c-.198 0-.494 0-.692.297-.197.296-.494.691-.494 1.087 0 .297.099.396.198.594 0 0 0 .098-.099.098-.197 0-.494-.198-.692-.395-.197 0-.395.099-.494-.198l.099-.099c.296-.099.198-.494.395-.692.198-.494.593-.988 1.088-1.186.493-.1 1.086-.1 1.382.494m-3.36-1.582c-.296-.197-.692-.494-.988-.593-.395-.099-.79 0-1.087.296-.198.297-.099.692 0 .989.099.198-.198.198-.297.296-.198.297-.098.692 0 .989.1.197.396.197.593.395.297.198.594.296.89.494.099 0 .197 0 .197-.099s-.197-.297-.296-.395c-.099-.297.198-.395.296-.692.198-.297.495-.79.89-.988.1-.1.396.098.495-.1-.198-.295-.495-.394-.693-.592M31.412 50c-.197.099-.296-.198-.395-.198v-.296c.099-.1.198-.1.296-.1l.297.297c0 .1-.098.199-.198.297m.593-1.285c-.098.1-.098.198-.197.198s-.296-.099-.296-.296v-.494c.197-.099.493-.099.691.099.099.197-.198.295-.198.493" clip-rule="evenodd"/><path fill="#000" fill-rule="evenodd" d="M41.099 63.046c.197.099.395.099.494.198v1.483c-.297-.198-.199-.495-.396-.594-.395-.493-.988-.691-1.68-.592-.198.198-.494.198-.593.493-.297.395-.198.989 0 1.384.494.494 1.087.593 1.68.89.593.198 1.186.493 1.582.988.297.396.297.79.297 1.285s-.198 1.087-.594 1.483c-.297.296-.692.593-1.186.692-.79.296-1.779.098-2.57.098-.098-.098-.296.099-.395-.098.1-.495.1-1.088.1-1.582 0 0 0-.099.098-.099 0 .1 0 .198.099.297.179.277.414.513.692.692.593.296 1.285.296 1.877.098.495-.098.89-.494.989-.89.197-.493.098-.988-.199-1.284-.592-.692-1.482-.989-2.273-1.286-.494-.197-.89-.493-1.087-.988-.198-.395-.297-.79-.198-1.186.1-.494.297-.89.692-1.186.693-.395 1.681-.395 2.57-.296m11.564.099h.098c.396 0 .693.099 1.087 0 .1 0 0 .099 0 .198-.098.099-.394.099-.493.297-.099.493 0 .988-.099 1.482v2.866c.099.692-.198 1.581.494 2.076.296.198.692.098.989.098.79.1 1.68.1 1.976-.692.099 0 .099-.098.198-.098.198.098 0 .296 0 .395 0 .297-.099.593-.099.89 0 .099-.099.099-.198.099-.691 0-1.383.098-2.174.098h-2.668v-.098c-.1-.099 0-.198.098-.198.198 0 .296-.198.395-.297.099-.198.099-.395.099-.593V66.01c0-.79.099-1.483 0-2.273-.099-.297-.296-.297-.494-.396 0-.099-.098-.099 0-.198.296.001.593.1.79.001m-34.593 0c-.1.198-.297.198-.396.297s-.197.198-.197.395v4.843c0 .593.296 1.186.889 1.384.79.296 1.78.198 2.57-.1.593-.197.79-.79.89-1.284l.098-.692v-3.855a.86.86 0 0 0-.395-.691c-.099 0-.198-.1-.297-.198-.099 0 0-.099 0-.099h1.977l.1.099c-.1.099-.297.099-.396.198-.297.198-.198.592-.198.988l-.1 3.953c0 .494-.197.99-.395 1.384-.296.593-.89.79-1.482.989-.692.197-1.384.197-2.076.098-.098 0-.296 0-.395-.098-.692-.099-1.285-.495-1.581-1.187a4 4 0 0 1-.297-1.482l.099-.988-.099-3.163c0-.197 0-.395-.099-.494-.098-.099-.296-.099-.395-.198 0-.099.099-.099.099-.099zm17.691.395c-.494-.593-1.384-.395-2.174-.494-.593.099-1.186.099-1.78.099-.197 0-.494-.099-.592.099v.099c.296 0 .494.098.593.395.098.493 0 1.087.098 1.68v3.756l-.098.692c0 .296 0 .593-.297.692-.098.099-.198.099-.198.099 0 .098-.098.197 0 .197.593-.098 1.285 0 1.878 0h.297v-.098l-.099-.099c-.098-.099-.296-.099-.395-.297s-.099-.395-.099-.593v-2.668c1.087.098 1.977 0 2.767-.494.099-.198.297-.297.297-.494.396-.791.396-1.78-.198-2.57m-.395 1.483c0 .395 0 .79-.296 1.087-.495.593-1.285.494-2.076.494-.099-.099-.099-.198-.099-.395v-2.274c0-.098-.098-.296.1-.296.296-.099.592-.099.89-.099.493.099 1.185.099 1.284.691.098.298.197.495.197.792m-5.93-1.186c-.198-.395-.593-.593-.988-.692-1.187-.099-2.472 0-3.658 0-.098 0-.197 0-.197.099s.197.099.296.099c.692.395.297 1.383.396 1.977v4.052c-.1.494.098 1.087-.495 1.285 0 0-.098 0-.098.099-.1 0-.1.098 0 .098.691 0 1.383-.098 2.174 0v-.098c-.099-.099-.198-.099-.296-.099-.297-.297-.297-.593-.297-.989v-2.372c0-.099.099-.099.099-.099h.692c.395 0 .692-.098 1.087-.098.297-.1.593-.198.89-.396l.395-.395c.099-.198.198-.296.198-.494.197-.692.099-1.483-.198-1.977m-.89 2.273c-.197.198-.395.395-.691.494H26.47c-.198-.099-.198-.395-.198-.494v-2.372c.099-.099.198 0 .296-.099h1.483c.197.099.494.198.593.395.198.297.198.692.198 1.088 0 .296-.099.691-.297.988m36.866 4.448c-.198 0-.494-.099-.593-.297-.494-.89-.79-1.78-1.186-2.668-.593-1.582-1.384-3.262-2.075-4.844-.099 0-.099.099-.198.099-.198.79-.692 1.582-.989 2.274-.197.493-.494.89-.691 1.383-.495 1.186-1.087 2.372-1.582 3.558-.099.198-.198.396-.396.396-.098.098-.197.098-.296.098v.198h1.186c.198 0 .593.098.692-.098 0-.1-.1-.198-.296-.198 0-.198-.1-.297 0-.495.197-.592.493-1.185.79-1.779q0-.296.297-.296h2.57l.296.296.493 1.483c.1.198.198.395.198.692-.098.198-.296.198-.395.395h2.273c.002-.098.002-.098-.098-.197m-2.965-3.361-.098.099c-.593 0-1.186-.1-1.78 0-.098-.1-.296 0-.296-.1v-.295c.395-.79.79-1.581 1.087-2.471h.1c.197.494.394.988.493 1.482.198.297.296.79.494 1.087 0 .1.1.198 0 .198m-11.564 3.46c-.296-.1-.395-.297-.593-.495-.494-1.087-.988-2.174-1.383-3.261l-.989-2.273c-.198-.594-.494-1.186-.692-1.78 0-.198-.099 0-.198 0-.79 1.78-1.581 3.46-2.372 5.14-.198.593-.494 1.186-.79 1.779-.212.31-.48.58-.791.79-.099.1-.198.1-.198.199l.099.098c.593-.098 1.185-.197 1.779 0 .099-.098.099-.098.099-.197 0-.1-.198-.1-.198-.198-.198-.1-.198-.297-.198-.396.297-.691.593-1.384.89-1.977 0-.098.098-.197.197-.197h2.669l.099.099.593 1.58c.099.297.297.594.198.89-.099.199-.395.1-.395.395h.098a7.4 7.4 0 0 1 2.075 0l.1-.098s0-.098-.099-.098m-3.459-3.36h-1.68v-.1c.395-.89.79-1.68 1.185-2.57 0 0 0-.098.1 0 .296.791.593 1.681.988 2.57-.098.198-.395 0-.593.1m-30.54 12.65h.099c.395.396.79.89 1.285 1.285.494.494.988 1.087 1.581 1.582v-4.745c0-.198 0-.198-.099-.395 0-.296-.197-.494-.494-.593 0-.099 0-.099.099-.198.523.099 1.06.099 1.582 0l.098.099c0 .099-.197.198-.296.198-.099.198-.197.296-.197.592 0 .99-.1 1.878-.1 2.966v2.57c.1.395 0 .89.1 1.383h-.198c-.494-.493-.791-.89-1.285-1.285-.396-.395-.89-.79-1.187-1.186-1.284-1.186-2.47-2.372-3.755-3.557 0 0 0 .098-.099.098v2.768c.099.79 0 1.68.099 2.372.197.198.296.494.593.494v.099l-.099.099c-.593-.1-1.186-.1-1.78-.1-.098.1-.098 0-.098 0 0-.197.297-.197.395-.296.297-.395.198-.989.198-1.482l.099-5.437-.099-.692c.099-.099.099-.099.198 0zm34.395-3.163c.099 0 .099.099.099.099l.099.198v1.087h-.198c-.199-.198-.1-.396-.297-.593-.395-.395-1.087-.395-1.582-.297-.21.112-.382.284-.493.494-.198.395-.297.89-.1 1.286.199.296.692.592.989.691.099.099.297.099.395.198.594.099.989.396 1.483.692.198.198.395.494.493.79.198.494.396 1.186.1 1.681v.098c-.198.297-.297.494-.593.692-.693.693-1.582.693-2.471.693-.297.097-.594 0-.99 0-.098 0-.295-.1-.493-.1v-1.482c0-.099.1-.099.1-.099.197.296.394.593.69.692.594.494 1.384.494 2.175.297.395-.198.692-.594.79-.989a1.47 1.47 0 0 0-.69-1.482c-.396-.297-.891-.494-1.287-.692-.691-.297-1.284-.593-1.58-1.384-.198-.691-.1-1.482.493-1.976.694-.89 1.88-.693 2.868-.594m26.093.099c.098 0 .098.099.098.198v1.285c-.098.099-.098.099-.198 0-.099-.099 0-.198-.098-.297 0-.297-.297-.593-.593-.691H74.9c-.198 0-.198.099-.297.198v6.028c0 .297.198.594.494.693 0 0 .198 0 .198.099 0 0 0 .098-.099.098h-2.175v-.099c.1-.197.396-.098.495-.395 0 0 .099-.099.099-.198v-5.93c0-.198 0-.395-.198-.494-.495-.099-.89 0-1.384 0-.396 0-.692 0-.89.395-.198.099-.198.297-.198.593 0 0-.098.1-.197 0v-1.482zm-8.204 0h.099c.099 0 .099.099.099.099.098.395 0 .79 0 1.087 0 .099-.1.099-.1 0-.098-.198-.296-.494-.593-.593-.691-.297-1.285-.099-1.976-.099a.213.213 0 0 0-.198.198v2.57h2.372c.198 0 .297-.297.494-.396v.099c-.099.395 0 .89 0 1.384 0 .098-.099 0-.099 0-.098-.198-.198-.396-.395-.495-.099-.098-.296-.098-.395-.098H66.5v2.471c0 .296.099.494.297.692s.592.197.89.197c.493 0 1.086-.098 1.58-.098.298-.099.298-.495.396-.692.1-.099.198-.099.198 0 0 .395-.099.79 0 1.186l-.099.099h-4.843c-.099 0-.099-.099 0-.099.198-.099.494-.198.594-.494v-.297l.098-5.238c-.098-.396-.098-.79-.296-1.186-.198-.099-.396 0-.396-.198 0-.099.099-.099.099-.099zm-5.634 0c.1 0 .1 0 .1.099v1.285c0 .098-.1.099-.199.099-.099-.198-.099-.396-.198-.594-.197-.296-.493-.395-.79-.395h-1.483c-.098 0-.197 0-.197.099l-.1.197v4.35c0 .593 0 1.185.1 1.779 0 .098.098.197.197.296.1.1.297.198.396.297.099 0 .099 0 .099.099h-2.373c-.098 0-.098-.099-.098-.198.197 0 .494-.099.593-.297.099-.099.099-.297.099-.494V77.97c0-.198.098-.493-.1-.593h-.197c-.593-.099-1.285-.099-1.78.099-.394.099-.493.493-.592.79 0 0 0 .099-.099.099v-1.384c0-.099 0-.099.099-.099zm-7.906 0v.099c0 .099-.1 0-.198.099-.297.098-.396.395-.396.691v5.535c.099.297 0 .79.396.989.098.099.198 0 .296.099 0 .098-.098.098-.098.098-.693-.098-1.384 0-1.978 0-.098 0-.098 0-.098-.098.098-.1.198-.1.296-.198a.213.213 0 0 0 .198-.198v-.396l.1-5.732c-.1-.296-.1-.593-.298-.692-.098-.099-.296-.099-.296-.198v-.099c.395 0 .79.1 1.285 0zm-17.198.1c.099.296 0 .593 0 .889v.098c-.198-.098-.198-.296-.395-.394-.593-.396-1.285-.198-1.977-.198h-.297c-.099 0-.099.099-.099.099-.098 0-.098 1.778-.098 2.668h2.372c.099 0 .198-.099.296-.198 0 0-.098-.099 0-.099 0 0 .1-.098.1 0h.098c-.099.495-.099.89-.099 1.285h-.099c-.098-.296-.395-.494-.79-.395-.593 0-1.186-.099-1.878 0v2.373c0 .197.099.493.296.691.396.297.988.198 1.483.198.395 0 .889 0 1.086-.297.198-.198.1-.395.297-.593 0 0 .099 0 .099.099v1.285h-4.151c-.198 0-.494.099-.593 0-.099 0-.099-.099 0-.099.099-.098.296-.098.395-.296.1-.1.1-.198.1-.297V81.43c.098-1.186.197-2.57 0-3.756-.1-.198-.1-.494-.297-.494-.099-.099-.198-.099-.198-.198 0 0-.099 0 0-.099h4.052c.198 0 .297 0 .297.1m-5.535-.1c.1 0 .1.099.1.099-.198.198-.495.198-.594.494a391 391 0 0 1-3.064 7.215h-.098l-.692-1.483-2.669-5.83c-.198-.199-.395-.199-.593-.297-.099 0-.099-.1-.099-.1v-.098h2.075s.1 0 .1.099c0 .198-.297.198-.297.395v.198l1.087 2.372c.395.89.89 1.878 1.285 2.767.099-.099.099-.198.198-.297l1.779-4.448c.099-.197.197-.69-.099-.79-.099-.099-.197-.099-.197-.198v-.099zm-8.401 0c.099.099.099.198 0 .198-.099.099-.296.099-.396.198-.197.198-.098.493-.098.691 0 .693-.1 1.384-.1 2.076v3.261c.1.396.1.692.396.99.1 0 .198 0 .297.197 0 0 0 .099-.1.099-.69-.099-1.383 0-1.976 0-.099 0-.099-.099-.099-.099 0-.198.198-.099.297-.198.198 0 .198-.198.198-.297.099-2.075.098-4.25.098-6.325-.098-.098-.098-.296-.197-.395-.198-.099-.395-.099-.494-.198-.099 0 0-.099 0-.099l.099-.099zm-12.651.1c0 .098 0 .098-.099.098-.395.198-.494.691-.494 1.087v3.755q0 1.038-.593 1.78c-.395.494-.988.79-1.582.89-.593.098-1.185.098-1.779.098-.593-.098-1.186-.296-1.581-.79-.099 0-.099-.099-.099-.099-.395-.494-.494-1.087-.593-1.78v-4.15c-.099-.296-.099-.692-.494-.79v-.1c.099-.098.197 0 .296 0 .593 0 1.186-.098 1.78 0h.098c-.099.1-.197.1-.296.1-.396.296-.396.889-.396 1.284v2.669c0 .988-.098 2.372 1.088 2.866.197.198.593.099.89.198.889 0 1.877-.297 2.371-.988 0-.198.099-.396.099-.594.099-1.383 0-2.569.099-4.052-.1-.297-.1-.494-.198-.692 0-.395-.297-.593-.494-.692-.1-.098 0-.098.098-.098h1.879m35.186 7.412q-.594-.149-.89-.593c-.395-.692-.89-1.285-1.285-1.879-.198-.394-.494-.69-.692-1.086v-.198l.395-.1c.396-.098.79-.493.989-.889.198-.494.098-1.087 0-1.68-.1-.297-.395-.692-.692-.89-.099 0-.198-.098-.395-.098-.1-.099-.297-.099-.495-.099h-3.36s-.099 0-.099.099c.1.099.198.099.297.099q.297.296.297.592v6.03c-.1.198-.1.395-.198.494-.099.099-.297.099-.396.198v.099c.594 0 1.187-.099 1.78 0 .099 0 .296.099.395 0v-.198h-.395c-.198-.099-.198-.396-.198-.495v-2.965h.79c.198.099.297.297.396.396.691.79 1.186 1.68 1.78 2.57.098.296.394.493.592.593.395.198.79.198 1.285.296l.099-.098zm-4.052-4.151c-.198 0-.494 0-.79-.099h-.1v-2.57c.199-.198.396-.099.593-.099.495 0 .99-.098 1.483.198h.099v.098c.197.1.197.198.296.396.198.297.1.692.1.988q-.15.593-.594.89c-.296.1-.593.198-1.087.198" clip-rule="evenodd"/></svg>